<?xml version="1.0" encoding="utf-8"?>
<!-- Generator: Adobe Illustrator 27.4.1, SVG Export Plug-In . SVG Version: 6.00 Build 0)  -->
<svg version="1.1" id="Layer_1" xmlns="http://www.w3.org/2000/svg" xmlns:xlink="http://www.w3.org/1999/xlink" x="0px" y="0px"
	 viewBox="0 0 627 219.9" style="enable-background:new 0 0 627 219.9;" xml:space="preserve">
<style type="text/css">
	.st0{fill:none;stroke:#999999;stroke-width:2;stroke-linecap:square;stroke-linejoin:round;stroke-opacity:0.6;}
	.st1{fill:none;stroke:#2C7BB6;stroke-width:2;stroke-linecap:square;stroke-linejoin:round;stroke-opacity:0.7;}
	.st2{fill:none;stroke:#D7191C;stroke-width:2;stroke-linecap:square;stroke-linejoin:round;stroke-opacity:0.7;}
	.st3{font-family:'ArialMT';}
	.st4{font-size:3.7647px;}
	.st5{font-family:'Arial-BoldMT';}
	.st6{font-size:4.0336px;}
	.st7{fill:#A3CCE3;stroke:#231F20;stroke-width:0.25;stroke-miterlimit:10;}
	.st8{fill:#519BCA;stroke:#231F20;stroke-width:0.25;stroke-miterlimit:10;}
	.st9{fill:#145FA5;stroke:#231F20;stroke-width:0.25;stroke-miterlimit:10;}
	.st10{fill:#083877;stroke:#231F20;stroke-width:0.25;stroke-miterlimit:10;}
	.st11{fill:#C6DBEF;stroke:#231F20;stroke-width:0.25;stroke-miterlimit:10;}
	.st12{opacity:0.64;fill:none;stroke:#231F20;stroke-linecap:round;stroke-linejoin:round;enable-background:new    ;}
	.st13{font-size:6px;}
	.st14{font-size:5.1521px;}
	.st15{stroke:#000000;stroke-width:0.5;stroke-linejoin:round;}
	.st16{fill:none;stroke:#000000;stroke-width:0.5;stroke-linecap:square;}
	.st17{fill:none;}
	.st18{fill:none;stroke:#2C7BB6;stroke-width:2;stroke-linecap:square;stroke-linejoin:round;stroke-opacity:0.6;}
	.st19{fill:none;stroke:#D7191C;stroke-width:2;stroke-linecap:square;stroke-linejoin:round;stroke-opacity:0.6;}
	.st20{fill:#C6DBEF;stroke:#333333;stroke-width:0.5;stroke-linejoin:round;}
	.st21{fill:#1B67AA;stroke:#333333;stroke-width:0.5;stroke-linejoin:round;}
	.st22{fill:#084B93;stroke:#333333;stroke-width:0.5;stroke-linejoin:round;}
	.st23{fill:#08326E;stroke:#333333;stroke-width:0.5;stroke-linejoin:round;}
	.st24{fill:#08306B;stroke:#333333;stroke-width:0.5;stroke-linejoin:round;}
	.st25{fill:#083E81;stroke:#333333;stroke-width:0.5;stroke-linejoin:round;}
	.st26{fill:#084387;stroke:#333333;stroke-width:0.5;stroke-linejoin:round;}
	.st27{fill:#083C7D;stroke:#333333;stroke-width:0.5;stroke-linejoin:round;}
	.st28{fill:#084990;stroke:#333333;stroke-width:0.5;stroke-linejoin:round;}
	.st29{fill:#0D569F;stroke:#333333;stroke-width:0.5;stroke-linejoin:round;}
	.st30{fill:#084D96;stroke:#333333;stroke-width:0.5;stroke-linejoin:round;}
	.st31{fill:#084F99;stroke:#333333;stroke-width:0.5;stroke-linejoin:round;}
	.st32{fill:#145FA5;stroke:#333333;stroke-width:0.5;stroke-linejoin:round;}
	.st33{fill:#1F6BAD;stroke:#333333;stroke-width:0.5;stroke-linejoin:round;}
	.st34{fill:#1863A7;stroke:#333333;stroke-width:0.5;stroke-linejoin:round;}
	.st35{fill:#236FAF;stroke:#333333;stroke-width:0.5;stroke-linejoin:round;}
	.st36{fill:#2E7BB7;stroke:#333333;stroke-width:0.5;stroke-linejoin:round;}
	.st37{fill:#2673B2;stroke:#333333;stroke-width:0.5;stroke-linejoin:round;}
	.st38{fill:#3583BC;stroke:#333333;stroke-width:0.5;stroke-linejoin:round;}
	.st39{fill:#317FBA;stroke:#333333;stroke-width:0.5;stroke-linejoin:round;}
	.st40{fill:#2A77B5;stroke:#333333;stroke-width:0.5;stroke-linejoin:round;}
	.st41{fill:#BCD7EB;stroke:#333333;stroke-width:0.5;stroke-linejoin:round;}
	.st42{font-size:5px;}
	.st43{font-size:4px;}
	.st44{fill:#C6DBEF;stroke:#252525;stroke-width:0.48;stroke-linejoin:round;}
	.st45{fill:none;stroke:#231F20;stroke-width:2;}
	.st46{fill:#231F20;}
	.st47{font-size:12px;}
</style>
<g>
	<g>
		<g>
			<path class="st0" d="M18.6,124.5h3.5h3.5"/>
			<path class="st1" d="M18.6,129.9h3.5h3.5"/>
			<path class="st2" d="M18.6,134.8h3.5h3.5"/>
		</g>
		<g>
			<text transform="matrix(1 0 0 1 27.7729 125.5284)" class="st3 st4">Ground Truth</text>
			<text transform="matrix(1 0 0 1 27.6372 130.8932)" class="st3 st4">JMavSim</text>
			<text transform="matrix(1 0 0 1 27.6372 135.8187)" class="st3 st4">Gazebo</text>
		</g>
	</g>
	<g>
		<text transform="matrix(1 0 0 1 17.7766 78.6739)" class="st5 st6">Waypoint Counts</text>
		<g>
			<path id="DejaVuSans-20_00000067223676490147033450000001822728274769017225_" d="M35.8,84.6"/>
			<path id="DejaVuSans-20_00000160910113191351137940000012039742001915687103_" d="M35.8,84.6"/>
			<path id="me0be381cd4" class="st7" d="M31.1,91.2c0.5,0,0.9-0.2,1.3-0.5c0.3-0.3,0.5-0.8,0.5-1.4c0-0.5-0.2-1-0.5-1.4
				c-0.3-0.3-0.8-0.5-1.3-0.5s-0.9,0.2-1.3,0.5c-0.3,0.3-0.5,0.8-0.5,1.4c0,0.5,0.2,1,0.5,1.4C30.2,91,30.6,91.2,31.1,91.2z"/>
			<path id="m1936040fab" class="st8" d="M31.1,97.5c0.6,0,1.1-0.3,1.6-0.7s0.7-1,0.7-1.6s-0.2-1.2-0.7-1.6
				c-0.4-0.4-0.9-0.7-1.6-0.7s-1.1,0.3-1.6,0.7s-0.7,1-0.7,1.6s0.2,1.2,0.7,1.6C30,97.3,30.5,97.5,31.1,97.5z"/>
			<path id="m864e4055d0" class="st9" d="M31.1,104.6c0.7,0,1.4-0.3,1.8-0.8c0.5-0.5,0.7-1.2,0.7-1.9c0-0.7-0.3-1.4-0.7-1.9
				c-0.5-0.5-1.1-0.8-1.8-0.8c-0.7,0-1.4,0.3-1.8,0.8c-0.5,0.5-0.7,1.2-0.7,1.9c0,0.7,0.3,1.4,0.7,1.9
				C29.8,104.4,30.4,104.6,31.1,104.6z"/>
			<path id="m87b1eac748" class="st10" d="M31.1,112.3c0.7,0,1.5-0.3,2-0.9c0.5-0.5,0.8-1.4,0.8-2.1s-0.3-1.6-0.8-2.1
				s-1.3-0.9-2-0.9s-1.5,0.3-2,0.9c-0.5,0.5-0.8,1.4-0.8,2.1s0.3,1.6,0.8,2.1S30.4,112.3,31.1,112.3z"/>
			<text transform="matrix(1 0 0 1 35.8073 90.8637)" class="st3 st6">15</text>
			<text transform="matrix(1 0 0 1 35.8073 96.368)" class="st3 st6">30</text>
			<text transform="matrix(1 0 0 1 35.8073 103.321)" class="st3 st6">45</text>
			<text transform="matrix(1 0 0 1 35.8073 110.9885)" class="st3 st6">60</text>
			<path id="md5ae9eabb5_00000144318926667577987180000008071245404815664264_" class="st11" d="M31.1,85.7c0.3,0,0.6-0.1,0.8-0.3
				c0.3-0.3,0.3-0.6,0.3-0.8c0-0.3-0.1-0.6-0.3-0.8c-0.3-0.3-0.6-0.3-0.8-0.3s-0.6,0.1-0.8,0.3S30,84.3,30,84.6
				c0,0.3,0.1,0.6,0.3,0.8C30.6,85.5,30.8,85.7,31.1,85.7z"/>
			<text transform="matrix(1 0 0 1 35.8073 85.6535)" class="st3 st6">1</text>
		</g>
	</g>
</g>
<g>
	<path class="st12" d="M190.5,208.8H63.7c-5.5,0-9.9-4.4-9.9-9.9V21.4c0-5.5,4.4-9.9,9.9-9.9h126.9c5.5,0,9.9,4.4,9.9,9.9v177.5
		C200.4,204.3,196,208.8,190.5,208.8z"/>
	<text transform="matrix(1 0 0 1 95.757 8.6412)" class="st5 st13">Total Waypoints: 1540</text>
	<text transform="matrix(5.991317e-07 -1 1 5.991317e-07 60.2077 70.1176)" class="st5 st14">Latitude</text>
	<path id="m5d4bef76fa" class="st15" d="M72.1,97.5h-1"/>
	<path id="m5d4bef76fa_00000159434433008520715580000001368403545648767893_" class="st15" d="M72.1,82.5h-1"/>
	<path id="m5d4bef76fa_00000047054287974387394070000011842709063948636038_" class="st15" d="M72.1,67.6h-1"/>
	<path id="m5d4bef76fa_00000048480646868109307490000003654639516685047209_" class="st15" d="M72.1,52.6h-1"/>
	<path id="m5d4bef76fa_00000174600796172250573760000002456586591976409014_" class="st15" d="M72.1,37.6h-1"/>
	<path id="m5d4bef76fa_00000029035102698062848880000013638944839889452986_" class="st15" d="M72.1,22.7h-1"/>
	<path class="st16" d="M72.1,110.4V17.9"/>
	<g>
		<path id="me6975053c8" class="st15" d="M91.4,110.4v1"/>
		<path id="me6975053c8_00000064322262152881996410000001498469094192326316_" class="st15" d="M116.5,110.4v1"/>
		<path id="me6975053c8_00000045615270945923943310000000401048290333448332_" class="st15" d="M141.5,110.4v1"/>
		<path id="me6975053c8_00000024686927287014717720000005984967599510888892_" class="st15" d="M166.6,110.4v1"/>
		<path id="me6975053c8_00000178168430877439164220000006581489161463107979_" class="st15" d="M191.7,110.4v1"/>
		<path class="st0" d="M140.7,22.1l-6.3,28L167,83.7h-65.1l32.4-35.9l41.4,24.7l-41.4,24.7L92.9,72.5l41.3-27l42.9,18.6l-16.5,30.1
			h-53L91.3,64.1l43-20.8L176.6,58v29.2l-42.3,14.6L92,87.2V58l42.3-16.8L175.4,53l10.2,26.5L157,100.8h-45.6L82.8,79.5L93.1,53
			l41-14.1l40,9.8l16.5,23.8l-16.5,23.9l-40,9.8l-39.8-9.8L77.7,72.5l16.6-23.8l39.8-12.2l6.6-14.3"/>
		<rect x="72.1" y="17.9" class="st17" width="124.1" height="92.5"/>
		<path class="st18" d="M141.5,22.7L141.5,22.7L141.5,22.7L141.5,22.7L141.5,22.7L141.5,22.7L141.5,22.7L141.5,22.7L141.5,22.7
			L141.5,22.7L141.5,22.7L141.5,22.7L141.5,22.7L141.5,22.7L141.5,22.7L141.5,22.7L141.5,22.7L141.5,22.7L141.5,22.7L141.5,22.7
			L141.5,22.7L141.5,22.7L141.5,22.7L141.5,22.7L141.5,22.7L141.5,22.7L141.5,22.7L141.5,22.7l-0.1,0.2l-0.1,0.5l-0.3,2l-0.3,1.7
			l-0.3,1.4l-0.4,1.4l-0.4,1.4l-0.6,1.6l-1.3,3.5l-0.3,1.1l-0.3,1.4l-0.4,2l-0.9,4.3l-0.5,1.9l-0.5,2l-0.3,0.9l0,0l0.4,0.3l0.6,0.6
			l1,1.1l1.8,1.9l4.2,4.4L153.8,70l9.3,9.6l2.7,2.8l0.4,0.6l0.5,0.7l0,0h-0.1h-0.5h-2.3l-5.9-0.1h-3.1l-6.3,0.1l-7,0.1h-4.2
			l-6.1-0.1l-8.1-0.1h-6.4H104h-1.9H102h0.1l0.3-0.3l0.6-0.6l1-1.1l3-3.3l1.6-1.9l3-3.6l1.8-2l2-2.2l5.9-6.4l4.5-5l3.2-3.6l4.3-4.7
			l0.8-1l0.2-0.2l0.2,0.1l5.9,3.7l2.3,1.4l7.9,4.6l5.7,3.4l5.5,3.3l9.6,5.7l3.1,1.9l0.9,0.5l0.2,0.2l-0.1,0.1l-0.4,0.3l-6.3,3.6
			l-3.1,1.9l-4,2.5l-3.8,2.4L155,85l-6.8,4l-4.3,2.6l-6.5,3.9l-3,1.8h-0.1l-0.2-0.1l-0.6-0.3l-2.3-1.5l-2.5-1.6l-2.5-1.5l-3-1.7
			l-8.1-4.6l-2.7-1.6l-9.4-5.8l-9.7-5.7l-0.4-0.2l0,0l0.1-0.1l0.6-0.4l4.7-2.9l2.8-1.9l4.5-3.1l3.8-2.5l3.2-2.1l11.7-7.5l6.2-4.2
			l2.6-1.7l1.1-0.6l0.1,0.1l0.9,0.5l2.1,1l3.9,1.7l5.6,2.4l7.3,3.1l5.1,2.3l8.4,3.7l4.7,2l3.3,1.4l1.1,0.5v0.1l-0.9,1.5l-0.7,1.4
			l-1.6,2.9l-2,3.9l-2.2,4.2l-1.6,2.9l-3.1,5.5l-2.8,5.2l-0.4,0.9l-0.5,0.9l-0.4,0.6h-0.2h-0.4h-1h-2.3h-14.9h-10.6l-23.2-0.1h-0.4
			V94l-0.2-0.2l-0.3-0.4l-0.5-0.8l-1.9-3.5l-2.2-4.2L98.7,78l-5.3-10L92,65.4l-0.3-0.7l-0.2-0.5l0.1-0.1l0.3-0.2l0.7-0.4l1.3-0.6
			l10.1-4.8l12.5-6.1l9.1-4.3l8.8-4.2l0.3,0.1l1.5,0.6l2.6,0.9l7.5,2.6l11.9,3.9l5.5,2l9.4,3.3l1.6,0.5l1.1,0.3l0.5,0.2l0.1,0.1
			l0.1,0.2v0.5v0.9v3v3.8l0.1,3.8v3.2v2.7l-0.1,6.5v2.2v1.8l-0.1,0.4l-0.1,0.1l-0.3,0.1l-0.9,0.3l-2.9,0.9l-2.6,0.9l-3.7,1.3
			l-4.4,1.4l-6.2,2.3l-3.9,1.4l-12.5,4.3l-3.6,1.2l-0.9,0.3l-0.2-0.1l-1.5-0.6l-1.7-0.6l-5.5-1.8L108,92.5l-12.4-4.3l-2.2-0.6
			l-0.7-0.2l-0.6-0.3V87v-0.2v-0.6v-2.8v-5.6l-0.2-16.5v-2.5V58l0.1-0.1l0.2-0.1l0.8-0.3l2.9-1.1l3.5-1.4l3.7-1.5L109,51l5-2.1
			l6.1-2.4l6.9-2.7l5.8-2.4L134,41l0.3,0.1l1.7,0.5l2.1,0.6l3.2,0.9l15.3,4.3l17,4.9l1.1,0.3l0.1,0.1l0.1,0.2l0.2,0.4l1.7,4.9
			l0.9,2.2l1.1,2.6l2.5,5.9l1.4,3.6l1.8,4.5l0.7,1.9l0.1,0.4v0.1l-0.1,0.1l-1.3,0.9l-4.2,3.2l-3.7,2.9l-4.4,3.4l-3.4,2.6l-5.8,4.3
			l-2.6,2l-1.3,1l-0.8,0.6l-0.6,0.3h-0.2h-0.6h-16.1l-14.4,0.2h-9.2H112l-0.2-0.1l-0.6-0.5l-1.5-1.2l-2.7-2l-2.6-1.9l-3.4-2.4
			L95.6,89l-2.7-1.9l-8.8-6.5L83.3,80v-0.1v-0.1l0.3-0.6l0.4-1l1.1-3.1l1.5-4.1l3.2-8.7l1.5-3.8l1.4-3.6l0.5-1.5l0.1-0.1l0.8-0.3
			l4-1.3l3.8-1.3l4-1.4l10.3-3.8l5.3-1.8l5.7-2l6.7-2.3h0.2l4.1,1l3.6,0.9l27,6.5l2.5,0.6l2.4,0.6l0.1,0.1l0.3,0.4l1.3,2l1.1,1.7
			l1.7,2.4l1.7,2.3l4.4,6l1.9,2.8l2.3,3.2l1.4,2l0.3,0.6v0.1l-0.2,0.3l-0.3,0.4l-0.8,1.2l-1.5,2.3l-4.2,6.3l-3.5,5.2l-2,2.8
			l-2.3,3.3l-1.2,1.8l-0.1,0.1l-0.5,0.1l-2.9,0.7l-3.5,0.8l-4.6,1.2l-5.1,1.4l-6.1,1.6l-4.6,1.2l-12.4,3l-0.2-0.1l-1.1-0.3l-2.6-0.6
			l-4.5-1l-12-2.9l-10-2.4l-7.5-1.8l-1.7-0.4l-0.3-0.1l-0.2-0.2l-0.4-0.6l-1-1.5l-1.1-1.7l-1.9-2.7l-6.5-9l-4-5.6l-0.8-1.2L78,73
			l-0.1-0.2v-0.1l1-1.3l3.6-5.5l5.6-8.3l2.7-3.9l2.1-2.9l0.5-0.9l0.4-0.7l0.1-0.1l0.3-0.1l7.5-2.2l4.9-1.6l13.2-4.2l13.6-4.2
			l0.1-0.1l0.2-0.3l0.8-1.7l1.9-3.9l1.6-3.1l1.4-2.6l0.4-0.9l0.1-0.3l0,0l0,0l-0.1,0.1l-0.2,0.2v-0.1l0.3-0.5l0.2-0.4l0.2-0.3
			l0.1-0.2l0.1-0.3l0.1-0.1l0,0l0,0l0,0l0,0l0,0L141.5,22.7L141.5,22.7"/>
		<rect x="72.1" y="17.9" class="st17" width="124.1" height="92.5"/>
		<path class="st19" d="M141.5,22.7L141.5,22.7L141.5,22.7L141.5,22.7L141.5,22.7L141.5,22.7L141.5,22.7L141.5,22.7L141.5,22.7
			L141.5,22.7L141.5,22.7L141.5,22.7L141.5,22.7L141.5,22.7L141.5,22.7L141.5,22.7L141.5,22.7L141.5,22.7L141.5,22.7L141.5,22.7
			L141.5,22.7L141.5,22.7L141.5,22.7L141.5,22.7L141.5,22.7L141.5,22.7L141.5,22.7L141.5,22.7L141.5,22.7L141.5,22.7L141.5,22.7
			L141.5,22.7l-0.1,0.2l-0.2,0.4l-0.3,0.9l-0.3,1.2l-0.3,1.3l-0.3,1.6l-0.3,1.2l-0.6,2.1l-0.7,2.6l-1.3,5l-0.7,2.9l-1,3.6l-1,3.8
			l0.1,0.5v0.2l0.3,0.1l0.3,0.2l0.5,0.4l0.5,0.5l0.6,0.6l1,1l8.6,9.1l1.7,1.7l4.1,4.3l2.9,3.1l5.2,5.5l5.7,6l1.1,1.1l0.1,0.1l0,0
			h-0.6l-6.2-0.1h-2.7l-6.4,0.1h-10.9l-22.6-0.1h-10.2h-5.7h0.1l0.3-0.2l0.4-0.3l0.7-0.7l0.9-1l1.9-2.1l1.3-1.5l3.5-4l2.3-2.5
			l11.7-12.8l3.4-3.7l3.1-3.4l1.4-1.5l1.2-1.3l0.5-0.6v-0.1h0.1l0.3,0.2l4,2.6l1.7,1l10.2,5.9l11.9,7.3l4.9,3l8.3,5h0.1l0,0
			l-0.3,0.2l-3.7,2l-1.6,1l-3.5,2.2l-4.8,3l-7,4.1l-10.5,6.2l-10.4,6.1l-0.3-0.2l-3.5-2.3l-1.6-1l-3.3-1.9l-4.8-2.8l-7-4.2l-8.1-4.9
			l-4.6-2.8l-4.4-2.7l-2.4-1.4l-0.9-0.6l-0.4-0.3l0,0l0.2-0.1l1.3-0.7l2.1-1.3l1.8-1.2l7.3-4.9l5.5-3.5l10-6.4l13.3-8.7h0.1l0.7,0.4
			l1.1,0.5l4.1,1.8l14.7,6.3l9,4l13.1,5.7l0,0l-0.1,0.1l-0.2,0.2l-0.3,0.4l-0.6,1l-0.5,0.9l-0.9,1.7l-0.8,1.6l-1.6,3l-3,5.3l-2,3.6
			l-2.8,5.1l-1.5,2.6l-1.6,2.9l-0.8,1.5l-0.2,0.2h-0.5h-17.1h-7l-28.5-0.1l-0.1-0.1l-0.2-0.4l-0.7-1.3l-0.7-1.9l-3.1-5.7l-1.4-2.7
			L99.2,79l-2-3.8l-3.5-6.6l-1-1.8L91.3,64l0.3-0.2l0.8-0.4l3.5-1.6l13.2-6.4l8.1-3.9l15.4-7.4l1.9-0.9l0.5,0.2l0.9,0.4l1.9,0.7
			l4.1,1.4l7.6,2.6l6.4,2.3l5.8,2l11.7,4l3.2,1.1V58v0.3v4.5v2.8v11.9l-0.1,9.1v0.3l-0.1,0.1l-0.2,0.1l-1.5,0.4l-1.9,0.5l-1.5,0.5
			l-3,1.1l-4.8,1.7l-5.6,2l-10.4,3.6l-6.8,2.4l-2.1,0.7l-3.8,1.2l-0.8,0.2l-0.5-0.3l-0.7-0.3l-1-0.4l-9.5-3.2l-5-1.7L91.8,87v-0.5
			l0.1-1.1v-1.3l-0.1-6.9v-7l0.1-9.6V59v-1.3l0.2-0.1l1.1-0.4l2-0.7l1.9-0.7l8.7-3.6l5.7-2.3l13.9-5.5l3.9-1.6l2.3-0.9l2.9-1
			l0.2,0.1l0.5,0.2l1.3,0.4l1.7,0.5l4,1.1l4.9,1.4l3.3,0.9l14.8,4.3l10.4,3.1v0.3l0.5,1.7l0.5,1.4l0.5,1.4l2.1,5.1l1.2,3.1l2.8,7.1
			l1.8,4.7l0.6,1.8l-0.7,0.3l-0.5,0.3l-0.7,0.5l-8.1,6.2l-3,2.2l-7.7,5.7l-3.4,2.6l-3.8,2.9l-0.3,0.2l-0.3,0.2l-0.2,0.2h-0.1h-0.3
			h-1.1h-2.8h-6h-5.2h-7h-13.3h-9.5h-0.4l-0.1-0.1l-0.3-0.3l-0.5-0.5l-1-0.8l-1.3-1l-6.9-4.9L95.5,89l-5.3-4l-3.8-2.8l-3.6-2.8l0,0
			l0.1-0.1l0.2-0.4l0.2-0.6l0.5-1.3l0.7-2.1l2.6-6.9l4.6-11.9l1.1-3l0.1-0.3h0.2l0.7-0.2l1.2-0.3l2.1-0.7l2.2-0.8l4.9-1.8l13.5-4.7
			l8.2-2.9l4.2-1.5l4-1.3h0.1l0.3,0.1l0.6,0.2l1,0.3l2.2,0.5l2.9,0.7l32.7,8l0.1,0.1v0.2l0.2,0.5l0.5,0.8l0.8,1.3l0.7,1l4.6,6.3
			l7.3,10.3l0.9,1.3l1.4,2.1l-0.4,0.4l-0.3,0.4l-0.6,0.9l-6.5,9.7l-3,4.3l-4.1,5.9l-1.1,1.7l-0.4,0.5l-3.6,0.7l-2.3,0.6l-17.9,4.5
			L142,104l-4.4,1.1l-3.3,0.8h-0.2l-0.6-0.3l-1-0.3l-1.2-0.3l-5.1-1.2l-13.1-3.2L94.5,96l-0.3-0.1L94,95.5l-0.4-0.8L93,93.8
			l-0.5-0.7L91.7,92l-1.3-1.8L86.7,85l-2.9-4.2l-4.4-6.2l-0.8-1.2l-0.7-1.2l0.4-0.4l0.3-0.4l0.5-0.7l1.4-2.2l0.8-1.2l2.4-3.6
			l3.4-4.8l4.7-6.5l1.5-2.2l1.2-1.8l0.5-0.1l1.9-0.5l2.7-0.8l3.6-1.2l3.8-1.2l3.4-1.1l17-5.2l2.4-0.7l2.4-0.7l1.3-0.4l0.5-0.2
			l0.3-0.1v-0.1l0.1-0.2l0.5-1.4l1.2-2.5l1.6-3l0.9-1.8l0.4-0.7l0.3-0.5l0.6-1.2l0.8-1.9l0,0h-0.1h-0.1l0,0v-0.1v-0.1l0.3-0.7v-0.1
			l0.1-0.1l0,0L141.5,22.7L141.5,22.7"/>
		<path class="st16" d="M196.2,110.4V17.9"/>
		<path class="st16" d="M72.1,110.4h124.1"/>
		<path class="st16" d="M72.1,17.9h124.1"/>
		<path class="st20" d="M140.7,23c0.2,0,0.5-0.1,0.6-0.3c0.2-0.2,0.3-0.4,0.3-0.6s-0.1-0.5-0.3-0.6c-0.2-0.2-0.4-0.3-0.6-0.3
			s-0.5,0.1-0.6,0.3s-0.3,0.4-0.3,0.6s0.1,0.5,0.3,0.6C140.3,22.8,140.4,23,140.7,23z"/>
		<path class="st21" d="M134.4,51.8c0.4,0,0.9-0.2,1.2-0.5s0.5-0.7,0.5-1.2c0-0.4-0.2-0.9-0.5-1.2s-0.7-0.5-1.2-0.5
			s-0.9,0.2-1.2,0.5s-0.5,0.7-0.5,1.2c0,0.4,0.2,0.9,0.5,1.2S133.9,51.8,134.4,51.8z"/>
		<path class="st22" d="M166.9,85.5c0.5,0,0.9-0.2,1.3-0.5c0.3-0.3,0.5-0.8,0.5-1.3s-0.2-0.9-0.5-1.3c-0.3-0.3-0.8-0.5-1.3-0.5
			s-0.9,0.2-1.3,0.5c-0.3,0.3-0.5,0.8-0.5,1.3s0.2,0.9,0.5,1.3C166,85.4,166.5,85.5,166.9,85.5z"/>
		<path class="st23" d="M101.8,85.7c0.5,0,1-0.2,1.4-0.6s0.6-0.9,0.6-1.4s-0.2-1-0.6-1.4s-0.9-0.6-1.4-0.6s-1,0.2-1.4,0.6
			s-0.6,0.9-0.6,1.4s0.2,1,0.6,1.4S101.3,85.7,101.8,85.7z"/>
		<path class="st24" d="M134.3,49.9c0.5,0,1-0.2,1.4-0.6c0.4-0.4,0.6-0.9,0.6-1.4s-0.2-1-0.6-1.4s-0.9-0.6-1.4-0.6s-1,0.2-1.4,0.6
			c-0.4,0.4-0.6,0.9-0.6,1.4s0.2,1,0.6,1.4C133.2,49.7,133.7,49.9,134.3,49.9z"/>
		<path class="st25" d="M175.6,74.5c0.5,0,1-0.2,1.3-0.5c0.4-0.4,0.5-0.8,0.5-1.3s-0.2-1-0.5-1.3s-0.8-0.5-1.3-0.5s-1,0.2-1.3,0.5
			c-0.4,0.4-0.5,0.8-0.5,1.3s0.2,1,0.5,1.3C174.7,74.3,175.1,74.5,175.6,74.5z"/>
		<path class="st26" d="M134.3,99.2c0.5,0,1-0.2,1.3-0.5s0.5-0.8,0.5-1.3s-0.2-1-0.5-1.3s-0.8-0.5-1.3-0.5s-1,0.2-1.3,0.5
			s-0.5,0.8-0.5,1.3s0.2,1,0.5,1.3S133.8,99.2,134.3,99.2z"/>
		<path class="st27" d="M92.9,74.5c0.5,0,1-0.2,1.3-0.6c0.4-0.4,0.6-0.8,0.6-1.3s-0.2-1-0.6-1.3c-0.4-0.4-0.8-0.6-1.3-0.6
			s-1,0.2-1.3,0.6c-0.4,0.4-0.6,0.8-0.6,1.3s0.2,1,0.6,1.3C91.9,74.3,92.4,74.5,92.9,74.5z"/>
		<path class="st27" d="M134.1,47.5c0.5,0,1-0.2,1.3-0.6c0.4-0.4,0.6-0.8,0.6-1.3s-0.2-1-0.6-1.3c-0.4-0.4-0.8-0.6-1.3-0.6
			s-1,0.2-1.3,0.6c-0.4,0.4-0.6,0.8-0.6,1.3s0.2,1,0.6,1.3C133.2,47.3,133.6,47.5,134.1,47.5z"/>
		<path class="st28" d="M177,66c0.5,0,0.9-0.2,1.3-0.5c0.4-0.3,0.5-0.8,0.5-1.3s-0.2-0.9-0.5-1.3c-0.3-0.4-0.8-0.5-1.3-0.5
			s-0.9,0.2-1.3,0.5c-0.3,0.3-0.5,0.8-0.5,1.3s0.2,0.9,0.5,1.3C176.1,65.8,176.6,66,177,66z"/>
		<path class="st29" d="M160.6,96.1c0.5,0,0.9-0.2,1.2-0.5s0.5-0.8,0.5-1.2c0-0.5-0.2-0.9-0.5-1.2c-0.3-0.3-0.8-0.5-1.2-0.5
			s-0.9,0.2-1.2,0.5s-0.5,0.8-0.5,1.2c0,0.5,0.2,0.9,0.5,1.2C159.7,95.9,160.1,96.1,160.6,96.1z"/>
		<path class="st30" d="M107.6,96.1c0.5,0,0.9-0.2,1.3-0.5c0.3-0.3,0.5-0.8,0.5-1.3s-0.2-0.9-0.5-1.3s-0.8-0.5-1.3-0.5
			s-0.9,0.2-1.3,0.5s-0.5,0.8-0.5,1.3s0.2,0.9,0.5,1.3C106.6,95.9,107.1,96.1,107.6,96.1z"/>
		<path class="st31" d="M91.2,66c0.5,0,0.9-0.2,1.3-0.5s0.5-0.8,0.5-1.3s-0.2-0.9-0.5-1.3s-0.8-0.5-1.3-0.5s-0.9,0.2-1.3,0.5
			c-0.3,0.3-0.5,0.8-0.5,1.3s0.2,0.9,0.5,1.3C90.3,65.8,90.8,66,91.2,66z"/>
		<path class="st28" d="M134.3,45.2c0.5,0,0.9-0.2,1.3-0.5c0.3-0.3,0.5-0.8,0.5-1.3s-0.2-0.9-0.5-1.3c-0.3-0.3-0.8-0.5-1.3-0.5
			s-0.9,0.2-1.3,0.5c-0.3,0.3-0.5,0.8-0.5,1.3s0.2,0.9,0.5,1.3C133.3,45,133.8,45.2,134.3,45.2z"/>
		<path class="st32" d="M176.6,59.7c0.5,0,0.9-0.2,1.2-0.5s0.5-0.8,0.5-1.2c0-0.5-0.2-0.9-0.5-1.2s-0.8-0.5-1.2-0.5
			s-0.9,0.2-1.2,0.5s-0.5,0.8-0.5,1.2c0,0.5,0.2,0.9,0.5,1.2C175.7,59.5,176.1,59.7,176.6,59.7z"/>
		<path class="st33" d="M176.6,88.8c0.4,0,0.9-0.2,1.2-0.5s0.5-0.7,0.5-1.2c0-0.4-0.2-0.9-0.5-1.2c-0.3-0.3-0.7-0.5-1.2-0.5
			s-0.9,0.2-1.2,0.5s-0.5,0.7-0.5,1.2c0,0.4,0.2,0.9,0.5,1.2C175.7,88.7,176.1,88.8,176.6,88.8z"/>
		<path class="st33" d="M134.3,103.4c0.4,0,0.9-0.2,1.2-0.5s0.5-0.7,0.5-1.2s-0.2-0.9-0.5-1.2c-0.3-0.3-0.7-0.5-1.2-0.5
			s-0.9,0.2-1.2,0.5s-0.5,0.7-0.5,1.2s0.2,0.9,0.5,1.2S133.8,103.4,134.3,103.4z"/>
		<path class="st34" d="M91.9,88.9c0.5,0,0.9-0.2,1.2-0.5s0.5-0.8,0.5-1.2c0-0.5-0.2-0.9-0.5-1.2s-0.8-0.5-1.2-0.5
			c-0.5,0-0.9,0.2-1.2,0.5c-0.3,0.3-0.5,0.8-0.5,1.2c0,0.5,0.2,0.9,0.5,1.2C91.1,88.7,91.5,88.9,91.9,88.9z"/>
		<path class="st21" d="M91.9,59.6c0.4,0,0.9-0.2,1.2-0.5s0.5-0.7,0.5-1.2c0-0.4-0.2-0.9-0.5-1.2s-0.7-0.5-1.2-0.5s-0.9,0.2-1.2,0.5
			c-0.3,0.3-0.5,0.7-0.5,1.2c0,0.4,0.2,0.9,0.5,1.2C91.1,59.5,91.5,59.6,91.9,59.6z"/>
		<path class="st32" d="M134.3,42.9c0.5,0,0.9-0.2,1.2-0.5s0.5-0.8,0.5-1.2c0-0.5-0.2-0.9-0.5-1.2s-0.8-0.5-1.2-0.5
			s-0.9,0.2-1.2,0.5s-0.5,0.8-0.5,1.2c0,0.5,0.2,0.9,0.5,1.2S133.8,42.9,134.3,42.9z"/>
		<path class="st35" d="M175.4,54.7c0.4,0,0.9-0.2,1.2-0.5s0.5-0.7,0.5-1.2c0-0.4-0.2-0.9-0.5-1.2s-0.7-0.5-1.2-0.5
			c-0.4,0-0.9,0.2-1.2,0.5s-0.5,0.7-0.5,1.2c0,0.4,0.2,0.9,0.5,1.2S175,54.7,175.4,54.7z"/>
		<path class="st36" d="M185.6,81.2c0.4,0,0.8-0.2,1.1-0.5s0.5-0.7,0.5-1.1s-0.2-0.8-0.5-1.1c-0.3-0.3-0.7-0.5-1.1-0.5
			c-0.4,0-0.8,0.2-1.1,0.5s-0.5,0.7-0.5,1.1s0.2,0.8,0.5,1.1C184.8,81,185.2,81.2,185.6,81.2z"/>
		<path class="st37" d="M157.1,102.5c0.4,0,0.9-0.2,1.2-0.5s0.5-0.7,0.5-1.2c0-0.4-0.2-0.9-0.5-1.2c-0.3-0.3-0.7-0.5-1.2-0.5
			c-0.4,0-0.9,0.2-1.2,0.5s-0.5,0.7-0.5,1.2c0,0.4,0.2,0.9,0.5,1.2C156.2,102.3,156.6,102.5,157.1,102.5z"/>
		<path class="st36" d="M111.5,102.5c0.4,0,0.8-0.2,1.1-0.5s0.5-0.7,0.5-1.1s-0.2-0.8-0.5-1.1c-0.3-0.3-0.7-0.5-1.1-0.5
			s-0.8,0.2-1.1,0.5s-0.5,0.7-0.5,1.1s0.2,0.8,0.5,1.1C110.6,102.3,111,102.5,111.5,102.5z"/>
		<path class="st37" d="M82.9,81.2c0.4,0,0.9-0.2,1.2-0.5c0.3-0.3,0.5-0.7,0.5-1.2c0-0.4-0.2-0.9-0.5-1.2c-0.3-0.3-0.7-0.5-1.2-0.5
			S82,78,81.7,78.3s-0.5,0.7-0.5,1.2c0,0.4,0.2,0.9,0.5,1.2C82,81.1,82.5,81.2,82.9,81.2z"/>
		<path class="st37" d="M93.1,54.7c0.4,0,0.9-0.2,1.2-0.5c0.3-0.3,0.5-0.7,0.5-1.2s-0.2-0.9-0.5-1.2s-0.7-0.5-1.2-0.5
			c-0.4,0-0.9,0.2-1.2,0.5c-0.3,0.3-0.5,0.7-0.5,1.2s0.2,0.9,0.5,1.2C92.3,54.5,92.7,54.7,93.1,54.7z"/>
		<path class="st37" d="M134.1,40.5c0.4,0,0.9-0.2,1.2-0.5s0.5-0.7,0.5-1.2c0-0.4-0.2-0.9-0.5-1.2s-0.7-0.5-1.2-0.5
			s-0.9,0.2-1.2,0.5s-0.5,0.7-0.5,1.2c0,0.4,0.2,0.9,0.5,1.2C133.3,40.4,133.7,40.5,134.1,40.5z"/>
		<path class="st36" d="M174.1,50.3c0.4,0,0.8-0.2,1.1-0.5s0.5-0.7,0.5-1.1s-0.2-0.8-0.5-1.1s-0.7-0.5-1.1-0.5
			c-0.4,0-0.8,0.2-1.1,0.5s-0.5,0.7-0.5,1.1s0.2,0.8,0.5,1.1C173.3,50.2,173.7,50.3,174.1,50.3z"/>
		<path class="st38" d="M190.6,74.1c0.4,0,0.8-0.2,1.1-0.5s0.5-0.7,0.5-1.1s-0.2-0.8-0.5-1.1c-0.3-0.3-0.7-0.5-1.1-0.5
			c-0.4,0-0.8,0.2-1.1,0.5s-0.5,0.7-0.5,1.1s0.2,0.8,0.5,1.1C189.7,73.9,190.1,74.1,190.6,74.1z"/>
		<path class="st38" d="M174.1,98c0.4,0,0.8-0.2,1.1-0.5s0.5-0.7,0.5-1.1s-0.2-0.8-0.5-1.1c-0.3-0.3-0.7-0.5-1.1-0.5
			c-0.4,0-0.8,0.2-1.1,0.5s-0.5,0.7-0.5,1.1s0.2,0.8,0.5,1.1C173.3,97.8,173.7,98,174.1,98z"/>
		<path class="st38" d="M134.1,107.8c0.4,0,0.8-0.2,1.1-0.5s0.5-0.7,0.5-1.1s-0.2-0.8-0.5-1.1c-0.3-0.3-0.7-0.5-1.1-0.5
			c-0.4,0-0.8,0.2-1.1,0.5s-0.5,0.7-0.5,1.1s0.2,0.8,0.5,1.1S133.7,107.8,134.1,107.8z"/>
		<path class="st36" d="M94.3,98c0.4,0,0.8-0.2,1.1-0.5c0.3-0.3,0.5-0.7,0.5-1.1s-0.2-0.8-0.5-1.1c-0.3-0.3-0.7-0.5-1.1-0.5
			s-0.8,0.2-1.1,0.5c-0.3,0.3-0.5,0.7-0.5,1.1s0.2,0.8,0.5,1.1S93.9,98,94.3,98z"/>
		<path class="st39" d="M77.7,74.1c0.4,0,0.8-0.2,1.1-0.5s0.5-0.7,0.5-1.1s-0.2-0.8-0.5-1.1s-0.7-0.5-1.1-0.5s-0.8,0.2-1.1,0.5
			s-0.5,0.7-0.5,1.1s0.2,0.8,0.5,1.1S77.3,74.1,77.7,74.1z"/>
		<path class="st39" d="M94.3,50.3c0.4,0,0.8-0.2,1.1-0.5c0.3-0.3,0.5-0.7,0.5-1.1c0-0.4-0.2-0.8-0.5-1.1s-0.7-0.5-1.1-0.5
			s-0.8,0.2-1.1,0.5c-0.3,0.3-0.5,0.7-0.5,1.1c0,0.4,0.2,0.8,0.5,1.1C93.5,50.1,93.9,50.3,94.3,50.3z"/>
		<path class="st40" d="M134.1,38.1c0.4,0,0.8-0.2,1.1-0.5s0.5-0.7,0.5-1.1c0-0.4-0.2-0.8-0.5-1.1s-0.7-0.5-1.1-0.5
			c-0.4,0-0.8,0.2-1.1,0.5s-0.5,0.7-0.5,1.1c0,0.4,0.2,0.8,0.5,1.1C133.3,38,133.7,38.1,134.1,38.1z"/>
		<path class="st41" d="M140.8,23.2c0.3,0,0.5-0.1,0.7-0.3c0.2-0.2,0.3-0.4,0.3-0.7c0-0.3-0.1-0.5-0.3-0.7s-0.4-0.3-0.7-0.3
			s-0.5,0.1-0.7,0.3c-0.2,0.2-0.3,0.4-0.3,0.7c0,0.3,0.1,0.5,0.3,0.7C140.3,23.1,140.5,23.2,140.8,23.2z"/>
	</g>
	<g>
		<text transform="matrix(1 0 0 1 67.2183 24.0742)" class="st3 st14">0</text>
		<text transform="matrix(1 0 0 1 62.6372 38.9741)" class="st3 st14">-20</text>
		<text transform="matrix(1 0 0 1 62.6372 53.9741)" class="st3 st14">-40</text>
		<text transform="matrix(1 0 0 1 62.6372 68.9742)" class="st3 st14">-60</text>
		<text transform="matrix(1 0 0 1 62.6372 83.8741)" class="st3 st14">-80</text>
		<text transform="matrix(1 0 0 1 59.7719 98.8741)" class="st3 st14">-100</text>
	</g>
	<g>
		<text transform="matrix(1 0 0 1 140.0509 115.8214)" class="st3 st14">0</text>
		<text transform="matrix(1 0 0 1 163.7182 115.8214)" class="st3 st14">20</text>
		<text transform="matrix(1 0 0 1 188.8183 115.8214)" class="st3 st14">40</text>
		<text transform="matrix(1 0 0 1 112.7603 115.8209)" class="st3 st14">-20</text>
		<text transform="matrix(1 0 0 1 87.6607 115.8214)" class="st3 st14">-40</text>
	</g>
	<text transform="matrix(1 0 0 1 113.029 203.0411)" class="st5 st13">Time (m/s)</text>
	<text transform="matrix(1 0 0 1 115.5302 121.9139)" class="st5 st14">Longitude</text>
	<path id="mf8d1aa5ba5" class="st15" d="M77.9,186.7v0.7"/>
	<path id="mf8d1aa5ba5_00000122701498934113091250000002368366471941133969_" class="st15" d="M94,186.7v0.7"/>
	<path id="mf8d1aa5ba5_00000000213529831737786690000004410883620761912976_" class="st15" d="M110.1,186.7v0.7"/>
	<path id="mf8d1aa5ba5_00000008866584535717128750000008344215793512409249_" class="st15" d="M126.3,186.7v0.7"/>
	<path id="mf8d1aa5ba5_00000177455105616937103330000005245285780970847639_" class="st15" d="M142.4,186.7v0.7"/>
	<path id="mf8d1aa5ba5_00000055670078177892665100000012111854101538979215_" class="st15" d="M158.6,186.7v0.7"/>
	<path id="mf8d1aa5ba5_00000018950745448585549890000008666157317588516992_" class="st15" d="M174.7,186.7v0.7"/>
	<path id="mf8d1aa5ba5_00000121244483797379791880000011695705316339718533_" class="st15" d="M190.9,186.7v0.7"/>
	<path id="m13674a8226" class="st15" d="M72.2,178.7h-1.5"/>
	<path id="m13674a8226_00000085209548786313771220000007339549667215600029_" class="st15" d="M72.2,169.4h-1.5"/>
	<path id="m13674a8226_00000170996319464970083800000000736472762186969223_" class="st15" d="M72.2,160.1h-1.5"/>
	<path id="m13674a8226_00000060735391682348421940000000413800885280211364_" class="st15" d="M72.2,150.8h-1.5"/>
	<path id="m13674a8226_00000160889474150047881630000013776700209431850938_" class="st15" d="M72.2,141.5h-1.5"/>
	<path id="m13674a8226_00000179634413748061509900000014115954168601776269_" class="st15" d="M72.2,132.1h-1.5"/>
	<rect x="72.2" y="129.1" class="st17" width="123.5" height="57.6"/>
	<path class="st0" d="M77.9,131.8L77.9,131.8l0.2-0.1h0.1h0.4l0.1,0.1l0.2,0.2H79h0.2l0.7-0.1l0,0L80,132l0.1,0.5l0.1,1.3l0.3,4.7
		l1,11.5l0.4,4.9l0.9,11.8l0.3,2.7l0.1,0.6l0.1,0.1l0,0l0.1-0.1l0.4-0.3l0,0l0,0l0.4,0.3l0.2,0.1l0.1,0.1h0.2h0.1H85l0.1-0.1
		l0.2-0.4l0.1-0.4l0.1-1.1l0.4-4.1l0.9-12.2l0.3-3.3l0.1-0.4l0.1-0.1l0,0v0.1l0.1,0.2l0.1,0.7l0.3,2.6L89,163l0.1,0.4l0.2,0.5
		l0.1,0.8l0.3,2.8l0.9,9l0.2,1.6l0.1,0.3l0,0l0,0l0.1-0.1l0.1-0.4l0.1-1l1.1-10.8l0.3-2.8l0.1-0.3l0.2-0.3l0.1-0.5l0.2-1.9l0.7-7.4
		l0.6-6l0.1-0.4l0.1-0.1l0,0l0.1,0.3l0.1,0.6l0.4,3.6l1,7.8l0.1,1l0.3,3.4l0.5,7.9l0.4,5.4l0.1,0.4l0,0l0.1-0.1l0.1-0.1l0.4-0.1h0.1
		l0.2,0.1h0.2h0.3l0.1-0.1l0.1-0.3l0.1-0.7l0.2-1.6l0.5-7.1l0.7-9.2l0.2-0.6l0.1-0.5l0.2-1.3l0.7-6.7l0.4-3.4l0.1-0.2l0,0l0.1,0.2
		l0.1,0.6l1.3,9.6l0.2,2.9l0.8,11.3l0.2,2.8l0.2,1l0.3,1.7l0.4,3l0.4,3l0.1,0.1V181l0.1-0.3l0.1-0.8l1.4-10.5l0.4-5.5l0.7-9.8
		l0.1-0.9l0.2-0.9l0.3-2.3l0.9-6.5l0,0l0,0l0.1,0.1l0.1,0.6l1.2,8.5l0.3,4l0.8,11.2l0.5,5l0.8,7.9h0.1l0,0l0.1-0.1l0.2-0.2h0.1h0.4
		h0.2l0.1-0.2l0.1-0.7l0.2-1.9l1.3-14.2l1.1-13.6l0.6-4.2l0.6-3.8l0.1-0.1l0,0l0.1,0.2l0.1,0.8l0.5,3l0.4,2.5l0.2,1.8l2.2,27.8
		l0.2,1.3l0.3,1.7l0.5,2.6l0,0l0,0l0.1-0.1l0.1-0.6l0.7-4l0.3-1.5l0.2-1.7l2.4-29l1-5.9l0,0"/>
	<rect x="72.2" y="129.1" class="st17" width="123.5" height="57.6"/>
	<path class="st1" d="M77.9,132.2h0.6h0.2h0.6h0.4h0.6h0.4h0.5h0.7h1.9h0.3h0.8h0.3h0.3h0.7h0.4h1.2h1.5h0.4H90l0.1,0.1l0.1,0.3
		l0.1,1l0.2,2.9l0.3,4.4l0.6,7.1l0.2,0.6l0.2,0.3l0.4,0.4l0.1,0.2l0.1,0.4l0.1,1.3l1.4,17.2l0.2,1l0.2,0.4l0.2,0.3l0.3,0.3h0.1H95
		l0.2-0.1l0.2,0.1l0.2,0.1h0.1l0.4-0.1H97h0.5h0.1l0.1-0.1l0.1-0.3l0.1-1l0.4-4.8l1.2-14.5l0.2-0.7l0.2-0.3l0.3-0.3l0.2-0.2h0.1l0,0
		l0.1,0.2l0.1,0.6l0.2,2.1l0.5,4.5l0.8,6.9l0.2,0.5l0.2,0.2l0.4,0.3l0.2,0.2l0.1,0.3l0.1,0.9l1.4,13.2l0.2,0.4l0.2,0.2l0.4,0.3h0.1
		l0,0v-0.1l0.1-0.3l0.1-0.9l1.3-12.5l0.2-0.9l0.2-0.4l0.2-0.2l0.3-0.2l0.2-0.1l0.1-0.3l0.1-0.8l0.4-3.9l1-10.2l0.2-0.7l0.2-0.3
		l0.2-0.3l0.3-0.2h0.1l0,0l0.1,0.1l0.1,0.3l0.1,0.8l1.1,9.2l0.2,0.6l0.2,0.3l0.3,0.2l0.3,0.3l0.1,0.4l0.1,1.1l0.4,5.6l0.8,9.8
		l0.2,0.8l0.2,0.3l0.3,0.3l0.2,0.2h0.1h0.4h0.2l1.4-0.1l0.1-0.1l0.1-0.4l0.1-1.1l0.6-7.8l0.7-7.8l0.2-0.7l0.2-0.3l0.4-0.4l0.1-0.1
		l0.1-0.4l0.1-1l1.1-9.6l0.2-1l0.2-0.4l0.2-0.2l0.4-0.3h0.1l0,0l0.1,0.1l0.1,0.3l0.1,0.8l0.9,6.6l0.2,0.7l0.2,0.2l0.2,0.1l0.4,0.3
		l0.1,0.2l0.1,0.7l0.2,2.1l0.8,11.3l0.2,2.1l0.2,0.8l0.2,0.3l0.3,0.3l0.2,0.3l0.1,0.4l0.2,1.3l0.6,4.7l0.3,1.6l0.2,0.5l0.2,0.2
		l0.3,0.2l0.2,0.1h0.1l0.1-0.2l0.1-0.6l0.2-1.7l0.7-4.8l0.2-0.9l0.2-0.3l0.2-0.1l0.4-0.3l0.1-0.3l0.1-0.9l0.2-2.7l0.7-9.5l0.3-2.9
		l0.2-0.9l0.2-0.4l0.2-0.3l0.3-0.4l0.1-0.4l0.2-1.3l0.7-5.9l0.3-1.8l0.2-0.5l0.2-0.2l0.3-0.2l0.2-0.1l0,0l0.1,0.1l0.1,0.2l0.1,0.6
		l1,5.7l0.2,0.3l0.2,0.1l0.4,0.2l0.1,0.2l0.1,0.7l0.1,1.8l0.8,10.4l0.2,1.9l0.2,0.7l0.2,0.3l0.3,0.3l0.1,0.1l0.1,0.4l0.1,1.1
		l0.9,10.1l0.2,0.8l0.2,0.3l0.2,0.2l0.2,0.1h0.2h0.2h0.2l0.5,0.1h0.5h0.3l0.1-0.1l0.1-0.3l0.1-0.9l1.1-11l0.2-0.4l0.2-0.2l0.3-0.4
		l0.1-0.3l0.1-0.9l0.2-2.8l0.6-8.5l0.2-2.4l0.2-0.8l0.2-0.3l0.2-0.2l0.2-0.3l0.1-0.4l0.2-1.2l0.7-4.8l0.3-1.4l0.2-0.4l0.2-0.2
		l0.2-0.1h0.1h0.1l0.1,0.2l0.1,0.5l0.3,1.8l0.5,2.7l0.2,0.4l0.2,0.2l0.3,0.2l0.1,0.1l0.1,0.2l0.1,0.5l0.1,1.3l0.9,11l0.2,0.9
		l0.2,0.4l0.2,0.2l0.2,0.2l0.1,0.3l0.1,0.9l0.2,3l0.5,7l0.2,2.1l0.2,0.8l0.2,0.3l0.2,0.3l0.2,0.2l0.1,0.4l0.2,1.1l0.6,3.2l0.2,0.8
		l0.2,0.3l0.2,0.1l0.3,0.1h0.1l0.1-0.1l0.1-0.4l0.2-1l0.6-3.3l0.2-0.7l0.2-0.2l0.2-0.1l0.3-0.2l0.1-0.2l0.1-0.5l0.1-1.3l0.9-11.3
		l0.2-0.8l0.2-0.3l0.2-0.2l0.2-0.2l0.1-0.3l0.1-0.9l0.2-3.1l0.5-6.7l0.2-2.2l0.2-0.8l0.2-0.3l0.2-0.2l0.2-0.2l0.1-0.4l0.2-1.1
		l0.6-4.3l0.2-1.1l0.2-0.4l0.2-0.2l0.4-0.3l0.1-0.3l0.1-1l0.2-3.5l0.2-2.2l0.1-0.7l0.1-0.1l0,0l0,0l0.3,0.2h0.1l0.1-0.1l0.2-0.2h0.1
		h0.4l0.8-0.2l0.3-0.1l0.4-0.1l0.5-0.2l0.6-0.2h0.3h1l17.3,0.3l0,0"/>
	<rect x="72.2" y="129.1" class="st17" width="123.5" height="57.6"/>
	<path class="st2" d="M77.9,132.1h1.4h0.4h1.2h0.3h0.4h1.3h0.3h0.3h0.7h1.3h0.4h0.6h0.2H87h0.8h0.4h1h0.5h0.4l0.1,0.1l0.1,0.5
		l0.1,1.4l1.1,13.5l0.2,0.9l0.2,0.4l0.2,0.2l0.2,0.2l0.1,0.3l0.1,1.1l0.7,8.6l0.8,9.1l0.2,1l0.2,0.4l0.2,0.2l0.1,0.1h0.2h0.2h0.3
		l0.3,0.1h0.2h0.2l1.2-0.1h0.4l0.1-0.1l0.1-0.5L98,168l1.2-14.2l0.4-4.2l0.2-1.1l0.2-0.5l0.2-0.2l0.2-0.1h0.2h0.1v0.1l0.1,0.3
		l0.1,1.1l1.4,12.6l0.2,0.8l0.2,0.3l0.2,0.1l0.2,0.1l0.3,0.1l0.1,0.2l0.1,0.5l0.2,2l1.2,11.3l0.2,0.8l0.2,0.3l0.2,0.2l0.2,0.1h0.2
		v-0.1l0.1-0.3l0.1-0.9l1.5-13.4l0.2-0.5l0.2-0.2l0.2-0.1l0.2-0.1h0.1l0.1-0.1l0.1-0.4l0.2-1.5l1.4-13.4l0.2-0.7l0.2-0.4l0.2-0.2
		l0.2-0.1h0.2l0.1,0.1l0.1,0.4l0.2,1l1.2,9.1l0.2,0.6l0.2,0.3l0.2,0.1l0.2,0.1h0.1l0.1,0.1l0.1,0.5l0.1,1.4l1.3,15.6l0.2,0.7
		l0.2,0.3l0.2,0.1l0.2,0.1h0.2h0.2h0.3l1-0.1h0.6l0.1-0.1l0.1-0.5l0.1-1.6l1.3-15.2l0.2-0.8l0.2-0.4l0.2-0.2l0.3-0.2l0.1-0.4
		l0.1-1.1l1.2-10.2l0.2-0.6l0.2-0.3l0.2-0.1l0.2-0.1h0.1l0.1,0.1l0.1,0.4l0.2,1l1.1,6.9l0.2,0.4l0.2,0.2l0.2,0.1h0.1l0.1,0.2
		l0.1,0.5l0.1,1.6l1.2,14.5l0.2,0.8l0.2,0.4l0.2,0.2l0.2,0.2l0.1,0.3l0.1,0.9l1,6.7l0.2,0.5l0.2,0.3l0.2,0.1l0.2,0.1l0.1-0.1
		l0.1-0.2l0.1-0.7l0.4-2.8l0.7-4.5l0.2-0.5l0.2-0.2l0.2-0.1l0.2-0.1l0.1-0.3l0.1-0.9l0.3-3.4l0.9-11.8l0.2-1l0.2-0.4l0.2-0.2
		l0.2-0.1l0.1-0.1l0.1-0.2l0.1-0.7l0.9-6.7l0.3-1.6l0.2-0.6l0.2-0.3l0.2-0.1l0.2-0.1h0.1l0.1,0.1l0.1,0.3l0.2,1.1l1,5.4l0.2,0.3
		l0.2,0.2l0.3,0.2l0.1,0.3l0.1,0.9l0.3,3.6l0.8,9.8l0.2,1.1l0.2,0.5l0.2,0.2l0.3,0.3l0.1,0.5l0.2,1.6l0.9,9.3l0.2,0.9l0.2,0.4
		l0.2,0.2l0.2,0.1h0.2h0.1h0.3h0.9l0.5-0.1l0.1-0.1l0.1-0.4l0.1-1.3l1-10.1l0.2-0.8l0.2-0.3l0.2-0.2l0.2-0.1l0.1-0.3l0.1-0.9
		l0.3-3.7l0.8-9.8l0.2-1l0.2-0.4l0.2-0.2l0.1-0.1h0.1l0.1-0.1l0.1-0.4l0.2-1.3l0.9-6l0.2-0.5l0.2-0.3l0.2-0.1h0.2l0.1,0.1l0.1,0.2
		l0.2,0.6l0.6,3.2l0.3,1.2l0.2,0.4l0.2,0.2l0.2,0.1l0.1,0.1l0.1,0.2l0.1,0.5l0.1,1.6l0.9,10.8l0.2,1l0.2,0.5l0.2,0.2l0.2,0.2
		l0.1,0.4l0.1,1.1l0.7,8.8l0.2,2.5l0.2,1.1l0.2,0.5l0.2,0.2l0.2,0.1h0.1l0.1,0.1l0.1,0.4l0.4,2.2l0.5,2.5l0.2,0.4l0.2,0.2l0.2,0.1
		h0.1l0.1-0.1l0.1-0.3l0.2-0.7l0.9-4.3l0.2-0.4l0.2-0.2l0.2-0.1l0.1-0.1l0.1-0.2l0.1-0.5l0.2-1.7l0.9-10.7l0.2-1l0.2-0.4l0.2-0.2
		l0.2-0.2l0.1-0.4l0.1-1.1l1.1-12.1l0.2-0.7l0.2-0.3l0.2-0.1l0.1-0.1l0.1-0.2l0.1-0.6l1.1-6.2l0.2-0.3l0.2-0.2l0.2-0.1l0.1-0.1
		l0.1-0.1l0.1-0.5l0.1-1.6l0.4-4.6l0.2-1.1l0.1-0.2h0.1h0.5l0.4-0.1l0.6-0.1l0.4-0.1l1.8-0.4h0.6h0.6h0.1l19.5,0.3l0,0"/>
	<path class="st16" d="M72.2,186.7v-57.6"/>
	<path class="st16" d="M195.8,186.7v-57.6"/>
	<path class="st16" d="M72.2,186.7h123.5"/>
	<path class="st16" d="M72.2,129.1h123.5"/>
	<g>
		<text transform="matrix(1 0 0 1 76.4906 191.6647)" class="st3 st42">0</text>
		<text transform="matrix(1 0 0 1 92.5911 191.6644)" class="st3 st42">1</text>
		<text transform="matrix(1 0 0 1 108.6906 191.6644)" class="st3 st42">2</text>
		<text transform="matrix(1 0 0 1 124.8908 191.6645)" class="st3 st42">3</text>
		<text transform="matrix(1 0 0 1 140.991 191.6645)" class="st3 st42">4</text>
		<text transform="matrix(1 0 0 1 157.1909 191.6645)" class="st3 st42">5</text>
		<text transform="matrix(1 0 0 1 173.2909 191.6645)" class="st3 st42">6</text>
		<text transform="matrix(1 0 0 1 189.4907 191.6644)" class="st3 st42">7</text>
	</g>
	<text transform="matrix(1 0 0 1 186.7097 196.3882)" class="st5 st43">1e8</text>
	<g>
		<text transform="matrix(1 0 0 1 67.4002 133.4342)" class="st3 st42">0</text>
		<text transform="matrix(1 0 0 1 62.9546 142.8344)" class="st3 st42">-20</text>
		<text transform="matrix(1 0 0 1 62.9548 152.1338)" class="st3 st42">-40</text>
		<text transform="matrix(1 0 0 1 62.9548 161.4336)" class="st3 st42">-60</text>
		<text transform="matrix(1 0 0 1 62.9548 170.7344)" class="st3 st42">-80</text>
		<text transform="matrix(1 0 0 1 60.1739 180.0338)" class="st3 st42">-100</text>
	</g>
	<text transform="matrix(5.991317e-07 -1 1 5.991317e-07 60.2078 165.4165)" class="st5 st14">Latitude</text>
	<path d="M201.6,69.1"/>
</g>
<text transform="matrix(1 0 0 1 212.2481 107.8012)" class="st5 st13">RDP Clean</text>
<g>
	<text transform="matrix(1 0 0 1 305.3347 8.6413)" class="st5 st13">Total Waypoints: 36</text>
	<path class="st16" d="M403.3,110.4V19.6"/>
	<path class="st16" d="M403.1,186.6V129"/>
	<g>
		<text transform="matrix(1 0 0 1 320.0681 203.0409)" class="st5 st13">Time (m/s)</text>
		<path id="DejaVuSans-20" d="M332.7,17.9"/>
		<path id="DejaVuSans-20_00000041999344538459243840000009175852791013886095_" d="M352.2,17.9"/>
		<path id="m4400bef052" class="st15" d="M298.5,110.4v1"/>
		<path id="m4400bef052_00000181775325382311645360000009307463658346976666_" class="st15" d="M323.5,110.4v1"/>
		<path id="m4400bef052_00000023959910909396819750000005892701799776905624_" class="st15" d="M348.6,110.4v1"/>
		<path id="m4400bef052_00000039111231163144232740000013911940929409366676_" class="st15" d="M373.7,110.4v1"/>
		<path id="m4400bef052_00000001664222301771658220000014977994408175651470_" class="st15" d="M398.7,110.4v1"/>
		<path id="mcec58cd6f6" class="st15" d="M279.1,97.8h-1"/>
		<path id="mcec58cd6f6_00000032615788169189330140000006897328052793506187_" class="st15" d="M279.1,83h-1"/>
		<path id="mcec58cd6f6_00000098910835097244479860000011687668898777167262_" class="st15" d="M279.1,68.3h-1"/>
		<path id="mcec58cd6f6_00000068674485896634431320000000023039935923537047_" class="st15" d="M279.1,53.6h-1"/>
		<path id="mcec58cd6f6_00000142855492686698117340000011620336082635189928_" class="st15" d="M279.1,38.9h-1"/>
		<path id="mcec58cd6f6_00000039122639645102805120000006717195414693005962_" class="st15" d="M279.1,24.2h-1"/>
		<rect x="279.1" y="19.6" class="st17" width="124.1" height="90.9"/>
		<path class="st0" d="M347.7,23.7l-6.3,27.5l32.6,33h-65.1L341.3,49l41.4,24.3l-41.4,24.3l-41.4-24.3l41.3-26.5L384.1,65
			l-16.5,29.6h-53L298.3,65l43-20.4l42.3,14.3v28.7l-42.3,14.3L299,87.6V58.9l42.3-16.5l41.2,11.7l10.2,26.1l-28.6,20.9h-45.6
			l-28.6-20.9l10.2-26.1l41-13.9l40,9.6l16.5,23.4l-16.5,23.5l-40,9.6l-39.8-9.6l-16.6-23.5l16.6-23.4l39.8-12L347.7,23.7"/>
		<rect x="279.1" y="19.6" class="st17" width="124.1" height="90.9"/>
		<path class="st18" d="M348.6,24.2L348.6,24.2L348.6,24.2L348.6,24.2L348.6,24.2L348.6,24.2L348.6,24.2L348.6,24.2L348.6,24.2
			L348.6,24.2L348.6,24.2L348.6,24.2L348.6,24.2L348.6,24.2L348.6,24.2L348.6,24.2L348.6,24.2L348.6,24.2L348.6,24.2L348.6,24.2
			L348.6,24.2L348.6,24.2L348.6,24.2L348.6,24.2L348.6,24.2L348.6,24.2L348.6,24.2L348.6,24.2l-0.1,0.2l-0.1,0.5l-0.3,1.9l-0.3,1.6
			l-0.3,1.4l-0.4,1.4l-0.4,1.4l-0.6,1.5l-1.3,3.4l-0.3,1.1l-0.3,1.4l-0.4,1.9l-0.9,4.3l-0.5,1.9l-0.5,1.9l-0.3,0.9l0.1,0.1l0.4,0.3
			l0.6,0.6l1,1.1l1.8,1.9l4.2,4.3l11.2,11.4l9.3,9.5l2.7,2.7l0.4,0.6l0.5,0.7l0,0h-0.1h-0.5h-2.3L365,84h-3.1l-6.3,0.1l-7,0.1h-4.2
			l-6.1-0.1l-8.1-0.1h-6.4h-12.7h-1.9h-0.1h0.1l0.3-0.3l0.6-0.6l1-1.1l3-3.2l1.6-1.9l3-3.5l1.8-2l2-2.2l5.9-6.3l4.5-4.9l3.2-3.5
			l4.3-4.6l0.8-0.9l0.2-0.2l0.2,0.1l5.9,3.7l2.3,1.3l7.9,4.5l5.7,3.4l5.5,3.2l9.6,5.6l3.1,1.9l0.9,0.5l0.2,0.1l-0.1,0.1l-0.4,0.2
			l-6.3,3.5l-3.1,1.8l-4,2.4l-3.8,2.3l-2.9,1.7l-6.8,3.9l-4.3,2.5l-6.5,3.9l-3,1.8h-0.1l-0.2-0.1l-0.7-0.1l-2.3-1.5l-2.5-1.5
			l-2.5-1.4l-3-1.7l-8.1-4.5l-2.7-1.6l-9.4-5.7l-9.7-5.6l-0.4-0.2l0,0l0.1-0.1l0.6-0.4l4.7-2.9l2.8-1.8l4.5-3l3.8-2.5l3.2-2
			l11.7-7.4l6.2-4l2.6-1.7l1.1-0.6l0.1,0.1l0.9,0.5l2.1,0.9l3.9,1.7l5.6,2.3l7.3,3l5.1,2.2l8.4,3.6l4.7,2l3.3,1.4l1.1,0.5v0.1
			l-0.9,1.5l-0.7,1.3l-1.6,2.9l-2,3.8l-2.2,4.1l-1.6,2.9l-3.1,5.4l-2.8,5.1l-0.4,0.9l-0.5,0.9l-0.4,0.6h-0.2h-0.4h-1h-2.3h-14.9
			h-10.6l-23.2-0.1h-0.4l-0.2-0.1l-0.2-0.2l-0.3-0.4l-0.5-0.8l-1.9-3.4l-2.2-4.1l-3.7-6.7l-5.3-9.9l-1.4-2.6l-0.3-0.7V65l0.1-0.1
			l0.3-0.2l0.7-0.3l1.3-0.6l10.1-4.7l12.5-6l9.1-4.3l8.8-4.2l0.3,0.1l1.5,0.6l2.6,0.9l7.5,2.5l11.9,3.9l5.5,1.9l9.4,3.3l1.6,0.5
			l1.1,0.3l0.5,0.2l0.1,0.1l0.1,0.2v0.4v0.9v2.9V67l0.1,3.7v3.1v2.7l-0.1,6.5v2.2V87l-0.1,0.4l-0.1,0.1l-0.3,0.1l-0.9,0.3l-2.9,0.9
			l-2.6,0.9l-3.7,1.3l-4.3,1.6l-6.2,2.2l-3.9,1.3l-12.5,4.2l-3.6,1.2l-0.9,0.3l-0.2-0.1l-1.5-0.6l-1.7-0.6l-5.5-1.8l-17.5-5.8
			l-12.4-4.2l-2.2-0.7l-0.7-0.2l-0.6-0.2v-0.1v-0.2v-0.6V84v-5.5L299,62.3v-2.5V59l0.1-0.1l0.2-0.1l0.8-0.3l2.9-1.1l3.5-1.4l3.7-1.4
			l5.9-2.4l5-2l6.1-2.4l6.9-2.7l5.8-2.3l1.2-0.4l0.3,0.1l1.7,0.5l2.1,0.6l3.2,0.9l15.3,4.3l17,4.8l1.1,0.3l0.1,0.1l0.1,0.2l0.2,0.4
			l1.7,4.8l0.9,2.1l1.1,2.6l2.5,5.8l1.4,3.5l1.7,4.1l0.7,1.8l0.1,0.4v0.1l-0.1,0.1l-1.3,0.9l-4.2,3.2l-3.7,2.8l-4.4,3.4l-3.4,2.5
			l-5.8,4.2l-2.6,1.9l-1.3,1l-0.8,0.6l-0.6,0.3h-0.2h-0.6h-16.1l-14.4,0.1h-9.2H319l-0.2-0.1l-0.6-0.5l-1.5-1.2l-2.7-2l-2.6-1.9
			l-3.4-2.3l-5.4-3.8l-2.7-1.9l-8.8-6.4l-0.8-0.6V80v-0.1l0.3-0.6l0.4-0.9l1.1-3l1.5-4l3.2-8.5l1.5-3.7l1.4-3.5l0.5-1.4l0.1-0.1
			l0.8-0.3l4-1.3l3.8-1.3l4-1.4l10.3-3.7l5.3-1.8l5.7-2l6.7-2.3h0.2l4.1,1l3.6,0.8l27,6.4l2.5,0.6l2.4,0.5l0.1,0.1l0.3,0.4l1.3,1.9
			l1.1,1.7l1.7,2.4l1.7,2.3l4.4,5.8l1.9,2.7l2.3,3.2l1.4,2l0.3,0.6v0.1l-0.2,0.2l-0.3,0.4l-0.8,1.2l-1.5,2.2l-4.2,6.2l-3.5,5.2
			l-2,2.8l-2.3,3.3l-1.2,1.8l-0.1,0.1l-0.5,0.1l-2.9,0.7l-3.5,0.8l-4.6,1.1l-5.1,1.3l-6.1,1.6l-4.6,1.1l-12.4,3l-0.2-0.1l-1.1-0.3
			l-2.6-0.6l-4.5-1l-12-2.8l-10-2.4l-7.5-1.8l-1.7-0.4l-0.3-0.1l-0.2-0.2l-0.4-0.5l-1-1.5l-1.1-1.7l-1.9-2.6l-6.5-8.9l-4-5.5
			l-0.8-1.2l-0.6-0.9l-0.1-0.2v-0.1l1-1.3l3.6-5.4l5.6-8.1l2.7-3.8l2.1-2.9l0.5-0.9l0.4-0.7l0.1-0.1l0.6,0.3l7.5-2.2l4.9-1.5
			l13.2-4.2l13.6-4.1l0.1-0.1l0.2-0.3l0.8-1.6l1.9-3.9l1.6-3.1l1.4-2.6l0.4-0.8l0.1-0.3l0,0l0,0l-0.1,0.1l-0.2,0.2v-0.1l0.3-0.5
			l0.2-0.4l0.2-0.3l0.1-0.2l0.1-0.3l0.1-0.1l0,0l0,0l0,0l0,0l0,0L348.6,24.2L348.6,24.2"/>
		<rect x="279.1" y="19.6" class="st17" width="124.1" height="90.9"/>
		<path class="st19" d="M348.6,24.2L348.6,24.2L348.6,24.2L348.6,24.2L348.6,24.2L348.6,24.2L348.6,24.2L348.6,24.2L348.6,24.2
			L348.6,24.2L348.6,24.2L348.6,24.2L348.6,24.2L348.6,24.2L348.6,24.2L348.6,24.2L348.6,24.2L348.6,24.2L348.6,24.2L348.6,24.2
			L348.6,24.2L348.6,24.2L348.6,24.2L348.6,24.2L348.6,24.2L348.6,24.2L348.6,24.2L348.6,24.2L348.6,24.2L348.6,24.2L348.6,24.2
			L348.6,24.2l-0.1,0.2l-0.2,0.4l-0.3,0.9l-0.3,1.1l-0.3,1.3l-0.3,1.6l-0.3,1.2l-0.6,2.1l-0.7,2.5l-1.3,4.9l-0.7,2.8l-1,3.6l-1,3.8
			V51v0.2l0.3,0.1l0.3,0.1l0.5,0.4l0.5,0.5l0.6,0.6l1,1l8.6,8.9l1.7,1.7l4.1,4.2l2.9,3l5.2,5.4l5.7,5.9l1.1,1.1l0.1,0.1l0,0h-0.6
			l-6.2-0.1h-2.7l-6.4,0.1h-10.9h-22.8h-10.2h-5.7h0.1L309,84l0.4-0.3l0.7-0.7l0.9-1l1.9-2.1l1.3-1.5l3.5-4L320,72l11.7-12.6
			l3.4-3.7l3.1-3.3l1.4-1.5l1.2-1.3l0.5-0.6v-0.1h0.1l0.3,0.2l4,2.5l1.7,1l10.2,5.8l11.9,7.1l4.9,2.9l8.3,4.9h0.1l0,0l-0.3,0.2
			l-3.7,2l-1.6,1l-3.5,2.1l-4.8,2.9l-7,4l-10.5,6l-10.4,6l-0.3-0.2l-3.5-2.2l-1.6-1l-3.3-1.8l-4.8-2.8l-7-4.2l-8.1-4.8l-4.6-2.7
			l-4.4-2.6l-2.4-1.4l-0.9-0.5l-0.4-0.3l0,0l0.2-0.1l1.3-0.7l2.1-1.3l1.8-1.1l7.4-4.8l5.5-3.5l10-6.3l13.3-8.6h0.1l0.7,0.4l1.1,0.5
			l4.1,1.8l14.7,6.2l9,3.9l13.1,5.6l0,0l-0.1,0.1l-0.2,0.2l-0.3,0.4l-0.6,0.9l-0.5,0.9l-0.9,1.7l-0.8,1.6l-1.6,3l-3,5.2l-2,3.5
			l-2.8,5l-1.5,2.6l-1.3,2.9l-0.8,1.4l-0.2,0.2H367h-17.1h-7l-28.5-0.1l-0.1-0.1l-0.2-0.4l-0.7-1.3l-0.7-1.4l-3.1-5.6l-1.4-2.7
			l-1.8-3.5l-2-3.7l-3.5-6.5l-1-1.8l-1.4-2.8l0.3-0.2l0.8-0.4l3.5-1.6l13.2-6.3l8.1-3.8l15.4-7.2l1.9-0.8l0.5,0.2l0.9,0.4l1.9,0.6
			l4.1,1.4l7.6,2.5l6.4,2.2l5.8,2l11.7,4l3.2,1.1v0.1v0.3v4.4v2.7V78l-0.1,9v0.3l-0.1,0.1l-0.2,0.1l-1.5,0.4l-1.9,0.5l-1.5,0.5
			l-3,1.1l-4.8,1.7l-5.6,1.9l-10.4,3.5l-6.8,2.4l-2.1,0.7l-3.8,1.2l-0.8,0.2l-0.5-0.3L340,101l-1-0.4l-9.5-3.1l-5-1.7l-25.4-8.7
			v-0.4l0.1-1v-1.3l-0.1-6.8v-6.9l0.1-9.4v-1.6v-1.3l0.2-0.1l1.1-0.4l2-0.7l1.9-0.7l8.7-3.5l5.7-2.2l13.9-5.4l3.9-1.5l2.3-0.9l2.9-1
			l0.2,0.1l0.5,0.2l1,0.7l1.7,0.5l4,1.1l4.9,1.3l3.3,0.9l14.8,4.3l10.4,3.1v0.3l0.5,1.6l0.5,1.3l0.5,1.3l2.1,5l1.2,3.1l2.8,7
			l1.8,4.6l0.6,1.8l-0.7,0.3l-0.5,0.3l-0.7,0.5l-8.1,6.1l-3,2.2l-7.7,5.6l-3.4,2.5l-3.8,2.8l-0.3,0.2l-0.3,0.2l-0.2,0.2h-0.1h-0.3
			h-1.1h-2.8h-6h-5.2h-7h-13.3h-9.5h-0.4l-0.1-0.1l-0.3-0.3l-0.5-0.5l-1-0.7l-1.3-1l-6.9-4.9l-5.6-4.1l-5.3-3.9l-3.8-2.7l-3.6-2.7
			l0,0l0.1-0.1l0.2-0.4l0.2-0.5l0.5-1.3l0.7-2l2.6-6.8l4.6-11.7l1.1-2.9l0.1-0.3h0.2l0.7-0.2l1.2-0.3l2.1-0.7l2.2-0.8l4.9-1.7
			l13.5-4.6l8.2-2.8l4.2-1.4l4-1.3h0.1l0.3,0.1l0.6,0.2l1,0.2l2.2,0.5l2.9,0.7l32.7,7.8L381,50v0.1l0.2,0.5l0.5,0.8l0.8,1.3l0.7,0.9
			l4.6,6.2l7.3,10.1l0.9,1.3l1.4,2.1l-0.4,0.3l-0.3,0.4l-0.6,0.9l-6.5,9.6l-3,4.3l-4.1,5.8l-1.1,1.6l-0.4,0.5l-3.6,0.7l-2.3,0.5
			l-17.9,4.4l-8.2,2l-4.4,1.1l-3.3,0.7h-0.2l-0.6-0.3l-1-0.3l-1.2-0.3l-5.1-1.1l-13.1-3.1l-18.6-4.4l-0.3-0.1l-0.2-0.4l-0.4-0.8
			l-0.6-0.9l-0.5-0.7l-0.8-1.1l-1.3-1.7l-3.7-5.2l-2.9-4.1l-4.4-6.1l-0.8-1.2l-0.7-1.2l0.4-0.4l0.3-0.4l0.5-0.7l1.4-2.2l0.8-1.2
			l2.4-3.5l3.4-4.7l4.7-6.4l1.5-2.1l1.2-1.7l0.5-0.1l1.9-0.5l2.7-0.8l3.6-1.2L314,46l3.4-1.1l17-5.1l2.4-0.7l2.4-0.7l1.3-0.4
			l0.5-0.2l0.3-0.1v-0.1l0.1-0.2l0.5-1.4l1.2-2.5l1.6-2.9l0.9-1.8l0.4-0.7l0.3-0.5l0.6-1.2l0.8-1.9l0,0h-0.1h-0.1l0,0v-0.1v-0.1
			l0.3-0.7v-0.1l0.1-0.1l0,0L348.6,24.2L348.6,24.2"/>
		<path class="st16" d="M279.1,110.4V19.6"/>
		<path class="st16" d="M279.1,110.4h124.1"/>
		<path class="st16" d="M279.1,19.6h124.1"/>
		<path id="md5ae9eabb5" class="st44" d="M347.7,24.5c0.2,0,0.4-0.1,0.6-0.2c0.2-0.2,0.2-0.4,0.2-0.6s-0.1-0.4-0.2-0.6
			c-0.2-0.2-0.4-0.2-0.6-0.2s-0.4,0.1-0.6,0.2c-0.2,0.2-0.2,0.4-0.2,0.6s0.1,0.4,0.2,0.6C347.3,24.4,347.5,24.5,347.7,24.5z"/>
		<path id="md5ae9eabb5_00000135660962713526513280000000873414583871118262_" class="st44" d="M341.4,52c0.2,0,0.4-0.1,0.6-0.2
			s0.2-0.4,0.2-0.6c0-0.2-0.1-0.4-0.2-0.6s-0.4-0.2-0.6-0.2s-0.4,0.1-0.6,0.2c-0.2,0.2-0.2,0.4-0.2,0.6c0,0.2,0.1,0.4,0.2,0.6
			C341,51.9,341.2,52,341.4,52z"/>
		<path id="md5ae9eabb5_00000176044012875512184390000014273262673135982746_" class="st44" d="M374,85.1c0.2,0,0.4-0.1,0.6-0.2
			c0.2-0.2,0.2-0.4,0.2-0.6s-0.1-0.4-0.2-0.6c-0.2-0.2-0.4-0.2-0.6-0.2s-0.4,0.1-0.6,0.2s-0.2,0.4-0.2,0.6s0.1,0.4,0.2,0.6
			S373.8,85.1,374,85.1z"/>
		<path id="md5ae9eabb5_00000006669926736363124130000016157838370343455622_" class="st44" d="M308.9,85.1c0.2,0,0.4-0.1,0.6-0.2
			s0.2-0.4,0.2-0.6s-0.1-0.4-0.2-0.6s-0.4-0.2-0.6-0.2s-0.4,0.1-0.6,0.2c-0.2,0.2-0.2,0.4-0.2,0.6s0.1,0.4,0.2,0.6
			C308.4,85,308.6,85.1,308.9,85.1z"/>
		<path id="md5ae9eabb5_00000063608686655420432960000016712287788575944083_" class="st44" d="M341.3,49.8c0.2,0,0.4-0.1,0.6-0.2
			s0.2-0.4,0.2-0.6c0-0.2-0.1-0.4-0.2-0.6s-0.4-0.2-0.6-0.2s-0.4,0.1-0.6,0.2s-0.2,0.4-0.2,0.6s0.1,0.4,0.2,0.6
			S341.1,49.8,341.3,49.8z"/>
		<path id="md5ae9eabb5_00000028302438937108335840000002271818330698889881_" class="st44" d="M382.7,74.1c0.2,0,0.4-0.1,0.6-0.2
			s0.2-0.4,0.2-0.6s-0.1-0.4-0.2-0.6s-0.4-0.2-0.6-0.2s-0.4,0.1-0.6,0.2c-0.2,0.2-0.2,0.4-0.2,0.6s0.1,0.4,0.2,0.6
			C382.3,74,382.5,74.1,382.7,74.1z"/>
		<path id="md5ae9eabb5_00000147899753572811116860000009952584792563548050_" class="st44" d="M341.3,98.4c0.2,0,0.4-0.1,0.6-0.2
			s0.2-0.4,0.2-0.6s-0.1-0.4-0.2-0.6s-0.4-0.2-0.6-0.2s-0.4,0.1-0.6,0.2c-0.2,0.2-0.2,0.4-0.2,0.6s0.1,0.4,0.2,0.6
			C340.9,98.3,341.1,98.4,341.3,98.4z"/>
		<path id="md5ae9eabb5_00000005234530181947311350000008013281580094763694_" class="st44" d="M299.9,74.1c0.2,0,0.4-0.1,0.6-0.2
			s0.2-0.4,0.2-0.6s-0.1-0.4-0.2-0.6s-0.4-0.2-0.6-0.2s-0.4,0.1-0.6,0.2s-0.2,0.4-0.2,0.6s0.1,0.4,0.2,0.6S299.7,74.1,299.9,74.1z"
			/>
		<path id="md5ae9eabb5_00000106127953688113796700000006749607338245657238_" class="st44" d="M341.2,47.6c0.2,0,0.4-0.1,0.6-0.2
			c0.2-0.2,0.2-0.4,0.2-0.6c0-0.2-0.1-0.4-0.2-0.6c-0.2-0.2-0.4-0.2-0.6-0.2s-0.4,0.1-0.6,0.2c-0.2,0.2-0.2,0.4-0.2,0.6
			c0,0.2,0.1,0.4,0.2,0.6C340.8,47.5,341,47.6,341.2,47.6z"/>
		<path id="md5ae9eabb5_00000091731160697748759820000009354135092224607112_" class="st44" d="M384.1,65.8c0.2,0,0.4-0.1,0.6-0.2
			s0.2-0.4,0.2-0.6s-0.1-0.4-0.2-0.6c-0.2-0.2-0.4-0.2-0.6-0.2s-0.4,0.1-0.6,0.2c-0.2,0.2-0.2,0.4-0.2,0.6s0.1,0.4,0.2,0.6
			C383.7,65.8,383.9,65.8,384.1,65.8z"/>
		<path id="md5ae9eabb5_00000005260700389936446000000010860739709113840004_" class="st44" d="M367.6,95.4c0.2,0,0.4-0.1,0.6-0.2
			s0.2-0.4,0.2-0.6s-0.1-0.4-0.2-0.6s-0.4-0.2-0.6-0.2s-0.4,0.1-0.6,0.2s-0.2,0.4-0.2,0.6s0.1,0.4,0.2,0.6S367.4,95.4,367.6,95.4z"
			/>
		<path id="md5ae9eabb5_00000104680042841349784210000013639400387170569611_" class="st44" d="M314.6,95.4c0.2,0,0.4-0.1,0.6-0.2
			s0.2-0.4,0.2-0.6s-0.1-0.4-0.2-0.6c-0.2-0.2-0.4-0.2-0.6-0.2s-0.4,0.1-0.6,0.2c-0.2,0.2-0.2,0.4-0.2,0.6s0.1,0.4,0.2,0.6
			C314.2,95.4,314.4,95.4,314.6,95.4z"/>
		<path id="md5ae9eabb5_00000150068536665244293760000000591852350825120391_" class="st44" d="M298.3,65.8c0.2,0,0.4-0.1,0.6-0.2
			s0.2-0.4,0.2-0.6s-0.1-0.4-0.2-0.6s-0.4-0.2-0.6-0.2s-0.4,0.1-0.6,0.2s-0.2,0.4-0.2,0.6s0.1,0.4,0.2,0.6S298.1,65.8,298.3,65.8z"
			/>
		<path id="md5ae9eabb5_00000101793540922788014560000006395956204362217130_" class="st44" d="M341.3,45.4c0.2,0,0.4-0.1,0.6-0.2
			s0.2-0.4,0.2-0.6c0-0.2-0.1-0.4-0.2-0.6s-0.4-0.2-0.6-0.2s-0.4,0.1-0.6,0.2s-0.2,0.4-0.2,0.6c0,0.2,0.1,0.4,0.2,0.6
			S341.1,45.4,341.3,45.4z"/>
		<path id="md5ae9eabb5_00000034810316843938522690000001699301550038579592_" class="st44" d="M383.6,59.7c0.2,0,0.4-0.1,0.6-0.2
			c0.2-0.2,0.2-0.4,0.2-0.6c0-0.2-0.1-0.4-0.2-0.6c-0.2-0.2-0.4-0.2-0.6-0.2s-0.4,0.1-0.6,0.2c-0.2,0.2-0.2,0.4-0.2,0.6
			c0,0.2,0.1,0.4,0.2,0.6C383.2,59.6,383.4,59.7,383.6,59.7z"/>
		<path id="md5ae9eabb5_00000157308636917646736240000002067618687972306313_" class="st44" d="M383.6,88.4c0.2,0,0.4-0.1,0.6-0.2
			s0.2-0.4,0.2-0.6s-0.1-0.4-0.2-0.6s-0.4-0.2-0.6-0.2s-0.4,0.1-0.6,0.2c-0.2,0.2-0.2,0.4-0.2,0.6s0.1,0.4,0.2,0.6
			C383.2,88.3,383.4,88.4,383.6,88.4z"/>
		<path id="md5ae9eabb5_00000013912261370202831740000015660517339896814238_" class="st44" d="M341.3,102.7c0.2,0,0.4-0.1,0.6-0.2
			c0.2-0.2,0.2-0.4,0.2-0.6s-0.1-0.4-0.2-0.6c-0.2-0.2-0.4-0.2-0.6-0.2s-0.4,0.1-0.6,0.2s-0.2,0.4-0.2,0.6s0.1,0.4,0.2,0.6
			S341.1,102.7,341.3,102.7z"/>
		<path id="md5ae9eabb5_00000150818438685600984370000017743267986501795225_" class="st44" d="M299,88.4c0.2,0,0.4-0.1,0.6-0.2
			c0.2-0.2,0.2-0.4,0.2-0.6s-0.1-0.4-0.2-0.6c-0.2-0.2-0.4-0.2-0.6-0.2s-0.4,0.1-0.6,0.2c-0.2,0.2-0.2,0.4-0.2,0.6s0.1,0.4,0.2,0.6
			C298.6,88.3,298.8,88.4,299,88.4z"/>
		<path id="md5ae9eabb5_00000116237797736811040590000016260623901248296367_" class="st44" d="M299,59.7c0.2,0,0.4-0.1,0.6-0.2
			s0.2-0.4,0.2-0.6s-0.1-0.4-0.2-0.6s-0.4-0.2-0.6-0.2s-0.4,0.1-0.6,0.2s-0.2,0.4-0.2,0.6s0.1,0.4,0.2,0.6S298.8,59.7,299,59.7z"/>
		<path id="md5ae9eabb5_00000160155403512443839870000011849573436621428897_" class="st44" d="M341.3,43.2c0.2,0,0.4-0.1,0.6-0.2
			s0.2-0.4,0.2-0.6s-0.1-0.4-0.2-0.6s-0.4-0.2-0.6-0.2s-0.4,0.1-0.6,0.2s-0.2,0.4-0.2,0.6s0.1,0.4,0.2,0.6S341.1,43.2,341.3,43.2z"
			/>
		<path id="md5ae9eabb5_00000045620507389878117510000011090007879313164424_" class="st44" d="M382.5,54.9c0.2,0,0.4-0.1,0.6-0.2
			s0.2-0.4,0.2-0.6c0-0.2-0.1-0.4-0.2-0.6s-0.4-0.2-0.6-0.2s-0.4,0.1-0.6,0.2c-0.2,0.2-0.2,0.4-0.2,0.6c0,0.2,0.1,0.4,0.2,0.6
			C382,54.8,382.2,54.9,382.5,54.9z"/>
		<path id="md5ae9eabb5_00000078737809310220725280000015132878387957847994_" class="st44" d="M392.7,81c0.2,0,0.4-0.1,0.6-0.2
			c0.2-0.2,0.2-0.4,0.2-0.6s-0.1-0.4-0.2-0.6s-0.4-0.2-0.6-0.2s-0.4,0.1-0.6,0.2s-0.2,0.4-0.2,0.6s0.1,0.4,0.2,0.6
			C392.2,80.9,392.5,81,392.7,81z"/>
		<path id="md5ae9eabb5_00000000205171735836089900000014802189089696307619_" class="st44" d="M364.1,101.9c0.2,0,0.4-0.1,0.6-0.2
			c0.2-0.2,0.2-0.4,0.2-0.6s-0.1-0.4-0.2-0.6c-0.2-0.2-0.4-0.2-0.6-0.2s-0.4,0.1-0.6,0.2c-0.2,0.2-0.2,0.4-0.2,0.6s0.1,0.4,0.2,0.6
			S363.9,101.9,364.1,101.9z"/>
		<path id="md5ae9eabb5_00000049208777855533079660000004228607429826500786_" class="st44" d="M318.5,101.9c0.2,0,0.4-0.1,0.6-0.2
			c0.2-0.2,0.2-0.4,0.2-0.6s-0.1-0.4-0.2-0.6s-0.4-0.2-0.6-0.2s-0.4,0.1-0.6,0.2s-0.2,0.4-0.2,0.6s0.1,0.4,0.2,0.6
			C318.1,101.8,318.3,101.9,318.5,101.9z"/>
		<path id="md5ae9eabb5_00000155139951683149070910000011598475117019204782_" class="st44" d="M289.9,81c0.2,0,0.4-0.1,0.6-0.2
			s0.2-0.4,0.2-0.6s-0.1-0.4-0.2-0.6s-0.4-0.2-0.6-0.2s-0.4,0.1-0.6,0.2s-0.2,0.4-0.2,0.6s0.1,0.4,0.2,0.6S289.7,81,289.9,81z"/>
		<path id="md5ae9eabb5_00000137092207151434611940000002823653703593824393_" class="st44" d="M300.2,54.9c0.2,0,0.4-0.1,0.6-0.2
			c0.2-0.2,0.2-0.4,0.2-0.6c0-0.2-0.1-0.4-0.2-0.6c-0.2-0.2-0.4-0.2-0.6-0.2s-0.4,0.1-0.6,0.2c-0.2,0.2-0.2,0.4-0.2,0.6
			c0,0.2,0.1,0.4,0.2,0.6C299.7,54.8,300,54.9,300.2,54.9z"/>
		<path id="md5ae9eabb5_00000119828926645078750700000005453487672062986681_" class="st44" d="M341.2,41c0.2,0,0.4-0.1,0.6-0.2
			s0.2-0.4,0.2-0.6c0-0.2-0.1-0.4-0.2-0.6s-0.4-0.2-0.6-0.2s-0.4,0.1-0.6,0.2s-0.2,0.4-0.2,0.6c0,0.2,0.1,0.4,0.2,0.6
			S341,41,341.2,41z"/>
		<path id="md5ae9eabb5_00000168812788837643435790000016748111275580141740_" class="st44" d="M381.2,50.6c0.2,0,0.4-0.1,0.6-0.2
			c0.2-0.2,0.2-0.4,0.2-0.6c0-0.2-0.1-0.4-0.2-0.6c-0.2-0.2-0.4-0.2-0.6-0.2s-0.4,0.1-0.6,0.2s-0.2,0.4-0.2,0.6
			c0,0.2,0.1,0.4,0.2,0.6S380.9,50.6,381.2,50.6z"/>
		<path id="md5ae9eabb5_00000142891488996119043380000002014812101492814525_" class="st44" d="M397.6,74c0.2,0,0.4-0.1,0.6-0.2
			s0.2-0.4,0.2-0.6s-0.1-0.4-0.2-0.6s-0.4-0.2-0.6-0.2s-0.4,0.1-0.6,0.2c-0.2,0.2-0.2,0.4-0.2,0.6s0.1,0.4,0.2,0.6
			C397.2,73.9,397.4,74,397.6,74z"/>
		<path id="md5ae9eabb5_00000005235257270153232920000005342628094958996644_" class="st44" d="M381.2,97.5c0.2,0,0.4-0.1,0.6-0.2
			s0.2-0.4,0.2-0.6s-0.1-0.4-0.2-0.6s-0.4-0.2-0.6-0.2s-0.4,0.1-0.6,0.2s-0.2,0.4-0.2,0.6s0.1,0.4,0.2,0.6S380.9,97.5,381.2,97.5z"
			/>
		<path id="md5ae9eabb5_00000099657584185766388070000002537998611626626485_" class="st44" d="M341.2,107.1c0.2,0,0.4-0.1,0.6-0.2
			s0.2-0.4,0.2-0.6s-0.1-0.4-0.2-0.6c-0.2-0.2-0.4-0.2-0.6-0.2s-0.4,0.1-0.6,0.2c-0.2,0.2-0.2,0.4-0.2,0.6s0.1,0.4,0.2,0.6
			C340.8,107,341,107.1,341.2,107.1z"/>
		<path id="md5ae9eabb5_00000104702234900857400610000003674397376839569792_" class="st44" d="M301.3,97.5c0.2,0,0.4-0.1,0.6-0.2
			c0.2-0.2,0.2-0.4,0.2-0.6s-0.1-0.4-0.2-0.6c-0.2-0.2-0.4-0.2-0.6-0.2s-0.4,0.1-0.6,0.2s-0.2,0.4-0.2,0.6s0.1,0.4,0.2,0.6
			C300.9,97.4,301.1,97.5,301.3,97.5z"/>
		<path id="md5ae9eabb5_00000119077582090521074800000003480914376526134409_" class="st44" d="M284.8,74c0.2,0,0.4-0.1,0.6-0.2
			c0.2-0.2,0.2-0.4,0.2-0.6s-0.1-0.4-0.2-0.6c-0.2-0.2-0.4-0.2-0.6-0.2s-0.4,0.1-0.6,0.2S284,73,284,73.2s0.1,0.4,0.2,0.6
			C284.3,74,284.6,74,284.8,74z"/>
		<path id="md5ae9eabb5_00000041996657883035231620000017127575768594729859_" class="st44" d="M301.3,50.6c0.2,0,0.4-0.1,0.6-0.2
			c0.2-0.2,0.2-0.4,0.2-0.6c0-0.2-0.1-0.4-0.2-0.6c-0.2-0.2-0.4-0.2-0.6-0.2s-0.4,0.1-0.6,0.2c-0.2,0.2-0.2,0.4-0.2,0.6
			c0,0.2,0.1,0.4,0.2,0.6C300.9,50.6,301.1,50.6,301.3,50.6z"/>
		<path id="md5ae9eabb5_00000057110847052530771790000008874299963358486187_" class="st44" d="M341.2,38.6c0.2,0,0.4-0.1,0.6-0.2
			s0.2-0.4,0.2-0.6s-0.1-0.4-0.2-0.6s-0.4-0.2-0.6-0.2s-0.4,0.1-0.6,0.2s-0.2,0.4-0.2,0.6s0.1,0.4,0.2,0.6S341,38.6,341.2,38.6z"/>
		<path id="md5ae9eabb5_00000145029804424537948120000008911773474872377236_" class="st44" d="M347.8,24.6c0.2,0,0.4-0.1,0.6-0.2
			c0.2-0.2,0.2-0.4,0.2-0.6s-0.1-0.4-0.2-0.6c-0.2-0.2-0.4-0.2-0.6-0.2s-0.4,0.1-0.6,0.2c-0.2,0.2-0.2,0.4-0.2,0.6s0.1,0.4,0.2,0.6
			C347.4,24.5,347.6,24.6,347.8,24.6z"/>
		<text transform="matrix(1 0 0 1 274.2076 25.5739)" class="st3 st14">0</text>
		<text transform="matrix(1 0 0 1 269.6264 40.2739)" class="st3 st14">-20</text>
		<text transform="matrix(1 0 0 1 269.6264 54.9742)" class="st3 st14">-40</text>
		<text transform="matrix(1 0 0 1 269.6264 69.674)" class="st3 st14">-60</text>
		<text transform="matrix(1 0 0 1 269.6264 84.3741)" class="st3 st14">-80</text>
		<text transform="matrix(1 0 0 1 266.7611 99.1741)" class="st3 st14">-100</text>
		<text transform="matrix(1 0 0 1 347.1401 115.8214)" class="st3 st14">0</text>
		<text transform="matrix(1 0 0 1 370.8079 115.8214)" class="st3 st14">20</text>
		<text transform="matrix(1 0 0 1 395.8073 115.8214)" class="st3 st14">40</text>
		<text transform="matrix(1 0 0 1 319.7491 115.8209)" class="st3 st14">-20</text>
		<text transform="matrix(1 0 0 1 294.7495 115.8214)" class="st3 st14">-40</text>
		<text transform="matrix(1 0 0 1 323.9964 121.9141)" class="st5 st14">Longitude</text>
		<path id="m97aecee00f" class="st15" d="M285.1,186.6v0.7"/>
		<path id="m97aecee00f_00000155825734748381124690000016025327253510702475_" class="st15" d="M304,186.6v0.7"/>
		<path id="m97aecee00f_00000085250488044471481130000005816320492815173506_" class="st15" d="M322.9,186.6v0.7"/>
		<path id="m97aecee00f_00000137846110990643619760000002278622144977790615_" class="st15" d="M341.8,186.6v0.7"/>
		<path id="m97aecee00f_00000039826336334983999780000001174094312392224942_" class="st15" d="M360.7,186.6v0.7"/>
		<path id="m97aecee00f_00000139267059764118269050000013568214033805999015_" class="st15" d="M379.6,186.6v0.7"/>
		<path id="m97aecee00f_00000062883671556609259240000012624628079429387951_" class="st15" d="M398.5,186.6v0.7"/>
		<path id="m680ab3b794" class="st15" d="M279.5,178.7h-1.6"/>
		<path id="m680ab3b794_00000009550609980083097690000003832424213770381973_" class="st15" d="M279.5,169.4h-1.6"/>
		<path id="m680ab3b794_00000140698208388485863850000002001339911260950205_" class="st15" d="M279.5,160h-1.6"/>
		<path id="m680ab3b794_00000170263003307530177490000017056880071334400672_" class="st15" d="M279.5,150.7h-1.6"/>
		<path id="m680ab3b794_00000059298000424934680390000015749260700651019424_" class="st15" d="M279.5,141.4h-1.6"/>
		<path id="m680ab3b794_00000081605404000798714090000008761692458940339329_" class="st15" d="M279.5,132h-1.6"/>
		<rect x="279.5" y="129" class="st17" width="123.6" height="57.6"/>
		<path class="st0" d="M285.1,131.7L285.1,131.7l0.2-0.1h0.2h0.5l0.1,0.1l0.2,0.1h0.1h0.2l0.9-0.1h0.1l0.1,0.1l0.1,0.3l0.1,0.7
			l0.2,1.7l0.6,7.6l0.7,7.8l0.4,4.3l1,10.8l0.5,4.3l0.2,0.6l0.1,0.1h0.1l0.5-0.4l0.1,0.1l0.4,0.3l0.3,0.1h0.2h0.2h0.2h0.2l0.3-0.3
			l0.1-0.3l0.1-0.5l0.2-1.4l0.6-5.7l1.3-13.5l0.1-0.3l0.1-0.1h0.1l0.1,0.1l0.1,0.5l0.2,1.2l1.2,10.2l0.4,2.8l0.2,0.5l0.2,0.4
			l0.1,0.6l0.2,1.8l0.5,4.1l0.9,8l0.1,0.3h0.1l0,0l0.1-0.1l0.1-0.3l0.1-0.7l0.4-3l1.4-11.1l0.1-0.3l0.1-0.2l0.1-0.3l0.1-0.8l0.3-2.2
			l1.5-13l0.1-0.2h0.1l0.1,0.1l0.1,0.3l0.2,0.9l1.6,10.7l0.2,0.8l0.2,1.6l0.6,6.5l0.7,8.9l0.1,0.4l0.1,0.1h0.1l0.2-0.1h0.2l0.3-0.1
			h0.1l0.2,0.1l0.2,0.1h0.3h0.1l0.1-0.1l0.1-0.3l0.1-0.5l0.2-1.1l0.3-3.2l1.3-13.9l0.2-0.6l0.1-0.6l0.2-1.6l1.3-9.8h0.1l0,0l0.1,0.1
			l0.1,0.4l0.3,1.6l0.9,5.6l0.5,3.6l0.4,4.9l1,11.5l0.6,2.6l0.4,2.7l0.5,2.9l0.1,0.1l0,0l0.1-0.1l0.1-0.4l0.2-1.1l1.6-10l0.4-4.8
			l0.9-10.4l0.2-0.9l0.2-1.1l0.5-3.7l0.8-5l0.1-0.1l0,0l0.1,0.1l0.1,0.5l1.4,7.9l0.2,1.9l0.6,7.9l0.5,6l0.8,6.2l0.8,6.8l0.1,0.1h0.1
			l0.1-0.1l0.2-0.2h0.1h0.2h0.2h0.3l0.1-0.2l0.1-0.5l0.2-1.5l1.5-13.5l0.7-8.3l0.5-5.8l0.3-1.6l0.5-2.7l0.8-4.4l0.1-0.1l0,0l0.1,0.2
			l0.2,0.7l0.7,3.2l0.5,2.2l0.2,1.5l0.7,7.8l0.6,6.6l0.5,5l0.9,9.2l0.3,1.3l0.3,1.3l0.6,2.6h0.1l0.1-0.1l0.1-0.3l0.3-1.2l0.5-2.4
			l0.6-2.7l0.2-2.1l1.3-13.3l0.4-3.9l1-10.7l1.2-6.2l0,0"/>
		<rect x="279.5" y="129" class="st17" width="123.6" height="57.6"/>
		<path class="st1" d="M285.1,132h1.1h0.3h0.4h1.1h0.5h3.1h0.8h1.7h0.8h0.7h3.5l0.1,0.1l0.1,0.3l0.1,0.8l0.2,2l0.4,5.3l0.7,7.3
			l0.2,0.7l0.2,0.8l0.1,0.9l0.2,2.7l0.6,5.8l1,10.1l0.2,0.6l0.1,0.2h0.1h0.3l0.2,0.2l0.2,0.1h0.1h0.2h0.2l0.3,0.1l0.3,0.1h0.2
			l0.1-0.1l0.1-0.3l0.2-0.9l0.2-1.3l0.3-3.4l0.9-9.5l0.5-5l0.2-0.9l0.1-0.2l0,0l0.1,0.1l0.2,0.6l0.2,0.7l0.2,1.3l1.3,10.4l0.2,0.7
			l0.3,0.9l0.3,1.2l0.2,1.2l1.1,10.1l0.2,1.4l0.2,0.6l0.1,0.1l0,0l0,0l0.1-0.2l0.3-1l0.1-1l1.4-11.4l0.3-0.8l0.3-1.1l0.2-0.9
			l0.2-2.1l0.6-5.9l0.6-5.5l0.2-0.7l0.1-0.1l0,0l0.1,0.1l0.4,0.8l0.1,0.6l0.3,2.1l0.7,4.8l0.2,1.3l0.2,0.5l0.1,0.4l0.2,1l0.2,1.2
			l0.2,1.9l1,11.8l0.2,1.9l0.2,0.7l0.1,0.1h0.1l0.3-0.1l0.1,0.1l0.3,0.2h0.2h0.5h0.2l0.1-0.1l0.1-0.2l0.1-0.7l0.1-1.3l1.4-15.1
			l0.2-0.7l0.4-1.2l0.2-0.9l0.3-2.8l0.9-7l0.2-0.8l0.1-0.3l0,0l0,0l0.1,0.1l0.3,0.5l0.1,0.4l0.2,0.9l1,5.6l0.2,0.5l0.2,0.4l0.2,0.9
			l0.2,1l0.2,1.7l1.1,12.5l0.2,1l0.2,0.5l0.3,0.7l0.2,0.7l0.2,1.6l0.6,3.6l0.4,2.1l0.2,0.4l0.1,0.1l0,0h0.1l0.2-0.2l0.2-0.5l0.1-0.6
			l0.3-1.9l0.7-3.9l0.2-0.8l0.4-1.2l0.2-1.2l0.2-1.5l1.1-13.2l0.2-0.8l0.5-1.7l0.2-1.6l0.5-3.7l0.6-3.5l0.2-0.4h0.1l0,0h0.1l0.2,0.2
			l0.1,0.3l0.1,0.5l0.3,1.3l0.7,3.3l0.2,0.7l0.4,0.9l0.2,0.9l0.1,1.3l0.6,7.1l0.5,4.9l0.2,1l0.5,1.9l0.2,1.8l0.7,6.7l0.3,2.8
			l0.2,0.9l0.1,0.1h0.1l0.3-0.1l0.1,0.1l0.3,0.2h0.2h0.4l0.1-0.1l0.1-0.3l0.1-0.7l0.2-1.9l0.6-5.9l0.3-2.7l0.2-0.8l0.3-1l0.2-1
			l0.1-1.4l1.1-12l0.2-0.9l0.2-0.4l0.2-0.5l0.2-0.7l0.4-2.4l0.6-3.9l0.2-0.9l0.2-0.3h0.1l0,0l0.1,0.1l0.2,0.2l0.1,0.3l0.2,0.6
			l0.9,3.8l0.2,0.3l0.1,0.3l0.2,0.7l0.1,0.9l0.2,2.4l0.7,7.3l0.2,1.8l0.2,0.8l0.3,1.1l0.1,0.9l0.2,2.2l0.7,7.9l0.2,2l0.2,0.8
			l0.2,0.3l0.2,0.4l0.2,0.7l1,4.7l0.2,0.4l0.1,0.1l0,0h0.1l0.2-0.2l0.1-0.3l0.2-0.5l0.6-2.7l0.3-1.3l0.2-0.3l0.1-0.3l0.2-0.6
			l0.1-0.7l0.2-1.4l1-10.3l0.2-0.9l0.4-1.6l0.1-1.2l0.4-5.2l0.5-5.6l0.2-1.1l0.2-0.5l0.2-0.6l0.2-0.7l1.2-6.2l0.4-1.2l0.1-1l0.2-3
			l0.3-2.5l0.2-0.8l0.1-0.2h0.1l0,0l0.1,0.1l0.2,0.1h0.1l0.1-0.1l0.4-0.3h0.1h0.4l0.4-0.1l0.4-0.1l0.4-0.1l2.8-0.5h0.4l0,0l20.3,0.3
			l0,0"/>
		<rect x="279.5" y="129" class="st17" width="123.6" height="57.6"/>
		<path class="st2" d="M285.1,132h0.8h0.3h0.8h2.7h0.7h0.5h0.8h0.5h0.5h1.6h0.4h0.7h0.8h0.4h0.6h2.1l0.1,0.1l0.1,0.2l0.1,0.8l0.2,2
			l1.1,11.9l0.2,1.1l0.4,1.7l0.2,2.3l1.2,13.1l0.3,3l0.2,1l0.2,0.4l0.1,0.1h0.1h0.2l0.5,0.1h0.7h0.2h0.4l0.1-0.1l0.1-0.2l0.3-1.3
			l0.1-0.9l0.5-4.5l0.9-8.9l0.5-4.5l0.2-1.1l0.1-0.2l0,0l0.1,0.2l0.3,0.8l0.1,0.7l0.6,4.8l0.9,6.9l0.2,0.8l0.5,1.7l0.1,0.8l0.5,4
			l1.1,8.3l0.2,0.6h0.1l0,0l0.1-0.1l0.2-0.4l0.2-0.5l0.1-0.8l0.9-7.1l0.6-4.4l0.2-0.8l0.3-1.1l0.3-1.2l0.2-1.5l1.6-12.7l0.2-0.4l0,0
			l0,0l0.1,0.1l0.2,0.4l0.1,0.3l0.1,0.6l0.6,4.2l0.7,4.2l0.2,0.7l0.2,0.5l0.4,1.8l0.2,1.5l1.4,14.6l0.2,0.7l0.1,0.1h0.1h0.2h0.4h0.5
			h0.6h0.1l0.1-0.2l0.1-0.7l0.1-1.2l0.6-6.9l0.8-7.8l0.2-1.1l0.4-1.4l0.2-0.8l0.3-2.3l1.2-8.4l0.2-0.4h0.1l0,0l0.1,0.1l0.2,0.2
			l0.1,0.3l0.2,0.7l1.3,6.7l0.3,0.8l0.3,1.3l0.1,1.3l0.7,7.9l0.5,5.4l0.2,1.1l0.3,0.8l0.3,0.8l0.2,1.2l1.1,6.2l0.2,0.5h0.1l0,0
			l0.1-0.1l0.2-0.2l0.1-0.2l0.1-0.5l0.3-1.8l0.9-5l0.6-2l0.1-1l0.3-3.1l1-11.2l0.2-1l0.6-2.1l0.9-5.9l0.3-2l0.2-0.6l0.1-0.1h0.1
			l0.1,0.1l0.2,0.2l0.1,0.4l0.2,1l1,4.6l0.3,0.8l0.2,1.1l0.2,1.5l1.2,12.3l0.2,1l0.4,1.6l0.2,2l1.1,9.4l0.2,0.7l0.1,0.1h0.2h0.4h0.6
			h0.1l0.1-0.1l0.1-0.2l0.1-0.8l0.2-2l1-8.5l0.2-0.9l0.3-1.3l0.1-0.8l0.2-1.8l1.1-11.4l0.2-1.1l0.3-0.7l0.2-0.6l0.2-1.3l1-6l0.2-0.6
			l0.1-0.1h0.1l0.2,0.1l0.1,0.1l0.1,0.3l0.2,0.9l0.9,3.6l0.4,1.1l0.1,0.6l0.2,1.4l1,10.5l0.2,1l0.4,1.7l0.2,1.5l1,10.5l0.2,1.1
			l0.2,0.5l0.2,0.7l0.3,1.2l0.8,3.6l0.2,0.4l0.1,0.1h0.1l0.2-0.1l0.1-0.2l0.1-0.5l1.2-4.5l0.2-0.5l0.2-0.9l0.1-1.2l0.8-8.5l0.3-2.3
			l0.2-1.1l0.4-1.7l0.1-1.2l1.1-11.1l0.2-0.9l0.4-1.4l0.5-2.7l0.6-3.2l0.2-0.5l0.1-0.4l0.2-0.8l0.1-1.1l0.5-5.3l0.2-0.9l0.1-0.2h0.1
			h0.1l0.3,0.1h0.2l5.1-0.7l22.4,0.3l0,0"/>
		<path class="st16" d="M279.5,186.6V129"/>
		<path class="st16" d="M279.5,186.6h123.6"/>
		<path class="st16" d="M279.5,129h123.6"/>
		<text transform="matrix(1 0 0 1 274.14 133.3769)" class="st3 st42">0</text>
		<text transform="matrix(1 0 0 1 269.6939 142.7098)" class="st3 st42">-20</text>
		<text transform="matrix(1 0 0 1 269.6936 152.044)" class="st3 st42">-40</text>
		<text transform="matrix(1 0 0 1 269.6936 161.3776)" class="st3 st42">-60</text>
		<text transform="matrix(1 0 0 1 269.6936 170.7112)" class="st3 st42">-80</text>
		<text transform="matrix(1 0 0 1 266.9131 180.0444)" class="st3 st42">-100</text>
		<text transform="matrix(1 0 0 1 283.7018 192.6648)" class="st3 st42">0</text>
		<text transform="matrix(1 0 0 1 302.6011 192.6644)" class="st3 st42">1</text>
		<text transform="matrix(1 0 0 1 321.5003 192.6644)" class="st3 st42">2</text>
		<text transform="matrix(1 0 0 1 340.3998 192.6645)" class="st3 st42">3</text>
		<text transform="matrix(1 0 0 1 359.299 192.6645)" class="st3 st42">4</text>
		<text transform="matrix(1 0 0 1 378.1982 192.6645)" class="st3 st42">5</text>
		<text transform="matrix(1 0 0 1 397.0971 192.6645)" class="st3 st42">6</text>
		<text transform="matrix(1 0 0 1 395.1506 197.3879)" class="st5 st43">1e8</text>
		<text transform="matrix(5.991317e-07 -1 1 5.991317e-07 267.9208 70.1176)" class="st5 st14">Latitude</text>
		<text transform="matrix(5.991317e-07 -1 1 5.991317e-07 267.9209 165.4165)" class="st5 st14">Latitude</text>
	</g>
	<path class="st12" d="M396.8,208.8H269.9c-5.5,0-9.9-4.4-9.9-9.9V21.4c0-5.5,4.4-9.9,9.9-9.9h126.9c5.5,0,9.9,4.4,9.9,9.9v177.5
		C406.6,204.3,402.2,208.8,396.8,208.8z"/>
</g>
<g>
	<g>
		<text transform="matrix(1 0 0 1 511.7347 8.6412)" class="st5 st13">Total Waypoints: 35</text>
		<g>
			<path id="mf51430a731" class="st15" d="M503.3,111.1v1"/>
			<path id="mf51430a731_00000079475890909514568380000000209954622373881235_" class="st15" d="M528.4,111.1v1"/>
			<path id="mf51430a731_00000079464029850547547210000004148931057103943051_" class="st15" d="M553.5,111.1v1"/>
			<path id="mf51430a731_00000141422896488013168350000002459002775059141532_" class="st15" d="M578.6,111.1v1"/>
			<path id="mf51430a731_00000041263313243384583110000017764590014725387948_" class="st15" d="M603.7,111.1v1"/>
			<g>
				<path id="mff3f293175" class="st15" d="M483.9,98.3h-1"/>
				<path id="mff3f293175_00000003087239086063848640000006629815050622173350_" class="st15" d="M483.9,83.2h-1"/>
				<path id="mff3f293175_00000007394989039205700400000006507717297875276195_" class="st15" d="M483.9,68.1h-1"/>
				<path id="mff3f293175_00000034796899280275720660000017156770924306756229_" class="st15" d="M483.9,52.9h-1"/>
				<path id="mff3f293175_00000167391289668310341790000017462793201957543312_" class="st15" d="M483.9,37.8h-1"/>
				<path id="mff3f293175_00000153696673408958884160000013545045232292138646_" class="st15" d="M483.9,22.7h-1"/>
				<rect x="483.9" y="17.9" class="st17" width="124.2" height="93.5"/>
				<path class="st0" d="M546.3,50.4l32.6,34h-65.2l32.5-36.3l41.4,25l-41.4,25l-41.4-25l41.3-27.3L589,64.7l-16.5,30.5h-53.1
					L503,64.7l43.1-21l42.3,14.7v29.5l-42.3,14.7l-42.3-14.7V58.4l42.3-17l41.2,12l10.2,26.8L569,101.8h-45.6l-28.6-21.5L505,53.4
					l41.1-14.3l40,9.9l16.5,24.1L586,97.2l-40,9.9l-39.9-9.9l-16.6-24.1L506.2,49l39.9-12.4l6.6-14.5"/>
				<rect x="483.9" y="17.9" class="st17" width="124.2" height="93.5"/>
				<path class="st18" d="M546.7,48.8V49l0.1,0.2l0.3,0.5l0.3,0.4l1,1.1l3.6,4.2l1.9,2.1l1.9,2.1l2.5,2.6l3.2,3.3l2.4,2.6l7.5,8.3
					l3.1,3.2l3.2,3.3l0.1,0.2v0.1l-0.1,0.1l-0.2,0.1l-0.3,0.1l-0.6,0.1h-1.1l-6.6,0.1l-4.4,0.2l-7.7,0.3l-3.5,0.1h-4h-14.1l-8.4,0.1
					l-8.2,0.1h-2.3l-0.3-0.1l-0.1-0.1v-0.1v-0.1l0.1-0.2l0.2-0.3l0.5-0.6l0.8-0.9l1-1.1l1.1-1.4l1.8-2.4l2.1-2.8l1.5-1.9l1.5-1.7
					l2.3-2.6l3.6-4.1l2.4-2.8l6-7l1.9-2.1l2.3-2.5l0.2-0.1h0.2l0.3,0.1l0.4,0.2l0.6,0.3l1.9,0.9l2.2,1l2.6,1.4l4.1,2.2l2.7,1.6
					l3,1.8l7.7,4.7l4.3,2.5l6.5,3.8l2.6,1.6l1,0.6l0.1,0.1v0.1v0.1l-0.1,0.2L585,73l-0.6,0.5l-1.1,0.9l-1.4,1.2l-1,0.7l-2.2,1.5
					l-2.7,1.8l-2.8,1.8l-3.3,2l-6.1,3.7l-3.4,2.1l-9.6,6.1l-3,1.8l-0.4,0.2l-0.3,0.1h-0.3l-0.4-0.1l-0.5-0.2l-1.1-0.5l-1.1-0.5
					l-1.8-0.8l-1.2-0.6l-2.5-1.3l-3.2-1.8l-2.8-1.7l-9.8-5.8l-6.8-3.9l-5.3-3.1l-3.7-2.2l-0.4-0.3l-0.1-0.1v-0.1l0.1-0.1l0.1-0.2
					l0.3-0.3l0.8-0.7l0.6-0.5l1.2-1.1l0.9-0.7l1.6-1.2l2.6-1.8l2.5-1.7l3.6-2.4l5.1-3.4l3.6-2.5l8.6-5.9l6.2-4.2l0.2-0.1h0.3
					l0.4,0.1l0.8,0.2l1.7,0.5l2.5,0.7l1.8,0.6l2.3,0.8l2.8,1.1l2.7,1.2l4,1.8l7.2,3.2l4.5,1.9l11.2,4.7l0.1,0.1v0.2v0.2l-0.1,0.3
					l-0.4,1.5l-0.2,0.9l-0.4,1.3l-0.4,1.2l-0.5,1.2l-0.9,2l-0.9,1.8l-1.3,2.4l-2.7,5l-1.5,3l-3.2,6.3l-1.3,2.3l-0.2,0.4l-0.2,0.2
					l-0.2,0.2l-0.3,0.1l-0.4,0.1l-0.6,0.1h-0.9h-1.4l-3.7-0.1h-2.9l-3.1,0.1l-3.8,0.1l-6.7,0.2l-3.7,0.1h-5h-11.1h-7.5l-0.5-0.1
					l-0.4-0.1l-0.3-0.2l-0.3-0.2l-0.2-0.3l-0.3-0.4l-0.4-0.7l-0.5-1.1l-0.8-1.8l-0.8-1.4l-0.9-1.5l-1.4-2.2l-2.1-3.3l-1.2-2.1
					l-1.5-2.7l-2.2-3.9l-1.7-3l-1.3-2.2l-0.4-0.9l-0.2-0.6v-0.2v-0.2l0.1-0.2l0.2-0.2l0.5-0.3l1.2-0.8l1.6-1.1l1-0.6l2.8-1.6
					l2.4-1.3l2.6-1.3l3.2-1.6l8.2-3.9l3.3-1.7l5.6-2.9l4.4-2.2l2.1-1l0.9-0.4h0.3h0.4l0.6,0.1l4.4,1l2.8,0.7l2.3,0.7l3.2,1L561,50
					l4.1,1.4l6.5,2.3l4.7,1.5l7.5,2.5l2,0.7l0.2,0.1l0.1,0.2l0.1,0.2l0.1,0.5l0.2,0.9l0.4,1.6l0.2,1.2l0.2,1.5l0.1,1.7l0.1,2.1
					l0.1,2.4V75l0.1,3.2l0.1,3.7l0.2,4.9V87l-0.1,0.1l-0.2,0.1l-0.3,0.2l-0.7,0.3l-1.4,0.6l-2.9,1.4l-2.9,1.1l-3.5,1.3l-3.9,1.4
					l-6.3,2.2l-7.4,2.6l-6.4,2.4l-2.8,1l-1.2,0.4h-0.3h-0.4l-0.6-0.1l-2.5-0.6l-1.2-0.3l-3.2-0.9l-2.5-0.8l-3.7-1.2l-3.8-1.3l-6-2.1
					l-5.5-1.9L507,89.2l-1.2-0.4l-0.2-0.1l-0.1-0.2l-0.1-0.2l-0.1-0.4l-0.7-3.7l-0.2-1.6l-0.2-1.9l-0.1-1.8v-2.2v-3.4v-3.5l-0.1-2.6
					l-0.1-2.6l-0.2-4v-0.3l0.1-0.2L504,60l0.3-0.2l0.8-0.4l1.6-0.9l1.2-0.7l1.3-0.6l3.2-1.4l3.4-1.5l4.5-1.9l14.7-6.1l8.5-3.6
					l0.4-0.1h0.3h0.5l0.8,0.1l4.2,0.8l3.2,0.7l3.5,0.9l4.1,1.1l4.8,1.4l10.5,3l8,2.2l1,0.3l0.3,0.1l0.2,0.2l0.2,0.3l0.7,1.1l0.5,0.9
					l0.6,1.2l1,2.1l1.4,3.1l1.2,2.8l1.4,3.5l1.9,4.7l0.9,2.1l1.4,3.2l0.1,0.4V79l-0.1,0.2l-0.2,0.2l-0.4,0.4l-1.5,1.4l-5.8,4.9
					l-3,2.4l-2.8,2.2L569.6,101l-0.5,0.3l-0.5,0.2l-0.5,0.1l-0.6,0.1h-0.7h-1l-3.1-0.1l-3.6-0.1h-3H553l-4.3,0.1l-6.2,0.2h-4h-6.3
					l-7-0.1l-0.9-0.1l-0.6-0.1l-0.6-0.2l-0.5-0.2l-0.5-0.3l-0.5-0.4l-0.7-0.5l-3.8-3.2l-1.6-1.2l-1.9-1.4l-2.9-2l-3.4-2.4l-2.4-1.8
					l-3-2.3l-2.8-2.2l-2.1-1.8l-0.5-0.4l-0.1-0.2v-0.2v-0.4l0.1-1.5l0.2-1l0.3-1.5l0.3-1.4l0.5-1.5l0.5-1.6l0.7-1.8l1.2-2.9l1.2-3.1
					l0.7-2l1.1-3.4l0.9-2.6l0.5-1.3l0.1-0.2l0.2-0.2l0.5-0.3l3.1-1.5l2-0.8l5-1.9l4-1.5l5.2-1.9l8.8-3.1l4.9-1.8l3.6-1.3l1.5-0.5
					h0.3h0.4l0.8,0.1l3.3,0.5l4.4,0.8l4.1,0.9l4.8,1.1l7.6,1.8l14,3.4l0.3,0.1l0.3,0.2l0.9,0.9l0.9,1l0.7,0.9l1.4,1.8l2,2.6l2.9,4
					l3,4.2l2.5,3.5l2.6,3.6l0.1,0.2v0.2l-0.1,0.2l-0.2,0.4l-0.4,0.8l-2.5,4.5l-1.8,3l-1.5,2.4l-1.9,2.9l-6.5,9.7l-0.2,0.1l-0.5,0.2
					l-2.5,0.9l-1.6,0.5l-4.5,1.3l-7.4,2.1l-5.6,1.5l-11.1,2.9l-4.3,1.1l-0.5,0.1h-0.4l-0.6-0.1l-1.8-0.3l-9.7-2l-4.2-0.9l-4.4-1
					l-12-2.9l-6.1-1.5l-0.2-0.2l-0.4-0.3l-1.3-1.3l-0.7-0.8l-1-1.3l-3.5-4.5l-2-2.8L497,83l-2.8-3.8l-1.9-2.5l-1.1-1.5l-0.5-0.8
					l-0.1-0.2V74l0.1-0.3l0.3-0.6l0.4-0.8l0.9-1.6l1.1-2L495,66l1.3-2.1l1.4-2.2l2.4-3.6l2-3l2.6-4l0.6-1l0.2-0.2l0.4-0.2l1.3-0.6
					l1.2-0.5L510,48l10.2-3.4l7-2.3l8.4-2.7l8.3-2.8l0.2-0.2l0.2-0.3l0.6-0.9l0.6-1.1l3.4-6.1l1.2-1.9l1.6-2.7l0.2-0.4l0,0l0,0
					l-0.2,0.2l-0.2,0.2l0.1-0.1l0.2-0.4l0,0l0.1-0.1l0.1-0.1l0.1-0.1v-0.1l0.1-0.2l0.1-0.1l0.2-0.5l0.8,0.5l0,0"/>
				<rect x="483.9" y="17.9" class="st17" width="124.2" height="93.5"/>
				<path class="st19" d="M553.5,22.7"/>
				<path class="st19" d="M552.5,22.5"/>
				<path class="st19" d="M552.5,22.7"/>
				<path class="st19" d="M546.7,49.1v0.2l0.1,0.3l0.4,0.7l0.2,0.3l1.3,1.5l1.7,1.7l3.7,3.8l6,6.4l1.3,1.4l1.9,2l2.8,3.1l1.6,1.7
					l5.6,6l1.2,1.3l1.4,1.5l1.7,1.9l0.1,0.2v0.2l-0.1,0.1l-0.1,0.1l-0.3,0.1l-0.5,0.1l-0.6,0.1l-1.2,0.1h-1.4h-5.3l-4.1,0.1h-6.4
					h-17.9H532l-16,0.4l-0.3-0.1l-0.2-0.1l-0.1-0.1v-0.2v-0.2l0.1-0.3l0.4-0.7l0.3-0.5l0.5-0.6l0.6-0.8l1.4-1.8l4.9-5.7l8.1-9.2
					l1.9-2.2l11.2-12.7l0.2-0.1l0.2-0.1h0.3l0.4,0.1l0.6,0.2l0.9,0.4l1.7,0.8l0.7,0.4l1.3,0.7l3,1.8l21,12.5l4.4,2.6l6,3.6l0.1,0.1
					v0.1v0.2l-0.1,0.2l-0.2,0.3l-0.6,0.6l-0.8,0.7l-0.6,0.5l-0.9,0.7l-1.2,0.7L565.9,86l-9.1,5.6l-6.2,3.9l-2.7,1.6l-0.3,0.1h-0.3
					h-0.4l-0.5-0.1l-0.6-0.2l-1.2-0.4l-1.5-0.6l-1.1-0.6l-1.4-0.8L525,85.1l-18.6-11l-0.2-0.2l-0.1-0.2v-0.2l0.1-0.2l0.2-0.3
					l0.3-0.4l0.6-0.7l0.8-0.7l0.6-0.5l1.1-0.8l8.5-5.7l18.8-12.6l6.9-4.7l0.4-0.2l0.3-0.1h0.3h0.4l0.7,0.1l1,0.2l1.7,0.5l0.7,0.3
					l4.3,1.8l9.6,4.1l6.5,2.8l6.6,2.8l4.6,2l3.6,1.5l2,0.9l0.2,0.2L587,64l0.1,0.2v0.3V65l-0.1,0.7l-0.1,0.7L587,67l-1.3,2.9
					l-0.7,1.3l-5,9.4l-3.2,6.1l-3.1,5.9l-0.8,1.4l-0.2,0.2l-0.3,0.2l-0.4,0.1l-0.5,0.1l-0.7,0.1l-1,0.1h-1.5h-3.2H555L532.3,95
					h-10.1h-1.1l-0.5-0.1l-0.4-0.1l-0.4-0.2l-0.3-0.2l-0.3-0.3l-0.3-0.4l-0.4-0.7l-0.5-0.8l-10.7-19.8l-2.3-4.1l-0.6-1.1l-0.4-0.9
					l-0.1-0.4v-0.2l0.1-0.2l0.1-0.2l0.3-0.3l0.6-0.5l0.7-0.6l0.7-0.5l0.8-0.5l0.9-0.5l3.3-1.6l4.9-2.4l10.3-5l11.5-5.8l4.2-2.1
					l2.2-1.1l0.4-0.1h0.4h0.6l1,0.1l1.5,0.3l0.9,0.2l1.5,0.4l4.1,1.3l14.7,5l7.5,2.5l3.8,1.3l5.2,1.8l0.6,0.2l0.3,0.2V58l0.2,0.3
					l0.2,0.4l0.3,0.7l0.2,0.6l0.1,0.7l0.1,1l0.1,1.9l0.1,3.3v3v4.5l0.2,11.2v0.9l-0.1,0.2l-0.1,0.2L588,87l-0.5,0.3l-0.9,0.5
					l-1.3,0.7l-0.9,0.4l-1.3,0.5l-8.9,3.2L556,99.1l-6.5,2.3l-1.4,0.4h-0.4h-0.5l-0.7-0.1l-0.9-0.2l-1.8-0.4L540,100l-2.8-0.9
					l-7.5-2.5l-8.4-2.9l-15.7-5.3l-0.3-0.2l-0.2-0.2l-0.2-0.3l-0.2-0.5l-0.2-0.6l-0.1-0.5l-0.1-0.7l-0.1-1.3l-0.1-2.1l-0.1-5l0-12.1
					l-0.1-5.2l0.1-0.2l0.1-0.2l0.3-0.2l0.5-0.4l0.9-0.6l0.9-0.5l0.8-0.4l1.1-0.5L539.5,44l3.5-1.4l1.4-0.5l0.4-0.1h0.5l0.8,0.1
					l1.1,0.1l1.4,0.2l0.9,0.2L555,44l5.5,1.5l15,4.3l5,1.4l5.1,1.5l0.3,0.2l0.3,0.3l0.7,0.8l0.5,0.7l0.3,0.5l0.5,1l1.4,3.4l1.7,4.3
					l1.5,3.9l2.3,5.6l1.9,4.7l0.1,0.5v0.2L597,79l-0.1,0.2l-0.4,0.5l-0.6,0.7l-0.4,0.4l-1,0.8l-1.5,1.2l-4.8,3.7l-5,3.9l-7.8,6.1
					l-4.7,3.7l-0.6,0.4l-0.5,0.3l-0.6,0.2l-0.5,0.1l-0.7,0.1l-0.8,0.1h-1.1h-8.6h-14.2h-9.6h-8l-0.9-0.1l-0.7-0.1l-0.6-0.2l-0.5-0.2
					l-0.5-0.3l-0.5-0.3l-0.7-0.5l-3.4-2.6l-4.6-3.5l-12.3-9.4l-1.9-1.5l-2.4-1.9l-0.2-0.2l-0.1-0.2l-0.1-0.3l-0.1-0.6v-0.6v-0.5
					l0.1-0.5l0.6-2.2l0.3-0.9l1.1-3.1l2.7-7.4l0.9-2.4l1.8-4.6l0.9-2.4l0.3-0.8l0.2-0.2l0.3-0.2l0.7-0.4l1.1-0.6l1-0.5l1.2-0.5
					l9.4-3.4l9.6-3.4l8.3-3l7-2.5l0.8-0.2l0.4-0.1h0.6l1.2,0.1L548,40l1,0.2l5,1.1l8,1.9l6.1,1.5l7,1.7l5,1.2l3.9,1l0.3,0.2l0.3,0.3
					l0.8,0.6l0.9,0.9l0.4,0.5l0.6,0.9l3.5,4.9l3.8,5.4l2.4,3.4l2.7,3.7l0.8,1.1l0.9,1.4v0.2v0.3l-0.1,0.5l-0.2,0.7l-0.1,0.3
					l-0.4,0.7l-1.5,2.5l-3.6,5.5l-7.1,10.7l-1.8,2.6l-0.3,0.2l-0.6,0.3l-1.1,0.5l-0.9,0.4l-0.8,0.3l-1.7,0.5l-20.9,5.5l-5,1.3
					l-5.2,1.3l-1.8,0.4l-0.5,0.1h-0.6l-0.8-0.1l-1-0.1l-0.8-0.1l-3.6-0.7l-2.3-0.5l-23.2-5.5l-7.4-1.9l-0.3-0.2l-0.4-0.3l-1.2-1.1
					l-0.5-0.5l-0.4-0.5l-1.2-1.7l-3.9-5.4L492.3,77l-1.1-1.5l-0.6-1.1v-0.2v-0.3l0.2-0.7l0.2-0.6l0.2-0.4l1.8-3l1.9-2.9l6.4-9.7
					l2.2-3.4l1.6-2.4l0.4-0.5l0.2-0.2l0.3-0.2l1.1-0.6l0.9-0.4l0.9-0.3l1.3-0.4l33-10.6l0.9-0.3l0.3-0.2l0.3-0.2l0.6-0.6l0.5-0.5
					l0.4-0.6l0.4-0.7l0.7-1.3l4-7.5l0.6-1.1l0.4-0.7l0.3-0.5l-0.1,0.1h-0.1l0,0"/>
				<path class="st16" d="M608.2,111.4V17.9"/>
				<g>
					<path class="st16" d="M483.9,111.4V17.9"/>
					<path class="st16" d="M483.9,111.4h124.2"/>
				</g>
				<path class="st16" d="M483.9,17.9h124.2"/>
				<path id="md2ade7922b" class="st44" d="M546.3,51.3c0.2,0,0.4-0.1,0.6-0.2c0.2-0.2,0.2-0.4,0.2-0.6s-0.1-0.4-0.2-0.6
					c-0.2-0.2-0.4-0.2-0.6-0.2c-0.2,0-0.4,0.1-0.6,0.2c-0.2,0.2-0.2,0.4-0.2,0.6s0.1,0.4,0.2,0.6C545.9,51.2,546.1,51.3,546.3,51.3z
					"/>
				<path id="md2ade7922b_00000069368967637638605850000007116292339330987931_" class="st44" d="M578.9,85.3c0.2,0,0.4-0.1,0.6-0.2
					s0.2-0.4,0.2-0.6s-0.1-0.4-0.2-0.6s-0.4-0.2-0.6-0.2c-0.2,0-0.4,0.1-0.6,0.2s-0.2,0.4-0.2,0.6s0.1,0.4,0.2,0.6
					S578.7,85.3,578.9,85.3z"/>
				<path id="md2ade7922b_00000066513222225914289180000013961883306582451098_" class="st44" d="M513.7,85.3c0.2,0,0.4-0.1,0.6-0.2
					c0.2-0.2,0.2-0.4,0.2-0.6s-0.1-0.4-0.2-0.6c-0.2-0.2-0.4-0.2-0.6-0.2c-0.2,0-0.4,0.1-0.6,0.2c-0.2,0.2-0.2,0.4-0.2,0.6
					s0.1,0.4,0.2,0.6C513.3,85.2,513.5,85.3,513.7,85.3z"/>
				<path id="md2ade7922b_00000060738543474103604220000005209551190219377581_" class="st44" d="M546.2,49c0.2,0,0.4-0.1,0.6-0.2
					c0.2-0.2,0.2-0.4,0.2-0.6s-0.1-0.4-0.2-0.6c-0.2-0.2-0.4-0.2-0.6-0.2c-0.2,0-0.4,0.1-0.6,0.2c-0.2,0.2-0.2,0.4-0.2,0.6
					s0.1,0.4,0.2,0.6C545.7,48.9,545.9,49,546.2,49z"/>
				<path id="md2ade7922b_00000000912832000284634240000010786750089217859981_" class="st44" d="M587.6,74c0.2,0,0.4-0.1,0.6-0.2
					s0.2-0.4,0.2-0.6s-0.1-0.4-0.2-0.6s-0.4-0.2-0.6-0.2c-0.2,0-0.4,0.1-0.6,0.2s-0.2,0.4-0.2,0.6s0.1,0.4,0.2,0.6
					S587.4,74,587.6,74z"/>
				<path id="md2ade7922b_00000050635555561044385010000003215696292558536340_" class="st44" d="M546.2,99c0.2,0,0.4-0.1,0.6-0.2
					c0.2-0.2,0.2-0.4,0.2-0.6s-0.1-0.4-0.2-0.6s-0.4-0.2-0.6-0.2c-0.2,0-0.4,0.1-0.6,0.2s-0.2,0.4-0.2,0.6s0.1,0.4,0.2,0.6
					C545.7,98.9,545.9,99,546.2,99z"/>
				<path id="md2ade7922b_00000059278426949262937030000012538920293212625060_" class="st44" d="M504.8,74c0.2,0,0.4-0.1,0.6-0.2
					s0.2-0.4,0.2-0.6s-0.1-0.4-0.2-0.6s-0.4-0.2-0.6-0.2s-0.4,0.1-0.6,0.2S504,73,504,73.2s0.1,0.4,0.2,0.6S504.5,74,504.8,74z"/>
				<path id="md2ade7922b_00000127026479717825552090000011119565690790223020_" class="st44" d="M546.1,46.7c0.2,0,0.4-0.1,0.6-0.2
					c0.2-0.2,0.2-0.4,0.2-0.6c0-0.2-0.1-0.4-0.2-0.6c-0.2-0.2-0.4-0.2-0.6-0.2c-0.2,0-0.4,0.1-0.6,0.2c-0.2,0.2-0.2,0.4-0.2,0.6
					c0,0.2,0.1,0.4,0.2,0.6C545.6,46.6,545.8,46.7,546.1,46.7z"/>
				<path id="md2ade7922b_00000080901394727679695650000012146210132476749952_" class="st44" d="M589,65.5c0.2,0,0.4-0.1,0.6-0.2
					c0.2-0.2,0.2-0.4,0.2-0.6s-0.1-0.4-0.2-0.6s-0.4-0.2-0.6-0.2c-0.2,0-0.4,0.1-0.6,0.2s-0.2,0.4-0.2,0.6s0.1,0.4,0.2,0.6
					C588.6,65.4,588.8,65.5,589,65.5z"/>
				<path id="md2ade7922b_00000109714577357431969960000008578139842378839448_" class="st44" d="M572.5,96c0.2,0,0.4-0.1,0.6-0.2
					c0.2-0.2,0.2-0.4,0.2-0.6s-0.1-0.4-0.2-0.6c-0.2-0.2-0.4-0.2-0.6-0.2c-0.2,0-0.4,0.1-0.6,0.2c-0.2,0.2-0.2,0.4-0.2,0.6
					s0.1,0.4,0.2,0.6C572.1,95.9,572.3,96,572.5,96z"/>
				<path id="md2ade7922b_00000002363181580982041560000001661141431531697838_" class="st44" d="M519.5,96c0.2,0,0.4-0.1,0.6-0.2
					s0.2-0.4,0.2-0.6s-0.1-0.4-0.2-0.6c-0.2-0.2-0.4-0.2-0.6-0.2c-0.2,0-0.4,0.1-0.6,0.2c-0.2,0.2-0.2,0.4-0.2,0.6s0.1,0.4,0.2,0.6
					S519.2,96,519.5,96z"/>
				<path id="md2ade7922b_00000120544884297867170910000001494910619358142603_" class="st44" d="M503.1,65.5c0.2,0,0.4-0.1,0.6-0.2
					c0.2-0.2,0.2-0.4,0.2-0.6s-0.1-0.4-0.2-0.6s-0.4-0.2-0.6-0.2s-0.4,0.1-0.6,0.2s-0.2,0.4-0.2,0.6s0.1,0.4,0.2,0.6
					C502.7,65.4,502.9,65.5,503.1,65.5z"/>
				<path id="md2ade7922b_00000121242820716113927590000018092534239805403070_" class="st44" d="M546.2,44.5c0.2,0,0.4-0.1,0.6-0.2
					c0.2-0.2,0.2-0.4,0.2-0.6s-0.1-0.4-0.2-0.6c-0.2-0.2-0.4-0.2-0.6-0.2c-0.2,0-0.4,0.1-0.6,0.2c-0.2,0.2-0.2,0.4-0.2,0.6
					s0.1,0.4,0.2,0.6C545.7,44.4,545.9,44.5,546.2,44.5z"/>
				<path id="md2ade7922b_00000129918922064900310270000016965927835390726272_" class="st44" d="M588.5,59.2c0.2,0,0.4-0.1,0.6-0.2
					c0.2-0.2,0.2-0.4,0.2-0.6s-0.1-0.4-0.2-0.6c-0.2-0.2-0.4-0.2-0.6-0.2c-0.2,0-0.4,0.1-0.6,0.2c-0.2,0.2-0.2,0.4-0.2,0.6
					s0.1,0.4,0.2,0.6C588.1,59.1,588.3,59.2,588.5,59.2z"/>
				<path id="md2ade7922b_00000075125824556214187080000000119894762591118208_" class="st44" d="M588.5,88.7c0.2,0,0.4-0.1,0.6-0.2
					s0.2-0.4,0.2-0.6s-0.1-0.4-0.2-0.6s-0.4-0.2-0.6-0.2c-0.2,0-0.4,0.1-0.6,0.2s-0.2,0.4-0.2,0.6s0.1,0.4,0.2,0.6
					S588.3,88.7,588.5,88.7z"/>
				<path id="md2ade7922b_00000003106280602706296480000018286819723831134612_" class="st44" d="M546.2,103.4
					c0.2,0,0.4-0.1,0.6-0.2c0.2-0.2,0.2-0.4,0.2-0.6s-0.1-0.4-0.2-0.6s-0.4-0.2-0.6-0.2c-0.2,0-0.4,0.1-0.6,0.2s-0.2,0.4-0.2,0.6
					s0.1,0.4,0.2,0.6C545.7,103.4,545.9,103.4,546.2,103.4z"/>
				<path id="md2ade7922b_00000078004521926002769860000016449002588843536059_" class="st44" d="M503.8,88.7c0.2,0,0.4-0.1,0.6-0.2
					c0.2-0.2,0.2-0.4,0.2-0.6s-0.1-0.4-0.2-0.6c-0.2-0.2-0.4-0.2-0.6-0.2s-0.4,0.1-0.6,0.2c-0.2,0.2-0.2,0.4-0.2,0.6
					s0.1,0.4,0.2,0.6C503.4,88.6,503.6,88.7,503.8,88.7z"/>
				<path id="md2ade7922b_00000031166043445098880670000005136719850344775068_" class="st44" d="M503.8,59.2c0.2,0,0.4-0.1,0.6-0.2
					c0.2-0.2,0.2-0.4,0.2-0.6s-0.1-0.4-0.2-0.6c-0.2-0.2-0.4-0.2-0.6-0.2s-0.4,0.1-0.6,0.2c-0.2,0.2-0.2,0.4-0.2,0.6
					s0.1,0.4,0.2,0.6C503.4,59.1,503.6,59.2,503.8,59.2z"/>
				<path id="md2ade7922b_00000172423610713782152190000017076740867336042122_" class="st44" d="M546.2,42.2c0.2,0,0.4-0.1,0.6-0.2
					c0.2-0.2,0.2-0.4,0.2-0.6c0-0.2-0.1-0.4-0.2-0.6c-0.2-0.2-0.4-0.2-0.6-0.2c-0.2,0-0.4,0.1-0.6,0.2c-0.2,0.2-0.2,0.4-0.2,0.6
					c0,0.2,0.1,0.4,0.2,0.6C545.7,42.1,545.9,42.2,546.2,42.2z"/>
				<path id="md2ade7922b_00000128484850368345655040000018189199207910228409_" class="st44" d="M587.3,54.2c0.2,0,0.4-0.1,0.6-0.2
					c0.2-0.2,0.2-0.4,0.2-0.6c0-0.2-0.1-0.4-0.2-0.6c-0.2-0.2-0.4-0.2-0.6-0.2c-0.2,0-0.4,0.1-0.6,0.2c-0.2,0.2-0.2,0.4-0.2,0.6
					c0,0.2,0.1,0.4,0.2,0.6C586.9,54.1,587.1,54.2,587.3,54.2z"/>
				<path id="md2ade7922b_00000140712430289521864500000011479860248892736169_" class="st44" d="M597.6,81.1c0.2,0,0.4-0.1,0.6-0.2
					s0.2-0.4,0.2-0.6s-0.1-0.4-0.2-0.6c-0.2-0.2-0.4-0.2-0.6-0.2c-0.2,0-0.4,0.1-0.6,0.2c-0.2,0.2-0.2,0.4-0.2,0.6s0.1,0.4,0.2,0.6
					S597.4,81.1,597.6,81.1z"/>
				<path id="md2ade7922b_00000061460646347892887860000001038415959872810916_" class="st44" d="M569,102.6c0.2,0,0.4-0.1,0.6-0.2
					s0.2-0.4,0.2-0.6s-0.1-0.4-0.2-0.6c-0.2-0.2-0.4-0.2-0.6-0.2c-0.2,0-0.4,0.1-0.6,0.2c-0.2,0.2-0.2,0.4-0.2,0.6s0.1,0.4,0.2,0.6
					S568.8,102.6,569,102.6z"/>
				<path id="md2ade7922b_00000135687402423489657030000007531531327421196418_" class="st44" d="M523.3,102.6
					c0.2,0,0.4-0.1,0.6-0.2s0.2-0.4,0.2-0.6s-0.1-0.4-0.2-0.6s-0.4-0.2-0.6-0.2c-0.2,0-0.4,0.1-0.6,0.2c-0.2,0.2-0.2,0.4-0.2,0.6
					s0.1,0.4,0.2,0.6C522.9,102.5,523.1,102.6,523.3,102.6z"/>
				<path id="md2ade7922b_00000064329910318680271520000009006844039559314106_" class="st44" d="M494.8,81.1c0.2,0,0.4-0.1,0.6-0.2
					c0.2-0.2,0.2-0.4,0.2-0.6s-0.1-0.4-0.2-0.6s-0.4-0.2-0.6-0.2s-0.4,0.1-0.6,0.2s-0.2,0.4-0.2,0.6s0.1,0.4,0.2,0.6
					C494.3,81,494.5,81.1,494.8,81.1z"/>
				<path id="md2ade7922b_00000023257833064614195090000010536011892666775214_" class="st44" d="M505,54.2c0.2,0,0.4-0.1,0.6-0.2
					c0.2-0.2,0.2-0.4,0.2-0.6c0-0.2-0.1-0.4-0.2-0.6c-0.2-0.2-0.4-0.2-0.6-0.2s-0.4,0.1-0.6,0.2c-0.2,0.2-0.2,0.4-0.2,0.6
					c0,0.2,0.1,0.4,0.2,0.6C504.6,54.1,504.8,54.2,505,54.2z"/>
				<path id="md2ade7922b_00000038381826212140478190000002821770455215240082_" class="st44" d="M546.1,39.9c0.2,0,0.4-0.1,0.6-0.2
					c0.2-0.2,0.2-0.4,0.2-0.6s-0.1-0.4-0.2-0.6c-0.2-0.2-0.4-0.2-0.6-0.2c-0.2,0-0.4,0.1-0.6,0.2c-0.2,0.2-0.2,0.4-0.2,0.6
					s0.1,0.4,0.2,0.6C545.6,39.8,545.8,39.9,546.1,39.9z"/>
				<path id="md2ade7922b_00000080928118498848100960000012471043861879275668_" class="st44" d="M586,49.9c0.2,0,0.4-0.1,0.6-0.2
					c0.2-0.2,0.2-0.4,0.2-0.6c0-0.2-0.1-0.4-0.2-0.6c-0.2-0.2-0.4-0.2-0.6-0.2c-0.2,0-0.4,0.1-0.6,0.2c-0.2,0.2-0.2,0.4-0.2,0.6
					c0,0.2,0.1,0.4,0.2,0.6C585.6,49.8,585.8,49.9,586,49.9z"/>
				<path id="md2ade7922b_00000029003883833984679020000014041582911776027551_" class="st44" d="M602.5,73.9c0.2,0,0.4-0.1,0.6-0.2
					c0.2-0.2,0.2-0.4,0.2-0.6s-0.1-0.4-0.2-0.6c-0.2-0.2-0.4-0.2-0.6-0.2c-0.2,0-0.4,0.1-0.6,0.2c-0.2,0.2-0.2,0.4-0.2,0.6
					s0.1,0.4,0.2,0.6C602.1,73.8,602.3,73.9,602.5,73.9z"/>
				<path id="md2ade7922b_00000162346487618463300990000007011627767966381190_" class="st44" d="M586,98.1c0.2,0,0.4-0.1,0.6-0.2
					s0.2-0.4,0.2-0.6s-0.1-0.4-0.2-0.6c-0.2-0.2-0.4-0.2-0.6-0.2c-0.2,0-0.4,0.1-0.6,0.2c-0.2,0.2-0.2,0.4-0.2,0.6s0.1,0.4,0.2,0.6
					S585.8,98.1,586,98.1z"/>
				<path id="md2ade7922b_00000089554016677433308290000006963472166395032510_" class="st44" d="M546.1,108c0.2,0,0.4-0.1,0.6-0.2
					c0.2-0.2,0.2-0.4,0.2-0.6s-0.1-0.4-0.2-0.6c-0.2-0.2-0.4-0.2-0.6-0.2c-0.2,0-0.4,0.1-0.6,0.2c-0.2,0.2-0.2,0.4-0.2,0.6
					s0.1,0.4,0.2,0.6C545.6,107.9,545.8,108,546.1,108z"/>
				<path id="md2ade7922b_00000148623376721423431040000016294813210434881211_" class="st44" d="M506.2,98.1c0.2,0,0.4-0.1,0.6-0.2
					s0.2-0.4,0.2-0.6s-0.1-0.4-0.2-0.6s-0.4-0.2-0.6-0.2s-0.4,0.1-0.6,0.2s-0.2,0.4-0.2,0.6s0.1,0.4,0.2,0.6S505.9,98.1,506.2,98.1z
					"/>
				<path id="md2ade7922b_00000044142382919949308200000001325569186365367941_" class="st44" d="M489.6,73.9c0.2,0,0.4-0.1,0.6-0.2
					c0.2-0.2,0.2-0.4,0.2-0.6s-0.1-0.4-0.2-0.6c-0.2-0.2-0.4-0.2-0.6-0.2s-0.4,0.1-0.6,0.2c-0.2,0.2-0.2,0.4-0.2,0.6
					s0.1,0.4,0.2,0.6C489.2,73.8,489.4,73.9,489.6,73.9z"/>
				<path id="md2ade7922b_00000057845924790946172920000017827668784106303875_" class="st44" d="M506.2,49.9c0.2,0,0.4-0.1,0.6-0.2
					c0.2-0.2,0.2-0.4,0.2-0.6s-0.1-0.4-0.2-0.6c-0.2-0.2-0.4-0.2-0.6-0.2s-0.4,0.1-0.6,0.2c-0.2,0.2-0.2,0.4-0.2,0.6
					s0.1,0.4,0.2,0.6C505.7,49.8,506,49.9,506.2,49.9z"/>
				<path id="md2ade7922b_00000034072634408684984670000015954633603182613148_" class="st44" d="M546.1,37.5c0.2,0,0.4-0.1,0.6-0.2
					c0.2-0.2,0.2-0.4,0.2-0.6s-0.1-0.4-0.2-0.6c-0.2-0.2-0.4-0.2-0.6-0.2c-0.2,0-0.4,0.1-0.6,0.2c-0.2,0.2-0.2,0.4-0.2,0.6
					s0.1,0.4,0.2,0.6C545.6,37.4,545.8,37.5,546.1,37.5z"/>
				<path id="md2ade7922b_00000021833207502759828410000013681459777576270518_" class="st44" d="M552.7,23c0.2,0,0.4-0.1,0.6-0.2
					s0.2-0.4,0.2-0.6s-0.1-0.4-0.2-0.6s-0.4-0.2-0.6-0.2c-0.2,0-0.4,0.1-0.6,0.2s-0.2,0.4-0.2,0.6s0.1,0.4,0.2,0.6
					S552.5,23,552.7,23z"/>
			</g>
			<g>
				<text transform="matrix(1 0 0 1 478.758 24.9117)" class="st3 st14">0</text>
				<text transform="matrix(1 0 0 1 474.1765 39.8966)" class="st3 st14">-20</text>
				<text transform="matrix(1 0 0 1 474.1761 54.8816)" class="st3 st14">-40</text>
				<text transform="matrix(1 0 0 1 474.1761 69.8666)" class="st3 st14">-60</text>
				<text transform="matrix(1 0 0 1 474.1769 84.8515)" class="st3 st14">-80</text>
				<text transform="matrix(1 0 0 1 471.3108 99.8365)" class="st3 st14">-100</text>
			</g>
			<text transform="matrix(1 0 0 1 529.2673 121.9141)" class="st5 st14">Longitude</text>
			<g>
				<text transform="matrix(1 0 0 1 552.0294 116.9996)" class="st3 st14">0</text>
				<text transform="matrix(1 0 0 1 575.6907 116.9996)" class="st3 st14">20</text>
				<text transform="matrix(1 0 0 1 600.7856 116.9996)" class="st3 st14">40</text>
				<text transform="matrix(1 0 0 1 524.6444 116.999)" class="st3 st14">-20</text>
				<text transform="matrix(1 0 0 1 499.55 116.9996)" class="st3 st14">-40</text>
			</g>
		</g>
		<g>
			<g>
				<path id="mcdac515845" class="st15" d="M489.7,186.6v0.7"/>
				<path id="mcdac515845_00000018937991011990112950000011635701307095260331_" class="st15" d="M505,186.6v0.7"/>
				<path id="mcdac515845_00000023991167073506275330000001755865050913776569_" class="st15" d="M520.2,186.6v0.7"/>
				<path id="mcdac515845_00000079479492899378606340000009066571626688870032_" class="st15" d="M535.5,186.6v0.7"/>
				<path id="mcdac515845_00000067914326987860728760000008979930184809471641_" class="st15" d="M550.8,186.6v0.7"/>
				<path id="mcdac515845_00000042695450905137811060000007570567598074758274_" class="st15" d="M566,186.6v0.7"/>
				<path id="mcdac515845_00000016037368086334447900000004315752582931954837_" class="st15" d="M581.3,186.6v0.7"/>
				<path id="mcdac515845_00000076578603078778378790000010467131304294455689_" class="st15" d="M596.6,186.6v0.7"/>
				<path id="mac584381eb" class="st15" d="M484.1,178.6h-1.6"/>
				<path id="mac584381eb_00000003807851723358155410000002466159311088423358_" class="st15" d="M484.1,169.1h-1.6"/>
				<path id="mac584381eb_00000043421570826992600740000008109788576662648466_" class="st15" d="M484.1,159.5h-1.6"/>
				<path id="mac584381eb_00000107584038049308041610000005913362131298583486_" class="st15" d="M484.1,150h-1.6"/>
				<path id="mac584381eb_00000103243860244116624980000015044122090741404056_" class="st15" d="M484.1,140.4h-1.6"/>
				<path id="mac584381eb_00000009570488035314518810000016190797072511008445_" class="st15" d="M484.1,130.9h-1.6"/>
				<rect x="484.1" y="129" class="st17" width="123.6" height="57.6"/>
				<path class="st0" d="M489.7,131.6l0.2,1.1l0.4,3.4l1.5,11.9l1.2,8.2l0.9,6.2l1,6.3l0.3,0.9l0.1,0.2h0.1h0.1l0.8-0.4h0.1l0.3,0.1
					l0.3,0.2h0.2l0.7,0.1h1l0.1-0.1l0.5-0.5l0.2-0.4l0.2-0.8l0.3-1.8l0.7-4.5l2-14l0.2-0.4l0.1-0.1h0.1h0.1l0.1,0.1l0.2,0.4l0.2,0.7
					l0.5,2.6l2.1,11.2l0.2,0.5l0.5,0.9l0.2,0.8l0.5,2.3l0.9,5.2l1.1,6l0.2,0.4l0.1,0.1h0.1l0.1-0.1l0.1-0.2l0.2-0.4l0.2-1l2.1-11
					l0.5-2.5l0.2-0.5l0.2-0.2l0.2-0.2l0.1-0.2l0.2-0.5l0.3-1.3l0.5-3l2-11.5l0.2-0.3l0.1-0.1h0.1l0.1,0.1l0.1,0.2l0.2,0.4l0.2,0.9
					l2.4,10.5l0.3,0.9l0.2,0.9l0.4,2.7l0.7,5l1.1,8.8l0.2,0.6l0.1,0.2h0.1h0.1l0.3-0.1h0.2h0.4l0.4-0.1l0.3,0.1l0.3,0.1h0.5h0.1
					l0.1-0.1l0.2-0.2l0.2-0.5l0.2-0.6l0.2-1.4l0.6-4.3l1.1-8l0.5-3.6l0.2-0.7l0.2-0.4l0.2-0.4l0.2-0.6l0.3-1.2l1.2-5.7l0.9-4.3
					l0.2-0.3h0.1h0.1l0.1,0.1l0.2,0.4l0.2,0.8l1.1,4.3l1.4,5.3l0.3,2.1l0.8,6.4l1.2,8.7l0.2,0.6l0.4,1l0.5,1.5l0.5,2l0.9,3.5
					l0.1,0.1h0.1l0.1-0.1l0.1-0.2l0.2-0.5l1-3.7l1.6-6.2l0.2-1.5l0.7-5l1.3-9.6l0.2-1.1l0.2-0.6l0.2-0.6l0.2-1l1.2-5.2l0.7-3
					l0.1-0.1h0.1l0.1,0.1l0.1,0.3l0.2,0.8l0.8,2.8l1.1,3.7l0.3,1.4l0.3,2.1l1,7.8l0.7,5.6l0.3,1.3l0.4,2.1l0.6,3.5l1.1,6.7l0.1,0.2
					h0.1h0.1l0.6-0.3h0.2h0.7h0.4h0.1l0.1-0.2l0.2-0.5l0.2-1l0.9-5.4l1.2-6.7l0.4-2.2l0.9-6.2l1.2-8.1l0.3-1l0.7-2.6l1.4-5.3
					l0.1-0.1h0.1l0.1,0.1l0.1,0.3l0.3,0.9l0.7,2.2l1.1,3.3l0.2,1.2l0.7,4.7l1.5,9.9l0.5,3.1l0.8,5.9l0.7,5l0.2,0.9l0.4,1l0.4,1.1
					l1.1,3.1h0.1h0.1l0.1-0.1l0.2-0.4l2.1-6.1l0.2-1.4l0.9-6.3l1-6.9l0.6-3.8l1-6.9l0.7-4.6l0.3-1.1l1.1-3.5l0.8-2.6l0,0"/>
				<rect x="484.1" y="129" class="st17" width="123.6" height="57.6"/>
				<path class="st1" d="M489.7,131.9l0.2,1.2l1.3,9.7l0.5,3.2l0.2,1l0.2,0.5l0.4,1l0.2,0.7l0.2,1.5l1,7l1,6.8l0.5,3.2l0.2,0.9
					l0.2,0.5l0.2,0.2l0.1,0.1h0.3h0.2l0.2,0.1l0.6,0.3h0.2h0.4h0.3l0.4,0.1l0.5,0.1h0.3l0.1-0.1l0.1-0.2l0.2-0.4l0.3-1.2l0.2-1.1
					l0.5-3.9l1.2-8.4l0.8-5.2l0.2-1l0.2-0.5l0.1-0.1h0.1l0.1,0.1l0.2,0.3l0.4,1l0.2,0.8l0.5,2.8l1.3,6.9l0.3,1.3l0.2,0.6l0.3,0.5
					l0.3,0.6l0.4,1l0.2,0.8l0.3,2l0.6,3.5l1.4,6.9l0.2,0.5l0.1,0.2h0.1l0.1-0.1l0.2-0.2l0.5-1l0.2-0.6l0.3-1.5l1.1-6l0.8-4l0.2-0.7
					l0.3-0.5l0.3-0.5l0.4-1.1l0.2-0.7l0.2-1.3l1.1-6.3l1.1-6.2l0.2-0.6l0.2-0.3h0.1h0.1l0.1,0.1l0.5,0.7l0.2,0.5l0.3,1.1l1.5,6.7
					l0.3,0.8l0.2,0.4l0.3,0.5l0.3,0.7l0.4,1.3l0.2,1l0.4,2.8l0.7,5.5l1,6.5l0.2,0.8l0.2,0.3l0.1,0.1h0.1l0.2-0.1h0.2h0.1l0.2,0.1
					l0.4,0.2h0.2h0.5h0.8l0.1-0.1l0.1-0.3l0.2-0.7l0.2-1.1l0.4-3.4l0.9-6.8l0.6-4.3l0.3-1l0.2-0.6l0.7-1.5l0.2-0.7l0.3-1.6l0.6-2.9
					l0.9-4.4l0.3-1.2l0.2-0.6l0.2-0.3h0.1h0.1l0.2,0.1l0.5,0.5l0.2,0.4l0.2,0.7l1.6,5.8l0.2,0.4l0.4,0.6l0.3,0.8l0.2,0.8l0.2,1
					l0.3,2.6l0.9,6.7l0.6,4.3l0.2,1l0.2,0.5l0.3,0.5l0.3,0.5l0.2,0.6l0.3,1l0.8,3.5l0.8,2.9l0.2,0.4l0.2,0.2h0.1l0.1-0.1l0.2-0.2
					l0.4-0.4l0.2-0.4l0.2-0.8l1.6-5.8l0.2-0.5l0.5-0.8l0.3-0.9l0.2-0.8l0.2-1.2l0.5-3.7l0.8-5.9l0.5-3.5l0.2-1l0.2-0.5l0.8-1.4
					l0.2-0.8l1.7-7.6l0.3-0.7l0.2-0.4l0.1-0.1h0.1l0.1,0.1l0.4,0.3l0.2,0.2l0.2,0.4l0.3,1l1,3.4l0.3,0.7l0.2,0.3l0.4,0.4l0.3,0.6
					l0.2,0.6l0.2,0.9l0.3,2l1,7.5l0.4,2.9l0.3,1l0.2,0.6l0.6,1.3l0.2,0.7l0.3,1.6l0.8,5.3l0.8,4.4l0.3,1l0.1,0.2h0.1h0.1l0.4-0.1
					h0.2l0.3,0.1l0.3,0.1h0.2h0.5h0.3l0.1-0.1l0.1-0.2l0.2-0.6l0.2-1.1l1.5-8.7l0.3-1.3l0.2-0.6l0.6-1.4l0.2-0.7l0.2-1l0.4-2.8
					l0.7-5.4l0.6-4.1l0.2-1l0.2-0.5l0.7-1.1l0.2-0.8l1.2-4.8l0.5-1.9l0.2-0.5l0.2-0.2h0.1h0.1l0.3,0.2l0.2,0.1l0.2,0.3l0.2,0.4
					l0.5,1.5l0.7,2l0.3,0.6l0.2,0.3l0.2,0.2l0.2,0.4l0.2,0.6l0.2,0.8l0.2,1.6l1.2,8.3l0.3,1.6l0.2,0.8l0.3,0.6l0.3,0.7l0.2,0.6
					l0.2,1.1l0.5,3.6l0.8,5.4l0.3,2l0.2,0.9l0.2,0.5l0.2,0.3l0.3,0.4l0.2,0.4l0.3,0.8l0.8,2.6l0.6,1.7l0.2,0.4l0.2,0.2h0.1l0.1-0.1
					l0.3-0.2l0.2-0.2l0.2-0.4l0.3-0.9l1.2-3.2l0.3-0.4l0.2-0.2l0.1-0.2l0.2-0.5l0.2-0.5l0.2-0.8l0.3-1.8l1.1-7.8l0.3-1.8l0.2-0.9
					l0.3-0.6l0.4-0.8l0.2-0.6l0.2-1.1l0.5-3.7l0.7-5.1l0.4-2.1l0.3-1l0.2-0.5l0.3-0.4l0.2-0.4l0.2-0.6l0.3-1.2l0.7-2.6l0.8-2.5
					l0.2-0.4l0.5-0.7l0.2-0.5l0.2-0.7l0.2-1.6l0.6-4l0.2-0.8l0.1-0.3h0.5l0.2,0.1h0.1h0.2l0.2-0.1l0,0"/>
				<rect x="484.1" y="129" class="st17" width="123.6" height="57.6"/>
				<path class="st2" d="M489.7,131.8l0.2,1.3l1.3,9.6l0.4,3l0.3,1.2l0.3,0.8l0.4,1.2l0.2,0.9l0.9,5.7l1.9,12.4l0.3,0.9l0.2,0.4
					l0.2,0.2l0.2,0.1h0.2h0.3l0.3,0.1h0.3h1.4h0.3h0.6h0.1l0.1-0.1l0.2-0.4l0.6-1.7l0.3-1.7l1.4-9l1.2-7.7l0.3-1l0.2-0.5h0.1h0.1
					l0.1,0.1l0.4,0.7l0.2,0.4l0.2,0.8l1.7,8.7l0.5,2.4l0.3,0.9l0.3,0.7l0.8,1.7l0.2,0.7l0.5,2.5l1.5,7.9l0.3,1.5l0.3,0.9l0.2,0.5
					l0.1,0.1h0.1l0.1-0.1l0.4-0.5l0.2-0.3l0.1-0.5l0.3-1.6l1.3-6.7l0.7-3.4l0.3-0.8l0.3-0.7l0.7-1.6l0.2-0.6l0.3-1.8l1.5-8.2
					l0.6-3.3l0.3-0.9l0.2-0.5l0.1-0.1h0.1l0.1,0.1l0.3,0.3l0.2,0.3l0.2,0.5l0.2,0.9l2,8l0.3,0.5l0.2,0.4l0.6,1.7l0.2,0.8l0.3,1.6
					l2.1,13.9l0.3,0.9l0.2,0.3l0.1,0.1h0.2h0.3l2.3,0.1h0.1l0.1-0.1l0.1-0.3l0.2-0.8l0.2-1.2l1-7l1.1-7.5l0.3-1.1l0.3-0.8l0.7-1.8
					l0.3-1.1l2.1-9.5l0.3-0.6l0.2-0.2h0.1h0.1l0.2,0.1l0.2,0.2l0.2,0.3l0.2,0.6l1.9,6.6l0.3,0.4l0.2,0.3l0.4,1.1l0.2,0.7l0.2,1.2
					l0.8,5.9l1.1,7.5l0.3,1.1l0.2,0.6l0.8,1.7l0.4,1.4l1.6,5.8l0.3,0.5l0.2,0.1h0.1l0.1-0.1l0.2-0.2l0.2-0.2l0.2-0.3l0.2-0.7
					l1.9-6.4l0.3-0.5l0.2-0.3l0.4-1l0.2-0.7l0.2-1l0.5-3.3l1.5-10.8l0.3-0.9l0.3-0.6l0.6-1.4l0.3-1.2l1.9-7.5l0.2-0.5l0.1-0.1h0.1
					l0.2,0.1l0.3,0.2l0.1,0.2l0.2,0.4l0.3,0.7l1.6,4.8l0.3,0.3l0.2,0.3l0.4,0.9l0.2,0.6l0.2,1.2l0.9,6.5l0.8,5.5l0.3,1.1l0.3,0.7
					l0.6,1.5l0.2,1.2l1.8,10.3l0.3,1.1l0.1,0.1h0.1h1.1h0.9h0.2l0.1-0.1l0.1-0.2l0.2-0.4l0.2-0.9l0.5-3l1.3-7.2l0.3-0.8l0.8-2
					l0.2-0.8l0.3-1.7l1.6-11.1l0.3-1.1l0.2-0.6l0.6-1.3l0.3-1l1.7-6.2l0.3-0.5l0.2-0.2h0.1h0.2l0.2,0.1l0.1,0.1l0.2,0.3l0.3,0.7
					l1.4,3.7l0.2,0.3l0.3,0.5l0.4,0.8l0.2,0.6l0.3,1.6l1.5,10l0.3,1l0.8,2.3l0.2,1.4l1.5,10.2l0.3,1.1l0.2,0.6l0.3,0.4l0.3,0.6
					l0.3,0.8l1.4,4.1l0.2,0.4l0.2,0.2h0.1h0.1l0.3-0.1l0.1-0.1l0.2-0.3l0.3-0.7l1.5-3.9l0.3-0.4l0.2-0.3l0.3-0.7l0.2-0.5l0.2-1
					l0.8-5.3l0.8-5.5l0.3-1.1l0.3-0.8l0.5-1.3l0.2-0.9l0.6-4.2l1.1-6.9l0.3-1.1l0.2-0.6l0.5-1l0.3-0.9l1.6-5.4l0.3-0.5l0.4-0.6
					l0.3-0.7l0.2-0.8l0.3-2.3l0.4-2.7l0.3-1.2l0.1-0.3l0,0"/>
				<path class="st16" d="M484.1,186.6V129"/>
				<path class="st16" d="M607.7,186.6V129"/>
				<path class="st16" d="M484.1,186.6h123.6"/>
				<path class="st16" d="M484.1,129h123.6"/>
			</g>
			<text transform="matrix(1 0 0 1 532.2109 201.2111)" class="st5 st13">Time (m/s)</text>
			<g>
				<text transform="matrix(1 0 0 1 488.3255 192.5151)" class="st3 st42">0</text>
				<text transform="matrix(1 0 0 1 501.504 192.5148)" class="st3 st42">0.5</text>
				<text transform="matrix(1 0 0 1 518.8524 192.5148)" class="st3 st42">1</text>
				<text transform="matrix(1 0 0 1 532.0312 192.5149)" class="st3 st42">1.5</text>
				<text transform="matrix(1 0 0 1 549.3797 192.8148)" class="st3 st42">2</text>
				<text transform="matrix(1 0 0 1 562.558 192.8148)" class="st3 st42">2.5</text>
				<text transform="matrix(1 0 0 1 579.9065 192.5748)" class="st3 st42">3</text>
				<text transform="matrix(1 0 0 1 593.085 192.515)" class="st3 st42">3.5</text>
			</g>
			<g>
				<text transform="matrix(1 0 0 1 478.9571 132.8651)" class="st3 st42">0</text>
				<text transform="matrix(1 0 0 1 474.5109 142.4038)" class="st3 st42">-20</text>
				<text transform="matrix(1 0 0 1 474.5106 151.9419)" class="st3 st42">-40</text>
				<text transform="matrix(1 0 0 1 474.5106 161.4803)" class="st3 st42">-60</text>
				<text transform="matrix(1 0 0 1 474.5106 171.0188)" class="st3 st42">-80</text>
				<text transform="matrix(1 0 0 1 471.7302 180.5568)" class="st3 st42">-100</text>
			</g>
			<text transform="matrix(1 0 0 1 593.2234 197.388)" class="st5 st43">1e8</text>
		</g>
		<text transform="matrix(5.991317e-07 -1 1 5.991317e-07 472.9472 70.1176)" class="st5 st14">Latitude</text>
		<text transform="matrix(5.991317e-07 -1 1 5.991317e-07 472.9473 165.4165)" class="st5 st14">Latitude</text>
	</g>
	<path class="st12" d="M601.8,209H474.9c-5.5,0-9.9-4.4-9.9-9.9V21.7c0-5.5,4.4-9.9,9.9-9.9h126.9c5.5,0,9.9,4.4,9.9,9.9v177.5
		C611.7,204.6,607.2,209,601.8,209z"/>
</g>
<g>
	<line class="st17" x1="408.8" y1="109.6" x2="462.8" y2="109.6"/>
	<g>
		<line class="st45" x1="408.8" y1="109.6" x2="458.1" y2="109.6"/>
		<g>
			<polygon class="st46" points="455.8,112.6 457.1,109.6 455.8,106.6 462.8,109.6 			"/>
		</g>
	</g>
</g>
<text transform="matrix(1 0 0 1 408.3085 107.8014)" class="st5 st13">Filter &lt; 2 meters</text>
<g>
	<line class="st17" x1="203.8" y1="109.6" x2="257.8" y2="109.6"/>
	<g>
		<line class="st45" x1="203.8" y1="109.6" x2="253.1" y2="109.6"/>
		<g>
			<polygon class="st46" points="250.8,112.6 252.1,109.6 250.8,106.6 257.8,109.6 			"/>
		</g>
	</g>
</g>
<text transform="matrix(1 0 0 1 43.4562 15.5446)" class="st5 st47">A</text>
<text transform="matrix(1 0 0 1 250.4961 15.5448)" class="st5 st47">B</text>
<text transform="matrix(1 0 0 1 455.04 15.5448)" class="st5 st47">C</text>
</svg>
