<?xml version="1.0" encoding="utf-8"?>
<!-- Generator: Adobe Illustrator 27.4.1, SVG Export Plug-In . SVG Version: 6.00 Build 0)  -->
<svg version="1.1" id="Layer_1" xmlns="http://www.w3.org/2000/svg" xmlns:xlink="http://www.w3.org/1999/xlink" x="0px" y="0px"
	 viewBox="0 0 576 432" style="enable-background:new 0 0 576 432;" xml:space="preserve">
<style type="text/css">
	.st0{stroke:#000000;stroke-width:0.8;stroke-linejoin:round;}
	.st1{fill:none;}
	.st2{fill:none;stroke:#999999;stroke-width:3;stroke-linecap:square;stroke-linejoin:round;stroke-opacity:0.6;}
	.st3{fill:none;stroke:#2C7BB6;stroke-width:3;stroke-linecap:square;stroke-linejoin:round;stroke-opacity:0.6;}
	.st4{fill:none;stroke:#D7191C;stroke-width:3;stroke-linecap:square;stroke-linejoin:round;stroke-opacity:0.6;}
	.st5{fill:none;stroke:#000000;stroke-width:0.8;stroke-linecap:square;}
	.st6{fill:#C6DBEF;stroke:#252525;stroke-width:0.48;stroke-linejoin:round;}
</style>
<path id="m4400bef052" class="st0" d="M141.5,384.5v3.5"/>
<path id="DejaVuSans-2212" d="M132,395.5h6.3v0.8H132V395.5z"/>
<path id="DejaVuSans-34" d="M143.1,392.6l-2.5,3.9h2.5V392.6z M142.8,391.8h1.2v4.8h1v0.8h-1v1.7h-1v-1.7h-3.3v-1L142.8,391.8z"/>
<path id="DejaVuSans-30" d="M148.8,392.4c-0.5,0-0.9,0.2-1.1,0.8c-0.3,0.5-0.4,1.2-0.4,2.3c0,1,0.1,1.7,0.4,2.2
	c0.3,0.5,0.6,0.8,1.1,0.8c0.5,0,0.9-0.2,1.1-0.8c0.3-0.5,0.4-1.2,0.4-2.2c0-1-0.1-1.8-0.4-2.3C149.7,392.7,149.4,392.4,148.8,392.4z
	 M148.8,391.7c0.8,0,1.4,0.3,1.9,1c0.4,0.6,0.6,1.6,0.6,2.8c0,1.2-0.2,2.2-0.6,2.8c-0.4,0.6-1.1,1-1.9,1c-0.8,0-1.4-0.3-1.9-1
	c-0.4-0.6-0.6-1.6-0.6-2.8c0-1.2,0.2-2.2,0.6-2.8C147.4,392,148,391.7,148.8,391.7z"/>
<path id="m4400bef052_00000181775325382311645360000009307463658346976666_" class="st0" d="M231.7,384.5v3.5"/>
<path id="DejaVuSans-2212_00000072263024243552191480000009602842527904872585_" d="M222.2,395.5h6.3v0.8h-6.3V395.5z"/>
<path id="DejaVuSans-32" d="M231.4,398.2h3.4v0.8h-4.6v-0.8c0.4-0.4,0.9-0.9,1.5-1.6c0.6-0.7,1.1-1.1,1.2-1.3
	c0.3-0.4,0.5-0.7,0.7-0.9c0.1-0.2,0.2-0.5,0.2-0.7c0-0.4-0.1-0.7-0.4-0.9c-0.3-0.2-0.6-0.4-1.1-0.4c-0.3,0-0.6,0.1-1,0.2
	c-0.3,0.1-0.7,0.3-1.1,0.5v-1c0.4-0.2,0.8-0.3,1.1-0.4c0.3-0.1,0.7-0.1,0.9-0.1c0.8,0,1.4,0.2,1.8,0.6c0.4,0.4,0.7,0.9,0.7,1.5
	c0,0.3-0.1,0.6-0.2,0.9c-0.1,0.3-0.3,0.6-0.6,0.9c-0.1,0.1-0.3,0.4-0.8,0.8C232.8,396.8,232.2,397.4,231.4,398.2z"/>
<path id="DejaVuSans-30_00000020356988411420095880000012770365918476689058_" d="M239,392.4c-0.5,0-0.9,0.2-1.1,0.8
	c-0.3,0.5-0.4,1.2-0.4,2.3c0,1,0.1,1.7,0.4,2.2c0.3,0.5,0.6,0.8,1.1,0.8c0.5,0,0.9-0.2,1.1-0.8c0.3-0.5,0.4-1.2,0.4-2.2
	c0-1-0.1-1.8-0.4-2.3C239.9,392.7,239.5,392.4,239,392.4z M239,391.7c0.8,0,1.4,0.3,1.9,1c0.4,0.6,0.6,1.6,0.6,2.8
	c0,1.2-0.2,2.2-0.6,2.8c-0.4,0.6-1.1,1-1.9,1c-0.8,0-1.4-0.3-1.9-1c-0.4-0.6-0.6-1.6-0.6-2.8c0-1.2,0.2-2.2,0.6-2.8
	C237.6,392,238.2,391.7,239,391.7z"/>
<path id="m4400bef052_00000023959910909396819750000005892701799776905624_" class="st0" d="M321.8,384.5v3.5"/>
<path id="DejaVuSans-30_00000046310174402066398010000015957024023500599455_" d="M321.8,392.4c-0.5,0-0.9,0.2-1.1,0.8
	c-0.3,0.5-0.4,1.2-0.4,2.3c0,1,0.1,1.7,0.4,2.2c0.3,0.5,0.6,0.8,1.1,0.8c0.5,0,0.9-0.2,1.1-0.8c0.3-0.5,0.4-1.2,0.4-2.2
	c0-1-0.1-1.8-0.4-2.3C322.7,392.7,322.3,392.4,321.8,392.4z M321.8,391.7c0.8,0,1.4,0.3,1.9,1c0.4,0.6,0.6,1.6,0.6,2.8
	c0,1.2-0.2,2.2-0.6,2.8c-0.4,0.6-1.1,1-1.9,1c-0.8,0-1.4-0.3-1.9-1c-0.4-0.6-0.6-1.6-0.6-2.8c0-1.2,0.2-2.2,0.6-2.8
	C320.4,392,321,391.7,321.8,391.7z"/>
<path id="m4400bef052_00000039111231163144232740000013911940929409366676_" class="st0" d="M412,384.5v3.5"/>
<path id="DejaVuSans-32_00000067228800585597822100000014528799082630467203_" d="M407.6,398.2h3.4v0.8h-4.6v-0.8
	c0.4-0.4,0.9-0.9,1.5-1.6c0.6-0.7,1.1-1.1,1.2-1.3c0.3-0.4,0.5-0.7,0.7-0.9c0.1-0.2,0.2-0.5,0.2-0.7c0-0.4-0.1-0.7-0.4-0.9
	c-0.3-0.2-0.6-0.4-1.1-0.4c-0.3,0-0.6,0.1-1,0.2c-0.3,0.1-0.7,0.3-1.1,0.5v-1c0.4-0.2,0.8-0.3,1.1-0.4c0.3-0.1,0.7-0.1,0.9-0.1
	c0.8,0,1.4,0.2,1.8,0.6c0.4,0.4,0.7,0.9,0.7,1.5c0,0.3-0.1,0.6-0.2,0.9c-0.1,0.3-0.3,0.6-0.6,0.9c-0.1,0.1-0.3,0.4-0.8,0.8
	C409,396.8,408.4,397.4,407.6,398.2z"/>
<path id="DejaVuSans-30_00000062876052801015615030000009076354129789509009_" d="M415.2,392.4c-0.5,0-0.9,0.2-1.1,0.8
	c-0.3,0.5-0.4,1.2-0.4,2.3c0,1,0.1,1.7,0.4,2.2c0.3,0.5,0.6,0.8,1.1,0.8c0.5,0,0.9-0.2,1.1-0.8c0.3-0.5,0.4-1.2,0.4-2.2
	c0-1-0.1-1.8-0.4-2.3C416.1,392.7,415.7,392.4,415.2,392.4z M415.2,391.7c0.8,0,1.4,0.3,1.9,1c0.4,0.6,0.6,1.6,0.6,2.8
	c0,1.2-0.2,2.2-0.6,2.8c-0.4,0.6-1.1,1-1.9,1c-0.8,0-1.4-0.3-1.9-1c-0.4-0.6-0.6-1.6-0.6-2.8c0-1.2,0.2-2.2,0.6-2.8
	C413.7,392,414.4,391.7,415.2,391.7z"/>
<path id="m4400bef052_00000001664222301771658220000014977994408175651470_" class="st0" d="M502.2,384.5v3.5"/>
<path id="DejaVuSans-34_00000085237870326719203670000011850825661993514646_" d="M499.6,392.6l-2.5,3.9h2.5V392.6z M499.3,391.8
	h1.2v4.8h1v0.8h-1v1.7h-1v-1.7h-3.3v-1L499.3,391.8z"/>
<path id="DejaVuSans-30_00000134219834791573030030000011801524893992902576_" d="M505.4,392.4c-0.5,0-0.9,0.2-1.1,0.8
	c-0.3,0.5-0.4,1.2-0.4,2.3c0,1,0.1,1.7,0.4,2.2c0.3,0.5,0.6,0.8,1.1,0.8c0.5,0,0.9-0.2,1.1-0.8c0.3-0.5,0.4-1.2,0.4-2.2
	c0-1-0.1-1.8-0.4-2.3C506.3,392.7,505.9,392.4,505.4,392.4z M505.4,391.7c0.8,0,1.4,0.3,1.9,1c0.4,0.6,0.6,1.6,0.6,2.8
	c0,1.2-0.2,2.2-0.6,2.8c-0.4,0.6-1.1,1-1.9,1c-0.8,0-1.4-0.3-1.9-1c-0.4-0.6-0.6-1.6-0.6-2.8c0-1.2,0.2-2.2,0.6-2.8
	C503.9,392,504.5,391.7,505.4,391.7z"/>
<path id="DejaVuSans-6c" d="M288.5,405.2h0.9v7.6h-0.9V405.2z"/>
<path id="DejaVuSans-6f" d="M293.4,407.9c-0.5,0-0.9,0.2-1.1,0.6c-0.3,0.4-0.4,0.9-0.4,1.5c0,0.7,0.1,1.2,0.4,1.5
	c0.3,0.4,0.7,0.6,1.1,0.6c0.5,0,0.9-0.2,1.1-0.6c0.3-0.4,0.4-0.9,0.4-1.5c0-0.6-0.1-1.2-0.4-1.5
	C294.3,408.1,293.9,407.9,293.4,407.9z M293.4,407.2c0.8,0,1.4,0.3,1.8,0.8c0.4,0.5,0.7,1.2,0.7,2.1c0,0.9-0.2,1.6-0.7,2.1
	c-0.4,0.5-1.1,0.8-1.8,0.8c-0.8,0-1.4-0.3-1.8-0.8c-0.4-0.5-0.7-1.2-0.7-2.1c0-0.9,0.2-1.6,0.7-2.1
	C292,407.4,292.6,407.2,293.4,407.2z"/>
<path id="DejaVuSans-6e" d="M302,409.5v3.3h-0.9v-3.3c0-0.5-0.1-0.9-0.3-1.2c-0.2-0.3-0.5-0.4-0.9-0.4c-0.5,0-0.9,0.2-1.1,0.5
	c-0.3,0.3-0.4,0.7-0.4,1.3v3.1h-0.9v-5.5h0.9v0.9c0.2-0.3,0.5-0.6,0.8-0.7c0.3-0.2,0.6-0.2,1-0.2c0.6,0,1.1,0.2,1.4,0.6
	C301.8,408.1,302,408.7,302,409.5z"/>
<path id="mcec58cd6f6" class="st0" d="M72,338h-3.5"/>
<path id="DejaVuSans-2212_00000027575583564431555770000013108665321691848639_" d="M38.6,338.3h6.3v0.8h-6.3V338.3z"/>
<path id="DejaVuSans-31" d="M47.2,341h1.6v-5.6l-1.8,0.4v-0.9l1.7-0.4h1v6.5h1.6v0.8h-4.2V341z"/>
<path id="DejaVuSans-30_00000019653984498414350010000011579698380661835955_" d="M55.5,335.2c-0.5,0-0.9,0.2-1.1,0.8
	c-0.3,0.5-0.4,1.2-0.4,2.3c0,1,0.1,1.7,0.4,2.2c0.3,0.5,0.6,0.8,1.1,0.8c0.5,0,0.9-0.2,1.2-0.8c0.3-0.5,0.4-1.2,0.4-2.2
	c0-1-0.1-1.8-0.4-2.3C56.3,335.4,56,335.2,55.5,335.2z M55.5,334.4c0.8,0,1.4,0.3,1.9,1c0.4,0.6,0.6,1.6,0.6,2.8
	c0,1.2-0.2,2.2-0.6,2.8c-0.4,0.6-1.1,1-1.9,1c-0.8,0-1.4-0.3-1.9-1c-0.4-0.6-0.6-1.6-0.6-2.8c0-1.2,0.2-2.2,0.6-2.8
	C54,334.7,54.6,334.4,55.5,334.4z"/>
<path id="DejaVuSans-30_00000076571703558868578890000014766802384652110980_" d="M61.8,335.2c-0.5,0-0.9,0.2-1.1,0.8
	c-0.3,0.5-0.4,1.2-0.4,2.3c0,1,0.1,1.7,0.4,2.2c0.3,0.5,0.6,0.8,1.1,0.8c0.5,0,0.9-0.2,1.2-0.8c0.3-0.5,0.4-1.2,0.4-2.2
	c0-1-0.1-1.8-0.4-2.3C62.7,335.4,62.3,335.2,61.8,335.2z M61.8,334.4c0.8,0,1.4,0.3,1.9,1c0.4,0.6,0.6,1.6,0.6,2.8
	c0,1.2-0.2,2.2-0.6,2.8c-0.4,0.6-1.1,1-1.9,1c-0.8,0-1.4-0.3-1.9-1c-0.4-0.6-0.6-1.6-0.6-2.8c0-1.2,0.2-2.2,0.6-2.8
	C60.4,334.7,61,334.4,61.8,334.4z"/>
<path id="mcec58cd6f6_00000032615788169189330140000006897328052793506187_" class="st0" d="M72,284.2h-3.5"/>
<path id="DejaVuSans-2212_00000106117906484235596360000002036978533922405033_" d="M45,284.5h6.3v0.8H45V284.5z"/>
<path id="DejaVuSans-38" d="M55.5,284.6c-0.5,0-0.8,0.1-1.1,0.4c-0.3,0.3-0.4,0.6-0.4,1c0,0.4,0.1,0.8,0.4,1
	c0.3,0.3,0.6,0.4,1.1,0.4s0.8-0.1,1.1-0.4c0.3-0.3,0.4-0.6,0.4-1c0-0.4-0.1-0.8-0.4-1C56.3,284.7,55.9,284.6,55.5,284.6z
	 M54.5,284.1c-0.4-0.1-0.8-0.3-1-0.6c-0.2-0.3-0.4-0.6-0.4-1.1c0-0.6,0.2-1,0.6-1.4c0.4-0.3,1-0.5,1.7-0.5c0.7,0,1.3,0.2,1.7,0.5
	c0.4,0.3,0.6,0.8,0.6,1.4c0,0.4-0.1,0.8-0.4,1.1c-0.2,0.3-0.6,0.5-1,0.6c0.5,0.1,0.8,0.3,1.1,0.6c0.3,0.3,0.4,0.7,0.4,1.2
	c0,0.7-0.2,1.2-0.6,1.6c-0.4,0.4-1,0.6-1.9,0.6c-0.8,0-1.4-0.2-1.9-0.6c-0.4-0.4-0.6-0.9-0.6-1.6c0-0.5,0.1-0.9,0.4-1.2
	C53.6,284.5,54,284.2,54.5,284.1z M54.1,282.6c0,0.4,0.1,0.7,0.4,0.9c0.2,0.2,0.6,0.3,1,0.3c0.4,0,0.8-0.1,1-0.3
	c0.2-0.2,0.4-0.5,0.4-0.9c0-0.4-0.1-0.7-0.4-0.9c-0.2-0.2-0.6-0.3-1-0.3c-0.4,0-0.8,0.1-1,0.3C54.2,281.9,54.1,282.2,54.1,282.6z"/>
<path id="DejaVuSans-30_00000042009818604686505900000008245685681902987137_" d="M61.8,281.4c-0.5,0-0.9,0.2-1.1,0.8
	c-0.3,0.5-0.4,1.2-0.4,2.3c0,1,0.1,1.7,0.4,2.2c0.3,0.5,0.6,0.8,1.1,0.8c0.5,0,0.9-0.2,1.2-0.8c0.3-0.5,0.4-1.2,0.4-2.2
	c0-1-0.1-1.8-0.4-2.3C62.7,281.6,62.3,281.4,61.8,281.4z M61.8,280.6c0.8,0,1.4,0.3,1.9,1c0.4,0.6,0.6,1.6,0.6,2.8
	c0,1.2-0.2,2.2-0.6,2.8c-0.4,0.6-1.1,1-1.9,1c-0.8,0-1.4-0.3-1.9-1c-0.4-0.6-0.6-1.6-0.6-2.8c0-1.2,0.2-2.2,0.6-2.8
	C60.4,280.9,61,280.6,61.8,280.6z"/>
<path id="mcec58cd6f6_00000098910835097244479860000011687668898777167262_" class="st0" d="M72,230.4h-3.5"/>
<path id="DejaVuSans-2212_00000152943485968805405560000009398251211939715471_" d="M45,230.6h6.3v0.8H45V230.6z"/>
<path id="DejaVuSans-36" d="M55.6,230.2c-0.4,0-0.8,0.2-1.1,0.5c-0.3,0.3-0.4,0.7-0.4,1.2c0,0.5,0.1,0.9,0.4,1.2
	c0.3,0.3,0.6,0.5,1.1,0.5c0.4,0,0.8-0.2,1.1-0.5c0.3-0.3,0.4-0.7,0.4-1.2c0-0.5-0.1-0.9-0.4-1.2C56.4,230.3,56,230.2,55.6,230.2z
	 M57.5,227.1v0.9c-0.2-0.1-0.5-0.2-0.8-0.3c-0.3-0.1-0.5-0.1-0.8-0.1c-0.7,0-1.1,0.2-1.5,0.7c-0.3,0.4-0.5,1.1-0.6,2
	c0.2-0.3,0.4-0.5,0.7-0.7c0.3-0.2,0.6-0.2,1-0.2c0.7,0,1.3,0.2,1.7,0.7c0.4,0.4,0.6,1,0.6,1.8c0,0.7-0.2,1.4-0.7,1.8
	c-0.4,0.5-1,0.7-1.8,0.7c-0.8,0-1.5-0.3-1.9-1c-0.4-0.6-0.7-1.6-0.7-2.8c0-1.2,0.3-2.1,0.8-2.8c0.5-0.7,1.3-1,2.2-1
	c0.2,0,0.5,0,0.8,0.1C57,226.9,57.3,227,57.5,227.1z"/>
<path id="DejaVuSans-30_00000107580798382810976180000003430021254072270223_" d="M61.8,227.6c-0.5,0-0.9,0.2-1.1,0.8
	c-0.3,0.5-0.4,1.2-0.4,2.3c0,1,0.1,1.7,0.4,2.2c0.3,0.5,0.6,0.8,1.1,0.8c0.5,0,0.9-0.2,1.2-0.8c0.3-0.5,0.4-1.2,0.4-2.2
	c0-1-0.1-1.8-0.4-2.3C62.7,227.8,62.3,227.6,61.8,227.6z M61.8,226.8c0.8,0,1.4,0.3,1.9,1c0.4,0.6,0.6,1.6,0.6,2.8
	c0,1.2-0.2,2.2-0.6,2.8c-0.4,0.6-1.1,1-1.9,1c-0.8,0-1.4-0.3-1.9-1c-0.4-0.6-0.6-1.6-0.6-2.8c0-1.2,0.2-2.2,0.6-2.8
	C60.4,227.1,61,226.8,61.8,226.8z"/>
<path id="mcec58cd6f6_00000068674485896634431320000000023039935923537047_" class="st0" d="M72,176.6h-3.5"/>
<path id="DejaVuSans-2212_00000096772968758805553290000017982896350851536810_" d="M45,176.8h6.3v0.8H45V176.8z"/>
<path id="DejaVuSans-34_00000143585028966509131470000009547226914381176716_" d="M56.1,173.9l-2.5,3.9h2.5V173.9z M55.8,173.1H57
	v4.8h1v0.8h-1v1.7h-1v-1.7h-3.3v-1L55.8,173.1z"/>
<path id="DejaVuSans-30_00000093170670022968266600000008504598607039285435_" d="M61.8,173.7c-0.5,0-0.9,0.2-1.1,0.8
	c-0.3,0.5-0.4,1.2-0.4,2.3c0,1,0.1,1.7,0.4,2.2c0.3,0.5,0.6,0.8,1.1,0.8c0.5,0,0.9-0.2,1.2-0.8c0.3-0.5,0.4-1.2,0.4-2.2
	c0-1-0.1-1.8-0.4-2.3C62.7,174,62.3,173.7,61.8,173.7z M61.8,173c0.8,0,1.4,0.3,1.9,1c0.4,0.6,0.6,1.6,0.6,2.8
	c0,1.2-0.2,2.2-0.6,2.8c-0.4,0.6-1.1,1-1.9,1c-0.8,0-1.4-0.3-1.9-1c-0.4-0.6-0.6-1.6-0.6-2.8c0-1.2,0.2-2.2,0.6-2.8
	C60.4,173.3,61,173,61.8,173z"/>
<path id="mcec58cd6f6_00000142855492686698117340000011620336082635189928_" class="st0" d="M72,122.8h-3.5"/>
<path id="DejaVuSans-2212_00000039817145589960918470000009789577872204050573_" d="M45,123h6.3v0.8H45V123z"/>
<path id="DejaVuSans-32_00000035517147046966265560000012123150813808082611_" d="M54.2,125.7h3.4v0.8H53v-0.8
	c0.4-0.4,0.9-0.9,1.5-1.6c0.6-0.7,1.1-1.1,1.2-1.3c0.3-0.4,0.5-0.7,0.7-0.9c0.1-0.2,0.2-0.5,0.2-0.7c0-0.4-0.1-0.7-0.4-0.9
	c-0.3-0.2-0.6-0.4-1.1-0.4c-0.3,0-0.6,0.1-1,0.2c-0.3,0.1-0.7,0.3-1.1,0.5v-1c0.4-0.2,0.8-0.3,1.1-0.4c0.3-0.1,0.7-0.1,0.9-0.1
	c0.8,0,1.4,0.2,1.8,0.6c0.4,0.4,0.7,0.9,0.7,1.5c0,0.3-0.1,0.6-0.2,0.9c-0.1,0.3-0.3,0.6-0.6,0.9c-0.1,0.1-0.3,0.4-0.8,0.8
	C55.6,124.3,55,124.9,54.2,125.7z"/>
<path id="DejaVuSans-30_00000062187590083546632420000015040239567189569958_" d="M61.8,119.9c-0.5,0-0.9,0.2-1.1,0.8
	c-0.3,0.5-0.4,1.2-0.4,2.3c0,1,0.1,1.7,0.4,2.2c0.3,0.5,0.6,0.8,1.1,0.8c0.5,0,0.9-0.2,1.2-0.8c0.3-0.5,0.4-1.2,0.4-2.2
	c0-1-0.1-1.8-0.4-2.3C62.7,120.2,62.3,119.9,61.8,119.9z M61.8,119.1c0.8,0,1.4,0.3,1.9,1c0.4,0.6,0.6,1.6,0.6,2.8
	c0,1.2-0.2,2.2-0.6,2.8c-0.4,0.6-1.1,1-1.9,1c-0.8,0-1.4-0.3-1.9-1c-0.4-0.6-0.6-1.6-0.6-2.8c0-1.2,0.2-2.2,0.6-2.8
	C60.4,119.5,61,119.1,61.8,119.1z"/>
<path id="mcec58cd6f6_00000039122639645102805120000006717195414693005962_" class="st0" d="M72,68.9h-3.5"/>
<path id="DejaVuSans-30_00000171717490222292009300000016835343949427678864_" d="M61.8,66.1c-0.5,0-0.9,0.2-1.1,0.8
	c-0.3,0.5-0.4,1.2-0.4,2.3c0,1,0.1,1.7,0.4,2.2c0.3,0.5,0.6,0.8,1.1,0.8c0.5,0,0.9-0.2,1.2-0.8c0.3-0.5,0.4-1.2,0.4-2.2
	c0-1-0.1-1.8-0.4-2.3C62.7,66.3,62.3,66.1,61.8,66.1z M61.8,65.3c0.8,0,1.4,0.3,1.9,1c0.4,0.6,0.6,1.6,0.6,2.8
	c0,1.2-0.2,2.2-0.6,2.8c-0.4,0.6-1.1,1-1.9,1c-0.8,0-1.4-0.3-1.9-1c-0.4-0.6-0.6-1.6-0.6-2.8c0-1.2,0.2-2.2,0.6-2.8
	C60.4,65.6,61,65.3,61.8,65.3z"/>
<path id="DejaVuSans-6c_00000118399420355355432290000013168933982649610392_" d="M23.9,223.6v-0.9h7.6v0.9H23.9z"/>
<path id="DejaVuSans-61" d="M28.7,218.4c0,0.7,0.1,1.2,0.2,1.5s0.4,0.4,0.9,0.4c0.3,0,0.6-0.1,0.8-0.3c0.2-0.2,0.3-0.5,0.3-0.9
	c0-0.5-0.2-0.9-0.5-1.2s-0.8-0.5-1.4-0.5h-0.2V218.4z M28.3,216.6h3.1v0.9h-0.8c0.3,0.2,0.6,0.5,0.7,0.8s0.2,0.7,0.2,1.1
	c0,0.6-0.2,1-0.5,1.3c-0.3,0.3-0.7,0.5-1.3,0.5c-0.6,0-1.1-0.2-1.4-0.6c-0.3-0.4-0.5-1-0.5-1.8v-1.3h-0.1c-0.4,0-0.7,0.1-1,0.4
	s-0.3,0.7-0.3,1.1c0,0.3,0,0.6,0.1,0.9c0.1,0.3,0.2,0.6,0.3,0.9h-0.8c-0.1-0.3-0.2-0.6-0.3-1c-0.1-0.3-0.1-0.6-0.1-0.9
	c0-0.8,0.2-1.4,0.6-1.8C26.9,216.8,27.5,216.6,28.3,216.6z"/>
<path id="DejaVuSans-74" d="M24.4,213.8H26V212h0.7v1.8h3c0.4,0,0.7-0.1,0.9-0.2c0.1-0.1,0.2-0.4,0.2-0.7V212h0.8v0.9
	c0,0.7-0.1,1.2-0.4,1.4c-0.3,0.3-0.7,0.4-1.4,0.4h-3v0.7H26v-0.7h-1.6V213.8z"/>
<rect x="72" y="51.8" class="st1" width="446.4" height="332.6"/>
<path class="st2" d="M318.7,67L296,167.7l117.1,120.9l-234.2,0l116.7-129l148.8,88.9l-148.8,88.9l-148.8-88.9l148.4-96.9l154.3,66.7
	l-59.2,108.3l-190.7,0l-58.8-108.3l154.7-74.8l152.2,52.4l0,105l-152.2,52.4l-152.2-52.4l0-105l152.2-60.4l148,42.8l36.8,95.5
	l-102.7,76.6l-164,0l-102.7-76.6l36.8-95.5l147.5-50.9l143.7,35.3l59.2,85.6l-59.2,85.9l-143.7,35.3l-143.3-35.3l-59.6-85.9
	l59.6-85.6l143.3-44l23.9-51.6"/>
<rect x="72" y="51.8" class="st1" width="446.4" height="332.6"/>
<path class="st3" d="M321.8,69L321.8,69L321.8,69L321.8,69l-0.2-0.2l0,0.1L321.8,69l0.2,0.1l0,0L321.8,69l-0.1-0.1l0.3,0.1l-0.1,0.1
	l-0.2,0l-0.1-0.1l0,0L321.8,69l0.2,0l-0.3,0l0.1-0.1l0.1,0L321.8,69l-0.2,0l-0.1-0.1L321.8,69l0.1,0.1L321.8,69l0,0.1l-0.2,0.5
	l-0.4,1.7l-1.2,7.1l-1.1,6l-1.2,5.2l-1.4,5l-1.6,5l-2.1,5.7l-4.8,12.6l-1.2,4l-1.3,5.2l-1.4,7l-3.2,15.6l-1.7,7l-2,7l-1,3.1l0.5,0.4
	l1.5,1.2l2,2l3.8,4.1l6.4,6.8l15.2,15.9l40.3,41.7l33.3,34.7l9.7,10.1l1.6,2l1.9,2.5l-0.1,0l-0.5,0.1l-1.9,0l-8.1-0.1l-21.1-0.3
	l-11.3,0l-22.8,0.4l-25.3,0.4l-15.1,0l-22.1-0.2l-29-0.2l-23.1,0l-45.5,0.1l-6.9,0l-0.5,0.1l0.2-0.1l1.2-1l2.2-2.1l3.8-4l10.7-11.8
	l5.8-6.9l10.8-12.8l6.5-7.3l7.4-8l21.2-22.9l16.3-18.1l11.7-12.9l15.4-16.9l3-3.5l0.8-0.6l0.6,0.3l21.1,13.4l8.3,4.9l28.3,16.4
	l20.5,12.3l19.6,11.7l34.6,20.7l11.3,6.8l3.3,1.8l0.7,0.5l-0.3,0.3l-1.5,0.9l-22.8,12.8l-11.1,6.8l-14.2,9l-13.6,8.5l-10.5,6.3
	L345.7,307l-15.6,9.2l-23.4,14.2l-10.9,6.6l-0.3,0l-0.6-0.3l-2-1.2l-8.4-5.5l-8.9-5.6l-8.9-5.3l-10.9-6.3l-29.1-16.6l-9.7-5.9
	l-33.9-20.8l-34.8-20.5l-1.4-0.9l0,0l0.3-0.3l2.3-1.4l16.8-10.4l10.2-6.7l16.3-11l13.5-9.1l11.5-7.5l42-27l22.2-14.8l9.2-6.1l4-2.3
	l0.5,0.2l3.4,1.7l7.6,3.4l14.1,6.2l20.1,8.5l26.1,11l18.5,8.1l30.2,13.2l17.1,7.3l11.9,5.1l3.8,1.9l-0.2,0.3l-3.2,5.4l-2.6,4.9
	l-5.6,10.5l-7.3,13.9l-7.9,14.9l-5.8,10.5l-11.1,19.8L395.1,317l-1.6,3.3l-1.7,3.4l-1.6,2.2l-0.6,0.2l-1.4,0.1l-3.5,0.1l-8.1,0
	l-53.8,0l-38,0.1l-83.6-0.3l-1.3-0.2l-0.6-0.4l-0.7-0.8l-1.1-1.5l-1.6-2.8l-6.8-12.6l-8-15l-13.5-24.7l-19.1-36.1l-5.1-9.4l-1.2-2.7
	l-0.8-1.9l0.4-0.4l1-0.7l2.4-1.3l4.7-2.3l36.2-17.2l45-22l32.8-15.6l31.6-15.2l1.1,0.4l5.5,2.1l9.2,3.2l27,9.2l42.8,14.2l19.9,7
	l33.9,12l5.8,1.7l4.1,1.2l1.9,0.8l0.3,0.4l0.2,0.7l0.2,1.6l0.1,3.4l0,10.6l0,13.6l0.2,13.6l0.1,11.3l-0.1,9.8l-0.5,23.3l0.1,8
	l0.1,6.6l-0.3,1.3l-0.3,0.2l-1.2,0.5l-3.3,1l-10.6,3.3l-9.4,3.2l-13.2,4.6l-15.5,5.7l-22.2,8.2l-14.1,4.9l-44.8,15.5l-12.9,4.5
	l-3.3,1l-0.7-0.2l-5.4-2.1l-6.2-2.1l-19.6-6.6l-63-21.2l-44.5-15.4l-7.8-2.3l-2.3-0.8l-2.1-0.9l-0.2-0.3l-0.1-0.7l0-2l0.1-9.9
	l0-20.3l-0.5-59.3l-0.2-9l0-2.8l0.3-0.2l0.8-0.4l2.8-1l10.5-3.9l12.8-5l13.2-5.3l21.4-8.9l18-7.4l21.9-8.7l24.7-9.9l21-8.5l4.5-1.6
	l1,0.3l6.3,1.9l7.6,2l11.4,3.2l55.1,15.6l61,17.6l4.1,1.2l0.4,0.3l0.4,0.8l0.6,1.5l6.3,17.7l3.1,7.9l4,9.4l9,21.1l5.1,13l6,15.1
	l2.6,6.7l0.3,1.4l-0.1,0.3l-0.4,0.3l-4.6,3.1L459,287.6L445.7,298l-15.8,12.3l-12.2,9.2L397,334.8l-9.5,7.1l-4.6,3.7l-2.9,2.3
	l-2.1,1.2l-0.8,0.1l-2.2,0l-57.9,0.1l-51.9,0.5l-33.2-0.1l-16.7-0.2l-0.7-0.5l-2.2-1.8l-5.4-4.2l-9.6-7.2l-9.5-6.9l-12.1-8.5
	l-19.6-13.8l-9.5-7l-31.7-23.5l-3-2.1l-0.1-0.3l0.1-0.5l0.9-2.2l1.3-3.4l4-11l5.5-14.6l11.5-31.1l5.3-13.7l5.1-12.9l1.9-5.3l0.5-0.2
	l2.8-0.9l14.3-4.6l13.7-4.7l14.4-5.2l37.1-13.5l19-6.5l20.6-7.1l24-8.4l0.6,0.1l14.7,3.6l13.1,3.1l97,23.4l8.9,2.1l8.6,2l0.3,0.3
	l1.1,1.4l4.6,7l4.1,6.2l6.1,8.7l6.1,8.4l15.8,21.4l7,10l8.2,11.7l5.1,7.3l1.2,2.1l-0.1,0.3l-0.7,0.9l-1.2,1.6l-2.8,4.3l-5.2,8.2
	l-14.9,22.7l-12.5,18.9l-7,10.2l-8.4,12l-4.2,6.5l-0.4,0.2l-2,0.5l-10.5,2.4l-12.6,2.9l-16.4,4.1l-18.2,4.9l-21.9,5.9l-16.5,4.2
	l-44.6,10.9l-0.8-0.2l-3.9-1.1l-9.2-2.1l-16-3.7L223.3,351l-35.8-8.7l-26.9-6.6l-6-1.4l-1-0.4l-0.7-0.8l-1.4-2l-3.7-5.5l-4.1-6.1
	l-6.8-9.6l-23.4-32.5l-14.2-20.1l-3-4.4l-2.2-3.2l-0.5-0.9l0.2-0.3l3.5-4.7l13-19.7l20.1-29.8l9.7-13.9l7.4-10.6l2-3.3l1.5-2.6
	l0.4-0.3l1.1-0.3l27.1-8.1l17.7-5.6l47.4-15.2l48.7-15.1l0.3-0.2l0.6-0.9l2.9-6l6.8-14.1l5.7-11.3l5.2-9.5l1.6-3.1l0.4-1.2l0-0.1
	l-0.1,0l-0.5,0.4l-0.9,0.9l0.1-0.3l1-1.8l0.9-1.5l0.5-1.2l0.3-0.7l0.3-0.9l0.4-0.5l0,0l-0.1,0l-0.1,0l0.1-0.1l0,0L321.8,69L321.8,69
	"/>
<rect x="72" y="51.8" class="st1" width="446.4" height="332.6"/>
<path class="st4" d="M321.8,68.9l-0.1,0l0.1,0.1l0,0.1l-0.1-0.2l0,0L321.8,68.9l0.2,0L321.8,68.9l-0.1,0.1l0,0L321.8,68.9
	L321.8,68.9L321.8,68.9L321.8,68.9L321.8,68.9l0.1-0.1l0-0.1l-0.1-0.1l0,0L321.8,68.9L321.8,68.9L321.8,68.9L321.8,68.9L321.8,68.9
	l0,0.2l0,0l0-0.2L321.8,68.9L321.8,68.9l0.1-0.2l0.1-0.1l-0.6,1l-0.6,1.6l-0.9,3.2l-1,4.2l-1,4.8l-1.2,5.8l-1.1,4.3l-2.1,7.6
	l-2.6,9.2l-4.6,17.8l-2.6,10.4l-3.5,13.1l-3.7,13.8l-0.2,1.5l0.1,0.8l1.1,0.4l0.9,0.5l1.7,1.4l2,1.9l2,2.1l3.5,3.6l31.1,32.6l6,6.3
	l14.7,15.5l10.6,11.1l18.8,19.7l20.4,21.5l3.9,3.9l0.3,0.2l-0.2,0l-2.3,0l-22.2-0.2l-9.8,0l-23.1,0.4l-39.3,0.2l-81.3-0.5l-36.6,0
	l-20.5-0.1l0.2-0.1l1.1-0.7l1.4-1.3l2.5-2.6l3.4-3.8l6.9-7.6l4.6-5.3l12.5-14.5l8.1-9l42.2-46.1l12.1-13.4l11.3-12.2l4.9-5.4
	l4.3-4.8l1.8-2.1l0.2-0.3l0.3-0.1l1,0.6l14.4,9.3l6.1,3.6l36.8,21.1l42.9,26.1l17.5,10.7l29.9,18l0.2,0.1l-0.1,0.1l-1,0.6l-13.3,7.3
	l-5.9,3.5l-12.5,7.8l-17.3,10.7l-25,14.8l-37.7,22.1l-37.3,21.9l-1.1-0.7l-12.5-8.1l-5.8-3.5l-11.7-6.7l-17.4-10.1L221.1,293
	l-29-17.6l-16.6-9.9l-15.8-9.6l-8.5-5.1l-3.2-2l-1.5-1l0.1,0l0.9-0.5l4.6-2.7l7.5-4.6l6.5-4.2l26.3-17.6l19.9-12.8l35.9-23
	l47.9-31.4l0.2-0.1l2.7,1.5l4.1,1.9l14.9,6.5l52.9,22.8l32.4,14.2l47.2,20.6l0,0l-0.3,0.3l-0.7,0.8l-1,1.5l-2,3.4l-1.7,3.2l-3.2,6.1
	l-3,5.7l-5.9,11l-10.6,19l-7.2,12.8l-10.1,18.4l-5.3,9.5l-5.8,10.6l-2.8,5.3l-0.7,0.9l-1.9,0l-61.5-0.1l-25.3-0.1l-102.5-0.4
	l-0.5-0.5l-0.9-1.4l-2.4-4.7l-2.6-5l-11.2-20.4l-5.2-9.8l-6.6-12.8l-7.1-13.7l-12.8-23.9l-3.5-6.5l-4.9-10.2l1.1-0.7l2.7-1.3
	l12.6-5.9l47.6-23l29.3-13.9l55.5-26.5l6.9-3.1l1.9,0.9l3.4,1.3l6.9,2.4l14.9,5l27.2,9.3l23,8.1l21,7.3l41.9,14.6l11.6,4l0,0.4
	l0,1.2l-0.1,16.2l0.1,9.9l-0.2,42.8l-0.3,32.9l0,1.2l-0.2,0.4l-0.7,0.2l-5.4,1.5l-6.7,2l-5.6,1.9l-10.8,3.9l-17.3,6.2l-20.2,7
	l-37.3,12.8l-24.5,8.6l-7.6,2.7l-13.7,4.5l-2.9,0.8l-1.8-1l-2.7-1.1l-3.7-1.3l-34.2-11.4l-18.1-6.2l-91.5-31.7l0.2-1.6l0.3-3.8
	l0-4.7l-0.4-24.8l0.1-25.1l0.3-34.3l0.1-5.9l0.1-4.7l0.8-0.3l3.8-1.3l7.3-2.5l6.7-2.6l31.3-12.9l20.5-8.2l49.9-19.7l14.1-5.6
	l8.4-3.2l10.3-3.7l0.6,0.2l1.6,0.6l4.5,1.4l6,1.7l14.4,4l17.7,4.9l11.9,3.4l53.1,15.6l37.4,11.2l0.2,0.9l1.7,6l1.7,4.9l1.9,4.9
	l7.5,18.4l4.4,11.3l10,25.6l6.6,16.7l2.1,6.6l-2.5,1.1l-1.8,1.1l-2.4,1.7l-29,22.2l-10.7,8l-27.5,20.5l-12.3,9.2L380,347.9l-1,0.7
	l-0.9,0.7l-0.8,0.6l-0.3,0l-1-0.1l-3.9-0.1l-10,0l-21.5,0.2l-18.7,0.1l-25.1,0L249,350l-34.2-0.1l-1.5-0.2l-0.3-0.4l-0.9-1l-2-1.8
	l-3.4-2.7l-4.8-3.5l-25-17.8l-20.2-15.1l-19.2-14.4l-13.5-10l-13-9.9l0.1-0.1l0.4-0.5l0.9-1.4l0.9-2l1.7-4.6l2.7-7.4l9.3-24.7
	l16.5-42.8l4-10.8l0.3-1l0.7-0.1l2.4-0.6l4.2-1.2l7.6-2.4l8.1-2.9l17.5-6.3l48.4-16.8l29.4-10.3l15.1-5.3l14.4-4.6l0.3,0.1l1.1,0.5
	l2.1,0.7l3.5,0.9l8,1.8l10.4,2.4l117.6,28.7l0.4,0.2l0.2,0.5l0.9,1.7l1.7,3.1l2.8,4.6l2.4,3.5l16.5,22.8l26.2,36.9l3.4,4.8l4.9,7.7
	l-1.6,1.3l-1.1,1.3L493,254l-23.4,35l-10.7,15.6L444,326l-3.9,6l-1.6,2l-13,2.6l-8.4,2L353,354.7l-29.4,7.4l-15.9,4.1l-11.9,2.7
	l-0.8,0l-2-0.9l-3.5-1.1l-4.3-1l-18.3-4.2l-47.2-11.4l-67-16.4l-0.9-0.3l-0.8-1.4l-1.6-2.8l-2.1-3.4l-1.7-2.6l-2.9-4.1l-4.7-6.3
	L124.3,294l-10.4-15.2l-15.7-22.3l-2.8-4.5l-2.6-4.4l1.6-1.3l1.1-1.3l1.8-2.6l4.9-8l2.7-4.2l8.6-12.9l12.3-17.3l16.8-23.5l5.5-7.9
	l4.4-6.4l1.8-0.4l6.7-1.7l9.6-2.8l13-4.2l13.5-4.3l12.4-3.9l61.1-18.8l8.6-2.6l8.7-2.5l4.9-1.5l2-0.6l1-0.3l0-0.3l0.2-0.6l1.9-5
	l4.4-9.1l5.6-10.7l3.3-6.5l1.3-2.5l0.9-1.7l2.2-4.3l3-7l-0.1,0l-0.2,0.1l-0.5,0l0,0l0-0.3l0.1-0.4l1.1-2.6l0.1-0.2l0.3-0.4l0,0
	l2.6,2l0,0"/>
<path class="st5" d="M72,384.5V51.8"/>
<path class="st5" d="M518.4,384.5V51.8"/>
<path class="st5" d="M72,384.5h446.4"/>
<path class="st5" d="M72,51.8h446.4"/>
<path id="md5ae9eabb5" class="st6" d="M318.7,70c0.8,0,1.6-0.3,2.1-0.9c0.6-0.6,0.9-1.3,0.9-2.1s-0.3-1.6-0.9-2.1
	c-0.6-0.6-1.3-0.9-2.1-0.9s-1.6,0.3-2.1,0.9c-0.6,0.6-0.9,1.3-0.9,2.1s0.3,1.6,0.9,2.1C317.2,69.6,317.9,70,318.7,70z"/>
<path id="md5ae9eabb5_00000135660962713526513280000000873414583871118262_" class="st6" d="M296,170.7c0.8,0,1.6-0.3,2.1-0.9
	c0.6-0.6,0.9-1.3,0.9-2.1s-0.3-1.6-0.9-2.1c-0.6-0.6-1.3-0.9-2.1-0.9s-1.6,0.3-2.1,0.9c-0.6,0.6-0.9,1.3-0.9,2.1s0.3,1.6,0.9,2.1
	C294.5,170.4,295.2,170.7,296,170.7z"/>
<path id="md5ae9eabb5_00000176044012875512184390000014273262673135982746_" class="st6" d="M413.1,291.6c0.8,0,1.6-0.3,2.1-0.9
	c0.6-0.6,0.9-1.3,0.9-2.1s-0.3-1.6-0.9-2.1c-0.6-0.6-1.3-0.9-2.1-0.9s-1.6,0.3-2.1,0.9c-0.6,0.6-0.9,1.3-0.9,2.1s0.3,1.6,0.9,2.1
	C411.6,291.3,412.3,291.6,413.1,291.6z"/>
<path id="md5ae9eabb5_00000006669926736363124130000016157838370343455622_" class="st6" d="M178.9,291.6c0.8,0,1.6-0.3,2.1-0.9
	c0.6-0.6,0.9-1.3,0.9-2.1s-0.3-1.6-0.9-2.1c-0.6-0.6-1.3-0.9-2.1-0.9s-1.6,0.3-2.1,0.9c-0.6,0.6-0.9,1.3-0.9,2.1s0.3,1.6,0.9,2.1
	C177.4,291.3,178.2,291.6,178.9,291.6z"/>
<path id="md5ae9eabb5_00000063608686655420432960000016712287788575944083_" class="st6" d="M295.6,162.6c0.8,0,1.6-0.3,2.1-0.9
	c0.6-0.6,0.9-1.3,0.9-2.1s-0.3-1.6-0.9-2.1c-0.6-0.6-1.3-0.9-2.1-0.9s-1.6,0.3-2.1,0.9c-0.6,0.6-0.9,1.3-0.9,2.1s0.3,1.6,0.9,2.1
	C294.1,162.3,294.8,162.6,295.6,162.6z"/>
<path id="md5ae9eabb5_00000028302438937108335840000002271818330698889881_" class="st6" d="M444.4,251.5c0.8,0,1.6-0.3,2.1-0.9
	c0.6-0.6,0.9-1.3,0.9-2.1s-0.3-1.6-0.9-2.1c-0.6-0.6-1.3-0.9-2.1-0.9s-1.6,0.3-2.1,0.9c-0.6,0.6-0.9,1.3-0.9,2.1s0.3,1.6,0.9,2.1
	C442.9,251.2,443.6,251.5,444.4,251.5z"/>
<path id="md5ae9eabb5_00000147899753572811116860000009952584792563548050_" class="st6" d="M295.6,340.3c0.8,0,1.6-0.3,2.1-0.9
	c0.6-0.6,0.9-1.3,0.9-2.1s-0.3-1.6-0.9-2.1c-0.6-0.6-1.3-0.9-2.1-0.9s-1.6,0.3-2.1,0.9c-0.6,0.6-0.9,1.3-0.9,2.1s0.3,1.6,0.9,2.1
	C294.1,340,294.8,340.3,295.6,340.3z"/>
<path id="md5ae9eabb5_00000005234530181947311350000008013281580094763694_" class="st6" d="M146.8,251.5c0.8,0,1.6-0.3,2.1-0.9
	s0.9-1.3,0.9-2.1s-0.3-1.6-0.9-2.1s-1.3-0.9-2.1-0.9s-1.6,0.3-2.1,0.9s-0.9,1.3-0.9,2.1s0.3,1.6,0.9,2.1S146,251.5,146.8,251.5z"/>
<path id="md5ae9eabb5_00000106127953688113796700000006749607338245657238_" class="st6" d="M295.2,154.5c0.8,0,1.6-0.3,2.1-0.9
	c0.6-0.6,0.9-1.3,0.9-2.1s-0.3-1.6-0.9-2.1c-0.6-0.6-1.3-0.9-2.1-0.9s-1.6,0.3-2.1,0.9c-0.6,0.6-0.9,1.3-0.9,2.1s0.3,1.6,0.9,2.1
	C293.6,154.2,294.4,154.5,295.2,154.5z"/>
<path id="md5ae9eabb5_00000091731160697748759820000009354135092224607112_" class="st6" d="M449.5,221.3c0.8,0,1.6-0.3,2.1-0.9
	c0.6-0.6,0.9-1.3,0.9-2.1s-0.3-1.6-0.9-2.1c-0.6-0.6-1.3-0.9-2.1-0.9s-1.6,0.3-2.1,0.9c-0.6,0.6-0.9,1.3-0.9,2.1s0.3,1.6,0.9,2.1
	C447.9,220.9,448.7,221.3,449.5,221.3z"/>
<path id="md5ae9eabb5_00000005260700389936446000000010860739709113840004_" class="st6" d="M390.3,329.6c0.8,0,1.6-0.3,2.1-0.9
	c0.6-0.6,0.9-1.3,0.9-2.1s-0.3-1.6-0.9-2.1c-0.6-0.6-1.3-0.9-2.1-0.9s-1.6,0.3-2.1,0.9c-0.6,0.6-0.9,1.3-0.9,2.1s0.3,1.6,0.9,2.1
	C388.8,329.3,389.5,329.6,390.3,329.6z"/>
<path id="md5ae9eabb5_00000104680042841349784210000013639400387170569611_" class="st6" d="M199.7,329.6c0.8,0,1.6-0.3,2.1-0.9
	c0.6-0.6,0.9-1.3,0.9-2.1s-0.3-1.6-0.9-2.1c-0.6-0.6-1.3-0.9-2.1-0.9s-1.6,0.3-2.1,0.9c-0.6,0.6-0.9,1.3-0.9,2.1s0.3,1.6,0.9,2.1
	C198.1,329.3,198.9,329.6,199.7,329.6z"/>
<path id="md5ae9eabb5_00000150068536665244293760000000591852350825120391_" class="st6" d="M140.9,221.3c0.8,0,1.6-0.3,2.1-0.9
	s0.9-1.3,0.9-2.1s-0.3-1.6-0.9-2.1s-1.3-0.9-2.1-0.9s-1.6,0.3-2.1,0.9s-0.9,1.3-0.9,2.1s0.3,1.6,0.9,2.1S140.1,221.3,140.9,221.3z"
	/>
<path id="md5ae9eabb5_00000101793540922788014560000006395956204362217130_" class="st6" d="M295.6,146.4c0.8,0,1.6-0.3,2.1-0.9
	c0.6-0.6,0.9-1.3,0.9-2.1s-0.3-1.6-0.9-2.1c-0.6-0.6-1.3-0.9-2.1-0.9s-1.6,0.3-2.1,0.9c-0.6,0.6-0.9,1.3-0.9,2.1s0.3,1.6,0.9,2.1
	C294.1,146.1,294.8,146.4,295.6,146.4z"/>
<path id="md5ae9eabb5_00000034810316843938522690000001699301550038579592_" class="st6" d="M447.8,198.8c0.8,0,1.6-0.3,2.1-0.9
	c0.6-0.6,0.9-1.3,0.9-2.1s-0.3-1.6-0.9-2.1c-0.6-0.6-1.3-0.9-2.1-0.9s-1.6,0.3-2.1,0.9c-0.6,0.6-0.9,1.3-0.9,2.1s0.3,1.6,0.9,2.1
	C446.2,198.5,447,198.8,447.8,198.8z"/>
<path id="md5ae9eabb5_00000157308636917646736240000002067618687972306313_" class="st6" d="M447.8,303.8c0.8,0,1.6-0.3,2.1-0.9
	c0.6-0.6,0.9-1.3,0.9-2.1s-0.3-1.6-0.9-2.1c-0.6-0.6-1.3-0.9-2.1-0.9s-1.6,0.3-2.1,0.9c-0.6,0.6-0.9,1.3-0.9,2.1s0.3,1.6,0.9,2.1
	C446.2,303.5,447,303.8,447.8,303.8z"/>
<path id="md5ae9eabb5_00000013912261370202831740000015660517339896814238_" class="st6" d="M295.6,356.2c0.8,0,1.6-0.3,2.1-0.9
	c0.6-0.6,0.9-1.3,0.9-2.1s-0.3-1.6-0.9-2.1c-0.6-0.6-1.3-0.9-2.1-0.9s-1.6,0.3-2.1,0.9c-0.6,0.6-0.9,1.3-0.9,2.1s0.3,1.6,0.9,2.1
	C294.1,355.9,294.8,356.2,295.6,356.2z"/>
<path id="md5ae9eabb5_00000150818438685600984370000017743267986501795225_" class="st6" d="M143.4,303.8c0.8,0,1.6-0.3,2.1-0.9
	c0.6-0.6,0.9-1.3,0.9-2.1s-0.3-1.6-0.9-2.1c-0.6-0.6-1.3-0.9-2.1-0.9s-1.6,0.3-2.1,0.9c-0.6,0.6-0.9,1.3-0.9,2.1s0.3,1.6,0.9,2.1
	C141.9,303.5,142.6,303.8,143.4,303.8z"/>
<path id="md5ae9eabb5_00000116237797736811040590000016260623901248296367_" class="st6" d="M143.4,198.8c0.8,0,1.6-0.3,2.1-0.9
	s0.9-1.3,0.9-2.1s-0.3-1.6-0.9-2.1s-1.3-0.9-2.1-0.9s-1.6,0.3-2.1,0.9s-0.9,1.3-0.9,2.1s0.3,1.6,0.9,2.1S142.6,198.8,143.4,198.8z"
	/>
<path id="md5ae9eabb5_00000160155403512443839870000011849573436621428897_" class="st6" d="M295.6,138.4c0.8,0,1.6-0.3,2.1-0.9
	c0.6-0.6,0.9-1.3,0.9-2.1s-0.3-1.6-0.9-2.1c-0.6-0.6-1.3-0.9-2.1-0.9s-1.6,0.3-2.1,0.9c-0.6,0.6-0.9,1.3-0.9,2.1s0.3,1.6,0.9,2.1
	C294.1,138,294.8,138.4,295.6,138.4z"/>
<path id="md5ae9eabb5_00000045620507389878117510000011090007879313164424_" class="st6" d="M443.6,181.2c0.8,0,1.6-0.3,2.1-0.9
	c0.6-0.6,0.9-1.3,0.9-2.1s-0.3-1.6-0.9-2.1c-0.6-0.6-1.3-0.9-2.1-0.9s-1.6,0.3-2.1,0.9c-0.6,0.6-0.9,1.3-0.9,2.1s0.3,1.6,0.9,2.1
	C442,180.8,442.8,181.2,443.6,181.2z"/>
<path id="md5ae9eabb5_00000078737809310220725280000015132878387957847994_" class="st6" d="M480.4,276.6c0.8,0,1.6-0.3,2.1-0.9
	c0.6-0.6,0.9-1.3,0.9-2.1s-0.3-1.6-0.9-2.1c-0.6-0.6-1.3-0.9-2.1-0.9s-1.6,0.3-2.1,0.9c-0.6,0.6-0.9,1.3-0.9,2.1s0.3,1.6,0.9,2.1
	C478.8,276.3,479.6,276.6,480.4,276.6z"/>
<path id="md5ae9eabb5_00000000205171735836089900000014802189089696307619_" class="st6" d="M377.6,353.2c0.8,0,1.6-0.3,2.1-0.9
	c0.6-0.6,0.9-1.3,0.9-2.1s-0.3-1.6-0.9-2.1c-0.6-0.6-1.3-0.9-2.1-0.9s-1.6,0.3-2.1,0.9c-0.6,0.6-0.9,1.3-0.9,2.1s0.3,1.6,0.9,2.1
	C376.1,352.9,376.8,353.2,377.6,353.2z"/>
<path id="md5ae9eabb5_00000049208777855533079660000004228607429826500786_" class="st6" d="M213.6,353.2c0.8,0,1.6-0.3,2.1-0.9
	c0.6-0.6,0.9-1.3,0.9-2.1s-0.3-1.6-0.9-2.1c-0.6-0.6-1.3-0.9-2.1-0.9s-1.6,0.3-2.1,0.9c-0.6,0.6-0.9,1.3-0.9,2.1s0.3,1.6,0.9,2.1
	C212.1,352.9,212.8,353.2,213.6,353.2z"/>
<path id="md5ae9eabb5_00000155139951683149070910000011598475117019204782_" class="st6" d="M110.9,276.6c0.8,0,1.6-0.3,2.1-0.9
	c0.6-0.6,0.9-1.3,0.9-2.1s-0.3-1.6-0.9-2.1c-0.6-0.6-1.3-0.9-2.1-0.9s-1.6,0.3-2.1,0.9c-0.6,0.6-0.9,1.3-0.9,2.1s0.3,1.6,0.9,2.1
	C109.3,276.3,110.1,276.6,110.9,276.6z"/>
<path id="md5ae9eabb5_00000137092207151434611940000002823653703593824393_" class="st6" d="M147.7,181.2c0.8,0,1.6-0.3,2.1-0.9
	s0.9-1.3,0.9-2.1s-0.3-1.6-0.9-2.1s-1.3-0.9-2.1-0.9s-1.6,0.3-2.1,0.9s-0.9,1.3-0.9,2.1s0.3,1.6,0.9,2.1S146.9,181.2,147.7,181.2z"
	/>
<path id="md5ae9eabb5_00000119828926645078750700000005453487672062986681_" class="st6" d="M295.2,130.3c0.8,0,1.6-0.3,2.1-0.9
	c0.6-0.6,0.9-1.3,0.9-2.1c0-0.8-0.3-1.6-0.9-2.1c-0.6-0.6-1.3-0.9-2.1-0.9s-1.6,0.3-2.1,0.9c-0.6,0.6-0.9,1.3-0.9,2.1
	c0,0.8,0.3,1.6,0.9,2.1C293.6,130,294.4,130.3,295.2,130.3z"/>
<path id="md5ae9eabb5_00000168812788837643435790000016748111275580141740_" class="st6" d="M438.9,165.6c0.8,0,1.6-0.3,2.1-0.9
	c0.6-0.6,0.9-1.3,0.9-2.1s-0.3-1.6-0.9-2.1c-0.6-0.6-1.3-0.9-2.1-0.9s-1.6,0.3-2.1,0.9c-0.6,0.6-0.9,1.3-0.9,2.1s0.3,1.6,0.9,2.1
	C437.4,165.3,438.1,165.6,438.9,165.6z"/>
<path id="md5ae9eabb5_00000142891488996119043380000002014812101492814525_" class="st6" d="M498.1,251.2c0.8,0,1.6-0.3,2.1-0.9
	c0.6-0.6,0.9-1.3,0.9-2.1s-0.3-1.6-0.9-2.1c-0.6-0.6-1.3-0.9-2.1-0.9s-1.6,0.3-2.1,0.9c-0.6,0.6-0.9,1.3-0.9,2.1s0.3,1.6,0.9,2.1
	C496.6,250.9,497.3,251.2,498.1,251.2z"/>
<path id="md5ae9eabb5_00000005235257270153232920000005342628094958996644_" class="st6" d="M438.9,337.1c0.8,0,1.6-0.3,2.1-0.9
	c0.6-0.6,0.9-1.3,0.9-2.1s-0.3-1.6-0.9-2.1c-0.6-0.6-1.3-0.9-2.1-0.9s-1.6,0.3-2.1,0.9c-0.6,0.6-0.9,1.3-0.9,2.1s0.3,1.6,0.9,2.1
	C437.4,336.7,438.1,337.1,438.9,337.1z"/>
<path id="md5ae9eabb5_00000099657584185766388070000002537998611626626485_" class="st6" d="M295.2,372.4c0.8,0,1.6-0.3,2.1-0.9
	c0.6-0.6,0.9-1.3,0.9-2.1s-0.3-1.6-0.9-2.1c-0.6-0.6-1.3-0.9-2.1-0.9s-1.6,0.3-2.1,0.9c-0.6,0.6-0.9,1.3-0.9,2.1s0.3,1.6,0.9,2.1
	C293.6,372,294.4,372.4,295.2,372.4z"/>
<path id="md5ae9eabb5_00000104702234900857400610000003674397376839569792_" class="st6" d="M151.9,337.1c0.8,0,1.6-0.3,2.1-0.9
	c0.6-0.6,0.9-1.3,0.9-2.1s-0.3-1.6-0.9-2.1c-0.6-0.6-1.3-0.9-2.1-0.9s-1.6,0.3-2.1,0.9c-0.6,0.6-0.9,1.3-0.9,2.1s0.3,1.6,0.9,2.1
	C150.3,336.7,151.1,337.1,151.9,337.1z"/>
<path id="md5ae9eabb5_00000119077582090521074800000003480914376526134409_" class="st6" d="M92.3,251.2c0.8,0,1.6-0.3,2.1-0.9
	c0.6-0.6,0.9-1.3,0.9-2.1s-0.3-1.6-0.9-2.1c-0.6-0.6-1.3-0.9-2.1-0.9s-1.6,0.3-2.1,0.9c-0.6,0.6-0.9,1.3-0.9,2.1s0.3,1.6,0.9,2.1
	C90.7,250.9,91.5,251.2,92.3,251.2z"/>
<path id="md5ae9eabb5_00000041996657883035231620000017127575768594729859_" class="st6" d="M151.9,165.6c0.8,0,1.6-0.3,2.1-0.9
	s0.9-1.3,0.9-2.1s-0.3-1.6-0.9-2.1s-1.3-0.9-2.1-0.9s-1.6,0.3-2.1,0.9s-0.9,1.3-0.9,2.1s0.3,1.6,0.9,2.1S151.1,165.6,151.9,165.6z"
	/>
<path id="md5ae9eabb5_00000057110847052530771790000008874299963358486187_" class="st6" d="M295.2,121.6c0.8,0,1.6-0.3,2.1-0.9
	c0.6-0.6,0.9-1.3,0.9-2.1s-0.3-1.6-0.9-2.1c-0.6-0.6-1.3-0.9-2.1-0.9s-1.6,0.3-2.1,0.9c-0.6,0.6-0.9,1.3-0.9,2.1s0.3,1.6,0.9,2.1
	C293.6,121.3,294.4,121.6,295.2,121.6z"/>
<path id="md5ae9eabb5_00000145029804424537948120000008911773474872377236_" class="st6" d="M319.1,70.1c0.8,0,1.6-0.3,2.1-0.9
	c0.6-0.6,0.9-1.3,0.9-2.1s-0.3-1.6-0.9-2.1c-0.6-0.6-1.3-0.9-2.1-0.9s-1.6,0.3-2.1,0.9c-0.6,0.6-0.9,1.3-0.9,2.1s0.3,1.6,0.9,2.1
	C317.5,69.8,318.3,70.1,319.1,70.1z"/>
<path id="DejaVuSans-54" d="M236.5,37.1h7.4v1h-3.1v7.8h-1.2v-7.8h-3.1V37.1z"/>
<path id="DejaVuSans-6f_00000094583011877922644740000010449031562342593211_" d="M245.5,40c-0.6,0-1,0.2-1.4,0.7
	c-0.3,0.5-0.5,1.1-0.5,1.9s0.2,1.4,0.5,1.9c0.3,0.5,0.8,0.7,1.4,0.7c0.6,0,1-0.2,1.4-0.7c0.3-0.5,0.5-1.1,0.5-1.9
	c0-0.8-0.2-1.4-0.5-1.8C246.5,40.3,246.1,40,245.5,40z M245.5,39.1c0.9,0,1.7,0.3,2.2,0.9c0.5,0.6,0.8,1.5,0.8,2.5
	c0,1.1-0.3,1.9-0.8,2.5c-0.5,0.6-1.3,0.9-2.2,0.9c-0.9,0-1.7-0.3-2.2-0.9c-0.5-0.6-0.8-1.5-0.8-2.5c0-1.1,0.3-1.9,0.8-2.5
	C243.8,39.4,244.5,39.1,245.5,39.1z"/>
<path id="DejaVuSans-74_00000071517909827970897380000013461735247594367134_" d="M251.3,37.4v1.9h2.2v0.8h-2.2v3.6
	c0,0.5,0.1,0.9,0.2,1c0.1,0.2,0.4,0.2,0.9,0.2h1.1v0.9h-1.1c-0.8,0-1.4-0.2-1.7-0.5c-0.3-0.3-0.5-0.9-0.5-1.7v-3.6h-0.8v-0.8h0.8
	v-1.9H251.3z"/>
<path id="DejaVuSans-61_00000044882805241730753010000003144762250064973956_" d="M258,42.5c-0.9,0-1.5,0.1-1.8,0.3s-0.5,0.5-0.5,1
	c0,0.4,0.1,0.7,0.4,0.9c0.3,0.2,0.6,0.3,1,0.3c0.6,0,1.1-0.2,1.4-0.6c0.4-0.4,0.5-1,0.5-1.7v-0.2H258z M260.1,42.1v3.7H259v-1
	c-0.2,0.4-0.6,0.7-0.9,0.9c-0.4,0.2-0.8,0.3-1.3,0.3c-0.7,0-1.2-0.2-1.6-0.6c-0.4-0.4-0.6-0.9-0.6-1.5c0-0.7,0.2-1.3,0.7-1.7
	c0.5-0.4,1.2-0.6,2.2-0.6h1.5v-0.1c0-0.5-0.2-0.9-0.5-1.2c-0.3-0.3-0.8-0.4-1.4-0.4c-0.4,0-0.7,0-1.1,0.1c-0.4,0.1-0.7,0.2-1,0.4v-1
	c0.4-0.2,0.8-0.3,1.1-0.3c0.4-0.1,0.7-0.1,1.1-0.1c1,0,1.7,0.2,2.1,0.7C259.9,40.3,260.1,41.1,260.1,42.1z"/>
<path id="DejaVuSans-6c_00000035507969829351032630000000335279479208871839_" d="M262.3,36.7h1.1v9.1h-1.1V36.7z"/>
<path id="DejaVuSans-20" d="M264.5,45.8"/>
<path id="DejaVuSans-57" d="M268.8,37.1h1.2l1.8,7.4l1.8-7.4h1.3l1.8,7.4l1.8-7.4h1.2l-2.2,8.7h-1.5l-1.8-7.6l-1.9,7.6h-1.5
	L268.8,37.1z"/>
<path id="DejaVuSans-61_00000104685775645390733060000000218550236372670855_" d="M283.6,42.5c-0.9,0-1.5,0.1-1.8,0.3
	c-0.3,0.2-0.5,0.5-0.5,1c0,0.4,0.1,0.7,0.4,0.9c0.3,0.2,0.6,0.3,1,0.3c0.6,0,1.1-0.2,1.4-0.6c0.4-0.4,0.5-1,0.5-1.7v-0.2H283.6z
	 M285.7,42.1v3.7h-1.1v-1c-0.2,0.4-0.6,0.7-0.9,0.9c-0.4,0.2-0.8,0.3-1.3,0.3c-0.7,0-1.2-0.2-1.6-0.6c-0.4-0.4-0.6-0.9-0.6-1.5
	c0-0.7,0.2-1.3,0.7-1.7c0.5-0.4,1.2-0.6,2.2-0.6h1.5v-0.1c0-0.5-0.2-0.9-0.5-1.2c-0.3-0.3-0.8-0.4-1.4-0.4c-0.4,0-0.7,0-1.1,0.1
	c-0.4,0.1-0.7,0.2-1,0.4v-1c0.4-0.2,0.8-0.3,1.1-0.3c0.4-0.1,0.7-0.1,1.1-0.1c0.9,0,1.7,0.2,2.1,0.7
	C285.5,40.3,285.7,41.1,285.7,42.1z"/>
<path id="DejaVuSans-79" d="M290.7,46.4c-0.3,0.8-0.6,1.3-0.9,1.5c-0.3,0.2-0.7,0.4-1.2,0.4h-0.9v-0.9h0.6c0.3,0,0.5-0.1,0.7-0.2
	c0.2-0.1,0.3-0.5,0.5-1l0.2-0.5l-2.7-6.5h1.1l2.1,5.1l2.1-5.1h1.1L290.7,46.4z"/>
<path id="DejaVuSans-70" d="M296.1,44.9v3.5H295v-9.1h1.1v1c0.2-0.4,0.5-0.7,0.9-0.9c0.3-0.2,0.8-0.3,1.2-0.3c0.8,0,1.4,0.3,1.9,0.9
	c0.5,0.6,0.7,1.5,0.7,2.5s-0.2,1.9-0.7,2.5c-0.5,0.6-1.1,0.9-1.9,0.9c-0.5,0-0.9-0.1-1.2-0.3C296.6,45.5,296.3,45.2,296.1,44.9z
	 M299.7,42.6c0-0.8-0.2-1.4-0.5-1.9c-0.3-0.5-0.8-0.7-1.3-0.7c-0.6,0-1,0.2-1.3,0.7c-0.3,0.5-0.5,1.1-0.5,1.9c0,0.8,0.2,1.4,0.5,1.9
	c0.3,0.5,0.8,0.7,1.3,0.7c0.6,0,1-0.2,1.3-0.7C299.6,44,299.7,43.4,299.7,42.6z"/>
<path id="DejaVuSans-6f_00000121262123650416316760000014471379426864427687_" d="M305.2,40c-0.6,0-1,0.2-1.4,0.7
	c-0.3,0.5-0.5,1.1-0.5,1.9s0.2,1.4,0.5,1.9c0.3,0.5,0.8,0.7,1.4,0.7c0.6,0,1-0.2,1.4-0.7c0.3-0.5,0.5-1.1,0.5-1.9
	c0-0.8-0.2-1.4-0.5-1.8C306.2,40.3,305.8,40,305.2,40z M305.2,39.1c0.9,0,1.7,0.3,2.2,0.9c0.5,0.6,0.8,1.5,0.8,2.5
	c0,1.1-0.3,1.9-0.8,2.5c-0.5,0.6-1.3,0.9-2.2,0.9c-0.9,0-1.7-0.3-2.2-0.9c-0.5-0.6-0.8-1.5-0.8-2.5c0-1.1,0.3-1.9,0.8-2.5
	C303.5,39.4,304.3,39.1,305.2,39.1z"/>
<path id="DejaVuSans-69" d="M310,39.3h1.1v6.6H310V39.3z M310,36.7h1.1v1.4H310V36.7z"/>
<path id="DejaVuSans-6e_00000165912683035196929500000013860193769282689677_" d="M318.8,41.9v4h-1.1v-3.9c0-0.6-0.1-1.1-0.4-1.4
	c-0.2-0.3-0.6-0.5-1.1-0.5c-0.6,0-1,0.2-1.4,0.6c-0.3,0.4-0.5,0.9-0.5,1.5v3.7h-1.1v-6.6h1.1v1c0.3-0.4,0.6-0.7,0.9-0.9
	c0.4-0.2,0.8-0.3,1.2-0.3c0.8,0,1.3,0.2,1.7,0.7C318.6,40.3,318.8,41,318.8,41.9z"/>
<path id="DejaVuSans-74_00000116923146153741148330000012842078067785007803_" d="M322,37.4v1.9h2.2v0.8H322v3.6
	c0,0.5,0.1,0.9,0.2,1c0.1,0.2,0.4,0.2,0.9,0.2h1.1v0.9h-1.1c-0.8,0-1.4-0.2-1.7-0.5c-0.3-0.3-0.5-0.9-0.5-1.7v-3.6h-0.8v-0.8h0.8
	v-1.9H322z"/>
<path id="DejaVuSans-73" d="M329.8,39.5v1c-0.3-0.2-0.6-0.3-0.9-0.4c-0.3-0.1-0.7-0.1-1-0.1c-0.5,0-0.9,0.1-1.2,0.2
	c-0.3,0.2-0.4,0.4-0.4,0.7c0,0.2,0.1,0.4,0.3,0.6c0.2,0.1,0.6,0.3,1.2,0.4l0.4,0.1c0.8,0.2,1.3,0.4,1.6,0.7c0.3,0.3,0.5,0.7,0.5,1.3
	c0,0.6-0.2,1.1-0.7,1.4c-0.5,0.4-1.1,0.5-2,0.5c-0.4,0-0.7,0-1.1-0.1c-0.4-0.1-0.8-0.2-1.2-0.3v-1.1c0.4,0.2,0.8,0.4,1.2,0.5
	c0.4,0.1,0.8,0.2,1.1,0.2c0.5,0,0.9-0.1,1.2-0.3c0.3-0.2,0.4-0.4,0.4-0.7c0-0.3-0.1-0.5-0.3-0.7c-0.2-0.2-0.6-0.3-1.3-0.5l-0.4-0.1
	c-0.7-0.1-1.1-0.4-1.4-0.6c-0.3-0.3-0.4-0.7-0.4-1.2c0-0.6,0.2-1.1,0.7-1.4c0.4-0.3,1.1-0.5,1.9-0.5c0.4,0,0.8,0,1.1,0.1
	C329.2,39.3,329.5,39.4,329.8,39.5z"/>
<path id="DejaVuSans-3a" d="M332.2,44.4h1.2v1.5h-1.2V44.4z M332.2,39.6h1.2v1.5h-1.2V39.6z"/>
<path id="DejaVuSans-20_00000041999344538459243840000009175852791013886095_" d="M334.8,45.8"/>
<path id="DejaVuSans-33" d="M343.5,41.1c0.6,0.1,1,0.4,1.3,0.8c0.3,0.4,0.5,0.9,0.5,1.4c0,0.9-0.3,1.5-0.9,2
	c-0.6,0.5-1.4,0.7-2.5,0.7c-0.4,0-0.7,0-1.1-0.1c-0.4-0.1-0.8-0.2-1.2-0.3v-1.1c0.3,0.2,0.7,0.3,1.1,0.4c0.4,0.1,0.8,0.1,1.2,0.1
	c0.7,0,1.3-0.1,1.7-0.4s0.6-0.7,0.6-1.3c0-0.5-0.2-0.9-0.5-1.2c-0.4-0.3-0.9-0.4-1.5-0.4h-1v-1h1.1c0.6,0,1-0.1,1.3-0.3
	c0.3-0.2,0.5-0.6,0.5-1c0-0.4-0.2-0.8-0.5-1c-0.3-0.2-0.8-0.4-1.4-0.4c-0.3,0-0.7,0-1,0.1c-0.4,0.1-0.8,0.2-1.2,0.3v-1.1
	c0.4-0.1,0.9-0.2,1.3-0.3c0.4-0.1,0.8-0.1,1.1-0.1c0.9,0,1.6,0.2,2.1,0.6c0.5,0.4,0.8,1,0.8,1.7c0,0.5-0.1,0.9-0.4,1.2
	C344.4,40.8,344,41,343.5,41.1z"/>
<path id="DejaVuSans-36_00000010990504072717216790000018099174056451521956_" d="M350.2,41c-0.5,0-1,0.2-1.3,0.5
	c-0.3,0.4-0.5,0.9-0.5,1.5c0,0.6,0.2,1.1,0.5,1.5c0.3,0.4,0.7,0.5,1.3,0.5s1-0.2,1.3-0.5c0.3-0.4,0.5-0.9,0.5-1.5
	c0-0.6-0.2-1.1-0.5-1.5C351.2,41.2,350.7,41,350.2,41z M352.6,37.3v1.1c-0.3-0.1-0.6-0.2-0.9-0.3c-0.3-0.1-0.6-0.1-0.9-0.1
	c-0.8,0-1.4,0.3-1.8,0.8c-0.4,0.5-0.6,1.3-0.7,2.4c0.2-0.3,0.5-0.6,0.9-0.8c0.3-0.2,0.7-0.3,1.1-0.3c0.9,0,1.6,0.3,2.1,0.8
	c0.5,0.5,0.8,1.3,0.8,2.2c0,0.9-0.3,1.6-0.8,2.2c-0.5,0.5-1.2,0.8-2.1,0.8c-1,0-1.8-0.4-2.3-1.2c-0.5-0.8-0.8-1.9-0.8-3.4
	c0-1.4,0.3-2.5,1-3.3c0.7-0.8,1.5-1.2,2.6-1.2c0.3,0,0.6,0,0.9,0.1C351.9,37.1,352.2,37.2,352.6,37.3z"/>
</svg>
