<?xml version="1.0" encoding="utf-8"?>
<!-- Generator: Adobe Illustrator 27.4.1, SVG Export Plug-In . SVG Version: 6.00 Build 0)  -->
<svg version="1.1" id="Layer_1" xmlns="http://www.w3.org/2000/svg" xmlns:xlink="http://www.w3.org/1999/xlink" x="0px" y="0px"
	 viewBox="0 0 576 432" style="enable-background:new 0 0 576 432;" xml:space="preserve">
<style type="text/css">
	.st0{fill:#A3CCE3;stroke:#A3CCE3;stroke-linejoin:round;}
	.st1{fill:#519BCA;stroke:#519BCA;stroke-linejoin:round;}
	.st2{fill:#145FA5;stroke:#145FA5;stroke-linejoin:round;}
	.st3{fill:#083877;stroke:#083877;stroke-linejoin:round;}
	.st4{font-family:'MyriadPro-Regular';}
	.st5{font-size:8px;}
	.st6{stroke:#000000;stroke-width:0.8;stroke-linejoin:round;}
	.st7{fill:none;stroke:#999999;stroke-width:2;stroke-linecap:square;stroke-linejoin:round;stroke-opacity:0.6;}
	.st8{fill:none;}
	.st9{fill:none;stroke:#2C7BB6;stroke-width:2;stroke-linecap:square;stroke-linejoin:round;stroke-opacity:0.6;}
	.st10{fill:none;stroke:#D7191C;stroke-width:2;stroke-linecap:square;stroke-linejoin:round;stroke-opacity:0.6;}
	.st11{fill:none;stroke:#000000;stroke-width:0.8;stroke-linecap:square;}
	.st12{fill:#C6DBEF;stroke:#333333;stroke-width:0.5;stroke-linejoin:round;}
	.st13{fill:#1B67AA;stroke:#333333;stroke-width:0.5;stroke-linejoin:round;}
	.st14{fill:#084B93;stroke:#333333;stroke-width:0.5;stroke-linejoin:round;}
	.st15{fill:#08326E;stroke:#333333;stroke-width:0.5;stroke-linejoin:round;}
	.st16{fill:#08306B;stroke:#333333;stroke-width:0.5;stroke-linejoin:round;}
	.st17{fill:#083E81;stroke:#333333;stroke-width:0.5;stroke-linejoin:round;}
	.st18{fill:#084387;stroke:#333333;stroke-width:0.5;stroke-linejoin:round;}
	.st19{fill:#083C7D;stroke:#333333;stroke-width:0.5;stroke-linejoin:round;}
	.st20{fill:#084990;stroke:#333333;stroke-width:0.5;stroke-linejoin:round;}
	.st21{fill:#0D569F;stroke:#333333;stroke-width:0.5;stroke-linejoin:round;}
	.st22{fill:#084D96;stroke:#333333;stroke-width:0.5;stroke-linejoin:round;}
	.st23{fill:#084F99;stroke:#333333;stroke-width:0.5;stroke-linejoin:round;}
	.st24{fill:#145FA5;stroke:#333333;stroke-width:0.5;stroke-linejoin:round;}
	.st25{fill:#1F6BAD;stroke:#333333;stroke-width:0.5;stroke-linejoin:round;}
	.st26{fill:#1863A7;stroke:#333333;stroke-width:0.5;stroke-linejoin:round;}
	.st27{fill:#236FAF;stroke:#333333;stroke-width:0.5;stroke-linejoin:round;}
	.st28{fill:#2E7BB7;stroke:#333333;stroke-width:0.5;stroke-linejoin:round;}
	.st29{fill:#2673B2;stroke:#333333;stroke-width:0.5;stroke-linejoin:round;}
	.st30{fill:#3583BC;stroke:#333333;stroke-width:0.5;stroke-linejoin:round;}
	.st31{fill:#317FBA;stroke:#333333;stroke-width:0.5;stroke-linejoin:round;}
	.st32{fill:#2A77B5;stroke:#333333;stroke-width:0.5;stroke-linejoin:round;}
	.st33{fill:#BCD7EB;stroke:#333333;stroke-width:0.5;stroke-linejoin:round;}
</style>
<g>
	<path id="DejaVuSans-4e" d="M-1.1,18.1h0.8l1.9,5.6v-5.6h0.6v6.7H1.4l-1.9-5.6v5.6h-0.6V18.1z"/>
	<path id="DejaVuSans-75" d="M3.3,22.8v-3h0.5v3c0,0.5,0.1,0.8,0.2,1.1c0.1,0.2,0.3,0.4,0.5,0.4c0.3,0,0.5-0.1,0.7-0.4
		c0.2-0.3,0.2-0.7,0.2-1.2v-2.8H6v5H5.4V24c-0.1,0.3-0.3,0.5-0.4,0.7c-0.2,0.1-0.4,0.2-0.6,0.2c-0.4,0-0.7-0.2-0.8-0.5
		C3.3,24,3.3,23.5,3.3,22.8z M4.6,19.6L4.6,19.6z"/>
	<path id="DejaVuSans-6d" d="M9.6,20.7c0.1-0.4,0.3-0.6,0.5-0.8c0.2-0.2,0.4-0.3,0.7-0.3c0.3,0,0.6,0.2,0.8,0.5
		c0.2,0.4,0.3,0.9,0.3,1.6v3h-0.5v-3c0-0.5-0.1-0.8-0.2-1.1c-0.1-0.2-0.3-0.3-0.5-0.3c-0.3,0-0.5,0.1-0.7,0.4
		c-0.2,0.3-0.2,0.7-0.2,1.2v2.8H9.1v-3c0-0.5-0.1-0.8-0.2-1.1c-0.1-0.2-0.3-0.3-0.5-0.3c-0.3,0-0.5,0.1-0.6,0.4
		c-0.2,0.3-0.2,0.7-0.2,1.2v2.8H7v-5h0.5v0.8C7.7,20.2,7.8,20,8,19.8c0.2-0.1,0.4-0.2,0.6-0.2c0.2,0,0.4,0.1,0.6,0.3
		C9.4,20.1,9.5,20.4,9.6,20.7z"/>
	<path id="DejaVuSans-62" d="M15.1,22.3c0-0.6-0.1-1.1-0.2-1.4c-0.2-0.3-0.4-0.5-0.7-0.5c-0.3,0-0.5,0.2-0.7,0.5s-0.2,0.8-0.2,1.4
		c0,0.6,0.1,1.1,0.2,1.4s0.4,0.5,0.7,0.5c0.3,0,0.5-0.2,0.7-0.5C15,23.3,15.1,22.9,15.1,22.3z M13.3,20.5c0.1-0.3,0.3-0.5,0.4-0.7
		c0.2-0.1,0.4-0.2,0.6-0.2c0.4,0,0.7,0.2,1,0.7c0.2,0.5,0.4,1.1,0.4,1.9s-0.1,1.4-0.4,1.9c-0.2,0.5-0.6,0.7-1,0.7
		c-0.2,0-0.4-0.1-0.6-0.2c-0.2-0.1-0.3-0.4-0.4-0.7v0.8h-0.5v-7h0.5V20.5z"/>
	<path id="DejaVuSans-65" d="M19.3,22v0.4h-2.4c0,0.6,0.1,1,0.3,1.3c0.2,0.3,0.5,0.4,0.8,0.4c0.2,0,0.4,0,0.6-0.1
		c0.2-0.1,0.4-0.2,0.6-0.3v0.8c-0.2,0.1-0.4,0.2-0.6,0.3s-0.4,0.1-0.6,0.1c-0.5,0-0.9-0.2-1.2-0.7c-0.3-0.5-0.5-1.1-0.5-1.9
		c0-0.8,0.1-1.5,0.4-2c0.3-0.5,0.7-0.7,1.2-0.7c0.4,0,0.8,0.2,1,0.7C19.2,20.7,19.3,21.3,19.3,22z M18.8,21.8c0-0.4-0.1-0.8-0.2-1.1
		c-0.2-0.3-0.4-0.4-0.6-0.4c-0.3,0-0.5,0.1-0.7,0.4c-0.2,0.3-0.3,0.6-0.3,1.1L18.8,21.8z"/>
	<path id="DejaVuSans-72" d="M22,20.5c-0.1-0.1-0.1-0.1-0.2-0.1c-0.1,0-0.1,0-0.2,0c-0.3,0-0.5,0.2-0.7,0.5
		c-0.2,0.3-0.2,0.7-0.2,1.3v2.6h-0.5v-5h0.5v0.8c0.1-0.3,0.3-0.5,0.4-0.7c0.2-0.1,0.4-0.2,0.7-0.2c0,0,0.1,0,0.1,0c0,0,0.1,0,0.1,0
		L22,20.5z"/>
	<path id="DejaVuSans-20_00000067223676490147033450000001822728274769017225_" d="M22,24.8"/>
	<path id="DejaVuSans-6f_00000132060721207042009410000011271804957362373808_" d="M25.7,20.3c-0.3,0-0.5,0.2-0.7,0.5
		c-0.2,0.3-0.2,0.8-0.2,1.4s0.1,1.1,0.2,1.4c0.2,0.3,0.4,0.5,0.7,0.5c0.3,0,0.5-0.2,0.7-0.5c0.2-0.3,0.2-0.8,0.2-1.4
		c0-0.6-0.1-1.1-0.2-1.4C26.2,20.5,26,20.3,25.7,20.3z M25.7,19.6c0.5,0,0.8,0.2,1.1,0.7c0.3,0.5,0.4,1.1,0.4,1.9
		c0,0.8-0.1,1.5-0.4,1.9c-0.3,0.5-0.6,0.7-1.1,0.7c-0.5,0-0.8-0.2-1.1-0.7c-0.3-0.5-0.4-1.1-0.4-1.9c0-0.8,0.1-1.5,0.4-1.9
		C24.9,19.9,25.3,19.6,25.7,19.6z"/>
	<path id="DejaVuSans-66" d="M29.7,17.8v0.7h-0.5c-0.2,0-0.3,0.1-0.4,0.2c-0.1,0.1-0.1,0.3-0.1,0.6v0.4h0.9v0.6h-0.9v4.4h-0.5v-4.4
		h-0.5v-0.6h0.5v-0.3c0-0.6,0.1-1,0.3-1.2c0.2-0.3,0.4-0.4,0.8-0.4H29.7z"/>
	<path id="DejaVuSans-20_00000160910113191351137940000012039742001915687103_" d="M29.6,24.8"/>
	<path id="DejaVuSans-57_00000062887871497425223350000013437758560182308224_" d="M31.7,18.1h0.6l0.9,5.7l0.9-5.7h0.7l0.9,5.7
		l0.9-5.7h0.6l-1.1,6.7h-0.7L34.4,19l-0.9,5.8h-0.7L31.7,18.1z"/>
	<path id="DejaVuSans-50" d="M38.5,18.8v2.5h0.7c0.3,0,0.5-0.1,0.6-0.3c0.1-0.2,0.2-0.5,0.2-0.9c0-0.4-0.1-0.7-0.2-0.9
		c-0.1-0.2-0.4-0.3-0.6-0.3H38.5z M37.9,18.1h1.3c0.5,0,0.8,0.2,1.1,0.5c0.2,0.3,0.4,0.8,0.4,1.5c0,0.7-0.1,1.2-0.4,1.5
		c-0.2,0.3-0.6,0.5-1.1,0.5h-0.7v2.7h-0.6V18.1z"/>
	<path id="DejaVuSans-73_00000030487313923133659350000008445111846585779081_" d="M43.4,19.9v0.8c-0.1-0.1-0.3-0.2-0.5-0.3
		c-0.2-0.1-0.3-0.1-0.5-0.1c-0.3,0-0.5,0.1-0.6,0.2c-0.1,0.1-0.2,0.3-0.2,0.6c0,0.2,0,0.3,0.1,0.4c0.1,0.1,0.3,0.2,0.6,0.3l0.2,0.1
		c0.4,0.1,0.6,0.3,0.8,0.5c0.2,0.2,0.2,0.5,0.2,1c0,0.5-0.1,0.8-0.4,1.1c-0.2,0.3-0.6,0.4-1,0.4c-0.2,0-0.4,0-0.5-0.1
		c-0.2-0.1-0.4-0.1-0.6-0.2v-0.9c0.2,0.2,0.4,0.3,0.6,0.4c0.2,0.1,0.4,0.1,0.6,0.1c0.2,0,0.4-0.1,0.6-0.2c0.1-0.1,0.2-0.3,0.2-0.6
		c0-0.2,0-0.4-0.1-0.5c-0.1-0.1-0.3-0.2-0.6-0.3l-0.2-0.1c-0.3-0.1-0.6-0.3-0.7-0.5c-0.1-0.2-0.2-0.5-0.2-0.9c0-0.5,0.1-0.8,0.3-1.1
		c0.2-0.3,0.5-0.4,0.9-0.4c0.2,0,0.4,0,0.6,0.1C43.1,19.7,43.2,19.8,43.4,19.9z"/>
	<path id="me0be381cd4" class="st0" d="M15,39.8c0.7,0,1.3-0.4,1.8-1.2c0.5-0.7,0.8-1.8,0.8-2.8c0-1.1-0.3-2.1-0.8-2.8
		c-0.5-0.7-1.1-1.2-1.8-1.2s-1.3,0.4-1.8,1.2c-0.5,0.7-0.8,1.8-0.8,2.8c0,1.1,0.3,2.1,0.8,2.8C13.6,39.4,14.3,39.8,15,39.8z"/>
	<path id="DejaVuSans-31_00000160908095275462648950000001088847205359724982_" d="M26.3,37.5h1v-5.1l-1,0.3v-0.8l1-0.3h0.6v5.9h1
		v0.8h-2.5V37.5z"/>
	<path id="DejaVuSans-35_00000070096843932399884620000011995393458936374972_" d="M30,31.5h2.3v0.8h-1.8v1.6c0.1,0,0.2-0.1,0.3-0.1
		c0.1,0,0.2,0,0.3,0c0.5,0,0.9,0.2,1.1,0.6c0.3,0.4,0.4,1,0.4,1.7c0,0.7-0.1,1.3-0.4,1.7c-0.3,0.4-0.7,0.6-1.2,0.6
		c-0.2,0-0.4,0-0.6-0.1c-0.2,0-0.4-0.1-0.6-0.2v-0.9c0.2,0.1,0.4,0.3,0.5,0.3s0.4,0.1,0.6,0.1c0.3,0,0.6-0.1,0.8-0.4
		c0.2-0.3,0.3-0.6,0.3-1.1c0-0.5-0.1-0.8-0.3-1.1c-0.2-0.3-0.5-0.4-0.8-0.4c-0.2,0-0.3,0-0.5,0.1c-0.2,0.1-0.3,0.1-0.5,0.3V31.5z"/>
	<path id="m1936040fab" class="st1" d="M15,54.2c0.8,0,1.6-0.5,2.2-1.4c0.6-0.9,0.9-2.2,0.9-3.5c0-1.3-0.3-2.5-0.9-3.5
		c-0.6-0.9-1.4-1.4-2.2-1.4c-0.8,0-1.6,0.5-2.2,1.4s-0.9,2.2-0.9,3.5c0,1.3,0.3,2.5,0.9,3.5C13.3,53.6,14.1,54.2,15,54.2z"/>
	<path id="DejaVuSans-33" d="M28,48.1c0.3,0.1,0.5,0.3,0.7,0.6c0.2,0.3,0.2,0.7,0.2,1.1c0,0.7-0.1,1.2-0.4,1.5
		c-0.3,0.4-0.7,0.5-1.2,0.5c-0.2,0-0.4,0-0.6-0.1s-0.4-0.1-0.6-0.2v-0.9c0.2,0.1,0.3,0.3,0.5,0.3c0.2,0.1,0.4,0.1,0.6,0.1
		c0.4,0,0.6-0.1,0.8-0.3c0.2-0.2,0.3-0.5,0.3-1c0-0.4-0.1-0.7-0.3-0.9c-0.2-0.2-0.4-0.3-0.7-0.3h-0.5v-0.7h0.5
		c0.3,0,0.5-0.1,0.7-0.3c0.2-0.2,0.2-0.4,0.2-0.8c0-0.3-0.1-0.6-0.2-0.8c-0.2-0.2-0.4-0.3-0.7-0.3c-0.2,0-0.3,0-0.5,0.1
		c-0.2,0.1-0.4,0.1-0.6,0.2v-0.8c0.2-0.1,0.4-0.2,0.6-0.2c0.2,0,0.4-0.1,0.5-0.1c0.4,0,0.8,0.2,1,0.5c0.3,0.3,0.4,0.7,0.4,1.3
		c0,0.4-0.1,0.7-0.2,0.9C28.4,47.8,28.3,48,28,48.1z"/>
	<path id="DejaVuSans-30_00000015355061782334762640000007504619752722487964_" d="M31.2,45.6c-0.3,0-0.5,0.2-0.7,0.7
		c-0.2,0.5-0.2,1.1-0.2,2.1c0,0.9,0.1,1.6,0.2,2.1c0.2,0.5,0.4,0.7,0.7,0.7c0.3,0,0.5-0.2,0.7-0.7c0.2-0.5,0.2-1.1,0.2-2.1
		c0-0.9-0.1-1.6-0.2-2.1C31.8,45.8,31.5,45.6,31.2,45.6z M31.2,44.9c0.5,0,0.9,0.3,1.1,0.9c0.3,0.6,0.4,1.5,0.4,2.6
		c0,1.1-0.1,2-0.4,2.6c-0.3,0.6-0.6,0.9-1.1,0.9c-0.5,0-0.9-0.3-1.1-0.9c-0.3-0.6-0.4-1.5-0.4-2.6c0-1.1,0.1-2,0.4-2.6
		C30.4,45.2,30.8,44.9,31.2,44.9z"/>
	<path id="m864e4055d0" class="st2" d="M15,68.4c1,0,1.9-0.6,2.6-1.7s1.1-2.5,1.1-4c0-1.5-0.4-2.9-1.1-4s-1.6-1.7-2.6-1.7
		s-1.9,0.6-2.6,1.7s-1.1,2.5-1.1,4c0,1.5,0.4,2.9,1.1,4S14,68.4,15,68.4z"/>
	<path id="DejaVuSans-34_00000145052550164937271390000003562148514335341724_" d="M27.8,59.2l-1.5,3.6h1.5V59.2z M27.7,58.5h0.7
		v4.4H29v0.8h-0.6v1.6h-0.6v-1.6h-1.9v-0.9L27.7,58.5z"/>
	<path id="DejaVuSans-35_00000182516110331189199230000005184485566321966269_" d="M30,58.5h2.3v0.8h-1.8v1.6c0.1,0,0.2-0.1,0.3-0.1
		c0.1,0,0.2,0,0.3,0c0.5,0,0.9,0.2,1.1,0.6c0.3,0.4,0.4,1,0.4,1.7c0,0.7-0.1,1.3-0.4,1.7c-0.3,0.4-0.7,0.6-1.2,0.6
		c-0.2,0-0.4,0-0.6-0.1c-0.2,0-0.4-0.1-0.6-0.2v-0.9c0.2,0.1,0.4,0.3,0.5,0.3c0.2,0.1,0.4,0.1,0.6,0.1c0.3,0,0.6-0.1,0.8-0.4
		c0.2-0.3,0.3-0.6,0.3-1.1c0-0.5-0.1-0.8-0.3-1.1c-0.2-0.3-0.5-0.4-0.8-0.4c-0.2,0-0.3,0-0.5,0.1c-0.2,0.1-0.3,0.1-0.5,0.3V58.5z"/>
	<path id="m87b1eac748" class="st3" d="M15,82.5c1.1,0,2.1-0.7,2.9-1.9c0.8-1.2,1.2-2.8,1.2-4.5c0-1.7-0.4-3.3-1.2-4.5
		c-0.8-1.2-1.8-1.9-2.9-1.9s-2.1,0.7-2.9,1.9c-0.8,1.2-1.2,2.8-1.2,4.5c0,1.7,0.4,3.3,1.2,4.5C12.9,81.8,13.9,82.5,15,82.5z"/>
	<path id="DejaVuSans-36_00000098186657481539745380000017255358217644755634_" d="M27.6,74.9c-0.3,0-0.5,0.1-0.6,0.4
		c-0.2,0.3-0.2,0.7-0.2,1.1c0,0.5,0.1,0.9,0.2,1.1c0.2,0.3,0.4,0.4,0.6,0.4c0.3,0,0.5-0.1,0.6-0.4c0.2-0.3,0.2-0.7,0.2-1.1
		c0-0.5-0.1-0.9-0.2-1.1C28,75,27.8,74.9,27.6,74.9z M28.7,72.1v0.8c-0.1-0.1-0.3-0.2-0.4-0.2c-0.1-0.1-0.3-0.1-0.4-0.1
		c-0.4,0-0.7,0.2-0.9,0.6c-0.2,0.4-0.3,1-0.3,1.8c0.1-0.3,0.3-0.5,0.4-0.6c0.2-0.1,0.4-0.2,0.6-0.2c0.4,0,0.8,0.2,1,0.6
		c0.3,0.4,0.4,1,0.4,1.7c0,0.7-0.1,1.2-0.4,1.7c-0.3,0.4-0.6,0.6-1,0.6c-0.5,0-0.9-0.3-1.1-0.9c-0.3-0.6-0.4-1.5-0.4-2.6
		c0-1.1,0.2-1.9,0.5-2.5c0.3-0.6,0.8-0.9,1.3-0.9c0.1,0,0.3,0,0.4,0.1C28.4,71.9,28.5,72,28.7,72.1z"/>
	<path id="DejaVuSans-30_00000122718256740059944710000009157977334552349341_" d="M31.2,72.5c-0.3,0-0.5,0.2-0.7,0.7
		c-0.2,0.5-0.2,1.1-0.2,2.1c0,0.9,0.1,1.6,0.2,2.1c0.2,0.5,0.4,0.7,0.7,0.7c0.3,0,0.5-0.2,0.7-0.7c0.2-0.5,0.2-1.1,0.2-2.1
		c0-0.9-0.1-1.6-0.2-2.1C31.8,72.7,31.5,72.5,31.2,72.5z M31.2,71.8c0.5,0,0.9,0.3,1.1,0.9c0.3,0.6,0.4,1.5,0.4,2.6
		c0,1.1-0.1,2-0.4,2.6c-0.3,0.6-0.6,0.9-1.1,0.9c-0.5,0-0.9-0.3-1.1-0.9c-0.3-0.6-0.4-1.5-0.4-2.6c0-1.1,0.1-2,0.4-2.6
		C30.4,72.1,30.8,71.8,31.2,71.8z"/>
</g>
<text transform="matrix(1 0 0 1 151.0504 206.982)" class="st4 st5">Longitude</text>
<text transform="matrix(5.991317e-07 -1 1 5.991317e-07 34.4094 126.4282)" class="st4 st5">Latitude</text>
<text transform="matrix(1 0 0 1 136.7324 1.010895e-04)" class="st4 st5">Total Waypoints: 1540</text>
<text transform="matrix(1 0 0 1 309.6189 241.6161)" class="st4 st5">80</text>
<path id="me6975053c8" class="st6" d="M110,182.2v1.5"/>
<path id="me6975053c8_00000064322262152881996410000001498469094192326316_" class="st6" d="M148.9,182.2v1.5"/>
<path id="me6975053c8_00000045615270945923943310000000401048290333448332_" class="st6" d="M187.8,182.2v1.5"/>
<path id="me6975053c8_00000024686927287014717720000005984967599510888892_" class="st6" d="M226.8,182.2v1.5"/>
<path id="me6975053c8_00000178168430877439164220000006581489161463107979_" class="st6" d="M265.7,182.2v1.5"/>
<path id="m5d4bef76fa" class="st6" d="M80,162.2h-1.5"/>
<path id="m5d4bef76fa_00000159434433008520715580000001368403545648767893_" class="st6" d="M80,138.9h-1.5"/>
<path id="m5d4bef76fa_00000047054287974387394070000011842709063948636038_" class="st6" d="M80,115.7h-1.5"/>
<path id="m5d4bef76fa_00000048480646868109307490000003654639516685047209_" class="st6" d="M80,92.5h-1.5"/>
<path id="m5d4bef76fa_00000174600796172250573760000002456586591976409014_" class="st6" d="M80,69.2h-1.5"/>
<path id="m5d4bef76fa_00000029035102698062848880000013638944839889452986_" class="st6" d="M80,46h-1.5"/>
<path class="st7" d="M186.5,45.1l-9.8,43.5l50.6,52.2l-101.1,0l50.4-55.7l64.2,38.4l-64.2,38.4l-64.2-38.4l64.1-41.9l66.6,28.8
	l-25.6,46.8l-82.3,0l-25.4-46.8l66.8-32.3l65.7,22.6l0,45.3l-65.7,22.6l-65.7-22.6l0-45.3l65.7-26.1l63.9,18.5l15.9,41.2l-44.4,33.1
	l-70.8,0l-44.4-33.1l15.9-41.2l63.7-22l62.1,15.2l25.6,36.9l-25.6,37.1l-62.1,15.2l-61.9-15.2l-25.7-37.1l25.7-36.9l61.9-19
	l10.3-22.3"/>
<rect x="80" y="38.6" class="st8" width="192.7" height="143.6"/>
<path class="st9" d="M187.8,46L187.8,46L187.8,46L187.8,46L187.8,46l-0.1,0L187.8,46L187.8,46L187.8,46L187.8,46L187.8,46L187.8,46
	L187.8,46L187.8,46L187.8,46L187.8,46L187.8,46L187.8,46L187.8,46L187.8,46L187.8,46L187.8,46L187.8,46l-0.1,0L187.8,46L187.8,46
	L187.8,46L187.8,46l-0.1,0.3l-0.2,0.7l-0.5,3.1l-0.5,2.6l-0.5,2.2l-0.6,2.2l-0.7,2.1l-0.9,2.4l-2.1,5.5l-0.5,1.7l-0.5,2.2l-0.6,3
	l-1.4,6.8l-0.7,3l-0.8,3l-0.4,1.3l0.2,0.2l0.7,0.5l0.9,0.9l1.6,1.7l2.8,2.9l6.6,6.8l17.4,18l14.4,15l4.2,4.3l0.7,0.9l0.8,1.1l0,0
	l-0.2,0l-0.8,0l-3.5-0.1l-9.1-0.1l-4.9,0l-9.8,0.2l-10.9,0.2l-6.5,0l-9.5-0.1l-12.5-0.1l-10,0l-19.7,0l-3,0l-0.2,0l0.1-0.1l0.5-0.4
	l0.9-0.9l1.6-1.7l4.6-5.1l2.5-3l4.6-5.5l2.8-3.2l3.2-3.5l9.2-9.9l7-7.8l5-5.6l6.6-7.3l1.3-1.5l0.3-0.3l0.2,0.1L186,91l3.6,2.1
	l12.2,7.1l8.8,5.3l8.5,5.1l15,8.9l4.9,2.9l1.4,0.8l0.3,0.2l-0.1,0.1l-0.7,0.4l-9.8,5.5l-4.8,2.9l-6.1,3.9l-5.9,3.7l-4.5,2.7
	l-10.6,6.1l-6.7,4l-10.1,6.1l-4.7,2.8l-0.1,0l-0.3-0.1l-0.9-0.5l-3.6-2.4l-3.8-2.4L164,154l-4.7-2.7l-12.5-7.1l-4.2-2.5l-14.6-9
	l-15-8.9l-0.6-0.4l0,0l0.1-0.1l1-0.6l7.3-4.5l4.4-2.9l7-4.8l5.8-3.9l5-3.2l18.1-11.6l9.6-6.4l4-2.6l1.7-1l0.2,0.1l1.4,0.7l3.3,1.5
	l6.1,2.7l8.7,3.7l11.3,4.7l8,3.5l13,5.7l7.4,3.1l5.1,2.2l1.7,0.8l-0.1,0.1l-1.4,2.3l-1.1,2.1l-2.4,4.5l-3.2,6l-3.4,6.5l-2.5,4.5
	l-4.8,8.5l-4.4,8l-0.7,1.4l-0.7,1.5l-0.7,0.9l-0.2,0.1l-0.6,0.1l-1.5,0l-3.5,0l-23.2,0l-16.4,0.1l-36.1-0.1l-0.6-0.1l-0.2-0.2
	l-0.3-0.3l-0.5-0.7l-0.7-1.2l-2.9-5.4l-3.5-6.5l-5.8-10.7l-8.3-15.6l-2.2-4l-0.5-1.2l-0.3-0.8l0.2-0.2l0.4-0.3l1-0.6l2-1l15.6-7.4
	l19.4-9.5l14.2-6.7l13.7-6.6l0.5,0.2l2.4,0.9l4,1.4l11.6,4l18.5,6.1l8.6,3l14.6,5.2l2.5,0.7l1.8,0.5l0.8,0.4l0.1,0.2l0.1,0.3
	l0.1,0.7l0,1.5l0,4.6l0,5.9l0.1,5.9l0,4.9l-0.1,4.2l-0.2,10.1l0,3.4l0,2.9l-0.1,0.6l-0.1,0.1l-0.5,0.2l-1.4,0.5l-4.6,1.4l-4.1,1.4
	l-5.7,2l-6.7,2.5l-9.6,3.5l-6.1,2.1l-19.3,6.7l-5.6,1.9l-1.4,0.4l-0.3-0.1l-2.3-0.9l-2.7-0.9l-8.5-2.8l-27.2-9.1l-19.2-6.6l-3.4-1
	l-1-0.3l-0.9-0.4l-0.1-0.1l0-0.3l0-0.9l0-4.3l0-8.8l-0.2-25.6l-0.1-3.9l0-1.2l0.1-0.1l0.3-0.2l1.2-0.4l4.5-1.7l5.5-2.1l5.7-2.3
	l9.2-3.8l7.8-3.2l9.4-3.7l10.6-4.3l9.1-3.7l1.9-0.7l0.4,0.1l2.7,0.8l3.3,0.9l4.9,1.4l23.8,6.7l26.3,7.6l1.8,0.5l0.2,0.1l0.2,0.3
	l0.2,0.7l2.7,7.7l1.3,3.4l1.7,4.1l3.9,9.1l2.2,5.6l2.6,6.5l1.1,2.9l0.1,0.6l0,0.1l-0.2,0.1l-2,1.3l-6.6,5l-5.7,4.5l-6.8,5.3l-5.3,4
	l-8.9,6.6l-4.1,3.1l-2,1.6l-1.2,1l-0.9,0.5l-0.3,0l-0.9,0l-25,0l-22.4,0.2l-14.4,0l-7.2-0.1l-0.3-0.2l-0.9-0.8l-2.3-1.8l-4.1-3.1
	l-4.1-3l-5.2-3.7l-8.4-5.9l-4.1-3l-13.7-10.1l-1.3-0.9l-0.1-0.1l0-0.2l0.4-1l0.5-1.5l1.7-4.8l2.4-6.3l5-13.4l2.3-5.9l2.2-5.6
	l0.8-2.3l0.2-0.1L114,93l6.2-2l5.9-2l6.2-2.2l16-5.8l8.2-2.8l8.9-3.1l10.3-3.6l0.3,0l6.4,1.6l5.6,1.3L230,84.4l3.9,0.9l3.7,0.9
	l0.2,0.1l0.5,0.6l2,3l1.8,2.7l2.6,3.8l2.6,3.6l6.8,9.2l3,4.3l3.6,5l2.2,3.2l0.5,0.9l-0.1,0.1l-0.3,0.4l-0.5,0.7l-1.2,1.9l-2.3,3.5
	l-6.4,9.8l-5.4,8.1l-3,4.4l-3.6,5.2l-1.8,2.8l-0.2,0.1l-0.8,0.2l-4.5,1l-5.4,1.3l-7.1,1.8l-7.9,2.1l-9.5,2.5l-7.1,1.8l-19.2,4.7
	l-0.4-0.1l-1.7-0.5l-4-0.9l-6.9-1.6l-18.6-4.4l-15.5-3.8l-11.6-2.9l-2.6-0.6l-0.4-0.2l-0.3-0.4l-0.6-0.9l-1.6-2.4l-1.8-2.6L108,150
	l-10.1-14l-6.1-8.7l-1.3-1.9l-1-1.4l-0.2-0.4l0.1-0.1l1.5-2l5.6-8.5l8.7-12.9l4.2-6l3.2-4.6l0.9-1.4l0.7-1.1l0.2-0.1l0.5-0.2
	l11.7-3.5l7.7-2.4l20.5-6.6l21-6.5l0.1-0.1l0.2-0.4l1.3-2.6l2.9-6.1l2.5-4.9l2.2-4.1l0.7-1.3l0.2-0.5l0-0.1l0,0l-0.2,0.2l-0.4,0.4
	l0.1-0.1l0.4-0.8l0.4-0.7l0.2-0.5l0.1-0.3l0.1-0.4l0.2-0.2l0,0l0,0l0,0l0.1,0l0,0L187.8,46L187.8,46"/>
<rect x="80" y="38.6" class="st8" width="192.7" height="143.6"/>
<path class="st10" d="M187.8,46L187.8,46L187.8,46L187.8,46L187.8,46L187.8,46L187.8,46L187.8,46L187.8,46L187.8,46L187.8,46
	L187.8,46L187.8,46L187.8,46L187.8,46L187.8,46L187.8,46L187.8,46L187.8,46L187.8,46L187.8,46L187.8,46L187.8,46L187.8,46L187.8,46
	L187.8,46L187.8,46L187.8,46L187.8,46L187.8,46L187.8,46l0.1-0.1l-0.3,0.4l-0.2,0.7l-0.4,1.4l-0.4,1.8l-0.4,2.1l-0.5,2.5l-0.5,1.9
	l-0.9,3.3l-1.1,4l-2,7.7l-1.1,4.5l-1.5,5.6l-1.6,5.9l-0.1,0.7l0,0.4l0.5,0.2l0.4,0.2l0.7,0.6l0.9,0.8l0.9,0.9l1.5,1.6l13.4,14.1
	l2.6,2.7l6.4,6.7l4.6,4.8l8.1,8.5l8.8,9.3l1.7,1.7l0.1,0.1l-0.1,0l-1,0l-9.6-0.1l-4.2,0l-10,0.2l-17,0.1l-35.1-0.2l-15.8,0l-8.8-0.1
	l0.1,0l0.5-0.3l0.6-0.5l1.1-1.1l1.4-1.6l3-3.3l2-2.3l5.4-6.2l3.5-3.9l18.2-19.9l5.2-5.8l4.9-5.3l2.1-2.3l1.9-2.1l0.8-0.9l0.1-0.1
	l0.1,0l0.4,0.3l6.2,4l2.7,1.6l15.9,9.1l18.5,11.3l7.6,4.6l12.9,7.8l0.1,0l0,0l-0.4,0.3l-5.7,3.2l-2.6,1.5l-5.4,3.4l-7.5,4.6
	l-10.8,6.4l-16.3,9.6l-16.1,9.5l-0.5-0.3l-5.4-3.5l-2.5-1.5l-5-2.9l-7.5-4.3l-10.9-6.6l-12.5-7.6l-7.2-4.3l-6.8-4.2l-3.7-2.2
	l-1.4-0.9l-0.7-0.4l0,0l0.4-0.2l2-1.2l3.2-2l2.8-1.8l11.4-7.6l8.6-5.5l15.5-9.9l20.7-13.5l0.1,0l1.2,0.6l1.8,0.8l6.4,2.8l22.8,9.9
	l14,6.1l20.4,8.9l0,0l-0.1,0.1l-0.3,0.4l-0.4,0.6l-0.9,1.5l-0.7,1.4l-1.4,2.6l-1.3,2.5l-2.6,4.7l-4.6,8.2l-3.1,5.5l-4.4,8l-2.3,4.1
	l-2.5,4.6l-1.2,2.3l-0.3,0.4l-0.8,0l-26.6,0l-10.9-0.1l-44.2-0.2l-0.2-0.2l-0.4-0.6l-1.1-2l-1.1-2.2l-4.8-8.8l-2.2-4.2l-2.9-5.5
	l-3.1-5.9l-5.5-10.3l-1.5-2.8l-2.1-4.4l0.5-0.3l1.2-0.6l5.4-2.5l20.5-9.9l12.6-6l24-11.4l3-1.3l0.8,0.4l1.5,0.6l3,1l6.4,2.2l11.7,4
	l9.9,3.5l9.1,3.2l18.1,6.3l5,1.7l0,0.2l0,0.5l-0.1,7l0,4.3l-0.1,18.5l-0.1,14.2l0,0.5l-0.1,0.2l-0.3,0.1l-2.3,0.7l-2.9,0.9l-2.4,0.8
	l-4.7,1.7l-7.5,2.7l-8.7,3l-16.1,5.5l-10.6,3.7l-3.3,1.2l-5.9,1.9l-1.2,0.3l-0.8-0.4l-1.2-0.5l-1.6-0.6l-14.8-4.9l-7.8-2.7
	l-39.5-13.7l0.1-0.7l0.1-1.6l0-2l-0.2-10.7l0-10.8l0.1-14.8l0-2.5l0-2l0.4-0.1l1.6-0.6l3.1-1.1l2.9-1.1l13.5-5.6l8.8-3.5l21.6-8.5
	l6.1-2.4l3.6-1.4l4.4-1.6l0.2,0.1l0.7,0.3l2,0.6l2.6,0.7l6.2,1.7l7.6,2.1l5.1,1.5l22.9,6.7l16.1,4.8l0.1,0.4l0.7,2.6l0.7,2.1
	l0.8,2.1l3.2,7.9l1.9,4.9l4.3,11.1l2.8,7.2l0.9,2.8l-1.1,0.5l-0.8,0.5l-1,0.8l-12.5,9.6l-4.6,3.4l-11.9,8.9l-5.3,4l-5.9,4.5
	l-0.4,0.3l-0.4,0.3l-0.3,0.2l-0.1,0l-0.4,0l-1.7-0.1l-4.3,0l-9.3,0.1l-8.1,0l-10.8,0l-20.6,0l-14.7,0l-0.6-0.1l-0.1-0.2l-0.4-0.4
	l-0.9-0.8l-1.5-1.2l-2.1-1.5l-10.8-7.7l-8.7-6.5l-8.3-6.2l-5.8-4.3l-5.6-4.3l0-0.1l0.2-0.2l0.4-0.6l0.4-0.9l0.7-2l1.1-3.2l4-10.7
	l7.1-18.5l1.7-4.7l0.1-0.4l0.3,0l1-0.3l1.8-0.5l3.3-1l3.5-1.2l7.6-2.7l20.9-7.3l12.7-4.4l6.5-2.3l6.2-2l0.1,0l0.5,0.2l0.9,0.3
	l1.5,0.4l3.5,0.8l4.5,1l50.8,12.4l0.2,0.1l0.1,0.2l0.4,0.7l0.8,1.3l1.2,2l1,1.5l7.1,9.8l11.3,15.9l1.5,2.1l2.1,3.3l-0.7,0.5
	l-0.5,0.6l-1,1.4L251.6,141l-4.6,6.8l-6.4,9.2l-1.7,2.6l-0.7,0.8l-5.6,1.1l-3.6,0.9l-27.7,7l-12.7,3.2l-6.9,1.8l-5.1,1.2l-0.4,0
	l-0.9-0.4l-1.5-0.5l-1.9-0.5l-7.9-1.8l-20.4-4.9l-28.9-7.1l-0.4-0.1l-0.3-0.6l-0.7-1.2l-0.9-1.4l-0.8-1.1l-1.3-1.8l-2-2.7l-5.8-8.1
	l-4.5-6.5l-6.8-9.6l-1.2-1.9l-1.1-1.9l0.7-0.6l0.5-0.6l0.8-1.1l2.1-3.4l1.2-1.8l3.7-5.6l5.3-7.5l7.3-10.1l2.4-3.4l1.9-2.8l0.8-0.2
	l2.9-0.7l4.1-1.2l5.6-1.8l5.8-1.9l5.4-1.7l26.4-8.1l3.7-1.1l3.8-1.1l2.1-0.6l0.8-0.2l0.4-0.1l0-0.1l0.1-0.3l0.8-2.2l1.9-3.9l2.4-4.6
	l1.4-2.8l0.6-1.1l0.4-0.7l0.9-1.9l1.3-3l0,0l-0.1,0l-0.2,0l0,0l0-0.1l0-0.2l0.5-1.1l0.1-0.1l0.1-0.2l0,0L187.8,46L187.8,46"/>
<path class="st11" d="M80,182.2V38.6"/>
<path class="st11" d="M272.7,182.2V38.6"/>
<path class="st11" d="M80,182.2h192.7"/>
<path class="st11" d="M80,38.6h192.7"/>
<path class="st12" d="M186.5,46.5c0.4,0,0.7-0.1,1-0.4c0.3-0.3,0.4-0.6,0.4-1s-0.1-0.7-0.4-1c-0.3-0.3-0.6-0.4-1-0.4
	c-0.4,0-0.7,0.1-1,0.4c-0.3,0.3-0.4,0.6-0.4,1s0.1,0.7,0.4,1C185.8,46.3,186.1,46.5,186.5,46.5z"/>
<path class="st13" d="M176.7,91.2c0.7,0,1.4-0.3,1.8-0.8c0.5-0.5,0.8-1.2,0.8-1.8c0-0.7-0.3-1.4-0.8-1.8c-0.5-0.5-1.2-0.8-1.8-0.8
	c-0.7,0-1.4,0.3-1.8,0.8c-0.5,0.5-0.8,1.2-0.8,1.8c0,0.7,0.3,1.4,0.8,1.8S176,91.2,176.7,91.2z"/>
<path class="st14" d="M227.3,143.6c0.7,0,1.4-0.3,2-0.8s0.8-1.2,0.8-2c0-0.7-0.3-1.4-0.8-2s-1.2-0.8-2-0.8s-1.4,0.3-2,0.8
	s-0.8,1.2-0.8,2c0,0.7,0.3,1.4,0.8,2S226.5,143.6,227.3,143.6z"/>
<path class="st15" d="M126.1,143.8c0.8,0,1.6-0.3,2.1-0.9c0.6-0.6,0.9-1.3,0.9-2.1s-0.3-1.6-0.9-2.1c-0.6-0.6-1.3-0.9-2.1-0.9
	s-1.6,0.3-2.1,0.9c-0.6,0.6-0.9,1.3-0.9,2.1s0.3,1.6,0.9,2.1C124.6,143.5,125.3,143.8,126.1,143.8z"/>
<path class="st16" d="M176.5,88.2c0.8,0,1.6-0.3,2.2-0.9c0.6-0.6,0.9-1.3,0.9-2.2c0-0.8-0.3-1.6-0.9-2.2c-0.6-0.6-1.3-0.9-2.2-0.9
	c-0.8,0-1.6,0.3-2.2,0.9c-0.6,0.6-0.9,1.3-0.9,2.2c0,0.8,0.3,1.6,0.9,2.2C174.9,87.9,175.7,88.2,176.5,88.2z"/>
<path class="st17" d="M240.8,126.4c0.8,0,1.5-0.3,2.1-0.9c0.5-0.5,0.9-1.3,0.9-2.1c0-0.8-0.3-1.5-0.9-2.1c-0.5-0.5-1.3-0.9-2.1-0.9
	s-1.5,0.3-2.1,0.9c-0.5,0.5-0.9,1.3-0.9,2.1c0,0.8,0.3,1.5,0.9,2.1C239.2,126.1,240,126.4,240.8,126.4z"/>
<path class="st18" d="M176.5,164.7c0.8,0,1.5-0.3,2-0.8c0.5-0.5,0.8-1.3,0.8-2c0-0.8-0.3-1.5-0.8-2c-0.5-0.5-1.3-0.8-2-0.8
	c-0.8,0-1.5,0.3-2,0.8c-0.5,0.5-0.8,1.3-0.8,2c0,0.8,0.3,1.5,0.8,2C175,164.4,175.8,164.7,176.5,164.7z"/>
<path class="st19" d="M112.3,126.4c0.8,0,1.5-0.3,2.1-0.9c0.6-0.6,0.9-1.3,0.9-2.1s-0.3-1.5-0.9-2.1c-0.6-0.6-1.3-0.9-2.1-0.9
	s-1.5,0.3-2.1,0.9c-0.6,0.6-0.9,1.3-0.9,2.1s0.3,1.5,0.9,2.1C110.7,126.1,111.5,126.4,112.3,126.4z"/>
<path class="st19" d="M176.3,84.6c0.8,0,1.5-0.3,2.1-0.9s0.9-1.3,0.9-2.1s-0.3-1.5-0.9-2.1s-1.3-0.9-2.1-0.9c-0.8,0-1.5,0.3-2.1,0.9
	s-0.9,1.3-0.9,2.1s0.3,1.5,0.9,2.1S175.6,84.6,176.3,84.6z"/>
<path class="st20" d="M242.9,113.3c0.7,0,1.5-0.3,2-0.8c0.5-0.5,0.8-1.2,0.8-2c0-0.7-0.3-1.5-0.8-2c-0.5-0.5-1.2-0.8-2-0.8
	c-0.7,0-1.5,0.3-2,0.8c-0.5,0.5-0.8,1.2-0.8,2c0,0.7,0.3,1.5,0.8,2C241.5,113,242.2,113.3,242.9,113.3z"/>
<path class="st21" d="M217.4,159.9c0.7,0,1.4-0.3,1.9-0.8c0.5-0.5,0.8-1.2,0.8-1.9c0-0.7-0.3-1.4-0.8-1.9c-0.5-0.5-1.2-0.8-1.9-0.8
	c-0.7,0-1.4,0.3-1.9,0.8c-0.5,0.5-0.8,1.2-0.8,1.9c0,0.7,0.3,1.4,0.8,1.9C216,159.6,216.7,159.9,217.4,159.9z"/>
<path class="st22" d="M135.1,160c0.7,0,1.4-0.3,2-0.8c0.5-0.5,0.8-1.2,0.8-2c0-0.7-0.3-1.4-0.8-2c-0.5-0.5-1.2-0.8-2-0.8
	c-0.7,0-1.4,0.3-2,0.8c-0.5,0.5-0.8,1.2-0.8,2c0,0.7,0.3,1.4,0.8,2C133.6,159.7,134.3,160,135.1,160z"/>
<path class="st23" d="M109.7,113.2c0.7,0,1.4-0.3,1.9-0.8c0.5-0.5,0.8-1.2,0.8-1.9s-0.3-1.4-0.8-1.9c-0.5-0.5-1.2-0.8-1.9-0.8
	s-1.4,0.3-1.9,0.8c-0.5,0.5-0.8,1.2-0.8,1.9s0.3,1.4,0.8,1.9C108.3,112.9,109,113.2,109.7,113.2z"/>
<path class="st20" d="M176.5,81c0.7,0,1.5-0.3,2-0.8c0.5-0.5,0.8-1.2,0.8-2c0-0.7-0.3-1.5-0.8-2c-0.5-0.5-1.2-0.8-2-0.8
	c-0.7,0-1.5,0.3-2,0.8c-0.5,0.5-0.8,1.2-0.8,2c0,0.7,0.3,1.5,0.8,2C175.1,80.7,175.8,81,176.5,81z"/>
<path class="st24" d="M242.2,103.4c0.7,0,1.4-0.3,1.9-0.8s0.8-1.2,0.8-1.9s-0.3-1.4-0.8-1.9s-1.2-0.8-1.9-0.8
	c-0.7,0-1.4,0.3-1.9,0.8s-0.8,1.2-0.8,1.9s0.3,1.4,0.8,1.9S241.5,103.4,242.2,103.4z"/>
<path class="st25" d="M242.2,148.7c0.7,0,1.3-0.3,1.8-0.8c0.5-0.5,0.8-1.1,0.8-1.8c0-0.7-0.3-1.3-0.8-1.8c-0.5-0.5-1.1-0.8-1.8-0.8
	s-1.3,0.3-1.8,0.8c-0.5,0.5-0.8,1.1-0.8,1.8c0,0.7,0.3,1.3,0.8,1.8C240.9,148.4,241.5,148.7,242.2,148.7z"/>
<path class="st25" d="M176.5,171.3c0.7,0,1.3-0.3,1.8-0.8s0.8-1.1,0.8-1.8s-0.3-1.3-0.8-1.8s-1.1-0.8-1.8-0.8s-1.3,0.3-1.8,0.8
	c-0.5,0.5-0.8,1.1-0.8,1.8s0.3,1.3,0.8,1.8C175.2,171,175.8,171.3,176.5,171.3z"/>
<path class="st26" d="M110.8,148.7c0.7,0,1.4-0.3,1.9-0.8c0.5-0.5,0.8-1.2,0.8-1.9c0-0.7-0.3-1.4-0.8-1.9c-0.5-0.5-1.2-0.8-1.9-0.8
	c-0.7,0-1.4,0.3-1.9,0.8c-0.5,0.5-0.8,1.2-0.8,1.9c0,0.7,0.3,1.4,0.8,1.9C109.4,148.5,110.1,148.7,110.8,148.7z"/>
<path class="st13" d="M110.8,103.4c0.7,0,1.4-0.3,1.8-0.8s0.8-1.2,0.8-1.8s-0.3-1.4-0.8-1.8c-0.5-0.5-1.2-0.8-1.8-0.8
	s-1.4,0.3-1.8,0.8c-0.5,0.5-0.8,1.2-0.8,1.8s0.3,1.4,0.8,1.8S110.1,103.4,110.8,103.4z"/>
<path class="st24" d="M176.5,77.3c0.7,0,1.4-0.3,1.9-0.8c0.5-0.5,0.8-1.2,0.8-1.9s-0.3-1.4-0.8-1.9c-0.5-0.5-1.2-0.8-1.9-0.8
	s-1.4,0.3-1.9,0.8c-0.5,0.5-0.8,1.2-0.8,1.9s0.3,1.4,0.8,1.9C175.1,77,175.8,77.3,176.5,77.3z"/>
<path class="st27" d="M240.4,95.7c0.7,0,1.3-0.3,1.8-0.8c0.5-0.5,0.8-1.1,0.8-1.8c0-0.7-0.3-1.3-0.8-1.8c-0.5-0.5-1.1-0.8-1.8-0.8
	c-0.7,0-1.3,0.3-1.8,0.8c-0.5,0.5-0.8,1.1-0.8,1.8c0,0.7,0.3,1.3,0.8,1.8C239.1,95.4,239.7,95.7,240.4,95.7z"/>
<path class="st28" d="M256.3,136.8c0.7,0,1.3-0.3,1.8-0.7s0.7-1.1,0.7-1.8c0-0.7-0.3-1.3-0.7-1.8s-1.1-0.7-1.8-0.7
	c-0.7,0-1.3,0.3-1.8,0.7s-0.7,1.1-0.7,1.8c0,0.7,0.3,1.3,0.7,1.8S255.6,136.8,256.3,136.8z"/>
<path class="st29" d="M211.9,170c0.7,0,1.3-0.3,1.8-0.7s0.7-1.1,0.7-1.8s-0.3-1.3-0.7-1.8c-0.5-0.5-1.1-0.7-1.8-0.7
	c-0.7,0-1.3,0.3-1.8,0.7c-0.5,0.5-0.7,1.1-0.7,1.8s0.3,1.3,0.7,1.8C210.6,169.7,211.2,170,211.9,170z"/>
<path class="st28" d="M141.1,169.9c0.7,0,1.3-0.3,1.8-0.7s0.7-1.1,0.7-1.8c0-0.7-0.3-1.3-0.7-1.8s-1.1-0.7-1.8-0.7
	c-0.7,0-1.3,0.3-1.8,0.7c-0.5,0.5-0.7,1.1-0.7,1.8c0,0.7,0.3,1.3,0.7,1.8C139.8,169.7,140.4,169.9,141.1,169.9z"/>
<path class="st29" d="M96.8,136.9c0.7,0,1.3-0.3,1.8-0.7c0.5-0.5,0.7-1.1,0.7-1.8c0-0.7-0.3-1.3-0.7-1.8c-0.5-0.5-1.1-0.7-1.8-0.7
	c-0.7,0-1.3,0.3-1.8,0.7c-0.5,0.5-0.7,1.1-0.7,1.8c0,0.7,0.3,1.3,0.7,1.8C95.4,136.6,96.1,136.9,96.8,136.9z"/>
<path class="st29" d="M112.6,95.7c0.7,0,1.3-0.3,1.8-0.7s0.7-1.1,0.7-1.8s-0.3-1.3-0.7-1.8c-0.5-0.5-1.1-0.7-1.8-0.7
	c-0.7,0-1.3,0.3-1.8,0.7c-0.5,0.5-0.7,1.1-0.7,1.8s0.3,1.3,0.7,1.8C111.3,95.4,112,95.7,112.6,95.7z"/>
<path class="st29" d="M176.3,73.7c0.7,0,1.3-0.3,1.8-0.7s0.7-1.1,0.7-1.8s-0.3-1.3-0.7-1.8c-0.5-0.5-1.1-0.7-1.8-0.7
	s-1.3,0.3-1.8,0.7c-0.5,0.5-0.7,1.1-0.7,1.8s0.3,1.3,0.7,1.8S175.7,73.7,176.3,73.7z"/>
<path class="st28" d="M238.4,88.9c0.7,0,1.3-0.3,1.8-0.7c0.5-0.5,0.7-1.1,0.7-1.8s-0.3-1.3-0.7-1.8c-0.5-0.5-1.1-0.7-1.8-0.7
	c-0.7,0-1.3,0.3-1.8,0.7s-0.7,1.1-0.7,1.8s0.3,1.3,0.7,1.8C237.1,88.7,237.7,88.9,238.4,88.9z"/>
<path class="st30" d="M263.9,125.8c0.6,0,1.3-0.3,1.7-0.7c0.5-0.5,0.7-1.1,0.7-1.7c0-0.6-0.3-1.3-0.7-1.7c-0.5-0.5-1.1-0.7-1.7-0.7
	c-0.6,0-1.3,0.3-1.7,0.7s-0.7,1.1-0.7,1.7c0,0.6,0.3,1.3,0.7,1.7S263.3,125.8,263.9,125.8z"/>
<polyline class="st8" points="272.7,182.2 80,182.2 80,38.6 272.7,38.6 "/>
<path class="st30" d="M238.4,162.9c0.6,0,1.3-0.3,1.7-0.7c0.5-0.5,0.7-1.1,0.7-1.7c0-0.6-0.3-1.3-0.7-1.7c-0.5-0.5-1.1-0.7-1.7-0.7
	c-0.6,0-1.3,0.3-1.7,0.7s-0.7,1.1-0.7,1.7c0,0.6,0.3,1.3,0.7,1.7S237.7,162.9,238.4,162.9z"/>
<polyline class="st8" points="272.7,182.2 80,182.2 80,38.6 272.7,38.6 "/>
<path class="st30" d="M176.3,178.1c0.6,0,1.3-0.3,1.7-0.7s0.7-1.1,0.7-1.7c0-0.6-0.3-1.3-0.7-1.7c-0.5-0.5-1.1-0.7-1.7-0.7
	c-0.6,0-1.3,0.3-1.7,0.7c-0.5,0.5-0.7,1.1-0.7,1.7c0,0.6,0.3,1.3,0.7,1.7C175.1,177.9,175.7,178.1,176.3,178.1z"/>
<polyline class="st8" points="272.7,182.2 80,182.2 80,38.6 272.7,38.6 "/>
<path class="st28" d="M114.5,162.9c0.7,0,1.3-0.3,1.8-0.7s0.7-1.1,0.7-1.8c0-0.7-0.3-1.3-0.7-1.8c-0.5-0.5-1.1-0.7-1.8-0.7
	s-1.3,0.3-1.8,0.7c-0.5,0.5-0.7,1.1-0.7,1.8c0,0.7,0.3,1.3,0.7,1.8S113.8,162.9,114.5,162.9z"/>
<polyline class="st8" points="272.7,182.2 80,182.2 80,38.6 272.7,38.6 "/>
<path class="st31" d="M88.7,125.8c0.7,0,1.3-0.3,1.7-0.7c0.5-0.5,0.7-1.1,0.7-1.7c0-0.7-0.3-1.3-0.7-1.7c-0.5-0.5-1.1-0.7-1.7-0.7
	s-1.3,0.3-1.7,0.7c-0.5,0.5-0.7,1.1-0.7,1.7c0,0.7,0.3,1.3,0.7,1.7C87.4,125.6,88.1,125.8,88.7,125.8z"/>
<path class="st31" d="M114.5,88.9c0.7,0,1.3-0.3,1.7-0.7c0.5-0.5,0.7-1.1,0.7-1.7c0-0.7-0.3-1.3-0.7-1.7c-0.5-0.5-1.1-0.7-1.7-0.7
	s-1.3,0.3-1.7,0.7c-0.5,0.5-0.7,1.1-0.7,1.7c0,0.7,0.3,1.3,0.7,1.7C113.2,88.6,113.8,88.9,114.5,88.9z"/>
<path class="st32" d="M176.3,70c0.7,0,1.3-0.3,1.8-0.7c0.5-0.5,0.7-1.1,0.7-1.8c0-0.7-0.3-1.3-0.7-1.8c-0.5-0.5-1.1-0.7-1.8-0.7
	s-1.3,0.3-1.8,0.7c-0.5,0.5-0.7,1.1-0.7,1.8c0,0.7,0.3,1.3,0.7,1.8C175,69.7,175.7,70,176.3,70z"/>
<path class="st33" d="M186.6,46.7c0.4,0,0.8-0.2,1.1-0.4c0.3-0.3,0.4-0.7,0.4-1.1s-0.2-0.8-0.4-1.1c-0.3-0.3-0.7-0.4-1.1-0.4
	c-0.4,0-0.8,0.2-1.1,0.4c-0.3,0.3-0.4,0.7-0.4,1.1s0.2,0.8,0.4,1.1C185.8,46.5,186.2,46.7,186.6,46.7z"/>
<path id="DejaVuSans-20" d="M159.8,36"/>
<path id="DejaVuSans-20_00000152228363931583301940000004214215290430810784_" d="M190.1,36"/>
<text transform="matrix(1 0 0 1 71.9791 48.2747)" class="st4 st5">0</text>
<text transform="matrix(1 0 0 1 67.8752 71.5115)" class="st4 st5">20</text>
<text transform="matrix(1 0 0 1 67.8748 94.6792)" class="st4 st5">40</text>
<text transform="matrix(1 0 0 1 67.875 118.1741)" class="st4 st5">60</text>
<text transform="matrix(1 0 0 1 67.8755 141.0444)" class="st4 st5">80</text>
<text transform="matrix(1 0 0 1 63.7715 164.7374)" class="st4 st5">100</text>
<text transform="matrix(1 0 0 1 186.485 190.9813)" class="st4 st5">0</text>
<text transform="matrix(1 0 0 1 222.5077 190.9818)" class="st4 st5">20</text>
<text transform="matrix(1 0 0 1 261.8539 190.9814)" class="st4 st5">40</text>
<text transform="matrix(1 0 0 1 143.6028 190.9813)" class="st4 st5">-20</text>
<text transform="matrix(1 0 0 1 103.2081 190.9815)" class="st4 st5">-40</text>
</svg>
