<?xml version="1.0" encoding="utf-8" standalone="no"?>
<!DOCTYPE svg PUBLIC "-//W3C//DTD SVG 1.1//EN"
  "http://www.w3.org/Graphics/SVG/1.1/DTD/svg11.dtd">
<svg xmlns:xlink="http://www.w3.org/1999/xlink" width="576pt" height="432pt" viewBox="0 0 576 432" xmlns="http://www.w3.org/2000/svg" version="1.1">
 <metadata>
  <rdf:RDF xmlns:dc="http://purl.org/dc/elements/1.1/" xmlns:cc="http://creativecommons.org/ns#" xmlns:rdf="http://www.w3.org/1999/02/22-rdf-syntax-ns#">
   <cc:Work>
    <dc:type rdf:resource="http://purl.org/dc/dcmitype/StillImage"/>
    <dc:date>2023-05-01T11:18:24.818896</dc:date>
    <dc:format>image/svg+xml</dc:format>
    <dc:creator>
     <cc:Agent>
      <dc:title>Matplotlib v3.6.3, https://matplotlib.org/</dc:title>
     </cc:Agent>
    </dc:creator>
   </cc:Work>
  </rdf:RDF>
 </metadata>
 <defs>
  <style type="text/css">*{stroke-linejoin: round; stroke-linecap: butt}</style>
 </defs>
 <g id="figure_1">
  <g id="patch_1">
   <path d="M 0 432 
L 576 432 
L 576 0 
L 0 0 
z
" style="fill: #ffffff"/>
  </g>
  <g id="axes_1">
   <g id="patch_2">
    <path d="M 72 384.48 
L 518.4 384.48 
L 518.4 51.84 
L 72 51.84 
z
" style="fill: #ffffff"/>
   </g>
   <g id="matplotlib.axis_1">
    <g id="xtick_1">
     <g id="line2d_1">
      <defs>
       <path id="mf51430a731" d="M 0 0 
L 0 3.5 
" style="stroke: #000000; stroke-width: 0.8"/>
      </defs>
      <g>
       <use xlink:href="#mf51430a731" x="141.48068" y="384.48" style="stroke: #000000; stroke-width: 0.8"/>
      </g>
     </g>
     <g id="text_1">
      <text style="font: 10px 'DejaVu Sans', 'Bitstream Vera Sans', 'Computer Modern Sans Serif', 'Lucida Grande', 'Verdana', 'Geneva', 'Lucid', 'Arial', 'Helvetica', 'Avant Garde', sans-serif; text-anchor: middle" x="141.48068" y="399.078438" transform="rotate(-0 141.48068 399.078438)">−40</text>
     </g>
    </g>
    <g id="xtick_2">
     <g id="line2d_2">
      <g>
       <use xlink:href="#mf51430a731" x="231.656254" y="384.48" style="stroke: #000000; stroke-width: 0.8"/>
      </g>
     </g>
     <g id="text_2">
      <text style="font: 10px 'DejaVu Sans', 'Bitstream Vera Sans', 'Computer Modern Sans Serif', 'Lucida Grande', 'Verdana', 'Geneva', 'Lucid', 'Arial', 'Helvetica', 'Avant Garde', sans-serif; text-anchor: middle" x="231.656254" y="399.078438" transform="rotate(-0 231.656254 399.078438)">−20</text>
     </g>
    </g>
    <g id="xtick_3">
     <g id="line2d_3">
      <g>
       <use xlink:href="#mf51430a731" x="321.831828" y="384.48" style="stroke: #000000; stroke-width: 0.8"/>
      </g>
     </g>
     <g id="text_3">
      <text style="font: 10px 'DejaVu Sans', 'Bitstream Vera Sans', 'Computer Modern Sans Serif', 'Lucida Grande', 'Verdana', 'Geneva', 'Lucid', 'Arial', 'Helvetica', 'Avant Garde', sans-serif; text-anchor: middle" x="321.831828" y="399.078438" transform="rotate(-0 321.831828 399.078438)">0</text>
     </g>
    </g>
    <g id="xtick_4">
     <g id="line2d_4">
      <g>
       <use xlink:href="#mf51430a731" x="412.007401" y="384.48" style="stroke: #000000; stroke-width: 0.8"/>
      </g>
     </g>
     <g id="text_4">
      <text style="font: 10px 'DejaVu Sans', 'Bitstream Vera Sans', 'Computer Modern Sans Serif', 'Lucida Grande', 'Verdana', 'Geneva', 'Lucid', 'Arial', 'Helvetica', 'Avant Garde', sans-serif; text-anchor: middle" x="412.007401" y="399.078438" transform="rotate(-0 412.007401 399.078438)">20</text>
     </g>
    </g>
    <g id="xtick_5">
     <g id="line2d_5">
      <g>
       <use xlink:href="#mf51430a731" x="502.182975" y="384.48" style="stroke: #000000; stroke-width: 0.8"/>
      </g>
     </g>
     <g id="text_5">
      <text style="font: 10px 'DejaVu Sans', 'Bitstream Vera Sans', 'Computer Modern Sans Serif', 'Lucida Grande', 'Verdana', 'Geneva', 'Lucid', 'Arial', 'Helvetica', 'Avant Garde', sans-serif; text-anchor: middle" x="502.182975" y="399.078438" transform="rotate(-0 502.182975 399.078438)">40</text>
     </g>
    </g>
    <g id="text_6">
     <text style="font: 10px 'DejaVu Sans', 'Bitstream Vera Sans', 'Computer Modern Sans Serif', 'Lucida Grande', 'Verdana', 'Geneva', 'Lucid', 'Arial', 'Helvetica', 'Avant Garde', sans-serif; text-anchor: middle" x="295.2" y="412.756563" transform="rotate(-0 295.2 412.756563)">lon</text>
    </g>
   </g>
   <g id="matplotlib.axis_2">
    <g id="ytick_1">
     <g id="line2d_6">
      <defs>
       <path id="mff3f293175" d="M 0 0 
L -3.5 0 
" style="stroke: #000000; stroke-width: 0.8"/>
      </defs>
      <g>
       <use xlink:href="#mff3f293175" x="72" y="338.024718" style="stroke: #000000; stroke-width: 0.8"/>
      </g>
     </g>
     <g id="text_7">
      <text style="font: 10px 'DejaVu Sans', 'Bitstream Vera Sans', 'Computer Modern Sans Serif', 'Lucida Grande', 'Verdana', 'Geneva', 'Lucid', 'Arial', 'Helvetica', 'Avant Garde', sans-serif; text-anchor: end" x="65" y="341.823937" transform="rotate(-0 65 341.823937)">−100</text>
     </g>
    </g>
    <g id="ytick_2">
     <g id="line2d_7">
      <g>
       <use xlink:href="#mff3f293175" x="72" y="284.182658" style="stroke: #000000; stroke-width: 0.8"/>
      </g>
     </g>
     <g id="text_8">
      <text style="font: 10px 'DejaVu Sans', 'Bitstream Vera Sans', 'Computer Modern Sans Serif', 'Lucida Grande', 'Verdana', 'Geneva', 'Lucid', 'Arial', 'Helvetica', 'Avant Garde', sans-serif; text-anchor: end" x="65" y="287.981877" transform="rotate(-0 65 287.981877)">−80</text>
     </g>
    </g>
    <g id="ytick_3">
     <g id="line2d_8">
      <g>
       <use xlink:href="#mff3f293175" x="72" y="230.340598" style="stroke: #000000; stroke-width: 0.8"/>
      </g>
     </g>
     <g id="text_9">
      <text style="font: 10px 'DejaVu Sans', 'Bitstream Vera Sans', 'Computer Modern Sans Serif', 'Lucida Grande', 'Verdana', 'Geneva', 'Lucid', 'Arial', 'Helvetica', 'Avant Garde', sans-serif; text-anchor: end" x="65" y="234.139816" transform="rotate(-0 65 234.139816)">−60</text>
     </g>
    </g>
    <g id="ytick_4">
     <g id="line2d_9">
      <g>
       <use xlink:href="#mff3f293175" x="72" y="176.498537" style="stroke: #000000; stroke-width: 0.8"/>
      </g>
     </g>
     <g id="text_10">
      <text style="font: 10px 'DejaVu Sans', 'Bitstream Vera Sans', 'Computer Modern Sans Serif', 'Lucida Grande', 'Verdana', 'Geneva', 'Lucid', 'Arial', 'Helvetica', 'Avant Garde', sans-serif; text-anchor: end" x="65" y="180.297756" transform="rotate(-0 65 180.297756)">−40</text>
     </g>
    </g>
    <g id="ytick_5">
     <g id="line2d_10">
      <g>
       <use xlink:href="#mff3f293175" x="72" y="122.656477" style="stroke: #000000; stroke-width: 0.8"/>
      </g>
     </g>
     <g id="text_11">
      <text style="font: 10px 'DejaVu Sans', 'Bitstream Vera Sans', 'Computer Modern Sans Serif', 'Lucida Grande', 'Verdana', 'Geneva', 'Lucid', 'Arial', 'Helvetica', 'Avant Garde', sans-serif; text-anchor: end" x="65" y="126.455696" transform="rotate(-0 65 126.455696)">−20</text>
     </g>
    </g>
    <g id="ytick_6">
     <g id="line2d_11">
      <g>
       <use xlink:href="#mff3f293175" x="72" y="68.814417" style="stroke: #000000; stroke-width: 0.8"/>
      </g>
     </g>
     <g id="text_12">
      <text style="font: 10px 'DejaVu Sans', 'Bitstream Vera Sans', 'Computer Modern Sans Serif', 'Lucida Grande', 'Verdana', 'Geneva', 'Lucid', 'Arial', 'Helvetica', 'Avant Garde', sans-serif; text-anchor: end" x="65" y="72.613636" transform="rotate(-0 65 72.613636)">0</text>
     </g>
    </g>
    <g id="text_13">
     <text style="font: 10px 'DejaVu Sans', 'Bitstream Vera Sans', 'Computer Modern Sans Serif', 'Lucida Grande', 'Verdana', 'Geneva', 'Lucid', 'Arial', 'Helvetica', 'Avant Garde', sans-serif; text-anchor: middle" x="31.453125" y="218.16" transform="rotate(-90 31.453125 218.16)">lat</text>
    </g>
   </g>
   <g id="line2d_12">
    <path d="M 296.045532 167.599316 
L 413.141046 288.535936 
L 178.949785 288.535856 
L 295.622814 159.516914 
L 444.422729 248.423234 
L 295.62264 337.329743 
L 146.822725 248.42313 
L 295.200096 151.434513 
L 449.495312 218.189057 
L 390.313836 326.553181 
L 199.66328 326.553114 
L 140.904747 218.188948 
L 295.622829 143.352111 
L 447.8043 195.737945 
L 447.804792 300.809162 
L 295.622625 353.195198 
L 143.44056 300.809057 
L 143.441257 195.73784 
L 295.622837 135.26971 
L 443.576956 178.076409 
L 480.354695 273.568415 
L 377.63203 350.231634 
L 213.613226 350.231577 
L 110.89071 273.568287 
L 147.668635 178.076306 
L 295.20012 127.187309 
L 438.9269 162.51031 
L 498.109091 248.123779 
L 438.927647 334.036827 
L 295.19988 369.36 
L 151.894912 334.036726 
L 92.290909 248.123636 
L 151.895995 162.510209 
L 295.200128 118.536146 
L 319.088218 66.96 
" clip-path="url(#p5c3872400a)" style="fill: none; stroke: #999999; stroke-opacity: 0.6; stroke-width: 3; stroke-linecap: square"/>
   </g>
   <g id="line2d_13">
    <path d="M 321.756335 68.809256 
L 321.643733 68.867815 
L 321.889121 68.705479 
L 321.86096 68.888849 
L 321.740489 68.909929 
L 321.63889 68.89042 
L 321.829791 68.809777 
L 321.884023 68.791984 
L 321.562038 68.767569 
L 321.517944 68.804179 
L 321.75105 68.864332 
L 321.7477 68.86594 
L 321.727847 68.845179 
L 321.773586 68.743465 
L 321.904541 68.750044 
L 321.882694 68.78595 
L 321.863104 68.81007 
L 321.806514 68.808039 
L 321.782144 68.83291 
L 321.749983 68.894381 
L 321.741255 68.739606 
L 321.672847 68.807765 
L 321.496366 68.831018 
L 321.898845 68.751016 
L 321.754711 68.897933 
L 321.571216 69.292628 
L 321.291111 70.550678 
L 320.188451 77.122523 
L 319.01043 83.38147 
L 317.788161 88.638955 
L 316.352746 93.881907 
L 314.766306 98.856142 
L 312.758624 104.367398 
L 307.577912 118.326467 
L 306.412081 122.521576 
L 305.207297 127.723559 
L 303.444026 136.457007 
L 301.36882 146.369385 
L 299.57497 153.748339 
L 297.579024 161.906122 
L 297.680898 162.590886 
L 298.072768 163.446001 
L 299.270926 165.353623 
L 300.383709 166.855248 
L 303.837778 170.804437 
L 316.773672 185.7983 
L 323.512885 193.278964 
L 330.426139 200.61796 
L 339.328631 209.732532 
L 350.734741 221.44601 
L 359.42376 230.755056 
L 386.531062 260.149078 
L 397.621867 271.665751 
L 409.04572 283.424251 
L 409.312478 284.019824 
L 409.258763 284.406205 
L 408.977498 284.691843 
L 408.355783 284.961193 
L 407.174779 285.20797 
L 405.105269 285.393521 
L 401.265616 285.472514 
L 377.631399 285.716334 
L 361.743237 286.330104 
L 333.951866 287.424038 
L 321.248868 287.66716 
L 307.027619 287.696859 
L 256.243368 287.599545 
L 225.950416 287.977568 
L 196.452989 288.279061 
L 188.206224 288.189531 
L 187.099222 287.96584 
L 186.641926 287.668741 
L 186.494405 287.329661 
L 186.545652 286.841693 
L 186.867293 286.111609 
L 187.668615 284.911879 
L 189.501278 282.654527 
L 192.330556 279.467185 
L 195.816628 275.570915 
L 199.893929 270.489435 
L 206.446006 262.064967 
L 214.161697 252.217282 
L 219.677609 245.530999 
L 224.961987 239.470707 
L 233.245577 230.372094 
L 246.354461 215.935951 
L 255.027256 205.958459 
L 276.595535 180.957261 
L 283.54568 173.310599 
L 291.866661 164.479067 
L 292.538861 164.201142 
L 293.216344 164.160413 
L 294.140323 164.346384 
L 295.603561 164.89786 
L 297.798606 165.970053 
L 304.481241 169.27263 
L 312.292199 172.954626 
L 321.788486 177.858555 
L 336.628169 185.821951 
L 346.469808 191.399882 
L 357.159594 197.712076 
L 384.951908 214.265658 
L 400.53108 223.152174 
L 424.049152 236.566096 
L 433.476765 242.165377 
L 436.925101 244.403792 
L 437.348685 244.929881 
L 437.436446 245.357402 
L 437.286018 245.850773 
L 436.833522 246.487013 
L 435.915913 247.361835 
L 433.821609 249.000158 
L 429.89558 252.099737 
L 424.992517 256.214461 
L 421.474256 258.716968 
L 413.652752 264.008542 
L 403.939685 270.338903 
L 393.875831 276.600273 
L 382.083531 283.63412 
L 360.134504 296.704515 
L 348.05563 304.220619 
L 313.613768 325.869402 
L 302.923202 332.273642 
L 301.646656 332.870242 
L 300.722619 333.05304 
L 299.761165 333.008491 
L 298.498101 332.707552 
L 296.797125 332.051306 
L 292.709122 330.145851 
L 288.808699 328.458152 
L 282.196847 325.719241 
L 277.713734 323.473596 
L 268.905462 318.782894 
L 257.503563 312.410222 
L 247.375525 306.471809 
L 212.22293 285.700622 
L 187.89762 271.932328 
L 168.786789 260.959819 
L 155.320152 253.008655 
L 153.960264 252.058556 
L 153.636206 251.579276 
L 153.595821 251.148755 
L 153.781405 250.642589 
L 154.310466 249.923001 
L 155.355222 248.906726 
L 158.383234 246.339439 
L 160.524966 244.389106 
L 164.786844 240.326428 
L 167.886233 237.852409 
L 173.501963 233.677875 
L 182.667248 227.172336 
L 191.689182 221.040506 
L 204.680008 212.52007 
L 222.885021 200.590807 
L 235.925682 191.742402 
L 266.889911 170.683811 
L 289.203553 155.768849 
L 290.052281 155.572998 
L 291.069342 155.594041 
L 292.576285 155.883899 
L 295.284429 156.686547 
L 301.547088 158.579001 
L 310.360549 161.001754 
L 316.971206 163.193442 
L 325.098681 166.189996 
L 335.110063 170.106487 
L 344.971125 174.20325 
L 359.359007 180.47149 
L 385.150981 191.723023 
L 401.406231 198.503581 
L 441.595668 215.156347 
L 441.974025 215.61097 
L 442.119207 216.14966 
L 442.066611 216.917166 
L 441.747704 218.128912 
L 440.194621 223.560409 
L 439.391992 226.909271 
L 437.965696 231.411805 
L 436.36165 235.790652 
L 434.614736 239.882968 
L 431.371669 246.822807 
L 428.12198 253.187283 
L 423.502857 261.70582 
L 413.901243 279.349229 
L 408.42017 290.063993 
L 397.044544 312.461755 
L 392.499839 320.670356 
L 391.616901 321.975124 
L 390.814633 322.783051 
L 389.975984 323.332082 
L 388.938829 323.751491 
L 387.510933 324.075413 
L 385.48431 324.291402 
L 382.429545 324.373271 
L 377.542533 324.260532 
L 364.276539 323.889534 
L 353.928099 323.864435 
L 342.965805 324.069354 
L 329.222422 324.561348 
L 305.252889 325.419493 
L 291.858506 325.651051 
L 273.734205 325.721541 
L 233.944673 325.855333 
L 207.172604 325.96039 
L 205.231944 325.68453 
L 203.880535 325.270646 
L 202.698164 324.666508 
L 201.732027 323.923198 
L 200.855302 322.952108 
L 199.948228 321.586462 
L 198.589621 319.016998 
L 196.705058 315.052949 
L 193.678397 308.796283 
L 190.956169 303.8031 
L 187.729278 298.334252 
L 182.800158 290.490159 
L 175.425603 278.684788 
L 170.96175 271.048386 
L 165.60515 261.435628 
L 157.788402 247.463627 
L 151.536218 236.696293 
L 147.037604 228.880944 
L 145.444076 225.696323 
L 144.587104 223.548086 
L 144.528729 222.823045 
L 144.704079 222.261279 
L 145.143959 221.655643 
L 146.031219 220.869641 
L 147.750718 219.685181 
L 152.210426 216.687374 
L 157.853898 212.780228 
L 161.423612 210.682558 
L 171.440226 205.098537 
L 179.923512 200.602545 
L 189.441965 195.833168 
L 201.020487 190.310815 
L 230.322603 176.512863 
L 242.212954 170.546137 
L 262.181419 160.237308 
L 277.843991 152.271151 
L 285.494316 148.656841 
L 288.836308 147.263298 
L 289.861881 147.111278 
L 291.126157 147.167796 
L 293.116336 147.508124 
L 308.775339 150.954455 
L 318.985415 153.599559 
L 327.076657 155.955601 
L 338.724426 159.548036 
L 350.802439 163.522827 
L 365.574965 168.626962 
L 388.790641 176.654203 
L 405.512633 182.117577 
L 432.287592 190.843652 
L 439.429831 193.304505 
L 440.192385 193.826958 
L 440.643058 194.397247 
L 440.990069 195.225477 
L 441.384878 196.851661 
L 442.153856 200.227789 
L 443.448059 205.949976 
L 444.112979 210.072731 
L 444.724538 215.289759 
L 445.211657 221.384362 
L 445.600867 228.908487 
L 445.82122 237.555003 
L 445.924848 252.465189 
L 446.133591 263.995069 
L 446.602169 277.062917 
L 447.227642 294.348473 
L 447.096384 295.196882 
L 446.79619 295.716172 
L 446.254556 296.198554 
L 445.131094 296.856401 
L 442.685806 297.965062 
L 437.790621 300.177289 
L 427.262007 305.047257 
L 416.932488 309.136349 
L 404.436943 313.883904 
L 390.329982 319.016464 
L 367.568561 327.015321 
L 341.15487 336.359899 
L 318.139664 344.752983 
L 307.910231 348.394692 
L 303.741874 349.676024 
L 302.56784 349.772846 
L 301.132052 349.641026 
L 298.858109 349.1806 
L 289.830208 347.155505 
L 285.454189 346.113515 
L 273.789166 343.028273 
L 264.670024 340.330542 
L 251.510539 336.2281 
L 237.901059 331.758912 
L 216.33358 324.401451 
L 196.710476 317.799316 
L 155.970126 304.488716 
L 151.591256 302.993551 
L 150.844724 302.493465 
L 150.387523 301.924326 
L 150.019331 301.067249 
L 149.650261 299.57042 
L 147.079416 286.410371 
L 146.367661 280.584985 
L 145.804081 273.889665 
L 145.467983 267.357466 
L 145.293871 259.677747 
L 145.296297 247.58871 
L 145.271443 235.277441 
L 145.017301 225.971383 
L 144.540167 216.714845 
L 143.735069 202.320129 
L 143.850049 201.24163 
L 144.13011 200.698289 
L 144.679105 200.170033 
L 145.739428 199.492992 
L 148.524219 198.064476 
L 154.177994 195.031844 
L 158.626178 192.634324 
L 163.424736 190.361629 
L 174.925799 185.221664 
L 187.261388 179.967193 
L 203.591229 173.254548 
L 256.577703 151.683506 
L 287.040932 139.012104 
L 288.400397 138.645614 
L 289.61119 138.560885 
L 291.277737 138.684305 
L 293.983961 139.12284 
L 309.243575 142.07389 
L 320.713074 144.650353 
L 333.12089 147.77999 
L 347.841884 151.714992 
L 365.14411 156.58152 
L 403.02162 167.302323 
L 431.696174 175.15913 
L 435.18431 176.124787 
L 436.089646 176.628663 
L 436.825928 177.30633 
L 437.707675 178.47744 
L 440.239185 182.46781 
L 442.164563 185.738172 
L 444.269169 189.842637 
L 447.8553 197.406433 
L 452.832106 208.448457 
L 457.102214 218.475643 
L 462.194499 231.010789 
L 468.976655 247.702785 
L 472.245203 255.120815 
L 477.373014 266.648414 
L 477.746727 267.952936 
L 477.704915 268.590121 
L 477.429102 269.214284 
L 476.782619 270.049589 
L 475.417416 271.395764 
L 470.053335 276.242893 
L 449.260862 293.68243 
L 438.654162 302.288238 
L 428.474762 310.274647 
L 380.899801 346.82996 
L 379.160532 347.758472 
L 377.436429 348.430081 
L 375.482293 348.930167 
L 373.234779 349.256883 
L 370.541043 349.416924 
L 366.847789 349.391126 
L 355.689355 348.969356 
L 342.750073 348.577059 
L 332.121479 348.492499 
L 320.833023 348.632391 
L 305.355411 349.066752 
L 283.216075 349.672964 
L 268.879598 349.825672 
L 246.30944 349.805688 
L 221.124785 349.600317 
L 217.977142 349.381473 
L 215.66092 349.008626 
L 213.64945 348.452776 
L 211.763244 347.700285 
L 209.921929 346.722068 
L 208.062306 345.472078 
L 205.700161 343.594782 
L 192.002009 332.181114 
L 186.133248 327.740762 
L 179.371911 322.897002 
L 168.939401 315.743228 
L 156.669979 307.250878 
L 147.964904 300.933375 
L 137.345254 292.928583 
L 127.111941 284.989989 
L 119.522417 278.753286 
L 117.775743 277.167872 
L 117.462693 276.530358 
L 117.302255 275.648717 
L 117.256779 274.075913 
L 117.449363 268.720852 
L 118.02512 265.224622 
L 119.104964 259.886219 
L 120.354792 254.964677 
L 121.987863 249.526555 
L 123.936477 243.807932 
L 126.317989 237.536364 
L 130.501488 227.235247 
L 134.856175 216.301044 
L 137.42561 209.313565 
L 141.539933 197.273247 
L 144.750484 188.095076 
L 146.568329 183.417293 
L 147.069217 182.855147 
L 147.920564 182.272062 
L 149.699676 181.370046 
L 160.876492 176.188664 
L 168.221179 173.25806 
L 186.205572 166.33187 
L 200.732092 161.012126 
L 219.595739 154.367778 
L 251.272539 143.269924 
L 269.055146 136.752175 
L 281.874315 132.086781 
L 287.089448 130.399097 
L 288.315654 130.25156 
L 289.895915 130.313151 
L 292.859789 130.683174 
L 304.884272 132.540793 
L 320.61091 135.470534 
L 335.486528 138.624382 
L 352.632872 142.499045 
L 379.905538 148.936605 
L 430.094596 160.913857 
L 430.994722 161.416654 
L 432.043417 162.296961 
L 435.209344 165.4122 
L 438.607938 168.920959 
L 441.282162 172.0896 
L 446.433269 178.63515 
L 453.534014 187.936319 
L 464.025416 202.027087 
L 474.919195 217.036313 
L 484.011553 229.497549 
L 493.377283 242.167411 
L 493.771773 243.005797 
L 493.822942 243.655429 
L 493.63999 244.527478 
L 493.074982 245.988939 
L 491.677375 248.995989 
L 482.61699 265.081444 
L 476.273768 275.705795 
L 470.986328 284.128496 
L 464.332223 294.278783 
L 441.108876 328.936282 
L 440.291807 329.416199 
L 438.623427 330.087171 
L 429.68675 333.138668 
L 423.89254 334.88098 
L 407.649996 339.422733 
L 380.913346 346.719604 
L 360.791749 351.951861 
L 320.817256 362.331529 
L 305.292069 366.365843 
L 303.428731 366.697488 
L 302.002379 366.69909 
L 299.706263 366.435615 
L 293.161586 365.377563 
L 258.2552 358.36787 
L 243.271995 355.055815 
L 227.638 351.368448 
L 182.13369 340.454413 
L 160.145714 335.170869 
L 159.275946 334.604791 
L 157.977787 333.441168 
L 153.446374 328.92897 
L 151.038357 326.239353 
L 147.377038 321.732085 
L 134.938338 305.89731 
L 127.626433 296.112002 
L 119.075106 284.224024 
L 109.169824 270.561794 
L 102.413622 261.690313 
L 98.346685 256.197907 
L 96.620926 253.490461 
L 96.379185 252.758016 
L 96.400839 252.096738 
L 96.669446 251.181721 
L 97.618126 249.042264 
L 99.008698 246.287373 
L 102.099849 240.693329 
L 106.076231 233.427945 
L 111.81394 223.700086 
L 116.557648 216.139884 
L 121.697877 208.394603 
L 130.470563 195.723776 
L 137.627551 185.179056 
L 146.938654 171.03582 
L 149.255943 167.498543 
L 150.036101 166.939766 
L 151.578391 166.16806 
L 156.154386 164.184218 
L 160.309093 162.539404 
L 166.06567 160.542242 
L 202.757864 148.364816 
L 228.002167 140.308615 
L 258.301647 130.645125 
L 288.059219 120.830452 
L 288.807495 120.174181 
L 289.696343 119.033331 
L 291.956349 115.653984 
L 294.121212 111.91701 
L 306.402125 90.187213 
L 310.586408 83.267708 
L 316.315341 73.776645 
L 316.876162 72.384442 
L 316.857742 72.354961 
L 316.767669 72.407696 
L 316.099813 73.063469 
L 315.490409 73.736182 
L 315.779344 73.254642 
L 316.611426 71.744109 
L 316.537164 71.769227 
L 316.784906 71.482511 
L 317.086452 70.966446 
L 317.386508 70.494016 
L 317.501069 70.098001 
L 317.71842 69.501365 
L 318.041237 69.028714 
L 318.824406 67.115067 
L 321.851515 68.839894 
L 321.833372 68.837047 
" clip-path="url(#p5c3872400a)" style="fill: none; stroke: #2c7bb6; stroke-opacity: 0.6; stroke-width: 3; stroke-linecap: square"/>
   </g>
   <g id="line2d_14">
    <path d="M 321.865048 68.821589 
L 321.817352 68.866632 
L 321.877487 68.826698 
L 321.885661 68.930064 
L 322.211835 69.051043 
L 322.213249 69.048961 
L 322.203541 69.016692 
L 322.125962 68.980405 
L 321.603281 68.868269 
L 321.605047 68.901348 
L 321.7645 68.925452 
L 322.176011 68.869966 
L 321.850355 68.788515 
L 321.837976 68.789785 
L 322.003977 68.711001 
L 321.877817 68.89921 
L 321.841676 68.940693 
L 321.775433 68.797222 
L 321.74845 68.745761 
L 321.992257 68.840353 
L 321.938696 68.750647 
L 321.880059 68.689928 
L 321.828132 68.712188 
L 321.833747 68.815379 
L 321.83788 68.823859 
L 321.93242 68.848081 
L 321.78944 68.833354 
L 321.879273 68.937328 
L 321.66831 69.33653 
L 321.110485 70.710606 
L 319.939819 74.364508 
L 318.857367 78.313384 
L 317.620076 83.328935 
L 316.309357 89.221878 
L 314.061528 99.130142 
L 309.477105 116.862243 
L 297.515762 162.899055 
L 297.673351 163.717929 
L 298.131251 164.787236 
L 299.590856 167.390969 
L 300.443278 168.46611 
L 305.178357 173.786111 
L 311.112677 179.946952 
L 324.382637 193.629577 
L 345.89399 216.468222 
L 350.458794 221.299946 
L 357.109935 228.447045 
L 367.265667 239.382512 
L 373.116506 245.576021 
L 393.23352 267.046278 
L 397.673895 271.744477 
L 402.728461 277.066614 
L 408.981936 283.978848 
L 409.308359 284.677835 
L 409.341545 285.275359 
L 409.125234 285.625921 
L 408.636042 285.971492 
L 407.554367 286.40536 
L 405.886029 286.762658 
L 403.568009 287.048665 
L 399.404513 287.290021 
L 394.48315 287.363037 
L 375.468916 287.436752 
L 360.74823 287.730297 
L 337.635615 287.896746 
L 273.442611 287.88508 
L 245.240226 288.019036 
L 187.24928 288.401598 
L 186.227329 288.172073 
L 185.620896 287.809065 
L 185.387162 287.413995 
L 185.33724 286.854304 
L 185.507491 286.020108 
L 186.021441 284.799119 
L 187.396663 282.449423 
L 188.612789 280.754022 
L 190.549793 278.613435 
L 192.864261 275.855094 
L 198.002176 269.438612 
L 215.587314 249.242068 
L 244.801455 216.644355 
L 251.662734 208.853992 
L 292.068039 163.743479 
L 292.803609 163.367192 
L 293.691163 163.186808 
L 294.629409 163.237549 
L 296.245221 163.588337 
L 298.366139 164.292202 
L 301.497226 165.547152 
L 307.730022 168.282706 
L 310.411057 169.639818 
L 314.904136 172.237985 
L 325.545823 178.519956 
L 400.914038 222.838993 
L 416.76075 232.075116 
L 438.419215 244.943067 
L 438.763707 245.44987 
L 438.846428 245.954351 
L 438.697522 246.563624 
L 438.245224 247.368901 
L 437.439387 248.349151 
L 435.358207 250.443257 
L 432.618151 252.931201 
L 430.359952 254.711635 
L 426.978626 257.054676 
L 422.695859 259.697957 
L 366.69635 293.94264 
L 334.127223 313.720782 
L 311.796895 327.459561 
L 302.014421 333.298154 
L 300.780821 333.76546 
L 299.730743 333.917634 
L 298.343496 333.859159 
L 296.649238 333.514677 
L 294.594165 332.899161 
L 290.290068 331.312576 
L 285.055854 329.128385 
L 281.192165 327.171151 
L 276.314132 324.343859 
L 220.101494 291.048597 
L 153.26533 251.815209 
L 152.720807 251.221258 
L 152.509493 250.663108 
L 152.545698 250.112372 
L 152.84007 249.372861 
L 153.494275 248.359256 
L 154.678194 246.9681 
L 156.97357 244.577655 
L 159.699143 241.989316 
L 161.882945 240.294623 
L 165.986397 237.443866 
L 196.5074 217.142429 
L 264.027889 172.296255 
L 288.781467 155.670723 
L 290.046184 155.035839 
L 291.074537 154.759028 
L 292.270141 154.679377 
L 293.797031 154.782032 
L 296.312536 155.202349 
L 299.851067 156.028802 
L 305.988957 157.737852 
L 308.629223 158.690343 
L 324.192148 164.976021 
L 358.780468 179.70991 
L 382.255063 189.630252 
L 405.914451 199.539718 
L 422.532497 206.57683 
L 435.319095 211.96156 
L 442.47063 215.004378 
L 443.261022 215.602827 
L 443.663622 216.183098 
L 443.8786 216.886285 
L 443.984885 218.111515 
L 443.93296 220.060462 
L 443.61419 222.558121 
L 443.077502 225.016612 
L 442.508237 226.470032 
L 437.906452 236.642974 
L 435.526195 241.16999 
L 417.412237 274.671753 
L 405.867092 296.551046 
L 394.663161 317.700236 
L 391.679882 322.81577 
L 390.848826 323.552282 
L 389.843783 324.141303 
L 388.442194 324.673204 
L 386.673845 325.074354 
L 384.247932 325.383981 
L 380.772038 325.610034 
L 375.389527 325.643266 
L 363.886512 325.667174 
L 327.518035 325.838347 
L 245.89953 326.164118 
L 209.515502 326.301874 
L 205.729142 326.148816 
L 203.808082 325.857654 
L 202.352572 325.425182 
L 201.051119 324.810672 
L 199.886894 324.010037 
L 198.782867 322.959359 
L 197.672803 321.559659 
L 196.161429 319.234754 
L 194.508442 316.354821 
L 156.008309 245.891317 
L 147.58278 231.253715 
L 145.42777 227.378046 
L 143.944062 224.298637 
L 143.408466 222.863281 
L 143.36686 222.141742 
L 143.553888 221.445219 
L 143.995007 220.752332 
L 144.961231 219.728314 
L 147.073448 217.902674 
L 149.714829 215.903119 
L 152.12374 214.25316 
L 154.868559 212.594925 
L 158.233821 210.845536 
L 169.989266 205.034271 
L 187.592584 196.351904 
L 224.523302 178.484731 
L 265.97093 157.90082 
L 281.126329 150.423883 
L 289.211112 146.631412 
L 290.472601 146.319161 
L 291.820712 146.217241 
L 294.066033 146.316928 
L 297.780294 146.781091 
L 303.097367 147.741269 
L 306.26403 148.502028 
L 311.480768 150.09975 
L 326.159507 154.755295 
L 378.811225 172.589892 
L 405.893588 181.573517 
L 419.708431 186.177205 
L 438.553312 192.564573 
L 440.718126 193.390368 
L 441.638942 193.963102 
L 442.329456 194.65907 
L 442.963176 195.632151 
L 443.683187 197.130192 
L 444.618451 199.512329 
L 445.274419 201.694734 
L 445.692842 204.120732 
L 446.028115 207.626728 
L 446.333632 214.306439 
L 446.581504 226.022135 
L 446.670237 236.791749 
L 446.831346 252.733759 
L 447.646875 292.410854 
L 447.617756 295.641389 
L 447.356106 296.354241 
L 446.8909 296.945418 
L 445.89505 297.782531 
L 444.145194 298.938287 
L 440.940431 300.747866 
L 436.289411 303.104051 
L 433.093566 304.480665 
L 428.592037 306.145977 
L 396.70953 317.438074 
L 330.773318 340.572472 
L 307.483931 348.861998 
L 302.466679 350.399145 
L 301.028659 350.540701 
L 299.218046 350.475879 
L 296.589704 350.147952 
L 293.398294 349.594854 
L 287.011994 348.180222 
L 273.586705 344.055701 
L 263.562596 340.729411 
L 236.766048 331.795656 
L 206.538927 321.655803 
L 150.141569 302.657654 
L 149.214148 302.031499 
L 148.585519 301.371228 
L 147.955187 300.34191 
L 147.070524 298.500989 
L 146.267663 296.327006 
L 145.813025 294.48325 
L 145.49521 292.148179 
L 145.158252 287.407237 
L 144.879825 279.98703 
L 144.674049 262.21519 
L 144.124434 219.20889 
L 143.887338 200.719577 
L 144.138435 200.034752 
L 144.641988 199.336001 
L 145.555426 198.485938 
L 147.347851 197.14 
L 150.479524 195.099356 
L 153.639697 193.27843 
L 156.577909 191.793935 
L 160.351628 190.172957 
L 271.235779 144.987749 
L 283.638713 139.973406 
L 288.771083 138.133677 
L 290.297098 137.891305 
L 292.055657 137.856655 
L 294.978757 138.055828 
L 299.081382 138.55058 
L 303.973655 139.342157 
L 307.157354 140.095003 
L 326.950675 145.224082 
L 346.716913 150.712576 
L 400.773569 165.833242 
L 418.871204 170.961315 
L 437.093571 176.260058 
L 438.179014 176.992102 
L 439.110589 177.907705 
L 441.592116 180.831767 
L 443.440973 183.428558 
L 444.493194 185.296016 
L 446.176874 188.859583 
L 451.233272 201.026545 
L 457.478783 216.445156 
L 463.02727 230.149317 
L 471.244959 249.968824 
L 478.194485 266.814679 
L 478.707584 268.58971 
L 478.70325 269.330001 
L 478.438479 270.176521 
L 477.977495 271.030065 
L 476.605979 272.90734 
L 474.443487 275.416378 
L 472.839915 276.868124 
L 469.16119 279.85597 
L 463.914281 284.00255 
L 446.676102 297.101207 
L 428.703964 310.802893 
L 400.525043 332.631352 
L 383.457807 345.642348 
L 381.227355 347.17056 
L 379.326504 348.190307 
L 377.29921 349.009612 
L 375.414441 349.525021 
L 373.012848 349.931572 
L 370.295927 350.172681 
L 366.39752 350.273281 
L 335.345494 350.346586 
L 284.324608 350.254283 
L 249.858123 350.254303 
L 221.144677 350.150478 
L 217.760934 349.920502 
L 215.355291 349.549996 
L 213.282564 349.002116 
L 211.330992 348.280597 
L 209.37253 347.31914 
L 207.415187 346.160262 
L 204.930538 344.400019 
L 192.663558 335.271141 
L 176.27308 322.989079 
L 132.026407 289.683937 
L 125.196608 284.516706 
L 116.743009 277.79984 
L 116.077022 277.009002 
L 115.707471 276.196023 
L 115.463821 275.096399 
L 115.267556 273.101127 
L 115.230594 270.873619 
L 115.369068 269.211142 
L 115.721798 267.579001 
L 117.884513 259.607256 
L 118.913343 256.278317 
L 122.792444 245.303754 
L 132.501994 219.140155 
L 135.670474 210.500489 
L 141.963198 194.075512 
L 145.219242 185.614393 
L 146.337149 182.766932 
L 146.913595 182.077156 
L 147.828081 181.37211 
L 150.165304 179.931332 
L 154.115078 177.749441 
L 157.704227 176.013301 
L 162.076905 174.275168 
L 195.952067 162.084247 
L 230.344946 150.06814 
L 260.302781 139.526619 
L 285.549561 130.677577 
L 288.433672 129.858123 
L 290.000753 129.678739 
L 292.187174 129.677137 
L 296.544875 129.93897 
L 302.046404 130.492874 
L 305.754545 131.185201 
L 323.796539 135.030129 
L 352.605123 141.856289 
L 374.397642 147.0902 
L 399.622269 153.080079 
L 417.678565 157.484235 
L 431.76241 160.99019 
L 432.91027 161.572659 
L 434.134849 162.466121 
L 436.896868 164.768319 
L 440.238325 167.920786 
L 441.810061 169.773332 
L 444.084376 172.836885 
L 456.623824 190.218882 
L 470.230904 209.253755 
L 478.850444 221.33552 
L 488.604163 234.549103 
L 491.373905 238.446103 
L 494.520456 243.454166 
L 494.691592 244.24562 
L 494.624995 245.256247 
L 494.262771 246.988434 
L 493.567339 249.452697 
L 493.040583 250.635627 
L 491.632346 253.11096 
L 486.292396 262.14624 
L 473.385968 281.844012 
L 447.839502 320.038778 
L 441.272401 329.309191 
L 440.354844 330.008404 
L 438.172418 331.064463 
L 434.195641 332.736553 
L 430.912172 334.001537 
L 427.929164 334.943522 
L 421.960618 336.569994 
L 346.732878 355.967772 
L 328.724636 360.61372 
L 310.079934 365.376536 
L 303.545037 366.851141 
L 301.87668 367.056902 
L 299.673786 367.050289 
L 296.939916 366.841447 
L 293.203691 366.470079 
L 290.185299 365.995728 
L 277.363382 363.43869 
L 268.965368 361.562134 
L 185.773578 341.864033 
L 159.108112 335.201801 
L 157.947447 334.622804 
L 156.537181 333.627149 
L 152.076716 329.888763 
L 150.238626 328.058995 
L 148.626385 326.13144 
L 144.164836 320.202147 
L 130.186632 301.118946 
L 101.86258 261.471777 
L 98.068412 256.02468 
L 95.828229 252.275449 
L 95.722366 251.47808 
L 95.830758 250.392197 
L 96.372615 248.020319 
L 97.022038 245.989494 
L 97.688025 244.716993 
L 104.088642 234.053895 
L 111.072395 223.722802 
L 134.188572 189.366314 
L 142.158466 177.441149 
L 147.775657 169.03835 
L 149.081091 167.148382 
L 149.892656 166.412619 
L 151.122068 165.630079 
L 154.939662 163.568383 
L 158.226356 162.007431 
L 161.362501 160.799556 
L 166.165996 159.219287 
L 284.57153 121.648499 
L 287.907531 120.564974 
L 289.073496 119.931193 
L 290.130107 119.091302 
L 292.15858 117.087445 
L 293.823647 115.221671 
L 295.301588 113.162563 
L 296.897519 110.517035 
L 299.327736 106.068766 
L 313.879991 79.216489 
L 316.013995 75.14958 
L 317.324685 72.556213 
L 318.297155 70.669006 
L 318.008675 70.984092 
L 317.616127 71.008659 
L 317.634675 70.984974 
L 317.421468 70.474049 
L 317.387115 70.281591 
L 317.583153 69.741108 
L 318.389158 68.757525 
L 318.478869 68.586743 
L 318.523384 68.315337 
L 318.554263 68.064553 
L 318.76266 67.458251 
L 318.722115 67.282829 
L 318.787738 67.025202 
L 322.009266 68.829678 
L 321.978562 68.818631 
" clip-path="url(#p5c3872400a)" style="fill: none; stroke: #d7191c; stroke-opacity: 0.6; stroke-width: 3; stroke-linecap: square"/>
   </g>
   <g id="patch_3">
    <path d="M 72 384.48 
L 72 51.84 
" style="fill: none; stroke: #000000; stroke-width: 0.8; stroke-linejoin: miter; stroke-linecap: square"/>
   </g>
   <g id="patch_4">
    <path d="M 518.4 384.48 
L 518.4 51.84 
" style="fill: none; stroke: #000000; stroke-width: 0.8; stroke-linejoin: miter; stroke-linecap: square"/>
   </g>
   <g id="patch_5">
    <path d="M 72 384.48 
L 518.4 384.48 
" style="fill: none; stroke: #000000; stroke-width: 0.8; stroke-linejoin: miter; stroke-linecap: square"/>
   </g>
   <g id="patch_6">
    <path d="M 72 51.84 
L 518.4 51.84 
" style="fill: none; stroke: #000000; stroke-width: 0.8; stroke-linejoin: miter; stroke-linecap: square"/>
   </g>
   <g id="PathCollection_1">
    <defs>
     <path id="md2ade7922b" d="M 0 3 
C 0.795609 3 1.55874 2.683901 2.12132 2.12132 
C 2.683901 1.55874 3 0.795609 3 0 
C 3 -0.795609 2.683901 -1.55874 2.12132 -2.12132 
C 1.55874 -2.683901 0.795609 -3 0 -3 
C -0.795609 -3 -1.55874 -2.683901 -2.12132 -2.12132 
C -2.683901 -1.55874 -3 -0.795609 -3 0 
C -3 0.795609 -2.683901 1.55874 -2.12132 2.12132 
C -1.55874 2.683901 -0.795609 3 0 3 
z
" style="stroke: #252525; stroke-width: 0.48"/>
    </defs>
    <g clip-path="url(#p5c3872400a)">
     <use xlink:href="#md2ade7922b" x="296.045532" y="167.599316" style="fill: #c6dbef; stroke: #252525; stroke-width: 0.48"/>
     <use xlink:href="#md2ade7922b" x="413.141046" y="288.535936" style="fill: #c6dbef; stroke: #252525; stroke-width: 0.48"/>
     <use xlink:href="#md2ade7922b" x="178.949785" y="288.535856" style="fill: #c6dbef; stroke: #252525; stroke-width: 0.48"/>
     <use xlink:href="#md2ade7922b" x="295.622814" y="159.516914" style="fill: #c6dbef; stroke: #252525; stroke-width: 0.48"/>
     <use xlink:href="#md2ade7922b" x="444.422729" y="248.423234" style="fill: #c6dbef; stroke: #252525; stroke-width: 0.48"/>
     <use xlink:href="#md2ade7922b" x="295.62264" y="337.329743" style="fill: #c6dbef; stroke: #252525; stroke-width: 0.48"/>
     <use xlink:href="#md2ade7922b" x="146.822725" y="248.42313" style="fill: #c6dbef; stroke: #252525; stroke-width: 0.48"/>
     <use xlink:href="#md2ade7922b" x="295.200096" y="151.434513" style="fill: #c6dbef; stroke: #252525; stroke-width: 0.48"/>
     <use xlink:href="#md2ade7922b" x="449.495312" y="218.189057" style="fill: #c6dbef; stroke: #252525; stroke-width: 0.48"/>
     <use xlink:href="#md2ade7922b" x="390.313836" y="326.553181" style="fill: #c6dbef; stroke: #252525; stroke-width: 0.48"/>
     <use xlink:href="#md2ade7922b" x="199.66328" y="326.553114" style="fill: #c6dbef; stroke: #252525; stroke-width: 0.48"/>
     <use xlink:href="#md2ade7922b" x="140.904747" y="218.188948" style="fill: #c6dbef; stroke: #252525; stroke-width: 0.48"/>
     <use xlink:href="#md2ade7922b" x="295.622829" y="143.352111" style="fill: #c6dbef; stroke: #252525; stroke-width: 0.48"/>
     <use xlink:href="#md2ade7922b" x="447.8043" y="195.737945" style="fill: #c6dbef; stroke: #252525; stroke-width: 0.48"/>
     <use xlink:href="#md2ade7922b" x="447.804792" y="300.809162" style="fill: #c6dbef; stroke: #252525; stroke-width: 0.48"/>
     <use xlink:href="#md2ade7922b" x="295.622625" y="353.195198" style="fill: #c6dbef; stroke: #252525; stroke-width: 0.48"/>
     <use xlink:href="#md2ade7922b" x="143.44056" y="300.809057" style="fill: #c6dbef; stroke: #252525; stroke-width: 0.48"/>
     <use xlink:href="#md2ade7922b" x="143.441257" y="195.73784" style="fill: #c6dbef; stroke: #252525; stroke-width: 0.48"/>
     <use xlink:href="#md2ade7922b" x="295.622837" y="135.26971" style="fill: #c6dbef; stroke: #252525; stroke-width: 0.48"/>
     <use xlink:href="#md2ade7922b" x="443.576956" y="178.076409" style="fill: #c6dbef; stroke: #252525; stroke-width: 0.48"/>
     <use xlink:href="#md2ade7922b" x="480.354695" y="273.568415" style="fill: #c6dbef; stroke: #252525; stroke-width: 0.48"/>
     <use xlink:href="#md2ade7922b" x="377.63203" y="350.231634" style="fill: #c6dbef; stroke: #252525; stroke-width: 0.48"/>
     <use xlink:href="#md2ade7922b" x="213.613226" y="350.231577" style="fill: #c6dbef; stroke: #252525; stroke-width: 0.48"/>
     <use xlink:href="#md2ade7922b" x="110.89071" y="273.568287" style="fill: #c6dbef; stroke: #252525; stroke-width: 0.48"/>
     <use xlink:href="#md2ade7922b" x="147.668635" y="178.076306" style="fill: #c6dbef; stroke: #252525; stroke-width: 0.48"/>
     <use xlink:href="#md2ade7922b" x="295.20012" y="127.187309" style="fill: #c6dbef; stroke: #252525; stroke-width: 0.48"/>
     <use xlink:href="#md2ade7922b" x="438.9269" y="162.51031" style="fill: #c6dbef; stroke: #252525; stroke-width: 0.48"/>
     <use xlink:href="#md2ade7922b" x="498.109091" y="248.123779" style="fill: #c6dbef; stroke: #252525; stroke-width: 0.48"/>
     <use xlink:href="#md2ade7922b" x="438.927647" y="334.036827" style="fill: #c6dbef; stroke: #252525; stroke-width: 0.48"/>
     <use xlink:href="#md2ade7922b" x="295.19988" y="369.36" style="fill: #c6dbef; stroke: #252525; stroke-width: 0.48"/>
     <use xlink:href="#md2ade7922b" x="151.894912" y="334.036726" style="fill: #c6dbef; stroke: #252525; stroke-width: 0.48"/>
     <use xlink:href="#md2ade7922b" x="92.290909" y="248.123636" style="fill: #c6dbef; stroke: #252525; stroke-width: 0.48"/>
     <use xlink:href="#md2ade7922b" x="151.895995" y="162.510209" style="fill: #c6dbef; stroke: #252525; stroke-width: 0.48"/>
     <use xlink:href="#md2ade7922b" x="295.200128" y="118.536146" style="fill: #c6dbef; stroke: #252525; stroke-width: 0.48"/>
     <use xlink:href="#md2ade7922b" x="319.088218" y="66.96" style="fill: #c6dbef; stroke: #252525; stroke-width: 0.48"/>
    </g>
   </g>
   <g id="text_14">
    <text style="font: 12px 'DejaVu Sans', 'Bitstream Vera Sans', 'Computer Modern Sans Serif', 'Lucida Grande', 'Verdana', 'Geneva', 'Lucid', 'Arial', 'Helvetica', 'Avant Garde', sans-serif; text-anchor: middle" x="295.2" y="45.84" transform="rotate(-0 295.2 45.84)">Total Waypoints: 35</text>
   </g>
  </g>
 </g>
 <defs>
  <clipPath id="p5c3872400a">
   <rect x="72" y="51.84" width="446.4" height="332.64"/>
  </clipPath>
 </defs>
</svg>
