<?xml version="1.0" encoding="utf-8"?>
<!-- Generator: Adobe Illustrator 27.4.1, SVG Export Plug-In . SVG Version: 6.00 Build 0)  -->
<svg version="1.1" id="Layer_1" xmlns="http://www.w3.org/2000/svg" xmlns:xlink="http://www.w3.org/1999/xlink" x="0px" y="0px"
	 viewBox="0 0 360 360" style="enable-background:new 0 0 360 360;" xml:space="preserve">
<style type="text/css">
	.st0{fill:#FFFFFF;}
	.st1{stroke:#000000;stroke-width:0.8;stroke-linejoin:round;}
	.st2{fill:none;}
	.st3{fill:none;stroke:#999999;stroke-width:3;stroke-linecap:square;stroke-linejoin:round;stroke-opacity:0.6;}
	.st4{fill:none;stroke:#2C7BB6;stroke-width:3;stroke-linecap:square;stroke-linejoin:round;stroke-opacity:0.7;}
	.st5{fill:none;stroke:#D7191C;stroke-width:3;stroke-linecap:square;stroke-linejoin:round;stroke-opacity:0.7;}
	.st6{fill:none;stroke:#000000;stroke-width:0.8;stroke-linecap:square;}
	.st7{opacity:0.8;fill:#FFFFFF;stroke:#CCCCCC;enable-background:new    ;}
</style>
<path class="st0" d="M45,320.4h279V43.2H45V320.4z"/>
<path id="mf8d1aa5ba5" class="st1" d="M57.7,320.4v3.5"/>
<path id="DejaVuSans-30" d="M57.7,328.4c-0.5,0-0.9,0.2-1.1,0.8c-0.3,0.5-0.4,1.2-0.4,2.3c0,1,0.1,1.7,0.4,2.2
	c0.3,0.5,0.6,0.8,1.1,0.8c0.5,0,0.9-0.2,1.2-0.8c0.3-0.5,0.4-1.2,0.4-2.2c0-1-0.1-1.8-0.4-2.3C58.6,328.6,58.2,328.4,57.7,328.4z
	 M57.7,327.6c0.8,0,1.4,0.3,1.9,1c0.4,0.6,0.6,1.6,0.6,2.8c0,1.2-0.2,2.2-0.6,2.8c-0.4,0.6-1.1,1-1.9,1c-0.8,0-1.4-0.3-1.9-1
	c-0.4-0.6-0.6-1.6-0.6-2.8c0-1.2,0.2-2.2,0.6-2.8C56.2,327.9,56.9,327.6,57.7,327.6z"/>
<path id="mf8d1aa5ba5_00000122701498934113091250000002368366471941133969_" class="st1" d="M94.1,320.4v3.5"/>
<path id="DejaVuSans-31" d="M92.2,334.2h1.6v-5.6L92,329v-0.9l1.7-0.4h1v6.5h1.6v0.8h-4.2V334.2z"/>
<path id="mf8d1aa5ba5_00000000213529831737786690000004410883620761912976_" class="st1" d="M130.6,320.4v3.5"/>
<path id="DejaVuSans-32" d="M129.3,334.2h3.4v0.8h-4.6v-0.8c0.4-0.4,0.9-0.9,1.5-1.6c0.6-0.7,1.1-1.1,1.2-1.3
	c0.3-0.4,0.5-0.7,0.7-0.9c0.1-0.2,0.2-0.5,0.2-0.7c0-0.4-0.1-0.7-0.4-0.9c-0.3-0.2-0.6-0.4-1.1-0.4c-0.3,0-0.6,0.1-1,0.2
	c-0.3,0.1-0.7,0.3-1.1,0.5v-1c0.4-0.2,0.8-0.3,1.1-0.4c0.3-0.1,0.7-0.1,0.9-0.1c0.8,0,1.4,0.2,1.8,0.6c0.4,0.4,0.7,0.9,0.7,1.5
	c0,0.3-0.1,0.6-0.2,0.9c-0.1,0.3-0.3,0.6-0.6,0.9c-0.1,0.1-0.3,0.4-0.8,0.8C130.7,332.7,130.1,333.4,129.3,334.2z"/>
<path id="mf8d1aa5ba5_00000008866584535717128750000008344215793512409249_" class="st1" d="M167,320.4v3.5"/>
<path id="DejaVuSans-33" d="M167.9,331.1c0.5,0.1,0.8,0.3,1.1,0.6c0.3,0.3,0.4,0.7,0.4,1.2c0,0.7-0.2,1.3-0.7,1.7
	c-0.5,0.4-1.2,0.6-2.1,0.6c-0.3,0-0.6,0-0.9-0.1c-0.3-0.1-0.7-0.2-1-0.3v-1c0.3,0.2,0.6,0.3,0.9,0.4c0.3,0.1,0.7,0.1,1,0.1
	c0.6,0,1.1-0.1,1.4-0.4s0.5-0.6,0.5-1.1c0-0.4-0.2-0.8-0.5-1c-0.3-0.2-0.7-0.4-1.3-0.4h-0.8v-0.8h0.9c0.5,0,0.9-0.1,1.1-0.3
	s0.4-0.5,0.4-0.8c0-0.4-0.1-0.7-0.4-0.9c-0.3-0.2-0.6-0.3-1.1-0.3c-0.3,0-0.6,0-0.9,0.1c-0.3,0.1-0.6,0.1-1,0.3v-0.9
	c0.4-0.1,0.7-0.2,1.1-0.2s0.6-0.1,0.9-0.1c0.7,0,1.3,0.2,1.8,0.5c0.4,0.3,0.7,0.8,0.7,1.4c0,0.4-0.1,0.7-0.3,1
	C168.7,330.8,168.3,331,167.9,331.1z"/>
<path id="mf8d1aa5ba5_00000177455105616937103330000005245285780970847639_" class="st1" d="M203.5,320.4v3.5"/>
<path id="DejaVuSans-34" d="M204.1,328.6l-2.5,3.9h2.5V328.6z M203.8,327.7h1.2v4.8h1v0.8h-1v1.7h-1v-1.7h-3.3v-1L203.8,327.7z"/>
<path id="mf8d1aa5ba5_00000055670078177892665100000012111854101538979215_" class="st1" d="M239.9,320.4v3.5"/>
<path id="DejaVuSans-35" d="M237.8,327.7h3.9v0.8h-3v1.8c0.1,0,0.3-0.1,0.4-0.1c0.1,0,0.3,0,0.4,0c0.8,0,1.5,0.2,1.9,0.7
	c0.5,0.4,0.7,1,0.7,1.8c0,0.8-0.2,1.4-0.7,1.8c-0.5,0.4-1.2,0.7-2.1,0.7c-0.3,0-0.6,0-0.9-0.1c-0.3-0.1-0.6-0.1-1-0.2v-1
	c0.3,0.2,0.6,0.3,0.9,0.4s0.6,0.1,1,0.1c0.6,0,1-0.1,1.3-0.4c0.3-0.3,0.5-0.7,0.5-1.2c0-0.5-0.2-0.9-0.5-1.2
	c-0.3-0.3-0.8-0.4-1.3-0.4c-0.3,0-0.5,0-0.8,0.1c-0.3,0.1-0.5,0.1-0.8,0.3V327.7z"/>
<path id="mf8d1aa5ba5_00000018950745448585549890000008666157317588516992_" class="st1" d="M276.4,320.4v3.5"/>
<path id="DejaVuSans-36" d="M276.5,331c-0.4,0-0.8,0.2-1.1,0.5c-0.3,0.3-0.4,0.7-0.4,1.2c0,0.5,0.1,0.9,0.4,1.2
	c0.3,0.3,0.6,0.5,1.1,0.5c0.4,0,0.8-0.2,1.1-0.5c0.3-0.3,0.4-0.7,0.4-1.2c0-0.5-0.1-0.9-0.4-1.2C277.3,331.1,276.9,331,276.5,331z
	 M278.5,327.9v0.9c-0.2-0.1-0.5-0.2-0.8-0.3c-0.3-0.1-0.5-0.1-0.8-0.1c-0.7,0-1.1,0.2-1.5,0.7c-0.3,0.4-0.5,1.1-0.6,2
	c0.2-0.3,0.4-0.5,0.7-0.7c0.3-0.2,0.6-0.2,1-0.2c0.7,0,1.3,0.2,1.7,0.7c0.4,0.4,0.6,1,0.6,1.8c0,0.7-0.2,1.3-0.7,1.8
	c-0.4,0.5-1,0.7-1.8,0.7c-0.8,0-1.5-0.3-1.9-1c-0.4-0.6-0.7-1.6-0.7-2.8c0-1.2,0.3-2.1,0.8-2.8c0.5-0.7,1.3-1,2.2-1
	c0.2,0,0.5,0,0.8,0.1C277.9,327.7,278.2,327.8,278.5,327.9z"/>
<path id="mf8d1aa5ba5_00000121244483797379791880000011695705316339718533_" class="st1" d="M312.8,320.4v3.5"/>
<path id="DejaVuSans-37" d="M310.5,327.7h4.7v0.4l-2.6,6.9h-1l2.5-6.5h-3.5V327.7z"/>
<path id="DejaVuSans-54" d="M157.6,341.4h6.2v0.8h-2.6v6.5h-1v-6.5h-2.6V341.4z"/>
<path id="DejaVuSans-69" d="M164.4,343.2h0.9v5.5h-0.9V343.2z M164.4,341.1h0.9v1.1h-0.9V341.1z"/>
<path id="DejaVuSans-6d" d="M171.4,344.3c0.2-0.4,0.5-0.7,0.8-0.9s0.7-0.3,1.1-0.3c0.6,0,1,0.2,1.3,0.6c0.3,0.4,0.5,1,0.5,1.7v3.3
	h-0.9v-3.3c0-0.5-0.1-0.9-0.3-1.2c-0.2-0.3-0.5-0.4-0.8-0.4c-0.5,0-0.8,0.2-1.1,0.5c-0.3,0.3-0.4,0.7-0.4,1.3v3.1h-0.9v-3.3
	c0-0.5-0.1-0.9-0.3-1.2c-0.2-0.3-0.5-0.4-0.9-0.4c-0.5,0-0.8,0.2-1.1,0.5c-0.3,0.3-0.4,0.7-0.4,1.3v3.1h-0.9v-5.5h0.9v0.9
	c0.2-0.3,0.5-0.6,0.7-0.7c0.3-0.2,0.6-0.2,1-0.2c0.4,0,0.7,0.1,1,0.3C171.1,343.6,171.3,343.9,171.4,344.3z"/>
<path id="DejaVuSans-65" d="M181.6,345.7v0.4h-4.1c0,0.6,0.2,1.1,0.6,1.4c0.3,0.3,0.8,0.5,1.4,0.5c0.3,0,0.7,0,1-0.1
	c0.3-0.1,0.6-0.2,1-0.4v0.8c-0.3,0.1-0.7,0.2-1,0.3c-0.3,0.1-0.7,0.1-1,0.1c-0.9,0-1.6-0.3-2.1-0.8c-0.5-0.5-0.8-1.2-0.8-2.1
	c0-0.9,0.2-1.6,0.7-2.1c0.5-0.5,1.1-0.8,2-0.8c0.7,0,1.3,0.2,1.7,0.7C181.3,344.3,181.6,344.9,181.6,345.7z M180.7,345.5
	c0-0.5-0.1-0.9-0.4-1.2c-0.3-0.3-0.6-0.4-1.1-0.4c-0.5,0-0.9,0.1-1.2,0.4s-0.5,0.7-0.5,1.2L180.7,345.5z"/>
<path id="DejaVuSans-20" d="M182.1,348.7"/>
<path id="DejaVuSans-28" d="M188.4,341.1c-0.4,0.7-0.8,1.5-1,2.2c-0.2,0.7-0.3,1.5-0.3,2.2c0,0.8,0.1,1.5,0.3,2.2
	c0.2,0.7,0.5,1.5,1,2.2h-0.8c-0.5-0.8-0.9-1.5-1.1-2.3s-0.4-1.5-0.4-2.2c0-0.7,0.1-1.5,0.4-2.2c0.2-0.7,0.6-1.5,1.1-2.3H188.4z"/>
<path id="DejaVuSans-6d_00000139271849140539387870000008827805344720055940_" d="M194.4,344.3c0.2-0.4,0.5-0.7,0.8-0.9
	s0.7-0.3,1.1-0.3c0.6,0,1,0.2,1.3,0.6c0.3,0.4,0.5,1,0.5,1.7v3.3h-0.9v-3.3c0-0.5-0.1-0.9-0.3-1.2c-0.2-0.3-0.5-0.4-0.8-0.4
	c-0.5,0-0.8,0.2-1.1,0.5c-0.3,0.3-0.4,0.7-0.4,1.3v3.1h-0.9v-3.3c0-0.5-0.1-0.9-0.3-1.2c-0.2-0.3-0.5-0.4-0.9-0.4
	c-0.5,0-0.8,0.2-1.1,0.5c-0.3,0.3-0.4,0.7-0.4,1.3v3.1h-0.9v-5.5h0.9v0.9c0.2-0.3,0.5-0.6,0.7-0.7c0.3-0.2,0.6-0.2,1-0.2
	c0.4,0,0.7,0.1,1,0.3C194,343.6,194.2,343.9,194.4,344.3z"/>
<path id="DejaVuSans-2f" d="M201.4,341.4h0.8l-2.5,8.2h-0.8L201.4,341.4z"/>
<path id="DejaVuSans-73" d="M206.7,343.4v0.8c-0.3-0.1-0.5-0.2-0.8-0.3c-0.3-0.1-0.6-0.1-0.8-0.1c-0.4,0-0.8,0.1-1,0.2
	c-0.2,0.1-0.3,0.3-0.3,0.6c0,0.2,0.1,0.4,0.2,0.5c0.2,0.1,0.5,0.2,1,0.3l0.3,0.1c0.6,0.1,1.1,0.3,1.4,0.6c0.3,0.2,0.4,0.6,0.4,1
	c0,0.5-0.2,0.9-0.6,1.2c-0.4,0.3-1,0.4-1.7,0.4c-0.3,0-0.6,0-0.9-0.1c-0.3-0.1-0.7-0.1-1-0.3v-0.9c0.3,0.2,0.7,0.3,1,0.4
	c0.3,0.1,0.6,0.1,1,0.1c0.4,0,0.7-0.1,1-0.2c0.2-0.1,0.3-0.3,0.3-0.6c0-0.2-0.1-0.4-0.2-0.6c-0.2-0.1-0.5-0.3-1.1-0.4l-0.3-0.1
	c-0.6-0.1-1-0.3-1.2-0.5c-0.2-0.2-0.4-0.6-0.4-1c0-0.5,0.2-0.9,0.5-1.2c0.4-0.3,0.9-0.4,1.6-0.4c0.3,0,0.6,0,0.9,0.1
	C206.2,343.2,206.5,343.3,206.7,343.4z"/>
<path id="DejaVuSans-29" d="M208.3,341.1h0.8c0.5,0.8,0.9,1.5,1.1,2.3c0.2,0.7,0.4,1.5,0.4,2.2c0,0.7-0.1,1.5-0.4,2.2
	s-0.6,1.5-1.1,2.3h-0.8c0.4-0.7,0.8-1.5,1-2.2c0.2-0.7,0.3-1.5,0.3-2.2c0-0.8-0.1-1.5-0.3-2.2C209,342.6,208.7,341.8,208.3,341.1z"
	/>
<path id="DejaVuSans-31_00000157269559948820349100000010535853684168583859_" d="M306.4,346.8h1.6v-5.6l-1.8,0.4v-0.9l1.7-0.4h1
	v6.5h1.6v0.8h-4.2V346.8z"/>
<path id="DejaVuSans-65_00000035528054086625440520000010710764361537435033_" d="M317.1,344.7v0.4H313c0,0.6,0.2,1.1,0.6,1.4
	c0.3,0.3,0.8,0.5,1.4,0.5c0.3,0,0.7,0,1-0.1c0.3-0.1,0.6-0.2,1-0.4v0.8c-0.3,0.1-0.7,0.2-1,0.3c-0.3,0.1-0.7,0.1-1,0.1
	c-0.9,0-1.6-0.3-2.1-0.8c-0.5-0.5-0.8-1.2-0.8-2.1c0-0.9,0.2-1.6,0.7-2.1c0.5-0.5,1.1-0.8,2-0.8c0.7,0,1.3,0.2,1.7,0.7
	C316.9,343.3,317.1,343.9,317.1,344.7z M316.2,344.5c0-0.5-0.1-0.9-0.4-1.2c-0.3-0.3-0.6-0.4-1.1-0.4c-0.5,0-0.9,0.1-1.2,0.4
	s-0.5,0.7-0.5,1.2L316.2,344.5z"/>
<path id="DejaVuSans-38" d="M320.8,344.2c-0.5,0-0.8,0.1-1.1,0.4c-0.3,0.3-0.4,0.6-0.4,1c0,0.4,0.1,0.8,0.4,1
	c0.3,0.3,0.6,0.4,1.1,0.4s0.8-0.1,1.1-0.4c0.3-0.3,0.4-0.6,0.4-1c0-0.4-0.1-0.8-0.4-1C321.7,344.3,321.3,344.2,320.8,344.2z
	 M319.8,343.8c-0.4-0.1-0.8-0.3-1-0.6c-0.2-0.3-0.4-0.6-0.4-1.1c0-0.6,0.2-1,0.6-1.4c0.4-0.3,1-0.5,1.7-0.5c0.7,0,1.3,0.2,1.7,0.5
	s0.6,0.8,0.6,1.4c0,0.4-0.1,0.8-0.4,1.1c-0.2,0.3-0.6,0.5-1,0.6c0.5,0.1,0.8,0.3,1.1,0.6c0.3,0.3,0.4,0.7,0.4,1.2
	c0,0.7-0.2,1.2-0.6,1.6c-0.4,0.4-1,0.6-1.9,0.6c-0.8,0-1.4-0.2-1.9-0.6c-0.4-0.4-0.6-0.9-0.6-1.6c0-0.5,0.1-0.9,0.4-1.2
	C319,344.1,319.4,343.9,319.8,343.8z M319.5,342.2c0,0.4,0.1,0.7,0.4,0.9c0.2,0.2,0.6,0.3,1,0.3c0.4,0,0.8-0.1,1-0.3
	c0.2-0.2,0.4-0.5,0.4-0.9c0-0.4-0.1-0.7-0.4-0.9c-0.2-0.2-0.6-0.3-1-0.3c-0.4,0-0.8,0.1-1,0.3C319.6,341.6,319.5,341.9,319.5,342.2z
	"/>
<path id="m13674a8226" class="st1" d="M45,282h-3.5"/>
<path id="DejaVuSans-2212" d="M11.6,282.2h6.3v0.8h-6.3V282.2z"/>
<path id="DejaVuSans-31_00000066475364486789204020000010874680455375609998_" d="M20.2,285h1.6v-5.6l-1.8,0.4v-0.9l1.7-0.4h1v6.5
	h1.6v0.8h-4.2V285z"/>
<path id="DejaVuSans-30_00000094575899946486315810000002370916010590963374_" d="M28.5,279.2c-0.5,0-0.9,0.2-1.1,0.8
	c-0.3,0.5-0.4,1.2-0.4,2.3c0,1,0.1,1.7,0.4,2.2c0.3,0.5,0.6,0.8,1.1,0.8c0.5,0,0.9-0.2,1.1-0.8c0.3-0.5,0.4-1.2,0.4-2.2
	c0-1-0.1-1.8-0.4-2.3C29.3,279.4,29,279.2,28.5,279.2z M28.5,278.4c0.8,0,1.4,0.3,1.9,1c0.4,0.6,0.6,1.6,0.6,2.8
	c0,1.2-0.2,2.2-0.6,2.8c-0.4,0.6-1.1,1-1.9,1c-0.8,0-1.4-0.3-1.9-1c-0.4-0.6-0.6-1.6-0.6-2.8c0-1.2,0.2-2.2,0.6-2.8
	C27,278.7,27.6,278.4,28.5,278.4z"/>
<path id="DejaVuSans-30_00000121991220169645245650000013409221032506257058_" d="M34.8,279.2c-0.5,0-0.9,0.2-1.1,0.8
	c-0.3,0.5-0.4,1.2-0.4,2.3c0,1,0.1,1.7,0.4,2.2c0.3,0.5,0.6,0.8,1.1,0.8c0.5,0,0.9-0.2,1.2-0.8c0.3-0.5,0.4-1.2,0.4-2.2
	c0-1-0.1-1.8-0.4-2.3C35.7,279.4,35.3,279.2,34.8,279.2z M34.8,278.4c0.8,0,1.4,0.3,1.9,1c0.4,0.6,0.6,1.6,0.6,2.8
	c0,1.2-0.2,2.2-0.6,2.8c-0.4,0.6-1.1,1-1.9,1c-0.8,0-1.4-0.3-1.9-1c-0.4-0.6-0.6-1.6-0.6-2.8c0-1.2,0.2-2.2,0.6-2.8
	C33.4,278.7,34,278.4,34.8,278.4z"/>
<path id="m13674a8226_00000085209548786313771220000007339549667215600029_" class="st1" d="M45,237.2h-3.5"/>
<path id="DejaVuSans-2212_00000060720179767645315270000015211741948966464948_" d="M18,237.4h6.3v0.8H18V237.4z"/>
<path id="DejaVuSans-38_00000036252702474951782750000008314577064750765715_" d="M28.5,237.5c-0.5,0-0.8,0.1-1.1,0.4
	c-0.3,0.3-0.4,0.6-0.4,1c0,0.4,0.1,0.8,0.4,1c0.3,0.3,0.6,0.4,1.1,0.4s0.8-0.1,1.1-0.4c0.3-0.3,0.4-0.6,0.4-1c0-0.4-0.1-0.8-0.4-1
	C29.3,237.6,28.9,237.5,28.5,237.5z M27.5,237.1c-0.4-0.1-0.8-0.3-1-0.6c-0.2-0.3-0.4-0.6-0.4-1.1c0-0.6,0.2-1,0.6-1.4
	c0.4-0.3,1-0.5,1.7-0.5c0.7,0,1.3,0.2,1.7,0.5s0.6,0.8,0.6,1.4c0,0.4-0.1,0.8-0.4,1.1c-0.2,0.3-0.6,0.5-1,0.6
	c0.5,0.1,0.8,0.3,1.1,0.7c0.3,0.3,0.4,0.7,0.4,1.2c0,0.7-0.2,1.2-0.6,1.6c-0.4,0.4-1,0.6-1.9,0.6c-0.8,0-1.4-0.2-1.9-0.6
	c-0.4-0.4-0.6-0.9-0.6-1.6c0-0.5,0.1-0.9,0.4-1.2C26.6,237.4,27,237.2,27.5,237.1z M27.1,235.5c0,0.4,0.1,0.7,0.4,0.9
	c0.2,0.2,0.6,0.3,1,0.3c0.4,0,0.8-0.1,1-0.3c0.2-0.2,0.4-0.5,0.4-0.9c0-0.4-0.1-0.7-0.4-0.9c-0.2-0.2-0.6-0.3-1-0.3
	c-0.4,0-0.8,0.1-1,0.3C27.2,234.8,27.1,235.1,27.1,235.5z"/>
<path id="DejaVuSans-30_00000176041259024315104640000007002839135807353521_" d="M34.8,234.3c-0.5,0-0.9,0.2-1.1,0.8
	c-0.3,0.5-0.4,1.2-0.4,2.3c0,1,0.1,1.7,0.4,2.2c0.3,0.5,0.6,0.8,1.1,0.8c0.5,0,0.9-0.2,1.2-0.8c0.3-0.5,0.4-1.2,0.4-2.2
	c0-1-0.1-1.8-0.4-2.3C35.7,234.6,35.3,234.3,34.8,234.3z M34.8,233.5c0.8,0,1.4,0.3,1.9,1c0.4,0.6,0.6,1.6,0.6,2.8
	c0,1.2-0.2,2.2-0.6,2.8c-0.4,0.6-1.1,1-1.9,1c-0.8,0-1.4-0.3-1.9-1c-0.4-0.6-0.6-1.6-0.6-2.8c0-1.2,0.2-2.2,0.6-2.8
	C33.4,233.9,34,233.5,34.8,233.5z"/>
<path id="m13674a8226_00000170996319464970083800000000736472762186969223_" class="st1" d="M45,192.3h-3.5"/>
<path id="DejaVuSans-2212_00000162315564720702189990000010543260306060275877_" d="M18,192.6h6.3v0.8H18V192.6z"/>
<path id="DejaVuSans-36_00000163059036728787339230000004270209013814812063_" d="M28.6,192.1c-0.4,0-0.8,0.2-1.1,0.5
	c-0.3,0.3-0.4,0.7-0.4,1.2c0,0.5,0.1,0.9,0.4,1.2c0.3,0.3,0.6,0.5,1.1,0.5c0.4,0,0.8-0.2,1.1-0.5c0.3-0.3,0.4-0.7,0.4-1.2
	c0-0.5-0.1-0.9-0.4-1.2C29.4,192.2,29,192.1,28.6,192.1z M30.5,189v0.9c-0.2-0.1-0.5-0.2-0.8-0.3c-0.3-0.1-0.5-0.1-0.8-0.1
	c-0.7,0-1.1,0.2-1.5,0.7c-0.3,0.4-0.5,1.1-0.6,2c0.2-0.3,0.4-0.5,0.7-0.7c0.3-0.2,0.6-0.2,1-0.2c0.7,0,1.3,0.2,1.7,0.7
	c0.4,0.4,0.6,1,0.6,1.8c0,0.7-0.2,1.4-0.7,1.8c-0.4,0.5-1,0.7-1.8,0.7c-0.8,0-1.5-0.3-1.9-1c-0.4-0.6-0.7-1.6-0.7-2.8
	c0-1.2,0.3-2.1,0.8-2.8c0.5-0.7,1.3-1,2.2-1c0.2,0,0.5,0,0.8,0.1C30,188.8,30.3,188.9,30.5,189z"/>
<path id="DejaVuSans-30_00000031200626285366715450000001352972052630500484_" d="M34.8,189.5c-0.5,0-0.9,0.2-1.1,0.8
	c-0.3,0.5-0.4,1.2-0.4,2.3c0,1,0.1,1.7,0.4,2.2c0.3,0.5,0.6,0.8,1.1,0.8c0.5,0,0.9-0.2,1.2-0.8c0.3-0.5,0.4-1.2,0.4-2.2
	c0-1-0.1-1.8-0.4-2.3C35.7,189.7,35.3,189.5,34.8,189.5z M34.8,188.7c0.8,0,1.4,0.3,1.9,1c0.4,0.6,0.6,1.6,0.6,2.8
	c0,1.2-0.2,2.2-0.6,2.8c-0.4,0.6-1.1,1-1.9,1c-0.8,0-1.4-0.3-1.9-1c-0.4-0.6-0.6-1.6-0.6-2.8c0-1.2,0.2-2.2,0.6-2.8
	C33.4,189,34,188.7,34.8,188.7z"/>
<path id="m13674a8226_00000060735391682348421940000000413800885280211364_" class="st1" d="M45,147.5h-3.5"/>
<path id="DejaVuSans-2212_00000055691480538661887690000011957442402266045603_" d="M18,147.7h6.3v0.8H18V147.7z"/>
<path id="DejaVuSans-34_00000183228551280699104900000009632314800333188484_" d="M29.1,144.9l-2.5,3.9h2.5V144.9z M28.8,144H30v4.8
	h1v0.8h-1v1.7h-1v-1.7h-3.3v-1L28.8,144z"/>
<path id="DejaVuSans-30_00000080913135565435979770000016304103211292741044_" d="M34.8,144.6c-0.5,0-0.9,0.2-1.1,0.8
	c-0.3,0.5-0.4,1.2-0.4,2.3c0,1,0.1,1.7,0.4,2.2c0.3,0.5,0.6,0.8,1.1,0.8c0.5,0,0.9-0.2,1.2-0.8c0.3-0.5,0.4-1.2,0.4-2.2
	c0-1-0.1-1.8-0.4-2.3C35.7,144.9,35.3,144.6,34.8,144.6z M34.8,143.9c0.8,0,1.4,0.3,1.9,1c0.4,0.6,0.6,1.6,0.6,2.8
	c0,1.2-0.2,2.2-0.6,2.8c-0.4,0.6-1.1,1-1.9,1c-0.8,0-1.4-0.3-1.9-1c-0.4-0.6-0.6-1.6-0.6-2.8c0-1.2,0.2-2.2,0.6-2.8
	C33.4,144.2,34,143.9,34.8,143.9z"/>
<path id="m13674a8226_00000160889474150047881630000013776700209431850938_" class="st1" d="M45,102.6h-3.5"/>
<path id="DejaVuSans-2212_00000134247991194079550290000001960723069332006303_" d="M18,102.9h6.3v0.8H18V102.9z"/>
<path id="DejaVuSans-32_00000067226581783974186430000016580619659610351266_" d="M27.2,105.6h3.4v0.8H26v-0.8
	c0.4-0.4,0.9-0.9,1.5-1.6c0.6-0.7,1.1-1.1,1.2-1.3c0.3-0.4,0.5-0.7,0.7-0.9c0.1-0.2,0.2-0.5,0.2-0.7c0-0.4-0.1-0.7-0.4-0.9
	c-0.3-0.2-0.6-0.4-1.1-0.4c-0.3,0-0.6,0.1-1,0.2c-0.3,0.1-0.7,0.3-1.1,0.5v-1c0.4-0.2,0.8-0.3,1.1-0.4c0.3-0.1,0.7-0.1,0.9-0.1
	c0.8,0,1.4,0.2,1.8,0.6c0.4,0.4,0.7,0.9,0.7,1.5c0,0.3-0.1,0.6-0.2,0.9c-0.1,0.3-0.3,0.6-0.6,0.9c-0.1,0.1-0.3,0.4-0.8,0.8
	C28.6,104.2,28,104.8,27.2,105.6z"/>
<path id="DejaVuSans-30_00000116208031310938411450000000415209718924086665_" d="M34.8,99.8c-0.5,0-0.9,0.2-1.1,0.8
	c-0.3,0.5-0.4,1.2-0.4,2.3c0,1,0.1,1.7,0.4,2.2c0.3,0.5,0.6,0.8,1.1,0.8c0.5,0,0.9-0.2,1.2-0.8c0.3-0.5,0.4-1.2,0.4-2.2
	c0-1-0.1-1.8-0.4-2.3C35.7,100.1,35.3,99.8,34.8,99.8z M34.8,99c0.8,0,1.4,0.3,1.9,1c0.4,0.6,0.6,1.6,0.6,2.8c0,1.2-0.2,2.2-0.6,2.8
	c-0.4,0.6-1.1,1-1.9,1c-0.8,0-1.4-0.3-1.9-1c-0.4-0.6-0.6-1.6-0.6-2.8c0-1.2,0.2-2.2,0.6-2.8C33.4,99.3,34,99,34.8,99z"/>
<path id="m13674a8226_00000179634413748061509900000014115954168601776269_" class="st1" d="M45,57.8h-3.5"/>
<path id="DejaVuSans-30_00000037674682833052475250000011931224734107330212_" d="M34.8,55c-0.5,0-0.9,0.2-1.1,0.8
	c-0.3,0.5-0.4,1.2-0.4,2.3c0,1,0.1,1.7,0.4,2.2c0.3,0.5,0.6,0.8,1.1,0.8c0.5,0,0.9-0.2,1.2-0.8c0.3-0.5,0.4-1.2,0.4-2.2
	c0-1-0.1-1.8-0.4-2.3C35.7,55.2,35.3,55,34.8,55z M34.8,54.2c0.8,0,1.4,0.3,1.9,1c0.4,0.6,0.6,1.6,0.6,2.8c0,1.2-0.2,2.2-0.6,2.8
	c-0.4,0.6-1.1,1-1.9,1c-0.8,0-1.4-0.3-1.9-1c-0.4-0.6-0.6-1.6-0.6-2.8c0-1.2,0.2-2.2,0.6-2.8C33.4,54.5,34,54.2,34.8,54.2z"/>
<path id="DejaVuSans-4c" d="M-2.8,201.4v-1h6.5v-3.5h0.8v4.5H-2.8z"/>
<path id="DejaVuSans-61" d="M1.7,193.4c0,0.7,0.1,1.2,0.2,1.5c0.2,0.3,0.4,0.4,0.8,0.4c0.3,0,0.6-0.1,0.8-0.3
	c0.2-0.2,0.3-0.5,0.3-0.9c0-0.5-0.2-0.9-0.5-1.2s-0.8-0.5-1.4-0.5H1.7V193.4z M1.3,191.6h3.1v0.9H3.6c0.3,0.2,0.6,0.5,0.7,0.8
	s0.2,0.7,0.2,1.1c0,0.6-0.2,1-0.5,1.3c-0.3,0.3-0.7,0.5-1.3,0.5c-0.6,0-1.1-0.2-1.4-0.6c-0.3-0.4-0.5-1-0.5-1.8v-1.3H0.9
	c-0.4,0-0.7,0.1-1,0.4s-0.3,0.7-0.3,1.1c0,0.3,0,0.6,0.1,0.9c0.1,0.3,0.2,0.6,0.3,0.9h-0.8c-0.1-0.3-0.2-0.6-0.3-1
	c-0.1-0.3-0.1-0.6-0.1-0.9c0-0.8,0.2-1.4,0.6-1.8C-0.1,191.8,0.5,191.6,1.3,191.6z"/>
<path id="DejaVuSans-74" d="M-2.6,188.8H-1V187h0.7v1.8h3c0.4,0,0.7-0.1,0.9-0.2c0.1-0.1,0.2-0.4,0.2-0.7V187h0.8v0.9
	c0,0.7-0.1,1.2-0.4,1.4c-0.3,0.3-0.7,0.4-1.4,0.4h-3v0.7H-1v-0.7h-1.6V188.8z"/>
<path id="DejaVuSans-69_00000011731765724492260820000016372783389702668700_" d="M-1,185.8v-0.9h5.5v0.9H-1z M-3.1,185.8v-0.9H-2
	v0.9H-3.1z"/>
<path id="DejaVuSans-74_00000181776945006455071330000008837242236839967917_" d="M-2.6,182.1H-1v-1.8h0.7v1.8h3
	c0.4,0,0.7-0.1,0.9-0.2c0.1-0.1,0.2-0.4,0.2-0.7v-0.9h0.8v0.9c0,0.7-0.1,1.2-0.4,1.4c-0.3,0.3-0.7,0.4-1.4,0.4h-3v0.7H-1v-0.7h-1.6
	V182.1z"/>
<path id="DejaVuSans-75" d="M2.3,179.2H-1v-0.9h3.3c0.5,0,0.9-0.1,1.2-0.3c0.3-0.2,0.4-0.5,0.4-0.9c0-0.5-0.2-0.9-0.5-1.1
	c-0.3-0.3-0.7-0.4-1.3-0.4H-1v-0.9h5.5v0.9H3.6c0.3,0.2,0.6,0.5,0.7,0.8c0.2,0.3,0.2,0.6,0.2,1c0,0.6-0.2,1.1-0.6,1.4
	C3.6,179,3,179.2,2.3,179.2z M-1.1,176.9L-1.1,176.9z"/>
<path id="DejaVuSans-64" d="M-0.2,169.2h-3v-0.9h7.6v0.9H3.6c0.3,0.2,0.6,0.4,0.7,0.7c0.2,0.3,0.2,0.6,0.2,1c0,0.7-0.3,1.2-0.8,1.6
	c-0.5,0.4-1.2,0.6-2.1,0.6s-1.6-0.2-2.1-0.6c-0.5-0.4-0.8-1-0.8-1.6c0-0.4,0.1-0.8,0.2-1C-0.8,169.6-0.5,169.4-0.2,169.2z
	 M1.7,172.2c0.7,0,1.2-0.1,1.6-0.4c0.4-0.3,0.6-0.6,0.6-1.1s-0.2-0.8-0.6-1.1c-0.4-0.3-0.9-0.4-1.6-0.4s-1.2,0.1-1.6,0.4
	c-0.4,0.3-0.6,0.6-0.6,1.1s0.2,0.8,0.6,1.1C0.5,172.1,1.1,172.2,1.7,172.2z"/>
<path id="DejaVuSans-65_00000062177582901691357660000004770027429358109829_" d="M1.5,161.8h0.4v4.1c0.6,0,1.1-0.2,1.4-0.6
	c0.3-0.3,0.5-0.8,0.5-1.4c0-0.3,0-0.7-0.1-1c-0.1-0.3-0.2-0.6-0.4-1h0.9c0.1,0.3,0.2,0.7,0.3,1c0.1,0.3,0.1,0.7,0.1,1
	c0,0.9-0.3,1.6-0.8,2.1c-0.5,0.5-1.2,0.8-2.1,0.8c-0.9,0-1.6-0.2-2.1-0.7c-0.5-0.5-0.8-1.1-0.8-2c0-0.7,0.2-1.3,0.7-1.7
	C0,162,0.7,161.8,1.5,161.8z M1.2,162.7c-0.5,0-0.9,0.1-1.2,0.4c-0.3,0.3-0.4,0.6-0.4,1.1c0,0.5,0.1,0.9,0.4,1.2s0.7,0.5,1.2,0.5
	L1.2,162.7z"/>
<rect x="45" y="43.2" class="st2" width="279" height="277.2"/>
<path class="st3" d="M57.7,56.2l0.2-0.1l0.3-0.2l0.3,0l0.9,0l0.3,0.4l0.5,0.7l0.3,0.1l0.4-0.2l1.6-0.7l0.1,0.1l0.1,0.6l0.2,2.4
	l0.3,6L64,88.2l1.8,55.3l0.9,23.7l2.1,56.7l0.6,13.1l0.3,3l0.1,0.3l0,0l0.3-0.5l0.8-1.4l0,0l0.1,0.1l0.8,1.6l0.4,0.3l0.3,0.3l0.6,0
	l0.3,0l0.4-0.1l0.2-0.6l0.5-2l0.2-2.1l0.3-5.2l0.8-20l2.1-58.9l0.7-15.7l0.3-1.9l0.1-0.3l0,0l0.1,0.3l0.2,1.1l0.3,3.3l0.6,12.7
	l2.6,54.4l0.3,2.2l0.4,2.5l0.3,4l0.7,13.7l1.9,43.4l0.4,7.9l0.3,1.4l0.1,0l0,0l0.2-0.5l0.2-1.9l0.3-4.8l2.5-51.8l0.7-13.6l0.3-1.6
	l0.4-1.5l0.2-2.5l0.5-9.2l1.5-35.5l1.3-28.8l0.3-2L96,127l0.1,0.2l0.2,1.3l0.3,3.1l1,17.1l2.3,37.6l0.3,4.9l0.6,16.6l1.2,37.8
	l0.9,25.8l0.3,1.8l0.1,0l0.3-0.5l0.3-0.3l0.9-0.4l0.2,0l0.4,0.4l0.4,0.2l0.6,0l0.1-0.5l0.3-1.6l0.3-3.3l0.4-7.8l1.2-33.9l1.7-44.4
	l0.4-2.9l0.3-2.4l0.4-6.4l1.6-32.1L114,121l0.2-1l0.1,0.1l0.1,0.8l0.3,2.9l3,46.3l0.5,13.9l1.7,54.5l0.5,13.6l0.4,4.6l0.7,8
	l0.9,14.2l0.9,14.4l0.1,0.3l0.1-0.2l0.2-1.2l0.3-3.6l3.2-50.5l0.9-26.6l1.6-47.3l0.3-4.2l0.4-4.2l0.7-11.3l2-31.1l0.1-0.2l0,0
	l0.1,0.6l0.3,2.8l2.8,40.9l0.7,19.4l1.8,54l1.2,24.1l1.8,38.1l0.1,0.2l0,0l0.2-0.3l0.6-1.1l0.3,0l1,0.2l0.4-0.2l0.1-0.8l0.3-3.2
	l0.4-9.3l2.9-68.4L151,145l1.4-20l1.3-18.3l0.1-0.4l0.1,0.2l0.1,0.9l0.3,4.1l1.2,14.3l1,12l0.4,8.4l5,134l0.6,6.2l0.8,8.2l1.2,12.7
	l0.1,0.1l0,0l0.1-0.7l0.3-3l1.7-19.2l0.6-7.1l0.4-8l5.4-139.5l2.2-28.3l0,0"/>
<rect x="45" y="43.2" class="st2" width="279" height="277.2"/>
<path class="st4" d="M57.7,57.8l1.4-0.1l0.5-0.1l1.3,0.2l1-0.1l1.3,0.1l0.8,0.1l1.1-0.1l1.5,0l4.3,0l0.8,0l1.9,0l0.7,0.1l0.7,0
	l1.5-0.1l0.9,0l2.6-0.1l3.4,0.1l0.8,0l0.6,0l0.1,0.4l0.2,1.6l0.2,4.6l0.4,13.9l0.7,21l1.4,34l0.4,2.8l0.4,1.4l0.8,1.9l0.2,0.7
	l0.2,2.1l0.3,6.1l3.2,82.8l0.4,4.6l0.4,1.9l0.5,1.4l0.7,1.3l0.3,0.2l0.3-0.1l0.5-0.3l0.5,0.4l0.4,0.2l0.3-0.1l0.9-0.4l2,0l1,0.1
	l0.2-0.1l0.1-0.4l0.2-1.6l0.3-4.9l0.8-23.2l2.8-69.9l0.4-3.4l0.4-1.6l0.6-1.5l0.5-0.7l0.3-0.1l0.1,0.2l0.1,0.8l0.2,2.8l0.4,10
	l1,21.5l1.7,33.3l0.4,2.4l0.4,1.1l0.9,1.5l0.5,0.8l0.2,1.4l0.3,4.1l3.2,63.6l0.4,1.8l0.4,1.1l0.8,1.4l0.2,0.1l0,0l0.1-0.3l0.2-1.3
	l0.2-4.3l2.8-59.9l0.4-4.1l0.4-1.7l0.5-1.1l0.7-1l0.4-0.6l0.2-1.2l0.2-3.9l0.8-18.9l2.3-49.1l0.4-3.4l0.4-1.5l0.6-1.2l0.6-0.9
	l0.3-0.1l0,0l0.1,0.3l0.2,1.3l0.3,3.7l2.6,44.4l0.4,2.7l0.4,1.2l0.6,1.1l0.8,1.4l0.2,1.8l0.3,5.3l0.9,27.1l1.8,47.4l0.4,3.8l0.4,1.6
	l0.6,1.5l0.5,0.9l0.3,0.1l1,0l0.6,0.1l3.1-0.3l0.1-0.5l0.2-1.8l0.3-5.4l1.3-37.5l1.5-37.7l0.4-3.1l0.4-1.3l0.9-2l0.2-0.6l0.2-1.8
	l0.3-4.9l2.4-46l0.4-4.8l0.4-1.9l0.4-1l0.8-1.3l0.2-0.1l0,0l0.1,0.4l0.2,1.3l0.3,3.8l2.1,31.8l0.4,3.2l0.3,1.2l0.4,0.7l0.8,1.2
	l0.2,1.2l0.2,3.6l0.3,10l1.8,54.5l0.5,10.3l0.4,3.6l0.4,1.5l0.6,1.5l0.5,1.4l0.2,2.1l0.4,6.2l1.4,22.4l0.6,7.9l0.4,2.2l0.4,0.9
	l0.6,0.7l0.3,0.3l0.1-0.2l0.2-0.8l0.3-2.7l0.5-8.1l1.6-23.3l0.4-4.4l0.4-1.6l0.4-0.7l0.9-1.6l0.2-1.4l0.2-4.3l0.4-13l1.5-45.6
	l0.6-13.9l0.4-4.4l0.3-1.7l0.5-1.3l0.7-1.9l0.2-2l0.4-6l1.7-28.2l0.6-8.5l0.4-2.4l0.4-1l0.6-0.9l0.4-0.3l0,0l0.1,0.3l0.2,1l0.3,3.1
	l2.2,27.6l0.4,1.4l0.4,0.6l0.9,1.2l0.2,1.1l0.2,3.2l0.3,8.8l1.7,50.2l0.5,9l0.4,3.3l0.4,1.4l0.7,1.6l0.2,0.7l0.2,1.8l0.3,5.4
	l2.1,48.8l0.4,4l0.4,1.6l0.4,1l0.5,0.7l0.4,0.1l0.4-0.1l0.3,0.1l1.2,0.5l1.2-0.1l0.7-0.1l0.2-0.5l0.2-1.3l0.2-4.2l2.5-53l0.3-1.9
	l0.4-1l0.8-1.7l0.2-1.5l0.2-4.3l0.4-13.4l1.4-41l0.5-11.3l0.4-3.9l0.3-1.5l0.5-1.2l0.5-1.4l0.2-2l0.4-5.6l1.5-23.2l0.6-7l0.4-2.1
	l0.4-0.9l0.5-0.7l0.3-0.2l0.1,0.2l0.2,0.8l0.3,2.4l0.7,8.7l1.2,12.9l0.4,1.9l0.3,0.7l0.7,0.7l0.2,0.4l0.2,0.8l0.2,2.3l0.3,6.4
	l2,52.8l0.4,4.5l0.4,1.8l0.5,1.2l0.4,1.1l0.2,1.5l0.2,4.4l0.5,14.4l1.2,33.4l0.5,10.3l0.4,3.8l0.4,1.6l0.5,1.2l0.4,1.1l0.3,1.9
	l0.4,5.3l1.3,15.3l0.5,4l0.4,1.3l0.4,0.6l0.6,0.5l0.1-0.2l0.2-0.6l0.3-1.8l0.4-4.7l1.4-16l0.4-3.2l0.3-1.1l0.4-0.5l0.7-0.9l0.2-0.8
	l0.2-2.3l0.3-6.3l2.1-54.2l0.4-4l0.3-1.6l0.5-1.1l0.4-1l0.2-1.5l0.2-4.4l0.5-14.8l1.2-32.4l0.5-10.8l0.4-3.7l0.3-1.5l0.5-1.2
	l0.4-1.1l0.2-1.9l0.4-5.2l1.4-20.5l0.5-5.2l0.4-1.8l0.4-0.8l0.9-1.5l0.2-1.7l0.2-4.8l0.5-16.7l0.5-10.7l0.3-3.5l0.2-0.6l0,0l0.1,0.1
	l0.6,1l0.2-0.2l0.3-0.7l0.5-1l0.3-0.2l0.9-0.2l1.9-1.1l0.6-0.4l0.8-0.5l1.2-0.7l1.4-0.8l0.7-0.1l2.4-0.1l39,1.6l0,0"/>
<rect x="45" y="43.2" class="st2" width="279" height="277.2"/>
<path class="st5" d="M57.7,57.8l3.1,0.1l0.9-0.1l2.7,0l0.7,0l0.8,0.1l3-0.1l0.7,0l0.7,0.1l1.6,0.1l3-0.1l1,0l1.3-0.1l0.4,0l0.7,0.1
	l1.7,0.1l0.8,0l2.4,0l1-0.2l0.9,0.1l0.1,0.7l0.2,2.4l0.3,7l2.4,65l0.4,4.3l0.4,1.9l0.4,0.9l0.5,0.8l0.2,1.6l0.3,5.1l1.6,41.2
	l1.8,43.8l0.4,4.8l0.4,2.2l0.4,1l0.3,0.4l0.4,0.2l0.3-0.1l0.7-0.1l0.7,0.4l0.5-0.1l0.5-0.2l2.8-0.4l1-0.1l0.1-0.7l0.2-2.4l0.3-7
	l2.7-68.1l0.9-20.3l0.4-5.1l0.4-2.2l0.4-1l0.5-0.6l0.5-0.2l0.2,0.1l0.1,0.4l0.2,1.7l0.3,5.1l3.1,60.7l0.4,3.8l0.4,1.7l0.4,0.7
	l0.4,0.3l0.6,0.3l0.1,0.8l0.2,2.5l0.5,9.6l2.8,54.5l0.4,3.7l0.4,1.7l0.4,0.8l0.4,0.3l0.4,0.1l0.1-0.3l0.2-1.2l0.3-4.1l3.4-64.4
	l0.4-2.6l0.4-1.2l0.4-0.5l0.5-0.3l0.2-0.2l0.1-0.6l0.2-2.1l0.4-7l3.2-64.5l0.4-3.5l0.4-1.7l0.4-0.8l0.4-0.3l0.4-0.1l0.1,0.4l0.2,1.9
	l0.3,5l2.8,44l0.4,2.8l0.4,1.2l0.3,0.5l0.5,0.3l0.2,0.2l0.1,0.6l0.2,2.4l0.3,6.8l3,74.9l0.4,3.2l0.4,1.4l0.4,0.6l0.4,0.2l0.3,0
	l0.4,0l0.8,0l2.3-0.3l1.5-0.1l0.1-0.7l0.2-2.6l0.3-7.6l2.8-72.9l0.4-3.9l0.4-1.7l0.4-0.7l0.6-0.9l0.2-1.8l0.3-5.1l2.8-49.1l0.4-3.1
	l0.4-1.5l0.4-0.6l0.4-0.3l0.3,0l0.1,0.5l0.2,1.7l0.4,5l2.5,33.4l0.4,1.9l0.4,1l0.5,0.5l0.2,0.2l0.1,0.7l0.2,2.6l0.3,7.5l2.6,69.7
	l0.4,4l0.4,1.8l0.4,0.8l0.5,0.8l0.2,1.7l0.3,4.4l2.3,32.1l0.4,2.6l0.4,1.2l0.4,0.6l0.4,0.2l0.1-0.3l0.2-1.2l0.3-3.3l1-13.4l1.6-21.5
	l0.5-2.6l0.4-1.1l0.4-0.5l0.5-0.5l0.2-1.3l0.3-4.5l0.6-16.6l2.1-56.9l0.4-4.7l0.4-2l0.4-0.9l0.4-0.4l0.1-0.3l0.2-1.2l0.3-3.2l2-32.4
	l0.6-7.6l0.4-3l0.4-1.5l0.4-0.6l0.4-0.3l0.2,0.1l0.2,0.5l0.2,1.6l0.5,5.2l2.3,25.8l0.4,1.7l0.4,0.7l0.6,0.8l0.2,1.4l0.2,4.4
	l0.6,17.2l1.8,47l0.4,5.2l0.4,2.3l0.4,1l0.6,1.2l0.2,2.2l0.4,7.9l2.1,44.8l0.4,4.5l0.4,1.9l0.4,1l0.4,0.4l0.4-0.2l0.3,0l0.7,0.2
	l1.9,0l1.2-0.3l0.2-0.6l0.2-1.8l0.3-6.3l2.3-48.6l0.4-3.7l0.4-1.7l0.4-0.8l0.4-0.7l0.2-1.3l0.3-4.5l0.7-17.8l1.8-47.2l0.4-4.8
	l0.4-2.1l0.4-1l0.3-0.3l0.2-0.1l0.1-0.5l0.2-1.9l0.4-6.1l2.1-28.9l0.4-2.5l0.4-1.2l0.4-0.5l0.4-0.1l0.1,0.3l0.2,1l0.4,2.8l1.4,15.6
	l0.6,6l0.4,2.1l0.4,0.9l0.5,0.6l0.3,0.4l0.1,0.8l0.2,2.6l0.3,7.7l2.1,51.7l0.4,4.8l0.4,2.2l0.4,0.9l0.5,1l0.2,1.8l0.3,5.2l1.6,42.6
	l0.6,12l0.4,5.5l0.4,2.4l0.4,1.1l0.3,0.3l0.1,0.2l0.2,0.7l0.3,2.1l1,10.8l1.2,12.1l0.4,1.9l0.4,0.9l0.4,0.4l0.3,0l0.2-0.4l0.3-1.5
	l0.4-3.4l2-20.7l0.4-2l0.4-0.9l0.4-0.4l0.3-0.3l0.1-0.7l0.2-2.6l0.4-8.4l2.1-51.6l0.4-4.7l0.4-2.1l0.4-1l0.4-0.9l0.2-1.7l0.3-5.2
	l2.4-58.4l0.4-3.2l0.4-1.4l0.4-0.6l0.2-0.3l0.2-0.9l0.3-2.7l2.4-29.6l0.4-1.7l0.4-0.8l0.4-0.4l0.2-0.2l0.1-0.7l0.2-2.5l0.3-7.8
	l0.9-22l0.4-5.4l0.3-1.1l0.3-0.1l1.2,0.1l1-0.5l1.4-0.4l1-0.5l4.1-1.9l1.3,0l1.4,0l0.1,0l44,1.7l0,0"/>
<path class="st6" d="M45,320.4V43.2"/>
<path class="st6" d="M324,320.4V43.2"/>
<path class="st6" d="M45,320.4h279"/>
<path class="st6" d="M45,43.2h279"/>
<path class="st7" d="M135.9,95.2h97.3c1.3,0,2-0.7,2-2v-43c0-1.3-0.7-2-2-2h-97.3c-1.3,0-2,0.7-2,2v43
	C133.9,94.6,134.5,95.2,135.9,95.2z"/>
<path class="st3" d="M137.9,56.3h10h10"/>
<path id="DejaVuSans-47" d="M171.8,58.8v-2h-1.6V56h2.6v3.1c-0.4,0.3-0.8,0.5-1.3,0.6c-0.5,0.1-0.9,0.2-1.5,0.2c-1.1,0-2-0.3-2.7-1
	c-0.6-0.7-1-1.6-1-2.8c0-1.2,0.3-2.1,1-2.8c0.6-0.7,1.5-1,2.7-1c0.5,0,0.9,0.1,1.4,0.2c0.4,0.1,0.8,0.3,1.2,0.5v1.1
	c-0.4-0.3-0.8-0.5-1.2-0.7s-0.8-0.2-1.3-0.2c-0.9,0-1.6,0.2-2,0.7c-0.4,0.5-0.7,1.2-0.7,2.2c0,1,0.2,1.7,0.7,2.2
	c0.4,0.5,1.1,0.7,2,0.7c0.3,0,0.7,0,0.9-0.1C171.3,59,171.6,58.9,171.8,58.8z"/>
<path id="DejaVuSans-72" d="M177.7,55.2c-0.1-0.1-0.2-0.1-0.3-0.1c-0.1,0-0.2,0-0.4,0c-0.5,0-0.9,0.2-1.2,0.5s-0.4,0.8-0.4,1.4v2.9
	h-0.9v-5.5h0.9v0.8c0.2-0.3,0.4-0.6,0.7-0.7c0.3-0.2,0.7-0.2,1.1-0.2c0.1,0,0.1,0,0.2,0c0.1,0,0.2,0,0.2,0L177.7,55.2z"/>
<path id="DejaVuSans-6f" d="M180.5,55c-0.5,0-0.9,0.2-1.1,0.6c-0.3,0.4-0.4,0.9-0.4,1.5s0.1,1.2,0.4,1.5c0.3,0.4,0.7,0.6,1.1,0.6
	c0.5,0,0.9-0.2,1.1-0.6c0.3-0.4,0.4-0.9,0.4-1.5c0-0.6-0.1-1.2-0.4-1.5C181.4,55.1,181,55,180.5,55z M180.5,54.2
	c0.8,0,1.4,0.3,1.8,0.8c0.4,0.5,0.7,1.2,0.7,2.1c0,0.9-0.2,1.6-0.7,2.1c-0.4,0.5-1.1,0.8-1.8,0.8c-0.8,0-1.4-0.3-1.8-0.8
	c-0.4-0.5-0.7-1.2-0.7-2.1c0-0.9,0.2-1.6,0.7-2.1C179.2,54.5,179.8,54.2,180.5,54.2z"/>
<path id="DejaVuSans-75_00000031916670848655449550000016397607060900295048_" d="M184.5,57.6v-3.3h0.9v3.3c0,0.5,0.1,0.9,0.3,1.2
	c0.2,0.3,0.5,0.4,0.9,0.4c0.5,0,0.9-0.2,1.1-0.5c0.3-0.3,0.4-0.7,0.4-1.3v-3.1h0.9v5.5h-0.9V59c-0.2,0.3-0.5,0.6-0.8,0.7
	c-0.3,0.2-0.6,0.2-1,0.2c-0.6,0-1.1-0.2-1.4-0.6C184.6,59,184.5,58.4,184.5,57.6z M186.7,54.2L186.7,54.2z"/>
<path id="DejaVuSans-6e" d="M195.4,56.5v3.3h-0.9v-3.3c0-0.5-0.1-0.9-0.3-1.2c-0.2-0.3-0.5-0.4-0.9-0.4c-0.5,0-0.9,0.2-1.1,0.5
	c-0.3,0.3-0.4,0.7-0.4,1.3v3.1h-0.9v-5.5h0.9v0.8c0.2-0.3,0.5-0.6,0.8-0.7c0.3-0.2,0.6-0.2,1-0.2c0.6,0,1.1,0.2,1.4,0.6
	C195.3,55.2,195.4,55.7,195.4,56.5z"/>
<path id="DejaVuSans-64_00000065752619523462872040000012917778669082145724_" d="M200.8,55.2v-3h0.9v7.6h-0.9V59
	c-0.2,0.3-0.4,0.6-0.7,0.7c-0.3,0.2-0.6,0.2-1,0.2c-0.7,0-1.2-0.3-1.6-0.8c-0.4-0.5-0.6-1.2-0.6-2.1s0.2-1.6,0.6-2.1
	c0.4-0.5,1-0.8,1.6-0.8c0.4,0,0.8,0.1,1,0.2C200.4,54.6,200.6,54.8,200.8,55.2z M197.8,57.1c0,0.7,0.1,1.2,0.4,1.6
	c0.3,0.4,0.6,0.6,1.1,0.6c0.5,0,0.8-0.2,1.1-0.6c0.3-0.4,0.4-0.9,0.4-1.6c0-0.7-0.1-1.2-0.4-1.6c-0.3-0.4-0.6-0.6-1.1-0.6
	c-0.5,0-0.8,0.2-1.1,0.6C197.9,55.9,197.8,56.4,197.8,57.1z"/>
<path id="DejaVuSans-20_00000021116720982404441490000000425632108328406458_" d="M202.6,59.8"/>
<path id="DejaVuSans-54_00000051346355964112244890000012509626270141857923_" d="M205.8,52.5h6.2v0.8h-2.6v6.5h-1v-6.5h-2.6V52.5z"
	/>
<path id="DejaVuSans-72_00000089569273553463682200000000035309973810487733_" d="M214.6,55.2c-0.1-0.1-0.2-0.1-0.3-0.1
	c-0.1,0-0.2,0-0.4,0c-0.5,0-0.9,0.2-1.2,0.5c-0.3,0.3-0.4,0.8-0.4,1.4v2.9h-0.9v-5.5h0.9v0.8c0.2-0.3,0.4-0.6,0.7-0.7
	c0.3-0.2,0.7-0.2,1.1-0.2c0.1,0,0.1,0,0.2,0c0.1,0,0.2,0,0.2,0L214.6,55.2z"/>
<path id="DejaVuSans-75_00000018927084898236799660000004820791929731874439_" d="M215.4,57.6v-3.3h0.9v3.3c0,0.5,0.1,0.9,0.3,1.2
	c0.2,0.3,0.5,0.4,0.9,0.4c0.5,0,0.9-0.2,1.1-0.5c0.3-0.3,0.4-0.7,0.4-1.3v-3.1h0.9v5.5h-0.9V59c-0.2,0.3-0.5,0.6-0.8,0.7
	c-0.3,0.2-0.6,0.2-1,0.2c-0.6,0-1.1-0.2-1.4-0.6C215.6,59,215.4,58.4,215.4,57.6z M217.7,54.2L217.7,54.2z"/>
<path id="DejaVuSans-74_00000036965319756807489170000006652757043534729125_" d="M222.7,52.8v1.6h1.8V55h-1.8v3
	c0,0.4,0.1,0.7,0.2,0.9c0.1,0.1,0.4,0.2,0.7,0.2h0.9v0.8h-0.9c-0.7,0-1.2-0.1-1.4-0.4c-0.3-0.3-0.4-0.7-0.4-1.4v-3h-0.7v-0.7h0.7
	v-1.6H222.7z"/>
<path id="DejaVuSans-68" d="M230.3,56.5v3.3h-0.9v-3.3c0-0.5-0.1-0.9-0.3-1.2c-0.2-0.3-0.5-0.4-0.9-0.4c-0.5,0-0.9,0.2-1.1,0.5
	c-0.3,0.3-0.4,0.7-0.4,1.3v3.1h-0.9v-7.6h0.9v3c0.2-0.3,0.5-0.6,0.8-0.7c0.3-0.2,0.6-0.2,1-0.2c0.6,0,1.1,0.2,1.4,0.6
	C230.1,55.2,230.3,55.7,230.3,56.5z"/>
<path class="st4" d="M137.9,71h10h10"/>
<path id="DejaVuSans-4a" d="M166.8,67.2h1V74c0,0.9-0.2,1.5-0.5,1.9c-0.3,0.4-0.9,0.6-1.6,0.6h-0.4v-0.8h0.3c0.4,0,0.7-0.1,0.9-0.4
	c0.2-0.2,0.3-0.7,0.3-1.3V67.2z"/>
<path id="DejaVuSans-4d" d="M169.8,67.2h1.5l1.9,5l1.9-5h1.5v7.3h-1v-6.4l-1.9,5h-1l-1.9-5v6.4h-1V67.2z"/>
<path id="DejaVuSans-61_00000051356108215089387430000001831824416258550658_" d="M180.9,71.7c-0.7,0-1.2,0.1-1.5,0.2
	s-0.4,0.4-0.4,0.8c0,0.3,0.1,0.6,0.3,0.8c0.2,0.2,0.5,0.3,0.9,0.3c0.5,0,0.9-0.2,1.2-0.5s0.5-0.8,0.5-1.4v-0.2H180.9z M182.7,71.4
	v3.1h-0.9v-0.8c-0.2,0.3-0.5,0.6-0.8,0.7s-0.7,0.2-1.1,0.2c-0.6,0-1-0.2-1.3-0.5c-0.3-0.3-0.5-0.7-0.5-1.3c0-0.6,0.2-1.1,0.6-1.4
	c0.4-0.3,1-0.5,1.8-0.5h1.3v-0.1c0-0.4-0.1-0.7-0.4-1s-0.7-0.3-1.1-0.3c-0.3,0-0.6,0-0.9,0.1c-0.3,0.1-0.6,0.2-0.9,0.3v-0.8
	c0.3-0.1,0.6-0.2,1-0.3c0.3-0.1,0.6-0.1,0.9-0.1c0.8,0,1.4,0.2,1.8,0.6C182.5,69.9,182.7,70.5,182.7,71.4z"/>
<path id="DejaVuSans-76" d="M183.9,69h1l1.7,4.6l1.7-4.6h1l-2.1,5.5h-1.2L183.9,69z"/>
<path id="DejaVuSans-53" d="M194.8,67.4v1c-0.4-0.2-0.7-0.3-1.1-0.4c-0.3-0.1-0.7-0.1-1-0.1c-0.5,0-1,0.1-1.2,0.3
	c-0.3,0.2-0.4,0.5-0.4,0.9c0,0.3,0.1,0.6,0.3,0.7c0.2,0.2,0.6,0.3,1.1,0.4l0.6,0.1c0.7,0.1,1.3,0.4,1.6,0.7s0.5,0.8,0.5,1.4
	c0,0.7-0.2,1.2-0.7,1.6c-0.5,0.4-1.2,0.5-2.1,0.5c-0.3,0-0.7,0-1.1-0.1c-0.4-0.1-0.8-0.2-1.2-0.3v-1c0.4,0.2,0.8,0.4,1.2,0.5
	c0.4,0.1,0.8,0.2,1.1,0.2c0.6,0,1-0.1,1.3-0.3c0.3-0.2,0.5-0.5,0.5-0.9c0-0.4-0.1-0.6-0.3-0.8c-0.2-0.2-0.6-0.4-1.1-0.5l-0.6-0.1
	c-0.7-0.1-1.3-0.4-1.6-0.7c-0.3-0.3-0.5-0.7-0.5-1.3c0-0.6,0.2-1.2,0.7-1.5s1.1-0.6,1.9-0.6c0.3,0,0.7,0,1,0.1
	C194.1,67.2,194.5,67.3,194.8,67.4z"/>
<path id="DejaVuSans-69_00000106842930246150960680000010469253371803889034_" d="M196.8,69h0.9v5.5h-0.9V69z M196.8,66.9h0.9V68
	h-0.9V66.9z"/>
<path id="DejaVuSans-6d_00000020399298783466016700000002071003948640364448_" d="M203.8,70.1c0.2-0.4,0.5-0.7,0.8-0.9
	s0.7-0.3,1.1-0.3c0.6,0,1,0.2,1.3,0.6c0.3,0.4,0.5,1,0.5,1.7v3.3h-0.9v-3.3c0-0.5-0.1-0.9-0.3-1.2c-0.2-0.3-0.5-0.4-0.8-0.4
	c-0.5,0-0.8,0.2-1.1,0.5c-0.3,0.3-0.4,0.7-0.4,1.3v3.1h-0.9v-3.3c0-0.5-0.1-0.9-0.3-1.2c-0.2-0.3-0.5-0.4-0.9-0.4
	c-0.5,0-0.8,0.2-1.1,0.5c-0.3,0.3-0.4,0.7-0.4,1.3v3.1h-0.9V69h0.9v0.8c0.2-0.3,0.5-0.6,0.7-0.7c0.3-0.2,0.6-0.2,1-0.2
	c0.4,0,0.7,0.1,1,0.3C203.5,69.4,203.7,69.7,203.8,70.1z"/>
<path class="st5" d="M137.9,85.7h10h10"/>
<path id="DejaVuSans-47_00000157300367872816364100000005289777504225046713_" d="M171.8,88.1v-2h-1.6v-0.8h2.6v3.1
	c-0.4,0.3-0.8,0.5-1.3,0.6c-0.5,0.1-0.9,0.2-1.5,0.2c-1.1,0-2-0.3-2.7-1c-0.6-0.7-1-1.6-1-2.8c0-1.2,0.3-2.1,1-2.8
	c0.6-0.7,1.5-1,2.7-1c0.5,0,0.9,0.1,1.4,0.2c0.4,0.1,0.8,0.3,1.2,0.5v1.1c-0.4-0.3-0.8-0.5-1.2-0.7s-0.8-0.2-1.3-0.2
	c-0.9,0-1.6,0.2-2,0.7c-0.4,0.5-0.7,1.2-0.7,2.2c0,1,0.2,1.7,0.7,2.2c0.4,0.5,1.1,0.7,2,0.7c0.3,0,0.7,0,0.9-0.1
	C171.3,88.3,171.6,88.2,171.8,88.1z"/>
<path id="DejaVuSans-61_00000041286233989273542840000003622377912474594714_" d="M177,86.4c-0.7,0-1.2,0.1-1.5,0.2
	s-0.4,0.4-0.4,0.8c0,0.3,0.1,0.6,0.3,0.8c0.2,0.2,0.5,0.3,0.9,0.3c0.5,0,0.9-0.2,1.2-0.5s0.5-0.8,0.5-1.4v-0.2H177z M178.8,86v3.1
	h-0.9v-0.8c-0.2,0.3-0.5,0.6-0.8,0.7s-0.7,0.2-1.1,0.2c-0.6,0-1-0.2-1.3-0.5c-0.3-0.3-0.5-0.7-0.5-1.3c0-0.6,0.2-1.1,0.6-1.4
	c0.4-0.3,1-0.5,1.8-0.5h1.3v-0.1c0-0.4-0.1-0.7-0.4-1s-0.7-0.3-1.1-0.3c-0.3,0-0.6,0-0.9,0.1c-0.3,0.1-0.6,0.2-0.9,0.3v-0.8
	c0.3-0.1,0.6-0.2,1-0.3c0.3-0.1,0.6-0.1,0.9-0.1c0.8,0,1.4,0.2,1.8,0.6C178.6,84.6,178.8,85.2,178.8,86z"/>
<path id="DejaVuSans-7a" d="M180.3,83.7h4.3v0.8l-3.4,3.9h3.4v0.7h-4.4v-0.8l3.4-3.9h-3.3V83.7z"/>
<path id="DejaVuSans-62" d="M189.8,86.4c0-0.7-0.1-1.2-0.4-1.6c-0.3-0.4-0.6-0.6-1.1-0.6c-0.5,0-0.8,0.2-1.1,0.6
	c-0.3,0.4-0.4,0.9-0.4,1.6c0,0.7,0.1,1.2,0.4,1.6c0.3,0.4,0.6,0.6,1.1,0.6c0.5,0,0.8-0.2,1.1-0.6C189.7,87.6,189.8,87.1,189.8,86.4z
	 M186.8,84.5c0.2-0.3,0.4-0.6,0.7-0.7c0.3-0.2,0.6-0.2,1-0.2c0.7,0,1.2,0.3,1.6,0.8c0.4,0.5,0.6,1.2,0.6,2.1s-0.2,1.6-0.6,2.1
	c-0.4,0.5-1,0.8-1.6,0.8c-0.4,0-0.7-0.1-1-0.2c-0.3-0.2-0.5-0.4-0.7-0.7v0.8h-0.9v-7.6h0.9V84.5z"/>
<path id="DejaVuSans-65_00000141436704219902216870000017449185253373973157_" d="M196.9,86.2v0.4h-4.1c0,0.6,0.2,1.1,0.6,1.4
	c0.3,0.3,0.8,0.5,1.4,0.5c0.3,0,0.7,0,1-0.1c0.3-0.1,0.6-0.2,1-0.4v0.9c-0.3,0.1-0.7,0.2-1,0.3c-0.3,0.1-0.7,0.1-1,0.1
	c-0.9,0-1.6-0.3-2.1-0.8c-0.5-0.5-0.8-1.2-0.8-2.1c0-0.9,0.2-1.6,0.7-2.1c0.5-0.5,1.1-0.8,2-0.8c0.7,0,1.3,0.2,1.7,0.7
	C196.7,84.7,196.9,85.4,196.9,86.2z M196,85.9c0-0.5-0.1-0.9-0.4-1.2c-0.3-0.3-0.6-0.4-1.1-0.4c-0.5,0-0.9,0.1-1.2,0.4
	s-0.5,0.7-0.5,1.2L196,85.9z"/>
<path id="DejaVuSans-62_00000108995035822208007730000010053126571755109053_" d="M202.3,86.4c0-0.7-0.1-1.2-0.4-1.6
	c-0.3-0.4-0.6-0.6-1.1-0.6c-0.5,0-0.8,0.2-1.1,0.6c-0.3,0.4-0.4,0.9-0.4,1.6c0,0.7,0.1,1.2,0.4,1.6c0.3,0.4,0.6,0.6,1.1,0.6
	c0.5,0,0.8-0.2,1.1-0.6C202.2,87.6,202.3,87.1,202.3,86.4z M199.3,84.5c0.2-0.3,0.4-0.6,0.7-0.7c0.3-0.2,0.6-0.2,1-0.2
	c0.7,0,1.2,0.3,1.6,0.8c0.4,0.5,0.6,1.2,0.6,2.1s-0.2,1.6-0.6,2.1c-0.4,0.5-1,0.8-1.6,0.8c-0.4,0-0.7-0.1-1-0.2
	c-0.3-0.2-0.5-0.4-0.7-0.7v0.8h-0.9v-7.6h0.9V84.5z"/>
<path id="DejaVuSans-6f_00000047766959520428019520000004106516290717160626_" d="M206.9,84.3c-0.5,0-0.9,0.2-1.1,0.6
	c-0.3,0.4-0.4,0.9-0.4,1.5s0.1,1.2,0.4,1.5c0.3,0.4,0.7,0.6,1.1,0.6c0.5,0,0.9-0.2,1.1-0.6c0.3-0.4,0.4-0.9,0.4-1.5
	c0-0.6-0.1-1.2-0.4-1.5C207.7,84.5,207.4,84.3,206.9,84.3z M206.9,83.6c0.8,0,1.4,0.3,1.8,0.8c0.4,0.5,0.7,1.2,0.7,2.1
	c0,0.9-0.2,1.6-0.7,2.1c-0.4,0.5-1.1,0.8-1.8,0.8c-0.8,0-1.4-0.3-1.8-0.8c-0.4-0.5-0.7-1.2-0.7-2.1c0-0.9,0.2-1.6,0.7-2.1
	C205.5,83.8,206.1,83.6,206.9,83.6z"/>
</svg>
