<?xml version="1.0" encoding="utf-8"?>
<!-- Generator: Adobe Illustrator 27.4.1, SVG Export Plug-In . SVG Version: 6.00 Build 0)  -->
<svg version="1.1" id="Layer_1" xmlns="http://www.w3.org/2000/svg" xmlns:xlink="http://www.w3.org/1999/xlink" x="0px" y="0px"
	 viewBox="0 0 360 360" style="enable-background:new 0 0 360 360;" xml:space="preserve">
<style type="text/css">
	.st0{fill:#FFFFFF;}
	.st1{stroke:#000000;stroke-width:0.8;stroke-linejoin:round;}
	.st2{fill:none;}
	.st3{fill:none;stroke:#999999;stroke-width:3;stroke-linecap:square;stroke-linejoin:round;stroke-opacity:0.6;}
	.st4{fill:none;stroke:#2C7BB6;stroke-width:3;stroke-linecap:square;stroke-linejoin:round;stroke-opacity:0.7;}
	.st5{fill:none;stroke:#D7191C;stroke-width:3;stroke-linecap:square;stroke-linejoin:round;stroke-opacity:0.7;}
	.st6{fill:none;stroke:#000000;stroke-width:0.8;stroke-linecap:square;}
</style>
<path class="st0" d="M0,360h360V0H0V360z"/>
<path class="st0" d="M45,320.4h279V43.2H45V320.4z"/>
<path id="m97aecee00f" class="st1" d="M57.7,320.4v3.5"/>
<path id="DejaVuSans-30" d="M57.7,328.4c-0.5,0-0.9,0.2-1.1,0.8c-0.3,0.5-0.4,1.2-0.4,2.3c0,1,0.1,1.7,0.4,2.2
	c0.3,0.5,0.6,0.8,1.1,0.8c0.5,0,0.9-0.2,1.2-0.8c0.3-0.5,0.4-1.2,0.4-2.2c0-1-0.1-1.8-0.4-2.3C58.6,328.6,58.2,328.4,57.7,328.4z
	 M57.7,327.6c0.8,0,1.4,0.3,1.9,1c0.4,0.6,0.6,1.6,0.6,2.8c0,1.2-0.2,2.2-0.6,2.8c-0.4,0.6-1.1,1-1.9,1c-0.8,0-1.4-0.3-1.9-1
	c-0.4-0.6-0.6-1.6-0.6-2.8c0-1.2,0.2-2.2,0.6-2.8C56.2,327.9,56.9,327.6,57.7,327.6z"/>
<path id="m97aecee00f_00000155825734748381124690000016025327253510702475_" class="st1" d="M100.3,320.4v3.5"/>
<path id="DejaVuSans-31" d="M98.4,334.2h1.6v-5.6l-1.8,0.4v-0.9l1.7-0.4h1v6.5h1.6v0.8h-4.2V334.2z"/>
<path id="m97aecee00f_00000085250488044471481130000005816320492815173506_" class="st1" d="M143,320.4v3.5"/>
<path id="DejaVuSans-32" d="M141.7,334.2h3.4v0.8h-4.6v-0.8c0.4-0.4,0.9-0.9,1.5-1.6c0.6-0.7,1.1-1.1,1.2-1.3
	c0.3-0.4,0.5-0.7,0.7-0.9c0.1-0.2,0.2-0.5,0.2-0.7c0-0.4-0.1-0.7-0.4-0.9c-0.3-0.2-0.6-0.4-1.1-0.4c-0.3,0-0.6,0.1-1,0.2
	c-0.3,0.1-0.7,0.3-1.1,0.5v-1c0.4-0.2,0.8-0.3,1.1-0.4c0.3-0.1,0.7-0.1,0.9-0.1c0.8,0,1.4,0.2,1.8,0.6c0.4,0.4,0.7,0.9,0.7,1.5
	c0,0.3-0.1,0.6-0.2,0.9c-0.1,0.3-0.3,0.6-0.6,0.9c-0.1,0.1-0.3,0.4-0.8,0.8C143.1,332.7,142.5,333.4,141.7,334.2z"/>
<path id="m97aecee00f_00000137846110990643619760000002278622144977790615_" class="st1" d="M185.6,320.4v3.5"/>
<path id="DejaVuSans-33" d="M186.5,331.1c0.5,0.1,0.8,0.3,1.1,0.6c0.3,0.3,0.4,0.7,0.4,1.2c0,0.7-0.2,1.3-0.7,1.7
	c-0.5,0.4-1.2,0.6-2.1,0.6c-0.3,0-0.6,0-0.9-0.1c-0.3-0.1-0.7-0.2-1-0.3v-1c0.3,0.2,0.6,0.3,0.9,0.4c0.3,0.1,0.7,0.1,1,0.1
	c0.6,0,1.1-0.1,1.4-0.4s0.5-0.6,0.5-1.1c0-0.4-0.2-0.8-0.5-1c-0.3-0.2-0.7-0.4-1.3-0.4h-0.8v-0.8h0.9c0.5,0,0.9-0.1,1.1-0.3
	s0.4-0.5,0.4-0.8c0-0.4-0.1-0.7-0.4-0.9c-0.3-0.2-0.6-0.3-1.1-0.3c-0.3,0-0.6,0-0.9,0.1c-0.3,0.1-0.6,0.1-1,0.3v-0.9
	c0.4-0.1,0.7-0.2,1.1-0.2s0.6-0.1,0.9-0.1c0.7,0,1.3,0.2,1.8,0.5c0.4,0.3,0.7,0.8,0.7,1.4c0,0.4-0.1,0.7-0.3,1
	C187.2,330.8,186.9,331,186.5,331.1z"/>
<path id="m97aecee00f_00000039826336334983999780000001174094312392224942_" class="st1" d="M228.3,320.4v3.5"/>
<path id="DejaVuSans-34" d="M228.9,328.6l-2.5,3.9h2.5V328.6z M228.6,327.7h1.2v4.8h1v0.8h-1v1.7h-1v-1.7h-3.3v-1L228.6,327.7z"/>
<path id="m97aecee00f_00000139267059764118269050000013568214033805999015_" class="st1" d="M270.9,320.4v3.5"/>
<path id="DejaVuSans-35" d="M268.8,327.7h3.9v0.8h-3v1.8c0.1,0,0.3-0.1,0.4-0.1c0.1,0,0.3,0,0.4,0c0.8,0,1.5,0.2,1.9,0.7
	c0.5,0.4,0.7,1,0.7,1.8c0,0.8-0.2,1.4-0.7,1.8c-0.5,0.4-1.2,0.7-2.1,0.7c-0.3,0-0.6,0-0.9-0.1c-0.3-0.1-0.6-0.1-1-0.2v-1
	c0.3,0.2,0.6,0.3,0.9,0.4s0.6,0.1,1,0.1c0.6,0,1-0.1,1.3-0.4c0.3-0.3,0.5-0.7,0.5-1.2c0-0.5-0.2-0.9-0.5-1.2
	c-0.3-0.3-0.8-0.4-1.3-0.4c-0.3,0-0.5,0-0.8,0.1c-0.3,0.1-0.5,0.1-0.8,0.3V327.7z"/>
<path id="m97aecee00f_00000062883671556609259240000012624628079429387951_" class="st1" d="M313.5,320.4v3.5"/>
<path id="DejaVuSans-36" d="M313.7,331c-0.4,0-0.8,0.2-1.1,0.5c-0.3,0.3-0.4,0.7-0.4,1.2c0,0.5,0.1,0.9,0.4,1.2
	c0.3,0.3,0.6,0.5,1.1,0.5c0.4,0,0.8-0.2,1.1-0.5c0.3-0.3,0.4-0.7,0.4-1.2c0-0.5-0.1-0.9-0.4-1.2C314.5,331.1,314.1,331,313.7,331z
	 M315.6,327.9v0.9c-0.2-0.1-0.5-0.2-0.8-0.3c-0.3-0.1-0.5-0.1-0.8-0.1c-0.7,0-1.1,0.2-1.5,0.7c-0.3,0.4-0.5,1.1-0.6,2
	c0.2-0.3,0.4-0.5,0.7-0.7c0.3-0.2,0.6-0.2,1-0.2c0.7,0,1.3,0.2,1.7,0.7c0.4,0.4,0.6,1,0.6,1.8c0,0.7-0.2,1.3-0.7,1.8
	c-0.4,0.5-1,0.7-1.8,0.7c-0.8,0-1.5-0.3-1.9-1c-0.4-0.6-0.7-1.6-0.7-2.8c0-1.2,0.3-2.1,0.8-2.8c0.5-0.7,1.3-1,2.2-1
	c0.2,0,0.5,0,0.8,0.1C315.1,327.7,315.4,327.8,315.6,327.9z"/>
<path id="DejaVuSans-54" d="M157.6,341.4h6.2v0.8h-2.6v6.5h-1v-6.5h-2.6V341.4z"/>
<path id="DejaVuSans-69" d="M164.4,343.2h0.9v5.5h-0.9V343.2z M164.4,341.1h0.9v1.1h-0.9V341.1z"/>
<path id="DejaVuSans-6d" d="M171.4,344.3c0.2-0.4,0.5-0.7,0.8-0.9s0.7-0.3,1.1-0.3c0.6,0,1,0.2,1.3,0.6c0.3,0.4,0.5,1,0.5,1.7v3.3
	h-0.9v-3.3c0-0.5-0.1-0.9-0.3-1.2c-0.2-0.3-0.5-0.4-0.8-0.4c-0.5,0-0.8,0.2-1.1,0.5c-0.3,0.3-0.4,0.7-0.4,1.3v3.1h-0.9v-3.3
	c0-0.5-0.1-0.9-0.3-1.2c-0.2-0.3-0.5-0.4-0.9-0.4c-0.5,0-0.8,0.2-1.1,0.5c-0.3,0.3-0.4,0.7-0.4,1.3v3.1h-0.9v-5.5h0.9v0.9
	c0.2-0.3,0.5-0.6,0.7-0.7c0.3-0.2,0.6-0.2,1-0.2c0.4,0,0.7,0.1,1,0.3C171.1,343.6,171.3,343.9,171.4,344.3z"/>
<path id="DejaVuSans-65" d="M181.6,345.7v0.4h-4.1c0,0.6,0.2,1.1,0.6,1.4c0.3,0.3,0.8,0.5,1.4,0.5c0.3,0,0.7,0,1-0.1
	c0.3-0.1,0.6-0.2,1-0.4v0.8c-0.3,0.1-0.7,0.2-1,0.3c-0.3,0.1-0.7,0.1-1,0.1c-0.9,0-1.6-0.3-2.1-0.8c-0.5-0.5-0.8-1.2-0.8-2.1
	c0-0.9,0.2-1.6,0.7-2.1c0.5-0.5,1.1-0.8,2-0.8c0.7,0,1.3,0.2,1.7,0.7C181.3,344.3,181.6,344.9,181.6,345.7z M180.7,345.5
	c0-0.5-0.1-0.9-0.4-1.2c-0.3-0.3-0.6-0.4-1.1-0.4c-0.5,0-0.9,0.1-1.2,0.4s-0.5,0.7-0.5,1.2L180.7,345.5z"/>
<path id="DejaVuSans-20" d="M182.1,348.7"/>
<path id="DejaVuSans-28" d="M188.4,341.1c-0.4,0.7-0.8,1.5-1,2.2c-0.2,0.7-0.3,1.5-0.3,2.2c0,0.8,0.1,1.5,0.3,2.2
	c0.2,0.7,0.5,1.5,1,2.2h-0.8c-0.5-0.8-0.9-1.5-1.1-2.3s-0.4-1.5-0.4-2.2c0-0.7,0.1-1.5,0.4-2.2c0.2-0.7,0.6-1.5,1.1-2.3H188.4z"/>
<path id="DejaVuSans-6d_00000157268245313313091610000013510645473623389884_" d="M194.4,344.3c0.2-0.4,0.5-0.7,0.8-0.9
	s0.7-0.3,1.1-0.3c0.6,0,1,0.2,1.3,0.6c0.3,0.4,0.5,1,0.5,1.7v3.3h-0.9v-3.3c0-0.5-0.1-0.9-0.3-1.2c-0.2-0.3-0.5-0.4-0.8-0.4
	c-0.5,0-0.8,0.2-1.1,0.5c-0.3,0.3-0.4,0.7-0.4,1.3v3.1h-0.9v-3.3c0-0.5-0.1-0.9-0.3-1.2c-0.2-0.3-0.5-0.4-0.9-0.4
	c-0.5,0-0.8,0.2-1.1,0.5c-0.3,0.3-0.4,0.7-0.4,1.3v3.1h-0.9v-5.5h0.9v0.9c0.2-0.3,0.5-0.6,0.7-0.7c0.3-0.2,0.6-0.2,1-0.2
	c0.4,0,0.7,0.1,1,0.3C194,343.6,194.2,343.9,194.4,344.3z"/>
<path id="DejaVuSans-2f" d="M201.4,341.4h0.8l-2.5,8.2h-0.8L201.4,341.4z"/>
<path id="DejaVuSans-73" d="M206.7,343.4v0.8c-0.3-0.1-0.5-0.2-0.8-0.3c-0.3-0.1-0.6-0.1-0.8-0.1c-0.4,0-0.8,0.1-1,0.2
	c-0.2,0.1-0.3,0.3-0.3,0.6c0,0.2,0.1,0.4,0.2,0.5c0.2,0.1,0.5,0.2,1,0.3l0.3,0.1c0.6,0.1,1.1,0.3,1.4,0.6c0.3,0.2,0.4,0.6,0.4,1
	c0,0.5-0.2,0.9-0.6,1.2c-0.4,0.3-1,0.4-1.7,0.4c-0.3,0-0.6,0-0.9-0.1c-0.3-0.1-0.7-0.1-1-0.3v-0.9c0.3,0.2,0.7,0.3,1,0.4
	c0.3,0.1,0.6,0.1,1,0.1c0.4,0,0.7-0.1,1-0.2c0.2-0.1,0.3-0.3,0.3-0.6c0-0.2-0.1-0.4-0.2-0.6c-0.2-0.1-0.5-0.3-1.1-0.4l-0.3-0.1
	c-0.6-0.1-1-0.3-1.2-0.5c-0.2-0.2-0.4-0.6-0.4-1c0-0.5,0.2-0.9,0.5-1.2c0.4-0.3,0.9-0.4,1.6-0.4c0.3,0,0.6,0,0.9,0.1
	C206.2,343.2,206.5,343.3,206.7,343.4z"/>
<path id="DejaVuSans-29" d="M208.3,341.1h0.8c0.5,0.8,0.9,1.5,1.1,2.3c0.2,0.7,0.4,1.5,0.4,2.2c0,0.7-0.1,1.5-0.4,2.2
	s-0.6,1.5-1.1,2.3h-0.8c0.4-0.7,0.8-1.5,1-2.2c0.2-0.7,0.3-1.5,0.3-2.2c0-0.8-0.1-1.5-0.3-2.2C209,342.6,208.7,341.8,208.3,341.1z"
	/>
<path id="DejaVuSans-31_00000026162406084733208010000013968676895063181955_" d="M306.4,346.8h1.6v-5.6l-1.8,0.4v-0.9l1.7-0.4h1
	v6.5h1.6v0.8h-4.2V346.8z"/>
<path id="DejaVuSans-65_00000145041972601724606090000005759302699175798676_" d="M317.1,344.7v0.4H313c0,0.6,0.2,1.1,0.6,1.4
	c0.3,0.3,0.8,0.5,1.4,0.5c0.3,0,0.7,0,1-0.1c0.3-0.1,0.6-0.2,1-0.4v0.8c-0.3,0.1-0.7,0.2-1,0.3c-0.3,0.1-0.7,0.1-1,0.1
	c-0.9,0-1.6-0.3-2.1-0.8c-0.5-0.5-0.8-1.2-0.8-2.1c0-0.9,0.2-1.6,0.7-2.1c0.5-0.5,1.1-0.8,2-0.8c0.7,0,1.3,0.2,1.7,0.7
	C316.9,343.3,317.1,343.9,317.1,344.7z M316.2,344.5c0-0.5-0.1-0.9-0.4-1.2c-0.3-0.3-0.6-0.4-1.1-0.4c-0.5,0-0.9,0.1-1.2,0.4
	s-0.5,0.7-0.5,1.2L316.2,344.5z"/>
<path id="DejaVuSans-38" d="M320.8,344.2c-0.5,0-0.8,0.1-1.1,0.4c-0.3,0.3-0.4,0.6-0.4,1c0,0.4,0.1,0.8,0.4,1
	c0.3,0.3,0.6,0.4,1.1,0.4s0.8-0.1,1.1-0.4c0.3-0.3,0.4-0.6,0.4-1c0-0.4-0.1-0.8-0.4-1C321.7,344.3,321.3,344.2,320.8,344.2z
	 M319.8,343.8c-0.4-0.1-0.8-0.3-1-0.6c-0.2-0.3-0.4-0.6-0.4-1.1c0-0.6,0.2-1,0.6-1.4c0.4-0.3,1-0.5,1.7-0.5c0.7,0,1.3,0.2,1.7,0.5
	s0.6,0.8,0.6,1.4c0,0.4-0.1,0.8-0.4,1.1c-0.2,0.3-0.6,0.5-1,0.6c0.5,0.1,0.8,0.3,1.1,0.6c0.3,0.3,0.4,0.7,0.4,1.2
	c0,0.7-0.2,1.2-0.6,1.6c-0.4,0.4-1,0.6-1.9,0.6c-0.8,0-1.4-0.2-1.9-0.6c-0.4-0.4-0.6-0.9-0.6-1.6c0-0.5,0.1-0.9,0.4-1.2
	C319,344.1,319.4,343.9,319.8,343.8z M319.5,342.2c0,0.4,0.1,0.7,0.4,0.9c0.2,0.2,0.6,0.3,1,0.3c0.4,0,0.8-0.1,1-0.3
	c0.2-0.2,0.4-0.5,0.4-0.9c0-0.4-0.1-0.7-0.4-0.9c-0.2-0.2-0.6-0.3-1-0.3c-0.4,0-0.8,0.1-1,0.3C319.6,341.6,319.5,341.9,319.5,342.2z
	"/>
<path id="m680ab3b794" class="st1" d="M45,282.5h-3.5"/>
<path id="DejaVuSans-2212" d="M11.6,282.8h6.3v0.8h-6.3V282.8z"/>
<path id="DejaVuSans-31_00000099662446660972553760000005835800531471913383_" d="M20.2,285.5h1.6v-5.6l-1.8,0.4v-0.9l1.7-0.4h1v6.5
	h1.6v0.8h-4.2V285.5z"/>
<path id="DejaVuSans-30_00000160182470113967986300000007532706984864482954_" d="M28.5,279.7c-0.5,0-0.9,0.2-1.1,0.8
	c-0.3,0.5-0.4,1.2-0.4,2.3c0,1,0.1,1.7,0.4,2.2c0.3,0.5,0.6,0.8,1.1,0.8c0.5,0,0.9-0.2,1.1-0.8c0.3-0.5,0.4-1.2,0.4-2.2
	c0-1-0.1-1.8-0.4-2.3C29.3,279.9,29,279.7,28.5,279.7z M28.5,278.9c0.8,0,1.4,0.3,1.9,1c0.4,0.6,0.6,1.6,0.6,2.8
	c0,1.2-0.2,2.2-0.6,2.8c-0.4,0.6-1.1,1-1.9,1c-0.8,0-1.4-0.3-1.9-1c-0.4-0.6-0.6-1.6-0.6-2.8c0-1.2,0.2-2.2,0.6-2.8
	C27,279.2,27.6,278.9,28.5,278.9z"/>
<path id="DejaVuSans-30_00000005948261687239202350000008012677157174679472_" d="M34.8,279.7c-0.5,0-0.9,0.2-1.1,0.8
	c-0.3,0.5-0.4,1.2-0.4,2.3c0,1,0.1,1.7,0.4,2.2c0.3,0.5,0.6,0.8,1.1,0.8c0.5,0,0.9-0.2,1.2-0.8c0.3-0.5,0.4-1.2,0.4-2.2
	c0-1-0.1-1.8-0.4-2.3C35.7,279.9,35.3,279.7,34.8,279.7z M34.8,278.9c0.8,0,1.4,0.3,1.9,1c0.4,0.6,0.6,1.6,0.6,2.8
	c0,1.2-0.2,2.2-0.6,2.8c-0.4,0.6-1.1,1-1.9,1c-0.8,0-1.4-0.3-1.9-1c-0.4-0.6-0.6-1.6-0.6-2.8c0-1.2,0.2-2.2,0.6-2.8
	C33.4,279.2,34,278.9,34.8,278.9z"/>
<path id="m680ab3b794_00000009550609980083097690000003832424213770381973_" class="st1" d="M45,237.6h-3.5"/>
<path id="DejaVuSans-2212_00000111907295510425464960000004874905122335760035_" d="M18,237.8h6.3v0.8H18V237.8z"/>
<path id="DejaVuSans-38_00000174589256652568333670000003144576568328359850_" d="M28.5,237.9c-0.5,0-0.8,0.1-1.1,0.4
	c-0.3,0.3-0.4,0.6-0.4,1c0,0.4,0.1,0.8,0.4,1c0.3,0.3,0.6,0.4,1.1,0.4s0.8-0.1,1.1-0.4c0.3-0.3,0.4-0.6,0.4-1c0-0.4-0.1-0.8-0.4-1
	C29.3,238,28.9,237.9,28.5,237.9z M27.5,237.5c-0.4-0.1-0.8-0.3-1-0.6c-0.2-0.3-0.4-0.6-0.4-1.1c0-0.6,0.2-1,0.6-1.4
	c0.4-0.3,1-0.5,1.7-0.5c0.7,0,1.3,0.2,1.7,0.5s0.6,0.8,0.6,1.4c0,0.4-0.1,0.8-0.4,1.1c-0.2,0.3-0.6,0.5-1,0.6
	c0.5,0.1,0.8,0.3,1.1,0.7c0.3,0.3,0.4,0.7,0.4,1.2c0,0.7-0.2,1.2-0.6,1.6c-0.4,0.4-1,0.6-1.9,0.6c-0.8,0-1.4-0.2-1.9-0.6
	c-0.4-0.4-0.6-0.9-0.6-1.6c0-0.5,0.1-0.9,0.4-1.2C26.6,237.8,27,237.6,27.5,237.5z M27.1,235.9c0,0.4,0.1,0.7,0.4,0.9
	c0.2,0.2,0.6,0.3,1,0.3c0.4,0,0.8-0.1,1-0.3c0.2-0.2,0.4-0.5,0.4-0.9c0-0.4-0.1-0.7-0.4-0.9c-0.2-0.2-0.6-0.3-1-0.3
	c-0.4,0-0.8,0.1-1,0.3C27.2,235.3,27.1,235.5,27.1,235.9z"/>
<path id="DejaVuSans-30_00000041281470644465172540000017678940516234172803_" d="M34.8,234.7c-0.5,0-0.9,0.2-1.1,0.8
	c-0.3,0.5-0.4,1.2-0.4,2.3c0,1,0.1,1.7,0.4,2.2c0.3,0.5,0.6,0.8,1.1,0.8c0.5,0,0.9-0.2,1.2-0.8c0.3-0.5,0.4-1.2,0.4-2.2
	c0-1-0.1-1.8-0.4-2.3C35.7,235,35.3,234.7,34.8,234.7z M34.8,233.9c0.8,0,1.4,0.3,1.9,1c0.4,0.6,0.6,1.6,0.6,2.8
	c0,1.2-0.2,2.2-0.6,2.8c-0.4,0.6-1.1,1-1.9,1c-0.8,0-1.4-0.3-1.9-1c-0.4-0.6-0.6-1.6-0.6-2.8c0-1.2,0.2-2.2,0.6-2.8
	C33.4,234.3,34,233.9,34.8,233.9z"/>
<path id="m680ab3b794_00000140698208388485863850000002001339911260950205_" class="st1" d="M45,192.6h-3.5"/>
<path id="DejaVuSans-2212_00000100360598755283853700000018372749951007481767_" d="M18,192.9h6.3v0.8H18V192.9z"/>
<path id="DejaVuSans-36_00000080926639602884717440000002482550095771840677_" d="M28.6,192.4c-0.4,0-0.8,0.2-1.1,0.5
	c-0.3,0.3-0.4,0.7-0.4,1.2c0,0.5,0.1,0.9,0.4,1.2c0.3,0.3,0.6,0.5,1.1,0.5c0.4,0,0.8-0.2,1.1-0.5c0.3-0.3,0.4-0.7,0.4-1.2
	c0-0.5-0.1-0.9-0.4-1.2C29.4,192.5,29,192.4,28.6,192.4z M30.5,189.3v0.9c-0.2-0.1-0.5-0.2-0.8-0.3c-0.3-0.1-0.5-0.1-0.8-0.1
	c-0.7,0-1.1,0.2-1.5,0.7c-0.3,0.4-0.5,1.1-0.6,2c0.2-0.3,0.4-0.5,0.7-0.7c0.3-0.2,0.6-0.2,1-0.2c0.7,0,1.3,0.2,1.7,0.7
	c0.4,0.4,0.6,1,0.6,1.8c0,0.7-0.2,1.4-0.7,1.8c-0.4,0.5-1,0.7-1.8,0.7c-0.8,0-1.5-0.3-1.9-1c-0.4-0.6-0.7-1.6-0.7-2.8
	c0-1.2,0.3-2.1,0.8-2.8c0.5-0.7,1.3-1,2.2-1c0.2,0,0.5,0,0.8,0.1C30,189.1,30.3,189.2,30.5,189.3z"/>
<path id="DejaVuSans-30_00000175284971870129422400000003716087608929954739_" d="M34.8,189.8c-0.5,0-0.9,0.2-1.1,0.8
	c-0.3,0.5-0.4,1.2-0.4,2.3c0,1,0.1,1.7,0.4,2.2c0.3,0.5,0.6,0.8,1.1,0.8c0.5,0,0.9-0.2,1.2-0.8c0.3-0.5,0.4-1.2,0.4-2.2
	c0-1-0.1-1.8-0.4-2.3C35.7,190,35.3,189.8,34.8,189.8z M34.8,189c0.8,0,1.4,0.3,1.9,1c0.4,0.6,0.6,1.6,0.6,2.8
	c0,1.2-0.2,2.2-0.6,2.8c-0.4,0.6-1.1,1-1.9,1c-0.8,0-1.4-0.3-1.9-1c-0.4-0.6-0.6-1.6-0.6-2.8c0-1.2,0.2-2.2,0.6-2.8
	C33.4,189.3,34,189,34.8,189z"/>
<path id="m680ab3b794_00000170263003307530177490000017056880071334400672_" class="st1" d="M45,147.7h-3.5"/>
<path id="DejaVuSans-2212_00000180365867375731282250000016483359026438206623_" d="M18,147.9h6.3v0.8H18V147.9z"/>
<path id="DejaVuSans-34_00000107555259986648453490000016668021521166134698_" d="M29.1,145.1l-2.5,3.9h2.5V145.1z M28.8,144.2H30
	v4.8h1v0.8h-1v1.7h-1v-1.7h-3.3v-1L28.8,144.2z"/>
<path id="DejaVuSans-30_00000013909833544269621130000017650337339513140142_" d="M34.8,144.8c-0.5,0-0.9,0.2-1.1,0.8
	c-0.3,0.5-0.4,1.2-0.4,2.3c0,1,0.1,1.7,0.4,2.2c0.3,0.5,0.6,0.8,1.1,0.8c0.5,0,0.9-0.2,1.2-0.8c0.3-0.5,0.4-1.2,0.4-2.2
	c0-1-0.1-1.8-0.4-2.3C35.7,145.1,35.3,144.8,34.8,144.8z M34.8,144.1c0.8,0,1.4,0.3,1.9,1c0.4,0.6,0.6,1.6,0.6,2.8
	c0,1.2-0.2,2.2-0.6,2.8c-0.4,0.6-1.1,1-1.9,1c-0.8,0-1.4-0.3-1.9-1c-0.4-0.6-0.6-1.6-0.6-2.8c0-1.2,0.2-2.2,0.6-2.8
	C33.4,144.4,34,144.1,34.8,144.1z"/>
<path id="m680ab3b794_00000059298000424934680390000015749260700651019424_" class="st1" d="M45,102.7h-3.5"/>
<path id="DejaVuSans-2212_00000047055940511140562270000015045041237252579235_" d="M18,103h6.3v0.8H18V103z"/>
<path id="DejaVuSans-32_00000085943259953656287810000015226335825036582558_" d="M27.2,105.7h3.4v0.8H26v-0.8
	c0.4-0.4,0.9-0.9,1.5-1.6c0.6-0.7,1.1-1.1,1.2-1.3c0.3-0.4,0.5-0.7,0.7-0.9c0.1-0.2,0.2-0.5,0.2-0.7c0-0.4-0.1-0.7-0.4-0.9
	c-0.3-0.2-0.6-0.4-1.1-0.4c-0.3,0-0.6,0.1-1,0.2c-0.3,0.1-0.7,0.3-1.1,0.5v-1c0.4-0.2,0.8-0.3,1.1-0.4c0.3-0.1,0.7-0.1,0.9-0.1
	c0.8,0,1.4,0.2,1.8,0.6c0.4,0.4,0.7,0.9,0.7,1.5c0,0.3-0.1,0.6-0.2,0.9c-0.1,0.3-0.3,0.6-0.6,0.9c-0.1,0.1-0.3,0.4-0.8,0.8
	C28.6,104.3,28,104.9,27.2,105.7z"/>
<path id="DejaVuSans-30_00000016789764459191403370000014559428846256933760_" d="M34.8,99.9c-0.5,0-0.9,0.2-1.1,0.8
	c-0.3,0.5-0.4,1.2-0.4,2.3c0,1,0.1,1.7,0.4,2.2c0.3,0.5,0.6,0.8,1.1,0.8c0.5,0,0.9-0.2,1.2-0.8c0.3-0.5,0.4-1.2,0.4-2.2
	c0-1-0.1-1.8-0.4-2.3C35.7,100.2,35.3,99.9,34.8,99.9z M34.8,99.1c0.8,0,1.4,0.3,1.9,1c0.4,0.6,0.6,1.6,0.6,2.8
	c0,1.2-0.2,2.2-0.6,2.8c-0.4,0.6-1.1,1-1.9,1c-0.8,0-1.4-0.3-1.9-1c-0.4-0.6-0.6-1.6-0.6-2.8c0-1.2,0.2-2.2,0.6-2.8
	C33.4,99.4,34,99.1,34.8,99.1z"/>
<path id="m680ab3b794_00000081605404000798714090000008761692458940339329_" class="st1" d="M45,57.8h-3.5"/>
<path id="DejaVuSans-30_00000118392012421126061280000003055187231900926592_" d="M34.8,55c-0.5,0-0.9,0.2-1.1,0.8
	c-0.3,0.5-0.4,1.2-0.4,2.3c0,1,0.1,1.7,0.4,2.2c0.3,0.5,0.6,0.8,1.1,0.8c0.5,0,0.9-0.2,1.2-0.8c0.3-0.5,0.4-1.2,0.4-2.2
	c0-1-0.1-1.8-0.4-2.3C35.7,55.2,35.3,55,34.8,55z M34.8,54.2c0.8,0,1.4,0.3,1.9,1c0.4,0.6,0.6,1.6,0.6,2.8c0,1.2-0.2,2.2-0.6,2.8
	c-0.4,0.6-1.1,1-1.9,1c-0.8,0-1.4-0.3-1.9-1c-0.4-0.6-0.6-1.6-0.6-2.8c0-1.2,0.2-2.2,0.6-2.8C33.4,54.5,34,54.2,34.8,54.2z"/>
<path id="DejaVuSans-4c" d="M-2.8,201.4v-1h6.5v-3.5h0.8v4.5H-2.8z"/>
<path id="DejaVuSans-61" d="M1.7,193.4c0,0.7,0.1,1.2,0.2,1.5c0.2,0.3,0.4,0.4,0.8,0.4c0.3,0,0.6-0.1,0.8-0.3
	c0.2-0.2,0.3-0.5,0.3-0.9c0-0.5-0.2-0.9-0.5-1.2s-0.8-0.5-1.4-0.5H1.7V193.4z M1.3,191.6h3.1v0.9H3.6c0.3,0.2,0.6,0.5,0.7,0.8
	s0.2,0.7,0.2,1.1c0,0.6-0.2,1-0.5,1.3c-0.3,0.3-0.7,0.5-1.3,0.5c-0.6,0-1.1-0.2-1.4-0.6c-0.3-0.4-0.5-1-0.5-1.8v-1.3H0.9
	c-0.4,0-0.7,0.1-1,0.4s-0.3,0.7-0.3,1.1c0,0.3,0,0.6,0.1,0.9c0.1,0.3,0.2,0.6,0.3,0.9h-0.8c-0.1-0.3-0.2-0.6-0.3-1
	c-0.1-0.3-0.1-0.6-0.1-0.9c0-0.8,0.2-1.4,0.6-1.8C-0.1,191.8,0.5,191.6,1.3,191.6z"/>
<path id="DejaVuSans-74" d="M-2.6,188.8H-1V187h0.7v1.8h3c0.4,0,0.7-0.1,0.9-0.2c0.1-0.1,0.2-0.4,0.2-0.7V187h0.8v0.9
	c0,0.7-0.1,1.2-0.4,1.4c-0.3,0.3-0.7,0.4-1.4,0.4h-3v0.7H-1v-0.7h-1.6V188.8z"/>
<path id="DejaVuSans-69_00000152947059257261726140000009497959269408902324_" d="M-1,185.8v-0.9h5.5v0.9H-1z M-3.1,185.8v-0.9H-2
	v0.9H-3.1z"/>
<path id="DejaVuSans-74_00000069372414510158202970000012134722454797917885_" d="M-2.6,182.1H-1v-1.8h0.7v1.8h3
	c0.4,0,0.7-0.1,0.9-0.2c0.1-0.1,0.2-0.4,0.2-0.7v-0.9h0.8v0.9c0,0.7-0.1,1.2-0.4,1.4c-0.3,0.3-0.7,0.4-1.4,0.4h-3v0.7H-1v-0.7h-1.6
	V182.1z"/>
<path id="DejaVuSans-75" d="M2.3,179.2H-1v-0.9h3.3c0.5,0,0.9-0.1,1.2-0.3c0.3-0.2,0.4-0.5,0.4-0.9c0-0.5-0.2-0.9-0.5-1.1
	c-0.3-0.3-0.7-0.4-1.3-0.4H-1v-0.9h5.5v0.9H3.6c0.3,0.2,0.6,0.5,0.7,0.8c0.2,0.3,0.2,0.6,0.2,1c0,0.6-0.2,1.1-0.6,1.4
	C3.6,179,3,179.2,2.3,179.2z M-1.1,176.9L-1.1,176.9z"/>
<path id="DejaVuSans-64" d="M-0.2,169.2h-3v-0.9h7.6v0.9H3.6c0.3,0.2,0.6,0.4,0.7,0.7c0.2,0.3,0.2,0.6,0.2,1c0,0.7-0.3,1.2-0.8,1.6
	c-0.5,0.4-1.2,0.6-2.1,0.6s-1.6-0.2-2.1-0.6c-0.5-0.4-0.8-1-0.8-1.6c0-0.4,0.1-0.8,0.2-1C-0.8,169.6-0.5,169.4-0.2,169.2z
	 M1.7,172.2c0.7,0,1.2-0.1,1.6-0.4c0.4-0.3,0.6-0.6,0.6-1.1s-0.2-0.8-0.6-1.1c-0.4-0.3-0.9-0.4-1.6-0.4s-1.2,0.1-1.6,0.4
	c-0.4,0.3-0.6,0.6-0.6,1.1s0.2,0.8,0.6,1.1C0.5,172.1,1.1,172.2,1.7,172.2z"/>
<path id="DejaVuSans-65_00000039845534570990969890000012205967401938973851_" d="M1.5,161.8h0.4v4.1c0.6,0,1.1-0.2,1.4-0.6
	c0.3-0.3,0.5-0.8,0.5-1.4c0-0.3,0-0.7-0.1-1c-0.1-0.3-0.2-0.6-0.4-1h0.9c0.1,0.3,0.2,0.7,0.3,1c0.1,0.3,0.1,0.7,0.1,1
	c0,0.9-0.3,1.6-0.8,2.1c-0.5,0.5-1.2,0.8-2.1,0.8c-0.9,0-1.6-0.2-2.1-0.7c-0.5-0.5-0.8-1.1-0.8-2c0-0.7,0.2-1.3,0.7-1.7
	C0,162,0.7,161.8,1.5,161.8z M1.2,162.7c-0.5,0-0.9,0.1-1.2,0.4c-0.3,0.3-0.4,0.6-0.4,1.1c0,0.5,0.1,0.9,0.4,1.2s0.7,0.5,1.2,0.5
	L1.2,162.7z"/>
<rect x="45" y="43.2" class="st2" width="279" height="277.2"/>
<path class="st3" d="M57.7,56.2l0.2-0.1l0.3-0.2l0.4,0l1.1,0l0.3,0.4l0.5,0.7l0.3,0.1l0.4-0.1l2-0.7l0.1,0l0.1,0.3l0.2,1.4l0.3,3.3
	l0.4,8.4l1.3,36.7l1.5,37.5l0.9,20.6l2.3,52.2l1,20.9l0.3,3l0.2,0.3l0.2-0.2l1.2-1.7l0.3,0.2l0.9,1.5L75,241l0.3,0.1l0.5,0l0.5,0
	l0.4-0.2l0.6-1.6l0.3-1.4l0.3-2.6l0.4-6.6l1.3-27.6l2.9-65l0.3-1.4l0.2-0.3l0.1,0.1l0.2,0.7l0.3,2.2l0.4,5.9l2.7,48.9l0.8,13.7
	l0.3,2.4l0.4,2l0.3,2.9l0.6,8.5l1.1,19.9l2.1,38.3l0.3,1.3l0.1,0.1l0,0l0.1-0.3l0.2-1.3l0.3-3.5l0.8-14.5l3.1-53.5l0.3-1.4l0.3-0.7
	l0.2-1.3l0.3-3.7l0.6-10.7l3.3-62.7l0.3-0.8l0.1,0l0.2,0.5l0.3,1.7l0.3,4.2l3.5,51.7l0.3,4l0.4,7.7l1.3,31.4l1.7,43l0.3,2.1l0.2,0.2
	l0.1-0.1l0.5-0.6l0.4-0.1l0.6-0.3l0.3-0.1l0.4,0.3l0.5,0.3l0.7,0.1l0.1,0l0.2-0.5l0.3-1.4l0.3-2.6l0.3-5.3l0.7-15.6l2.9-66.9
	l0.5-3.1l0.3-2.8l0.5-7.5l3-47.2l0.1-0.2l0,0l0.2,0.6l0.3,2.2l0.6,7.5l2.1,27.2l1.2,17.3l1,23.8l2.2,55.2l1.3,12.3l1,13.2l1,14.2
	l0.2,0.5l0.1,0l0.1-0.4l0.3-1.8l0.4-5.2l3.6-48.3l0.9-23.2l2-50.1l0.4-4.3l0.6-5.4l1.2-17.6l1.8-24.2l0.2-0.3l0.1,0.1l0.1,0.5
	l0.3,2.3l3.2,38.2l0.4,9.3l1.4,38l1.2,28.9l1.7,29.9l1.7,32.8l0.2,0.5l0.1,0l0.3-0.5l0.5-0.8l0.3-0.1l0.5,0.1l0.5,0.1l0.8-0.2
	l0.2-0.8l0.3-2.6l0.4-7.4l3.3-65l1.7-40.1l1.2-28.1l0.7-7.5l1-12.8l1.7-21.2l0.2-0.4l0.1,0.2l0.2,0.9l0.3,3.6l1.5,15.6l1,10.6
	l0.4,7.1l1.6,37.5l1.4,32l1.1,23.9l2,44.3l0.7,6.4l0.7,6.5l1.3,12.6l0.1,0.2l0.1-0.3l0.2-1.3l0.6-5.8l1.2-11.6l1.3-12.9l0.5-10.1
	l2.8-63.9l0.9-19l2.3-51.5l2.7-29.8l0,0"/>
<rect x="45" y="43.2" class="st2" width="279" height="277.2"/>
<path class="st4" d="M57.7,57.8l2.6-0.1l0.7,0.1l0.9,0.1l2.5-0.1l1.1,0.1l7-0.1l1.9,0.1l3.9,0l1.8,0l1.5,0l7.8,0.1l0.1,0.4l0.2,1.3
	l0.3,3.7l0.4,9.5l1,25.6l1.7,35.1l0.4,3.2l0.5,3.8l0.3,4.3l0.6,13.2l1.2,28.2l2.3,48.6l0.4,2.9l0.3,0.8l0.2,0.1l0.6,0.2l0.4,0.8
	l0.5,0.7l0.3,0.1l0.5-0.1l0.5,0l0.6,0.3l0.7,0.3l0.4-0.1l0.1-0.3l0.2-1.2l0.4-4.3l0.4-6.3l0.7-16.3l2-45.6l1.1-24l0.4-4.4l0.3-1
	l0.1,0.1l0.2,0.6l0.4,2.8l0.4,3.6l0.4,6.4l2.9,50l0.4,3.2l0.7,4.2l0.6,5.8l0.4,5.8l2.6,48.4l0.5,7l0.4,2.8l0.2,0.4l0,0l0.1-0.2
	l0.2-1l0.8-5l0.3-4.6l3.3-55.1l0.6-3.8l0.7-5.4l0.4-4.3l0.5-10.1l1.5-28.4l1.5-26.3l0.4-3.2l0.2-0.7l0.1,0.1l0.2,0.7l0.8,3.7l0.3,3
	l0.7,10.3l1.6,23.1l0.5,6.1l0.4,2.4l0.3,1.9l0.5,5l0.5,6l0.4,8.9l2.3,56.6l0.5,8.9l0.4,3.5l0.2,0.6l0.2,0l0.7-0.3l0.3,0.4l0.7,1
	l0.4,0.1l1.1,0.2l0.5,0l0.1-0.3l0.2-1.1l0.3-3.4l0.3-6.4l3.2-72.5l0.4-3.3l0.8-5.8l0.3-4.2l0.8-13.6l2.1-33.5l0.4-3.9l0.3-1.4l0.1,0
	l0,0l0.2,0.4l0.7,2.3l0.3,1.8l0.4,4.2l2.2,27l0.4,2.3l0.4,1.9l0.5,4.3l0.4,4.9l0.4,8.1l2.4,60.4l0.4,5l0.4,2.2l0.7,3.5l0.4,3.3
	l0.5,7.6l1.3,17.5l0.9,10.1l0.4,2l0.2,0.3l0,0l0.1-0.2l0.3-1l0.5-2.2l0.3-2.7l0.7-8.9l1.5-18.6l0.5-3.9l1-5.9l0.5-5.8l0.3-7.3
	l2.6-63.7l0.4-3.8l1.2-8.3l0.5-7.5l1.2-17.7l1.3-16.7l0.4-2l0.2-0.2l0,0l0.2,0.2l0.5,1.2l0.3,1.2l0.3,2.2l0.6,6.2l1.5,15.9l0.5,3.2
	l0.9,4.4l0.4,4.3l0.3,6.3l1.3,34.3l1.1,23.6l0.4,4.6l1.1,9.2l0.4,8.6l1.6,32.4L192,287l0.5,4.5l0.2,0.5l0.1-0.1l0.7-0.7l0.3,0.3
	l0.8,0.8l0.4,0l0.8-0.2l0.1-0.4l0.2-1.3l0.3-3.6l0.5-9.2l1.4-28.5l0.8-13.2l0.4-3.7l0.7-4.9l0.4-4.7l0.3-6.9l2.4-57.8l0.4-4.3
	l0.4-2.1l0.4-2.5l0.4-3.6l0.8-11.7l1.5-18.8l0.5-4.3l0.4-1.6l0.2-0.1l0,0l0.2,0.3l0.5,1.1l0.3,1.4l0.4,2.9l2.1,18.5l0.4,1.5l0.3,1.5
	l0.4,3.4l0.3,4.3l0.5,11.5l1.5,35.3l0.5,8.8l0.4,3.7l0.7,5.4l0.3,4.3l0.4,10.4l1.6,37.9l0.5,9.5l0.4,3.7l0.4,1.6l0.4,2.1l0.4,3.3
	l2.3,22.8l0.4,1.8l0.2,0.3l0,0l0.2-0.2l0.4-0.9l0.3-1.3l0.4-2.6l1.4-13.1l0.8-6l0.4-1.7l0.3-1.2l0.4-2.9l0.3-3.4l0.3-6.9l2.2-49.6
	l0.4-4.5l0.9-7.7l0.3-5.7l1-24.9l1.2-26.9l0.5-5.5l0.4-2.2l0.5-2.7l0.4-3.5l2.6-30.1l1-6l0.3-4.8l0.6-14.2l0.6-12.2l0.4-4l0.3-1.1
	l0.1,0l0,0l0.2,0.4l0.4,0.7l0.2,0l0.2-0.3l0.9-1.4l0.3,0l1,0.1l0.9-0.4l0.8-0.3l1-0.3l6.3-2.6l0.8-0.2l0.1,0l45.9,1.4l0,0"/>
<rect x="45" y="43.2" class="st2" width="279" height="277.2"/>
<path class="st5" d="M57.7,57.8l1.8,0.1l0.6,0.1l1.7-0.2l6,0l1.6,0l1.2,0l1.8,0l1.1,0l1.2,0.1l3.6,0l0.9-0.1l1.6,0l1.7-0.1l0.9,0
	l1.4,0.1l4.7,0.2l0.1,0.3l0.2,1.2l0.3,3.6l0.4,9.9l2.5,57.5l0.5,5.4l0.8,8.1l0.5,11.3l2.8,63l0.7,14.5l0.5,5l0.3,1.8l0.3,0.5
	l0.3,0.1l0.4,0.1l1.1,0.4l1.7,0.1l0.5,0.2l0.9,0.1l0.1-0.3l0.2-1.2l0.7-6.1l0.3-4.4l1.1-21.8l2-43l1.1-21.8l0.5-5.1l0.2-0.8l0.1,0.1
	l0.2,0.9l0.7,3.7l0.3,3.3l1.4,23l2.1,33.3l0.5,3.9l1.1,8.3l0.3,4l1.1,19.4l2.4,39.9l0.4,2.8l0.1,0.1l0,0l0.1-0.4l0.4-1.9l0.4-2.6
	l0.3-3.8l2-34.3l1.3-21.3l0.5-4l0.7-5.2l0.7-5.8l0.4-7.2l3.5-61l0.4-2l0.1,0l0,0l0.2,0.4l0.5,1.7l0.3,1.5l0.3,3l1.4,20l1.5,20.4
	l0.5,3.2l0.3,2.5l0.9,8.9l0.4,7.1l3.2,70.2l0.4,3.2l0.3,0.6l0.2,0l0.4,0.1l0.8,0.2l1.1,0.2l1.3,0.1l0.1-0.2l0.2-0.9l0.3-3.3l0.3-5.8
	l1.5-33.4l1.7-37.6l0.5-5.3l0.9-6.8l0.3-3.6l0.7-11.1l2.8-40.3l0.4-1.9l0.1,0l0,0l0.2,0.4l0.4,1.1l0.2,1.2l0.3,3.2l2.9,32.1l0.6,3.8
	l0.7,6.4l0.3,6.2l1.6,38.3l1.2,26.2l0.5,5.5l0.6,3.8l0.6,3.9l0.5,5.7l2.5,30.1l0.5,2.4l0.2,0.2l0,0l0.2-0.2l0.4-1l0.3-1l0.3-2.5
	l0.7-8.7l2.1-24.2l1.3-9.7l0.3-4.7l0.6-14.8l2.3-54.2l0.5-4.8l1.3-10.2l2-28.5l0.8-9.4l0.5-3.1l0.2-0.5l0.2,0.1l0.3,0.6l0.3,1
	l0.3,1.9l0.5,4.8l2.3,21.9l0.7,4l0.6,5.2l0.4,7.1l2.6,59.1l0.5,4.8l0.8,7.7l0.5,9.8l2.5,45.4l0.4,3.4l0.2,0.4l0.5,0.1l0.9,0l1.4,0
	l0.3-0.1l0.1-0.3l0.2-1.2l0.3-3.8l0.5-9.8l2.2-41.1l0.5-4.4l0.7-6.1l0.3-4l0.4-8.8l2.4-54.8l0.5-5.1l0.6-3.6l0.4-3l0.5-6l2.3-28.7
	l0.5-2.7l0.2-0.4l0.2,0.1l0.4,0.5l0.2,0.6l0.3,1.7l0.5,4.4l2,17.4l1,5.4l0.3,3.1l0.3,6.9l2.3,50.6l0.5,4.7l0.9,8.1l0.4,7.2l2.3,50.7
	l0.5,5.1l0.5,2.6l0.5,3.3l0.6,5.9l1.9,17.5l0.4,2l0.3,0.5l0.2-0.1l0.4-0.6l0.2-0.9l0.3-2.4l2.6-21.6l0.5-2.5l0.5-4.4l0.3-5.5
	l1.8-40.9l0.6-11.1l0.5-5.5l0.9-8.1l0.3-6l2.5-53.6l0.5-4.3l0.9-6.6l1.1-13l1.4-15.6l0.5-2.5l0.3-1.9l0.4-4l0.3-5.4l1.2-25.3
	l0.5-4.5l0.3-0.9l0.2-0.1l0.3,0.1l0.6,0.3l0.5-0.1l11.6-3.4l50.5,1.5l0,0"/>
<path class="st6" d="M45,320.4V43.2"/>
<path class="st6" d="M324,320.4V43.2"/>
<path class="st6" d="M45,320.4h279"/>
<path class="st6" d="M45,43.2h279"/>
</svg>
