<?xml version="1.0" encoding="utf-8"?>
<!-- Generator: Adobe Illustrator 27.4.1, SVG Export Plug-In . SVG Version: 6.00 Build 0)  -->
<svg version="1.1" id="Layer_1" xmlns="http://www.w3.org/2000/svg" xmlns:xlink="http://www.w3.org/1999/xlink" x="0px" y="0px"
	 viewBox="0 0 360 360" style="enable-background:new 0 0 360 360;" xml:space="preserve">
<style type="text/css">
	.st0{stroke:#000000;stroke-width:0.8;stroke-linejoin:round;}
	.st1{fill:none;}
	.st2{fill:none;stroke:#999999;stroke-width:3;stroke-linecap:square;stroke-linejoin:round;stroke-opacity:0.6;}
	.st3{fill:none;stroke:#2C7BB6;stroke-width:3;stroke-linecap:square;stroke-linejoin:round;stroke-opacity:0.7;}
	.st4{fill:none;stroke:#D7191C;stroke-width:3;stroke-linecap:square;stroke-linejoin:round;stroke-opacity:0.7;}
	.st5{fill:none;stroke:#000000;stroke-width:0.8;stroke-linecap:square;}
</style>
<path id="mcdac515845" class="st0" d="M57.7,320.4v3.5"/>
<path id="DejaVuSans-30" d="M52.9,328.4c-0.5,0-0.9,0.2-1.1,0.8c-0.3,0.5-0.4,1.2-0.4,2.3c0,1,0.1,1.7,0.4,2.2
	c0.3,0.5,0.6,0.8,1.1,0.8c0.5,0,0.9-0.2,1.2-0.8c0.3-0.5,0.4-1.2,0.4-2.2c0-1-0.1-1.8-0.4-2.3C53.8,328.6,53.4,328.4,52.9,328.4z
	 M52.9,327.6c0.8,0,1.4,0.3,1.9,1c0.4,0.6,0.6,1.6,0.6,2.8c0,1.2-0.2,2.2-0.6,2.8c-0.4,0.6-1.1,1-1.9,1c-0.8,0-1.4-0.3-1.9-1
	c-0.4-0.6-0.6-1.6-0.6-2.8c0-1.2,0.2-2.2,0.6-2.8C51.5,327.9,52.1,327.6,52.9,327.6z"/>
<path id="DejaVuSans-2e" d="M57.2,333.8h1v1.2h-1V333.8z"/>
<path id="DejaVuSans-30_00000003812317179647971830000014912746821538854318_" d="M62.4,328.4c-0.5,0-0.9,0.2-1.1,0.8
	c-0.3,0.5-0.4,1.2-0.4,2.3c0,1,0.1,1.7,0.4,2.2c0.3,0.5,0.6,0.8,1.1,0.8c0.5,0,0.9-0.2,1.2-0.8c0.3-0.5,0.4-1.2,0.4-2.2
	c0-1-0.1-1.8-0.4-2.3C63.3,328.6,63,328.4,62.4,328.4z M62.4,327.6c0.8,0,1.4,0.3,1.9,1c0.4,0.6,0.6,1.6,0.6,2.8
	c0,1.2-0.2,2.2-0.6,2.8c-0.4,0.6-1.1,1-1.9,1c-0.8,0-1.4-0.3-1.9-1c-0.4-0.6-0.6-1.6-0.6-2.8c0-1.2,0.2-2.2,0.6-2.8
	C61,327.9,61.6,327.6,62.4,327.6z"/>
<path id="mcdac515845_00000018937991011990112950000011635701307095260331_" class="st0" d="M92.1,320.4v3.5"/>
<path id="DejaVuSans-30_00000134210440416279951310000007394890798904361400_" d="M87.3,328.4c-0.5,0-0.9,0.2-1.1,0.8
	c-0.3,0.5-0.4,1.2-0.4,2.3c0,1,0.1,1.7,0.4,2.2c0.3,0.5,0.6,0.8,1.1,0.8c0.5,0,0.9-0.2,1.2-0.8c0.3-0.5,0.4-1.2,0.4-2.2
	c0-1-0.1-1.8-0.4-2.3C88.2,328.6,87.9,328.4,87.3,328.4z M87.3,327.6c0.8,0,1.4,0.3,1.9,1c0.4,0.6,0.6,1.6,0.6,2.8
	c0,1.2-0.2,2.2-0.6,2.8c-0.4,0.6-1.1,1-1.9,1c-0.8,0-1.4-0.3-1.9-1c-0.4-0.6-0.6-1.6-0.6-2.8c0-1.2,0.2-2.2,0.6-2.8
	C85.9,327.9,86.5,327.6,87.3,327.6z"/>
<path id="DejaVuSans-2e_00000129176210177556941780000018277654104325914772_" d="M91.6,333.8h1v1.2h-1V333.8z"/>
<path id="DejaVuSans-35" d="M94.8,327.7h3.9v0.8h-3v1.8c0.1,0,0.3-0.1,0.4-0.1c0.1,0,0.3,0,0.4,0c0.8,0,1.5,0.2,1.9,0.7
	c0.5,0.4,0.7,1,0.7,1.8c0,0.8-0.2,1.4-0.7,1.8c-0.5,0.4-1.2,0.7-2.1,0.7c-0.3,0-0.6,0-0.9-0.1c-0.3-0.1-0.6-0.1-1-0.2v-1
	c0.3,0.2,0.6,0.3,0.9,0.4s0.6,0.1,1,0.1c0.6,0,1-0.1,1.3-0.4c0.3-0.3,0.5-0.7,0.5-1.2c0-0.5-0.2-0.9-0.5-1.2
	c-0.3-0.3-0.8-0.4-1.3-0.4c-0.3,0-0.5,0-0.8,0.1c-0.3,0.1-0.5,0.1-0.8,0.3V327.7z"/>
<path id="mcdac515845_00000023991167073506275330000001755865050913776569_" class="st0" d="M126.6,320.4v3.5"/>
<path id="DejaVuSans-31" d="M119.9,334.2h1.6v-5.6l-1.8,0.4v-0.9l1.7-0.4h1v6.5h1.6v0.8h-4.2V334.2z"/>
<path id="DejaVuSans-2e_00000040544292176879174100000001392585893913759911_" d="M126,333.8h1v1.2h-1V333.8z"/>
<path id="DejaVuSans-30_00000012439679326886702530000003735870178523641749_" d="M131.3,328.4c-0.5,0-0.9,0.2-1.1,0.8
	c-0.3,0.5-0.4,1.2-0.4,2.3c0,1,0.1,1.7,0.4,2.2c0.3,0.5,0.6,0.8,1.1,0.8c0.5,0,0.9-0.2,1.1-0.8c0.3-0.5,0.4-1.2,0.4-2.2
	c0-1-0.1-1.8-0.4-2.3C132.2,328.6,131.8,328.4,131.3,328.4z M131.3,327.6c0.8,0,1.4,0.3,1.9,1c0.4,0.6,0.6,1.6,0.6,2.8
	c0,1.2-0.2,2.2-0.6,2.8c-0.4,0.6-1.1,1-1.9,1c-0.8,0-1.4-0.3-1.9-1c-0.4-0.6-0.6-1.6-0.6-2.8c0-1.2,0.2-2.2,0.6-2.8
	C129.9,327.9,130.5,327.6,131.3,327.6z"/>
<path id="mcdac515845_00000079479492899378606340000009066571626688870032_" class="st0" d="M161,320.4v3.5"/>
<path id="DejaVuSans-31_00000035521381589473160910000000412670846728409009_" d="M154.3,334.2h1.6v-5.6l-1.8,0.4v-0.9l1.7-0.4h1
	v6.5h1.6v0.8h-4.2V334.2z"/>
<path id="DejaVuSans-2e_00000047781333307498639750000004350757026713765021_" d="M160.5,333.8h1v1.2h-1V333.8z"/>
<path id="DejaVuSans-35_00000065073328409808822770000010897347710306231941_" d="M163.7,327.7h3.9v0.8h-3v1.8
	c0.1,0,0.3-0.1,0.4-0.1c0.1,0,0.3,0,0.4,0c0.8,0,1.5,0.2,1.9,0.7c0.5,0.4,0.7,1,0.7,1.8c0,0.8-0.2,1.4-0.7,1.8
	c-0.5,0.4-1.2,0.7-2.1,0.7c-0.3,0-0.6,0-0.9-0.1c-0.3-0.1-0.6-0.1-1-0.2v-1c0.3,0.2,0.6,0.3,0.9,0.4s0.6,0.1,1,0.1
	c0.6,0,1-0.1,1.3-0.4c0.3-0.3,0.5-0.7,0.5-1.2c0-0.5-0.2-0.9-0.5-1.2c-0.3-0.3-0.8-0.4-1.3-0.4c-0.3,0-0.5,0-0.8,0.1
	c-0.3,0.1-0.5,0.1-0.8,0.3V327.7z"/>
<path id="mcdac515845_00000067914326987860728760000008979930184809471641_" class="st0" d="M195.4,320.4v3.5"/>
<path id="DejaVuSans-32" d="M189.4,334.2h3.4v0.8h-4.6v-0.8c0.4-0.4,0.9-0.9,1.5-1.6c0.6-0.7,1.1-1.1,1.2-1.3
	c0.3-0.4,0.5-0.7,0.7-0.9c0.1-0.2,0.2-0.5,0.2-0.7c0-0.4-0.1-0.7-0.4-0.9c-0.3-0.2-0.6-0.4-1.1-0.4c-0.3,0-0.6,0.1-1,0.2
	c-0.3,0.1-0.7,0.3-1.1,0.5v-1c0.4-0.2,0.8-0.3,1.1-0.4c0.3-0.1,0.7-0.1,0.9-0.1c0.8,0,1.4,0.2,1.8,0.6c0.4,0.4,0.7,0.9,0.7,1.5
	c0,0.3-0.1,0.6-0.2,0.9c-0.1,0.3-0.3,0.6-0.6,0.9c-0.1,0.1-0.3,0.4-0.8,0.8C190.8,332.7,190.2,333.4,189.4,334.2z"/>
<path id="DejaVuSans-2e_00000101789352112948776580000008991928347039231400_" d="M194.9,333.8h1v1.2h-1V333.8z"/>
<path id="DejaVuSans-30_00000088825395366072890050000006680462943836371602_" d="M200.2,328.4c-0.5,0-0.9,0.2-1.1,0.8
	c-0.3,0.5-0.4,1.2-0.4,2.3c0,1,0.1,1.7,0.4,2.2c0.3,0.5,0.6,0.8,1.1,0.8c0.5,0,0.9-0.2,1.1-0.8c0.3-0.5,0.4-1.2,0.4-2.2
	c0-1-0.1-1.8-0.4-2.3C201.1,328.6,200.7,328.4,200.2,328.4z M200.2,327.6c0.8,0,1.4,0.3,1.9,1c0.4,0.6,0.6,1.6,0.6,2.8
	c0,1.2-0.2,2.2-0.6,2.8c-0.4,0.6-1.1,1-1.9,1c-0.8,0-1.4-0.3-1.9-1c-0.4-0.6-0.6-1.6-0.6-2.8c0-1.2,0.2-2.2,0.6-2.8
	C198.8,327.9,199.4,327.6,200.2,327.6z"/>
<path id="mcdac515845_00000042695450905137811060000007570567598074758274_" class="st0" d="M229.9,320.4v3.5"/>
<path id="DejaVuSans-32_00000139252662874875875550000004051120416430657420_" d="M223.9,334.2h3.4v0.8h-4.6v-0.8
	c0.4-0.4,0.9-0.9,1.5-1.6c0.6-0.7,1.1-1.1,1.2-1.3c0.3-0.4,0.5-0.7,0.7-0.9c0.1-0.2,0.2-0.5,0.2-0.7c0-0.4-0.1-0.7-0.4-0.9
	c-0.3-0.2-0.6-0.4-1.1-0.4c-0.3,0-0.6,0.1-1,0.2c-0.3,0.1-0.7,0.3-1.1,0.5v-1c0.4-0.2,0.8-0.3,1.1-0.4c0.3-0.1,0.7-0.1,0.9-0.1
	c0.8,0,1.4,0.2,1.8,0.6c0.4,0.4,0.7,0.9,0.7,1.5c0,0.3-0.1,0.6-0.2,0.9c-0.1,0.3-0.3,0.6-0.6,0.9c-0.1,0.1-0.3,0.4-0.8,0.8
	C225.3,332.7,224.6,333.4,223.9,334.2z"/>
<path id="DejaVuSans-2e_00000036949340682391615690000009331285106674705831_" d="M229.4,333.8h1v1.2h-1V333.8z"/>
<path id="DejaVuSans-35_00000062873651868839123270000001652440587764622223_" d="M232.6,327.7h3.9v0.8h-3v1.8
	c0.1,0,0.3-0.1,0.4-0.1c0.1,0,0.3,0,0.4,0c0.8,0,1.5,0.2,1.9,0.7c0.5,0.4,0.7,1,0.7,1.8c0,0.8-0.2,1.4-0.7,1.8
	c-0.5,0.4-1.2,0.7-2.1,0.7c-0.3,0-0.6,0-0.9-0.1c-0.3-0.1-0.6-0.1-1-0.2v-1c0.3,0.2,0.6,0.3,0.9,0.4s0.6,0.1,1,0.1
	c0.6,0,1-0.1,1.3-0.4c0.3-0.3,0.5-0.7,0.5-1.2c0-0.5-0.2-0.9-0.5-1.2c-0.3-0.3-0.8-0.4-1.3-0.4c-0.3,0-0.5,0-0.8,0.1
	c-0.3,0.1-0.5,0.1-0.8,0.3V327.7z"/>
<path id="mcdac515845_00000016037368086334447900000004315752582931954837_" class="st0" d="M264.3,320.4v3.5"/>
<path id="DejaVuSans-33" d="M260.4,331.1c0.5,0.1,0.8,0.3,1.1,0.6c0.3,0.3,0.4,0.7,0.4,1.2c0,0.7-0.2,1.3-0.7,1.7
	c-0.5,0.4-1.2,0.6-2.1,0.6c-0.3,0-0.6,0-0.9-0.1c-0.3-0.1-0.7-0.2-1-0.3v-1c0.3,0.2,0.6,0.3,0.9,0.4c0.3,0.1,0.7,0.1,1,0.1
	c0.6,0,1.1-0.1,1.4-0.4s0.5-0.6,0.5-1.1c0-0.4-0.2-0.8-0.5-1c-0.3-0.2-0.7-0.4-1.3-0.4h-0.9v-0.8h0.9c0.5,0,0.9-0.1,1.1-0.3
	s0.4-0.5,0.4-0.8c0-0.4-0.1-0.7-0.4-0.9c-0.3-0.2-0.6-0.3-1.1-0.3c-0.3,0-0.6,0-0.9,0.1c-0.3,0.1-0.6,0.1-1,0.3v-0.9
	c0.4-0.1,0.7-0.2,1.1-0.2c0.3-0.1,0.6-0.1,0.9-0.1c0.7,0,1.3,0.2,1.8,0.5c0.4,0.3,0.7,0.8,0.7,1.4c0,0.4-0.1,0.7-0.3,1
	C261.2,330.8,260.9,331,260.4,331.1z"/>
<path id="DejaVuSans-2e_00000151525497055286254830000002430702095177608619_" d="M263.8,333.8h1v1.2h-1V333.8z"/>
<path id="DejaVuSans-30_00000155845366501389563520000001913730022391136433_" d="M269.1,328.4c-0.5,0-0.9,0.2-1.1,0.8
	c-0.3,0.5-0.4,1.2-0.4,2.3c0,1,0.1,1.7,0.4,2.2c0.3,0.5,0.6,0.8,1.1,0.8c0.5,0,0.9-0.2,1.1-0.8c0.3-0.5,0.4-1.2,0.4-2.2
	c0-1-0.1-1.8-0.4-2.3C270,328.6,269.6,328.4,269.1,328.4z M269.1,327.6c0.8,0,1.4,0.3,1.9,1c0.4,0.6,0.6,1.6,0.6,2.8
	c0,1.2-0.2,2.2-0.6,2.8c-0.4,0.6-1.1,1-1.9,1c-0.8,0-1.4-0.3-1.9-1c-0.4-0.6-0.6-1.6-0.6-2.8c0-1.2,0.2-2.2,0.6-2.8
	C267.7,327.9,268.3,327.6,269.1,327.6z"/>
<path id="mcdac515845_00000076578603078778378790000010467131304294455689_" class="st0" d="M298.8,320.4v3.5"/>
<path id="DejaVuSans-33_00000070824758801826617580000013600751183203050152_" d="M294.9,331.1c0.5,0.1,0.8,0.3,1.1,0.6
	c0.3,0.3,0.4,0.7,0.4,1.2c0,0.7-0.2,1.3-0.7,1.7c-0.5,0.4-1.2,0.6-2.1,0.6c-0.3,0-0.6,0-0.9-0.1c-0.3-0.1-0.7-0.2-1-0.3v-1
	c0.3,0.2,0.6,0.3,0.9,0.4c0.3,0.1,0.7,0.1,1,0.1c0.6,0,1.1-0.1,1.4-0.4s0.5-0.6,0.5-1.1c0-0.4-0.2-0.8-0.5-1
	c-0.3-0.2-0.7-0.4-1.3-0.4h-0.9v-0.8h0.9c0.5,0,0.9-0.1,1.1-0.3s0.4-0.5,0.4-0.8c0-0.4-0.1-0.7-0.4-0.9c-0.3-0.2-0.6-0.3-1.1-0.3
	c-0.3,0-0.6,0-0.9,0.1c-0.3,0.1-0.6,0.1-1,0.3v-0.9c0.4-0.1,0.7-0.2,1.1-0.2c0.3-0.1,0.6-0.1,0.9-0.1c0.7,0,1.3,0.2,1.8,0.5
	c0.4,0.3,0.7,0.8,0.7,1.4c0,0.4-0.1,0.7-0.3,1C295.6,330.8,295.3,331,294.9,331.1z"/>
<path id="DejaVuSans-2e_00000139978279325104023700000010943841777680937093_" d="M298.2,333.8h1v1.2h-1V333.8z"/>
<path id="DejaVuSans-35_00000070823749158611219660000005470430748568324020_" d="M301.4,327.7h3.9v0.8h-3v1.8
	c0.1,0,0.3-0.1,0.4-0.1c0.1,0,0.3,0,0.4,0c0.8,0,1.5,0.2,1.9,0.7c0.5,0.4,0.7,1,0.7,1.8c0,0.8-0.2,1.4-0.7,1.8
	c-0.5,0.4-1.2,0.7-2.1,0.7c-0.3,0-0.6,0-0.9-0.1c-0.3-0.1-0.6-0.1-1-0.2v-1c0.3,0.2,0.6,0.3,0.9,0.4s0.6,0.1,1,0.1
	c0.6,0,1-0.1,1.3-0.4c0.3-0.3,0.5-0.7,0.5-1.2c0-0.5-0.2-0.9-0.5-1.2c-0.3-0.3-0.8-0.4-1.3-0.4c-0.3,0-0.5,0-0.8,0.1
	c-0.3,0.1-0.5,0.1-0.8,0.3V327.7z"/>
<path id="DejaVuSans-54" d="M157.6,341.4h6.2v0.8h-2.6v6.5h-1v-6.5h-2.6V341.4z"/>
<path id="DejaVuSans-69" d="M164.4,343.2h0.9v5.5h-0.9V343.2z M164.4,341.1h0.9v1.1h-0.9V341.1z"/>
<path id="DejaVuSans-6d" d="M171.4,344.3c0.2-0.4,0.5-0.7,0.8-0.9s0.7-0.3,1.1-0.3c0.6,0,1,0.2,1.3,0.6c0.3,0.4,0.5,1,0.5,1.7v3.3
	h-0.9v-3.3c0-0.5-0.1-0.9-0.3-1.2c-0.2-0.3-0.5-0.4-0.8-0.4c-0.5,0-0.8,0.2-1.1,0.5c-0.3,0.3-0.4,0.7-0.4,1.3v3.1h-0.9v-3.3
	c0-0.5-0.1-0.9-0.3-1.2c-0.2-0.3-0.5-0.4-0.9-0.4c-0.5,0-0.8,0.2-1.1,0.5c-0.3,0.3-0.4,0.7-0.4,1.3v3.1h-0.9v-5.5h0.9v0.9
	c0.2-0.3,0.5-0.6,0.7-0.7c0.3-0.2,0.6-0.2,1-0.2c0.4,0,0.7,0.1,1,0.3C171.1,343.6,171.3,343.9,171.4,344.3z"/>
<path id="DejaVuSans-65" d="M181.6,345.7v0.4h-4.1c0,0.6,0.2,1.1,0.6,1.4c0.3,0.3,0.8,0.5,1.4,0.5c0.3,0,0.7,0,1-0.1
	c0.3-0.1,0.6-0.2,1-0.4v0.8c-0.3,0.1-0.7,0.2-1,0.3c-0.3,0.1-0.7,0.1-1,0.1c-0.9,0-1.6-0.3-2.1-0.8c-0.5-0.5-0.8-1.2-0.8-2.1
	c0-0.9,0.2-1.6,0.7-2.1c0.5-0.5,1.1-0.8,2-0.8c0.7,0,1.3,0.2,1.7,0.7C181.3,344.3,181.6,344.9,181.6,345.7z M180.7,345.5
	c0-0.5-0.1-0.9-0.4-1.2c-0.3-0.3-0.6-0.4-1.1-0.4c-0.5,0-0.9,0.1-1.2,0.4s-0.5,0.7-0.5,1.2L180.7,345.5z"/>
<path id="DejaVuSans-20" d="M182.1,348.7"/>
<path id="DejaVuSans-28" d="M188.4,341.1c-0.4,0.7-0.8,1.5-1,2.2c-0.2,0.7-0.3,1.5-0.3,2.2c0,0.8,0.1,1.5,0.3,2.2
	c0.2,0.7,0.5,1.5,1,2.2h-0.8c-0.5-0.8-0.9-1.5-1.1-2.3s-0.4-1.5-0.4-2.2c0-0.7,0.1-1.5,0.4-2.2c0.2-0.7,0.6-1.5,1.1-2.3H188.4z"/>
<path id="DejaVuSans-6d_00000080189727758241120670000003795401493124325797_" d="M194.4,344.3c0.2-0.4,0.5-0.7,0.8-0.9
	s0.7-0.3,1.1-0.3c0.6,0,1,0.2,1.3,0.6c0.3,0.4,0.5,1,0.5,1.7v3.3h-0.9v-3.3c0-0.5-0.1-0.9-0.3-1.2c-0.2-0.3-0.5-0.4-0.8-0.4
	c-0.5,0-0.8,0.2-1.1,0.5c-0.3,0.3-0.4,0.7-0.4,1.3v3.1h-0.9v-3.3c0-0.5-0.1-0.9-0.3-1.2c-0.2-0.3-0.5-0.4-0.9-0.4
	c-0.5,0-0.8,0.2-1.1,0.5c-0.3,0.3-0.4,0.7-0.4,1.3v3.1h-0.9v-5.5h0.9v0.9c0.2-0.3,0.5-0.6,0.7-0.7c0.3-0.2,0.6-0.2,1-0.2
	c0.4,0,0.7,0.1,1,0.3C194,343.6,194.2,343.9,194.4,344.3z"/>
<path id="DejaVuSans-2f" d="M201.4,341.4h0.8l-2.5,8.2h-0.8L201.4,341.4z"/>
<path id="DejaVuSans-73" d="M206.7,343.4v0.8c-0.3-0.1-0.5-0.2-0.8-0.3c-0.3-0.1-0.6-0.1-0.8-0.1c-0.4,0-0.8,0.1-1,0.2
	c-0.2,0.1-0.3,0.3-0.3,0.6c0,0.2,0.1,0.4,0.2,0.5c0.2,0.1,0.5,0.2,1,0.3l0.3,0.1c0.6,0.1,1.1,0.3,1.4,0.6c0.3,0.2,0.4,0.6,0.4,1
	c0,0.5-0.2,0.9-0.6,1.2c-0.4,0.3-1,0.4-1.7,0.4c-0.3,0-0.6,0-0.9-0.1c-0.3-0.1-0.7-0.1-1-0.3v-0.9c0.3,0.2,0.7,0.3,1,0.4
	c0.3,0.1,0.6,0.1,1,0.1c0.4,0,0.7-0.1,1-0.2c0.2-0.1,0.3-0.3,0.3-0.6c0-0.2-0.1-0.4-0.2-0.6c-0.2-0.1-0.5-0.3-1.1-0.4l-0.3-0.1
	c-0.6-0.1-1-0.3-1.2-0.5c-0.2-0.2-0.4-0.6-0.4-1c0-0.5,0.2-0.9,0.5-1.2c0.4-0.3,0.9-0.4,1.6-0.4c0.3,0,0.6,0,0.9,0.1
	C206.2,343.2,206.5,343.3,206.7,343.4z"/>
<path id="DejaVuSans-29" d="M208.3,341.1h0.8c0.5,0.8,0.9,1.5,1.1,2.3c0.2,0.7,0.4,1.5,0.4,2.2c0,0.7-0.1,1.5-0.4,2.2
	s-0.6,1.5-1.1,2.3h-0.8c0.4-0.7,0.8-1.5,1-2.2c0.2-0.7,0.3-1.5,0.3-2.2c0-0.8-0.1-1.5-0.3-2.2C209,342.6,208.7,341.8,208.3,341.1z"
	/>
<path id="DejaVuSans-31_00000137105150510522631560000018289269477287550336_" d="M306.4,346.8h1.6v-5.6l-1.8,0.4v-0.9l1.7-0.4h1
	v6.5h1.6v0.8h-4.2V346.8z"/>
<path id="DejaVuSans-65_00000172426244716059951080000010782131955447729811_" d="M317.1,344.7v0.4H313c0,0.6,0.2,1.1,0.6,1.4
	c0.3,0.3,0.8,0.5,1.4,0.5c0.3,0,0.7,0,1-0.1c0.3-0.1,0.6-0.2,1-0.4v0.8c-0.3,0.1-0.7,0.2-1,0.3c-0.3,0.1-0.7,0.1-1,0.1
	c-0.9,0-1.6-0.3-2.1-0.8c-0.5-0.5-0.8-1.2-0.8-2.1c0-0.9,0.2-1.6,0.7-2.1c0.5-0.5,1.1-0.8,2-0.8c0.7,0,1.3,0.2,1.7,0.7
	C316.9,343.3,317.1,343.9,317.1,344.7z M316.2,344.5c0-0.5-0.1-0.9-0.4-1.2c-0.3-0.3-0.6-0.4-1.1-0.4c-0.5,0-0.9,0.1-1.2,0.4
	s-0.5,0.7-0.5,1.2L316.2,344.5z"/>
<path id="DejaVuSans-38" d="M320.8,344.2c-0.5,0-0.8,0.1-1.1,0.4c-0.3,0.3-0.4,0.6-0.4,1c0,0.4,0.1,0.8,0.4,1
	c0.3,0.3,0.6,0.4,1.1,0.4s0.8-0.1,1.1-0.4c0.3-0.3,0.4-0.6,0.4-1c0-0.4-0.1-0.8-0.4-1C321.7,344.3,321.3,344.2,320.8,344.2z
	 M319.8,343.8c-0.4-0.1-0.8-0.3-1-0.6c-0.2-0.3-0.4-0.6-0.4-1.1c0-0.6,0.2-1,0.6-1.4c0.4-0.3,1-0.5,1.7-0.5c0.7,0,1.3,0.2,1.7,0.5
	s0.6,0.8,0.6,1.4c0,0.4-0.1,0.8-0.4,1.1c-0.2,0.3-0.6,0.5-1,0.6c0.5,0.1,0.8,0.3,1.1,0.6c0.3,0.3,0.4,0.7,0.4,1.2
	c0,0.7-0.2,1.2-0.6,1.6c-0.4,0.4-1,0.6-1.9,0.6c-0.8,0-1.4-0.2-1.9-0.6c-0.4-0.4-0.6-0.9-0.6-1.6c0-0.5,0.1-0.9,0.4-1.2
	C319,344.1,319.4,343.9,319.8,343.8z M319.5,342.2c0,0.4,0.1,0.7,0.4,0.9c0.2,0.2,0.6,0.3,1,0.3c0.4,0,0.8-0.1,1-0.3
	c0.2-0.2,0.4-0.5,0.4-0.9c0-0.4-0.1-0.7-0.4-0.9c-0.2-0.2-0.6-0.3-1-0.3c-0.4,0-0.8,0.1-1,0.3C319.6,341.6,319.5,341.9,319.5,342.2z
	"/>
<path id="mac584381eb" class="st0" d="M45,281.9h-3.5"/>
<path id="DejaVuSans-2212" d="M11.6,282.2h6.3v0.8h-6.3V282.2z"/>
<path id="DejaVuSans-31_00000177474952549615423390000010244788203551626924_" d="M20.2,284.9h1.6v-5.6l-1.8,0.4v-0.9l1.7-0.4h1v6.5
	h1.6v0.8h-4.2V284.9z"/>
<path id="DejaVuSans-30_00000049194314238216967780000001288593453015664008_" d="M28.5,279.1c-0.5,0-0.9,0.2-1.1,0.8
	c-0.3,0.5-0.4,1.2-0.4,2.3c0,1,0.1,1.7,0.4,2.2c0.3,0.5,0.6,0.8,1.1,0.8c0.5,0,0.9-0.2,1.1-0.8c0.3-0.5,0.4-1.2,0.4-2.2
	c0-1-0.1-1.8-0.4-2.3C29.3,279.4,29,279.1,28.5,279.1z M28.5,278.3c0.8,0,1.4,0.3,1.9,1c0.4,0.6,0.6,1.6,0.6,2.8
	c0,1.2-0.2,2.2-0.6,2.8c-0.4,0.6-1.1,1-1.9,1c-0.8,0-1.4-0.3-1.9-1c-0.4-0.6-0.6-1.6-0.6-2.8c0-1.2,0.2-2.2,0.6-2.8
	C27,278.6,27.6,278.3,28.5,278.3z"/>
<path id="DejaVuSans-30_00000093177695924703352040000001920967675402094527_" d="M34.8,279.1c-0.5,0-0.9,0.2-1.1,0.8
	c-0.3,0.5-0.4,1.2-0.4,2.3c0,1,0.1,1.7,0.4,2.2c0.3,0.5,0.6,0.8,1.1,0.8c0.5,0,0.9-0.2,1.2-0.8c0.3-0.5,0.4-1.2,0.4-2.2
	c0-1-0.1-1.8-0.4-2.3C35.7,279.4,35.3,279.1,34.8,279.1z M34.8,278.3c0.8,0,1.4,0.3,1.9,1c0.4,0.6,0.6,1.6,0.6,2.8
	c0,1.2-0.2,2.2-0.6,2.8c-0.4,0.6-1.1,1-1.9,1c-0.8,0-1.4-0.3-1.9-1c-0.4-0.6-0.6-1.6-0.6-2.8c0-1.2,0.2-2.2,0.6-2.8
	C33.4,278.6,34,278.3,34.8,278.3z"/>
<path id="mac584381eb_00000003807851723358155410000002466159311088423358_" class="st0" d="M45,236h-3.5"/>
<path id="DejaVuSans-2212_00000133489379983900097860000002132507056196581039_" d="M18,236.3h6.3v0.8H18V236.3z"/>
<path id="DejaVuSans-38_00000115513812320037265730000013471466141792133560_" d="M28.5,236.4c-0.5,0-0.8,0.1-1.1,0.4
	c-0.3,0.3-0.4,0.6-0.4,1c0,0.4,0.1,0.8,0.4,1c0.3,0.3,0.6,0.4,1.1,0.4s0.8-0.1,1.1-0.4c0.3-0.3,0.4-0.6,0.4-1c0-0.4-0.1-0.8-0.4-1
	C29.3,236.5,28.9,236.4,28.5,236.4z M27.5,235.9c-0.4-0.1-0.8-0.3-1-0.6c-0.2-0.3-0.4-0.6-0.4-1.1c0-0.6,0.2-1,0.6-1.4
	c0.4-0.3,1-0.5,1.7-0.5c0.7,0,1.3,0.2,1.7,0.5s0.6,0.8,0.6,1.4c0,0.4-0.1,0.8-0.4,1.1c-0.2,0.3-0.6,0.5-1,0.6
	c0.5,0.1,0.8,0.3,1.1,0.7c0.3,0.3,0.4,0.7,0.4,1.2c0,0.7-0.2,1.2-0.6,1.6c-0.4,0.4-1,0.6-1.9,0.6c-0.8,0-1.4-0.2-1.9-0.6
	c-0.4-0.4-0.6-0.9-0.6-1.6c0-0.5,0.1-0.9,0.4-1.2C26.6,236.3,27,236.1,27.5,235.9z M27.1,234.4c0,0.4,0.1,0.7,0.4,0.9
	c0.2,0.2,0.6,0.3,1,0.3c0.4,0,0.8-0.1,1-0.3c0.2-0.2,0.4-0.5,0.4-0.9c0-0.4-0.1-0.7-0.4-0.9c-0.2-0.2-0.6-0.3-1-0.3
	c-0.4,0-0.8,0.1-1,0.3C27.2,233.7,27.1,234,27.1,234.4z"/>
<path id="DejaVuSans-30_00000024710892171282205140000006433836112942902941_" d="M34.8,233.2c-0.5,0-0.9,0.2-1.1,0.8
	c-0.3,0.5-0.4,1.2-0.4,2.3c0,1,0.1,1.7,0.4,2.2c0.3,0.5,0.6,0.8,1.1,0.8c0.5,0,0.9-0.2,1.2-0.8c0.3-0.5,0.4-1.2,0.4-2.2
	c0-1-0.1-1.8-0.4-2.3C35.7,233.4,35.3,233.2,34.8,233.2z M34.8,232.4c0.8,0,1.4,0.3,1.9,1c0.4,0.6,0.6,1.6,0.6,2.8
	c0,1.2-0.2,2.2-0.6,2.8c-0.4,0.6-1.1,1-1.9,1c-0.8,0-1.4-0.3-1.9-1c-0.4-0.6-0.6-1.6-0.6-2.8c0-1.2,0.2-2.2,0.6-2.8
	C33.4,232.7,34,232.4,34.8,232.4z"/>
<path id="mac584381eb_00000043421570826992600740000008109788576662648466_" class="st0" d="M45,190.1h-3.5"/>
<path id="DejaVuSans-2212_00000176038575379952192880000003790079028237683894_" d="M18,190.3h6.3v0.8H18V190.3z"/>
<path id="DejaVuSans-36" d="M28.6,189.9c-0.4,0-0.8,0.2-1.1,0.5c-0.3,0.3-0.4,0.7-0.4,1.2c0,0.5,0.1,0.9,0.4,1.2
	c0.3,0.3,0.6,0.5,1.1,0.5c0.4,0,0.8-0.2,1.1-0.5c0.3-0.3,0.4-0.7,0.4-1.2c0-0.5-0.1-0.9-0.4-1.2C29.4,190,29,189.9,28.6,189.9z
	 M30.5,186.8v0.9c-0.2-0.1-0.5-0.2-0.8-0.3c-0.3-0.1-0.5-0.1-0.8-0.1c-0.7,0-1.1,0.2-1.5,0.7c-0.3,0.4-0.5,1.1-0.6,2
	c0.2-0.3,0.4-0.5,0.7-0.7c0.3-0.2,0.6-0.2,1-0.2c0.7,0,1.3,0.2,1.7,0.7c0.4,0.4,0.6,1,0.6,1.8c0,0.7-0.2,1.4-0.7,1.8
	c-0.4,0.5-1,0.7-1.8,0.7c-0.8,0-1.5-0.3-1.9-1c-0.4-0.6-0.7-1.6-0.7-2.8c0-1.2,0.3-2.1,0.8-2.8c0.5-0.7,1.3-1,2.2-1
	c0.2,0,0.5,0,0.8,0.1C30,186.6,30.3,186.7,30.5,186.8z"/>
<path id="DejaVuSans-30_00000014635554440134242220000010591995983316049545_" d="M34.8,187.3c-0.5,0-0.9,0.2-1.1,0.8
	c-0.3,0.5-0.4,1.2-0.4,2.3c0,1,0.1,1.7,0.4,2.2c0.3,0.5,0.6,0.8,1.1,0.8c0.5,0,0.9-0.2,1.2-0.8c0.3-0.5,0.4-1.2,0.4-2.2
	c0-1-0.1-1.8-0.4-2.3C35.7,187.5,35.3,187.3,34.8,187.3z M34.8,186.5c0.8,0,1.4,0.3,1.9,1c0.4,0.6,0.6,1.6,0.6,2.8
	c0,1.2-0.2,2.2-0.6,2.8c-0.4,0.6-1.1,1-1.9,1c-0.8,0-1.4-0.3-1.9-1c-0.4-0.6-0.6-1.6-0.6-2.8c0-1.2,0.2-2.2,0.6-2.8
	C33.4,186.8,34,186.5,34.8,186.5z"/>
<path id="mac584381eb_00000107584038049308041610000005913362131298583486_" class="st0" d="M45,144.2h-3.5"/>
<path id="DejaVuSans-2212_00000032637421244300248370000010026058729552001680_" d="M18,144.4h6.3v0.8H18V144.4z"/>
<path id="DejaVuSans-34" d="M29.1,141.5l-2.5,3.9h2.5V141.5z M28.8,140.7H30v4.8h1v0.8h-1v1.7h-1v-1.7h-3.3v-1L28.8,140.7z"/>
<path id="DejaVuSans-30_00000009569266119181528260000015523397526937320839_" d="M34.8,141.3c-0.5,0-0.9,0.2-1.1,0.8
	c-0.3,0.5-0.4,1.2-0.4,2.3c0,1,0.1,1.7,0.4,2.2c0.3,0.5,0.6,0.8,1.1,0.8c0.5,0,0.9-0.2,1.2-0.8c0.3-0.5,0.4-1.2,0.4-2.2
	c0-1-0.1-1.8-0.4-2.3C35.7,141.6,35.3,141.3,34.8,141.3z M34.8,140.6c0.8,0,1.4,0.3,1.9,1c0.4,0.6,0.6,1.6,0.6,2.8
	c0,1.2-0.2,2.2-0.6,2.8c-0.4,0.6-1.1,1-1.9,1c-0.8,0-1.4-0.3-1.9-1c-0.4-0.6-0.6-1.6-0.6-2.8c0-1.2,0.2-2.2,0.6-2.8
	C33.4,140.9,34,140.6,34.8,140.6z"/>
<path id="mac584381eb_00000103243860244116624980000015044122090741404056_" class="st0" d="M45,98.2h-3.5"/>
<path id="DejaVuSans-2212_00000078726985113784823680000015416008437802573223_" d="M18,98.5h6.3v0.8H18V98.5z"/>
<path id="DejaVuSans-32_00000029025951776188154670000018018890052259122578_" d="M27.2,101.2h3.4v0.8H26v-0.8
	c0.4-0.4,0.9-0.9,1.5-1.6c0.6-0.7,1.1-1.1,1.2-1.3c0.3-0.4,0.5-0.7,0.7-0.9c0.1-0.2,0.2-0.5,0.2-0.7c0-0.4-0.1-0.7-0.4-0.9
	c-0.3-0.2-0.6-0.4-1.1-0.4c-0.3,0-0.6,0.1-1,0.2c-0.3,0.1-0.7,0.3-1.1,0.5v-1c0.4-0.2,0.8-0.3,1.1-0.4c0.3-0.1,0.7-0.1,0.9-0.1
	c0.8,0,1.4,0.2,1.8,0.6c0.4,0.4,0.7,0.9,0.7,1.5c0,0.3-0.1,0.6-0.2,0.9c-0.1,0.3-0.3,0.6-0.6,0.9c-0.1,0.1-0.3,0.4-0.8,0.8
	C28.6,99.8,28,100.4,27.2,101.2z"/>
<path id="DejaVuSans-30_00000060713841730443393630000010669849506877732232_" d="M34.8,95.4c-0.5,0-0.9,0.2-1.1,0.8
	c-0.3,0.5-0.4,1.2-0.4,2.3c0,1,0.1,1.7,0.4,2.2c0.3,0.5,0.6,0.8,1.1,0.8c0.5,0,0.9-0.2,1.2-0.8c0.3-0.5,0.4-1.2,0.4-2.2
	c0-1-0.1-1.8-0.4-2.3C35.7,95.7,35.3,95.4,34.8,95.4z M34.8,94.6c0.8,0,1.4,0.3,1.9,1c0.4,0.6,0.6,1.6,0.6,2.8
	c0,1.2-0.2,2.2-0.6,2.8c-0.4,0.6-1.1,1-1.9,1c-0.8,0-1.4-0.3-1.9-1c-0.4-0.6-0.6-1.6-0.6-2.8c0-1.2,0.2-2.2,0.6-2.8
	C33.4,94.9,34,94.6,34.8,94.6z"/>
<path id="mac584381eb_00000009570488035314518810000016190797072511008445_" class="st0" d="M45,52.3h-3.5"/>
<path id="DejaVuSans-30_00000121259059573968351270000013427763547501929606_" d="M34.8,49.5c-0.5,0-0.9,0.2-1.1,0.8
	c-0.3,0.5-0.4,1.2-0.4,2.3c0,1,0.1,1.7,0.4,2.2c0.3,0.5,0.6,0.8,1.1,0.8c0.5,0,0.9-0.2,1.2-0.8c0.3-0.5,0.4-1.2,0.4-2.2
	c0-1-0.1-1.8-0.4-2.3C35.7,49.7,35.3,49.5,34.8,49.5z M34.8,48.7c0.8,0,1.4,0.3,1.9,1c0.4,0.6,0.6,1.6,0.6,2.8
	c0,1.2-0.2,2.2-0.6,2.8c-0.4,0.6-1.1,1-1.9,1c-0.8,0-1.4-0.3-1.9-1c-0.4-0.6-0.6-1.6-0.6-2.8c0-1.2,0.2-2.2,0.6-2.8
	C33.4,49,34,48.7,34.8,48.7z"/>
<path id="DejaVuSans-4c" d="M-2.8,201.4v-1h6.5v-3.5h0.8v4.5H-2.8z"/>
<path id="DejaVuSans-61" d="M1.7,193.4c0,0.7,0.1,1.2,0.2,1.5c0.2,0.3,0.4,0.4,0.8,0.4c0.3,0,0.6-0.1,0.8-0.3
	c0.2-0.2,0.3-0.5,0.3-0.9c0-0.5-0.2-0.9-0.5-1.2s-0.8-0.5-1.4-0.5H1.7V193.4z M1.3,191.6h3.1v0.9H3.6c0.3,0.2,0.6,0.5,0.7,0.8
	s0.2,0.7,0.2,1.1c0,0.6-0.2,1-0.5,1.3c-0.3,0.3-0.7,0.5-1.3,0.5c-0.6,0-1.1-0.2-1.4-0.6c-0.3-0.4-0.5-1-0.5-1.8v-1.3H0.9
	c-0.4,0-0.7,0.1-1,0.4s-0.3,0.7-0.3,1.1c0,0.3,0,0.6,0.1,0.9c0.1,0.3,0.2,0.6,0.3,0.9h-0.8c-0.1-0.3-0.2-0.6-0.3-1
	c-0.1-0.3-0.1-0.6-0.1-0.9c0-0.8,0.2-1.4,0.6-1.8C-0.1,191.8,0.5,191.6,1.3,191.6z"/>
<path id="DejaVuSans-74" d="M-2.6,188.8H-1V187h0.7v1.8h3c0.4,0,0.7-0.1,0.9-0.2c0.1-0.1,0.2-0.4,0.2-0.7V187h0.8v0.9
	c0,0.7-0.1,1.2-0.4,1.4c-0.3,0.3-0.7,0.4-1.4,0.4h-3v0.7H-1v-0.7h-1.6V188.8z"/>
<path id="DejaVuSans-69_00000090269210996285484350000005319852543892479915_" d="M-1,185.8v-0.9h5.5v0.9H-1z M-3.1,185.8v-0.9H-2
	v0.9H-3.1z"/>
<path id="DejaVuSans-74_00000070106781771523838500000014709727708134714002_" d="M-2.6,182.1H-1v-1.8h0.7v1.8h3
	c0.4,0,0.7-0.1,0.9-0.2c0.1-0.1,0.2-0.4,0.2-0.7v-0.9h0.8v0.9c0,0.7-0.1,1.2-0.4,1.4c-0.3,0.3-0.7,0.4-1.4,0.4h-3v0.7H-1v-0.7h-1.6
	V182.1z"/>
<path id="DejaVuSans-75" d="M2.3,179.2H-1v-0.9h3.3c0.5,0,0.9-0.1,1.2-0.3c0.3-0.2,0.4-0.5,0.4-0.9c0-0.5-0.2-0.9-0.5-1.1
	c-0.3-0.3-0.7-0.4-1.3-0.4H-1v-0.9h5.5v0.9H3.6c0.3,0.2,0.6,0.5,0.7,0.8c0.2,0.3,0.2,0.6,0.2,1c0,0.6-0.2,1.1-0.6,1.4
	C3.6,179,3,179.2,2.3,179.2z M-1.1,176.9L-1.1,176.9z"/>
<path id="DejaVuSans-64" d="M-0.2,169.2h-3v-0.9h7.6v0.9H3.6c0.3,0.2,0.6,0.4,0.7,0.7c0.2,0.3,0.2,0.6,0.2,1c0,0.7-0.3,1.2-0.8,1.6
	c-0.5,0.4-1.2,0.6-2.1,0.6s-1.6-0.2-2.1-0.6c-0.5-0.4-0.8-1-0.8-1.6c0-0.4,0.1-0.8,0.2-1C-0.8,169.6-0.5,169.4-0.2,169.2z
	 M1.7,172.2c0.7,0,1.2-0.1,1.6-0.4c0.4-0.3,0.6-0.6,0.6-1.1s-0.2-0.8-0.6-1.1c-0.4-0.3-0.9-0.4-1.6-0.4s-1.2,0.1-1.6,0.4
	c-0.4,0.3-0.6,0.6-0.6,1.1s0.2,0.8,0.6,1.1C0.5,172.1,1.1,172.2,1.7,172.2z"/>
<path id="DejaVuSans-65_00000106142670121286546960000005654992358684096955_" d="M1.5,161.8h0.4v4.1c0.6,0,1.1-0.2,1.4-0.6
	c0.3-0.3,0.5-0.8,0.5-1.4c0-0.3,0-0.7-0.1-1c-0.1-0.3-0.2-0.6-0.4-1h0.9c0.1,0.3,0.2,0.7,0.3,1c0.1,0.3,0.1,0.7,0.1,1
	c0,0.9-0.3,1.6-0.8,2.1c-0.5,0.5-1.2,0.8-2.1,0.8c-0.9,0-1.6-0.2-2.1-0.7c-0.5-0.5-0.8-1.1-0.8-2c0-0.7,0.2-1.3,0.7-1.7
	C0,162,0.7,161.8,1.5,161.8z M1.2,162.7c-0.5,0-0.9,0.1-1.2,0.4c-0.3,0.3-0.4,0.6-0.4,1.1c0,0.5,0.1,0.9,0.4,1.2s0.7,0.5,1.2,0.5
	L1.2,162.7z"/>
<rect x="45" y="43.2" class="st1" width="279" height="277.2"/>
<path class="st2" d="M57.7,55.8l0.4,5.3l1,16.2l3.4,57.1l2.7,39.5l2,29.7l2.2,30.5l0.6,4.1l0.3,0.9l0.2,0.1l0.3-0.2l1.8-1.7l0.2,0
	l0.6,0.7l0.7,0.9l0.5,0.2l1.5,0.5l2.2-0.1l0.2-0.3l1.2-2.6l0.4-1.9l0.4-3.7l0.7-8.6l1.5-21.6l4.6-67.6l0.3-1.9l0.3-0.6l0.2-0.1
	l0.2,0.1l0.3,0.7l0.4,1.7l0.4,3.6l1.1,12.5l4.8,53.9l0.4,2.3l1.1,4.2l0.5,3.9l1,10.9l2.1,25.1l2.5,28.9l0.4,1.8l0.3,0.5l0.2,0
	l0.2-0.4l0.3-1l0.4-2.1l0.5-4.7l4.7-53.1l1.1-11.8l0.4-2.2l0.4-0.8l0.5-0.7l0.3-1l0.3-2.2l0.6-6.2l1.2-14.5l4.5-55.2l0.3-1.4
	l0.3-0.4l0.2,0l0.2,0.3l0.3,0.9l0.4,1.9l0.5,4.1l5.3,50.7l0.7,4.3l0.4,4.3l0.9,13l1.5,23.9l2.6,42.5l0.3,2.8l0.3,0.9l0.2,0.1
	l0.2-0.1l0.7-0.6l0.6-0.1l0.9-0.2l0.8-0.3l0.7,0.3l0.8,0.3l1.1,0.1l0.3,0l0.3-0.5l0.4-1.1l0.5-2.4l0.3-2.8l0.6-6.7l1.4-20.8
	l2.5-38.6l1.1-17.2l0.5-3.6l0.5-2.1l0.6-2.2l0.4-2.7l0.6-5.7l2.6-27.5l2-20.6l0.4-1.6l0.2-0.2l0.1,0.1l0.2,0.5l0.4,1.8l0.5,3.8
	l2.5,20.5l3.1,25.5l0.7,10l1.9,30.9l2.6,42.1l0.5,2.9l0.8,4.8l1.1,7.4l1.2,9.8l2,17.1l0.2,0.5l0.2,0l0.2-0.4l0.3-1.1l0.4-2.6
	l2.2-17.8l3.6-29.7l0.6-7.4l1.5-23.9l2.9-46.3l0.5-5.2l0.5-2.8l0.5-2.9l0.6-4.8l2.7-24.9l1.7-14.5l0.3-0.6l0.1,0l0.2,0.4l0.3,1.3
	l0.6,4.1l1.7,13.5l2.5,17.7l0.7,6.7l0.7,10.1l2.2,37.8l1.7,26.8l0.6,6.2l1,10.1l1.4,16.8l2.6,32.1l0.3,0.8l0.3,0.2l0.3-0.2l1.3-1.3
	l0.5,0l1.6,0.2l0.8-0.1l0.1-0.2l0.3-1.1l0.4-2.3l0.5-5l2.1-26.1l2.6-32.3l0.8-10.6l2-29.9l2.6-39.1l0.6-5l1.7-12.4l3.2-25.6l0.3-0.6
	l0.1,0l0.2,0.5l0.3,1.4l0.6,4.5l1.5,10.5l2.5,16l0.5,5.9l1.5,22.4l3.3,47.7l1.1,15.1l1.9,28.3l1.6,23.9l0.6,4.1l0.9,5l1,5.5
	l2.4,14.7l0.2,0.2l0.1-0.2l0.2-0.6l0.3-1.7l4.7-29.5l0.6-6.9l2-30.5l2.3-33.1l1.4-18.1l2.3-33.4l1.5-22.2l0.6-5.1l2.4-17l1.8-12.4
	l0,0"/>
<rect x="45" y="43.2" class="st1" width="279" height="277.2"/>
<path class="st3" d="M57.7,56.9l0.4,5.9l2.9,46.7l1.1,15.2l0.6,4.7l0.5,2.6l1,4.7l0.4,3.2l0.5,7.1l2.3,33.8l2.3,32.8l1.2,15.4
	l0.6,4.5l0.5,2.3l0.4,0.9l0.3,0.3l0.6,0l0.4,0.1l0.4,0.4l1.3,1.3l0.5,0.1l0.9-0.1l0.7,0l1,0.3l1.1,0.3l0.7,0l0.2-0.3l0.2-0.7l0.3-2
	l0.7-5.8l0.5-5.5l1.2-18.7l2.8-40.3l1.8-25.3l0.6-4.6l0.5-2.3l0.3-0.4l0.1,0.1l0.2,0.4l0.4,1.5l1,4.7l0.4,4l1.2,13.6l2.9,33.4
	l0.7,6.4l0.5,3.1l0.7,2.4l0.7,2.9l0.9,5l0.4,3.8l0.8,9.6l1.4,16.9l3.1,33l0.5,2.4l0.3,0.8l0.2,0l0.2-0.3l0.3-1.1l1.1-4.7l0.4-2.9
	l0.7-7.4l2.5-29l1.8-19l0.6-3.2l0.6-2.2l0.6-2.5l0.9-5.1l0.4-3.3l0.5-6.3l2.4-30.2l2.6-29.8l0.5-3l0.4-1.4l0.2-0.1l0.2,0.2l0.3,0.7
	l1.2,3.6l0.4,2.2l0.6,5.2l3.4,32.4l0.6,3.9l0.5,2l0.6,2.2l0.6,3.5l0.9,6.4l0.4,4.9l0.8,13.4l1.7,26.3l2.2,31.2l0.5,4l0.4,1.5
	l0.3,0.3l0.3,0l0.4-0.3l0.4-0.1l0.3,0.1l0.5,0.5l0.8,0.8l0.5,0.2l1.1,0.1l1.9,0.1l0.2-0.5l0.3-1.4l0.4-3.4l0.4-5.3l1-16.5l2.1-32.6
	l1.4-20.8l0.6-4.8l0.5-2.7l1.6-7.2l0.5-3.6l0.7-7.9l1.3-14.2l2-21.3l0.7-5.9l0.5-2.8l0.5-1.4l0.2-0.2l0.2,0.1l0.4,0.6l1.1,2.5
	l0.4,1.7l0.5,3.5l3.6,28l0.5,2l0.9,2.9l0.7,3.7l0.6,4.1l0.4,5.1l0.7,12.3l1.9,32.2l1.4,20.8l0.5,4.7l0.5,2.3l0.8,2.4l0.7,2.6
	l0.5,2.8l0.6,5l1.9,16.7l1.8,14.1l0.5,1.9l0.4,0.8l0.2,0l0.2-0.3l0.5-1l0.8-2l0.4-1.8l0.5-3.6l3.6-27.8l0.5-2.2l1.1-3.7l0.7-4.3
	l0.5-3.8l0.4-5.9l1-17.8l1.7-28.2l1.2-17l0.6-4.9l0.5-2.5l1.7-6.8l0.5-4l3.9-36.8l0.6-3.4l0.5-1.8l0.3-0.5l0.2,0l0.3,0.3l0.9,1.5
	l0.4,1.1l0.4,1.9l0.7,4.8l2.3,16.3l0.7,3.6l0.5,1.6l0.8,2.1l0.6,2.7l0.5,3.1l0.4,4.3l0.6,9.7l2.2,36.3l1,13.8l0.6,4.9l0.5,2.7l1.3,6
	l0.4,3.3l0.6,7.5l1.9,25.5l1.8,20.9l0.7,4.6l0.3,1l0.2,0.2l0.2-0.1l1-0.7l0.3,0.1l0.6,0.5l0.7,0.4l0.5,0.1l1.1-0.1l0.6-0.2l0.2-0.4
	l0.3-1.1l0.4-2.7l0.5-5.3l3.3-41.9l0.7-6.1l0.5-3l1.5-6.7l0.4-3.3l0.4-5l0.8-13.4l1.6-26.1l1.4-19.9l0.6-4.6l0.5-2.3l1.5-5.5
	l0.5-3.8l2.7-23.3l1.2-9.1l0.5-2.2l0.4-1.1l0.2-0.1l0.3,0.2l0.7,0.7l0.4,0.6l0.4,1.2l0.4,2.1l1.2,7.1l1.7,9.7l0.7,2.8l0.5,1.2
	l0.5,1.1l0.5,2.1l0.5,2.8l0.4,3.6l0.5,7.6l2.6,40l0.7,7.9l0.5,3.8l0.7,2.9l0.7,3.5l0.4,3.1l0.4,5.2l1.1,17.3l1.7,25.9l0.8,9.8
	l0.6,4.5l0.5,2.3l0.5,1.3l0.6,1.8l0.5,2.1l0.6,3.8l1.8,12.5l1.4,8.3l0.5,1.8l0.4,0.8l0.2,0l0.3-0.3l0.6-0.8l0.4-1l0.5-1.8l0.7-4.3
	l2.6-15.4l0.6-2l0.5-1.1l0.3-0.9l0.6-2.3l0.4-2.6l0.4-3.7l0.6-8.6l2.5-37.8l0.7-8.6l0.6-4.2l0.6-2.7l0.8-4l0.4-3.1l0.4-5.4l1.1-17.6
	l1.6-24.7l0.8-10.1l0.6-4.7l0.5-2.3l0.7-1.9l0.5-1.7l0.5-2.7l0.7-5.7l1.5-12.3l1.7-12.2l0.5-1.9l1-3.2l0.4-2.3l0.4-3.6l0.5-7.7
	l1.3-19.4l0.5-4l0.3-1.6l1.1-0.1l0.5,0.5l0.3,0l0.3-0.2l0.4-0.4l0,0"/>
<rect x="45" y="43.2" class="st1" width="279" height="277.2"/>
<path class="st4" d="M57.7,56.9l0.5,6.2l3,46.3l1,14.3l0.6,5.8l0.6,3.7l1,5.9l0.4,4.6l2,27.6l4.3,59.8l0.6,4.4l0.5,2.1l0.4,0.9
	l0.4,0.3l0.4,0.1l0.8,0.1l0.7,0.3l0.6,0.1l3.2,0.1l0.7,0.2l1.4,0.1l0.2-0.2l0.2-0.6l0.4-1.9l1.3-8.4l0.6-8.1l3.2-43.5l2.7-37.1
	l0.6-4.8l0.5-2.2l0.2-0.2l0.2,0.2l0.3,0.7l1,3.2l0.3,2l0.4,4l3.9,41.7l1.1,11.4l0.7,4.2l0.7,3.2l1.7,8.1l0.4,3.3l1.1,12l3.4,37.8
	l0.7,7.2l0.6,4.1l0.5,2.2l0.2,0.3l0.1-0.1l0.3-0.6l0.9-2.5l0.4-1.5l0.3-2.5l0.7-7.8l3-32.5l1.6-16.5l0.6-4.1l0.8-3.3l1.6-7.8l0.4-3
	l0.8-8.7l3.4-39.6l1.4-15.9l0.6-4.2l0.5-2.2l0.2-0.3l0.2,0.1l0.3,0.5l0.7,1.5l0.4,1.2l0.4,2.2l0.5,4.3l4.5,38.6l0.6,2.6l0.5,2.1
	l1.4,8.1l0.4,3.8l0.6,7.8l4.7,66.9l0.6,4.5l0.4,1.3l0.3,0.4l0.3,0.1l0.6,0l5.1,0.5l0.3-0.2l0.2-0.5l0.3-1.4l0.5-3.8l0.5-5.6
	l2.3-33.9l2.5-35.9l0.6-5.1l0.7-3.7l1.7-8.5l0.6-5.3l4.8-46l0.6-2.9l0.4-1l0.2,0l0.3,0.2l0.5,0.7l0.5,1l0.4,1.5l0.5,2.8l4.4,31.6
	l0.6,2.1l0.4,1.5l1,5.5l0.4,3.2l0.5,5.7l1.8,28.3l2.4,36.3l0.6,5.2l0.6,3l1.8,8l0.9,6.6l3.7,28l0.6,2.3l0.3,0.7l0.2,0l0.3-0.3
	l0.5-0.7l0.5-1l0.4-1.6l0.5-3.3l4.2-30.9l0.6-2.2l0.5-1.7l0.9-4.6l0.5-3.5l0.4-4.7l1-15.9l3.5-51.9l0.6-4.5l0.6-3.1l1.4-6.7l0.7-5.6
	l4.3-36.2l0.6-2.3l0.3-0.6l0.2,0l0.4,0.3l0.6,0.8l0.3,0.8l0.4,1.8l0.6,3.5l3.7,23.1l0.6,1.7l0.4,1.3l0.9,4.5l0.4,2.8l0.5,5.7
	l2.1,31.3l1.8,26.5l0.6,5.3l0.6,3.5l1.3,7.2l0.5,5.5l4.1,49.5l0.8,5.2l0.3,0.7l0.3,0.1l2.5,0l2,0l0.5-0.1l0.2-0.3l0.2-0.8l0.3-2.2
	l0.5-4.4l1.2-14.5l3-34.5l0.6-4.1l1.7-9.6l0.4-3.8l0.6-8.3l3.6-53.4l0.6-5.1l0.5-2.8l1.4-6.1l0.6-4.8l3.8-29.9l0.6-2.5l0.4-1.1
	l0.2-0.1l0.4,0.2l0.6,0.5l0.3,0.7l0.4,1.6l0.6,3.3l3.2,18l0.5,1.6l0.7,2.2l0.8,4.1l0.3,3.1l0.6,7.8l3.4,48.2l0.6,4.6l1.8,11.1l0.5,7
	l3.4,48.9l0.6,5.1l0.5,2.8l0.6,2l0.7,2.8l0.7,3.9l3.3,19.9l0.6,2l0.5,1.1l0.2,0.2l0.3-0.1l0.6-0.5l0.3-0.7l0.4-1.5l0.6-3.1l3.4-18.8
	l0.6-1.8l0.5-1.3l0.8-3.5l0.4-2.5l0.4-4.8l1.7-25.3l1.9-26.4l0.6-5.1l0.7-3.8l1.1-6.4l0.4-4.4l1.4-20.2l2.4-33.3l0.6-5.1l0.6-2.8
	l1.2-4.9l0.6-4.4l3.6-26l0.6-2.2l0.9-3l0.6-3.2l0.4-4l0.8-11.2l1-12.9l0.6-5.6l0.3-1.7l0,0"/>
<path class="st5" d="M45,320.4V43.2"/>
<path class="st5" d="M324,320.4V43.2"/>
<path class="st5" d="M45,320.4h279"/>
<path class="st5" d="M45,43.2h279"/>
</svg>
