<?xml version="1.0" encoding="utf-8" standalone="no"?>
<!DOCTYPE svg PUBLIC "-//W3C//DTD SVG 1.1//EN"
  "http://www.w3.org/Graphics/SVG/1.1/DTD/svg11.dtd">
<svg xmlns:xlink="http://www.w3.org/1999/xlink" width="720pt" height="216pt" viewBox="0 0 720 216" xmlns="http://www.w3.org/2000/svg" version="1.1">
 <metadata>
  <rdf:RDF xmlns:dc="http://purl.org/dc/elements/1.1/" xmlns:cc="http://creativecommons.org/ns#" xmlns:rdf="http://www.w3.org/1999/02/22-rdf-syntax-ns#">
   <cc:Work>
    <dc:type rdf:resource="http://purl.org/dc/dcmitype/StillImage"/>
    <dc:date>2023-04-24T22:38:34.172697</dc:date>
    <dc:format>image/svg+xml</dc:format>
    <dc:creator>
     <cc:Agent>
      <dc:title>Matplotlib v3.6.3, https://matplotlib.org/</dc:title>
     </cc:Agent>
    </dc:creator>
   </cc:Work>
  </rdf:RDF>
 </metadata>
 <defs>
  <style type="text/css">*{stroke-linejoin: round; stroke-linecap: butt}</style>
 </defs>
 <g id="figure_1">
  <g id="patch_1">
   <path d="M 0 216 
L 720 216 
L 720 0 
L 0 0 
z
" style="fill: #ffffff"/>
  </g>
  <g id="axes_1">
   <g id="patch_2">
    <path d="M 16.36274 183.64351 
L 350.0375 183.64351 
L 350.0375 18.118365 
L 16.36274 18.118365 
z
" style="fill: #ffffff"/>
   </g>
   <g id="matplotlib.axis_1">
    <g id="xtick_1">
     <g id="line2d_1">
      <defs>
       <path id="mdc534ae2e2" d="M 0 0 
L 0 3.5 
" style="stroke: #000000; stroke-width: 0.8"/>
      </defs>
      <g>
       <use xlink:href="#mdc534ae2e2" x="31.529775" y="183.64351" style="stroke: #000000; stroke-width: 0.8"/>
      </g>
     </g>
     <g id="text_1">
      <!-- 0.0 -->
      <g transform="translate(23.578212 198.241947) scale(0.1 -0.1)">
       <defs>
        <path id="DejaVuSans-30" d="M 2034 4250 
Q 1547 4250 1301 3770 
Q 1056 3291 1056 2328 
Q 1056 1369 1301 889 
Q 1547 409 2034 409 
Q 2525 409 2770 889 
Q 3016 1369 3016 2328 
Q 3016 3291 2770 3770 
Q 2525 4250 2034 4250 
z
M 2034 4750 
Q 2819 4750 3233 4129 
Q 3647 3509 3647 2328 
Q 3647 1150 3233 529 
Q 2819 -91 2034 -91 
Q 1250 -91 836 529 
Q 422 1150 422 2328 
Q 422 3509 836 4129 
Q 1250 4750 2034 4750 
z
" transform="scale(0.015625)"/>
        <path id="DejaVuSans-2e" d="M 684 794 
L 1344 794 
L 1344 0 
L 684 0 
L 684 794 
z
" transform="scale(0.015625)"/>
       </defs>
       <use xlink:href="#DejaVuSans-30"/>
       <use xlink:href="#DejaVuSans-2e" x="63.623047"/>
       <use xlink:href="#DejaVuSans-30" x="95.410156"/>
      </g>
     </g>
    </g>
    <g id="xtick_2">
     <g id="line2d_2">
      <g>
       <use xlink:href="#mdc534ae2e2" x="87.086678" y="183.64351" style="stroke: #000000; stroke-width: 0.8"/>
      </g>
     </g>
     <g id="text_2">
      <!-- 0.5 -->
      <g transform="translate(79.135115 198.241947) scale(0.1 -0.1)">
       <defs>
        <path id="DejaVuSans-35" d="M 691 4666 
L 3169 4666 
L 3169 4134 
L 1269 4134 
L 1269 2991 
Q 1406 3038 1543 3061 
Q 1681 3084 1819 3084 
Q 2600 3084 3056 2656 
Q 3513 2228 3513 1497 
Q 3513 744 3044 326 
Q 2575 -91 1722 -91 
Q 1428 -91 1123 -41 
Q 819 9 494 109 
L 494 744 
Q 775 591 1075 516 
Q 1375 441 1709 441 
Q 2250 441 2565 725 
Q 2881 1009 2881 1497 
Q 2881 1984 2565 2268 
Q 2250 2553 1709 2553 
Q 1456 2553 1204 2497 
Q 953 2441 691 2322 
L 691 4666 
z
" transform="scale(0.015625)"/>
       </defs>
       <use xlink:href="#DejaVuSans-30"/>
       <use xlink:href="#DejaVuSans-2e" x="63.623047"/>
       <use xlink:href="#DejaVuSans-35" x="95.410156"/>
      </g>
     </g>
    </g>
    <g id="xtick_3">
     <g id="line2d_3">
      <g>
       <use xlink:href="#mdc534ae2e2" x="142.643581" y="183.64351" style="stroke: #000000; stroke-width: 0.8"/>
      </g>
     </g>
     <g id="text_3">
      <!-- 1.0 -->
      <g transform="translate(134.692018 198.241947) scale(0.1 -0.1)">
       <defs>
        <path id="DejaVuSans-31" d="M 794 531 
L 1825 531 
L 1825 4091 
L 703 3866 
L 703 4441 
L 1819 4666 
L 2450 4666 
L 2450 531 
L 3481 531 
L 3481 0 
L 794 0 
L 794 531 
z
" transform="scale(0.015625)"/>
       </defs>
       <use xlink:href="#DejaVuSans-31"/>
       <use xlink:href="#DejaVuSans-2e" x="63.623047"/>
       <use xlink:href="#DejaVuSans-30" x="95.410156"/>
      </g>
     </g>
    </g>
    <g id="xtick_4">
     <g id="line2d_4">
      <g>
       <use xlink:href="#mdc534ae2e2" x="198.200484" y="183.64351" style="stroke: #000000; stroke-width: 0.8"/>
      </g>
     </g>
     <g id="text_4">
      <!-- 1.5 -->
      <g transform="translate(190.248921 198.241947) scale(0.1 -0.1)">
       <use xlink:href="#DejaVuSans-31"/>
       <use xlink:href="#DejaVuSans-2e" x="63.623047"/>
       <use xlink:href="#DejaVuSans-35" x="95.410156"/>
      </g>
     </g>
    </g>
    <g id="xtick_5">
     <g id="line2d_5">
      <g>
       <use xlink:href="#mdc534ae2e2" x="253.757387" y="183.64351" style="stroke: #000000; stroke-width: 0.8"/>
      </g>
     </g>
     <g id="text_5">
      <!-- 2.0 -->
      <g transform="translate(245.805824 198.241947) scale(0.1 -0.1)">
       <defs>
        <path id="DejaVuSans-32" d="M 1228 531 
L 3431 531 
L 3431 0 
L 469 0 
L 469 531 
Q 828 903 1448 1529 
Q 2069 2156 2228 2338 
Q 2531 2678 2651 2914 
Q 2772 3150 2772 3378 
Q 2772 3750 2511 3984 
Q 2250 4219 1831 4219 
Q 1534 4219 1204 4116 
Q 875 4013 500 3803 
L 500 4441 
Q 881 4594 1212 4672 
Q 1544 4750 1819 4750 
Q 2544 4750 2975 4387 
Q 3406 4025 3406 3419 
Q 3406 3131 3298 2873 
Q 3191 2616 2906 2266 
Q 2828 2175 2409 1742 
Q 1991 1309 1228 531 
z
" transform="scale(0.015625)"/>
       </defs>
       <use xlink:href="#DejaVuSans-32"/>
       <use xlink:href="#DejaVuSans-2e" x="63.623047"/>
       <use xlink:href="#DejaVuSans-30" x="95.410156"/>
      </g>
     </g>
    </g>
    <g id="xtick_6">
     <g id="line2d_6">
      <g>
       <use xlink:href="#mdc534ae2e2" x="309.31429" y="183.64351" style="stroke: #000000; stroke-width: 0.8"/>
      </g>
     </g>
     <g id="text_6">
      <!-- 2.5 -->
      <g transform="translate(301.362728 198.241947) scale(0.1 -0.1)">
       <use xlink:href="#DejaVuSans-32"/>
       <use xlink:href="#DejaVuSans-2e" x="63.623047"/>
       <use xlink:href="#DejaVuSans-35" x="95.410156"/>
      </g>
     </g>
    </g>
    <g id="text_7">
     <!-- 1e8 -->
     <g transform="translate(331.159375 210.920073) scale(0.1 -0.1)">
      <defs>
       <path id="DejaVuSans-65" d="M 3597 1894 
L 3597 1613 
L 953 1613 
Q 991 1019 1311 708 
Q 1631 397 2203 397 
Q 2534 397 2845 478 
Q 3156 559 3463 722 
L 3463 178 
Q 3153 47 2828 -22 
Q 2503 -91 2169 -91 
Q 1331 -91 842 396 
Q 353 884 353 1716 
Q 353 2575 817 3079 
Q 1281 3584 2069 3584 
Q 2775 3584 3186 3129 
Q 3597 2675 3597 1894 
z
M 3022 2063 
Q 3016 2534 2758 2815 
Q 2500 3097 2075 3097 
Q 1594 3097 1305 2825 
Q 1016 2553 972 2059 
L 3022 2063 
z
" transform="scale(0.015625)"/>
       <path id="DejaVuSans-38" d="M 2034 2216 
Q 1584 2216 1326 1975 
Q 1069 1734 1069 1313 
Q 1069 891 1326 650 
Q 1584 409 2034 409 
Q 2484 409 2743 651 
Q 3003 894 3003 1313 
Q 3003 1734 2745 1975 
Q 2488 2216 2034 2216 
z
M 1403 2484 
Q 997 2584 770 2862 
Q 544 3141 544 3541 
Q 544 4100 942 4425 
Q 1341 4750 2034 4750 
Q 2731 4750 3128 4425 
Q 3525 4100 3525 3541 
Q 3525 3141 3298 2862 
Q 3072 2584 2669 2484 
Q 3125 2378 3379 2068 
Q 3634 1759 3634 1313 
Q 3634 634 3220 271 
Q 2806 -91 2034 -91 
Q 1263 -91 848 271 
Q 434 634 434 1313 
Q 434 1759 690 2068 
Q 947 2378 1403 2484 
z
M 1172 3481 
Q 1172 3119 1398 2916 
Q 1625 2713 2034 2713 
Q 2441 2713 2670 2916 
Q 2900 3119 2900 3481 
Q 2900 3844 2670 4047 
Q 2441 4250 2034 4250 
Q 1625 4250 1398 4047 
Q 1172 3844 1172 3481 
z
" transform="scale(0.015625)"/>
      </defs>
      <use xlink:href="#DejaVuSans-31"/>
      <use xlink:href="#DejaVuSans-65" x="63.623047"/>
      <use xlink:href="#DejaVuSans-38" x="125.146484"/>
     </g>
    </g>
   </g>
   <g id="matplotlib.axis_2">
    <g id="ytick_1">
     <g id="line2d_7">
      <defs>
       <path id="m34cb8b55ef" d="M 0 0 
L -3.5 0 
" style="stroke: #000000; stroke-width: 0.8"/>
      </defs>
      <g>
       <use xlink:href="#m34cb8b55ef" x="16.36274" y="169.274058" style="stroke: #000000; stroke-width: 0.8"/>
      </g>
     </g>
     <g id="text_8">
      <!-- 1 -->
      <g transform="translate(3.00024 173.073276) scale(0.1 -0.1)">
       <use xlink:href="#DejaVuSans-31"/>
      </g>
     </g>
    </g>
    <g id="ytick_2">
     <g id="line2d_8">
      <g>
       <use xlink:href="#m34cb8b55ef" x="16.36274" y="134.604008" style="stroke: #000000; stroke-width: 0.8"/>
      </g>
     </g>
     <g id="text_9">
      <!-- 2 -->
      <g transform="translate(3.00024 138.403226) scale(0.1 -0.1)">
       <use xlink:href="#DejaVuSans-32"/>
      </g>
     </g>
    </g>
    <g id="ytick_3">
     <g id="line2d_9">
      <g>
       <use xlink:href="#m34cb8b55ef" x="16.36274" y="99.933957" style="stroke: #000000; stroke-width: 0.8"/>
      </g>
     </g>
     <g id="text_10">
      <!-- 3 -->
      <g transform="translate(3.00024 103.733176) scale(0.1 -0.1)">
       <defs>
        <path id="DejaVuSans-33" d="M 2597 2516 
Q 3050 2419 3304 2112 
Q 3559 1806 3559 1356 
Q 3559 666 3084 287 
Q 2609 -91 1734 -91 
Q 1441 -91 1130 -33 
Q 819 25 488 141 
L 488 750 
Q 750 597 1062 519 
Q 1375 441 1716 441 
Q 2309 441 2620 675 
Q 2931 909 2931 1356 
Q 2931 1769 2642 2001 
Q 2353 2234 1838 2234 
L 1294 2234 
L 1294 2753 
L 1863 2753 
Q 2328 2753 2575 2939 
Q 2822 3125 2822 3475 
Q 2822 3834 2567 4026 
Q 2313 4219 1838 4219 
Q 1578 4219 1281 4162 
Q 984 4106 628 3988 
L 628 4550 
Q 988 4650 1302 4700 
Q 1616 4750 1894 4750 
Q 2613 4750 3031 4423 
Q 3450 4097 3450 3541 
Q 3450 3153 3228 2886 
Q 3006 2619 2597 2516 
z
" transform="scale(0.015625)"/>
       </defs>
       <use xlink:href="#DejaVuSans-33"/>
      </g>
     </g>
    </g>
    <g id="ytick_4">
     <g id="line2d_10">
      <g>
       <use xlink:href="#m34cb8b55ef" x="16.36274" y="65.263907" style="stroke: #000000; stroke-width: 0.8"/>
      </g>
     </g>
     <g id="text_11">
      <!-- 4 -->
      <g transform="translate(3.00024 69.063126) scale(0.1 -0.1)">
       <defs>
        <path id="DejaVuSans-34" d="M 2419 4116 
L 825 1625 
L 2419 1625 
L 2419 4116 
z
M 2253 4666 
L 3047 4666 
L 3047 1625 
L 3713 1625 
L 3713 1100 
L 3047 1100 
L 3047 0 
L 2419 0 
L 2419 1100 
L 313 1100 
L 313 1709 
L 2253 4666 
z
" transform="scale(0.015625)"/>
       </defs>
       <use xlink:href="#DejaVuSans-34"/>
      </g>
     </g>
    </g>
    <g id="ytick_5">
     <g id="line2d_11">
      <g>
       <use xlink:href="#m34cb8b55ef" x="16.36274" y="30.593857" style="stroke: #000000; stroke-width: 0.8"/>
      </g>
     </g>
     <g id="text_12">
      <!-- 5 -->
      <g transform="translate(3.00024 34.393076) scale(0.1 -0.1)">
       <use xlink:href="#DejaVuSans-35"/>
      </g>
     </g>
    </g>
   </g>
   <g id="line2d_12">
    <path d="M 31.529775 30.422206 
L 32.331393 30.485656 
L 32.671878 30.356508 
L 33.241144 29.810143 
L 33.924205 29.253396 
L 34.261076 29.291452 
L 34.837111 29.628473 
L 35.852411 30.448475 
L 36.534493 30.593576 
L 37.778207 30.484184 
L 39.249053 30.406054 
L 40.042173 30.49412 
L 40.947153 30.586219 
L 45.573646 30.592221 
L 45.795592 48.66105 
L 46.473524 112.028398 
L 46.58959 106.140844 
L 46.80823 119.599081 
L 47.377863 153.628166 
L 47.485666 157.180501 
L 47.602756 156.740515 
L 47.824359 149.017185 
L 48.394987 112.088401 
L 49.530918 29.874535 
L 50.218811 30.216267 
L 50.562756 30.335562 
L 50.783282 30.582682 
L 51.354059 30.554412 
L 51.586061 30.27894 
L 52.723777 29.964403 
L 53.74357 29.987812 
L 54.987089 30.353763 
L 55.2185 30.567704 
L 56.564918 30.541418 
L 56.795994 30.301622 
L 58.03957 30.34315 
L 58.258733 30.558231 
L 58.596948 30.54484 
L 58.712358 30.35135 
L 58.936048 30.554346 
L 59.958166 30.568431 
L 61.761493 30.54203 
L 61.877911 30.356541 
L 62.099956 30.569688 
L 62.889346 30.559504 
L 63.227973 30.541153 
L 63.460131 30.351383 
L 63.566999 30.351895 
L 63.799002 30.549089 
L 63.91424 30.547568 
L 64.137491 30.333925 
L 64.47624 30.348953 
L 64.699621 30.551155 
L 66.39277 30.554908 
L 66.615666 30.309574 
L 68.091572 30.289884 
L 68.430586 30.337281 
L 68.653357 30.553966 
L 70.351157 30.552858 
L 70.574286 30.317592 
L 71.247197 30.139013 
L 71.925263 58.204426 
L 72.040936 62.90873 
L 72.376618 87.764296 
L 72.713759 99.131934 
L 72.945817 101.987897 
L 73.052233 102.367562 
L 73.168945 101.879704 
L 73.958056 43.095348 
L 74.190863 30.576234 
L 76.333515 30.557008 
L 77.238234 30.590088 
L 80.510791 30.561851 
L 81.530811 30.33257 
L 82.663131 30.296265 
L 87.852818 30.588865 
L 91.913407 30.592188 
L 92.028825 35.158053 
L 92.823003 100.647692 
L 92.93804 88.65093 
L 93.504349 138.341063 
L 93.844698 153.661907 
L 94.066219 156.803725 
L 94.516999 125.891379 
L 95.755921 30.022711 
L 96.205875 30.148089 
L 96.999507 30.589658 
L 100.173771 30.588666 
L 100.96284 30.449616 
L 102.207354 30.035209 
L 102.767912 30.133244 
L 103.455108 30.558826 
L 104.247948 30.557388 
L 106.049731 30.294364 
L 107.747525 30.582186 
L 110.565313 30.593113 
L 112.937377 30.593824 
L 113.052302 34.589403 
L 113.841948 132.973526 
L 113.948653 82.106991 
L 114.857739 157.220509 
L 115.198344 172.172014 
L 115.430163 175.875535 
L 115.657572 162.769009 
L 117.463241 30.417792 
L 118.929701 30.474728 
L 120.176234 29.817351 
L 120.851493 29.956666 
L 122.324566 30.472496 
L 123.11393 30.593328 
L 125.374869 30.493541 
L 126.957267 30.52353 
L 127.968531 30.542261 
L 129.101318 30.509511 
L 129.662786 30.414419 
L 130.340481 30.348606 
L 130.790533 30.392184 
L 131.588401 30.566332 
L 132.832516 30.576185 
L 134.299201 30.533466 
L 134.416042 30.540955 
L 134.530155 34.457031 
L 135.320122 99.351842 
L 135.426532 87.945007 
L 135.994222 139.323388 
L 136.332151 154.920726 
L 136.566028 158.070136 
L 136.679565 156.353626 
L 137.704581 76.954885 
L 138.387308 30.007865 
L 138.958632 30.189055 
L 139.748016 30.587988 
L 140.086608 30.410749 
L 140.874359 29.68116 
L 141.446675 29.612784 
L 141.900954 29.646823 
L 142.581911 29.924941 
L 144.391976 30.550709 
L 145.978429 30.593543 
L 151.060386 30.499079 
L 151.970083 30.427761 
L 154.903766 30.592783 
L 155.135149 54.681315 
L 155.919459 142.49489 
L 156.033087 93.970273 
L 156.942261 160.586459 
L 157.27941 172.997869 
L 157.51154 175.60086 
L 157.617988 175.6226 
L 157.851454 173.885985 
L 158.301303 140.948002 
L 159.767986 30.435746 
L 160.680174 29.989217 
L 161.020572 29.941357 
L 162.263534 30.593576 
L 162.942439 30.464743 
L 163.511476 30.391919 
L 167.126522 30.546642 
L 169.382774 30.306201 
L 170.73787 30.488615 
L 172.774804 30.591311 
L 176.492385 30.588732 
L 176.715546 45.395986 
L 177.392919 102.548116 
L 177.509121 92.467616 
L 178.085767 143.005314 
L 178.42293 156.733969 
L 178.655035 158.641039 
L 179.109232 126.201932 
L 180.363511 30.553718 
L 181.489667 30.593494 
L 183.518931 30.506651 
L 184.877447 30.00846 
L 185.327848 30.207125 
L 186.794584 30.313045 
L 187.695262 30.562017 
L 189.504854 30.587377 
L 190.753017 30.440093 
L 191.43534 30.256423 
L 192.104636 30.318203 
L 193.686579 30.556346 
L 195.491949 30.592336 
L 197.748921 30.553833 
L 197.863267 35.599109 
L 198.652915 133.941753 
L 198.7593 83.675701 
L 199.677526 157.517303 
L 200.017893 172.168251 
L 200.243779 175.978581 
L 200.350563 176.11964 
L 200.805771 142.836688 
L 202.272255 30.377272 
L 202.717886 30.593857 
L 203.177199 30.442623 
L 204.31868 29.988473 
L 204.77303 30.087698 
L 206.132185 30.423694 
L 206.923147 30.581789 
L 208.281422 30.548361 
L 209.298401 30.550742 
L 213.590187 30.57344 
L 215.614193 30.577606 
L 218.436217 30.500584 
L 219.345749 103.039793 
L 219.452247 94.58213 
L 220.024835 140.397313 
L 220.361844 153.446579 
L 220.593644 156.61076 
L 220.700416 156.867626 
L 221.048908 134.087408 
L 222.407987 30.51176 
L 223.312951 30.593758 
L 224.441061 30.500799 
L 224.895067 30.414089 
L 226.361999 30.498369 
L 226.822947 30.463668 
L 227.722133 30.497145 
L 233.259565 30.559223 
L 235.528173 30.583178 
L 236.878408 30.555735 
L 239.027843 30.495211 
L 239.134799 30.457303 
L 239.251527 35.766661 
L 240.043972 131.842946 
L 240.151571 82.040598 
L 240.95143 146.840706 
L 241.288334 163.087097 
L 241.627177 170.970527 
L 241.74359 172.392398 
L 242.081262 151.864304 
L 243.786528 29.726673 
L 244.241308 29.711959 
L 244.574018 29.928495 
L 245.146068 30.35588 
L 245.707891 30.51247 
L 246.613039 30.589708 
L 250.68141 30.304548 
L 251.702999 30.162885 
L 253.174216 30.355731 
L 254.533968 30.593659 
L 255.100515 30.493045 
L 255.884433 30.296464 
L 257.128678 30.502204 
L 257.690533 30.586219 
L 258.261185 30.349399 
L 259.045413 30.075712 
L 259.161956 30.081796 
L 259.384219 44.519742 
L 260.062129 100.076405 
L 260.17765 88.058226 
L 260.745783 139.614789 
L 261.083677 156.697293 
L 261.314817 160.791149 
L 261.421503 160.4295 
L 262.327068 90.525003 
L 263.1219 30.581062 
L 269.455457 30.464395 
L 269.910501 30.375272 
L 270.587835 30.495922 
L 271.49277 30.174788 
L 272.281938 30.315839 
L 274.310591 30.472694 
L 274.881266 30.508437 
L 276.228135 30.567472 
L 277.021322 30.457568 
L 278.149375 30.49288 
L 279.848233 30.567059 
L 280.53076 30.451186 
L 280.63698 31.396088 
L 281.652881 67.413394 
L 281.769933 93.703191 
L 281.885445 94.6338 
L 282.104131 98.286753 
L 282.220257 98.603729 
L 282.442366 97.364666 
L 282.790017 93.184236 
L 283.357037 84.99763 
L 284.142697 29.36454 
L 284.479791 29.527231 
L 285.26927 30.004989 
L 285.839823 30.007931 
L 286.852373 30.046037 
L 288.211509 30.346919 
L 288.434587 30.564182 
L 289.112021 30.544327 
L 289.344385 30.288165 
L 289.901665 30.265714 
L 290.588661 30.348969 
L 290.810426 30.548014 
L 291.038188 30.335545 
L 291.261183 30.351879 
L 291.484503 30.554181 
L 291.599758 30.547584 
L 291.823164 30.353152 
L 292.055525 30.57063 
L 293.405163 30.593312 
L 299.397878 30.545518 
L 299.514078 30.353069 
L 299.736584 30.554462 
L 300.302208 30.546047 
L 300.525848 30.305937 
L 301.538365 30.143163 
L 302.219822 30.251612 
L 302.558763 30.335777 
L 302.782037 30.558562 
L 303.459045 30.551122 
L 303.686421 30.287338 
L 304.480217 30.211952 
L 304.587236 30.208712 
L 304.818997 48.953153 
L 305.38948 103.759571 
L 305.38948 103.759571 
" clip-path="url(#p292485236a)" style="fill: none; stroke-dasharray: 5.55,2.4; stroke-dashoffset: 0; stroke: #000000; stroke-width: 1.5"/>
   </g>
   <g id="line2d_13">
    <path d="M 31.529775 33.782097 
L 31.636444 29.117023 
L 31.752002 29.061592 
L 31.858671 27.933318 
L 32.196457 34.151239 
L 32.303127 34.689933 
L 32.525354 38.760121 
L 33.085368 48.173291 
L 33.192037 47.717736 
L 33.307595 49.681899 
L 33.414265 48.688708 
L 33.520934 48.743809 
L 33.743162 48.034984 
L 33.85872 47.282548 
L 33.974278 47.624479 
L 34.080948 45.224434 
L 34.196506 45.180343 
L 34.525403 39.250574 
L 34.640961 38.804823 
L 34.969858 32.366547 
L 35.085416 31.942651 
L 35.192086 29.07738 
L 35.307644 29.358903 
L 35.414313 27.606597 
L 35.529872 28.700666 
L 35.636541 27.440219 
L 35.752099 28.72548 
L 35.858768 27.588213 
L 36.187665 28.090735 
L 36.303224 27.917927 
L 36.418782 29.24389 
L 36.525451 28.03451 
L 36.64101 29.277896 
L 36.747679 27.977045 
L 36.863237 29.294941 
L 36.969906 27.945287 
L 37.085465 29.305455 
L 37.192134 28.00062 
L 37.307692 29.401787 
L 37.414362 28.1278 
L 37.52992 29.532125 
L 37.636589 28.26604 
L 37.752148 29.677457 
L 37.858817 28.432253 
L 37.974375 29.878271 
L 38.081045 28.66661 
L 38.303272 28.932494 
L 38.418831 30.379801 
L 38.5255 29.148682 
L 38.641058 30.571919 
L 38.747727 29.330815 
L 38.969955 29.4861 
L 39.085513 30.883795 
L 39.192183 29.64188 
L 39.307741 31.030219 
L 39.41441 29.790189 
L 39.529969 31.194943 
L 39.636638 29.955674 
L 39.858865 30.118811 
L 39.974424 31.524028 
L 40.081093 30.280709 
L 40.525548 30.650215 
L 40.641107 32.067682 
L 40.747776 30.835522 
L 41.192231 31.207127 
L 41.307789 32.609914 
L 41.414459 31.36061 
L 41.858914 31.569425 
L 41.974472 32.93285 
L 42.081142 31.660318 
L 42.187811 31.703764 
L 42.303369 31.748549 
L 42.418928 33.106535 
L 42.525597 31.82329 
L 42.641155 33.188831 
L 42.747824 31.921854 
L 42.863383 33.301827 
L 42.970052 32.053002 
L 43.08561 33.463328 
L 43.19228 32.24107 
L 43.414507 32.422822 
L 43.530066 33.836008 
L 43.636735 32.590159 
L 43.752293 33.983126 
L 43.858962 32.719339 
L 43.974521 34.078267 
L 44.08119 32.788493 
L 44.196748 34.129136 
L 44.410087 32.832368 
L 44.525645 32.827739 
L 44.641204 34.124292 
L 44.747873 32.843048 
L 45.07677 41.742091 
L 47.192377 145.347522 
L 47.530163 153.645586 
L 47.636832 154.120128 
L 47.75239 153.89128 
L 47.974618 147.41439 
L 48.303515 134.019958 
L 48.525742 131.568052 
L 48.641301 131.868256 
L 48.74797 131.199778 
L 48.863528 131.316419 
L 48.970198 130.626317 
L 49.085756 131.053511 
L 49.192425 130.872684 
L 49.530211 132.96464 
L 49.63688 133.22968 
L 49.974666 136.561471 
L 50.196894 134.5558 
L 50.525791 118.409019 
L 50.748018 99.673827 
L 51.414701 40.754967 
L 51.859157 26.321782 
L 52.196942 30.182856 
L 52.303612 29.767044 
L 52.41917 32.03933 
L 52.525839 31.736844 
L 52.641398 34.205481 
L 52.748067 33.976067 
L 52.863625 36.472245 
L 52.970295 36.229688 
L 53.530308 41.869304 
L 53.636977 41.048806 
L 53.859205 41.702381 
L 54.081433 41.797985 
L 54.196991 42.946296 
L 54.30366 41.351308 
L 54.419219 42.255475 
L 54.525888 40.449671 
L 54.641446 41.131631 
L 54.748115 39.133065 
L 54.863674 39.631752 
L 54.970343 37.505691 
L 55.085901 37.904112 
L 55.29924 34.849401 
L 55.414798 33.880446 
L 55.530357 34.239851 
L 55.637026 32.060838 
L 55.752584 32.464697 
L 55.859254 30.32966 
L 55.974812 30.795696 
L 56.18815 28.262701 
L 56.303709 27.839433 
L 56.419267 28.890436 
L 56.525936 27.441889 
L 56.641495 28.680976 
L 56.748164 27.372207 
L 56.863722 28.726009 
L 56.970392 27.523441 
L 57.192619 27.860181 
L 57.308178 29.299917 
L 57.414847 27.988204 
L 57.530405 29.396265 
L 57.637074 28.14463 
L 57.752633 29.614735 
L 57.859302 28.378871 
L 57.97486 29.84605 
L 58.08153 28.615129 
L 58.197088 30.074026 
L 58.303757 28.822225 
L 58.525985 28.976551 
L 58.641543 30.391506 
L 58.748213 29.120131 
L 58.863771 30.518273 
L 58.97044 29.225556 
L 59.085998 30.593857 
L 59.192668 29.26758 
L 59.308226 30.587393 
L 59.414895 29.294213 
L 59.530454 30.597296 
L 59.743792 29.277565 
L 59.859351 29.291039 
L 59.974909 30.590369 
L 60.081578 29.267663 
L 60.188247 29.279004 
L 60.526033 29.260273 
L 60.641592 30.585591 
L 60.748261 29.2733 
L 60.863819 30.599726 
L 60.970489 29.272027 
L 61.077158 29.283633 
L 61.637171 29.397885 
L 61.75273 30.739388 
L 61.859399 29.437876 
L 61.974957 30.776106 
L 62.081627 29.478545 
L 62.197185 30.822379 
L 62.303854 29.542457 
L 62.419413 30.911651 
L 62.526082 29.660595 
L 62.64164 31.067217 
L 62.74831 29.836148 
L 62.970537 30.028745 
L 63.086096 31.465654 
L 63.192765 30.27565 
L 63.308323 31.728727 
L 63.414992 30.541649 
L 63.530551 31.99886 
L 63.63722 30.811798 
L 63.859448 31.08036 
L 63.975006 32.518939 
L 64.081675 31.302698 
L 64.197234 32.720612 
L 64.303903 31.480682 
L 64.419461 32.8756 
L 64.52613 31.619616 
L 64.641689 32.990315 
L 64.748358 31.728049 
L 64.863916 33.098021 
L 64.970586 31.827903 
L 65.086144 33.204321 
L 65.192813 31.945478 
L 65.308372 33.327005 
L 65.415041 32.0737 
L 65.637268 32.218239 
L 65.752827 33.607585 
L 65.859496 32.356793 
L 65.975054 33.74614 
L 66.081724 32.491248 
L 66.197282 33.88567 
L 66.303951 32.628579 
L 66.41951 34.002914 
L 66.632848 32.717025 
L 66.748407 32.713735 
L 66.863965 34.03082 
L 67.077303 32.676422 
L 67.192862 32.662106 
L 67.30842 33.960758 
L 67.521759 32.602706 
L 67.859545 32.495447 
L 67.975103 33.771748 
L 68.188441 32.395214 
L 68.304 32.378764 
L 68.419558 33.692543 
L 68.526227 32.375276 
L 68.641786 33.690179 
L 68.748455 32.372251 
L 68.864013 33.693419 
L 68.970683 32.376549 
L 69.086241 33.700049 
L 69.19291 32.382633 
L 69.308469 33.692642 
L 69.415138 32.368845 
L 69.530696 33.697255 
L 69.637366 32.397528 
L 69.752924 33.735907 
L 69.859593 32.43651 
L 69.975151 33.765135 
L 70.081821 32.462052 
L 70.18849 32.487776 
L 70.304048 32.487826 
L 70.419607 33.779568 
L 70.526276 32.42107 
L 70.641834 33.682558 
L 70.748504 32.321018 
L 70.864062 33.594178 
L 70.970731 32.235746 
L 71.08629 33.499747 
L 71.192959 32.133595 
L 71.308517 33.388339 
L 71.415186 32.013871 
L 71.530745 33.268449 
L 71.637414 31.889897 
L 71.752972 33.136325 
L 71.859642 31.790144 
L 71.966311 32.72873 
L 72.081869 35.32729 
L 72.641883 65.341508 
L 73.637463 113.136263 
L 73.85969 113.768057 
L 73.975249 115.000077 
L 74.081918 114.706255 
L 74.197476 115.533572 
L 74.419704 113.915514 
L 74.970828 98.044254 
L 75.086387 97.756449 
L 75.308614 95.922277 
L 75.753069 78.595377 
L 76.526422 28.100721 
L 76.633091 26.285775 
L 76.748649 26.676508 
L 77.308663 32.935511 
L 77.415332 32.567096 
L 77.53089 34.963488 
L 77.63756 34.680014 
L 77.859787 36.770862 
L 77.975346 39.068194 
L 78.082015 38.572169 
L 78.304242 39.905902 
L 78.419801 41.715011 
L 78.52647 40.72602 
L 78.642028 42.238529 
L 78.855367 40.883619 
L 79.077594 40.248229 
L 79.193153 39.706642 
L 79.308711 40.359159 
L 79.41538 38.335547 
L 79.530939 38.818644 
L 79.744277 35.868679 
L 79.859836 34.967918 
L 79.975394 35.387913 
L 80.188733 32.46192 
L 80.748746 29.152799 
L 80.864304 30.49989 
L 80.970974 29.099962 
L 81.077643 29.212463 
L 81.193201 29.131952 
L 81.30876 30.557553 
L 81.415429 29.234682 
L 81.530987 30.549155 
L 81.637657 29.249577 
L 81.753215 30.569208 
L 81.859884 29.282112 
L 81.975443 30.613729 
L 82.082112 29.248502 
L 82.19767 30.576251 
L 82.304339 29.26958 
L 82.419898 30.587575 
L 82.526567 29.272936 
L 82.642125 30.59189 
L 82.748795 29.282029 
L 82.864353 30.620589 
L 82.971022 29.332501 
L 83.086581 30.699067 
L 83.19325 29.42427 
L 83.308808 30.778023 
L 83.415477 29.493539 
L 83.531036 30.827718 
L 83.637705 29.524107 
L 83.753263 30.832199 
L 83.859933 29.492365 
L 83.975491 30.786108 
L 84.18883 29.415442 
L 84.304388 29.380444 
L 84.419946 30.650545 
L 84.526616 29.293436 
L 84.642174 30.558247 
L 84.748843 29.197303 
L 84.864402 30.47901 
L 85.07774 29.090539 
L 85.193298 29.045638 
L 85.308857 30.351399 
L 85.415526 29.005879 
L 85.531084 30.325643 
L 85.637754 29.0033 
L 85.753312 30.347746 
L 85.859981 29.040133 
L 85.97554 30.422735 
L 86.082209 29.147773 
L 86.304436 29.306513 
L 86.419995 30.616539 
L 86.526664 29.315209 
L 86.642222 30.654662 
L 86.748892 29.36492 
L 86.86445 30.726857 
L 86.971119 29.462393 
L 87.193347 29.652213 
L 87.308905 31.099421 
L 87.415575 29.918345 
L 87.531133 31.379622 
L 87.637802 30.195635 
L 87.75336 31.664583 
L 87.86003 30.495955 
L 87.975588 31.961597 
L 88.082257 30.760334 
L 88.197816 32.181422 
L 88.304485 30.968306 
L 88.420043 32.392469 
L 88.526713 31.147645 
L 88.642271 32.53028 
L 88.74894 31.286332 
L 88.971168 31.43469 
L 89.086726 32.821755 
L 89.193395 31.557886 
L 89.415623 31.651473 
L 89.531181 32.98071 
L 89.637851 31.657028 
L 89.753409 32.94467 
L 89.860078 31.577113 
L 89.975637 32.823044 
L 90.082306 31.43259 
L 90.197864 32.659394 
L 90.304533 31.245134 
L 90.420092 32.444198 
L 90.63343 30.871115 
L 90.971216 30.394548 
L 91.086775 31.57012 
L 91.193444 30.136153 
L 91.309002 31.337746 
L 91.415672 29.927652 
L 91.53123 31.17451 
L 91.637899 29.816094 
L 91.753458 31.109076 
L 91.860127 29.787825 
L 91.975685 31.118565 
L 92.082354 29.81745 
L 92.197913 31.174162 
L 92.304582 29.91441 
L 92.411251 29.970354 
L 92.52681 30.042202 
L 92.642368 31.430838 
L 92.749037 30.177566 
L 92.864596 31.550661 
L 92.971265 30.273732 
L 93.077934 30.317244 
L 93.193492 30.42414 
L 93.522389 39.867746 
L 95.531327 140.210651 
L 95.860224 143.146187 
L 95.975782 143.377726 
L 96.19801 138.17874 
L 96.526907 124.448229 
L 96.864693 119.530738 
L 96.971362 118.441512 
L 97.08692 119.028736 
L 97.193589 118.855779 
L 97.309148 119.365947 
L 97.531375 113.726983 
L 97.975831 79.24329 
L 98.304728 44.973214 
L 98.749183 26.984218 
L 98.864741 28.548522 
L 98.97141 28.180487 
L 99.086969 30.782834 
L 99.193638 29.997384 
L 99.309196 32.048158 
L 99.415866 31.545057 
L 99.531424 33.838339 
L 99.638093 33.445952 
L 99.753652 35.750228 
L 99.860321 35.311602 
L 100.411445 38.699481 
L 100.633673 39.273074 
L 100.855901 39.321381 
L 101.078128 38.864867 
L 101.415914 37.390794 
L 101.531472 38.04999 
L 101.638142 36.070072 
L 101.7537 36.608568 
L 101.860369 34.544221 
L 101.975928 35.019912 
L 102.082597 32.895719 
L 102.198155 33.314308 
L 102.304825 31.164128 
L 102.420383 31.593082 
L 102.527052 29.480132 
L 102.642611 29.999467 
L 102.74928 28.047901 
L 102.864838 28.951985 
L 102.971507 27.428895 
L 103.087066 28.633629 
L 103.193735 27.37672 
L 103.415963 27.737613 
L 103.531521 29.307687 
L 103.63819 28.057638 
L 103.753749 29.428337 
L 103.860418 28.114062 
L 103.975976 29.571421 
L 104.082645 28.328895 
L 104.198204 29.846678 
L 104.304873 28.637183 
L 104.420431 30.163712 
L 104.527101 28.955275 
L 104.749328 29.260785 
L 104.864887 30.600487 
L 105.078225 29.286278 
L 105.193783 29.311671 
L 105.309342 30.625301 
L 105.416011 29.326996 
L 105.52268 29.357531 
L 105.638239 29.40015 
L 105.753797 30.770369 
L 105.860466 29.518833 
L 105.976025 30.904559 
L 106.082694 29.641765 
L 106.189363 29.695692 
L 106.304922 29.76749 
L 106.42048 31.153613 
L 106.527149 29.889149 
L 106.642708 31.252441 
L 106.749377 29.964188 
L 106.856046 29.98882 
L 106.971604 30.004228 
L 107.087163 31.332125 
L 107.300501 30.004228 
L 107.41606 29.990374 
L 107.531618 31.301442 
L 107.638287 29.977612 
L 107.753846 31.281455 
L 107.860515 29.94759 
L 107.976073 31.250937 
L 108.082742 29.92051 
L 108.198301 31.218121 
L 108.30497 29.870402 
L 108.420528 31.139875 
L 108.527198 29.773045 
L 108.642756 31.046453 
L 108.749425 29.691807 
L 108.864984 30.967645 
L 109.078322 29.579456 
L 109.193881 29.550888 
L 109.309439 30.86432 
L 109.416108 29.550607 
L 109.531666 30.877033 
L 109.638336 29.564461 
L 109.745005 29.581357 
L 109.860563 29.59612 
L 109.976122 30.93883 
L 110.082791 29.639004 
L 110.198349 30.969067 
L 110.305019 29.679887 
L 110.420577 31.025127 
L 110.527246 29.744081 
L 110.642805 31.096826 
L 110.749474 29.810225 
L 110.865032 31.1593 
L 110.971701 29.875411 
L 111.078371 29.90993 
L 111.193929 29.931355 
L 111.309487 31.274181 
L 111.416157 29.997351 
L 111.531715 31.353419 
L 111.638384 30.068025 
L 111.745054 30.090723 
L 111.860612 30.107156 
L 111.97617 31.437186 
L 112.082839 30.134665 
L 112.198398 31.465456 
L 112.305067 30.155066 
L 112.420625 31.484765 
L 112.527295 30.201454 
L 112.633964 30.244619 
L 112.749522 30.281221 
L 112.865081 31.644993 
L 112.97175 30.36522 
L 113.087308 31.729306 
L 113.193978 30.460626 
L 113.309536 31.836466 
L 113.416205 30.569406 
L 113.531764 31.954455 
L 113.638433 30.679261 
L 113.745102 30.722327 
L 113.86066 30.780801 
L 113.976219 32.165981 
L 114.082888 30.913668 
L 114.198446 32.303048 
L 114.305116 31.057877 
L 114.527343 31.18962 
L 114.642902 32.570552 
L 114.749571 31.325942 
L 114.971798 34.84821 
L 115.638481 70.767242 
L 116.411833 113.238654 
L 117.078516 140.009378 
L 117.63853 155.753044 
L 117.754088 156.915196 
L 117.976316 151.252861 
L 118.305213 134.880145 
L 118.749668 126.308539 
L 118.865226 126.563172 
L 118.971895 126.506749 
L 119.194123 128.020713 
L 119.309681 127.823884 
L 119.531909 119.874594 
L 120.198592 65.172585 
L 120.527489 40.682755 
L 120.971944 27.906239 
L 121.416399 29.406349 
L 121.531958 31.331596 
L 121.638627 30.667954 
L 122.083082 33.426213 
L 122.19864 35.346963 
L 122.30531 34.53979 
L 122.420868 36.331888 
L 122.527537 35.370207 
L 122.643096 36.977478 
L 122.749765 35.833433 
L 122.971992 35.904421 
L 123.19422 35.610781 
L 123.309778 36.675241 
L 123.523117 34.704796 
L 123.638675 34.237437 
L 123.754234 35.020821 
L 123.967572 32.681117 
L 124.527586 29.938183 
L 124.643144 30.706423 
L 124.749813 28.990339 
L 124.865372 29.93767 
L 124.972041 28.301535 
L 125.087599 29.366838 
L 125.194269 27.850443 
L 125.309827 29.086539 
L 125.416496 27.735215 
L 125.532055 29.077413 
L 125.638724 27.789209 
L 125.754282 29.149327 
L 125.860951 27.872761 
L 125.97651 29.245576 
L 126.083179 27.947701 
L 126.305407 27.984418 
L 126.420965 29.350686 
L 126.527634 28.043752 
L 126.643193 29.416632 
L 126.749862 28.115021 
L 126.86542 29.50855 
L 126.97209 28.224975 
L 127.194317 28.338715 
L 127.309875 29.753521 
L 127.416545 28.502431 
L 127.532103 29.929305 
L 127.638772 28.685671 
L 127.754331 30.123936 
L 127.861 28.912705 
L 128.305455 29.40787 
L 128.421014 30.805119 
L 128.527683 29.577819 
L 128.643241 31.005024 
L 128.74991 29.792139 
L 128.865469 31.225114 
L 128.972138 30.028414 
L 129.194366 30.296563 
L 129.309924 31.728364 
L 129.416593 30.509726 
L 129.532152 31.914762 
L 129.638821 30.666069 
L 129.861048 30.778519 
L 129.976607 32.138257 
L 130.189945 30.832662 
L 130.305504 30.819899 
L 130.421062 32.11379 
L 130.634401 30.756846 
L 130.749959 30.718343 
L 130.865517 31.989469 
L 131.078856 30.57015 
L 131.194414 30.5191 
L 131.309973 31.776306 
L 131.416642 30.400747 
L 131.5322 31.649258 
L 131.745539 30.217606 
L 131.861097 30.182393 
L 131.976655 31.478251 
L 132.083325 30.141047 
L 132.198883 31.433086 
L 132.412221 30.078242 
L 132.52778 30.069893 
L 132.643338 31.387937 
L 132.750007 30.094526 
L 132.865566 31.4437 
L 132.972235 30.177715 
L 133.087793 31.567739 
L 133.194463 30.322303 
L 133.41669 30.500782 
L 133.532249 31.915935 
L 133.638918 30.694388 
L 133.861145 30.884754 
L 133.976704 32.307346 
L 134.083373 31.106629 
L 134.305601 31.374199 
L 134.421159 32.835443 
L 134.527828 31.649093 
L 134.643387 33.104435 
L 134.750056 31.913803 
L 134.865614 33.36035 
L 134.972284 32.132322 
L 135.087842 33.518759 
L 135.194511 32.245021 
L 135.31007 33.610346 
L 135.416739 32.325796 
L 135.532297 33.646452 
L 135.745636 32.255022 
L 136.083422 31.978129 
L 136.19898 33.167769 
L 136.305649 31.723635 
L 136.421208 32.913739 
L 136.527877 31.477507 
L 136.643435 32.695666 
L 136.750104 32.665114 
L 137.19456 52.176705 
L 138.634595 128.625139 
L 138.865711 135.247357 
L 139.301277 137.400766 
L 139.416836 137.578497 
L 139.523505 136.925749 
L 139.754622 131.601199 
L 140.083519 121.486221 
L 140.412416 116.654299 
L 140.634643 115.721921 
L 140.856871 109.93064 
L 141.194657 88.014309 
L 141.532443 58.320398 
L 141.86134 33.546351 
L 142.083567 27.555348 
L 142.199126 28.798304 
L 142.305795 28.524749 
L 142.421353 30.806326 
L 142.528022 30.010626 
L 142.643581 32.072245 
L 142.75025 31.567888 
L 142.865808 33.834834 
L 142.972478 33.419237 
L 143.088036 35.721892 
L 143.194705 35.286308 
L 143.416933 36.925651 
L 143.532491 38.943725 
L 143.63916 38.17317 
L 143.754719 39.976427 
L 143.861388 39.000148 
L 143.976946 40.556302 
L 144.083616 39.34274 
L 144.199174 40.631638 
L 144.305843 39.174461 
L 144.421402 40.235053 
L 144.63474 38.210118 
L 144.750299 37.71087 
L 144.865857 38.44879 
L 144.972526 36.537893 
L 145.088084 37.150337 
L 145.301423 34.451162 
L 145.639209 32.164593 
L 145.754767 32.736566 
L 145.861437 30.743439 
L 145.976995 31.35451 
L 146.083664 29.421113 
L 146.199223 30.372461 
L 146.305892 28.771522 
L 146.42145 29.917766 
L 146.528119 28.386228 
L 146.643678 29.59402 
L 146.750347 28.123799 
L 146.865905 29.391702 
L 146.972575 27.997446 
L 147.079244 28.044496 
L 147.194802 28.019714 
L 147.310361 29.434239 
L 147.41703 28.177297 
L 147.532588 29.651072 
L 147.639257 28.455133 
L 147.754816 29.975429 
L 147.861485 28.817282 
L 147.977043 30.36603 
L 148.083713 29.234318 
L 148.199271 30.693115 
L 148.30594 29.452837 
L 148.750396 29.783444 
L 148.865954 31.186297 
L 148.972623 29.940382 
L 149.088181 31.329249 
L 149.194851 30.061429 
L 149.310409 31.425878 
L 149.417078 30.149213 
L 149.532637 31.50257 
L 149.639306 30.211043 
L 149.754864 31.560382 
L 149.861534 30.251067 
L 149.977092 31.577063 
L 150.083761 30.260655 
L 150.19932 31.563821 
L 150.305989 30.227096 
L 150.421547 31.518325 
L 150.528216 30.165431 
L 150.643775 31.43016 
L 150.750444 30.074026 
L 150.866002 31.350559 
L 150.972672 29.992474 
L 151.08823 31.263402 
L 151.194899 29.913352 
L 151.310458 31.204614 
L 151.523796 29.875709 
L 151.639354 29.892042 
L 151.754913 31.238042 
L 151.861582 29.952731 
L 151.97714 31.315329 
L 152.08381 30.039788 
L 152.190479 30.076688 
L 152.306037 30.122828 
L 152.421596 31.47964 
L 152.528265 30.191254 
L 152.643823 31.55529 
L 152.750493 30.292397 
L 152.866051 31.677247 
L 152.97272 30.433183 
L 153.088279 31.826216 
L 153.194948 30.569803 
L 153.310506 31.94037 
L 153.417175 30.683477 
L 153.532734 32.068211 
L 153.639403 30.815749 
L 153.754961 32.207873 
L 153.861631 30.951741 
L 153.9683 31.003156 
L 154.083858 31.054917 
L 154.199417 32.416325 
L 154.306086 31.13108 
L 154.412755 31.172972 
L 154.750541 31.290564 
L 154.866099 32.640052 
L 154.972769 31.348426 
L 155.088327 32.695616 
L 155.194996 31.403858 
L 155.310555 32.739856 
L 155.417224 31.436078 
L 155.532782 32.759876 
L 155.746121 31.421365 
L 155.861679 31.406106 
L 155.977237 32.703651 
L 156.083907 31.370546 
L 156.199465 32.678654 
L 156.306134 31.362842 
L 156.421693 32.671777 
L 156.528362 31.351038 
L 156.64392 32.657344 
L 156.75059 31.318139 
L 156.866148 32.613783 
L 156.972817 31.280876 
L 157.088376 32.563724 
L 157.195045 31.192579 
L 157.310603 32.44762 
L 157.417272 31.706525 
L 157.755058 45.221078 
L 158.306183 76.12551 
L 158.972866 112.266144 
L 159.639549 139.217497 
L 160.199562 155.813043 
L 160.306231 156.656149 
L 160.42179 155.839288 
L 161.195142 127.844524 
L 161.417369 126.325732 
L 161.755155 128.957034 
L 161.977383 125.942976 
L 162.421838 98.562102 
L 162.972963 49.315418 
L 163.310749 33.205726 
L 163.524087 28.133057 
L 163.639646 28.31395 
L 163.755204 30.113587 
L 163.861873 29.26672 
L 164.084101 30.358839 
L 164.199659 32.410688 
L 164.306328 31.827903 
L 164.421887 33.95717 
L 164.528556 33.370583 
L 164.750784 34.737777 
L 164.866342 36.648724 
L 164.973011 35.781688 
L 165.08857 37.463204 
L 165.195239 36.36892 
L 165.417466 36.523395 
L 165.639694 36.225538 
L 165.861922 35.46649 
L 165.97748 36.24298 
L 166.190819 33.765863 
L 166.306377 33.065188 
L 166.421935 33.640848 
L 166.528605 31.62565 
L 166.644163 32.188068 
L 166.750832 30.172375 
L 166.86639 30.726708 
L 166.97306 28.833054 
L 167.088618 29.582233 
L 167.195287 27.786117 
L 167.310846 28.744674 
L 167.417515 27.167557 
L 167.533073 28.302626 
L 167.639743 26.889804 
L 167.755301 28.167212 
L 167.86197 26.859682 
L 167.977529 28.227785 
L 168.084198 27.003973 
L 168.528653 27.472837 
L 168.644211 28.88303 
L 168.750881 27.654672 
L 168.866439 29.075479 
L 168.973108 27.829134 
L 169.088667 29.223175 
L 169.195336 27.925168 
L 170.084246 28.609905 
L 170.199805 30.094195 
L 170.306474 28.902075 
L 170.422032 30.372329 
L 170.528702 29.148963 
L 170.64426 30.627268 
L 170.750929 29.322086 
L 170.866488 30.659473 
L 170.973157 29.375402 
L 171.195384 29.518469 
L 171.310943 30.916412 
L 171.417612 29.677887 
L 171.53317 31.101504 
L 171.63984 29.896241 
L 172.084295 30.48792 
L 172.199853 31.952091 
L 172.306522 30.76693 
L 172.422081 32.206104 
L 172.52875 30.989533 
L 172.644308 32.403909 
L 172.750978 31.175287 
L 172.866536 32.592043 
L 172.973205 31.358907 
L 173.088764 32.759628 
L 173.195433 31.511034 
L 173.310991 32.902894 
L 173.417661 31.640711 
L 173.52433 31.690175 
L 173.639888 31.743011 
L 173.755446 33.096434 
L 173.862116 31.786325 
L 173.977674 33.089655 
L 174.084343 31.750996 
L 174.199902 33.069172 
L 174.306571 31.751773 
L 174.422129 33.059336 
L 174.528799 31.722495 
L 174.644357 33.006516 
L 174.751026 31.657805 
L 174.866585 32.957267 
L 174.973254 31.635305 
L 175.088812 32.954688 
L 175.195481 31.655292 
L 175.31104 32.999738 
L 175.417709 31.706657 
L 175.533267 33.057914 
L 175.639937 31.761609 
L 175.746606 31.772768 
L 176.306619 31.845774 
L 176.422178 33.182813 
L 176.635516 31.859098 
L 176.751075 31.863793 
L 176.866633 33.201808 
L 176.973302 31.901023 
L 177.079972 31.920068 
L 177.19553 31.943048 
L 177.311088 33.289312 
L 177.417758 31.989321 
L 177.533316 33.327253 
L 177.639985 32.029295 
L 177.746654 32.056242 
L 177.862213 32.084132 
L 177.977771 33.425998 
L 178.19111 32.123676 
L 178.528896 32.217164 
L 178.751123 33.578902 
L 179.195578 53.480532 
L 180.200047 110.982421 
L 180.86673 138.92553 
L 181.195627 144.790386 
L 181.311185 145.595654 
L 181.533413 142.155633 
L 182.084537 121.042206 
L 182.306765 118.744097 
L 182.422323 118.99611 
L 182.528993 118.597285 
L 182.75122 119.575101 
L 182.857889 119.423635 
L 183.089006 114.096944 
L 183.524572 78.952683 
L 184.084586 33.981886 
L 184.306814 27.941683 
L 184.422372 28.815728 
L 184.529041 28.219751 
L 184.866827 31.657855 
L 184.973496 31.039675 
L 185.640179 36.161246 
L 185.755738 38.18947 
L 185.862407 37.438555 
L 185.977965 39.253286 
L 186.084634 38.285636 
L 186.200193 39.84265 
L 186.306862 38.615863 
L 186.42242 39.903108 
L 186.635759 38.209556 
L 186.751317 37.847655 
L 186.866876 38.70087 
L 186.973545 36.874187 
L 187.089103 37.559668 
L 187.195772 35.604333 
L 187.311331 36.184704 
L 187.524669 33.421221 
L 187.640228 32.605087 
L 187.755786 33.116917 
L 187.969125 30.356491 
L 188.306911 28.397899 
L 188.422469 29.221638 
L 188.635807 27.330248 
L 188.751366 27.164466 
L 188.866924 28.455282 
L 188.973593 27.210193 
L 189.089152 28.657898 
L 189.195821 27.541279 
L 189.418049 28.028873 
L 189.533607 29.411028 
L 189.640276 28.092885 
L 189.755835 29.48486 
L 189.862504 28.179859 
L 189.978062 29.604072 
L 190.084731 28.32086 
L 190.20029 29.739915 
L 190.306959 28.455596 
L 190.422517 29.874155 
L 190.529187 28.609013 
L 190.644745 30.027803 
L 190.751414 28.768348 
L 190.866973 30.173549 
L 190.973642 28.881988 
L 191.0892 30.274046 
L 191.195869 28.9951 
L 191.311428 30.377999 
L 191.418097 29.091002 
L 191.533655 30.462015 
L 191.640325 29.180804 
L 191.746994 29.215885 
L 191.862552 29.228846 
L 191.978111 30.570845 
L 192.08478 29.292064 
L 192.200338 30.64714 
L 192.307008 29.370359 
L 192.422566 30.732461 
L 192.529235 29.447498 
L 192.635904 29.478148 
L 192.751463 29.517643 
L 192.867021 30.878091 
L 192.97369 29.607147 
L 193.089249 30.969249 
L 193.195918 29.680119 
L 193.311476 31.016762 
L 193.418146 29.714241 
L 193.533704 31.031756 
L 193.640373 29.704355 
L 193.755932 31.014563 
L 193.862601 29.690931 
L 193.96927 29.706339 
L 194.307056 29.792569 
L 194.422614 31.169781 
L 194.529284 29.912856 
L 194.751511 30.058221 
L 194.86707 31.429499 
L 194.973739 30.15657 
L 195.080408 30.199289 
L 195.195967 30.248058 
L 195.311525 31.604242 
L 195.418194 30.310103 
L 195.533752 31.650515 
L 195.640422 30.36074 
L 195.75598 31.73858 
L 195.862649 30.49493 
L 196.191546 30.624392 
L 196.529332 30.640874 
L 196.644891 31.959315 
L 196.75156 30.645652 
L 196.867118 31.9693 
L 196.973787 30.66711 
L 197.089346 32.00005 
L 197.196015 30.70606 
L 197.311573 32.064293 
L 197.418243 30.802358 
L 197.533801 32.185142 
L 197.64047 30.927059 
L 197.756029 32.304155 
L 197.862698 31.036864 
L 198.084925 31.157994 
L 198.200484 32.547076 
L 198.307153 31.311179 
L 198.422711 32.722662 
L 198.529381 31.490171 
L 198.644939 32.904051 
L 198.751608 31.671841 
L 198.867167 33.084018 
L 198.973836 31.849278 
L 199.196064 31.969499 
L 199.311622 33.324509 
L 199.52496 32.027691 
L 199.640519 32.02989 
L 199.756077 33.331039 
L 199.862746 31.990627 
L 199.978305 33.280368 
L 200.084974 31.932219 
L 200.200532 33.219398 
L 200.307202 31.939361 
L 200.636098 41.538219 
L 202.529478 136.953572 
L 203.080602 153.841548 
L 203.311719 156.601072 
L 203.533947 149.495141 
L 203.862843 134.005344 
L 204.307299 125.843007 
L 204.529526 126.319384 
L 204.645085 127.785695 
L 204.751754 127.767047 
L 204.867312 127.213044 
L 205.196209 110.639878 
L 205.756223 63.362053 
L 206.08512 39.677248 
L 206.422905 29.563106 
L 206.529575 27.931814 
L 206.751802 28.969128 
L 206.867361 30.887415 
L 206.97403 30.079961 
L 207.089588 32.063632 
L 207.196258 31.417662 
L 207.311816 33.509584 
L 207.418485 32.937627 
L 207.534044 35.043486 
L 207.640713 34.389366 
L 207.86294 35.536883 
L 207.978499 37.311689 
L 208.085168 36.329888 
L 208.200726 37.9015 
L 208.307396 36.713678 
L 208.422954 38.054999 
L 208.529623 36.66919 
L 208.645182 37.831751 
L 208.751851 36.291865 
L 208.867409 37.287155 
L 209.080748 35.212625 
L 209.196306 34.728998 
L 209.311864 35.527774 
L 209.418534 33.707736 
L 209.534092 34.452584 
L 209.747431 32.040702 
L 209.862989 31.47063 
L 209.978547 32.239284 
L 210.191886 29.920494 
L 210.529672 28.665668 
L 210.64523 29.694485 
L 210.858569 28.021748 
L 210.974127 27.908669 
L 211.089685 29.225672 
L 211.196355 27.922093 
L 211.525251 28.063706 
L 211.747479 28.198127 
L 211.863037 28.266222 
L 211.978596 29.716109 
L 212.085265 28.49438 
L 212.307493 28.696235 
L 212.423051 30.109884 
L 212.52972 28.861985 
L 212.751948 29.076652 
L 212.867506 30.540558 
L 212.974176 29.335626 
L 213.089734 30.776817 
L 213.196403 29.590978 
L 213.418631 29.82598 
L 213.534189 31.237728 
L 213.640858 29.985977 
L 213.756417 31.339565 
L 213.863086 30.035721 
L 213.978644 31.341317 
L 214.085314 29.996276 
L 214.200872 31.26689 
L 214.307541 29.897415 
L 214.4231 31.15568 
L 214.636438 29.687294 
L 214.751996 29.612503 
L 214.867555 30.848863 
L 214.974224 29.446621 
L 215.089782 30.68842 
L 215.196452 29.307521 
L 215.31201 30.584996 
L 215.418679 29.254156 
L 215.534238 30.590997 
L 215.640907 29.319904 
L 215.756465 30.698653 
L 215.863134 29.449514 
L 215.978693 30.847094 
L 216.085362 29.59903 
L 216.20092 30.980391 
L 216.30759 29.705611 
L 216.414259 29.727714 
L 216.752045 29.827187 
L 216.867603 31.179023 
L 216.974273 29.877461 
L 217.080942 29.892141 
L 217.418728 29.908177 
L 217.534286 31.211177 
L 217.747625 29.868137 
L 217.863183 29.863888 
L 217.978741 31.193158 
L 218.085411 29.893332 
L 218.200969 31.213905 
L 218.414307 29.876734 
L 218.752093 29.924461 
L 218.974321 30.045789 
L 219.089879 31.44403 
L 219.196549 30.22612 
L 219.418776 30.500435 
L 219.534335 32.005902 
L 219.641004 30.862783 
L 219.756562 32.379211 
L 219.863231 31.273321 
L 220.085459 31.759741 
L 220.201017 33.326641 
L 220.307687 32.23692 
L 220.423245 33.80048 
L 220.529914 32.693616 
L 220.645473 34.211184 
L 220.752142 33.063122 
L 220.8677 34.542005 
L 220.97437 33.350579 
L 221.089928 34.781306 
L 221.196597 33.943862 
L 221.534383 46.251615 
L 222.085508 76.093504 
L 222.85886 117.366182 
L 223.312204 135.653998 
L 223.641101 140.160381 
L 223.74777 140.675286 
L 223.863329 140.668107 
L 223.978887 140.04448 
L 224.752239 118.262033 
L 224.867797 118.080619 
L 224.974467 117.312693 
L 225.196694 118.14092 
L 225.303363 117.40166 
L 225.53448 110.839105 
L 225.970046 72.403883 
L 226.307832 41.127416 
L 226.645618 29.117189 
L 226.752287 27.212243 
L 226.867846 29.427527 
L 226.974515 29.143673 
L 227.090073 31.186545 
L 227.196743 30.538293 
L 227.312301 32.73116 
L 227.41897 32.317017 
L 227.534529 34.663284 
L 227.641198 34.311004 
L 227.756756 36.641698 
L 227.863426 36.194938 
L 228.307881 38.885185 
L 228.530108 39.543785 
L 228.645667 41.008997 
L 228.859005 39.604524 
L 228.974564 39.359652 
L 229.090122 40.323929 
L 229.30346 38.061446 
L 229.970143 33.703206 
L 230.085702 32.844271 
L 230.20126 33.288634 
L 230.307929 31.173567 
L 230.423488 31.63757 
L 230.636826 29.051954 
L 230.752384 28.523228 
L 230.867943 29.454672 
L 230.974612 27.895179 
L 231.09017 29.197881 
L 231.19684 27.935781 
L 231.312398 29.269961 
L 231.419067 27.998735 
L 231.534626 29.271614 
L 231.641295 27.937038 
L 231.747964 27.996536 
L 232.08575 27.95152 
L 232.201309 29.302628 
L 232.307978 27.993891 
L 232.530205 28.127701 
L 232.645764 29.55403 
L 232.752433 28.316116 
L 232.867991 29.769243 
L 232.974661 28.563946 
L 233.090219 30.038763 
L 233.196888 28.840857 
L 233.312447 30.313624 
L 233.419116 29.125256 
L 233.534674 30.595841 
L 233.641343 29.370773 
L 233.756902 30.798655 
L 233.863571 29.602997 
L 234.085799 29.909698 
L 234.201357 31.396369 
L 234.308026 30.253497 
L 234.423585 31.748962 
L 234.530254 30.580483 
L 234.645812 32.063169 
L 234.752482 30.883547 
L 234.86804 32.332557 
L 234.974709 31.14424 
L 235.419164 31.559539 
L 235.534723 32.973948 
L 235.641392 31.742531 
L 235.75695 33.141682 
L 235.86362 31.877631 
L 235.979178 33.227797 
L 236.085847 31.929244 
L 236.201406 33.265142 
L 236.308075 31.961266 
L 236.423633 33.290403 
L 236.636972 31.975169 
L 236.75253 31.979931 
L 236.868088 33.303695 
L 237.081427 31.990379 
L 237.196985 31.965663 
L 237.312544 33.259472 
L 237.419213 31.921358 
L 237.534771 33.221647 
L 237.64144 31.894791 
L 237.756999 33.206404 
L 237.863668 31.88178 
L 237.979226 33.178151 
L 238.085896 31.829754 
L 238.201454 33.10584 
L 238.414793 31.693878 
L 238.530351 31.623782 
L 238.645909 32.866755 
L 238.752579 31.467076 
L 238.868137 32.696757 
L 238.974806 31.299905 
L 239.090365 32.536182 
L 239.197034 31.155266 
L 239.312592 32.429104 
L 239.419261 31.07016 
L 239.53482 32.337054 
L 239.641489 30.971745 
L 239.757047 32.245219 
L 239.863717 30.888837 
L 239.979275 32.159501 
L 240.085944 30.79725 
L 240.201503 32.064822 
L 240.308172 30.707167 
L 240.42373 31.995024 
L 240.530399 30.656927 
L 240.645958 31.956538 
L 240.752627 30.634377 
L 240.868185 31.956505 
L 240.974855 30.644164 
L 241.090413 31.960869 
L 241.303752 30.652 
L 241.41931 30.660762 
L 241.534868 31.974062 
L 241.641538 30.648578 
L 241.757096 31.951992 
L 241.863765 30.683973 
L 241.970434 32.053845 
L 242.192662 40.318754 
L 244.2016 141.530625 
L 244.752724 156.351225 
L 244.868282 157.150446 
L 245.081621 150.213062 
L 245.419407 134.13283 
L 245.863862 126.548004 
L 246.08609 127.086715 
L 246.308317 128.983031 
L 246.423876 129.007341 
L 246.646103 121.194821 
L 247.312786 65.625131 
L 247.641683 40.371987 
L 248.086138 27.685173 
L 248.201697 29.595426 
L 248.308366 28.609591 
L 248.530593 29.575505 
L 248.646152 31.484782 
L 248.752821 30.778652 
L 248.868379 32.778937 
L 248.975049 32.080544 
L 249.090607 34.05456 
L 249.197276 33.302637 
L 249.312835 35.181925 
L 249.419504 34.334 
L 249.535062 36.08209 
L 249.641732 35.11211 
L 249.75729 36.731995 
L 249.863959 35.620138 
L 249.979518 37.07305 
L 250.192856 35.796699 
L 250.308414 35.712783 
L 250.423973 36.865573 
L 250.530642 35.326596 
L 250.6462 36.329194 
L 250.75287 34.670806 
L 250.868428 35.565962 
L 250.975097 33.818781 
L 251.090656 34.643644 
L 251.197325 32.860341 
L 251.312883 33.663811 
L 251.419552 31.861297 
L 251.535111 32.651707 
L 251.748449 30.367336 
L 251.864008 29.86121 
L 251.979566 30.671855 
L 252.086235 28.982569 
L 252.201794 29.936745 
L 252.308463 28.281481 
L 252.424021 29.33179 
L 252.530691 27.83082 
L 252.646249 29.040232 
L 252.752918 27.646885 
L 252.868476 28.955655 
L 252.975146 27.630899 
L 253.197373 27.759666 
L 253.312932 29.189549 
L 253.419601 27.953008 
L 254.308511 28.721298 
L 254.42407 30.163233 
L 254.530739 28.967872 
L 254.752967 29.293188 
L 254.868525 30.737768 
L 254.975194 29.533497 
L 255.090753 30.981267 
L 255.197422 29.80963 
L 255.31298 31.290299 
L 255.419649 30.117174 
L 255.641877 30.384513 
L 255.757435 31.831407 
L 255.864105 30.638196 
L 255.979663 32.080544 
L 256.086332 30.879067 
L 256.30856 31.105307 
L 256.424118 32.51598 
L 256.530788 31.274263 
L 256.753015 31.394848 
L 256.868574 32.765083 
L 256.975243 31.493709 
L 257.090801 32.849644 
L 257.19747 31.546181 
L 257.30414 31.557208 
L 257.419698 31.571938 
L 257.535256 32.879104 
L 257.748595 31.493246 
L 257.864153 31.424175 
L 257.979712 32.67014 
L 258.19305 31.185652 
L 258.753064 30.632344 
L 258.868622 31.834995 
L 259.081961 30.362459 
L 259.419746 30.196528 
L 259.535305 31.459934 
L 259.641974 30.103552 
L 259.757532 31.375241 
L 259.970871 29.972784 
L 260.086429 29.94182 
L 260.201988 31.225874 
L 260.308657 29.873179 
L 260.424215 31.145827 
L 260.637554 29.752248 
L 260.753112 29.717051 
L 260.868671 31.00018 
L 260.97534 29.633251 
L 261.090898 30.882505 
L 261.197567 29.493688 
L 261.313126 30.753506 
L 261.526464 29.392066 
L 261.642023 29.389801 
L 261.757581 30.722096 
L 261.86425 29.444654 
L 261.979809 30.816956 
L 262.086478 29.570859 
L 262.308705 32.252543 
L 262.753161 54.367654 
L 263.757629 113.195787 
L 264.424312 140.060049 
L 264.753209 144.241711 
L 264.868768 144.909532 
L 265.082106 140.930928 
L 265.64212 121.343476 
L 265.864347 119.026835 
L 265.979906 119.268937 
L 266.086575 118.876493 
L 266.202133 120.005213 
L 266.308802 119.100642 
L 266.53103 112.83224 
L 266.868816 89.087647 
L 267.313271 44.889381 
L 267.535499 32.412142 
L 267.748837 26.383314 
L 267.864396 26.885522 
L 267.979954 29.649882 
L 268.086623 29.295651 
L 268.202182 31.12903 
L 268.308851 30.44416 
L 268.531079 32.071848 
L 268.646637 34.31555 
L 268.753306 33.846869 
L 268.868865 36.034115 
L 268.975534 35.475466 
L 269.091092 37.522835 
L 269.197761 36.791047 
L 269.31332 38.643785 
L 269.419989 37.711795 
L 269.535547 39.3477 
L 269.642217 38.216549 
L 269.757775 39.625933 
L 269.864444 38.294746 
L 269.980003 39.502555 
L 270.086672 38.007089 
L 270.20223 39.039362 
L 270.3089 37.379354 
L 270.424458 38.252556 
L 270.531127 36.465665 
L 270.646685 37.216696 
L 270.753355 35.344732 
L 270.868913 36.031668 
L 270.975582 34.11887 
L 271.091141 34.76889 
L 271.19781 32.817671 
L 271.313368 33.447126 
L 271.420038 31.503099 
L 271.535596 32.155269 
L 271.642265 30.244735 
L 271.757824 30.957825 
L 271.864493 29.13091 
L 271.980051 30.08945 
L 272.08672 28.467086 
L 272.202279 29.538704 
L 272.308948 28.008191 
L 272.424506 29.205883 
L 272.531176 27.794102 
L 272.646734 29.088787 
L 272.753403 27.764527 
L 272.868962 29.150368 
L 272.975631 27.918241 
L 273.091189 29.341214 
L 273.197858 28.075113 
L 273.313417 29.517064 
L 273.420086 28.29059 
L 273.535644 29.754033 
L 273.642314 28.536189 
L 273.757872 30.008708 
L 273.864541 28.821465 
L 273.9801 30.322634 
L 274.086769 29.146566 
L 274.202327 30.628492 
L 274.308997 29.406631 
L 274.424555 30.820775 
L 274.531224 29.585258 
L 274.753452 29.74418 
L 274.86901 31.159168 
L 274.975679 29.94711 
L 275.420135 30.344919 
L 275.535693 31.748334 
L 275.642362 30.504717 
L 275.757921 31.90385 
L 275.86459 30.661952 
L 275.980148 32.057565 
L 276.086817 30.80826 
L 276.202376 32.206617 
L 276.309045 30.952105 
L 276.424603 32.326093 
L 276.531273 31.049379 
L 276.646831 32.406439 
L 276.7535 31.118962 
L 276.86017 31.141892 
L 276.975728 31.166244 
L 277.091286 32.500192 
L 277.197955 31.192182 
L 277.313514 32.512805 
L 277.420183 31.197671 
L 277.535741 32.526345 
L 277.642411 31.20878 
L 277.757969 32.510375 
L 277.864638 31.170426 
L 277.980197 32.462714 
L 278.193535 31.094495 
L 278.531321 31.028665 
L 278.64688 32.334492 
L 278.753549 31.006396 
L 278.869107 32.306371 
L 278.975776 30.960619 
L 279.091335 32.253799 
L 279.304673 30.888655 
L 279.420232 30.861725 
L 279.53579 32.159203 
L 279.642459 30.82266 
L 279.758018 32.132041 
L 279.864687 30.815749 
L 279.980245 32.144324 
L 280.086914 30.851376 
L 280.202473 32.208733 
L 280.309142 30.927935 
L 280.4247 32.288268 
L 280.53137 31.010413 
L 280.638039 31.052223 
L 280.753597 31.096231 
L 280.869156 32.453059 
L 280.975825 31.175551 
L 281.091383 32.528593 
L 281.198053 31.223758 
L 281.304722 31.238835 
L 281.42028 31.251896 
L 281.535838 32.571031 
L 281.642508 31.253846 
L 281.758066 32.568981 
L 281.864735 31.24482 
L 281.980294 32.552813 
L 282.193632 31.20602 
L 282.309191 31.189173 
L 282.424749 32.492752 
L 282.531418 31.167616 
L 282.646977 32.485032 
L 282.753646 31.171054 
L 282.869204 32.482585 
L 282.975873 31.157763 
L 283.091432 32.46025 
L 283.30477 31.117078 
L 283.420329 31.100595 
L 283.535887 32.406042 
L 283.642556 31.086444 
L 283.864784 34.466587 
L 284.638136 76.290185 
L 285.527046 122.851712 
L 286.202618 147.074856 
L 286.531515 154.07364 
L 286.638184 154.854685 
L 286.753743 154.260204 
L 286.869301 152.253648 
L 287.313756 137.104645 
L 287.420426 135.463707 
L 287.535984 135.455925 
L 287.864881 133.803778 
L 287.980439 133.93319 
L 288.087108 133.442992 
L 288.202667 133.995912 
L 288.309336 133.711496 
L 288.424894 134.435613 
L 288.531564 134.296852 
L 288.647122 135.141908 
L 288.860461 132.786086 
L 289.091577 126.28584 
L 289.536033 95.772869 
L 290.087157 46.646101 
L 290.531612 27.963902 
L 290.638281 26.845862 
L 290.75384 27.098206 
L 290.869398 29.600501 
L 290.976067 29.260025 
L 291.198295 30.926266 
L 291.313853 33.264679 
L 291.420523 32.937925 
L 291.536081 35.324629 
L 291.64275 34.979623 
L 291.758309 37.313441 
L 291.864978 36.875889 
L 291.980536 39.058622 
L 292.087206 38.44717 
L 292.202764 40.413119 
L 292.309433 39.581048 
L 292.531661 40.242658 
L 292.647219 41.717623 
L 292.753888 40.438214 
L 292.869447 41.682939 
L 292.976116 40.198022 
L 293.091674 41.235072 
L 293.198344 39.579974 
L 293.313902 40.450349 
L 293.52724 38.118845 
L 293.642799 37.483191 
L 293.758357 38.118829 
L 293.865026 36.141721 
L 293.980585 36.709214 
L 294.193923 33.972016 
L 294.531709 31.78153 
L 294.647268 32.420871 
L 294.753937 30.509181 
L 294.869495 31.208813 
L 294.976164 29.358985 
L 295.091723 30.416734 
L 295.198392 28.934725 
L 295.31395 30.227029 
L 295.42062 28.826838 
L 295.536178 30.201851 
L 295.642847 28.878484 
L 295.758406 30.276543 
L 295.865075 28.958184 
L 296.087303 29.021188 
L 296.202861 30.370742 
L 296.30953 29.021502 
L 296.425089 30.319691 
L 296.638427 28.951026 
L 296.860655 28.992901 
L 296.976213 29.054681 
L 297.091771 30.490318 
L 297.198441 29.279996 
L 297.313999 30.637204 
L 297.420668 29.361912 
L 297.536227 30.751308 
L 297.642896 29.50564 
L 297.758454 30.908626 
L 297.865123 29.677176 
L 298.087351 29.860747 
L 298.202909 31.280777 
L 298.309579 30.052121 
L 298.425137 31.459967 
L 298.531806 30.222417 
L 298.754034 30.357086 
L 298.869592 31.726413 
L 298.976262 30.439052 
L 299.082931 30.456906 
L 299.198489 30.462544 
L 299.314047 31.766519 
L 299.420717 30.42166 
L 299.536275 31.699284 
L 299.642944 30.33543 
L 299.758503 31.582271 
L 299.971841 30.116315 
L 300.0874 30.041342 
L 300.202958 31.281058 
L 300.309627 29.884057 
L 300.425186 31.125773 
L 300.531855 29.752678 
L 300.647413 31.029194 
L 300.754082 29.677986 
L 300.869641 30.970274 
L 300.97631 29.652907 
L 301.082979 29.664248 
L 301.198538 29.689377 
L 301.314096 31.045957 
L 301.420765 29.785775 
L 301.536324 31.191091 
L 301.642993 29.973727 
L 301.86522 30.226864 
L 301.980779 31.64901 
L 302.087448 30.410981 
L 302.203006 31.809635 
L 302.309676 30.56324 
L 302.425234 31.950603 
L 302.531903 30.689511 
L 302.647462 32.054655 
L 302.754131 30.779098 
L 302.869689 32.155748 
L 302.976359 30.89173 
L 303.091917 32.267041 
L 303.198586 31.01005 
L 303.305255 31.06568 
L 303.420814 31.117888 
L 303.536372 32.48399 
L 303.643041 31.199489 
L 303.7586 32.556681 
L 303.865269 31.281207 
L 303.980827 32.630893 
L 304.087497 31.34464 
L 304.203055 32.694558 
L 304.309724 31.409644 
L 304.425283 32.775813 
L 304.531952 31.506753 
L 304.64751 32.868111 
L 304.754179 31.592983 
L 304.869738 32.951184 
L 304.976407 31.648746 
L 305.091965 32.96679 
L 305.305304 31.630825 
L 305.420862 31.611367 
L 305.536421 32.898298 
L 305.64309 31.551339 
L 305.758648 32.854009 
L 305.971987 31.547504 
L 306.087545 31.536527 
L 306.203103 32.819308 
L 306.416442 31.38878 
L 306.532 31.314188 
L 306.647559 32.552747 
L 306.754228 31.175435 
L 306.869786 32.426757 
L 306.976456 31.055017 
L 307.092014 32.329003 
L 307.198683 30.977895 
L 307.314242 32.269141 
L 307.420911 30.940219 
L 307.536469 32.252675 
L 307.643138 30.936664 
L 307.758697 32.258461 
L 307.865366 30.941921 
L 307.980924 32.259635 
L 308.087594 30.95103 
L 308.194263 30.980953 
L 308.309821 31.035691 
L 308.42538 32.417152 
L 308.532049 31.158622 
L 308.647607 32.550647 
L 308.754276 31.305096 
L 308.869835 32.693831 
L 308.976504 31.437434 
L 309.092062 32.808083 
L 309.198732 31.520805 
L 309.305401 31.53122 
L 309.420959 31.527335 
L 309.536518 32.841709 
L 309.643187 31.503215 
L 309.758745 32.795486 
L 309.865415 31.440377 
L 309.980973 32.701567 
L 310.087642 31.366297 
L 310.416539 38.82028 
L 311.421008 94.624691 
L 312.203249 132.493644 
L 312.976601 156.911266 
L 313.198829 161.294506 
L 313.314387 161.598467 
L 313.758842 146.285558 
L 313.972181 140.386543 
L 314.309967 137.403787 
L 314.532194 136.717768 
L 314.647753 137.103112 
L 314.754422 136.796337 
L 314.97665 137.62818 
L 315.305546 139.641232 
L 315.536663 141.734857 
L 315.643332 141.571339 
L 315.750002 140.191883 
L 315.972229 131.97659 
L 316.310015 109.379787 
L 317.305595 30.773378 
L 317.536712 26.959122 
L 317.643381 25.642235 
L 317.972278 29.387586 
L 318.087836 29.997136 
L 318.203395 32.06836 
L 318.310064 31.526574 
L 318.425622 33.746173 
L 318.532291 33.271375 
L 318.754519 34.960297 
L 318.870077 37.066999 
L 318.976747 36.403538 
L 319.198974 37.530407 
L 319.314533 39.281605 
L 319.421202 38.269733 
L 319.643429 38.557984 
L 319.750099 38.513017 
L 319.972326 38.085649 
L 320.087885 37.730228 
L 320.203443 38.620508 
L 320.310112 36.85129 
L 320.425671 37.628044 
L 320.53234 35.778663 
L 320.647898 36.509855 
L 320.861237 34.074481 
L 320.976795 33.468965 
L 321.092353 34.185113 
L 321.199023 32.330789 
L 321.314581 33.087672 
L 321.42125 31.280579 
L 321.536809 32.087835 
L 321.643478 30.326684 
L 321.759036 31.193075 
L 321.865706 29.486199 
L 321.981264 30.479473 
L 322.194602 28.835633 
L 322.310161 28.661667 
L 322.425719 29.905863 
L 322.532388 28.519889 
L 322.647947 29.840595 
L 322.754616 28.517392 
L 322.870174 29.879065 
L 322.976844 28.583008 
L 323.092402 29.958269 
L 323.199071 28.668627 
L 323.31463 30.049278 
L 323.421299 28.786996 
L 323.643526 29.028776 
L 323.759085 30.509114 
L 323.865754 29.304149 
L 323.981312 30.719831 
L 324.087982 29.513592 
L 324.20354 30.970869 
L 324.310209 29.779608 
L 324.425768 31.223725 
L 324.532437 30.028976 
L 324.647995 31.4662 
L 324.754665 30.240189 
L 324.976892 30.418122 
L 325.092451 31.825274 
L 325.19912 30.586401 
L 325.314678 31.975054 
L 325.421347 30.722278 
L 325.865803 30.933374 
L 325.981361 32.287905 
L 326.08803 31.009487 
L 326.203589 32.384121 
L 326.310258 31.10815 
L 326.425816 32.446562 
L 326.532485 31.112779 
L 326.648044 32.409415 
L 326.861382 31.069069 
L 326.976941 31.060059 
L 327.092499 32.365902 
L 327.199168 31.04394 
L 327.314727 32.351453 
L 327.421396 31.034335 
L 327.536954 32.367506 
L 327.750293 31.067531 
L 327.865851 31.057033 
L 327.981409 32.362695 
L 328.088079 31.046436 
L 328.203637 32.387807 
L 328.310306 31.095123 
L 328.416976 31.106729 
L 328.532534 31.111176 
L 328.648092 32.433204 
L 328.754762 31.135742 
L 328.87032 32.499944 
L 328.976989 31.236521 
L 329.092548 32.601318 
L 329.199217 31.321347 
L 329.314775 32.674339 
L 329.421444 31.382184 
L 329.537003 32.711536 
L 329.643672 31.401427 
L 329.750341 31.414008 
L 330.088127 31.377125 
L 330.203686 32.669512 
L 330.310355 31.333927 
L 330.425913 32.62924 
L 330.532582 31.284563 
L 330.648141 32.561608 
L 330.75481 31.212004 
L 330.870368 32.505779 
L 330.977038 31.170806 
L 331.092596 32.484585 
L 331.199265 31.17942 
L 331.314824 32.512028 
L 331.421493 31.220105 
L 331.537051 32.579314 
L 331.643721 31.297904 
L 331.759279 32.657063 
L 331.865948 31.387673 
L 331.972617 31.444725 
L 332.532631 31.722048 
L 332.648189 33.070644 
L 332.754859 32.329367 
L 333.092645 44.42151 
L 333.643769 74.694064 
L 334.42601 117.194539 
L 334.870465 136.428959 
L 334.870465 136.428959 
" clip-path="url(#p292485236a)" style="fill: none; stroke: #0000ff; stroke-width: 1.5; stroke-linecap: square"/>
   </g>
   <g id="patch_3">
    <path d="M 16.36274 183.64351 
L 16.36274 18.118365 
" style="fill: none; stroke: #000000; stroke-width: 0.8; stroke-linejoin: miter; stroke-linecap: square"/>
   </g>
   <g id="patch_4">
    <path d="M 350.0375 183.64351 
L 350.0375 18.118365 
" style="fill: none; stroke: #000000; stroke-width: 0.8; stroke-linejoin: miter; stroke-linecap: square"/>
   </g>
   <g id="patch_5">
    <path d="M 16.36274 183.64351 
L 350.0375 183.64351 
" style="fill: none; stroke: #000000; stroke-width: 0.8; stroke-linejoin: miter; stroke-linecap: square"/>
   </g>
   <g id="patch_6">
    <path d="M 16.36274 18.118365 
L 350.0375 18.118365 
" style="fill: none; stroke: #000000; stroke-width: 0.8; stroke-linejoin: miter; stroke-linecap: square"/>
   </g>
   <g id="text_13">
    <!-- Time vs Velocity -->
    <g transform="translate(134.490432 12.118365) scale(0.12 -0.12)">
     <defs>
      <path id="DejaVuSans-54" d="M -19 4666 
L 3928 4666 
L 3928 4134 
L 2272 4134 
L 2272 0 
L 1638 0 
L 1638 4134 
L -19 4134 
L -19 4666 
z
" transform="scale(0.015625)"/>
      <path id="DejaVuSans-69" d="M 603 3500 
L 1178 3500 
L 1178 0 
L 603 0 
L 603 3500 
z
M 603 4863 
L 1178 4863 
L 1178 4134 
L 603 4134 
L 603 4863 
z
" transform="scale(0.015625)"/>
      <path id="DejaVuSans-6d" d="M 3328 2828 
Q 3544 3216 3844 3400 
Q 4144 3584 4550 3584 
Q 5097 3584 5394 3201 
Q 5691 2819 5691 2113 
L 5691 0 
L 5113 0 
L 5113 2094 
Q 5113 2597 4934 2840 
Q 4756 3084 4391 3084 
Q 3944 3084 3684 2787 
Q 3425 2491 3425 1978 
L 3425 0 
L 2847 0 
L 2847 2094 
Q 2847 2600 2669 2842 
Q 2491 3084 2119 3084 
Q 1678 3084 1418 2786 
Q 1159 2488 1159 1978 
L 1159 0 
L 581 0 
L 581 3500 
L 1159 3500 
L 1159 2956 
Q 1356 3278 1631 3431 
Q 1906 3584 2284 3584 
Q 2666 3584 2933 3390 
Q 3200 3197 3328 2828 
z
" transform="scale(0.015625)"/>
      <path id="DejaVuSans-20" transform="scale(0.015625)"/>
      <path id="DejaVuSans-76" d="M 191 3500 
L 800 3500 
L 1894 563 
L 2988 3500 
L 3597 3500 
L 2284 0 
L 1503 0 
L 191 3500 
z
" transform="scale(0.015625)"/>
      <path id="DejaVuSans-73" d="M 2834 3397 
L 2834 2853 
Q 2591 2978 2328 3040 
Q 2066 3103 1784 3103 
Q 1356 3103 1142 2972 
Q 928 2841 928 2578 
Q 928 2378 1081 2264 
Q 1234 2150 1697 2047 
L 1894 2003 
Q 2506 1872 2764 1633 
Q 3022 1394 3022 966 
Q 3022 478 2636 193 
Q 2250 -91 1575 -91 
Q 1294 -91 989 -36 
Q 684 19 347 128 
L 347 722 
Q 666 556 975 473 
Q 1284 391 1588 391 
Q 1994 391 2212 530 
Q 2431 669 2431 922 
Q 2431 1156 2273 1281 
Q 2116 1406 1581 1522 
L 1381 1569 
Q 847 1681 609 1914 
Q 372 2147 372 2553 
Q 372 3047 722 3315 
Q 1072 3584 1716 3584 
Q 2034 3584 2315 3537 
Q 2597 3491 2834 3397 
z
" transform="scale(0.015625)"/>
      <path id="DejaVuSans-56" d="M 1831 0 
L 50 4666 
L 709 4666 
L 2188 738 
L 3669 4666 
L 4325 4666 
L 2547 0 
L 1831 0 
z
" transform="scale(0.015625)"/>
      <path id="DejaVuSans-6c" d="M 603 4863 
L 1178 4863 
L 1178 0 
L 603 0 
L 603 4863 
z
" transform="scale(0.015625)"/>
      <path id="DejaVuSans-6f" d="M 1959 3097 
Q 1497 3097 1228 2736 
Q 959 2375 959 1747 
Q 959 1119 1226 758 
Q 1494 397 1959 397 
Q 2419 397 2687 759 
Q 2956 1122 2956 1747 
Q 2956 2369 2687 2733 
Q 2419 3097 1959 3097 
z
M 1959 3584 
Q 2709 3584 3137 3096 
Q 3566 2609 3566 1747 
Q 3566 888 3137 398 
Q 2709 -91 1959 -91 
Q 1206 -91 779 398 
Q 353 888 353 1747 
Q 353 2609 779 3096 
Q 1206 3584 1959 3584 
z
" transform="scale(0.015625)"/>
      <path id="DejaVuSans-63" d="M 3122 3366 
L 3122 2828 
Q 2878 2963 2633 3030 
Q 2388 3097 2138 3097 
Q 1578 3097 1268 2742 
Q 959 2388 959 1747 
Q 959 1106 1268 751 
Q 1578 397 2138 397 
Q 2388 397 2633 464 
Q 2878 531 3122 666 
L 3122 134 
Q 2881 22 2623 -34 
Q 2366 -91 2075 -91 
Q 1284 -91 818 406 
Q 353 903 353 1747 
Q 353 2603 823 3093 
Q 1294 3584 2113 3584 
Q 2378 3584 2631 3529 
Q 2884 3475 3122 3366 
z
" transform="scale(0.015625)"/>
      <path id="DejaVuSans-74" d="M 1172 4494 
L 1172 3500 
L 2356 3500 
L 2356 3053 
L 1172 3053 
L 1172 1153 
Q 1172 725 1289 603 
Q 1406 481 1766 481 
L 2356 481 
L 2356 0 
L 1766 0 
Q 1100 0 847 248 
Q 594 497 594 1153 
L 594 3053 
L 172 3053 
L 172 3500 
L 594 3500 
L 594 4494 
L 1172 4494 
z
" transform="scale(0.015625)"/>
      <path id="DejaVuSans-79" d="M 2059 -325 
Q 1816 -950 1584 -1140 
Q 1353 -1331 966 -1331 
L 506 -1331 
L 506 -850 
L 844 -850 
Q 1081 -850 1212 -737 
Q 1344 -625 1503 -206 
L 1606 56 
L 191 3500 
L 800 3500 
L 1894 763 
L 2988 3500 
L 3597 3500 
L 2059 -325 
z
" transform="scale(0.015625)"/>
     </defs>
     <use xlink:href="#DejaVuSans-54"/>
     <use xlink:href="#DejaVuSans-69" x="57.958984"/>
     <use xlink:href="#DejaVuSans-6d" x="85.742188"/>
     <use xlink:href="#DejaVuSans-65" x="183.154297"/>
     <use xlink:href="#DejaVuSans-20" x="244.677734"/>
     <use xlink:href="#DejaVuSans-76" x="276.464844"/>
     <use xlink:href="#DejaVuSans-73" x="335.644531"/>
     <use xlink:href="#DejaVuSans-20" x="387.744141"/>
     <use xlink:href="#DejaVuSans-56" x="419.53125"/>
     <use xlink:href="#DejaVuSans-65" x="480.189453"/>
     <use xlink:href="#DejaVuSans-6c" x="541.712891"/>
     <use xlink:href="#DejaVuSans-6f" x="569.496094"/>
     <use xlink:href="#DejaVuSans-63" x="630.677734"/>
     <use xlink:href="#DejaVuSans-69" x="685.658203"/>
     <use xlink:href="#DejaVuSans-74" x="713.441406"/>
     <use xlink:href="#DejaVuSans-79" x="752.650391"/>
    </g>
   </g>
  </g>
  <g id="axes_2">
   <g id="patch_7">
    <path d="M 383.325 183.64351 
L 716.99976 183.64351 
L 716.99976 18.118365 
L 383.325 18.118365 
z
" style="fill: #ffffff"/>
   </g>
   <g id="matplotlib.axis_3">
    <g id="xtick_7">
     <g id="line2d_14">
      <g>
       <use xlink:href="#mdc534ae2e2" x="398.492035" y="183.64351" style="stroke: #000000; stroke-width: 0.8"/>
      </g>
     </g>
     <g id="text_14">
      <!-- 0.0 -->
      <g transform="translate(390.540472 198.241947) scale(0.1 -0.1)">
       <use xlink:href="#DejaVuSans-30"/>
       <use xlink:href="#DejaVuSans-2e" x="63.623047"/>
       <use xlink:href="#DejaVuSans-30" x="95.410156"/>
      </g>
     </g>
    </g>
    <g id="xtick_8">
     <g id="line2d_15">
      <g>
       <use xlink:href="#mdc534ae2e2" x="454.016396" y="183.64351" style="stroke: #000000; stroke-width: 0.8"/>
      </g>
     </g>
     <g id="text_15">
      <!-- 0.5 -->
      <g transform="translate(446.064833 198.241947) scale(0.1 -0.1)">
       <use xlink:href="#DejaVuSans-30"/>
       <use xlink:href="#DejaVuSans-2e" x="63.623047"/>
       <use xlink:href="#DejaVuSans-35" x="95.410156"/>
      </g>
     </g>
    </g>
    <g id="xtick_9">
     <g id="line2d_16">
      <g>
       <use xlink:href="#mdc534ae2e2" x="509.540757" y="183.64351" style="stroke: #000000; stroke-width: 0.8"/>
      </g>
     </g>
     <g id="text_16">
      <!-- 1.0 -->
      <g transform="translate(501.589195 198.241947) scale(0.1 -0.1)">
       <use xlink:href="#DejaVuSans-31"/>
       <use xlink:href="#DejaVuSans-2e" x="63.623047"/>
       <use xlink:href="#DejaVuSans-30" x="95.410156"/>
      </g>
     </g>
    </g>
    <g id="xtick_10">
     <g id="line2d_17">
      <g>
       <use xlink:href="#mdc534ae2e2" x="565.065119" y="183.64351" style="stroke: #000000; stroke-width: 0.8"/>
      </g>
     </g>
     <g id="text_17">
      <!-- 1.5 -->
      <g transform="translate(557.113556 198.241947) scale(0.1 -0.1)">
       <use xlink:href="#DejaVuSans-31"/>
       <use xlink:href="#DejaVuSans-2e" x="63.623047"/>
       <use xlink:href="#DejaVuSans-35" x="95.410156"/>
      </g>
     </g>
    </g>
    <g id="xtick_11">
     <g id="line2d_18">
      <g>
       <use xlink:href="#mdc534ae2e2" x="620.58948" y="183.64351" style="stroke: #000000; stroke-width: 0.8"/>
      </g>
     </g>
     <g id="text_18">
      <!-- 2.0 -->
      <g transform="translate(612.637917 198.241947) scale(0.1 -0.1)">
       <use xlink:href="#DejaVuSans-32"/>
       <use xlink:href="#DejaVuSans-2e" x="63.623047"/>
       <use xlink:href="#DejaVuSans-30" x="95.410156"/>
      </g>
     </g>
    </g>
    <g id="xtick_12">
     <g id="line2d_19">
      <g>
       <use xlink:href="#mdc534ae2e2" x="676.113841" y="183.64351" style="stroke: #000000; stroke-width: 0.8"/>
      </g>
     </g>
     <g id="text_19">
      <!-- 2.5 -->
      <g transform="translate(668.162279 198.241947) scale(0.1 -0.1)">
       <use xlink:href="#DejaVuSans-32"/>
       <use xlink:href="#DejaVuSans-2e" x="63.623047"/>
       <use xlink:href="#DejaVuSans-35" x="95.410156"/>
      </g>
     </g>
    </g>
    <g id="text_20">
     <!-- 1e8 -->
     <g transform="translate(698.121635 210.920073) scale(0.1 -0.1)">
      <use xlink:href="#DejaVuSans-31"/>
      <use xlink:href="#DejaVuSans-65" x="63.623047"/>
      <use xlink:href="#DejaVuSans-38" x="125.146484"/>
     </g>
    </g>
   </g>
   <g id="matplotlib.axis_4">
    <g id="ytick_6">
     <g id="line2d_20">
      <g>
       <use xlink:href="#m34cb8b55ef" x="383.325" y="176.898043" style="stroke: #000000; stroke-width: 0.8"/>
      </g>
     </g>
     <g id="text_21">
      <!-- 0 -->
      <g transform="translate(369.9625 180.697261) scale(0.1 -0.1)">
       <use xlink:href="#DejaVuSans-30"/>
      </g>
     </g>
    </g>
    <g id="ytick_7">
     <g id="line2d_21">
      <g>
       <use xlink:href="#m34cb8b55ef" x="383.325" y="139.744708" style="stroke: #000000; stroke-width: 0.8"/>
      </g>
     </g>
     <g id="text_22">
      <!-- 50 -->
      <g transform="translate(363.6 143.543927) scale(0.1 -0.1)">
       <use xlink:href="#DejaVuSans-35"/>
       <use xlink:href="#DejaVuSans-30" x="63.623047"/>
      </g>
     </g>
    </g>
    <g id="ytick_8">
     <g id="line2d_22">
      <g>
       <use xlink:href="#m34cb8b55ef" x="383.325" y="102.591374" style="stroke: #000000; stroke-width: 0.8"/>
      </g>
     </g>
     <g id="text_23">
      <!-- 100 -->
      <g transform="translate(357.2375 106.390593) scale(0.1 -0.1)">
       <use xlink:href="#DejaVuSans-31"/>
       <use xlink:href="#DejaVuSans-30" x="63.623047"/>
       <use xlink:href="#DejaVuSans-30" x="127.246094"/>
      </g>
     </g>
    </g>
    <g id="ytick_9">
     <g id="line2d_23">
      <g>
       <use xlink:href="#m34cb8b55ef" x="383.325" y="65.438039" style="stroke: #000000; stroke-width: 0.8"/>
      </g>
     </g>
     <g id="text_24">
      <!-- 150 -->
      <g transform="translate(357.2375 69.237258) scale(0.1 -0.1)">
       <use xlink:href="#DejaVuSans-31"/>
       <use xlink:href="#DejaVuSans-35" x="63.623047"/>
       <use xlink:href="#DejaVuSans-30" x="127.246094"/>
      </g>
     </g>
    </g>
    <g id="ytick_10">
     <g id="line2d_24">
      <g>
       <use xlink:href="#m34cb8b55ef" x="383.325" y="28.284705" style="stroke: #000000; stroke-width: 0.8"/>
      </g>
     </g>
     <g id="text_25">
      <!-- 200 -->
      <g transform="translate(357.2375 32.083924) scale(0.1 -0.1)">
       <use xlink:href="#DejaVuSans-32"/>
       <use xlink:href="#DejaVuSans-30" x="63.623047"/>
       <use xlink:href="#DejaVuSans-30" x="127.246094"/>
      </g>
     </g>
    </g>
   </g>
   <g id="line2d_25">
    <path d="M 398.492035 175.876382 
L 399.284475 174.59677 
L 400.990172 171.209836 
L 403.938698 165.429766 
L 412.740919 148.181062 
L 413.756292 146.402194 
L 414.206733 146.009413 
L 415.684999 145.051941 
L 416.250903 144.164592 
L 416.821244 142.839009 
L 417.95662 139.396897 
L 420.545408 130.595779 
L 429.806869 99.131549 
L 439.508962 67.444181 
L 440.302305 65.68662 
L 444.147233 58.731776 
L 446.860355 53.191691 
L 450.473462 45.778712 
L 459.855787 27.013931 
L 460.537135 26.091447 
L 461.098619 25.698042 
L 461.549018 25.653766 
L 462.003027 25.858116 
L 462.448946 26.299267 
L 463.014873 27.198315 
L 464.03028 29.323837 
L 477.922085 60.332676 
L 480.862598 66.642563 
L 482.109945 68.42915 
L 482.898785 69.17631 
L 483.914233 70.060595 
L 484.595695 70.962954 
L 485.722966 72.956805 
L 489.002008 79.361877 
L 494.87428 91.08964 
L 498.028957 97.282142 
L 503.000416 106.524482 
L 503.455292 106.852669 
L 503.918983 106.933817 
L 504.372955 106.785852 
L 504.823363 106.40446 
L 505.384855 105.602089 
L 506.289232 103.774162 
L 512.1606 90.792645 
L 519.489779 74.60028 
L 523.107297 67.148694 
L 524.80949 65.154537 
L 526.395222 63.815484 
L 527.067763 62.843383 
L 528.20844 60.690218 
L 540.523569 36.496603 
L 544.800008 28.269319 
L 545.370402 27.664285 
L 545.824329 27.478144 
L 546.274762 27.533407 
L 546.728705 27.846627 
L 547.290151 28.569886 
L 547.96269 29.838551 
L 552.15054 39.107099 
L 565.476391 68.675702 
L 566.380853 70.023134 
L 567.057709 70.878778 
L 567.962094 71.641506 
L 568.755666 72.375853 
L 569.544332 73.419986 
L 570.787174 75.564999 
L 573.735762 81.228411 
L 586.037316 105.32853 
L 586.830682 106.456356 
L 587.392077 106.907631 
L 587.846081 107.021462 
L 588.300959 106.921005 
L 588.759417 106.583158 
L 589.329685 105.828991 
L 590.118583 104.306887 
L 592.510998 98.919143 
L 594.42637 94.76462 
L 603.462151 75.202151 
L 606.964194 67.635572 
L 608.100468 66.055455 
L 609.000381 65.161997 
L 610.244139 64.008178 
L 610.925518 63.053867 
L 612.061763 60.920895 
L 617.39123 50.081573 
L 620.318492 44.128287 
L 627.536635 30.1194 
L 628.107031 29.569504 
L 628.560968 29.400529 
L 629.011351 29.476258 
L 629.465344 29.811883 
L 630.026796 30.559224 
L 630.82035 32.109487 
L 634.901417 41.254062 
L 643.483247 60.532241 
L 645.85347 65.768199 
L 651.508118 77.938921 
L 653.196897 83.47438 
L 659.53291 105.346223 
L 663.934875 120.306795 
L 672.405938 148.576522 
L 672.405938 148.576522 
" clip-path="url(#pecf7498871)" style="fill: none; stroke-dasharray: 5.55,2.4; stroke-dashoffset: 0; stroke: #000000; stroke-width: 1.5"/>
   </g>
   <g id="line2d_26">
    <path d="M 398.492035 175.659024 
L 399.193862 174.32734 
L 401.974522 168.758779 
L 405.34152 162.575635 
L 413.079395 147.781554 
L 413.878946 146.777072 
L 414.625193 146.186942 
L 415.700145 145.416176 
L 416.588534 144.434583 
L 417.787861 142.741684 
L 418.365314 141.520841 
L 419.049374 139.472374 
L 439.908766 69.93347 
L 440.743853 67.904924 
L 441.712197 66.191821 
L 442.645007 64.97301 
L 443.613352 63.70481 
L 444.47509 62.063104 
L 449.423421 51.968867 
L 454.353984 42.033241 
L 461.549941 27.723278 
L 462.313956 26.767301 
L 462.980249 26.260739 
L 463.406676 26.186099 
L 463.841987 26.354031 
L 464.437208 26.852995 
L 465.139036 27.701281 
L 465.778677 28.884059 
L 471.819727 41.841114 
L 479.0068 57.383834 
L 483.279955 66.317619 
L 484.08839 67.360017 
L 485.038967 68.184799 
L 486.478159 69.528478 
L 487.259942 70.495952 
L 487.988421 71.783064 
L 493.771839 83.217205 
L 504.841175 104.962569 
L 505.631842 105.984603 
L 506.386974 106.603255 
L 506.848936 106.736015 
L 507.257596 106.619956 
L 507.781745 106.219215 
L 508.376967 105.491206 
L 509.016607 104.315385 
L 516.852205 87.40924 
L 525.673916 68.437416 
L 526.473466 67.342114 
L 527.273017 66.618991 
L 528.827699 65.22294 
L 529.716089 64.185033 
L 530.417917 62.980418 
L 531.874876 59.826217 
L 533.50063 56.58021 
L 536.494503 50.711994 
L 546.71987 30.096123 
L 547.528304 28.973824 
L 548.2479 28.342564 
L 548.692095 28.202105 
L 549.109638 28.310817 
L 549.642672 28.702782 
L 550.522178 29.666492 
L 551.117399 30.666518 
L 552.387796 33.404751 
L 557.220637 43.782038 
L 567.401584 65.939884 
L 568.60091 68.305245 
L 569.400461 69.403405 
L 570.200012 70.125156 
L 571.781345 71.532204 
L 572.669735 72.555644 
L 573.380447 73.749726 
L 575.086155 77.305155 
L 577.022845 81.021781 
L 579.936764 86.689626 
L 588.856197 104.224389 
L 589.753471 105.601323 
L 590.490834 106.345598 
L 591.05052 106.645966 
L 591.450295 106.617671 
L 591.921142 106.343268 
L 592.649621 105.61684 
L 593.235959 104.744471 
L 594.053277 103.040433 
L 597.61572 95.399469 
L 602.661774 84.406286 
L 609.902151 68.748142 
L 610.737237 67.475316 
L 611.492369 66.711602 
L 613.437942 64.971378 
L 614.246377 64.00176 
L 614.965973 62.743595 
L 630.726007 31.212185 
L 631.454487 30.436873 
L 632.023056 30.100964 
L 632.422832 30.110171 
L 632.884795 30.363151 
L 633.595506 31.049039 
L 634.208495 31.919094 
L 634.981394 33.504358 
L 638.908077 41.978727 
L 647.818627 61.450439 
L 652.002943 70.284323 
L 652.802493 71.344419 
L 653.557625 71.989761 
L 654.730299 72.911236 
L 655.787483 74.084149 
L 656.53373 75.169077 
L 657.075648 76.387003 
L 657.795244 78.637541 
L 661.997328 92.709469 
L 666.17276 106.632326 
L 678.361467 147.008994 
L 679.125483 148.624568 
L 679.809543 149.582331 
L 680.466951 150.137094 
L 683.469709 152.126087 
L 684.322563 153.134956 
L 689.297546 159.750171 
L 700.891032 175.3448 
L 701.717235 176.047641 
L 701.832725 176.11964 
L 701.832725 176.11964 
" clip-path="url(#pecf7498871)" style="fill: none; stroke: #0000ff; stroke-width: 1.5; stroke-linecap: square"/>
   </g>
   <g id="patch_8">
    <path d="M 383.325 183.64351 
L 383.325 18.118365 
" style="fill: none; stroke: #000000; stroke-width: 0.8; stroke-linejoin: miter; stroke-linecap: square"/>
   </g>
   <g id="patch_9">
    <path d="M 716.99976 183.64351 
L 716.99976 18.118365 
" style="fill: none; stroke: #000000; stroke-width: 0.8; stroke-linejoin: miter; stroke-linecap: square"/>
   </g>
   <g id="patch_10">
    <path d="M 383.325 183.64351 
L 716.99976 183.64351 
" style="fill: none; stroke: #000000; stroke-width: 0.8; stroke-linejoin: miter; stroke-linecap: square"/>
   </g>
   <g id="patch_11">
    <path d="M 383.325 18.118365 
L 716.99976 18.118365 
" style="fill: none; stroke: #000000; stroke-width: 0.8; stroke-linejoin: miter; stroke-linecap: square"/>
   </g>
   <g id="text_26">
    <!-- Time vs X - Coords -->
    <g transform="translate(494.074567 12.118365) scale(0.12 -0.12)">
     <defs>
      <path id="DejaVuSans-58" d="M 403 4666 
L 1081 4666 
L 2241 2931 
L 3406 4666 
L 4084 4666 
L 2584 2425 
L 4184 0 
L 3506 0 
L 2194 1984 
L 872 0 
L 191 0 
L 1856 2491 
L 403 4666 
z
" transform="scale(0.015625)"/>
      <path id="DejaVuSans-2d" d="M 313 2009 
L 1997 2009 
L 1997 1497 
L 313 1497 
L 313 2009 
z
" transform="scale(0.015625)"/>
      <path id="DejaVuSans-43" d="M 4122 4306 
L 4122 3641 
Q 3803 3938 3442 4084 
Q 3081 4231 2675 4231 
Q 1875 4231 1450 3742 
Q 1025 3253 1025 2328 
Q 1025 1406 1450 917 
Q 1875 428 2675 428 
Q 3081 428 3442 575 
Q 3803 722 4122 1019 
L 4122 359 
Q 3791 134 3420 21 
Q 3050 -91 2638 -91 
Q 1578 -91 968 557 
Q 359 1206 359 2328 
Q 359 3453 968 4101 
Q 1578 4750 2638 4750 
Q 3056 4750 3426 4639 
Q 3797 4528 4122 4306 
z
" transform="scale(0.015625)"/>
      <path id="DejaVuSans-72" d="M 2631 2963 
Q 2534 3019 2420 3045 
Q 2306 3072 2169 3072 
Q 1681 3072 1420 2755 
Q 1159 2438 1159 1844 
L 1159 0 
L 581 0 
L 581 3500 
L 1159 3500 
L 1159 2956 
Q 1341 3275 1631 3429 
Q 1922 3584 2338 3584 
Q 2397 3584 2469 3576 
Q 2541 3569 2628 3553 
L 2631 2963 
z
" transform="scale(0.015625)"/>
      <path id="DejaVuSans-64" d="M 2906 2969 
L 2906 4863 
L 3481 4863 
L 3481 0 
L 2906 0 
L 2906 525 
Q 2725 213 2448 61 
Q 2172 -91 1784 -91 
Q 1150 -91 751 415 
Q 353 922 353 1747 
Q 353 2572 751 3078 
Q 1150 3584 1784 3584 
Q 2172 3584 2448 3432 
Q 2725 3281 2906 2969 
z
M 947 1747 
Q 947 1113 1208 752 
Q 1469 391 1925 391 
Q 2381 391 2643 752 
Q 2906 1113 2906 1747 
Q 2906 2381 2643 2742 
Q 2381 3103 1925 3103 
Q 1469 3103 1208 2742 
Q 947 2381 947 1747 
z
" transform="scale(0.015625)"/>
     </defs>
     <use xlink:href="#DejaVuSans-54"/>
     <use xlink:href="#DejaVuSans-69" x="57.958984"/>
     <use xlink:href="#DejaVuSans-6d" x="85.742188"/>
     <use xlink:href="#DejaVuSans-65" x="183.154297"/>
     <use xlink:href="#DejaVuSans-20" x="244.677734"/>
     <use xlink:href="#DejaVuSans-76" x="276.464844"/>
     <use xlink:href="#DejaVuSans-73" x="335.644531"/>
     <use xlink:href="#DejaVuSans-20" x="387.744141"/>
     <use xlink:href="#DejaVuSans-58" x="419.53125"/>
     <use xlink:href="#DejaVuSans-20" x="488.037109"/>
     <use xlink:href="#DejaVuSans-2d" x="519.824219"/>
     <use xlink:href="#DejaVuSans-20" x="555.908203"/>
     <use xlink:href="#DejaVuSans-43" x="587.695312"/>
     <use xlink:href="#DejaVuSans-6f" x="657.519531"/>
     <use xlink:href="#DejaVuSans-6f" x="718.701172"/>
     <use xlink:href="#DejaVuSans-72" x="779.882812"/>
     <use xlink:href="#DejaVuSans-64" x="819.246094"/>
     <use xlink:href="#DejaVuSans-73" x="882.722656"/>
    </g>
   </g>
  </g>
  <g id="legend_1">
   <g id="patch_12">
    <path d="M 326.434375 24.678125 
L 397.565625 24.678125 
Q 399.565625 24.678125 399.565625 22.678125 
L 399.565625 9 
Q 399.565625 7 397.565625 7 
L 326.434375 7 
Q 324.434375 7 324.434375 9 
L 324.434375 22.678125 
Q 324.434375 24.678125 326.434375 24.678125 
z
" style="fill: #4c4c4c; opacity: 0.5; stroke: #4c4c4c; stroke-linejoin: miter"/>
   </g>
   <g id="patch_13">
    <path d="M 324.434375 22.678125 
L 395.565625 22.678125 
Q 397.565625 22.678125 397.565625 20.678125 
L 397.565625 7 
Q 397.565625 5 395.565625 5 
L 324.434375 5 
Q 322.434375 5 322.434375 7 
L 322.434375 20.678125 
Q 322.434375 22.678125 324.434375 22.678125 
z
" style="fill: #ffffff; stroke: #cccccc; stroke-linejoin: miter"/>
   </g>
   <g id="line2d_27">
    <path d="M 326.434375 13.098437 
L 336.434375 13.098437 
L 346.434375 13.098437 
" style="fill: none; stroke-dasharray: 5.55,2.4; stroke-dashoffset: 0; stroke: #000000; stroke-width: 1.5"/>
   </g>
   <g id="text_27">
    <!-- Original -->
    <g transform="translate(354.434375 16.598437) scale(0.1 -0.1)">
     <defs>
      <path id="DejaVuSans-4f" d="M 2522 4238 
Q 1834 4238 1429 3725 
Q 1025 3213 1025 2328 
Q 1025 1447 1429 934 
Q 1834 422 2522 422 
Q 3209 422 3611 934 
Q 4013 1447 4013 2328 
Q 4013 3213 3611 3725 
Q 3209 4238 2522 4238 
z
M 2522 4750 
Q 3503 4750 4090 4092 
Q 4678 3434 4678 2328 
Q 4678 1225 4090 567 
Q 3503 -91 2522 -91 
Q 1538 -91 948 565 
Q 359 1222 359 2328 
Q 359 3434 948 4092 
Q 1538 4750 2522 4750 
z
" transform="scale(0.015625)"/>
      <path id="DejaVuSans-67" d="M 2906 1791 
Q 2906 2416 2648 2759 
Q 2391 3103 1925 3103 
Q 1463 3103 1205 2759 
Q 947 2416 947 1791 
Q 947 1169 1205 825 
Q 1463 481 1925 481 
Q 2391 481 2648 825 
Q 2906 1169 2906 1791 
z
M 3481 434 
Q 3481 -459 3084 -895 
Q 2688 -1331 1869 -1331 
Q 1566 -1331 1297 -1286 
Q 1028 -1241 775 -1147 
L 775 -588 
Q 1028 -725 1275 -790 
Q 1522 -856 1778 -856 
Q 2344 -856 2625 -561 
Q 2906 -266 2906 331 
L 2906 616 
Q 2728 306 2450 153 
Q 2172 0 1784 0 
Q 1141 0 747 490 
Q 353 981 353 1791 
Q 353 2603 747 3093 
Q 1141 3584 1784 3584 
Q 2172 3584 2450 3431 
Q 2728 3278 2906 2969 
L 2906 3500 
L 3481 3500 
L 3481 434 
z
" transform="scale(0.015625)"/>
      <path id="DejaVuSans-6e" d="M 3513 2113 
L 3513 0 
L 2938 0 
L 2938 2094 
Q 2938 2591 2744 2837 
Q 2550 3084 2163 3084 
Q 1697 3084 1428 2787 
Q 1159 2491 1159 1978 
L 1159 0 
L 581 0 
L 581 3500 
L 1159 3500 
L 1159 2956 
Q 1366 3272 1645 3428 
Q 1925 3584 2291 3584 
Q 2894 3584 3203 3211 
Q 3513 2838 3513 2113 
z
" transform="scale(0.015625)"/>
      <path id="DejaVuSans-61" d="M 2194 1759 
Q 1497 1759 1228 1600 
Q 959 1441 959 1056 
Q 959 750 1161 570 
Q 1363 391 1709 391 
Q 2188 391 2477 730 
Q 2766 1069 2766 1631 
L 2766 1759 
L 2194 1759 
z
M 3341 1997 
L 3341 0 
L 2766 0 
L 2766 531 
Q 2569 213 2275 61 
Q 1981 -91 1556 -91 
Q 1019 -91 701 211 
Q 384 513 384 1019 
Q 384 1609 779 1909 
Q 1175 2209 1959 2209 
L 2766 2209 
L 2766 2266 
Q 2766 2663 2505 2880 
Q 2244 3097 1772 3097 
Q 1472 3097 1187 3025 
Q 903 2953 641 2809 
L 641 3341 
Q 956 3463 1253 3523 
Q 1550 3584 1831 3584 
Q 2591 3584 2966 3190 
Q 3341 2797 3341 1997 
z
" transform="scale(0.015625)"/>
     </defs>
     <use xlink:href="#DejaVuSans-4f"/>
     <use xlink:href="#DejaVuSans-72" x="78.710938"/>
     <use xlink:href="#DejaVuSans-69" x="119.824219"/>
     <use xlink:href="#DejaVuSans-67" x="147.607422"/>
     <use xlink:href="#DejaVuSans-69" x="211.083984"/>
     <use xlink:href="#DejaVuSans-6e" x="238.867188"/>
     <use xlink:href="#DejaVuSans-61" x="302.246094"/>
     <use xlink:href="#DejaVuSans-6c" x="363.525391"/>
    </g>
   </g>
  </g>
 </g>
 <defs>
  <clipPath id="p292485236a">
   <rect x="16.36274" y="18.118365" width="333.67476" height="165.525145"/>
  </clipPath>
  <clipPath id="pecf7498871">
   <rect x="383.325" y="18.118365" width="333.67476" height="165.525145"/>
  </clipPath>
 </defs>
</svg>
