<?xml version="1.0" encoding="utf-8"?>
<!-- Generator: Adobe Illustrator 27.4.1, SVG Export Plug-In . SVG Version: 6.00 Build 0)  -->
<svg version="1.1" id="Layer_1" xmlns="http://www.w3.org/2000/svg" xmlns:xlink="http://www.w3.org/1999/xlink" x="0px" y="0px"
	 viewBox="0 0 815.1 327" style="enable-background:new 0 0 815.1 327;" xml:space="preserve">
<style type="text/css">
	.st0{fill:none;}
	.st1{fill:none;stroke:#4D4D4D;stroke-width:1.5;stroke-linecap:square;stroke-linejoin:round;}
	.st2{fill:none;stroke:#010101;stroke-width:0.8;stroke-linecap:square;}
	.st3{font-family:'Arial-BoldMT';}
	.st4{font-size:13px;}
</style>
<g>
	<g>
		<rect x="7.4" y="265.2" class="st0" width="92.8" height="55.3"/>
		<path class="st1" d="M11.8,300.3v-0.1v-0.1V300.3L11.8,300.3L11.8,300.3h0.1H11.8l0.5,0.8l2.6,3.6l3.3,4.8l2.8,3.7l1.9,2.6
			l1.2,1.6l0.6,0.5l0.6,0.2l0.9,0.1l6.4-0.1h2.3l4.3-0.1l6-0.1h7.6h7.9h5.8l9.6-0.1l1.2-0.3l1.7-0.6l4-1.6l1.3-0.7l1-0.7l1.7-1.8
			l3.2-3.1l0.8-1.1l1-1.6l2.1-4.1l0.5-1.2l0.4-1.6l0.5-3.2l0.4-3.2v-1.3l-0.2-1.6l-0.9-4.4l-0.3-1.3l-0.6-1.5l-1-1.9l-2.1-3.6
			l-0.8-1l-1.3-1.3l-2-1.8l-2.5-2l-1.4-0.8l-1.5-0.6l-2-0.7l-3-0.9l-1.3-0.2l-1.6-0.1h-2.7l-3.2,0.1l-1.3,0.3l-1.9,0.7l-3.8,1.6
			l-1.1,0.6l-1.3,0.9l-2,1.7l-2.6,2.5l-0.8,1.1l-1,1.6l-1.5,2.8l-0.8,1.7l-0.3,1l-0.2,1.3l-0.1,2.2v4.5l0.2,2.1l0.6,3.7l0.6,2.8
			l0.5,1.2l0.9,1.7l2.4,4.1l0.8,1l1.1,1.1l1.8,1.5l2.2,1.8l1.1,0.7l1.4,0.6l4,1.4l1.2,0.3l1.5,0.2h2.2l3.5-0.1l1.2-0.2l1.5-0.4
			l2.4-0.9l2.5-1.1l1.1-0.7l1.4-1.1l2.7-2.3l1.5-1.4l0.8-1l0.9-1.5l2-4l0.5-1.2l0.4-1.5l0.5-2.9l0.4-3v-1.4l-0.2-1.6l-0.6-3.1
			l-0.6-2.6l-0.6-1.5l-0.8-1.7l-1.6-2.8l-0.9-1.3l-1.1-1.2l-1.2-1.1l-3.3-2.8l-1.1-0.7l-1.2-0.6l-2.3-0.9l-3.1-1.1l-1.3-0.2
			l-1.6-0.1l-2.7,0.1l-2.2,0.1l-1.3,0.2l-1.6,0.5l-2.3,0.9l-2.6,1.1l-1.2,0.7l-1.3,1.1l-1.8,1.7l-1.9,2l-0.8,1.1l-0.8,1.4l-2,3.9
			l-0.3,1l-0.2,1.3l-0.2,2.2l-0.1,3.5l0.1,1.9l0.4,2.7l0.7,4l0.4,1.3l0.7,1.4l1.9,3.4l0.7,1.1l1,1.2l1.4,1.3l2.4,2.1l1,0.8l1.2,0.6
			l1.7,0.7l4.3,1.6l1.3,0.2l1.8,0.1l3.7-0.1l1.2-0.2l1.4-0.4l1.8-0.7l3.4-1.5l1-0.6l1.2-0.9l3.6-3.2l0.8-1l0.9-1.3l1.3-2.4l1.3-2.7
			l0.4-1.3l0.4-1.9l0.7-4.5V292l-0.2-1.6l-0.7-4.1l-0.3-1.3l-0.5-1.2l-0.8-1.6l-1.4-2.4l-1-1.5l-0.8-1l-1.1-1.1l-1.6-1.3l-2.7-2
			l-1.4-0.7l-2-0.8l-3.3-1.1l-1.3-0.2l-1.3-0.1l-2.4,0.1l-2.9,0.2l-1.6,0.4l-2.1,0.7l-3.5,1.5l-1.1,0.7l-1.1,0.9l-2.1,1.9l-1.5,1.6
			l-1,1.3l-1.1,1.9l-1.4,2.7l-0.4,1l-0.3,1.3l-0.2,1.6v2.5v2.5l0.2,1.7l1,5.3l0.4,1.3l0.6,1.2l1.2,2l1.8,2.8l0.8,1l1.1,1.1l1.8,1.5
			l1.2,0.9l1.1,0.6l1.9,0.8l3.4,1.2l1.5,0.3l1.5,0.1h2.3l2.3-0.1l1.2-0.2l1.4-0.5l4-1.6l1.1-0.6l1.2-0.9l1.7-1.5l2-1.9l0.8-1
			l1.1-1.8l1.9-3.5l0.4-1.2l0.3-1.6l0.4-2.9l0.2-2.1v-1.6l-0.2-1.8l-0.8-4.2l-0.4-1.2l-0.8-1.6l-1.7-2.9l-0.9-1.3l-1-1.2l-1.3-1.2
			l-2.3-1.8l-1.1-0.7l-1.4-0.7l-1.7-0.6l-2.7-0.8l-1.3-0.2l-1.6-0.1h-3.5l-1.3,0.1l-1.3,0.2l-1.5,0.5l-2.3,0.9l-1.9,0.9l-1.1,0.8
			l-1.5,1.2l-2.6,2.4l-0.9,1l-0.9,1.4l-1.1,2l-0.9,2l-0.3,1l-0.2,1.1l-0.1,1.6l0.1,2.7l0.2,2.7l0.3,1.9l0.8,3.6l0.5,1.5l0.6,1.2
			l2.4,4.2l1.1,1.2l1.6,1.5l2.2,1.9l1.1,0.7l1.4,0.6l2.2,0.8l2.2,0.7l1.5,0.2l2,0.1l2.5-0.1l1.2-0.2l1.4-0.4l3.7-1.5l1.1-0.6
			l1.2-0.9l1.3-1.2l3-3l0.8-1.2l1.5-2.7l0.9-1.9l0.4-1.2l0.3-1.8l0.5-3.4v-1.3l-0.1-1.6l-0.4-2.7l-0.5-2.1l-0.6-1.5l-0.8-1.7
			l-1.4-2.5l-0.8-1.1l-1-1.1L85,277l-2.4-2l-1.1-0.6l-1.4-0.6l-2.5-0.9l-1.8-0.5l-1.3-0.2l-1.6-0.1l-2.4,0.1l-4,0.1H48l-3-0.1
			l-1.9-0.1h-9.9h-4.8l-3,0.1l-0.2,0.2l-0.1,0.4l-0.1,0.9l-0.3,0.8l-0.7,1.4l-11.3,22.3l-1,1.7L11.8,300.3L11.8,300.3h0.1v0.1l0,0
			v-0.1l-0.2-0.2L11.8,300.3l0.1,0.2l0,0l0,0"/>
		<path class="st2" d="M7.4,320.5v-55.3"/>
		<path class="st2" d="M100.2,320.5v-55.3"/>
		<path class="st2" d="M7.4,320.5h92.8"/>
		<path class="st2" d="M7.4,265.2h92.8"/>
	</g>
	<g>
		<rect x="108.1" y="265.2" class="st0" width="92.8" height="55.3"/>
		<path class="st1" d="M115,299.5h0.2l0.6-0.2l0.7-0.4l0.5-0.4l0.4-0.5l0.3-0.6l0.1-1v-1.2l-0.2-0.9l-0.4-0.9l-0.6-0.8l-0.7-0.7
			l-1-0.7l-0.9-0.4l-0.8-0.2h-0.5l-0.3,0.2l-0.2,0.3l-0.1,0.4l0.1,0.5l0.4,0.6l0.7,0.6l0.9,0.5l1.1,0.5l1.7,0.5h0.1H117l-1-0.3
			l-0.8-0.2l0.1,0.1l0.4,0.3l2.1,1.3l6.6,3.9l0.3,0.1l0.4-0.1l0.3-0.2l0.1-0.2l-0.1-1.1l-0.1-2.2v-3.5l0.1-7v-3.1l0.3-14.6l0.1-0.1
			h0.3l0.9,0.1l3.1,0.1h10l26.1-0.1l29.6,0.1v0.1l-0.3,0.1l-2.8,1.1l-4,2l-3.9,1.8l-11,5.1l-7.7,3.6l-27.7,12.7l-0.1,0.2l0.1,0.1
			l0.7,0.2l2,0.8l10,4.1l4.7,1.9l14.8,5.8l11,4.5l14.5,6l0,0l-0.3,0.1h-0.6l-3-0.1h-36l-17.5-0.1l-0.3-0.1l-0.1-0.1l0.1-0.1l0.5-0.2
			l1.7-0.6l3.1-1.3l21.7-9.4l5.8-2.5l6.2-2.7l16.2-7.1l0.1-0.2l-0.1-0.1l-0.3-0.2l-4.7-1.8l-7.2-2.9l-49.8-20.6l-0.4,0.1l-0.1,0.2
			v0.3l0.4,1.1l0.3,2.2l0.9,5.6l0.7,4.2l2,13.5l0.3,1.8l0.2,1.1h-0.1l-0.7-0.2h-0.7l-2.1,0.1L115,299.5v0.1l0,0l0.3-0.1h0.1H115
			l-0.1,0.1L115,299.5L115,299.5"/>
		<path class="st2" d="M108.1,320.5v-55.3"/>
		<path class="st2" d="M200.9,320.5v-55.3"/>
		<path class="st2" d="M108.1,320.5h92.8"/>
		<path class="st2" d="M108.1,265.2h92.8"/>
	</g>
	<g>
		<rect x="208.7" y="265.2" class="st0" width="92.8" height="55.3"/>
		<path class="st1" d="M297,290l0.1,0.1V290H297l-0.2-0.2l0,0v0.1l0.2,0.3h-0.1h-0.7l-2.5,0.3l-4.1,0.5l-11.5,1l-8.6,0.6l-1.2-0.2
			l-1.2-0.4l-2.4-1l-4.3-2l-3.8-1.7l-13.9-5.8l-5-2.3l-1.4-0.6l-0.7-0.1l0,0l0.1,0.4l0.2,1.3l0.2,1.9v1.6l-0.1,1.4l-0.5,6.2
			l-0.2,11.4l0.1,3.8l0.2,0.5l0.2,0.1l0.2-0.1l0.9-0.5l2.8-1.2l6.2-2.5l8.9-3.3l3.9-1.5l11.6-4.8l0.5-0.4v-0.1l-0.3-0.3l-5.2-3.5
			l-4-3L259,284l-2.6-2.1l-4.9-3.7l-5.6-4l-0.3,0.2l-1,1l-2.3,2.1l-2,1.6l-3.7,2.8l-14.9,11.2l0.3,0.2l1,0.6l2.4,1.6l4.2,3.1
			l6.1,4.9l2.9,2.2l8,5.8l0.1-0.2l0.3-0.3l1-0.8l2.6-1.8l6.5-4.3l3.6-2.3l3.6-2.4l8.2-5.7l0.7-0.6l0.1-0.3l-0.1-0.2l-0.6-0.6l-4.3-4
			l-2.2-2.3l-4.5-4.8l-6.6-6.8l-0.6-0.3l-0.5-0.1l-0.6,0.1l-1.5,0.5l-2.5,0.9l-3.8,1.2l-4.9,1.2l-15.1,3.6l-0.8,0.3l-0.4,0.3
			l-0.1,0.3l0.1,0.5l0.1,0.9l0.1,2.2l0.1,5.1v2.6l-0.2,10.8l0.2,0.6l0.2,0.3l0.4,0.2l0.8,0.2l2,0.4l3.5,0.9l4.8,1.1l3.9,0.9l8.8,2.3
			l4.9,1.1h0.9l0.5-0.2l0.4-0.3l0.6-0.8l0.8-0.9l1.3-1.3l1.6-1.3l3.7-3l2.2-2l2.4-2.3l5-4.6l2-2l0.3-0.6v-0.4l-0.2-0.5l-0.7-0.9
			l-5-5.7l-2.8-3.7l-4.3-5.8l-1.2-1.4l-0.7-0.4l-0.5-0.2l-0.8-0.1l-1.4,0.1l-6.3,0.4h-3.4h-8.2h-7.9l-0.7,0.2l-0.5,0.3l-0.5,0.5
			l-0.7,1.1l-3.6,5.5l-2.3,3.2l-2.1,2.7l-2.5,3.1l-1.6,2.1l-0.2,0.5v0.6l0.2,0.5l0.7,1l3,3.5l2.8,3.6l6.2,8.2l0.9,1l0.5,0.4l0.5,0.2
			l1,0.2h1.4l5.1-0.2h19.7l1.1-0.1l0.6-0.2l0.5-0.3l0.5-0.5l1.9-2.3l6.9-7.6l6.5-7.7l0.2-0.5l0.1-0.5l-0.1-0.5l-0.4-0.7l-0.7-1
			l-2.9-3.6l-1.6-2.2l-3.1-4.9l-2.8-4.4l-0.6-0.5l-0.6-0.4l-0.9-0.3l-1.4-0.2l-8.1-0.9l-8.2-1.3l-7.3-1.2l-1,0.1l-0.9,0.3l-0.8,0.5
			l-1.4,1l-3.6,2.6l-3.4,2.2l-3.3,1.9l-3.9,2.3l-2.8,1.8l-0.5,0.5l-0.2,0.5l-0.1,0.8l0.1,1.2l0.4,4.9v3.3v5.4l0.1,3.6l0.2,0.6
			l0.4,0.5l0.5,0.4l1.1,0.7l7,4l11.3,6.7l0.8,0.3l0.8,0.1h0.8l1.1-0.2l10-2l8.7-1.4l4.4-1l1-0.4l0.7-0.6l0.7-0.7l1.3-1.8l1.8-2.6
			l2.1-2.6l4.8-6.1l2.3-3.1l0.2-0.6l0.1-0.6l-0.1-0.6l-0.4-0.9l-1.1-1.6l-2.4-3.6l-1.8-3l-3.9-7.2l-0.6-0.5l-0.6-0.4l-1.1-0.5
			l-2-0.6l-4.2-1l-3.8-0.9l-3.1-0.9l-4.9-1.6l-3.3-1l-1.1-0.1l-1.1,0.1l-1.5,0.4l-2.5,0.9l-4.2,1.6l-10.7,3.4l-2.4,0.8l-0.7,0.4
			l-0.7,0.6l-0.6,0.8l-0.7,1.2l-0.8,1.8l-1.5,3.2l-1.2,2.2l-3.9,7.1l-0.2,0.7v0.6l0.1,0.6l0.4,0.8l1,1.6l1.7,2.8l3.1,5.7l1.8,3.4
			l1,1.8l0.5,0.5l0.6,0.4l1,0.4l2.2,0.6l4.1,1.2l15.1,4.6l0.9,0.1h1.1l1.1-0.2l1.8-0.6l4.9-1.7l4.1-1.3l10.6-3.3l0.7-0.4l0.6-0.5
			l0.7-0.8l0.9-1.5l3.8-5.9l5.6-8l0.3-0.2l0.5-0.1l2.1-0.3l2.9-0.8l8.6-2.3h0.5l-0.1,0.1l-0.2,0.1h-0.1l0.1-0.1h-0.1h-0.1h0.1
			l0.2-0.1L297,290h-0.1h-0.1l0.1-0.1L297,290L297,290L297,290L297,290L297,290l0.1,0.1l0.2-0.1H297l-0.2,0.1l0,0l0,0"/>
		<path class="st2" d="M208.7,320.5v-55.3"/>
		<path class="st2" d="M301.5,320.5v-55.3"/>
		<path class="st2" d="M208.7,320.5h92.8"/>
		<path class="st2" d="M208.7,265.2h92.8"/>
	</g>
	<g>
		<rect x="309.4" y="265.2" class="st0" width="92.8" height="55.3"/>
		<path class="st1" d="M349.8,317.8h0.4H349.8L349.8,317.8l0.1-0.2l0.3-0.9l0.7-1.7l0.8-1.6l0.6-1.1l1.1-1.3l-0.1-0.2l-0.5-0.3
			l-1.4-0.7l-2.7-1.4l-3.1-1.8l-5.5-3.4l-7-4.2l-4.9-3l-11.5-6.9l-2.5-1.5l-0.4-0.4l-0.1-0.2l0.1-0.2l0.4-0.3l1.8-0.9l5.8-2.9
			l19.5-9.9l7.3-3.7l2.5-1.2l0.8-0.2l0.4,0.1l0.6,0.3l2.5,1.6l14.4,9.4l3.8,2.4l11.4,7l9.4,5.9l3.4,2.3l0.3,0.4v0.2l-0.3,0.2
			l-1.3,0.8l-20.4,11.6l-7.5,4.3l-2,1l-1,0.3h-0.5l-0.5-0.1l-1.2-0.6l-3.8-2.2l-4.8-2.8l-6.8-4.1l-30.9-18.1l-0.3-0.4V287l0.4-0.3
			l1.8-0.9l7.6-3.7l4.8-2.5l10-5.1l5-2.6l4-2l1.1-0.4h0.6l0.4,0.2l1.2,0.8l17.7,11.4l6.7,4.2l13.9,8.7l3,2l0.2,0.3l-0.1,0.2
			l-0.3,0.3l-1.7,1l-10.9,6.2l-5.1,2.8l-6.8,3.9l-4,2.2l-0.8,0.3h-0.6l-0.5-0.2l-0.9-0.5l-2.4-1.5l-9.7-5.8l-5.1-3L325,290.8
			l-4.8-2.9l-0.2-0.3l0.1-0.2l0.4-0.3l1.6-0.8l7-3.5l6.8-3.5l3.5-1.8l8.8-4.6l1.7-0.9l1.1-0.4h0.6l0.4,0.1l1.1,0.6l8.3,5.4l5.5,3.6
			l5.4,3.4l16.9,10.7l2.2,1.5l0.2,0.3l-0.1,0.2l-0.3,0.3l-2.1,1.3l-2.6,1.5l-7.6,4.1l-12.9,7.2l-0.7,0.2h-0.4l-0.5-0.2l-1.6-1
			l-2.6-1.5l-9.5-5.6l-5.6-3.3L327,289.9l-4-2.5l-0.1-0.2l0.1-0.2l0.5-0.3l6.1-3.1l7.5-3.9l6-3.2l6.6-3.4l0.9-0.2l0.5,0.1l0.6,0.3
			l1.8,1.1l22.6,14.7l12.1,7.6v0.2l-0.2,0.2l-0.8,0.5l-11.9,6.8l-4.4,2.5l-3.4,1.9l-1.3,0.6l-0.9,0.2h-0.6l-0.5-0.2l-4.5-2.6
			l-3.6-2.1l-12.5-7.5l-13.3-7.4l-4.1-2.5l-0.1-0.3l0.1-0.2l0.6-0.4l3.3-1.6l7.7-3.9l5.2-2.8l4.8-2.6l1.2-0.5l0.9-0.2h0.4l0.6,0.3
			l1.6,1.1l2.7,1.8l5.2,3.3l3.9,2.6l19.9,12.6l0.1,0.2l-0.1,0.2l-0.4,0.3l-4.9,2.8l-10.4,5.8l-11.4,6.7l-1.7,1.4l-2.2,1.8l-2.1,1.5
			l-1.5,0.8l-0.2-0.1l0.1-0.1L349.8,317.8l0.1,0.1l0,0L349.8,317.8L349.8,317.8h-0.3H349.8v-0.1l0,0"/>
		<path class="st2" d="M309.4,320.5v-55.3"/>
		<path class="st2" d="M402.2,320.5v-55.3"/>
		<path class="st2" d="M309.4,320.5h92.8"/>
		<path class="st2" d="M309.4,265.2h92.8"/>
	</g>
	<g>
		<rect x="410.1" y="265.2" class="st0" width="92.8" height="55.3"/>
		<path class="st1" d="M448.3,317.7l0.2-0.2l0,0l-0.1,0.1h-0.3H448v-0.1v-0.2v-0.1l0.1,0.3L448.3,317.7v0.1l0.8,0.2l0.2-0.1v-0.2
			l-0.1-0.9l-0.7-3.4l-1.2-5l-1.1-4.1l-1.3-4.9l-2.8-11.2l-0.3-1.8l0.1-0.4l0.3-0.2l2.2-0.7l2.7-0.9l2-0.8l21.6-9.8l6.2-2.8l6.9-3.3
			h0.4l0.1,0.2l0.2,0.5l0.5,1l1.2,2l3.1,5l1.4,2.3l2.2,3.5l2.1,3.6l0.5,1v0.3l-0.1,0.1l-1.3,0.2l-1.3,0.5l-2,0.9l-4.9,2.4l-8.4,3.7
			l-3.7,1.4l-3.1,1.4l-9.8,4.1l-2.7,1h-0.3l-0.2-0.2l-0.5-1l-0.8-1.5l-1.4-2.3l-2.3-3.8l-2.2-3.4l-2.1-3.3l-0.9-1.6h0.2l1.1-0.2
			l1.8-0.6l3.4-1.3l2.4-1l23.2-10.8l2.9-1.1h0.4l0.1,0.2l0.5,2l0.6,1.2l1.1,1.7l2.2,3.4l3.4,5.3l1.3,1.9l0.1,0.3l-0.1,0.1H491
			l-0.8,0.2l-1.5,0.6l-3,1.5l-3.4,1.6l-8.8,3.8l-11.7,4.9L460,300l-0.7,0.2l-0.4-0.1l-0.2-0.2l-0.6-1.3l-1-1.8l-6.1-10.4l0.1-0.1
			l2.4-0.7l2.9-1.2l16-6.9l9-4.1h0.3l0.1,0.2l0.3,0.9l0.7,1.3l3.5,5.8l1.6,2.5l0.8,1.4l-2,0.6l-2.5,1.1l-10.4,4.8l-5.2,2.1l-6.7,3
			l-1.7,0.7h-0.3l-0.2-0.2l-0.5-0.8l-1.3-2.5v-0.4l0.2-0.1l0.8-0.2l4-1.2l2.3-0.9l7.6-3.4l2.9-1.1l2-0.9l8.2-3.9l2.7-1.1l3.1-1.2
			l6.9-2.9l0.1-0.2l-0.1-0.2l-1.2-1.7l-1-1.8l-0.3-0.7l-0.1,0.1l-0.4,0.4l-1.2,0.7l-2.5,1.3l-4.8,2.2l-3.1,1.4l-5.5,2.6L474,283
			l-2.5,1.1l-16,7.4l-0.6,0.5l-0.4,0.5l-0.3,0.8l-1.1,3.3l-0.7,1.6l-5,10.6l-1.9,4.2l-1.1,2.5l-0.7,1.4l-0.2,0.1l-0.2-0.2l-1-1.3
			l-2.6-3.7l-0.6-1.1l-0.5-1.2l-0.3-1.3l-0.2-1.8l-0.3-5.1l-0.4-1.4l-0.5-1.3l-0.7-1.2l-0.8-1.1l-0.9-1.1l-1.1-1l-1.2-0.9l-1.3-0.8
			l-1.4-0.6l-1.5-0.5l-1.5-0.3l-1.6-0.1l-1.5,0.1l-1.5,0.2l-1.5,0.4l-1.4,0.6l-1.2,0.7l-1.1,0.9l-0.9,1.1l-0.7,1.2l-0.5,1.2
			l-0.3,1.2l-0.1,1.3l0.1,1.3l0.3,1.3l0.5,1.2l0.7,1.1l0.9,1.1l1.1,0.9l1.3,0.8l2.3,1.2l3.7,1.8l1.5,0.5l2.1,0.6l4.1,1.1l3,1
			l0.8,0.4l0.6,0.5h-0.1l-0.5,0.1h0.2l4.8,1.1l6.3,1.7l0.1,0.1l0.1,0.1l0,0v-0.1v-0.3l0.1,0.1L448.3,317.7h0.2l0,0v0.1L448.3,317.7
			L448.3,317.7L448.3,317.7h0.1H448.3l-0.1,0.2l0,0l0.1,0.1l-0.1-0.2l-0.1-0.2L448.3,317.7h0.1H448.3"/>
		<path class="st2" d="M410.1,320.5v-55.3"/>
		<path class="st2" d="M502.8,320.5v-55.3"/>
		<path class="st2" d="M410.1,320.5h92.8"/>
		<path class="st2" d="M410.1,265.2h92.8"/>
	</g>
	<g>
		<rect x="510.7" y="265.2" class="st0" width="92.8" height="55.3"/>
		<path class="st1" d="M515.1,296.7L515.1,296.7L515.1,296.7L515.1,296.7l0.5,0.6l4.9,5.6l12.4,14.6l0.2,0.3l0.3,0.1h1l3.9-0.1h5.7
			l16.6,0.1l16.2-0.1l0.6-0.2l0.5-0.4l0.7-0.8l5.6-6.8l10.2-11.8l4.8-5.8l0.1-0.3l-0.2-0.3l-0.5-0.5l-6.1-5.9l-10.7-10.9l-6-5.9
			l-0.5-0.2h-0.2l-0.3,0.2l-0.7,0.8l-3.5,4.5l-12.4,15.1l-3.8,4.6l-0.2,0.4l0.1,0.2l0.3,0.4l1.7,1.6l3.6,3.5l16.7,16.6l0.5,0.3h0.3
			l0.3-0.2l3-3.6l9.8-11.4l4.3-5.1l3.3-4l0.1-0.3l-0.2-0.3l-0.7-0.6l-2.8-2.6l-9.9-9.9l-3.4-3.4l-6.3-6.3l-0.6-0.4l-0.5-0.1
			l-0.2,0.1l-0.3,0.3l-2.1,2.8l-2.1,2.7l-5.2,6.2l-2.2,2.7l-2.1,2.7l-5.3,6.5l-0.1,0.4l0.1,0.3l0.5,0.6l6.4,6.1l11.3,11.3l4.5,4.3
			h0.2l0.2-0.2l0.8-0.9l9.1-10.7l4.2-5l5.4-6.5l-0.1-0.3l-0.3-0.3l-1.8-1.6l-1.8-1.7l-3.5-3.6l-3.6-3.6l-5.6-5.4l-1.9-1.9l-3.2-3.1
			l-2.4-2.2l-0.7-0.3l-0.7-0.1l-1.5-0.1l-3.6,0.1h-4.1l-21.5-0.2H536h-4.3l-1.5,0.1v0.1l0.1,0.3l-0.1,0.4l-0.3,0.8l-1,1.8l-3.7,6.5
			l-10.3,18.7L515.1,296.7L515.1,296.7L515.1,296.7L515.1,296.7L515.1,296.7L515.1,296.7L515.1,296.7L515.1,296.7L515.1,296.7
			L515.1,296.7L515.1,296.7l0.1-0.1l0,0l0,0"/>
		<path class="st2" d="M510.7,320.5v-55.3"/>
		<path class="st2" d="M603.5,320.5v-55.3"/>
		<path class="st2" d="M510.7,320.5h92.8"/>
		<path class="st2" d="M510.7,265.2h92.8"/>
	</g>
	<g>
		<rect x="611.4" y="265.2" class="st0" width="92.8" height="55.3"/>
		<path class="st1" d="M651.7,313.4h-0.5H651.7l0.2-0.1l1.4-0.1l2.5-0.3l1.3-0.4l0.5-0.3l0.1-0.1l-0.2-0.2l-1.8-1.1l-3.2-2.2
			l-3.8-2.8l-7.3-5.4l-4.8-3.5l-12-8.7l-3.9-2.9l-2.7-2l-2.4-1.7v-0.1l0.2-0.1l3.6-1.1h0.5l0.4,0.2l0.9,0.7l16.5,12.3l3.6,2.6
			l4.3,3.1l4.9,3.7l9,6.7l3.2,2.3l2.8,2l0.6,0.2h0.5l0.4-0.1l1.7-0.9l0.5-0.4l0.1-0.2v-0.3l-0.2-0.3l-0.9-0.7l-7.7-5.4l-8.1-6.1
			l-3.5-2.5l-11.4-8.5l-13.9-10.3v-0.2l0.3-0.2l1.6-0.5l1.6-0.4h0.8l0.4,0.2l1.1,0.8l6.3,4.6l9,6.5l8.4,6.3l4.2,3.1l5.4,4l3.4,2.5
			l6.9,5.1l0.9,0.5l0.5,0.1l0.4-0.1l1.4-0.7l0.9-0.6l0.2-0.3l-0.1-0.2l-0.3-0.4l-1-0.7l-9.9-7l-8.7-6.5l-4.9-3.6l-4.9-3.6l-3.2-2.4
			l-5.2-3.7l-7.6-5.9v-0.2l0.2-0.1l1.2-0.3l2.3-0.5h0.5l0.4,0.2l1.3,0.9L648,283l6.5,4.6l4.2,3.1l3.2,2.4l15.9,11.8l3.6,2.6l0.6,0.3
			h0.4l0.6-0.2l2-1l0.5-0.4V306l-0.1-0.3l-0.4-0.4l-1.2-0.8l-6.9-4.7l-10-7.5l-3.7-2.7l-3.5-2.6l-8.2-6l-3.8-2.8l-6.4-4.6l-1.6-1.2
			l-0.4-0.5v-0.2l0.2-0.1l0.7-0.2l2.8-0.7h0.5l0.5,0.2l0.8,0.6l2.5,2l6,4.3l14.9,11l7.1,5.3l9.5,6.9l4.4,3.2l0.8,0.4h0.5l0.5-0.2
			l2-1l0.4-0.3v-0.2l-0.2-0.2l-0.6-0.5l-2.4-1.6l-3.2-1.5l-5.2-3.8l-6.5-4.8l-28.2-20.9l-0.5-0.5v-0.2l0.1-0.1l0.6-0.3l2.1-0.6
			l0.7-0.1l0.5,0.1l0.4,0.2l1,0.8l3.3,2.5l22.3,16.4l12.3,9.2l6.6,4.9l2.9,2.1l0.5,0.6l-0.1,0.1l-0.4,0.2l-1.5,0.6l-11.1,4.5
			l-5.5,2.1l-3.9,1.7l-3.3,1.4l-4.4,1.7l-3.4,1.2h-0.4l-0.3-0.2l-0.5-0.4l-0.8-0.4l-1.8-0.7l-2.5-0.7L651.7,313.4l-0.4-0.2
			L651.7,313.4L651.7,313.4l0.2,0.1L651.7,313.4h0.2v-0.1L651.7,313.4L651.7,313.4L651.7,313.4h0.2H651.7l-0.2,0.1l-0.2-0.1l0.3,0.1
			l0.4-0.1h0.1H652"/>
		<path class="st2" d="M611.4,320.5v-55.3"/>
		<path class="st2" d="M704.1,320.5v-55.3"/>
		<path class="st2" d="M611.4,320.5h92.8"/>
		<path class="st2" d="M611.4,265.2h92.8"/>
	</g>
	<g>
		<rect x="712" y="265.2" class="st0" width="92.8" height="55.3"/>
		<path class="st1" d="M727.5,267.9L727.5,267.9L727.5,267.9l-0.1,0.2h0.2l0.6,0.4l5.4,3.6l8.8,6.4l3.7,2.5l3.5,2.4l6.7,4.5
			l10.3,7.1l29.5,20.6l1.8,1.3l0.1,0.4l-0.1,0.3l-0.2,0.2l-0.3,0.1h-0.6l-20.5-0.5H768l-25.1,0.2l-18.4-0.1l-8-0.1l-0.2-0.1
			l-0.1-0.2l0.1-2.8l0.1-0.7l0.2-0.3l0.3-0.2h0.7l28.5,0.1l42-0.1h10.6l0.6-0.1v-0.2l-0.1-0.8l-0.1-1.4l-0.1-1.8l-0.2-0.1h-0.5
			l-2,0.1l-4,0.1h-5.1l-12.4-0.1l-48.5,0.1l-9.3-0.1l-0.4-0.2l-0.1-0.2l0.1-0.9l0.2-2l0.1-0.7l0.2-0.3l0.3-0.1h0.6h4.8h6.8l21.2,0.1
			h12l37-0.1v-0.1l-0.1-0.7l-0.1-1l0.1-1.3l0.1-0.6l-0.1-0.4l-0.2-0.1l-0.5-0.1h-2l-6.6,0.1l-28-0.1l-11.9,0.1l-18.9,0.1l-13.6-0.2
			l-0.8-0.1l-0.2-0.2v-0.3l0.2-1.6l0.1-1.6l0.2-0.4l0.3-0.2l0.5-0.1h1.3l3.8,0.1h13.8h9.6l19.1-0.1l34.5-0.1l0.2-0.1v-0.3l-0.1-1.3
			l0.1-1.2l0.1-1.1l-0.1-0.2l-0.3-0.1h-1l-7.1,0.2l-9.3-0.1l-7.8-0.1l-9.2,0.1h-11.1H746h-22.2l-6.3-0.1l-0.3,0.1l0,0l0.2,0.1h0.4
			h-0.2l-0.1-0.1h0.1l0.2-0.2l0.3-0.7l1.1-3.4l1-2.1l2.9-6l1.6-3.8l1-2.5l1.7-4.3l0.3-0.3l0.3-0.2l-0.3,0.1h-0.5h0.6l0,0"/>
		<path class="st2" d="M712,320.5v-55.3"/>
		<path class="st2" d="M804.8,320.5v-55.3"/>
		<path class="st2" d="M712,320.5h92.8"/>
		<path class="st2" d="M712,265.2h92.8"/>
	</g>
</g>
<g>
	<g>
		<rect x="7.4" y="202.6" class="st0" width="92.8" height="55.3"/>
		<path class="st1" d="M11.8,237.9L11.8,237.9l-0.1-0.4L11.8,237.9L11.8,237.9l0.2,0.3l1.2,2l2.8,4.5l6.2,10.1l0.5,0.4l0.5,0.2
			l0.7,0.1l1.8-0.1l2.7-0.1h36.5l10.7-0.2l1.2-0.3l1.7-0.6l5.2-2.2l1.3-0.9l1.8-1.5l3.1-2.7l0.8-1l1.1-1.8l1.8-3.3l0.7-1.4l0.5-1.5
			l0.3-1.6l0.8-5.3v-1.3l-0.2-1.8l-0.5-2.9l-0.6-2.6l-0.5-1.2l-0.9-1.9l-2-3.6l-0.7-1.1l-0.8-1l-1.3-1.3l-2.9-2.4l-1.5-1.2l-1.1-0.7
			l-1.5-0.7l-3.1-1.1l-2.3-0.7l-1.3-0.2l-1.7-0.2l-4.1,0.1l-1.6,0.1l-1.4,0.3l-1.6,0.5l-2.6,1.1l-2.5,1.1l-1.1,0.7l-1.3,1l-1.8,1.7
			l-2.1,2.1l-0.8,1.1l-0.9,1.4l-2.4,4.4l-0.3,1l-0.2,1l-0.1,1.6v5.4l0.2,1.9l0.4,3l0.6,3.2l0.4,1.3l0.7,1.5l1.8,3.1l1.1,1.8l0.8,1
			l1.4,1.3l3.4,2.9l1.1,0.7l1.2,0.6l3.4,1.3l2.4,0.8l1.3,0.2l1.5,0.1h4.7l1.2-0.1l1.4-0.4l1.9-0.7l3.9-1.6l1.2-0.8l1.4-1.1l3.3-2.9
			l0.8-0.9l0.9-1.2l0.9-1.6l2.2-4.2l0.4-1.2l0.4-1.8l0.7-4.5v-1.3l-0.1-1.3l-0.6-3.4l-0.5-2.6l-0.5-1.5l-0.8-1.6l-1.1-2.1l-1.5-2.5
			l-0.8-1l-1.1-1.1l-2.3-1.9l-2.1-1.6l-1.2-0.6l-1.6-0.8l-3.9-1.4l-1.3-0.4l-1.4-0.2l-1.6-0.1l-3.1,0.1l-2,0.2l-1.4,0.3l-1.6,0.5
			l-3.7,1.5l-1.3,0.6l-1.2,0.8l-1.3,1.2l-3.2,3l-0.9,1.1l-0.9,1.4l-1.1,2l-1.4,2.7l-0.4,1.2l-0.2,1.3l-0.1,2.2v4.1l0.3,2.2l1,5.3
			l0.4,1.3l0.6,1.2l1.8,3.1l0.9,1.4l1,1.2l1.2,1.2l3.5,3l1.1,0.7l1.4,0.7l2.9,1.1l2.2,0.7l1.2,0.2h1.6l4.4-0.1l1.2-0.2l1.4-0.4
			l2.6-1l2.8-1.2l1.1-0.7l1.8-1.5l2.7-2.4l0.8-1l0.9-1.3l1.8-3.3l0.7-1.4l0.4-1.2l0.3-1.5l0.5-3.4l0.3-2.3v-1.3l-0.2-1.9l-0.6-3.2
			l-0.4-1.5l-0.6-1.5l-0.8-1.6l-1.5-2.5l-0.9-1.3l-0.9-1l-1.4-1.3l-3.2-2.5l-1.1-0.7l-1.2-0.6l-2.8-1.1l-2.6-0.9l-1.3-0.2l-1.6-0.1
			l-2.8,0.1l-2.2,0.1l-1.4,0.3l-1.6,0.5l-2.7,1.1l-1.6,0.7l-1.2,0.7l-1.3,1l-2.3,2.1l-1.2,1.2l-0.9,1.1l-0.9,1.4l-2,3.9l-0.4,1.2
			l-0.2,1.3l-0.1,1.9l-0.1,4.1L50,232l0.7,4.1l0.4,1.6l0.5,1.3l0.8,1.4l2.3,3.9l0.8,1l1.5,1.4l2.2,1.8l1,0.8l1.1,0.6l1.9,0.8
			l3.6,1.2l1,0.2l1.5,0.1h2.8l2.5-0.1l1.2-0.3l1.9-0.6l3.3-1.3l1.3-0.7l1.2-0.9l1.9-1.7l2.2-2.1l0.9-1.2l1.2-2l1.5-3l0.4-1.3
			l0.3-1.6l0.6-4v-1.3l-0.1-1.6l-0.5-3l-0.5-2.4l-0.4-1.2l-0.7-1.5l-2-3.5l-0.8-1.1l-0.9-1l-1.4-1.3l-2.8-2.2l-1.2-0.7l-1.5-0.7
			l-2.3-0.8l-2.6-0.8l-1.4-0.2h-1.7l-3.5,0.1l-1.3,0.2l-1.6,0.4l-2.1,0.8l-2.5,1.1l-1.2,0.7l-1.3,1l-2.8,2.4l-0.9,1l-0.8,1.2
			l-1.1,1.9l-1.4,2.7l-0.3,1l-0.2,1.3l-0.1,1.7l0.1,4.3l0.3,2.5l0.6,3.4l0.4,1.3l0.6,1.3l1.1,2l1.6,2.6l0.9,1l1.4,1.3l2.7,2.2
			l1.1,0.7l1.5,0.7l2.3,0.9l2,0.6l1.2,0.2l1.8,0.1h3.6l1-0.1l1.2-0.3l2.7-1l2.2-0.9l1.3-0.8l1.2-1l2.7-2.5l0.8-1l0.8-1.1l0.9-1.6
			l1.5-2.8l0.5-1.5l0.4-1.8l0.6-3.4l0.1-1.2l-0.1-1.6l-0.4-2.3l-0.6-2.8l-0.5-1.4l-1-2.1l-1.3-2.2l-0.7-1l-1.1-1.1l-1.5-1.4
			l-2.5-1.9l-1.1-0.7l-1.5-0.7l-2.5-0.9l-1.8-0.5l-1.6-0.2h-1.6l-7.8,0.1h-2.9h-4.7l-23.6,0.1l-9.7-0.1l-0.4,0.1v0.1L23,210
			l-0.2,0.9l-0.6,1.7l-0.9,2.2l-4.8,10.8L11.8,237.9L11.8,237.9L11.8,237.9L11.8,237.9L11.8,237.9L11.8,237.9h0.1v0.1l-0.1,0.1
			V237.9L11.8,237.9l0.1,0.1L11.8,237.9v0.2l0,0"/>
		<path class="st2" d="M7.4,257.9v-55.3"/>
		<path class="st2" d="M100.2,257.9v-55.3"/>
		<path class="st2" d="M7.4,257.9h92.8"/>
		<path class="st2" d="M7.4,202.6h92.8"/>
	</g>
	<g>
		<rect x="108.1" y="202.6" class="st0" width="92.8" height="55.3"/>
		<path class="st1" d="M112.5,236.8l-0.2,0.1L112.5,236.8L112.5,236.8h0.2l3.1,0.2l6.2,0.3l3.1,0.2l-0.1-0.1l-0.2-0.3l-0.1-0.7
			l0.1-1l0.2-2.2l0.1-6.1l0.1-6.5l0.1-4.4l0.1-4.7l0.2-6.2l0.2-0.2h0.3l2.3,0.1h4.7l27.8-0.1l35.2,0.1v0.2l-0.2,0.2l-0.5,0.3l-2.3,1
			l-6.3,2.7l-6.4,3l-14.3,6.5l-27.6,12.5v0.1l0.2,0.1l1.3,0.5l5.6,2.2l12.3,4.8l25,10.1l7.9,3.2l5.3,2.1l0.6,0.2l-0.1,0.2l-0.3,0.1
			l-0.6,0.1l-13.7-0.1l-23.3-0.1l-20.1-0.2l-0.1-0.1l0.1-0.1l1.6-0.6l6.4-2.8l23.5-10l7.2-3l7.7-3.3l7.7-3.3l1.7-0.8v-0.2l-0.2-0.1
			l-0.6-0.1l-0.9-0.3l-2.4-1l-5.5-2.4l-18.5-7.4l-5.4-2.2l-6.2-2.5l-20.6-8.4l-2.6-1l-0.5,0.1l-0.3,0.1l-0.1,0.2l0.1,0.4l0.2,0.5
			l0.1,1l0.3,1.5l1,5l1.1,6.3l0.4,2.6l0.9,5.2l0.3,2.1l0.4,2.9l0.2,1.5l0.1,0.7v0.1h-0.1h-0.9l-2.2,0.1l-19.4,0.9L112.5,236.8
			L112.5,236.8l0.1-0.1L112.5,236.8L112.5,236.8L112.5,236.8L112.5,236.8L112.5,236.8"/>
		<path class="st2" d="M108.1,257.9v-55.3"/>
		<path class="st2" d="M200.9,257.9v-55.3"/>
		<path class="st2" d="M108.1,257.9h92.8"/>
		<path class="st2" d="M108.1,202.6h92.8"/>
	</g>
	<g>
		<rect x="208.7" y="202.6" class="st0" width="92.8" height="55.3"/>
		<path class="st1" d="M297,228.7l0.2-0.1h0.1h-0.4h-0.1h-0.7l-3.2,0.3l-3.6,0.2l-20.3,0.7l-1.3-0.3l-1.3-0.4l-2.6-1.2l-3.4-1.5
			l-8.4-3.6l-7.7-3.2l-8.1-3.6l-0.8-0.2l-0.2,0.1l0.3,2l0.1,3.1l-0.3,8.5l-0.3,14.8l0.2,0.4l0.2-0.1l11-4.7l8.2-3.1l7.6-3l6.4-2.5
			l1.4-0.6l0.7-0.5V230l-0.3-0.2l-7.4-5.1l-4.7-3.5l-6.9-5.5l-5.4-3.9h-0.2l-0.4,0.3l-3.3,2.8l-4.9,3.7l-5.9,4.4l-9.3,7.1l-0.2,0.3
			l0.1,0.1l0.7,0.5l1.8,1.2l3.6,2.6l14.4,10.9l2.7,2l1.2,0.8h0.3l0.6-0.4l1.4-1l2.5-1.8l7.9-5.3l14.2-9.9l0.2-0.3l-0.1-0.2l-0.3-0.3
			l-4.4-3.7l-3-3L254.4,211l-0.5-0.2h-0.4l-0.8,0.2l-3.3,1.1l-3.1,0.9l-4.4,1.1l-14.6,3.6l-2.4,0.7l-0.6,0.4l-0.2,0.3v0.4l0.3,2.4
			l0.1,2.2v3.1v6.5l0.1,4.5l0.1,3.9l0.2,0.3l0.4,0.2l0.8,0.2l3.7,0.7l5.5,1.3l7.4,1.9l6.1,1.4l5.4,1.3l0.7-0.1l0.5-0.3l0.6-0.5
			l2.7-2.8l3.5-3.2l3.1-2.8l4.1-3.7l5.8-5.6l0.3-0.5v-0.3l-0.1-0.3l-0.5-0.7l-1.6-1.8l-2.1-2.5l-2.5-3.2l-1.9-2.5l-2.8-3.7l-2.7-3.4
			l-0.5-0.4l-0.7-0.3l-0.8-0.1l-1.6,0.1l-5,0.3l-4.2,0.1l-16.6,0.2l-0.7,0.3l-0.5,0.4l-0.7,1l-3.8,5.5l-5.2,6.8l-3.1,4l-0.3,0.6
			l-0.1,0.7l0.1,0.6l0.3,0.6l1.2,1.5l3.3,3.9l3.6,4.7l2.6,3.6l2.6,3.4l0.5,0.3l0.7,0.2l1,0.1l2.1-0.2l2.4-0.1l3.2,0.1l7.2,0.2h6.6
			l5.4-0.2l0.8-0.2l0.5-0.3l0.6-0.6l1.1-1.4l3-3.8l2.7-3.1l7.6-8.6l0.3-0.6l0.2-0.7v-0.5l-0.2-0.5l-0.6-0.9l-4-5.8l-4.4-6.8l-2-2.9
			l-0.5-0.5l-0.6-0.4l-0.7-0.2l-1.4-0.3l-2.4-0.3l-4.4-0.5l-4.5-0.7l-6.1-1.1l-6.2-1.1l-0.7,0.1l-0.6,0.2l-0.8,0.4l-1.6,1.1
			l-4.1,2.9l-3.9,2.4l-8.5,5.2l-0.7,0.5l-0.4,0.5l-0.2,0.5v0.7l0.4,7.2l-0.1,4.7v6.3l0.2,0.6l0.4,0.4l0.9,0.6l1.4,0.8l3.8,2l3,1.9
			l4.3,2.6l6.7,4l0.7,0.2h0.9l1.2-0.1l1.6-0.4l2.3-0.5l6.1-1l12.4-2l1.2-0.3l0.7-0.3l0.6-0.4l0.7-0.7l1-1.4l2-2.8l1.8-2.3l7.7-9.8
			l0.3-0.6l0.1-0.6l-0.1-0.7l-0.3-0.8l-0.8-1.3l-3.8-6.3l-2.2-3.9l-1.9-3.5l-0.5-0.7l-0.5-0.6l-0.6-0.4l-1-0.5l-1.5-0.5l-2.4-0.6
			l-3.2-0.7L255,208l-6.5-2l-1.7-0.4l-0.9-0.1l-1.1,0.1l-1.1,0.3l-2.6,0.9l-3.8,1.4l-6.6,2l-6.8,2.1l-0.9,0.4l-0.6,0.5l-0.7,0.7
			l-0.6,0.9l-0.9,1.8l-1.4,3l-5.6,10.6l-0.2,0.7v0.6l0.2,0.6l0.4,0.9l1,1.6l1.7,2.6l1.6,2.9l3,5.7l1.3,2.2l0.5,0.5l0.7,0.4l1,0.4
			l2.2,0.7l9.9,2.8l8.9,2.8l0.9,0.1h0.8l1.1-0.2l1.4-0.5l3.2-1.1l4.6-1.4l8.4-2.4l4-1.4l0.6-0.4l0.6-0.5l0.7-0.9l1.4-2.3l1.7-2.8
			l3.5-5l3.8-5.1l0.3-0.2l0.6-0.1l2-0.1l2-0.3l2.7-0.5l5.4-1.2l1.4-0.2h0.7v0.1l-0.1,0.2H297h-0.1h-0.1l0.1-0.1L297,228.7L297,228.7
			l-0.1,0.1l-0.1,0.1L297,228.7L297,228.7L297,228.7L297,228.7l-0.1,0.1l0,0"/>
		<path class="st2" d="M208.7,257.9v-55.3"/>
		<path class="st2" d="M301.5,257.9v-55.3"/>
		<path class="st2" d="M208.7,257.9h92.8"/>
		<path class="st2" d="M208.7,202.6h92.8"/>
	</g>
	<g>
		<rect x="309.4" y="202.6" class="st0" width="92.8" height="55.3"/>
		<path class="st1" d="M349.3,255.1L349.3,255.1L349.3,255.1h-0.1H349.3l0.3-0.7l0.7-1.3l1.4-2.8l1.1-1.5l-0.1-0.3l-0.2-0.3
			l-0.6-0.4l-1.9-0.7l-3.6-1.7l-2.4-1.3l-3.2-2l-14.2-8.9l-6.1-3.7l-5.9-3.5l-0.7-0.6l-0.3-0.4v-0.2l0.2-0.2l0.7-0.4l5.1-2.7l4-2
			l11.8-5.8l4.9-2.6l9.5-5l1.2-0.5l0.7-0.2l0.4,0.1l0.6,0.3l5.3,3.4l10.3,7l3.4,2.2l20.2,12.7l5.8,3.9l0.1,0.3l-0.1,0.2l-0.6,0.4
			l-9.7,5.6l-6.2,3.4l-6.9,3.9l-9,5.1l-0.8,0.2L364,254l-0.6-0.3l-1.6-1l-14.6-9.1l-5.9-3.4l-8.3-5.1l-9.9-5.8l-6.5-4.1l-0.2-0.3
			v-0.2l0.3-0.3l1-0.5l20-10.1l12.8-6.8l0.7-0.2l0.4,0.1l0.7,0.3l2.4,1.5l5.3,3.5l5.1,3.4l10.8,6.9l18.7,11.8l0.3,0.3v0.2l-0.2,0.2
			l-1.1,0.7l-22.8,12.8l-4.5,2.6l-0.9,0.4l-0.6,0.1l-0.5-0.1l-0.8-0.4l-2.8-1.7l-6.2-3.9l-8.1-4.9l-7.7-4.5l-6.8-3.8l-4.3-2.4
			l-4.6-2.7l-3.4-2.2l-0.1-0.3l0.1-0.2l0.6-0.4l5.4-2.8l9.1-4.6l6.1-3.1l9.9-5.2l0.6-0.1l0.5,0.1l0.9,0.5l6.8,4.6l9.5,6.3l7.4,4.7
			l4.4,2.7l10.7,7.1v0.2l-0.3,0.3l-1.2,0.7l-18,10.3l-4.9,2.8l-1.3,0.7l-0.7,0.2h-0.5l-0.5-0.2l-1.1-0.6l-8.3-5.2l-6.8-4l-7.4-4.3
			l-16.5-9.6l-1-0.7l-0.1-0.2l0.1-0.2l0.5-0.3l3-1.5l6.6-3.4l13.1-6.9l3-1.6l1-0.4l0.7-0.1l0.5,0.1l0.7,0.4l18.2,11.9l11.4,7.2
			l5.6,3.6l0.9,0.8l0.2,0.3l-0.1,0.2l-0.4,0.3l-1.3,0.8l-15.1,8.6l-5.8,3.2l-0.5,0.1l-0.5-0.1l-0.7-0.4l-5.4-3.2l-6.1-3.8l-5.2-3.1
			l-7.6-4.4l-6.1-3.4l-7.7-4.5v-0.2l0.1-0.2l0.5-0.3l6.5-3.4l13-6.9l2.5-1.4l1-0.3h0.5l0.4,0.1l0.7,0.4l2.1,1.5l4.1,2.6l4.3,2.8
			l5,3.3l17.5,11.1l0.2,0.3l-0.1,0.2l-0.4,0.3l-9.4,5.6l-9.6,5.3l-3.4,1.9l-3.9,2l-0.5,0.1l-0.6,0.3l-1.1,0.8l-3.2,2.6l-1.4,0.9
			l-0.8,0.5L349,255L349.3,255.1h0.3h0.1v0.1l-0.2,0.1h-0.3l-0.1-0.1L349.3,255.1l0.1-0.1v-0.1h-0.1V255.1l-0.1-0.1h-0.1l0.1,0.1
			H349.3L349.3,255.1L349.3,255.1h-0.1l0,0l0,0v0.1v0.1l0.1,0.1l0,0"/>
		<path class="st2" d="M309.4,257.9v-55.3"/>
		<path class="st2" d="M402.2,257.9v-55.3"/>
		<path class="st2" d="M309.4,257.9h92.8"/>
		<path class="st2" d="M309.4,202.6h92.8"/>
	</g>
	<g>
		<rect x="410.1" y="202.6" class="st0" width="92.8" height="55.3"/>
		<path class="st1" d="M436.5,255.2h0.1h0.1H436.5L436.5,255.2l-0.1-0.1L436.5,255.2L436.5,255.2l0.2-0.1l-0.1-0.3l-2-6.1l-0.6-2.4
			l-1.3-3.9l-1.5-4.7l-3-10l-1.1-3.6l0.1-0.4l0.2-0.2l0.5-0.2l2.3-0.7l3.1-1l3.5-1.3l4.9-1.8l6.8-2.3l5.1-1.8l8.8-3.1l18.1-6.3
			l0.2,0.1l0.4,0.5l1.3,1.9l4.4,5.7l6.2,8l2.1,2.9l-0.1,0.2l-0.3,0.1l-3.2,1l-3.3,1l-7.4,2.5l-9.5,3.4l-23.5,7.8l-0.3-0.1l-0.3-0.4
			l-3.7-5.1l-2.5-3.1l-6.6-8.3l0.2-0.1l1.2-0.4l7.2-2.1l5.7-2.1l6.7-2.5l17.6-6.2l5.2-1.8h0.4l0.3,0.3l1,1.3l1,1.5l3.1,4l1.5,1.8
			l2.2,2.7l2.6,3.5l0.1,0.3l-0.4,0.2l-1.8,0.6l-4,1.4l-6.4,2.3l-11.8,3.9l-7.2,2.6l-3.7,1.2l-3.4,1.1l-1.9,0.6l-0.7,0.1l-0.4-0.1
			l-0.3-0.2l-0.5-0.7l-2.4-3.6l-2.4-3.2l-3.6-4.5l-0.6-0.8l-0.1-0.3l0.2-0.1l4.4-1.3l22.5-7.9l8-2.8l2.9-0.9h0.4l0.2,0.2l0.9,1.3
			l2.6,3.3l3.3,4.2l2.1,2.7l0.1,0.2l-0.1,0.1l-0.6,0.2l-5.1,1.6l-4.1,1.5l-9.6,3.5l-16.4,5.4H450l-0.3-0.2l-0.4-0.5l-0.6-0.9
			l-0.6-1.2l-0.1-0.6v-0.3l0.2-0.2l0.6-0.2l7.8-2.3l7.6-2.6l14.3-5l18.3-6.2l1.8-0.7l0.2-0.2v-0.1l-1.1-1.5l-1.8-2.4l-0.7,0.2
			l-2.7,1l-5.3,2l-42.4,15.4l-0.6,0.5l-0.5,0.7l-0.8,1.4l-1.1,2l-0.5,0.3l-0.3-0.1l-1.1-0.6h-0.1l0,0l-1.6,3.6l-3.4,6.9l-4.3,8.4
			l-0.7,1.4l-0.4,0.2H429l-0.3-0.2l-0.4-0.4l-0.9-1.2l-5.7-8.3l-5.2-7l-2-2.9l-0.2-0.3l0.2,0.2l2.9,2.9l3.2,3.2l3,2.9l13,12.8
			L436.5,255.2l-0.2,0.1v0.1h0.1l0,0l0.2-0.2h0.2v-0.1h-0.1L436.5,255.2h0.2l0.1,0.1h-0.1h-0.1L436.5,255.2L436.5,255.2L436.5,255.2
			L436.5,255.2l-0.4-0.1l0,0"/>
		<path class="st2" d="M410.1,257.9v-55.3"/>
		<path class="st2" d="M502.8,257.9v-55.3"/>
		<path class="st2" d="M410.1,257.9h92.8"/>
		<path class="st2" d="M410.1,202.6h92.8"/>
	</g>
	<g>
		<rect x="510.7" y="202.6" class="st0" width="92.8" height="55.3"/>
		<path class="st1" d="M515,234.4v-0.1v-0.1V234.4L515,234.4L515,234.4L515,234.4l0.1,0.2l1.1,1.3l6,6.6l6.1,6.9l2.4,2.7l2.2,2.5
			l0.4,0.7l0.4,0.1h0.9l12.8-0.2l12,0.1h12.8l4.5-0.1l0.6-0.2l0.5-0.4l0.7-0.8l4-4.8l16.4-19.3l0.2-0.4L599,229l-0.4-0.5l-5-5
			l-10.4-10.6l-7.1-7.1l-0.6-0.3h-0.3l-0.2,0.1l-0.5,0.6l-2.5,3.2l-1.8,2.3l-3.9,4.8l-11.7,14.6v0.3l0.2,0.3l1.1,1.1l4.7,4.7
			l3.6,3.5l12.9,12.8l0.3,0.1l0.2-0.1l0.5-0.6l2.8-3.3l3.9-4.6l8.6-10.1l3.3-3.8l1.4-1.8l0.1-0.3l-0.1-0.2l-0.4-0.5l-2.3-2.1
			l-3.4-3.4l-7.6-7.7l-9.6-9.5l-0.6-0.3H574l-0.2,0.2l-1.9,2.6l-2.2,2.8L565,217l-4.6,5.6l-5.7,7.3v0.3l0.2,0.3l0.6,0.6l7.8,7.7
			l3.3,3.3l7.3,7.3l2.8,2.9l0.6,0.3h0.3l0.2-0.2l2.2-2.6l16.9-19.9l0.2-0.4v-0.3l-0.2-0.3l-1.1-1l-2.6-2.5l-12.3-12.3l-6.1-6.1
			l-1.3-1.2l-0.6-0.3l-0.7-0.2h-1.3l-10.1,0.1l-15.2-0.2H540h-4.1l-4.7,0.1v0.2v0.3l-0.1,0.5l-0.4,0.9l-2,3.6l-6.5,11.1L515,234.4
			L515,234.4l-0.1,0.1L515,234.4L515,234.4"/>
		<path class="st2" d="M510.7,257.9v-55.3"/>
		<path class="st2" d="M603.5,257.9v-55.3"/>
		<path class="st2" d="M510.7,257.9h92.8"/>
		<path class="st2" d="M510.7,202.6h92.8"/>
	</g>
	<g>
		<rect x="611.4" y="202.6" class="st0" width="92.8" height="55.3"/>
		<path class="st1" d="M652.5,248.6L652.5,248.6L652.5,248.6L652.5,248.6L652.5,248.6L652.5,248.6L652.5,248.6L652.5,248.6
			L652.5,248.6L652.5,248.6L652.5,248.6l-0.1-0.1l0.8,0.3l2.5,0.6h0.9l0.3-0.1v-0.1l-0.2-0.2l-0.8-0.6l-2.6-1.7l-4.4-3.2l-6.1-4.6
			l-7.3-5.3l-3.1-2.4l-7.4-5.3l-4-2.9l-5.3-4l-0.2-0.3l0.1-0.1l0.4-0.2l1.8-0.6l1.4-0.3h0.4l0.5,0.3l1.1,0.8l1.9,1.3l3,2.3
			l28.8,21.7l5.1,3.7l4.5,3.3l0.8,0.4l0.6,0.2h0.5l0.6-0.2l1.9-1l0.3-0.3v-0.2l-0.2-0.3l-0.5-0.4l-1.8-1.3l-6.1-4.3l-10.5-7.9
			l-13.5-10l-4.2-3l-9-7.1v-0.2l0.1-0.1l0.6-0.2l2.3-0.6h0.7l0.4,0.2l0.8,0.5l2.3,1.8l16.7,12.3l4.9,3.6l8.3,6.2l12.7,9.3l0.6,0.2
			h0.5l0.6-0.3l1.5-0.8l0.3-0.3l0.1-0.3l-0.1-0.3l-0.4-0.5l-0.9-0.7l-3.8-2.5l-2.8-2l-7.9-5.7l-9.9-7.4l-13.3-9.7l-6.5-4.8l-0.2-0.3
			l0.1-0.1l0.5-0.2l2.6-0.6l0.9-0.1l0.5,0.1l0.5,0.2l1,0.7l5.6,4.1l7.4,5.4l9.2,6.7l14.4,10.9l5.5,4l1.8,1.2l0.9,0.3h0.5l0.5-0.2
			l1.3-0.7l0.5-0.4l0.1-0.2v-0.3l-0.2-0.3l-0.5-0.5l-1.5-1.1l-2.9-1.9l-4.5-3l-6-4.4l-4.3-3.2l-18.1-13.5l-8.2-6.1l-0.1-0.3l0.1-0.1
			l0.6-0.2l1.9-0.5l1.3-0.2l0.5,0.1l0.5,0.2l0.9,0.7l3.8,3l3,2.2l6.4,4.5l8.1,6l6.4,4.7l16.8,12.1l0.8,0.3h0.5l0.6-0.2l1.5-0.8
			l0.3-0.3l0.1-0.2l-0.1-0.3l-0.4-0.4l-1.3-1l-11.1-8l-14.5-10.7l-4.2-3.2l-4.6-3.4l-9.8-7.5v-0.1l0.2-0.1l0.6-0.2l1.5-0.4l1.4-0.2
			l0.4,0.1l0.4,0.2l1.3,1l4.6,3.5l6.7,4.9l13.8,10.2l6.1,4.6l15.2,11.2l1,0.8l0.1,0.3l-0.1,0.1l-0.5,0.2l-4.2,1.6l-11.5,4.8l-4,1.4
			l-5,1.9l-9.2,3.5v-0.2l-0.1-0.3l-0.3-0.3l-0.5-0.4l-1.3-0.7l-2.5-1.1l-3.4-1.4l-5.1-2.5l-0.3-0.1l0.1,0.1l0.3,0.2v0.1l0,0l0,0
			l0.5-0.2L652.5,248.6L652.5,248.6L652.5,248.6L652.5,248.6l0.2,0.1l-0.4-0.1v-0.1L652.5,248.6L652.5,248.6"/>
		<path class="st2" d="M611.4,257.9v-55.3"/>
		<path class="st2" d="M704.1,257.9v-55.3"/>
		<path class="st2" d="M611.4,257.9h92.8"/>
		<path class="st2" d="M611.4,202.6h92.8"/>
	</g>
	<g>
		<rect x="712" y="202.6" class="st0" width="92.8" height="55.3"/>
		<path class="st1" d="M716.8,205.3L716.8,205.3l-0.6-0.2l0,0h0.1v0.1l0,0l0,0l0.1-0.1h0.1L716.8,205.3L716.8,205.3l1.3,1l2.8,1.6
			l5.8,3.4l4.3,2.7l17.7,10.7l9.3,5.7l3.5,2.2l7.9,4.8l11.1,6.7l8.2,4.9l4.3,2.7l4.7,2.9v0.3l-0.1,0.2l-0.3,0.1l-0.6,0.1h-1.9
			l-17.2-0.2H761l-25.1,0.1l-19-0.1l-0.3-0.2v-0.2l0.1-0.8l0.5-3l0.2-0.1h0.7l16.1,0.1h10.7l54.7-0.2l0.1-0.2v-0.3l-0.1-2.6v-0.7
			l-0.1-0.3l-0.2-0.1l-0.6-0.1l-2.3,0.1l-5.4,0.1h-27h-24.8H727l-9.4-0.1l-0.5-0.1l-0.1-0.2v-0.4l0.8-3.5l0.2-0.1h0.5l3.8,0.1h5.9
			h18.7h12h13.8h6.2h11.3l6.9,0.1l3.1-0.1l0.1-0.1v-0.3l-0.1-1.1v-1.1V238l-0.2-0.1h-0.7l-11.9,0.2h-25l-44.8-0.2l-0.1-0.2v-0.4
			l0.6-3.2l0.2-0.3l0.2-0.1h0.5l5.9,0.1h68.2l7.6-0.2l0.1-0.1l-0.2-2v-1.9l-0.2-0.1l-0.4-0.1h-1.3l-6.6,0.1h-9.9h-19.3h-22.6
			l-22.8-0.1l0,0h0.4l0.1,0.1l0.1,0.1l0,0l-0.2-0.1l0,0l-0.2-0.9v-1.2l0.1-4.4l-0.2-3.7l-0.1-2.5l-0.3-7l-0.2-1.9l-0.3-1.9l0.1-0.4
			l0.1,0.1l0,0L716.8,205.3L716.8,205.3L716.8,205.3"/>
		<path class="st2" d="M712,257.9v-55.3"/>
		<path class="st2" d="M804.8,257.9v-55.3"/>
		<path class="st2" d="M712,257.9h92.8"/>
		<path class="st2" d="M712,202.6h92.8"/>
	</g>
</g>
<g>
	<rect x="7.4" y="139.9" class="st0" width="92.8" height="55.3"/>
	<path class="st1" d="M11.7,176.8L11.7,176.8v-0.1v-0.1V176.8L11.7,176.8L11.7,176.8l0.1,0.1l4.2,4.9l7.5,8.8l1.3,1.4l0.7,0.4
		l0.7,0.2h1l2.8-0.1l5.8-0.1l5.4,0.2l23.2-0.2l5-0.1h6.1l1.2-0.2l1.5-0.4l1.9-0.7l3.6-1.6l1-0.7l1.2-1l4.4-4.1l0.8-1l0.8-1.3
		l1.3-2.6l1.1-2.4l0.4-1.3l0.3-1.6l0.5-3.5l0.2-2.1v-1.6l-0.2-1.8l-0.6-3.5l-0.4-1.8l-0.5-1.3l-0.8-1.7l-1.3-2.3l-1.5-2.5l-0.8-1
		l-1.1-1.1l-3.4-2.9l-1.1-0.8l-1-0.4l-1.4-0.6l-4.7-1.6l-1.3-0.3l-1.5-0.1H72l-3.6,0.2l-1.3,0.3l-1.2,0.4l-3.2,1.4l-2.2,1l-1.1,0.7
		l-1.4,1.2l-3.3,3.1l-0.8,1l-0.7,1.1l-1.1,2.1l-1.7,3.5l-0.3,1.2L50,161v2.7v4.4l0.3,1.9l1,5.5l0.5,1.3l0.7,1.5l2.3,4.1l0.6,0.9
		l0.9,1l1.5,1.4l3.3,2.8l1.1,0.6l1.6,0.7l4.2,1.6l1.2,0.3l1.2,0.1h2l4.3-0.2l1.4-0.4l3-1.1l2.3-0.9l1-0.6l1.1-0.9l3-2.8l1.1-1l0.8-1
		l1.1-1.8l1.4-2.8l0.9-1.9l0.4-1.2l0.4-1.8l0.7-4.5v-1.3l-0.1-1.6l-0.5-2.9l-0.8-3.4l-0.6-1.5l-1-1.8l-2-3.4l-0.8-1l-1.1-1.2
		l-1.6-1.4l-2.7-2.1l-1.1-0.6l-1.7-0.7l-4.2-1.5l-1.3-0.3l-1.3-0.1h-3.2l-2.3,0.1l-1.3,0.3l-1.5,0.5l-3.4,1.4l-1.4,0.7l-1.1,0.7
		l-1.2,1l-1.7,1.7l-2.2,2.3l-0.9,1.3l-0.9,1.7l-1.8,3.6l-0.3,1.3l-0.2,1.3l-0.1,1.9l-0.1,3.6l0.2,1.9l0.4,2.3l0.9,4.6l0.6,1.4
		l1.2,2.3l1.4,2.5l0.8,1l1.1,1.1l3.3,2.9l0.8,0.6l1.1,0.6l2.7,1.1l2.5,0.9l1.3,0.3l1.6,0.1h2l3.5-0.3l1.4-0.3l1.6-0.5l3.1-1.3l1-0.6
		l1-0.7l1.5-1.3l3.1-2.8l0.7-1l1-1.7l1.9-3.7l0.4-1.2l0.4-1.5l0.4-2.1l0.4-2.4l0.1-1.6l-0.1-1.6l-0.4-2.1l-0.8-3.6l-0.4-1.2
		l-0.8-1.6l-1.8-3.2l-0.8-1.3l-1-1.2l-1.5-1.4l-2.9-2.4l-1.1-0.7l-1.4-0.7l-2.7-1l-2-0.6l-1.3-0.2h-1.9l-3.5,0.1l-1.1,0.1l-1.4,0.3
		l-1.9,0.6l-3.8,1.6l-1.1,0.7l-1.4,1.2l-2.7,2.5l-0.7,0.8l-0.9,1.4l-0.9,1.7l-1.6,3.5l-0.3,1.3l-0.2,1.3l-0.1,2.2v2.9l0.1,1.6
		l0.4,2.6l0.6,3.4l0.4,1.2l0.8,1.7l1.4,2.7l0.9,1.4l0.9,1l1.2,1.2l1.7,1.4l1.4,1.1l1.1,0.7l1.2,0.5l2.4,0.9l2.3,0.8l1.2,0.2l1.8,0.1
		h3l1.2-0.1l1.4-0.4l1.4-0.5l3.9-1.7l1-0.7l1.3-1.1l2.5-2.4l0.8-0.9l0.9-1.3l1-1.8l1.5-3l0.5-1.5l0.3-1.6l0.5-3.7l0.1-1.3l-0.1-1.6
		l-0.2-1.9l-0.7-3.4l-0.4-1.2l-0.7-1.4l-1.1-2.1l-1.4-2.3l-0.8-1l-1.2-1.1l-2-1.7l-1.7-1.3l-1.1-0.7l-1.9-0.8l-2.5-0.9l-1.3-0.3
		l-1.3-0.2l-1.8-0.1l-3.1,0.1l-1.3,0.2l-1.5,0.5l-2.5,1l-2.4,1.1l-1.1,0.7l-1.2,1l-1.9,1.9l-1.1,1.2l-0.9,1.4l-0.8,1.5l-1.5,3
		l-0.3,1l-0.2,1.3l-0.1,2l0.1,2.8l0.2,2.1l0.9,4.8l0.4,1.3l0.5,1.3l1,1.9l1.5,2.5l0.8,1l1.1,1.1l2.2,1.9l1.2,0.9l1.3,0.6l1.6,0.7
		l2.6,1l1.2,0.3l1.2,0.1h2.2l2.9-0.1l1.2-0.2l1.2-0.4l2.3-0.9l2-0.9l1-0.7l1.4-1.1l2-1.8l1-1.1l0.7-1l0.9-1.6l1.8-3.8l0.4-1.3
		l0.4-1.8l0.4-2.4l0.1-1.6l-0.1-1.6l-0.4-2.3l-0.6-3.1l-0.6-1.5l-0.8-1.7l-1.5-2.6l-0.7-1l-1-1.1l-1.5-1.4l-2.4-1.9l-1.1-0.7
		l-1.9-0.8l-2.8-1l-1-0.2l-1.3-0.1h-2.1l-4.3,0.2h-5.2h-7.7h-3.6h-4.3H42h-3.7l-11.7-0.1l-0.4,0.1l-0.2,0.2l-0.1,0.6l-0.1,0.8
		l-0.5,1.3l-0.9,2l-2.4,4.7l-1.7,3.3L11.7,176.8L11.7,176.8L11.7,176.8L11.7,176.8h0.1l0,0v0.1l0,0L11.7,176.8L11.7,176.8
		L11.7,176.8L11.7,176.8L11.7,176.8l0.1,0.1l0,0"/>
	<path class="st2" d="M7.4,195.2v-55.3"/>
	<path class="st2" d="M100.2,195.2v-55.3"/>
	<path class="st2" d="M7.4,195.2h92.8"/>
	<path class="st2" d="M7.4,139.9h92.8"/>
</g>
<path class="st2" d="M242.2,139.9"/>
<path class="st2" d="M242.2,195.2"/>
<g>
	<rect x="209.3" y="139.9" class="st0" width="92.8" height="55.3"/>
	<path class="st1" d="M297.7,166L297.7,166h0.1l0.1-0.1l-1,0.1l-15.5,0.8l-13.1,0.7l-1.2-0.3l-1.2-0.4l-2.4-1.1l-6.6-3.2l-3.7-1.5
		l-6.4-2.7l-10.8-4.6h-0.5l-0.1,0.1l0.1,1.4v1.4l-0.1,4l0.1,8.8v5.8l0.1,3.2v2.7l0.3,0.4l0.3,0.2h0.4l0.7-0.2l3.2-1.3l9.3-4l8.8-3.5
		l11.3-4.9l0.3-0.4v-0.1l-0.2-0.2l-2.1-1.5l-4.2-3l-15.1-11.5l-2.3-1.5h-0.2l-0.9,0.7l-3,2.2l-3.7,2.6l-16.2,12.7l0.1,0.2l0.5,0.4
		l1.9,1.4l12.5,9.7l4.5,3.3l2.9,2.1l1.5,1.1h0.3l0.5-0.3l3.9-2.6l8.2-5.6l9.2-6.5l3.9-2.7l0.4-0.4v-0.3l-0.2-0.3l-0.7-0.7l-1.7-1.7
		l-1.8-2l-3.8-4.2l-9.4-9.8l-0.6-0.3h-0.5l-0.9,0.2l-7.9,2.3l-6.6,1.7l-12.5,3.4l-0.7,0.4l-0.2,0.3l-0.1,0.5l0.1,1.7l0.2,4.5v15.2
		l0.1,0.7l0.2,0.5l0.4,0.3l0.6,0.2l4,0.9l15.1,3.9l8,1.8h0.8l0.5-0.1l0.6-0.4l1.2-1.1l5.1-4.8l3.2-3.1l5.4-5.1l3.7-3.6l0.5-0.6
		l0.1-0.5l-0.1-0.4l-0.3-0.5l-1.1-1.4l-3-3.8l-5.3-7.2l-3.5-4.6l-0.5-0.5l-0.7-0.4l-0.5-0.1l-1.1-0.1l-3.2,0.2l-4.9,0.2h-7.2h-10.7
		l-0.8,0.2l-0.5,0.3l-0.4,0.5l-7.3,10.5l-5,7l-0.1,0.5l0.1,0.4l0.3,0.6l1,1.2l2.9,3.7l3,4.2l1.9,2.7l4.1,5.4l0.5,0.3l0.7,0.2
		l0.8,0.1l1.7-0.1l2.6-0.1l4.6,0.1l5.3,0.1h11.2l1.1-0.1l0.8-0.3l0.5-0.3l0.8-0.8l2.1-2.6l2.2-2.5l9.8-11.2l0.3-0.6l0.1-0.5v-0.4
		l-0.2-0.6l-0.8-1.2l-1.6-2.5l-3.5-5.9l-3.6-6.2l-0.8-1.1l-0.5-0.5l-0.6-0.3l-1-0.3l-1.9-0.3l-3.8-0.5l-5.1-0.7l-13.7-2.3l-1,0.2
		l-0.9,0.4l-1.1,0.7l-4.2,2.9l-7.4,4.7l-5.6,3.7l-0.5,0.5l-0.3,0.5l-0.2,0.7v1.1l0.1,5.7v10.9l0.2,0.6l0.3,0.5l0.6,0.6l1,0.7l9.9,6
		l6,3.8l2.1,1.3l0.7,0.2l0.7,0.1l1.2-0.1l2-0.4l3.4-0.7l5.3-0.8L265,187l0.7-0.3l0.7-0.5l0.7-0.8l3.8-5.3l2.9-3.9l2.8-3.7l2.4-3.2
		l0.4-0.7l0.1-0.6v-0.6l-0.3-0.8l-0.8-1.3l-1.5-2.5l-2-3.6l-3-5.8l-0.9-1.8l-0.4-0.7l-0.6-0.5l-0.8-0.5l-1-0.4l-2.3-0.7l-3.9-1.1
		l-14.7-4.7h-0.8l-1,0.1l-1.4,0.4l-13.3,4.6l-6.4,2.1l-0.7,0.4l-0.7,0.6l-0.6,0.8l-0.7,1.2l-1.4,3.1l-1.2,2.4l-3.9,7.1l-0.9,1.7
		l-0.1,0.6v0.6l0.2,0.8l0.5,1.1l3.6,6.2l1.2,2.2l2.9,5.4l0.8,1.3l0.5,0.5l0.6,0.4l0.9,0.4l1.7,0.5l4,1.2l14.1,4.2l1.2,0.3h0.8l1-0.1
		l1.6-0.4l4.5-1.5l5.7-1.8l9.7-3l0.9-0.5l0.8-0.7l0.7-0.9l1.1-1.8l3.1-5.1l3.6-5.4l2.2-3.1l0.4-0.1h0.9h1.1l1.8-0.2l3.5-0.6l8.1-1.3
		l0.7-0.1l-0.1,0.1v0.2l0,0l0,0h-0.1l-0.1-0.1l-0.1-0.2L297.7,166h0.1h-0.4H297.7L297.7,166L297.7,166L297.7,166h-0.2h-0.1l0,0"/>
	<path class="st2" d="M209.3,195.2v-55.3"/>
	<path class="st2" d="M302.1,195.2v-55.3"/>
	<path class="st2" d="M209.3,195.2h92.8"/>
	<path class="st2" d="M209.3,139.9h92.8"/>
</g>
<g>
	<rect x="310.3" y="139.9" class="st0" width="92.8" height="55.3"/>
	<path class="st1" d="M350.3,192.6h0.3H350.3L350.3,192.6l0.7-1.4l0.8-1.4l0.9-1.4l1.1-0.9l0.4-0.4v-0.2l-0.2-0.2l-0.6-0.4l-2-1
		l-3.1-1.6l-2.5-1.5l-2.7-1.7l-5.1-3.4l-6.4-4l-6.7-4.1l-10.3-6.4l-0.1-0.3l0.1-0.2l0.4-0.3l2-1l6.3-3.2l10.3-5.4l8.6-4.7l5.9-3.2
		l3.4-1.7l0.9-0.2h0.5l0.6,0.3l2.5,1.6l7.9,5.1l6.1,4.1l28.2,18.3l0.4,0.5l0.1,0.3l-0.1,0.2l-0.5,0.3l-4.9,2.9l-2.4,1.5l-6.5,3.7
		l-4.6,2.6l-8.4,5l-3.7,2.2l-1,0.5l-0.8,0.2h-0.5l-0.6-0.2l-1.6-0.9L343,177.9l-17.3-10.2l-8.2-5l-0.1-0.3l0.1-0.2l0.4-0.3l2.9-1.4
		l12.3-6.3l10.8-5.8l7-3.8l1.1-0.4h0.5l0.4,0.2l1.2,0.8l2.8,1.8l4.5,2.9l11.6,7.7l8.8,5.6l10,6.3l3.6,2.3l0.5,0.5l0.1,0.2l-0.1,0.2
		l-0.6,0.4l-4,2.4l-3.3,2l-3.9,2.1L378,183l-4.6,2.7l-6.3,3.6l-0.8,0.2h-0.5l-0.5-0.1l-0.8-0.4l-7.1-4.5l-6.8-4.2l-6.9-4.1l-9.8-5.6
		l-4.8-2.9l-5.6-3.4l-2.4-1.6l-0.1-0.3l0.1-0.2l0.5-0.3l1.5-0.8l6.3-3.2l9.8-5.1l8-4.4l4.1-2.2l0.9-0.3h0.4l0.5,0.2l0.9,0.6l3.3,2.2
		l4.9,3.2l15.1,10.1l5.4,3.5l5,3.1l4.7,3.2l0.2,0.3l-0.1,0.2l-0.4,0.2l-2.5,1.4l-8.9,5.3l-6.7,3.7l-6.9,4l-0.9,0.3l-0.6,0.1
		l-0.6-0.1l-0.8-0.4l-3.3-2.1l-17.6-11l-7-4.1l-10.2-5.8l-2.4-1.5v-0.2l0.2-0.2l0.7-0.4l3.8-2l11.4-6.1l9-4.8l1.5-0.8l1-0.3h0.6
		l0.4,0.2l6.5,4.1l3.3,2.2l5,3.5l3.7,2.5l4.7,2.9l5.2,3.3l7.6,5.1l0.5,0.5l0.1,0.3l-0.1,0.2l-0.5,0.3l-12.1,7.2l-7.4,4.2l-1.7,0.9
		l-0.8,0.3h-0.5l-0.5-0.1l-0.9-0.5l-4.6-2.8l-5.7-3.5l-10.1-6.2l-6.7-3.9l-9.2-5.4l-0.9-0.6l-0.1-0.2l0.1-0.2l0.4-0.3l1.7-0.9
		l3.7-1.9l15.2-8.2l1.4-0.7l1.1-0.3h0.6l0.5,0.2l1.4,0.9l2.9,1.9l3.8,2.4l9.7,6.5l15.7,10.2l0.1,0.3l-0.1,0.2l-0.6,0.4l-4.7,2.8
		l-10.4,6.1l-11.6,6.5l-1,0.5l-1.3,0.7l-4.7,3l-0.5,0.1l-0.3-0.1v-0.1h0.2l0.4,0.1h-0.1l-0.4-0.1h0.1h0.2L350.3,192.6L350.3,192.6
		l-0.1-0.1l-0.1,0.1H350.3L350.3,192.6L350.3,192.6l-0.3-0.1l0,0L350.3,192.6L350.3,192.6L350.3,192.6"/>
	<path class="st2" d="M310.3,195.2v-55.3"/>
	<path class="st2" d="M403,195.2v-55.3"/>
	<path class="st2" d="M310.3,195.2h92.8"/>
	<path class="st2" d="M310.3,139.9h92.8"/>
</g>
<g>
	<rect x="412.2" y="139.9" class="st0" width="92.8" height="55.3"/>
	<path class="st1" d="M439.5,192.5L439.5,192.5L439.5,192.5h0.1l0,0H439.5l-0.2-0.1L439.5,192.5h-0.3l-0.2-0.1l-0.2-0.4l-0.7-1.7
		l-0.7-2.2l-1.8-6.7l-6.2-19.9V161l0.1-0.2l0.4-0.2l1.3-0.4l9.9-3.2l8.4-3l6.2-2.2l16.5-5.8l5.1-1.8l5.2-1.7h0.3l0.2,0.3l0.8,1.1
		l1.2,1.7l5.8,7.5l6.2,8.3l-0.1,0.2l-0.3,0.1l-6,2l-5.3,1.8l-6.4,2.1l-27.4,9.4l-1.4,0.4h-0.4l-0.3-0.2l-0.4-0.4l-1.5-2.1l-2.8-3.8
		l-5.9-7.4l-2.2-2.7l-0.1-0.4l0.3-0.1l10.4-3.3l19.5-6.9l5.5-2l8.2-2.8h0.4l0.2,0.2l2.1,3l7.4,9.6l1.7,2.2l0.1,0.3l-0.1,0.2
		l-0.5,0.2l-9.8,3.3l-9.8,3.4l-21.1,7l-0.3-0.1l-0.3-0.3l-0.7-1l-3.2-4.6l-1.9-2.5l-3.7-4.8v-0.2l0.1-0.1l0.6-0.2l9-2.9l28.5-9.8
		l0.4,0.1l0.2,0.2l1,1.3l3.8,4.8l4,5.2v0.3l-0.2,0.2l-0.7,0.3l-7.7,2.6l-16.4,5.7l-7.6,2.6l-3,1h-0.5l-0.3-0.2l-0.5-0.7l-1.3-2
		l-0.2-0.6v-0.2l0.2-0.2l0.7-0.2l3.5-1.1l23.4-7.8l9.3-3.3l6.8-2.3l6.9-2.5l0.1-0.2l-0.1-0.2l-3-3.8l-0.3,0.1L496,148l-2.9,1.2
		l-4.5,1.7l-16.3,5.9l-9.3,3.3l-11.5,4.2l-4.1,1.6l-0.7,0.5l-0.5,0.6l-0.7,1.2l-2.4,4.7l-1.6,2.6l-1.6,2.6l-3.9,6.4l-2.1,3.5
		l-1.6,2.8l-0.4,0.2l-0.5,0.1l-0.3-0.1l-0.4-0.3l-0.6-0.9l-4.9-7.6l-3-4.1l-4-5.5l-1.3-1.9l0.1,0.1l0.5,0.4l3.8,3.8l4.1,4.1l6.9,6.5
		l2.6,2.4l4.7,4.4l0.3,0.3l0,0l-0.1,0.2l0,0h0.1L439.5,192.5v0.1l0.1,0.1l0.1-0.1v-0.2L439.5,192.5L439.5,192.5h0.1H439.5
		L439.5,192.5l-0.1,0.1l0,0"/>
	<path class="st2" d="M412.2,195.2v-55.3"/>
	<path class="st2" d="M505,195.2v-55.3"/>
	<path class="st2" d="M412.2,195.2H505"/>
	<path class="st2" d="M412.2,139.9H505"/>
</g>
<g>
	<rect x="512.1" y="139.9" class="st0" width="92.8" height="55.3"/>
	<path class="st1" d="M516.5,171.7L516.5,171.7L516.5,171.7L516.5,171.7l0.6,0.6l2.5,2.8l4,4.8l10.2,12l0.3,0.6l0.3,0.1h0.9l3.1-0.1
		l3.6,0.1l19.2,0.2l3.8-0.1h3.3h9.1l0.9-0.1l0.6-0.3l0.5-0.5l1.1-1.4l2.7-3.2l12-13.8l5.5-6.6v-0.2l-0.2-0.3l-0.8-0.8l-5.1-4.8
		l-7.3-7.4L577,143.1l-0.5-0.2l-0.2,0.1l-0.4,0.4l-1.3,1.6l-2,2.5l-2.4,2.9l-1.9,2.3l-4.9,5.9l-3.1,3.8l-2.3,2.7l-1.7,2.1l-0.8,1.1
		v0.3l0.2,0.3l0.8,0.8l1.6,1.5l2.7,2.7l3.5,3.5l5.7,5.7l2.4,2.3l5.7,5.5l0.5,0.2l0.2-0.1l0.3-0.3l2.5-3l7-8.1l4.5-5.3l2.6-3.1
		l3.4-3.9l0.4-0.6v-0.3l-0.2-0.3l-0.9-0.8l-3.7-3.6l-4.3-4.4l-3.4-3.2l-9.6-9.6l-1.3-1.3l-0.6-0.3h-0.2l-0.3,0.2l-6.5,8.1l-2.7,3.3
		l-4.3,5.2L558,164l-2.5,3.3v0.2l0.2,0.3l22.2,22l0.5,0.3h0.3l0.3-0.2l0.7-1l1.2-1.4l17.2-20.1l0.3-0.6v-0.3l-0.2-0.3l-1-0.9
		l-3.2-2.9l-5.3-5.4l-3.4-3.3l-2.8-2.6l-2-1.9l-2.8-3l-1.9-1.9l-1.2-1.1l-0.8-0.4l-0.8-0.1h-1.4H562h-5.9h-24.6l0,0l0.2,0.5
		l-0.1,0.4l-0.5,1l-3.3,6l-2.2,4.1l-5.5,10.2l-1.1,2.2L516.5,171.7L516.5,171.7h-0.2H516.5L516.5,171.7L516.5,171.7L516.5,171.7
		L516.5,171.7L516.5,171.7L516.5,171.7v0.2l0,0"/>
	<path class="st2" d="M512.1,195.2v-55.3"/>
	<path class="st2" d="M604.9,195.2v-55.3"/>
	<path class="st2" d="M512.1,195.2h92.8"/>
	<path class="st2" d="M512.1,139.9h92.8"/>
</g>
<g>
	<rect x="611.1" y="139.9" class="st0" width="92.8" height="55.3"/>
	<path class="st1" d="M647.7,187.5L647.7,187.5L647.7,187.5L647.7,187.5h0.4l6.8-0.3l0.7-0.3l0.6-0.4l0.2-0.3l-0.1-0.2l-0.3-0.4
		l-1.1-0.8l-7.1-4.8l-2.8-2l-2.9-2l-4.8-3.6l-11.7-8.6l-4.2-3.1l-5.5-4l-0.5-0.5l-0.1-0.3l0.1-0.2l0.4-0.2l1.4-0.5l1.1-0.3h0.7
		l0.3,0.1l1.6,1.1l5.9,4.2l5.4,4l13.8,10.3l16.7,12.4l2.1,1.4l0.7,0.3h0.5l0.6-0.2l1.6-0.7l0.8-0.5l0.1-0.2l-0.1-0.2l-0.4-0.4
		l-1.6-1.2l-10.2-7.3l-10.2-7.6l-4.9-3.6L623,152.8v-0.2l0.3-0.2l1.3-0.4l1.6-0.4h0.7l0.4,0.1l0.6,0.4l1.8,1.4l4.1,3l6,4.3l6,4.4
		l10.7,8l1.8,1.3l4.4,3.1l10,7.3l0.7,0.3h0.4l0.5-0.2l1.8-1l0.2-0.3v-0.2l-0.2-0.3l-0.7-0.6l-2.2-1.6l-14.6-10.4l-6.1-4.5l-5.2-3.8
		l-6.2-4.4l-6.3-4.6l-3.1-2.2l-1.5-1.1l-0.1-0.2l0.1-0.1l0.6-0.2l2.1-0.6l1-0.1h0.7l0.4,0.2l0.7,0.5l2.7,2l4.6,3.1l5.5,4l15.2,11.3
		l3.2,2.4l13.3,9.6l0.9,0.4l0.6,0.1l0.4-0.1l1.2-0.6l0.9-0.6l0.2-0.2v-0.2l-0.2-0.3l-0.2-0.3l-2.3-1.6l-8.3-5.8l-5.3-4l-3.9-2.8
		l-24.1-17.6l-1.7-1.2l-0.2-0.3v-0.2l0.3-0.2l1.3-0.4l1.5-0.3h0.7l0.5,0.2l0.9,0.7l2.5,1.9l3.5,2.4l4.8,3.4l34.2,24.9l0.6,0.2h0.5
		l0.5-0.2l1.6-0.8l0.5-0.4l0.1-0.2l-0.1-0.3l-0.3-0.3l-0.8-0.6l-17-12.1l-5.9-4.4l-3.8-2.7l-15.8-11.7l-2.8-2l-0.1-0.2l0.1-0.1
		l0.6-0.2l2-0.5l1.1-0.1l0.6,0.1l0.4,0.2l1.2,0.9l2.8,2.2l2.4,1.7l6.3,4.4l7.9,5.9l3.5,2.6l3.9,2.8l8,6l12.6,9.2l0.3,0.4v0.2
		l-0.3,0.2l-1.4,0.5l-3,1.2l-3.9,1.6l-4.8,2l-13.4,5.3l-7.3,2.8h-0.4l-0.2-0.1l-0.3-0.3l-0.5-0.3l-1-0.4l-2.3-0.6l-9.2-2.4l-4.3-1.3
		h0.1l0.2,0.1v0.2l0,0h-0.1h0.3l0,0h-0.1l0,0l0,0h0.2l0,0h-0.1l0,0L647.7,187.5L647.7,187.5L647.7,187.5L647.7,187.5L647.7,187.5
		L647.7,187.5"/>
	<path class="st2" d="M611.1,195.2v-55.3"/>
	<path class="st2" d="M703.8,195.2v-55.3"/>
	<path class="st2" d="M611.1,195.2h92.8"/>
	<path class="st2" d="M611.1,139.9h92.8"/>
</g>
<g>
	<rect x="712" y="139.9" class="st0" width="92.8" height="55.3"/>
	<path class="st1" d="M722.3,142.5L722.3,142.5h0.2v0.1l0.1,0.1l0.4,0.3l3,2l4.5,2.9l7.1,4.6l34.3,22.5l16.3,10.7l8.5,5.5l1.1,0.8
		l0.1,0.2l-0.1,0.3l-0.2,0.2l-0.4,0.1h-1l-5.5-0.2h-6.3l-13.1,0.1h-12.6l-29.6-0.1l-12.1-0.1l-0.4-0.1l-0.1-0.2l0.1-0.4l0.4-1.7
		l0.4-1.8l0.2-0.2l0.3-0.1h1l14.1,0.1h20.3h19.1L799,188l0.2-0.2l0.1-0.3l0.1-3.6l-0.1-0.2l-0.3-0.1h-0.7l-3.7,0.1l-5.7,0.1
		l-13.9-0.1h-19.9h-11h-24.7l-2.3-0.1l-0.4-0.2l-0.1-0.2l0.1-0.5l0.3-1.3l0.4-2.1l0.2-0.2l0.5-0.1h1.2l8,0.1l72.3-0.1l0.1-0.2v-0.3
		V177l0.2-2.2l-0.2-0.3l-0.3-0.1h-1l-7.1,0.1h-22.4l-19.8-0.1h-15.3h-16.2l-0.5-0.1l-0.1-0.2v-0.3l0.8-3.7l0.3-0.2l0.4-0.1h1.1
		l10.9,0.1h21.9h47.4l0.4-0.1l0.1-0.2v-0.5l0.1-1.8l0.1-1.6l-0.1-0.3l-0.3-0.1h-0.5H797l-11.6,0.2l-27-0.1h-41l0.4-0.1l0.1-0.4
		l1.6-7.2l1.3-6.8l0.6-3.2l1-4.9l0.2-0.2l0,0v0.1L722.3,142.5L722.3,142.5L722.3,142.5L722.3,142.5L722.3,142.5l0.1-0.1L722.3,142.5
		l0.2,0.1h-0.1l0,0l0,0"/>
	<path class="st2" d="M712,195.2v-55.3"/>
	<path class="st2" d="M804.8,195.2v-55.3"/>
	<path class="st2" d="M712,195.2h92.8"/>
	<path class="st2" d="M712,139.9h92.8"/>
</g>
<rect x="7.4" y="77.3" class="st0" width="92.8" height="55.3"/>
<path class="st1" d="M11.7,113.8v-0.3h-0.1l0,0L11.7,113.8L11.7,113.8l0.2,0.2l1.1,1.4l2.2,2.7l5,6l4.4,5.1l0.7,0.5l0.7,0.2l1,0.1
	l2.6-0.1l3.2-0.1h11l7-0.2l12.3,0.1l3.7-0.1h4.4l4.9-0.1l1.2-0.3l1.9-0.7l3.2-1.3l1.3-0.6l1.1-0.7l1.4-1.2l3.6-3.3l0.8-1l0.9-1.3
	l1.3-2.4l1.6-3.2l0.4-1.3l0.3-1.6l0.5-3.2l0.3-2.6l-0.1-1.8l-0.2-1.6L94.7,97l-0.4-1.3l-0.6-1.5l-1.4-2.6l-1.4-2.3l-1-1.3l-1.1-1.1
	L87,85.4l-3.4-2.7l-1.1-0.6l-2-0.8l-4-1.4l-1.3-0.3l-1.6-0.1l-2.4,0.1l-3.1,0.5l-1.3,0.3l-1.5,0.5l-3.7,1.6l-1.2,0.6l-1.1,0.7
	L57.9,85L55,87.7l-0.9,1l-0.8,1.1l-0.8,1.4l-2.3,4.5l-0.3,1l-0.2,1l-0.1,1.6l0.1,6l0.2,1.9l0.7,4L51,113l0.5,1.3l0.9,1.7l2.3,3.9
	l0.9,1.2l1.1,1.2l1.8,1.6l2.2,1.8l1.1,0.6l1.4,0.6l3.8,1.5l1.2,0.4l1.2,0.2l1.3,0.1l2.5-0.1l3.1-0.2l1.4-0.4l2.7-1l2.7-1.1l1-0.6
	l1.4-1l2.3-2l2.2-2l0.8-1l0.8-1.3l1.9-3.7l0.5-1.2l0.4-1.5l0.3-1.8l0.7-5.1l-0.1-1.6l-0.3-2.4l-0.7-3.7l-0.5-1.5L93,94.3l-1.1-2
	l-1.7-2.6l-0.8-1l-1.5-1.4l-3-2.5l-1.1-0.7l-1.1-0.6l-1.9-0.8l-3.5-1.2l-1.4-0.4L74.6,81l-2.3,0.1L68,81.4l-1.5,0.4l-1.8,0.6
	L62,83.6l-1.2,0.7l-1.2,0.8l-1.4,1.3l-2.9,2.9l-1,1.3L53.5,92l-1.9,3.7l-0.4,1l-0.2,1l-0.2,1.7l-0.1,3.6v1.6l0.2,1.6l0.6,3.5
	l0.7,3.3l0.5,1.2l1,1.9l1.7,3l0.8,1.1l0.9,1l1.6,1.4l3.5,2.7l1.3,0.6l2.4,0.9l2.9,0.9l1.2,0.2h1.8l4.2-0.1l1.2-0.3l1.6-0.6l4.5-1.9
	l1-0.7l1.5-1.3l2.9-2.6l0.8-1l1-1.5l2.2-4l0.5-1.2l0.4-1.5l0.3-1.5l0.5-4.3v-1.3l-0.2-1.8l-0.8-4.4l-0.5-1.5l-0.8-1.7l-1-1.8
	l-1.7-2.6l-1-1.1L87.1,88l-2.2-1.7l-1.2-0.9l-1.3-0.7l-1.9-0.8L77,82.6l-1.3-0.3l-1.3-0.1h-2.1L69,82.3l-1.3,0.3L66.4,83l-2.5,1
	l-2,1l-1.2,0.7l-1.5,1.2l-2.4,2.2L55.9,90l-0.8,1.1l-0.8,1.4L52.5,96l-0.4,1l-0.3,1.4l-0.2,1.6v3.3v1.6l0.2,1.9l0.8,4.3l0.3,1.3
	l0.5,1.3l0.6,1.2l2.6,4.2l0.9,1l2.3,2.2l1.6,1.3l1.1,0.7l1.4,0.7l2.4,0.9l2.6,0.8l1.2,0.2l1.5,0.1l4-0.1l1.2-0.2l1.4-0.4l1.6-0.7
	l3.3-1.5l1.2-0.9l1.5-1.3l2.2-2.1l0.8-1l1-1.5l1.5-2.8l0.7-1.6l0.4-1.5l0.4-2.1l0.5-3.7V104l-0.2-1.8l-0.8-3.9L91.9,97l-0.6-1.4
	L90,93.3L88.6,91l-1.1-1.2l-1.4-1.2l-2.9-2.3l-1.1-0.7L80.7,85l-2.4-0.9l-1.8-0.5l-1.6-0.5L73.3,83l-3,0.1L69,83.2l-1.3,0.3L66,84
	l-3.1,1.3L61.7,86l-1.4,1L59,88.1l-2.2,2.1L56,91.3l-0.7,1.2l-1.5,3L53.2,97l-0.3,1l-0.2,1.3v1.6l0.2,4.4l0.4,2.7l0.6,3.1l0.5,1.5
	l0.7,1.4l1.2,2.1l1.4,2.2l0.8,1l1.3,1.2l3,2.4l1.1,0.6l1.4,0.6l2.7,1l1.2,0.3l1.2,0.2l1.8,0.1l3.2-0.1l1.2-0.2l1.2-0.4l3.6-1.4
	l1.1-0.5l1.2-0.8l1.3-1.1l2.1-2.1l0.8-0.9l0.9-1.3l1.1-2.1l1.1-2.3l0.4-1.2l0.4-1.5l0.7-3.9l0.1-1.3l-0.1-1.3l-0.5-2.7l-0.6-2.7
	l-0.6-1.6L90,94.5l-1.2-2.2L88,91.2l-0.9-1l-1.4-1.3l-2.3-1.8l-1.1-0.7l-1.4-0.7l-2.2-0.8l-2.3-0.7L75.1,84l-1.9-0.1L70,84l-7,0.2
	H51.7h-5l-8.2-0.1L35.6,84l-4,0.1l-5.8,0.3l-0.1,0.3l-0.3,1.9l-0.6,1.5l-1.1,2.2L11.7,113.8L11.7,113.8L11.7,113.8L11.7,113.8
	l0.1,0.1L11.7,113.8L11.7,113.8L11.7,113.8l-0.1,0.2l0,0"/>
<path class="st2" d="M7.4,132.6V77.3"/>
<path class="st2" d="M100.2,132.6V77.3"/>
<path class="st2" d="M7.4,132.6h92.8"/>
<path class="st2" d="M7.4,77.3h92.8"/>
<g>
	<rect x="108.1" y="77.3" class="st0" width="92.8" height="55.3"/>
	<path class="st1" d="M112.6,111.3L112.6,111.3L112.6,111.3l-0.3,0.1l0,0h0.1L112.6,111.3L112.6,111.3L112.6,111.3L112.6,111.3
		L112.6,111.3L112.6,111.3L112.6,111.3L112.6,111.3L112.6,111.3L112.6,111.3L112.6,111.3h0.5l9,0.8l3.3,0.1l0.5-0.2v-0.2l-0.2-1.4
		v-1.1l0.1-2l0.2-14l0.1-2.1v-2.1v-2.2l0.2-7l0.1-0.1l0.6,0.1l2.3,0.1h3.8l10.9-0.1h12.2l6.1,0.1h15.2h4.5h8.7h5.3l0.2,0.1l-0.1,0.1
		l-0.9,0.4l-5.8,2.6L179,88l-22.9,10.4l-3.4,1.6l-10.2,4.5l-3.3,1.7l-0.4,0.3v0.1l0.4,0.2l1.2,0.5l3.9,1.6l7.3,2.8l11.4,4.4l5.5,2.3
		l12.8,5.3l3.5,1.5l10.1,4l1.8,0.8v0.1l0,0h-0.5h-2.4l-5.1-0.1l-37.4-0.1l-12.2-0.1l-0.1-0.1l0,0l0.2-0.1l1.9-0.7l2.6-1.1l5.9-2.7
		l3.8-1.7l2.8-1.2l8.4-3.4l11.3-4.8l18.2-7.9l0.3-0.3l-0.1-0.1l-2.4-0.8L180,100l-10.8-4.4l-7.2-3l-11.5-4.8l-5-2l-6.2-2.5l-7.3-3.2
		l-0.3,0.1l-0.1,0.1v0.3l0.5,2.9l0.5,2.9l3.7,23.6l0,0l-0.6-0.2h-0.9l-4.3,0.2l-9.5,0.7l-8.1,0.5L112.6,111.3l0.3-0.1L112.6,111.3
		L112.6,111.3L112.6,111.3L112.6,111.3L112.6,111.3L112.6,111.3L112.6,111.3L112.6,111.3"/>
	<path class="st2" d="M108.1,132.6V77.3"/>
	<path class="st2" d="M200.9,132.6V77.3"/>
	<path class="st2" d="M108.1,132.6h92.8"/>
	<path class="st2" d="M108.1,77.3h92.8"/>
</g>
<rect x="208.7" y="77.3" class="st0" width="92.8" height="55.3"/>
<path class="st1" d="M297,104.1h0.1h-0.3H297l-0.1-0.1l0,0L297,104.1L297,104.1l-5.1,0.2l-4.4,0.2l-9.2,0.1l-9,0.1l-1.3-0.3
	l-1.7-0.6l-2-0.9l-6.1-2.7l-19.8-8.4l-2.3-0.8h-0.6v0.1l0.1,1l0.1,1.5l-0.1,6.3l-0.1,4.3l-0.1,4.6l-0.1,6.4l0.2,3.4l0.3,0.3h0.2
	l0.5-0.2l1-0.5l2.8-1.2l7.5-3l18.5-7.2l4.7-2l0.1-0.1l-0.2-0.1l-5.7-3.7l-2.9-2.3l-4.5-3.5l-3.9-2.9l-7.8-5.8l-0.2,0.1l-0.6,0.6
	l-1.6,1.4l-2,1.6l-7.7,5.8l-5,3.8l-7.2,5.3l-0.2,0.3l0.1,0.1l0.9,0.6l2.7,1.8l2.5,2l2.9,2.2l10.5,7.8l3.9,2.8l0.9,0.6l0.5,0.1
	l0.3-0.1l0.5-0.3l2.7-2l3.3-2.3l10.9-7.3l3.4-2.3l5.4-3.7l0.4-0.4l-0.1-0.2l-0.3-0.6l-2-1.6l-2.3-2.1l-2.2-2.3l-11-11.9l-0.7-0.6
	l-0.4-0.2H254l-1.2,0.4l-2.6,0.8l-4.1,1.1l-7.7,1.9l-11.6,3l-1.4,0.4l-0.6,0.3l-0.3,0.3l-0.1,0.4v0.8l0.3,4.2v3.4v4.6l0.1,9.4
	l0.2,0.4l0.4,0.2l0.8,0.2l3.2,0.5l3.4,0.8l13.4,3.4l7.7,1.8h0.9l0.7-0.1l0.5-0.3l0.7-0.6l4.1-4l3-2.8l10.4-9.7l1-1.1l0.3-0.5v-0.3
	l-0.1-0.3l-0.5-0.7l-5.1-5.9l-6.4-8.5l-1.8-2.4l-0.5-0.5l-0.5-0.3l-0.6-0.1h-0.9l-2.1,0.1l-4.8,0.2h-5.4l-14.9,0.2l-0.7,0.3
	l-0.5,0.4l-0.6,0.7l-1.3,2l-1.7,2.5l-5.2,6.9l-3.8,5.1l-0.3,0.6l-0.1,0.5l0.1,0.5l0.3,0.6l0.6,0.8l3.1,3.6l2,2.7l2.8,3.8l2.6,3.2
	l2.6,3l0.6,0.3l0.7,0.1h1.4l7.2-0.1h19.2l0.6-0.2l0.6-0.5l0.7-0.8l1.4-2l1.7-2.2l3.2-3.7l1.7-1.8l2.2-2.3l4.1-4.8l0.3-0.6l0.1-0.5
	v-0.4l-0.3-0.5l-0.8-1.1l-1.9-2.4l-1.5-2.2l-2.4-3.9l-4.1-6.7l-0.5-0.5l-0.6-0.4l-0.8-0.3l-1.4-0.2L253,84.3l-8.8-1.5l-4.6-0.7
	l-0.7,0.1l-0.8,0.3l-1,0.6l-2.2,1.5l-3.9,2.5l-12.5,7.7l-0.4,0.5l-0.2,0.5l-0.1,0.8v1.2l0.3,4.4v2.9l-0.1,6.6l0.1,2.7l0.2,0.6
	l0.3,0.5l0.6,0.6l1.1,0.7l5.9,3.4l4.6,2.7l8.4,4.8l0.9,0.2h1l1.5-0.2l6-1.1l12.1-2.1l4.9-0.9l1-0.4l0.6-0.4l0.7-0.8l0.8-1.2l3.5-5.5
	l2.4-3.2l5.1-6.8l0.1-0.5v-0.5l-0.2-0.6l-0.6-1.1l-4-6.4l-1.5-2.9l-1.8-3.5l-1.2-1.9l-0.5-0.8l-0.9-0.5l-1.4-0.5l-2.6-0.7l-4.2-1.2
	l-11.3-3.5l-2.4-0.7l-1.2-0.1l-1.1,0.1l-1.4,0.4l-2.6,0.9l-5.6,2l-12.4,4.1l-0.7,0.4l-0.7,0.7l-0.5,0.8l-0.7,1.5l-1.6,3.4l-2.9,5.3
	l-2.9,5.2l-0.1,0.6l0.1,0.6l0.3,0.8l0.8,1.3l1.4,2.2l0.8,1.5l1.5,3.2l3,5.4l1.4,2.4l0.5,0.5l0.6,0.3l0.9,0.4l1.8,0.4l3.4,0.8
	l4.4,1.4l8.1,2.5l4.1,1.2h0.8l1-0.2l2-0.6l9.2-2.9l7.8-2.2l3.2-1.1l0.9-0.6l0.7-0.7l0.9-1.3l2.2-3.7l1.4-2.3l5-7.4l0.8-1.1l0.3-0.2
	l0.5-0.1h2.1l2.3-0.3l8.6-1.2l1.3,0.2l-0.1,0.1l-0.3,0.1l0.1-0.1v-0.1l0,0l-0.1-0.1l0,0L297,104.1L297,104.1L297,104.1L297,104.1
	L297,104.1L297,104.1L297,104.1h-0.3H297h-0.3"/>
<path class="st2" d="M208.7,132.6V77.3"/>
<path class="st2" d="M301.5,132.6V77.3"/>
<path class="st2" d="M208.7,132.6h92.8"/>
<path class="st2" d="M208.7,77.3h92.8"/>
<rect x="309.4" y="77.3" class="st0" width="92.8" height="55.3"/>
<path class="st1" d="M350.1,130l-0.1,0.1l0.1-0.3l1.6-3.9l0.5-0.8l0.9-0.9l0.3-0.4v-0.2l-0.4-0.3l-0.7-0.4l-5.1-2.5l-3.6-2.2
	l-6.9-4.3l-23-14.2l-0.1-0.3l0.1-0.2l0.4-0.3l1.7-0.9l12.7-6.4l13.6-7.1l8.9-4.7l0.7-0.2l0.4,0.1l0.6,0.4l10,6.3l9.5,6.2l16.2,10.4
	l8.7,5.6l0.6,0.5l0.1,0.3l-0.1,0.2l-0.5,0.4l-6.5,4l-4.3,2.4l-6.4,3.7l-14.4,8.1l-0.8,0.1l-0.5-0.1l-0.7-0.3l-3.3-2.1l-14.1-8.6
	l-11.1-6.5L317,100.1l-0.5-0.4v-0.2l0.1-0.2l0.6-0.4l23.6-12l10-5.2l0.6-0.1l0.5,0.1l0.7,0.4l9.6,6.2l6,3.9l7.6,4.9l8.4,5.2
	l10.1,6.4l0.7,0.6l0.1,0.2l-0.1,0.2l-0.6,0.4l-6.9,4l-19.6,11.1l-1.7,0.9l-0.8,0.3h-0.5l-0.5-0.1l-1-0.5l-2.6-1.5l-8.2-5.1l-5.3-3.2
	l-9.8-5.7l-8.9-5.2l-8.7-5.1l-0.2-0.3l0.1-0.2l0.4-0.3l1.4-0.7l6.2-3.1l7.1-3.6l15.4-8.1l0.8-0.2h0.5l0.6,0.3l2.1,1.3l4.2,2.8
	l5.3,3.6l16.2,10.4l3.7,2.3l5.8,3.8l1.7,1.2l0.2,0.3l-0.1,0.2l-0.5,0.3l-2.4,1.4l-4.1,2.5l-7.5,4.3l-6.5,3.7l-4.4,2.4l-0.7,0.1
	l-0.5-0.1l-0.8-0.3l-1.5-0.9l-4.3-2.6l-3.9-2.3l-11-6.7l-4.5-2.6l-10.6-6.1l-5-3.1v-0.2l0.2-0.2l0.9-0.4l2.9-1.4l5.7-3l7.1-3.8
	l4.7-2.5l5.4-2.8l0.9-0.3h0.4l0.5,0.2l1.4,0.9l3.2,2.1l8.6,5.6l11.5,7.4l10.8,6.9l1,0.8l0.2,0.3l-0.1,0.2l-0.4,0.3l-11.5,6.8
	l-10.6,5.8l-0.5,0.1l-0.5-0.1l-0.7-0.4l-10.4-6.4l-23.6-13.7l-3.7-2.2l-0.1-0.2l0.1-0.2L327,99l18.2-9.5l4.2-2.1l1.1-0.3h0.4
	l0.6,0.3l1.3,0.8l7.5,5l9.8,6.3l10,6.4l4.7,3.2v0.2l-0.3,0.2l-6.3,3.7l-11.9,6.8l-6.7,3.9l-3.4,2.1l-4.9,3.7l-0.8,0.2h0.3l0,0
	L350.1,130h-0.2l0,0l0.2-0.1V130L350.1,130L350.1,130l-0.1-0.1L350.1,130h0.1H350.1H350l0,0"/>
<path class="st2" d="M309.4,132.6V77.3"/>
<path class="st2" d="M402.2,132.6V77.3"/>
<path class="st2" d="M309.4,132.6h92.8"/>
<path class="st2" d="M309.4,77.3h92.8"/>
<rect x="410.1" y="77.3" class="st0" width="92.8" height="55.3"/>
<path class="st1" d="M437.6,129.9l0.2-0.1l0,0L437.6,129.9h-0.1l-0.1-0.1L437.6,129.9l-0.1,0.1h-0.4l-0.2-0.2l-0.5-0.8l-0.4-1
	l-0.4-1.5l-1-4l-0.9-2.9l-1.3-4l-3.7-12.5l-1.4-4.1v-0.5l0.1-0.2l0.3-0.2l1-0.3l3-0.9l14.8-5.2l4.8-1.7l6.6-2.3l6.9-2.5l15.3-5.3
	l0.6-0.1l0.2,0.1l0.3,0.4l1.1,1.6l2.2,2.9l1.5,2.1l3.9,5.4l4.7,5.8l0.3,0.6V99l-0.2,0.2l-0.9,0.3l-2.4,0.7l-4.4,1.6l-5,1.8
	l-16.1,5.5l-6.6,2.2l-5.3,2l-4,1.4l-1.7,0.4h-0.7l-0.4-0.2l-0.3-0.3l-1-1.5l-1.4-2l-2.4-3.1l-1.8-2.3l-2.4-3.1l-2-2.3l-1.3-1.6
	l-0.2-0.4l0.1-0.1L435,98l4.5-1.4l7.7-2.6l4.8-1.7l7-2.6l6.6-2.5l11.8-4.2l0.8-0.2l0.2,0.1l0.4,0.5l5.7,7.8l5,6.3l0.4,0.6v0.3
	l-0.2,0.2l-0.5,0.2l-2.8,0.8l-19.7,6.8l-18.1,6l-0.4-0.1l-0.3-0.3l-0.6-0.8l-3.9-5.5l-2.4-3.1l-2.6-3.6v-0.3l0.2-0.2l0.8-0.3
	l7.3-2.2l6.8-2.4l22.5-7.9l0.8-0.1l0.3,0.1l0.2,0.3l2.2,3.3l2.7,3.5l1.4,1.8l2.2,2.8v0.2l-0.3,0.2l-1.5,0.4l-3.1,1l-3.4,1.3
	l-4.2,1.5l-7.5,2.5l-5.4,1.8l-10.6,3.6h-0.4l-0.3-0.2l-0.4-0.5l-0.8-1.2l-0.8-1.4v-0.3l0.1-0.2l0.3-0.2l0.8-0.3l7.6-2.2l4.4-1.5
	l32.1-11.2l4.7-1.5l1-0.4l0.1-0.1l-0.1-0.2l-0.8-0.9l-1.2-1.4l-0.9-1.1l-0.4-0.3l-0.3,0.1l-3.3,1.6l-2.8,1.1l-3.7,1.3l-10.1,3.4
	l-8.8,3.2l-9.6,3.6l-11.7,4.3l-0.6,0.5l-0.5,0.6l-0.6,1.1l-2.3,4.4l-1.6,2.6l-2,3.5l-1.2,2l-2.2,3.3l-1.8,2.9l-1.4,2.6l-0.6,1
	l-0.4,0.2l-0.4,0.1l-0.4-0.1l-0.4-0.3l-0.5-0.6l-1.7-2.6l-2.4-3.9l-5-7.2l-3.4-4.6l-1-1.3l0.5,0.5l6.6,6.2l3,2.9l2.5,2.5l4.9,4.5
	l4.9,4.5L437.6,129.9L437.6,129.9l-0.3,0.1h0.5v0.1l0,0h-0.1h-0.1l0,0V129.9h0.2H437.6L437.6,129.9l0.1,0.1l0,0L437.6,129.9
	L437.6,129.9L437.6,129.9l-0.1,0.2l0,0"/>
<path class="st2" d="M410.1,132.6V77.3"/>
<path class="st2" d="M502.8,132.6V77.3"/>
<path class="st2" d="M410.1,132.6h92.8"/>
<path class="st2" d="M410.1,77.3h92.8"/>
<rect x="510.7" y="77.3" class="st0" width="92.8" height="55.3"/>
<path class="st1" d="M515,108.5L515,108.5l0.5,0.6l1.4,1.7l2.2,2.4l1.6,2l3.8,4.8l6.6,7.9l1.2,1.5l0.3,0.6l0.4,0.1h1.1l5.1-0.1
	l15.5,0.1h18h3.7l0.7-0.2l0.5-0.3l0.6-0.6l2.7-3.3l2.4-2.7l3-3.4l3.5-4.1l7-8.1l2.2-2.7l0.2-0.4v-0.2l-0.2-0.3l-1.5-1.4l-4.3-4.2
	l-5.4-5.4L584,89l-8.3-8.2l-0.5-0.1l-0.2,0.1l-0.4,0.4l-2,2.5l-3.2,4l-6.3,7.5l-2.7,3.2l-6.1,7.6l-0.1,0.4l0.1,0.3l0.4,0.5l2.9,2.7
	l5,4.9l14,13.8l0.5,0.2h0.3l0.3-0.2l6.8-7.7l6.6-7.8l3.9-4.6l3.3-4.1v-0.3l-0.2-0.3l-0.9-0.8l-2.6-2.4l-12.1-12.1l-3.9-3.8l-3-3
	l-0.9-0.8l-0.5-0.2h-0.3l-0.3,0.2l-0.6,0.7l-4,5.1l-11.6,14l-2.8,3.5l-0.5,0.8v0.3l0.2,0.3l0.7,0.7l4.3,4.1l9.6,9.6l7.5,7.4l0.5,0.3
	l0.4,0.1l0.3-0.1l0.3-0.3l2.1-2.5l17.2-20.1l0.1-0.3l-0.2-0.3l-0.6-0.6l-4.8-4.5l-3.2-3.2l-2.7-2.6l-8.2-8.1l-3.7-3.8l-0.6-0.5
	l-0.7-0.3l-0.8-0.1l-2.1,0.1l-5.3,0.1l-28.6-0.3l-5.4,0.1v0.1l0.2,0.3l-0.1,0.3l-0.5,0.9l-2.6,4.7l-4.5,8.1l-2.5,4.6l-3.3,5.9
	l-1.7,3.2l-0.2,0.2L515,108.5L515,108.5L515,108.5L515,108.5L515,108.5L515,108.5L515,108.5L515,108.5L515,108.5L515,108.5
	L515,108.5"/>
<path class="st2" d="M510.7,132.6V77.3"/>
<path class="st2" d="M603.5,132.6V77.3"/>
<path class="st2" d="M510.7,132.6h92.8"/>
<path class="st2" d="M510.7,77.3h92.8"/>
<rect x="611.4" y="77.3" class="st0" width="92.8" height="55.3"/>
<path class="st1" d="M651.4,122.9l-0.3,0.1l0.5-0.1l0.3,0.1l2,0.6l2.1,0.5h0.6l0.3-0.2v-0.1l-0.3-0.3l-3.4-2.4l-3.1-2.2l-5-3.5
	L618.8,96l-3.2-2.5v-0.1l0.2-0.1l0.9-0.3l1.6-0.4l1-0.1l0.5,0.1l0.6,0.3l8.5,6.1l4.9,3.6l6.3,4.8l5.1,3.8l14.1,10.5l5.4,4l0.9,0.5
	l0.6,0.2h0.4l0.8-0.3l1.9-0.8l0.3-0.2v-0.2l-0.2-0.3l-0.7-0.6l-7.7-5.5l-2.4-1.7l-10.9-8.1l-4-3l-4.9-3.7l-7.4-5.5l-6.3-4.6
	l-1.5-1.2l-0.1-0.3l0.1-0.1l0.8-0.3l1.3-0.4l1.1-0.2h0.5l0.4,0.2l0.6,0.4l1.9,1.5l4,2.8l5.8,4.1l13.1,9.8l2.1,1.5l4.5,3.3l7.8,5.9
	l6,4.1l0.6,0.2h0.5l0.6-0.2l1.7-0.9l0.2-0.3v-0.2l-0.2-0.3l-0.7-0.6l-3.2-2.2l-6.9-4.7l-2.1-1.5l-4.5-3.4l-8-6l-4.7-3.5l-14.4-10.5
	l-1.4-1l-0.2-0.3l0.1-0.1l0.7-0.2l2-0.5l1.2-0.1l0.4,0.1l0.4,0.2l6.5,4.8l5.1,3.7l22.9,16.8l6.4,4.9l3.9,2.8l0.9,0.4l0.6,0.1
	l0.5-0.1l1.1-0.4l1-0.5l0.3-0.3l0.1-0.2l0.1-0.9l-0.4-0.4l-1.7-1.3l-4.1-2.8l-3.4-2.3l-5.5-4l-5.2-3.8l-3.6-2.7l-4-3l-15.2-11.2
	l-2.6-1.9l-0.5-0.5l-0.1-0.2l0.1-0.1l0.7-0.2l1.8-0.4l1-0.1l0.5,0.1l0.5,0.2l1.3,1l5.5,4.1l8.3,5.9l5.1,3.8l5.1,3.8l2.8,2.1l5.9,4.3
	l3.4,2.5l7.5,5.5l1,0.5l0.6,0.2l0.4-0.1l0.8-0.3l1.5-0.7l0.4-0.4v-0.2l-0.2-0.3l-0.7-0.6l-2.3-1.7l-4.5-3.2l-6.8-4.7l-2.4-1.9
	l-4.4-3.4l-9.7-7.2l-3.7-2.7l-10.9-8.1l-0.5-0.5V81l0.2-0.1l0.8-0.3l1.2-0.3l1.1-0.2l0.5,0.1l0.4-0.1l1,0.7l4.4,3.3l3.6,2.5l3.2,2.3
	l8.2,6l4.4,3.2l23.5,17.4l0.7,0.7v0.2l-0.3,0.2l-2.7,1l-4.1,1.6l-5.4,2.2l-9.1,3.6l-6,2.4l-6.3,2.4h-0.4v-0.3l-0.1-0.2l-0.4-0.3
	l-0.9-0.5l-2.2-1.1l-8.5-3.8l-2.4-1l0.2,0.2L651.4,122.9L651.4,122.9l0.2-0.1h0.1h-0.1h0.1l0,0h-0.4L651.4,122.9L651.4,122.9
	L651.4,122.9L651.4,122.9L651.4,122.9L651.4,122.9L651.4,122.9l0.3-0.1l0,0v-0.1l0,0"/>
<path class="st2" d="M611.4,132.6V77.3"/>
<path class="st2" d="M704.1,132.6V77.3"/>
<path class="st2" d="M611.4,132.6h92.8"/>
<path class="st2" d="M611.4,77.3h92.8"/>
<rect x="712" y="77.3" class="st0" width="92.8" height="55.3"/>
<path class="st1" d="M722.3,79.8L722.3,79.8h0.2v0.1l0.1,0.1l0.4,0.3l3,2l4.5,2.9l7.1,4.6l34.3,22.5l16.3,10.7l8.5,5.5l1.1,0.8
	l0.1,0.2l-0.1,0.3l-0.2,0.2l-0.4,0.1h-1l-5.5-0.2h-6.3l-13.1,0.1h-12.6l-29.6-0.1l-12.1-0.1l-0.4-0.1l-0.1-0.2l0.1-0.4l0.4-1.7
	l0.4-1.8l0.2-0.2l0.3-0.1h1l14.4,0.1h20.3h19.1l26.6-0.1l0.2-0.2l0.1-0.3l0.1-3.6l-0.1-0.2l-0.3-0.1h-0.7l-3.7,0.1l-5.7,0.1
	l-13.9-0.1h-19.9h-11h-24.7l-2.3-0.1l-0.4-0.2l-0.1-0.2l0.1-0.5l0.3-1.3l0.4-2.1l0.2-0.2l0.5-0.1h1.2l8,0.1l72.3-0.1l0.1-0.2v-0.3
	v-1.5l0.2-2.2l-0.2-0.3l-0.3-0.1h-1l-7.1,0.1h-22.4l-19.8-0.1h-15.3h-16.2l-0.5-0.1l-0.2-0.2v-0.3l0.8-3.7l0.3-0.2l0.4-0.1h1.1
	l10.9,0.1h21.9H800l0.4-0.1l0.1-0.2v-0.5l0.1-1.8l0.1-1.6l-0.1-0.3l-0.3-0.1h-0.5h-2.6l-11.6,0.2l-27-0.1h-41l0.4-0.1l0.1-0.4
	l1.6-7.2l1.3-6.8l0.6-3.2l1-4.9l0.2-0.2l0,0V80L722.3,79.8L722.3,79.8L722.3,79.8L722.3,79.8L722.3,79.8L722.3,79.8L722.3,79.8
	l0.2,0.1L722.3,79.8L722.3,79.8L722.3,79.8"/>
<path class="st2" d="M712,132.6V77.3"/>
<path class="st2" d="M804.8,132.6V77.3"/>
<path class="st2" d="M712,132.6h92.8"/>
<path class="st2" d="M712,77.3h92.8"/>
<g>
	<rect x="7.4" y="14.6" class="st0" width="92.8" height="55.3"/>
	<path class="st1" d="M12,50.9L12,50.9L12,50.9v-0.2V50.9l0.5,0.5l3.8,4.2l2.7,3.1l3.1,3.8l3.5,3.9l0.7,0.5l0.7,0.3l0.9,0.2h1.3
		l3.6-0.1l14.1,0.1l10.6-0.1h7.3h3.1h7.8l1.2-0.1l1.2-0.3l1.6-0.6l4.1-1.8l1.1-0.6l1.2-0.9l1.7-1.6l2.7-2.7l0.8-1l1-1.6l1.3-2.6
		l1.1-2.4l0.4-1.3l0.4-2.1l0.6-4.3l0.1-1.3l-0.1-1.6l-0.3-2.2L94.9,34l-0.5-1.3L93.6,31l-1.5-2.8l-1-1.6l-0.8-1L89,24.3l-2.2-1.9
		l-2.6-2.1L83,19.7L81.3,19l-2.2-0.9l-2.5-0.8l-1.3-0.2h-1.7L71,17.2l-2,0.2l-1.3,0.3l-1.5,0.4l-2.7,1.1l-2.4,1.1L60,21.1l-1.2,1
		l-4,3.9L54,27.1l-1,1.6l-1.9,4l-0.3,1l-0.2,1L50.5,36v5.1l0.2,2.1l0.3,2.1l0.9,4.8l0.4,1.2l0.8,1.7l1.9,3.5l0.7,1.1l0.8,1l1.1,1.1
		l1.9,1.7l1.9,1.6l1.1,0.7l1.4,0.6l4.1,1.5l1,0.3l1.4,0.2h1.9l3.9-0.1l1.1-0.2l1.6-0.5l2.4-1l2.8-1.3l1.2-0.8l1.5-1.3l3.1-3l0.8-1
		l0.9-1.5l1.3-2.5l1-2.4l0.4-1.5l0.4-2.1l0.6-4.3v-1.4l-0.2-1.9l-0.5-2.6L94,34.4l-0.6-1.5L92.5,31l-2-3.5l-0.8-1l-1.1-1.1L87,24
		l-2.8-2.3L83,20.8l-1.7-0.7l-2.2-0.8l-2.2-0.7l-1.3-0.2l-1.8-0.1l-3.6,0.1l-1.3,0.2l-1.3,0.3l-2,0.7l-3.4,1.5l-1.1,0.7l-1.2,1
		l-1.8,1.7l-2.3,2.3L55,27.9l-0.9,1.6l-1.9,3.8l-0.3,1l-0.2,1.3l-0.1,1.6v5.3l0.2,1.9l0.5,2.7l0.5,2.7l0.4,1.3l0.8,1.7l2.4,4.4
		l0.8,1.1l1,1l3.9,3.3l1.1,0.6l1.2,0.5l4.9,1.7l1.2,0.1h4.9l1.2-0.1l0.9-0.2l1.4-0.5l2.5-1.1l2.2-1.1l1.2-0.9l1.7-1.5l2.6-2.4l0.8-1
		l0.8-1.3l1.3-2.5l1-2.3l0.4-1.2l0.4-2.3l0.6-4.5v-1.3l-0.4-2l-0.7-3.7l-0.4-1.3l-0.6-1.4L91,30.3l-1.3-2.2l-0.8-1L87.8,26l-1.6-1.4
		l-2.3-1.8L82.5,22l-1.9-0.8l-4.1-1.6l-1.2-0.2H74l-3.8,0.1l-1,0.1L68,19.9l-1.7,0.6l-3.6,1.6l-1.1,0.7l-1.5,1.3l-2.6,2.4l-0.9,1
		l-0.8,1.2l-0.9,1.4l-1.6,3.3l-0.4,1l-0.3,1.3l-0.2,1.9l-0.1,3.3l0.1,1.7l0.3,2.2l0.7,4.1l0.4,1.3l0.6,1.5l1.2,2.3l1.3,2.2l0.8,1
		l1.3,1.3l2.3,2l1.2,0.9l1.1,0.6l1.4,0.6l3.7,1.3l0.9,0.2l1.5,0.1h2.2l2.7-0.1l1.2-0.2l1.6-0.5l3-1.2l1-0.5l1.2-0.8l1.2-1.1l2.7-2.6
		l0.9-1.1l0.9-1.5l0.9-1.8l1.5-3.2l0.4-1.5l0.4-2l0.4-2.9v-1.4l-0.2-2.1l-0.9-4.8l-0.5-1.4L91,32l-1.5-2.6l-0.9-1.3l-1-1.2l-1.5-1.4
		l-2.5-2.2l-1.1-0.7L81.1,22l-3.2-1.2l-1.6-0.4L75,20.3h-1.6L70,20.5l-1.3,0.2l-1.5,0.5l-2.7,1.1L63.1,23L62,23.7l-1.4,1.2L58.2,27
		l-0.9,1l-0.8,1.1l-0.9,1.7l-1.1,2.4L54,34.4l-0.3,1L53.5,37v2l0.1,2.8l0.3,2.4l0.5,2.9l0.4,1.8l0.6,1.5l0.8,1.6l1.7,2.9l0.8,1
		l0.9,1l2.3,2.1l1.4,1.1l1.1,0.7l1.4,0.6l2.7,1l1.2,0.4L71,63l1.7,0.1l3.4-0.1l1.2-0.2l1.4-0.4l2.3-0.9l1.5-0.8l1.2-0.8l1.6-1.3
		l2.8-2.6l0.8-1l0.8-1.4l1.9-3.8l0.4-1l0.4-1.5l0.4-2.4l0.2-2.4l-0.1-1.6l-0.6-1.8L91.7,36l-0.5-1.5l-0.7-1.7l-0.9-1.6l-1.1-1.7
		l-0.8-1l-1.4-1.4l-3.1-2.7l-1.1-0.7l-1.6-0.8l-2.9-1.1l-1-0.3l-1.3-0.2l-2-0.1l-6.9,0.1l-8.9,0.2h-9.9l-15.7-0.1l-4.2-0.1l-0.3,0.1
		l-0.2,0.2l-0.1,0.5v1.1L26.8,24l-1.1,2l-2.3,4L20,36.3l-3.2,6.1l-3.8,7L12,50.9L12,50.9L12,50.9h-0.2l-0.1,0.2L12,50.9L12,50.9
		L12,50.9l0.1-0.2H12l0,0V50.9h0.1H12L12,50.9h-0.1"/>
	<path class="st2" d="M7.4,69.9V14.6"/>
	<path class="st2" d="M100.2,69.9V14.6"/>
	<path class="st2" d="M7.4,69.9h92.8"/>
	<path class="st2" d="M7.4,14.6h92.8"/>
</g>
<g>
	<rect x="108.1" y="14.6" class="st0" width="92.8" height="55.3"/>
	<path class="st1" d="M112.4,49.2L112.4,49.2L112.4,49.2L112.4,49.2L112.4,49.2L112.4,49.2L112.4,49.2l4.2,0.1l10.8,0.2l0.2-0.1
		v-0.3l0.2-21.8l0.2-9.2l0.1-0.9l0.1-0.1l0.3,0.1l0.6,0.2h0.6l7.4-0.2h11.7l23.8-0.1l23.5,0.1l0.1,0.2l-0.1,0.1l-0.3,0.2l-1.1,0.4
		l-1.3,0.5l-2,1l-3.7,1.9l-8.7,4l-26.4,12.4l-3.7,1.8l-8.3,4.1l0.1,0.1l1.9,0.7l3,1.2l8.6,3.7l42.4,17.6l-0.1,0.1l-0.3,0.1h-0.7
		l-3.4-0.1l-23.6,0.1H156l-15.3-0.2l-0.4-0.2l-0.5-0.3l0.5,0.2l-0.3-0.2h-0.4l1.9-0.3l1.6-0.6l13.7-5.9l8.8-3.9l5.7-2.6l8.7-3.9
		l14.5-6.4l0.1-0.2v-0.4l-0.3-0.2l-1.2-0.4l-9.9-3.9l-8.9-3.7l-4.8-2l-5.4-2.2l-7.5-3.1l-8.2-3.5l-9.9-4.1l-4.8-1.9l-0.3,0.1v0.2
		l0.2,0.5l0.1,0.8l2.3,16.1l1.7,10.5l0.3,1.9h-0.1l-0.6-0.2h-0.8l-2.1,0.1l-14.9,1.3L112.4,49.2h0.2H112.4L112.4,49.2L112.4,49.2
		L112.4,49.2L112.4,49.2L112.4,49.2L112.4,49.2L112.4,49.2"/>
	<path class="st2" d="M108.1,69.9V14.6"/>
	<path class="st2" d="M200.9,69.9V14.6"/>
	<path class="st2" d="M108.1,69.9h92.8"/>
	<path class="st2" d="M108.1,14.6h92.8"/>
</g>
<g>
	<rect x="208.7" y="14.6" class="st0" width="92.8" height="55.3"/>
	<path class="st1" d="M297,40.6l0.3-0.1v-0.1l-0.1,0.1L297,40.6l-0.1-0.2h0.1l0,0l0.2,0.1L297,40.6L297,40.6l-0.6,0.1l-4.6,0.4
		l-6.3,0.3L268.2,42l-1.2-0.2l-1.2-0.4l-1.6-0.7l-4.1-1.9l-6.1-2.6l-2.3-1l-7.3-3.3l-3.2-1.4l-4.8-2l-0.7-0.2H235l-0.1,0.1l0.1,1.5
		l0.1,1.7V37l-0.2,14.5l-0.1,2.7v1.7l0.3,0.7l0.2,0.2h0.2l1.3-0.7l4.4-1.7l6-2.4l3-1.3l4.5-1.8l14-6l1.1-0.6l0.1-0.1l-0.2-0.2
		l-1.2-0.9l-3.4-2.5l-17.1-13l-2-1.5l-0.5-0.2l-0.2,0.1l-3.1,2.7l-7.4,5.6l-13.2,10v0.2l0.2,0.2l1.5,1l6.1,4.7l5.3,4l7.9,6l3.1,2.4
		l0.3-0.2l1.1-0.8l20.3-14.2l3-2.1l1.3-1l0.3-0.3V42l-0.2-0.3l-0.9-0.8l-1.6-1.5l-2.2-2.2l-5.3-5.6l-3.8-3.9l-3.4-3.7l-0.6-0.5
		l-0.5-0.2H253l-0.8,0.2l-7.5,2l-20,5.2l-0.4,0.3l-0.2,0.3v0.6l0.2,3.6v4l-0.1,5.1l-0.1,6.1l0.1,3.2l0.2,0.5l0.3,0.3l0.6,0.2
		l2.1,0.5l5.8,1.3l5.2,1.3l4.8,1.2l7,1.7l2.8,0.6l0.7-0.1l0.5-0.2l0.6-0.5l6.3-5.9l2.9-2.6l5.2-4.9l4.6-4.6l0.2-0.5v-0.3l-0.2-0.4
		l-0.8-0.9l-2.1-2.3l-1.5-1.9l-2-2.8l-1.6-2.3l-1.9-2.5l-4-5l-0.5-0.3l-0.5-0.1h-1l-2,0.1l-2.8,0.2l-7.9,0.1l-7-0.1H232l-0.8,0.2
		l-0.5,0.3l-0.4,0.5l-0.8,1.2l-1.6,2.3l-2.4,3.2l-3.4,4.5l-4.6,6.3l-0.1,0.5v0.4l0.2,0.5l0.5,0.7l5.2,6.7l4.1,5.6l3.2,4.2l0.6,0.5
		l0.5,0.2l0.8,0.1h1.2l6.2-0.2l18.6,0.1l0.8-0.1l0.8-0.3l0.6-0.4l0.6-0.6l2.7-3.3l3.1-3.8l2.5-2.8l3.2-3.6l3-3.7l0.2-0.5l0.1-0.4
		l-0.1-0.4l-0.3-0.6l-1-1.3l-1.8-2.6l-1.8-2.8l-1.8-2.9l-2.1-3.4l-2.2-3.5l-0.5-0.5l-0.6-0.3l-0.9-0.3l-1.4-0.2L250,21.5l-10.6-1.8
		h-0.8l-0.7,0.1l-0.8,0.4l-1.4,0.9l-6.2,4.1l-11,6.8l-0.5,0.5l-0.3,0.5l-0.2,0.7V35l0.3,17.2l0.2,0.5l0.5,0.6l0.7,0.5l1.6,1l3,1.7
		l4.9,3l3.6,2.1l4.3,2.6l1.5,0.8l0.7,0.2l0.9,0.1l1.2-0.1l10.5-1.9l6.4-1.1l5.5-0.9l0.8-0.2l0.8-0.5l0.7-0.6l0.8-1l3.6-5.1l6.4-8.4
		l1.9-2.8l0.1-0.7l-0.1-0.5l-0.3-0.7l-0.8-1.3l-2.5-4l-1.4-2.5l-2.5-5l-1.8-3.2l-0.5-0.5l-0.6-0.3l-1-0.4l-2.7-0.7l-4.3-1.1
		l-3.1-0.9l-7.4-2.3l-3.4-1l-1.2-0.1l-1.1,0.1l-1,0.3l-2.4,0.9l-6.6,2.5l-3.7,1.2l-7.3,2.3l-0.7,0.4l-0.5,0.5l-0.6,0.9l-0.7,1.3
		l-1.2,2.4l-6.1,11.5l-0.2,0.6V43l0.3,0.8l0.7,1.3l3.9,6.9l1.9,3.4l2,3.5l0.5,0.9l0.5,0.5l0.8,0.5l1.1,0.4l2.5,0.7l2.9,0.9l15.1,4.9
		h1l0.9-0.2l1.5-0.5l4.3-1.5l14.1-4.3l1.5-0.6l0.7-0.4l0.6-0.5l0.7-0.8l0.9-1.4l2.7-4.3l4.4-6.5l2.1-3l0.7-0.6l0.7-0.1l2.4-0.2
		l2.4-0.4l6.5-1.3l3.2-0.5l1.1-0.1v0.1l-0.2,0.2h-0.2L297,40.6L297,40.6L297,40.6L297,40.6L297,40.6l-0.2-0.1L297,40.6L297,40.6
		l-0.1,0.1L297,40.6L297,40.6h-0.1H297L297,40.6L297,40.6L297,40.6"/>
	<path class="st2" d="M208.7,69.9V14.6"/>
	<path class="st2" d="M301.5,69.9V14.6"/>
	<path class="st2" d="M208.7,69.9h92.8"/>
	<path class="st2" d="M208.7,14.6h92.8"/>
</g>
<g>
	<rect x="410.1" y="14.6" class="st0" width="92.8" height="55.3"/>
	<path class="st1" d="M436,67.2L436,67.2h0.2H436h-0.2l-0.1-0.2l0,0h0.1L436,67.2L436,67.2L436,67.2l0.5-0.1v-0.3l-0.2-0.9l-0.6-2
		l-1.6-4.7l-0.9-3l-0.8-2.8l-3.8-12.3l-1.1-3.7l-0.4-1.4l0.1-0.4l0.2-0.2l0.5-0.2l1.7-0.5l3.4-1l19.8-7l4-1.4l6.4-2.3l13.5-4.9
		L480,17h0.4l0.1,0.2l0.6,0.8l7.3,9.7l2.5,3.3l2.4,3.1l1,1.4l0.2,0.5l-0.1,0.2l-0.3,0.2l-1.2,0.3l-3,0.9l-4.9,1.7l-7.3,2.5l-6.6,2.3
		l-6,2.1L447.9,52h-0.5l-0.4-0.2l-0.3-0.3l-1.2-1.8l-1.3-1.8l-2.3-2.9l-4.4-5.5l-3.2-4.4v-0.2l0.2-0.1l1-0.3l6.2-1.9l10.2-3.6l6-2.2
		l7.4-2.6l13.1-4.6h0.3l0.2,0.2l1.1,1.7l1.6,2.3l2.3,2.9l1.5,2l3.6,4.8l1,1.5l0.1,0.3l-0.1,0.2l-0.3,0.2l-4.9,1.6l-19,6.4L453.1,48
		l-3.6,1.2l-0.9,0.1l-0.4-0.1l-0.3-0.3l-0.5-0.8l-3.7-5.6l-5-6.7v-0.2l0.2-0.1l0.7-0.3l10.1-3.2l17.3-6.2l3-1l4-1.3l2.6-0.9h0.4
		l0.2,0.2l0.4,0.6l0.8,1.1l3.4,4.5l3.3,4.2l0.7,1.1v0.3l-0.1,0.1l-0.7,0.2l-3,0.9l-3.9,1.4l-10.2,3.6L457,45.3l-6.2,2.1h-0.6
		l-0.4-0.1l-0.4-0.3l-0.5-0.6l-1.1-2l-0.1-0.5l0.1-0.2l0.2-0.2l0.8-0.3l7.9-2.4l7.2-2.5l7.1-2.5l20.1-6.9l7.5-2.9v-0.1l-0.2-0.3
		l-1.6-2l-1.2-1.5h-0.2l-0.7,0.3l-3.7,1.7l-3,1.1l-6,2.1l-35.4,12.8l-1.4,0.6l-0.8,0.5l-0.6,0.6l-0.6,1l-1.2,2.3l-1.5,2.7l-9.4,15.8
		l-1.4,2.1l-0.5,0.2h-0.4l-0.3-0.2l-0.3-0.4l-1-1.5l-2.2-3.6l-2.3-3.6l-3.6-5l-2.9-3.9l-1.8-2.5l0.2,0.2l2,2.1L422,53l4.8,4.9
		l9.1,9.2l0,0l0,0h0.2l0,0L436,67.2L436,67.2l0.2,0.1v0.1l-0.1,0.1v-0.1l0,0l0,0L436,67.2h-0.1l-0.1,0.1l0,0"/>
	<path class="st2" d="M410.1,69.9V14.6"/>
	<path class="st2" d="M502.8,69.9V14.6"/>
	<path class="st2" d="M410.1,69.9h92.8"/>
	<path class="st2" d="M410.1,14.6h92.8"/>
</g>
<g>
	<rect x="510.7" y="14.6" class="st0" width="92.8" height="55.3"/>
	<path class="st1" d="M515.1,45.9L515.1,45.9l-0.1-0.4L515.1,45.9L515.1,45.9L515.1,45.9l0.2,0.3l1,1.1l2,2.2l14.3,17.3l0.2,0.3
		l0.3,0.1h1l6.5-0.2l9.6,0.2h12h3h4.5l3.6,0.1l3.5-0.1l0.6-0.2l0.5-0.4l0.8-1l1.8-2.3l2.2-2.4l3.3-3.8l4.1-4.8l7.4-8.7l1.7-2
		l0.1-0.3l-0.1-0.2l-0.4-0.4l-3.3-2.9l-5.3-5.5l-3.4-3.2l-11.1-11.2l-0.6-0.3l-0.1,0.1l-6.4,7.7l-3.6,4.5l-4.4,5.2l-3.1,3.8
		l-2.1,2.7l-0.9,1.3l-0.1,0.4l0.1,0.3l0.4,0.4l2.5,2.3l4.8,5l5.3,5.3l2.7,2.8l2.7,2.7l2.9,2.7l1,0.9l0.5,0.2l0.2-0.1l0.3-0.3l3-3.9
		l7.9-8.9l6.4-7.6l3.1-3.7l0.1-0.3l-0.1-0.3l-0.5-0.5l-3.9-3.4l-2.9-2.9l-4.7-4.8l-5-4.8l-2.2-2.2l-4.5-4.4l-0.5-0.2l-0.2,0.1
		l-1,1.3l-2.8,3.5l-15.7,19.2l-0.1,0.5l0.1,0.3l0.3,0.4l2.6,2.4l3.2,3.2l4.4,4.3l5,5l3.4,3.2l2.2,2.2l1.5,1.4l0.5,0.2l0.2-0.1
		l0.4-0.5l1.5-2l1.8-2l3.5-3.9l5-5.9l7.4-9.1V41l-0.2-0.3l-1-0.6l-2.2-1.9l-1.9-1.8l-12-12l-6.6-6.5l-0.6-0.3l-0.7-0.2l-0.9-0.1
		l-19.8-0.1h-6.6l-14.5-0.1v0.1l0.2,0.3l-0.1,0.4l-0.4,0.7l-15,27.5L515.1,45.9L515.1,45.9L515.1,45.9L515.1,45.9L515.1,45.9
		L515.1,45.9L515.1,45.9L515.1,45.9L515.1,45.9L515.1,45.9L515.1,45.9L515.1,45.9"/>
	<path class="st2" d="M510.7,69.9V14.6"/>
	<path class="st2" d="M603.5,69.9V14.6"/>
	<path class="st2" d="M510.7,69.9h92.8"/>
	<path class="st2" d="M510.7,14.6h92.8"/>
</g>
<g>
	<rect x="611.4" y="14.6" class="st0" width="92.8" height="55.3"/>
	<path class="st1" d="M650.1,62.1l-0.2-0.1L650.1,62.1L650.1,62.1L650.1,62.1L650.1,62.1l0.2-0.1h3l2.5-0.1l0.8-0.2l0.4-0.3v-0.2
		l-0.2-0.3l-0.8-0.6l-1.1-0.7l-3.5-2.3l-2.9-2.1l-3-2.3l-2.4-1.8l-7.7-5.6l-8.6-6.3l-11-7.9l-0.3-0.3v-0.2l0.2-0.1l1-0.3l2.1-0.6
		l0.8-0.1l0.4,0.1l0.7,0.4l4.8,3.5l3.1,2.3l4.4,3.3l8.5,6.3l5.9,4.3l7.4,5.5l9.4,6.9l1.1,0.7l0.6,0.2h0.5L667,63l1.5-0.7l0.7-0.5
		l0.1-0.2l-0.1-0.2l-0.5-0.5l-1.5-1l-3.4-2.2l-2.8-2l-17-12.5l-4.4-3.2L624,28.4l-0.5-0.5v-0.1l0.3-0.2l1.2-0.4l1.7-0.5l0.7-0.1
		l0.4,0.1l0.7,0.5l1.7,1.3l3.3,2.4l8.3,5.9l2.8,2l7.7,5.9l11.6,8.5l9.8,7.2l0.4,0.1l0.4-0.1l2.1-1L677,59l0.1-0.3l-0.1-0.2l-0.4-0.4
		l-1.1-0.8l-3-2.1l-3.3-2.3l-3-2.2l-12.4-9.4l-5.6-4.1l-11.7-8.5l-5.1-3.9l-0.1-0.2l0.1-0.1l0.8-0.3l2.1-0.6l0.7-0.1l0.4,0.1
		l0.7,0.4l7.8,5.9l19.5,14.3l17.7,13l0.5,0.1l0.5-0.1l2.3-0.9l0.6-0.4l0.1-0.2l-0.1-0.2l-0.5-0.4l-2.3-1.6l-5.2-3.7l-9.2-6.8
		l-8.2-6.1l-6.7-5l-14.2-10.2v-0.2l0.3-0.2l1-0.3l2-0.5l1-0.1l0.4,0.1l0.4,0.2l3.9,3.1l9.1,6.6l6.2,4.7l6.6,4.9l4.4,3.3l5.3,3.9
		l6,4.3l3.3,2.4l0.7,0.3h0.3l0.5-0.2l1.8-0.9l0.5-0.4l0.1-0.2l-0.1-0.2l-0.3-0.4l-1.5-1.1l-4-2.8l-40.1-29.7l-0.1-0.2l0.1-0.1
		l0.6-0.2l2-0.6l1-0.2h0.4l0.4,0.2l0.8,0.6l1.7,1.4l3.7,2.8l12.4,8.9l27.2,20.3l2.6,2l0.4,0.5v0.2l-0.2,0.1l-3.1,1.2l-9.3,3.8
		l-7.1,2.8l-14.1,5.3h-0.4l-0.3-0.3l-0.4-0.3l-0.9-0.4l-2.3-0.7l-7.3-2.1l-4.4-1.3l-0.4-0.2l0.3,0.1L650.1,62.1L650.1,62.1
		L650.1,62.1l-0.2,0.1l0,0l0,0L650.1,62.1h0.3H650.1L650.1,62.1h0.2H650.1L650.1,62.1L650.1,62.1L650.1,62.1l0.2,0.1l0,0l0,0l0,0"/>
	<path class="st2" d="M611.4,69.9V14.6"/>
	<path class="st2" d="M704.1,69.9V14.6"/>
	<path class="st2" d="M611.4,69.9h92.8"/>
	<path class="st2" d="M611.4,14.6h92.8"/>
</g>
<g>
	<rect x="712" y="14.6" class="st0" width="92.8" height="55.3"/>
	<path class="st1" d="M722.9,17.4L722.9,17.4l0.1-0.1L722.9,17.4l0.5,0.3l7.7,5l18.1,11.9L764.9,45L787,59.5l9,6l1.9,1.3l0.1,0.4
		l-0.1,0.2l-0.3,0.1h-0.8l-5.3-0.1h-24.7h-17.2h-20.3l-12.9-0.3l-0.2-0.2v-0.3l0.7-3.7l0.2-0.2l0.5-0.1l2.5,0.1l5.2,0.1l11.6-0.1
		h16.4h12.1h17.7h15.3l0.5-0.1l0.2-0.2l0.1-0.3v-1.5l-0.1-2.1l-0.1-0.2l-0.2-0.1h-0.7l-3.7,0.2l-5,0.2h-4.1l-11.8-0.2l-21.3,0.1
		l-35.4-0.1l-0.5-0.1l-0.1-0.2v-0.3l0.8-3.2l0.2-0.4l0.3-0.2l0.4-0.1h1.3l4.9,0.1h6.7l17.9-0.1l19.5,0.1l31.3-0.1l0.2-0.2l0.1-0.4
		v-1.5v-2l-0.2-0.3l-0.3-0.1h-0.9l-12.3,0.2h-11.8l-27.1-0.1h-29.4l-0.9-0.1l-0.3-0.2l-0.1-0.2l0.1-0.4l0.6-2.3l0.2-0.9l0.3-0.3
		l0.4-0.1h0.8l3.3,0.1l5.1,0.1l15.2-0.1h14.3l22,0.1h19.8l1.2-0.1l0.3-0.2l0.1-0.2v-0.5v-1.5v-1.8l-0.2-0.1l-0.4-0.1h-1.3l-6.5,0.2
		h-5.1l-7.9-0.1h-40.7h-14.7l-6.7-0.1l0,0l0.6,0.1v-0.1l0.1-0.5l1.7-7.2l1.2-5.2l2.1-9.6l0.3-1.3l0.1-0.1l0.1,0.2l-0.1,0.1
		L722.9,17.4l-0.3,0.1L722.9,17.4L722.9,17.4h0.2l0,0H722.9L722.9,17.4"/>
	<path class="st2" d="M712,69.9V14.6"/>
	<path class="st2" d="M804.8,69.9V14.6"/>
	<path class="st2" d="M712,69.9h92.8"/>
	<path class="st2" d="M712,14.6h92.8"/>
</g>
<text transform="matrix(1 0 0 1 35.7347 11.9963)" class="st3 st4">Circle</text>
<text transform="matrix(1 0 0 1 122.7142 11.9963)" class="st3 st4">Hourglass</text>
<text transform="matrix(1 0 0 1 212.8375 11.9963)" class="st3 st4">Kaleidoscope</text>
<g>
	<rect x="309.4" y="14.6" class="st0" width="92.8" height="55.3"/>
	<path class="st1" d="M349.5,67.2h-0.1H349.5L349.5,67.2h-0.2H349.5L349.5,67.2h-0.2l0.1-0.3l0.9-2l0.9-1.8l0.6-0.9l1-0.9l0.5-0.5
		v-0.2l-0.2-0.2l-0.5-0.3l-1.7-0.8l-2.5-1.2l-2.8-1.5l-3-1.9L330.3,47l-16-9.7l-0.5-0.5v-0.2l0.2-0.2l0.8-0.5l8.9-4.5l4.7-2.4
		l7.4-3.8l12.3-6.5l2.6-1.3l1-0.3h0.5l0.4,0.2l0.9,0.6l3.5,2.2l3.5,2.2l6.8,4.5l7.2,4.7l17.8,11.3l3.5,2.2l1.9,1.3l0.4,0.4v0.2
		l-0.3,0.3l-0.9,0.6l-8.9,5.1l-14.6,8.2l-7.6,4.4l-0.7,0.2l-0.5-0.1l-0.7-0.3l-2.2-1.3l-18.9-11.5L330,45l-6.5-3.8l-6.8-4.1
		l-0.3-0.3v-0.2l0.2-0.2l0.7-0.4l14.9-7.5l13.5-7.2l4.6-2.3l0.9-0.2l0.4,0.1l0.6,0.3l3.7,2.4l5.3,3.5l4.8,3.1l17.4,11.1l11,7
		l0.2,0.3v0.2l-0.3,0.3l-1,0.6l-5.3,3l-7,3.9l-6,3.3l-8.4,4.8l-1.5,0.6l-0.5,0.1l-0.5-0.1l-0.6-0.2l-2.2-1.3l-6.5-4l-9.5-5.7
		l-12-6.9l-8.3-4.8l-5.6-3.5l-0.2-0.3l0.1-0.2l0.4-0.3l3.2-1.6l14.8-7.7l9.9-5.3l1.8-0.9l1-0.3h0.6l0.5,0.2l1.4,0.9l8.8,5.8l10.7,7
		l15.5,9.8l3,2.1l0.1,0.3l-0.1,0.2l-0.4,0.3l-2.5,1.4L374.4,56l-9.2,5.1l-0.7,0.1l-0.5-0.1l-0.8-0.4l-2.6-1.6L344,49.3l-6.3-3.6
		l-6.4-3.7l-8-4.8l-0.4-0.4v-0.2l0.2-0.2l0.7-0.4l4.1-2.1l21.4-11.3l1-0.3h0.5l0.5,0.2l0.7,0.4l9.4,6.1l6.7,4.5l7.6,4.8l7,4.4
		l5.4,3.5l0.1,0.3l-0.1,0.2l-0.4,0.3l-6.9,4.1l-5.1,3l-8.5,4.7l-1.4,0.6l-0.8,0.1l-0.5-0.1l-0.7-0.3l-2.7-1.7l-8.1-4.9l-6.8-4
		l-20-11.6l-0.1-0.2l0.1-0.2l0.6-0.4l9.1-4.8l12.9-6.7l1.1-0.3h0.5l0.3,0.2l1.1,0.8l2.1,1.5l4.3,2.8l8.9,5.7l7.4,4.7l4.9,3.1
		l4.8,3.2v0.2l-0.1,0.2l-0.8,0.5l-5.9,3.3l-8.2,4.8l-6.6,3.8l-7.7,4.7l-3.3,2.4l-1.9,1.2l-0.4,0.1l-0.2-0.1v-0.1l0,0L349.5,67.2h0.2
		l-0.5-0.1V67h0.1l0,0l0.3,0.2H349.5"/>
	<path class="st2" d="M309.4,69.9V14.6"/>
	<path class="st2" d="M402.2,69.9V14.6"/>
	<path class="st2" d="M309.4,69.9h92.8"/>
	<path class="st2" d="M309.4,14.6h92.8"/>
</g>
<text transform="matrix(1 0 0 1 317.1492 11.9963)" class="st3 st4">Rectangle- 1</text>
<text transform="matrix(1 0 0 1 416.0433 11.9963)" class="st3 st4">Rectangle - 2</text>
<text transform="matrix(1 0 0 1 535.0641 11.9963)" class="st3 st4">Square</text>
<text transform="matrix(1 0 0 1 626.7286 11.9963)" class="st3 st4">Survey - 1</text>
<text transform="matrix(1 0 0 1 727.328 11.9963)" class="st3 st4">Survey - 2</text>
<g>
	<g>
		<g>
			<path class="st1" d="M113.5,174.2L113.5,174.2L113.5,174.2l-0.1,0.1l0,0L113.5,174.2L113.5,174.2L113.5,174.2L113.5,174.2
				L113.5,174.2L113.5,174.2L113.5,174.2l3.6,0.2l6.1,0.3h1.6v-0.1l-0.1-0.3l-0.1-1.4v-1.1l0.4-4.3l0.1-10.2l0.1-3.5l0.3-11.3
				l0.1-0.1h0.4l2.2,0.1h11.6l11.2-0.1h8.6h31.9h3.9l0.1,0.2v0.2l-0.2,0.2l-1.1,0.5l-10.4,4.6l-6.4,2.9l-39.3,17.7l-0.1,0.2l0.2,0.1
				l4,1.6l7.8,3.1l10.3,4.1l8.7,3.5l7.7,3.1l19.1,7.8l-0.1,0.2l-0.2,0.1h-0.6l-4.9-0.1l-6.5-0.1l-40.5-0.1h-4.8l-0.2-0.1l0.1-0.1
				l0.6-0.3l6.8-2.9l6-2.6l5.9-2.5l15-6.4l20.6-8.7l1.1-0.4l-0.1-0.1l-1.9-0.6l-4-1.7l-10.6-4.4L141,146.8l-4.9-2l-4.8-1.9l-0.4,0.1
				l-0.2,0.2v0.2l0.1,0.4l0.2,0.6l0.8,5l0.9,5.2l2,12.7l0.8,4.7v0.8h-0.1l-0.4-0.1h-1.2L113.5,174.2L113.5,174.2L113.5,174.2
				L113.5,174.2L113.5,174.2L113.5,174.2L113.5,174.2L113.5,174.2L113.5,174.2L113.5,174.2h-0.3l0,0"/>
		</g>
		<g>
			<rect x="109.1" y="139.8" class="st0" width="90.8" height="55.3"/>
			<path class="st2" d="M108.1,195.1v-55.3"/>
			<path class="st2" d="M109.1,195.1h90.8"/>
			<path class="st2" d="M109.1,139.8h90.8"/>
		</g>
	</g>
	<path class="st2" d="M200.9,195.2v-55.3"/>
</g>
</svg>
