<?xml version="1.0" encoding="utf-8" standalone="no"?>
<!DOCTYPE svg PUBLIC "-//W3C//DTD SVG 1.1//EN"
  "http://www.w3.org/Graphics/SVG/1.1/DTD/svg11.dtd">
<svg xmlns:xlink="http://www.w3.org/1999/xlink" width="360pt" height="360pt" viewBox="0 0 360 360" xmlns="http://www.w3.org/2000/svg" version="1.1">
 <metadata>
  <rdf:RDF xmlns:dc="http://purl.org/dc/elements/1.1/" xmlns:cc="http://creativecommons.org/ns#" xmlns:rdf="http://www.w3.org/1999/02/22-rdf-syntax-ns#">
   <cc:Work>
    <dc:type rdf:resource="http://purl.org/dc/dcmitype/StillImage"/>
    <dc:date>2023-05-01T10:05:12.574370</dc:date>
    <dc:format>image/svg+xml</dc:format>
    <dc:creator>
     <cc:Agent>
      <dc:title>Matplotlib v3.6.3, https://matplotlib.org/</dc:title>
     </cc:Agent>
    </dc:creator>
   </cc:Work>
  </rdf:RDF>
 </metadata>
 <defs>
  <style type="text/css">*{stroke-linejoin: round; stroke-linecap: butt}</style>
 </defs>
 <g id="figure_1">
  <g id="patch_1">
   <path d="M 0 360 
L 360 360 
L 360 0 
L 0 0 
z
" style="fill: #ffffff"/>
  </g>
  <g id="axes_1">
   <g id="patch_2">
    <path d="M 45 320.4 
L 324 320.4 
L 324 43.2 
L 45 43.2 
z
" style="fill: #ffffff"/>
   </g>
   <g id="matplotlib.axis_1">
    <g id="xtick_1">
     <g id="line2d_1">
      <defs>
       <path id="mb982855cf4" d="M 0 0 
L 0 3.5 
" style="stroke: #000000; stroke-width: 0.8"/>
      </defs>
      <g>
       <use xlink:href="#mb982855cf4" x="45" y="320.4" style="stroke: #000000; stroke-width: 0.8"/>
      </g>
     </g>
     <g id="text_1">
      <!-- 0 -->
      <g transform="translate(41.81875 334.998438) scale(0.1 -0.1)">
       <defs>
        <path id="DejaVuSans-30" d="M 2034 4250 
Q 1547 4250 1301 3770 
Q 1056 3291 1056 2328 
Q 1056 1369 1301 889 
Q 1547 409 2034 409 
Q 2525 409 2770 889 
Q 3016 1369 3016 2328 
Q 3016 3291 2770 3770 
Q 2525 4250 2034 4250 
z
M 2034 4750 
Q 2819 4750 3233 4129 
Q 3647 3509 3647 2328 
Q 3647 1150 3233 529 
Q 2819 -91 2034 -91 
Q 1250 -91 836 529 
Q 422 1150 422 2328 
Q 422 3509 836 4129 
Q 1250 4750 2034 4750 
z
" transform="scale(0.015625)"/>
       </defs>
       <use xlink:href="#DejaVuSans-30"/>
      </g>
     </g>
    </g>
    <g id="xtick_2">
     <g id="line2d_2">
      <g>
       <use xlink:href="#mb982855cf4" x="84.857143" y="320.4" style="stroke: #000000; stroke-width: 0.8"/>
      </g>
     </g>
     <g id="text_2">
      <!-- 1 -->
      <g transform="translate(81.675893 334.998438) scale(0.1 -0.1)">
       <defs>
        <path id="DejaVuSans-31" d="M 794 531 
L 1825 531 
L 1825 4091 
L 703 3866 
L 703 4441 
L 1819 4666 
L 2450 4666 
L 2450 531 
L 3481 531 
L 3481 0 
L 794 0 
L 794 531 
z
" transform="scale(0.015625)"/>
       </defs>
       <use xlink:href="#DejaVuSans-31"/>
      </g>
     </g>
    </g>
    <g id="xtick_3">
     <g id="line2d_3">
      <g>
       <use xlink:href="#mb982855cf4" x="124.714286" y="320.4" style="stroke: #000000; stroke-width: 0.8"/>
      </g>
     </g>
     <g id="text_3">
      <!-- 2 -->
      <g transform="translate(121.533036 334.998438) scale(0.1 -0.1)">
       <defs>
        <path id="DejaVuSans-32" d="M 1228 531 
L 3431 531 
L 3431 0 
L 469 0 
L 469 531 
Q 828 903 1448 1529 
Q 2069 2156 2228 2338 
Q 2531 2678 2651 2914 
Q 2772 3150 2772 3378 
Q 2772 3750 2511 3984 
Q 2250 4219 1831 4219 
Q 1534 4219 1204 4116 
Q 875 4013 500 3803 
L 500 4441 
Q 881 4594 1212 4672 
Q 1544 4750 1819 4750 
Q 2544 4750 2975 4387 
Q 3406 4025 3406 3419 
Q 3406 3131 3298 2873 
Q 3191 2616 2906 2266 
Q 2828 2175 2409 1742 
Q 1991 1309 1228 531 
z
" transform="scale(0.015625)"/>
       </defs>
       <use xlink:href="#DejaVuSans-32"/>
      </g>
     </g>
    </g>
    <g id="xtick_4">
     <g id="line2d_4">
      <g>
       <use xlink:href="#mb982855cf4" x="164.571429" y="320.4" style="stroke: #000000; stroke-width: 0.8"/>
      </g>
     </g>
     <g id="text_4">
      <!-- 3 -->
      <g transform="translate(161.390179 334.998438) scale(0.1 -0.1)">
       <defs>
        <path id="DejaVuSans-33" d="M 2597 2516 
Q 3050 2419 3304 2112 
Q 3559 1806 3559 1356 
Q 3559 666 3084 287 
Q 2609 -91 1734 -91 
Q 1441 -91 1130 -33 
Q 819 25 488 141 
L 488 750 
Q 750 597 1062 519 
Q 1375 441 1716 441 
Q 2309 441 2620 675 
Q 2931 909 2931 1356 
Q 2931 1769 2642 2001 
Q 2353 2234 1838 2234 
L 1294 2234 
L 1294 2753 
L 1863 2753 
Q 2328 2753 2575 2939 
Q 2822 3125 2822 3475 
Q 2822 3834 2567 4026 
Q 2313 4219 1838 4219 
Q 1578 4219 1281 4162 
Q 984 4106 628 3988 
L 628 4550 
Q 988 4650 1302 4700 
Q 1616 4750 1894 4750 
Q 2613 4750 3031 4423 
Q 3450 4097 3450 3541 
Q 3450 3153 3228 2886 
Q 3006 2619 2597 2516 
z
" transform="scale(0.015625)"/>
       </defs>
       <use xlink:href="#DejaVuSans-33"/>
      </g>
     </g>
    </g>
    <g id="xtick_5">
     <g id="line2d_5">
      <g>
       <use xlink:href="#mb982855cf4" x="204.428571" y="320.4" style="stroke: #000000; stroke-width: 0.8"/>
      </g>
     </g>
     <g id="text_5">
      <!-- 4 -->
      <g transform="translate(201.247321 334.998438) scale(0.1 -0.1)">
       <defs>
        <path id="DejaVuSans-34" d="M 2419 4116 
L 825 1625 
L 2419 1625 
L 2419 4116 
z
M 2253 4666 
L 3047 4666 
L 3047 1625 
L 3713 1625 
L 3713 1100 
L 3047 1100 
L 3047 0 
L 2419 0 
L 2419 1100 
L 313 1100 
L 313 1709 
L 2253 4666 
z
" transform="scale(0.015625)"/>
       </defs>
       <use xlink:href="#DejaVuSans-34"/>
      </g>
     </g>
    </g>
    <g id="xtick_6">
     <g id="line2d_6">
      <g>
       <use xlink:href="#mb982855cf4" x="244.285714" y="320.4" style="stroke: #000000; stroke-width: 0.8"/>
      </g>
     </g>
     <g id="text_6">
      <!-- 5 -->
      <g transform="translate(241.104464 334.998438) scale(0.1 -0.1)">
       <defs>
        <path id="DejaVuSans-35" d="M 691 4666 
L 3169 4666 
L 3169 4134 
L 1269 4134 
L 1269 2991 
Q 1406 3038 1543 3061 
Q 1681 3084 1819 3084 
Q 2600 3084 3056 2656 
Q 3513 2228 3513 1497 
Q 3513 744 3044 326 
Q 2575 -91 1722 -91 
Q 1428 -91 1123 -41 
Q 819 9 494 109 
L 494 744 
Q 775 591 1075 516 
Q 1375 441 1709 441 
Q 2250 441 2565 725 
Q 2881 1009 2881 1497 
Q 2881 1984 2565 2268 
Q 2250 2553 1709 2553 
Q 1456 2553 1204 2497 
Q 953 2441 691 2322 
L 691 4666 
z
" transform="scale(0.015625)"/>
       </defs>
       <use xlink:href="#DejaVuSans-35"/>
      </g>
     </g>
    </g>
    <g id="xtick_7">
     <g id="line2d_7">
      <g>
       <use xlink:href="#mb982855cf4" x="284.142857" y="320.4" style="stroke: #000000; stroke-width: 0.8"/>
      </g>
     </g>
     <g id="text_7">
      <!-- 6 -->
      <g transform="translate(280.961607 334.998438) scale(0.1 -0.1)">
       <defs>
        <path id="DejaVuSans-36" d="M 2113 2584 
Q 1688 2584 1439 2293 
Q 1191 2003 1191 1497 
Q 1191 994 1439 701 
Q 1688 409 2113 409 
Q 2538 409 2786 701 
Q 3034 994 3034 1497 
Q 3034 2003 2786 2293 
Q 2538 2584 2113 2584 
z
M 3366 4563 
L 3366 3988 
Q 3128 4100 2886 4159 
Q 2644 4219 2406 4219 
Q 1781 4219 1451 3797 
Q 1122 3375 1075 2522 
Q 1259 2794 1537 2939 
Q 1816 3084 2150 3084 
Q 2853 3084 3261 2657 
Q 3669 2231 3669 1497 
Q 3669 778 3244 343 
Q 2819 -91 2113 -91 
Q 1303 -91 875 529 
Q 447 1150 447 2328 
Q 447 3434 972 4092 
Q 1497 4750 2381 4750 
Q 2619 4750 2861 4703 
Q 3103 4656 3366 4563 
z
" transform="scale(0.015625)"/>
       </defs>
       <use xlink:href="#DejaVuSans-36"/>
      </g>
     </g>
    </g>
    <g id="xtick_8">
     <g id="line2d_8">
      <g>
       <use xlink:href="#mb982855cf4" x="324" y="320.4" style="stroke: #000000; stroke-width: 0.8"/>
      </g>
     </g>
     <g id="text_8">
      <!-- 7 -->
      <g transform="translate(320.81875 334.998438) scale(0.1 -0.1)">
       <defs>
        <path id="DejaVuSans-37" d="M 525 4666 
L 3525 4666 
L 3525 4397 
L 1831 0 
L 1172 0 
L 2766 4134 
L 525 4134 
L 525 4666 
z
" transform="scale(0.015625)"/>
       </defs>
       <use xlink:href="#DejaVuSans-37"/>
      </g>
     </g>
    </g>
    <g id="text_9">
     <!-- Time (m/s) -->
     <g transform="translate(157.616406 348.676562) scale(0.1 -0.1)">
      <defs>
       <path id="DejaVuSans-54" d="M -19 4666 
L 3928 4666 
L 3928 4134 
L 2272 4134 
L 2272 0 
L 1638 0 
L 1638 4134 
L -19 4134 
L -19 4666 
z
" transform="scale(0.015625)"/>
       <path id="DejaVuSans-69" d="M 603 3500 
L 1178 3500 
L 1178 0 
L 603 0 
L 603 3500 
z
M 603 4863 
L 1178 4863 
L 1178 4134 
L 603 4134 
L 603 4863 
z
" transform="scale(0.015625)"/>
       <path id="DejaVuSans-6d" d="M 3328 2828 
Q 3544 3216 3844 3400 
Q 4144 3584 4550 3584 
Q 5097 3584 5394 3201 
Q 5691 2819 5691 2113 
L 5691 0 
L 5113 0 
L 5113 2094 
Q 5113 2597 4934 2840 
Q 4756 3084 4391 3084 
Q 3944 3084 3684 2787 
Q 3425 2491 3425 1978 
L 3425 0 
L 2847 0 
L 2847 2094 
Q 2847 2600 2669 2842 
Q 2491 3084 2119 3084 
Q 1678 3084 1418 2786 
Q 1159 2488 1159 1978 
L 1159 0 
L 581 0 
L 581 3500 
L 1159 3500 
L 1159 2956 
Q 1356 3278 1631 3431 
Q 1906 3584 2284 3584 
Q 2666 3584 2933 3390 
Q 3200 3197 3328 2828 
z
" transform="scale(0.015625)"/>
       <path id="DejaVuSans-65" d="M 3597 1894 
L 3597 1613 
L 953 1613 
Q 991 1019 1311 708 
Q 1631 397 2203 397 
Q 2534 397 2845 478 
Q 3156 559 3463 722 
L 3463 178 
Q 3153 47 2828 -22 
Q 2503 -91 2169 -91 
Q 1331 -91 842 396 
Q 353 884 353 1716 
Q 353 2575 817 3079 
Q 1281 3584 2069 3584 
Q 2775 3584 3186 3129 
Q 3597 2675 3597 1894 
z
M 3022 2063 
Q 3016 2534 2758 2815 
Q 2500 3097 2075 3097 
Q 1594 3097 1305 2825 
Q 1016 2553 972 2059 
L 3022 2063 
z
" transform="scale(0.015625)"/>
       <path id="DejaVuSans-20" transform="scale(0.015625)"/>
       <path id="DejaVuSans-28" d="M 1984 4856 
Q 1566 4138 1362 3434 
Q 1159 2731 1159 2009 
Q 1159 1288 1364 580 
Q 1569 -128 1984 -844 
L 1484 -844 
Q 1016 -109 783 600 
Q 550 1309 550 2009 
Q 550 2706 781 3412 
Q 1013 4119 1484 4856 
L 1984 4856 
z
" transform="scale(0.015625)"/>
       <path id="DejaVuSans-2f" d="M 1625 4666 
L 2156 4666 
L 531 -594 
L 0 -594 
L 1625 4666 
z
" transform="scale(0.015625)"/>
       <path id="DejaVuSans-73" d="M 2834 3397 
L 2834 2853 
Q 2591 2978 2328 3040 
Q 2066 3103 1784 3103 
Q 1356 3103 1142 2972 
Q 928 2841 928 2578 
Q 928 2378 1081 2264 
Q 1234 2150 1697 2047 
L 1894 2003 
Q 2506 1872 2764 1633 
Q 3022 1394 3022 966 
Q 3022 478 2636 193 
Q 2250 -91 1575 -91 
Q 1294 -91 989 -36 
Q 684 19 347 128 
L 347 722 
Q 666 556 975 473 
Q 1284 391 1588 391 
Q 1994 391 2212 530 
Q 2431 669 2431 922 
Q 2431 1156 2273 1281 
Q 2116 1406 1581 1522 
L 1381 1569 
Q 847 1681 609 1914 
Q 372 2147 372 2553 
Q 372 3047 722 3315 
Q 1072 3584 1716 3584 
Q 2034 3584 2315 3537 
Q 2597 3491 2834 3397 
z
" transform="scale(0.015625)"/>
       <path id="DejaVuSans-29" d="M 513 4856 
L 1013 4856 
Q 1481 4119 1714 3412 
Q 1947 2706 1947 2009 
Q 1947 1309 1714 600 
Q 1481 -109 1013 -844 
L 513 -844 
Q 928 -128 1133 580 
Q 1338 1288 1338 2009 
Q 1338 2731 1133 3434 
Q 928 4138 513 4856 
z
" transform="scale(0.015625)"/>
      </defs>
      <use xlink:href="#DejaVuSans-54"/>
      <use xlink:href="#DejaVuSans-69" x="57.958984"/>
      <use xlink:href="#DejaVuSans-6d" x="85.742188"/>
      <use xlink:href="#DejaVuSans-65" x="183.154297"/>
      <use xlink:href="#DejaVuSans-20" x="244.677734"/>
      <use xlink:href="#DejaVuSans-28" x="276.464844"/>
      <use xlink:href="#DejaVuSans-6d" x="315.478516"/>
      <use xlink:href="#DejaVuSans-2f" x="412.890625"/>
      <use xlink:href="#DejaVuSans-73" x="446.582031"/>
      <use xlink:href="#DejaVuSans-29" x="498.681641"/>
     </g>
    </g>
    <g id="text_10">
     <!-- 1e8 -->
     <g transform="translate(305.121875 347.676562) scale(0.1 -0.1)">
      <defs>
       <path id="DejaVuSans-38" d="M 2034 2216 
Q 1584 2216 1326 1975 
Q 1069 1734 1069 1313 
Q 1069 891 1326 650 
Q 1584 409 2034 409 
Q 2484 409 2743 651 
Q 3003 894 3003 1313 
Q 3003 1734 2745 1975 
Q 2488 2216 2034 2216 
z
M 1403 2484 
Q 997 2584 770 2862 
Q 544 3141 544 3541 
Q 544 4100 942 4425 
Q 1341 4750 2034 4750 
Q 2731 4750 3128 4425 
Q 3525 4100 3525 3541 
Q 3525 3141 3298 2862 
Q 3072 2584 2669 2484 
Q 3125 2378 3379 2068 
Q 3634 1759 3634 1313 
Q 3634 634 3220 271 
Q 2806 -91 2034 -91 
Q 1263 -91 848 271 
Q 434 634 434 1313 
Q 434 1759 690 2068 
Q 947 2378 1403 2484 
z
M 1172 3481 
Q 1172 3119 1398 2916 
Q 1625 2713 2034 2713 
Q 2441 2713 2670 2916 
Q 2900 3119 2900 3481 
Q 2900 3844 2670 4047 
Q 2441 4250 2034 4250 
Q 1625 4250 1398 4047 
Q 1172 3844 1172 3481 
z
" transform="scale(0.015625)"/>
      </defs>
      <use xlink:href="#DejaVuSans-31"/>
      <use xlink:href="#DejaVuSans-65" x="63.623047"/>
      <use xlink:href="#DejaVuSans-38" x="125.146484"/>
     </g>
    </g>
   </g>
   <g id="matplotlib.axis_2">
    <g id="ytick_1">
     <g id="line2d_9">
      <defs>
       <path id="m578acdfe5c" d="M 0 0 
L -3.5 0 
" style="stroke: #000000; stroke-width: 0.8"/>
      </defs>
      <g>
       <use xlink:href="#m578acdfe5c" x="45" y="281.94813" style="stroke: #000000; stroke-width: 0.8"/>
      </g>
     </g>
     <g id="text_11">
      <!-- −100 -->
      <g transform="translate(10.532812 285.747349) scale(0.1 -0.1)">
       <defs>
        <path id="DejaVuSans-2212" d="M 678 2272 
L 4684 2272 
L 4684 1741 
L 678 1741 
L 678 2272 
z
" transform="scale(0.015625)"/>
       </defs>
       <use xlink:href="#DejaVuSans-2212"/>
       <use xlink:href="#DejaVuSans-31" x="83.789062"/>
       <use xlink:href="#DejaVuSans-30" x="147.412109"/>
       <use xlink:href="#DejaVuSans-30" x="211.035156"/>
      </g>
     </g>
    </g>
    <g id="ytick_2">
     <g id="line2d_10">
      <g>
       <use xlink:href="#m578acdfe5c" x="45" y="236.022981" style="stroke: #000000; stroke-width: 0.8"/>
      </g>
     </g>
     <g id="text_12">
      <!-- −80 -->
      <g transform="translate(16.895312 239.8222) scale(0.1 -0.1)">
       <use xlink:href="#DejaVuSans-2212"/>
       <use xlink:href="#DejaVuSans-38" x="83.789062"/>
       <use xlink:href="#DejaVuSans-30" x="147.412109"/>
      </g>
     </g>
    </g>
    <g id="ytick_3">
     <g id="line2d_11">
      <g>
       <use xlink:href="#m578acdfe5c" x="45" y="190.097832" style="stroke: #000000; stroke-width: 0.8"/>
      </g>
     </g>
     <g id="text_13">
      <!-- −60 -->
      <g transform="translate(16.895312 193.897051) scale(0.1 -0.1)">
       <use xlink:href="#DejaVuSans-2212"/>
       <use xlink:href="#DejaVuSans-36" x="83.789062"/>
       <use xlink:href="#DejaVuSans-30" x="147.412109"/>
      </g>
     </g>
    </g>
    <g id="ytick_4">
     <g id="line2d_12">
      <g>
       <use xlink:href="#m578acdfe5c" x="45" y="144.172683" style="stroke: #000000; stroke-width: 0.8"/>
      </g>
     </g>
     <g id="text_14">
      <!-- −40 -->
      <g transform="translate(16.895312 147.971901) scale(0.1 -0.1)">
       <use xlink:href="#DejaVuSans-2212"/>
       <use xlink:href="#DejaVuSans-34" x="83.789062"/>
       <use xlink:href="#DejaVuSans-30" x="147.412109"/>
      </g>
     </g>
    </g>
    <g id="ytick_5">
     <g id="line2d_13">
      <g>
       <use xlink:href="#m578acdfe5c" x="45" y="98.247533" style="stroke: #000000; stroke-width: 0.8"/>
      </g>
     </g>
     <g id="text_15">
      <!-- −20 -->
      <g transform="translate(16.895312 102.046752) scale(0.1 -0.1)">
       <use xlink:href="#DejaVuSans-2212"/>
       <use xlink:href="#DejaVuSans-32" x="83.789062"/>
       <use xlink:href="#DejaVuSans-30" x="147.412109"/>
      </g>
     </g>
    </g>
    <g id="ytick_6">
     <g id="line2d_14">
      <g>
       <use xlink:href="#m578acdfe5c" x="45" y="52.322384" style="stroke: #000000; stroke-width: 0.8"/>
      </g>
     </g>
     <g id="text_16">
      <!-- 0 -->
      <g transform="translate(31.6375 56.121603) scale(0.1 -0.1)">
       <use xlink:href="#DejaVuSans-30"/>
      </g>
     </g>
    </g>
    <g id="text_17">
     <!-- Latitude -->
     <g transform="translate(4.453125 202.378906) rotate(-90) scale(0.1 -0.1)">
      <defs>
       <path id="DejaVuSans-4c" d="M 628 4666 
L 1259 4666 
L 1259 531 
L 3531 531 
L 3531 0 
L 628 0 
L 628 4666 
z
" transform="scale(0.015625)"/>
       <path id="DejaVuSans-61" d="M 2194 1759 
Q 1497 1759 1228 1600 
Q 959 1441 959 1056 
Q 959 750 1161 570 
Q 1363 391 1709 391 
Q 2188 391 2477 730 
Q 2766 1069 2766 1631 
L 2766 1759 
L 2194 1759 
z
M 3341 1997 
L 3341 0 
L 2766 0 
L 2766 531 
Q 2569 213 2275 61 
Q 1981 -91 1556 -91 
Q 1019 -91 701 211 
Q 384 513 384 1019 
Q 384 1609 779 1909 
Q 1175 2209 1959 2209 
L 2766 2209 
L 2766 2266 
Q 2766 2663 2505 2880 
Q 2244 3097 1772 3097 
Q 1472 3097 1187 3025 
Q 903 2953 641 2809 
L 641 3341 
Q 956 3463 1253 3523 
Q 1550 3584 1831 3584 
Q 2591 3584 2966 3190 
Q 3341 2797 3341 1997 
z
" transform="scale(0.015625)"/>
       <path id="DejaVuSans-74" d="M 1172 4494 
L 1172 3500 
L 2356 3500 
L 2356 3053 
L 1172 3053 
L 1172 1153 
Q 1172 725 1289 603 
Q 1406 481 1766 481 
L 2356 481 
L 2356 0 
L 1766 0 
Q 1100 0 847 248 
Q 594 497 594 1153 
L 594 3053 
L 172 3053 
L 172 3500 
L 594 3500 
L 594 4494 
L 1172 4494 
z
" transform="scale(0.015625)"/>
       <path id="DejaVuSans-75" d="M 544 1381 
L 544 3500 
L 1119 3500 
L 1119 1403 
Q 1119 906 1312 657 
Q 1506 409 1894 409 
Q 2359 409 2629 706 
Q 2900 1003 2900 1516 
L 2900 3500 
L 3475 3500 
L 3475 0 
L 2900 0 
L 2900 538 
Q 2691 219 2414 64 
Q 2138 -91 1772 -91 
Q 1169 -91 856 284 
Q 544 659 544 1381 
z
M 1991 3584 
L 1991 3584 
z
" transform="scale(0.015625)"/>
       <path id="DejaVuSans-64" d="M 2906 2969 
L 2906 4863 
L 3481 4863 
L 3481 0 
L 2906 0 
L 2906 525 
Q 2725 213 2448 61 
Q 2172 -91 1784 -91 
Q 1150 -91 751 415 
Q 353 922 353 1747 
Q 353 2572 751 3078 
Q 1150 3584 1784 3584 
Q 2172 3584 2448 3432 
Q 2725 3281 2906 2969 
z
M 947 1747 
Q 947 1113 1208 752 
Q 1469 391 1925 391 
Q 2381 391 2643 752 
Q 2906 1113 2906 1747 
Q 2906 2381 2643 2742 
Q 2381 3103 1925 3103 
Q 1469 3103 1208 2742 
Q 947 2381 947 1747 
z
" transform="scale(0.015625)"/>
      </defs>
      <use xlink:href="#DejaVuSans-4c"/>
      <use xlink:href="#DejaVuSans-61" x="55.712891"/>
      <use xlink:href="#DejaVuSans-74" x="116.992188"/>
      <use xlink:href="#DejaVuSans-69" x="156.201172"/>
      <use xlink:href="#DejaVuSans-74" x="183.984375"/>
      <use xlink:href="#DejaVuSans-75" x="223.193359"/>
      <use xlink:href="#DejaVuSans-64" x="286.572266"/>
      <use xlink:href="#DejaVuSans-65" x="350.048828"/>
     </g>
    </g>
   </g>
   <g id="line2d_15">
    <path d="M 45 55.8 
L 45.365439 64.344135 
L 46.702688 104.256284 
L 48.083056 142.044512 
L 49.141628 169.790182 
L 51.662867 231.963203 
L 52.070979 237.896626 
L 52.314608 239.214059 
L 52.437981 239.255352 
L 52.719892 238.823542 
L 53.65187 237.344005 
L 53.693634 237.371055 
L 53.816724 237.462644 
L 54.67221 239.105651 
L 55.198959 239.472763 
L 55.564408 239.693451 
L 56.576461 239.713405 
L 56.940277 239.549567 
L 57.508765 237.726201 
L 57.752051 236.434364 
L 58.038711 233.188503 
L 58.485736 224.36603 
L 59.624373 196.739007 
L 62.21255 132.350308 
L 62.496048 130.766699 
L 62.657997 130.635806 
L 62.781411 130.895123 
L 62.984845 132.021283 
L 63.273077 135.391029 
L 63.927986 147.641254 
L 66.892408 204.594394 
L 67.216049 206.576972 
L 67.53973 208.574758 
L 67.864666 212.395383 
L 68.553353 224.591483 
L 70.259236 260.130566 
L 71.277668 279.505799 
L 71.521256 280.858077 
L 71.642755 280.979397 
L 71.682929 280.947249 
L 71.80632 280.596991 
L 72.01134 279.235375 
L 72.296812 275.706337 
L 73.108214 260.087487 
L 76.024836 205.904066 
L 76.309885 204.719778 
L 76.553479 204.066983 
L 76.756919 202.739283 
L 77.040383 198.989952 
L 77.65223 187.209597 
L 80.695423 124.000806 
L 80.940313 123.18867 
L 81.060512 123.206965 
L 81.223809 123.724451 
L 81.467394 125.441424 
L 81.790761 129.778239 
L 85.123706 183.032678 
L 85.450535 187.382072 
L 85.895649 197.562079 
L 86.999236 227.837536 
L 88.536823 270.524656 
L 88.78038 272.712698 
L 88.94361 272.967092 
L 89.063828 272.852395 
L 89.552315 272.209919 
L 89.919004 272.11486 
L 90.526129 271.807121 
L 90.811172 271.704407 
L 91.216426 271.994172 
L 91.703385 272.334637 
L 92.312018 272.412229 
L 92.433843 272.371199 
L 92.597088 271.902792 
L 92.882137 270.223328 
L 93.207407 266.831709 
L 93.572467 259.86065 
L 94.629833 232.798547 
L 96.777621 178.614285 
L 97.181291 175.865457 
L 97.506201 173.17199 
L 97.950068 166.657267 
L 99.659121 135.376821 
L 100.712957 117.048908 
L 100.916372 116.086284 
L 100.998034 116.090545 
L 101.158078 116.684135 
L 101.443162 119.386677 
L 102.175227 130.227734 
L 105.021348 172.056745 
L 105.953689 197.514593 
L 107.982901 252.754764 
L 109.200318 265.888834 
L 110.175994 280.127883 
L 111.10961 293.582744 
L 111.273216 293.862681 
L 111.395012 293.610372 
L 111.600039 292.360212 
L 111.923656 288.629442 
L 115.404606 236.941856 
L 116.299976 212.097962 
L 118.166242 161.305179 
L 118.534519 156.98357 
L 118.899916 153.262742 
L 119.510217 143.734268 
L 121.743216 109.643398 
L 121.946601 109.073139 
L 122.026657 109.209928 
L 122.18861 110.063334 
L 122.472111 113.212261 
L 125.553887 155.531012 
L 126.327695 176.874459 
L 128.23702 229.797883 
L 129.54242 253.609904 
L 131.53051 293.441313 
L 131.69088 293.619622 
L 131.854134 293.443556 
L 132.631231 292.168519 
L 132.954833 292.228732 
L 133.766956 292.423316 
L 134.335476 292.22514 
L 134.499052 291.358315 
L 134.784118 288.074071 
L 135.232779 279.387861 
L 138.319587 212.577914 
L 140.18913 162.542926 
L 140.959735 144.320797 
L 141.734878 134.722073 
L 142.62899 122.325743 
L 144.136203 102.219532 
L 144.258036 102.014699 
L 144.297858 102.050162 
L 144.458323 102.80441 
L 144.786666 106.305781 
L 146.247334 123.124161 
L 147.144635 132.983429 
L 147.5097 139.856452 
L 148.642283 169.515133 
L 150.433012 213.593301 
L 151.732 245.667501 
L 153.111377 280.040516 
L 153.679908 285.976795 
L 154.615468 295.169463 
L 155.79459 307.599845 
L 155.916404 307.8 
L 155.957829 307.748809 
L 156.121412 307.066933 
L 156.403256 304.480157 
L 158.52082 282.176877 
L 158.971013 277.156108 
L 159.37629 268.940566 
L 165.266882 126.571201 
L 167.305954 101.336769 
L 167.669752 97.107214 
L 167.669752 97.107214 
" clip-path="url(#p36db7b7d87)" style="fill: none; stroke: #999999; stroke-opacity: 0.6; stroke-width: 3; stroke-linecap: square"/>
   </g>
   <g id="line2d_16">
    <path d="M 45 56.930989 
L 45.328423 65.329343 
L 46.54008 99.023934 
L 47.81232 128.766523 
L 48.210891 132.422846 
L 48.784834 137.245132 
L 49.06224 142.279512 
L 49.833874 162.641226 
L 52.474011 227.238752 
L 52.926789 233.931136 
L 53.290286 236.482909 
L 53.554937 237.078487 
L 53.8164 237.137053 
L 54.176709 237.224017 
L 54.470057 237.72967 
L 55.158789 238.946561 
L 55.452137 239.027341 
L 56.564949 239.008701 
L 57.680949 239.518926 
L 57.958354 239.401706 
L 58.098651 238.931915 
L 58.312286 237.178923 
L 58.79376 230.814374 
L 59.147691 223.217499 
L 62.540331 139.299994 
L 62.951657 134.651812 
L 63.197177 133.641462 
L 63.283269 133.753392 
L 63.449074 134.497242 
L 63.991131 138.42638 
L 64.268537 141.521235 
L 64.718126 149.887897 
L 67.05216 195.551619 
L 67.504937 200.650872 
L 68.92704 212.489215 
L 69.290537 219.442563 
L 71.0028 254.54374 
L 72.058217 273.861265 
L 72.456789 277.165919 
L 72.65448 277.714896 
L 72.670423 277.708467 
L 72.775646 277.501269 
L 72.98928 276.436741 
L 73.713086 271.196442 
L 74.016 266.343734 
L 77.013257 210.621579 
L 77.4756 207.665379 
L 77.941131 203.949114 
L 78.527829 197.577934 
L 78.920023 189.592153 
L 80.641851 152.716594 
L 81.776983 130.539775 
L 82.175554 127.027415 
L 82.411509 126.309834 
L 82.513543 126.44622 
L 82.727177 127.244345 
L 83.486057 131.225033 
L 83.776217 134.791772 
L 84.694526 150.421212 
L 86.138949 172.66385 
L 86.55984 176.108096 
L 87.149726 179.973238 
L 87.790629 186.957287 
L 88.090354 192.368625 
L 88.664297 208.468505 
L 90.111909 247.570228 
L 90.854846 264.74766 
L 91.259794 269.330592 
L 91.505314 270.242231 
L 91.680686 270.28284 
L 91.903886 270.044406 
L 92.203611 269.85704 
L 92.394926 269.994442 
L 92.716971 270.566702 
L 93.217577 271.317638 
L 93.565131 271.448243 
L 94.598229 271.644667 
L 95.08608 271.702147 
L 95.213623 271.422437 
L 95.382617 270.366774 
L 95.672777 266.855238 
L 95.991634 260.131407 
L 98.92512 186.427625 
L 99.342823 182.859738 
L 100.15272 176.680698 
L 100.490709 171.992459 
L 103.484777 120.818978 
L 103.825954 119.153336 
L 103.921611 119.110458 
L 103.959874 119.146381 
L 104.135246 119.546941 
L 104.744263 121.708061 
L 105.005726 123.365223 
L 105.334149 127.118444 
L 107.658617 156.892611 
L 108.596057 163.317163 
L 109.052023 169.117915 
L 109.3932 177.351607 
L 111.676217 239.831676 
L 112.081166 244.771611 
L 112.482926 247.087683 
L 113.028171 250.411626 
L 113.375726 254.068588 
L 113.99112 263.651581 
L 115.37496 283.770112 
L 115.913829 289.811015 
L 116.283703 291.764091 
L 116.427189 291.967383 
L 116.459074 291.949075 
L 116.608937 291.666948 
L 117.020263 290.260291 
L 117.412457 288.453306 
L 117.712183 285.571018 
L 118.502949 274.396472 
L 119.867657 256.472588 
L 120.30768 253.141077 
L 120.939017 249.350969 
L 121.477886 243.504861 
L 121.7808 237.68878 
L 122.367497 220.503867 
L 123.837429 179.114287 
L 124.350789 168.936829 
L 124.736606 165.108907 
L 125.785646 157.627894 
L 126.193783 151.218916 
L 127.545737 129.231619 
L 128.613909 114.197888 
L 128.996537 112.002733 
L 129.1464 111.815809 
L 129.16872 111.826767 
L 129.328149 112.070413 
L 129.774549 113.33341 
L 130.064709 114.55899 
L 130.370811 117.00744 
L 131.049977 125.305572 
L 132.309463 139.831838 
L 132.749486 142.793057 
L 133.396766 146.110334 
L 133.843166 150.574828 
L 134.136514 156.16296 
L 134.755097 173.877526 
L 136.078354 209.621399 
L 136.585337 218.987838 
L 136.990286 222.791856 
L 137.745977 228.887243 
L 138.032949 233.774481 
L 139.337074 264.172492 
L 140.535977 287.629682 
L 140.924983 291.291725 
L 141.129051 291.675112 
L 141.272537 291.531596 
L 141.849669 290.882007 
L 142.076057 291.064836 
L 142.987989 292.018643 
L 143.504537 291.967505 
L 144.059349 291.71926 
L 144.202834 291.178307 
L 144.416469 289.292258 
L 144.709817 284.525621 
L 145.902343 257.656911 
L 147.15864 233.441146 
L 147.5604 230.120269 
L 148.064194 226.251221 
L 148.510594 221.111901 
L 148.83264 213.832121 
L 151.071017 154.819844 
L 151.472777 150.340362 
L 151.903234 148.015881 
L 152.324126 145.167266 
L 152.681246 140.737468 
L 154.801646 109.744281 
L 155.235291 106.022792 
L 155.570091 104.747567 
L 155.7072 104.768427 
L 155.949531 105.170608 
L 156.383177 106.26794 
L 156.682903 107.933385 
L 157.075097 111.598651 
L 158.790549 128.472632 
L 159.192309 130.368377 
L 159.514354 131.742362 
L 159.948 135.049171 
L 160.234971 138.962095 
L 160.611223 147.982507 
L 162.33624 192.138259 
L 162.795394 198.879827 
L 163.283246 202.697939 
L 163.755154 207.1287 
L 164.038937 212.20856 
L 164.616069 228.156663 
L 165.888309 261.347667 
L 166.39848 270.526425 
L 166.787486 274.037577 
L 167.265771 276.13431 
L 167.594194 278.208355 
L 167.9832 282.332516 
L 169.449943 299.455149 
L 170.049394 304.757956 
L 170.419269 306.305572 
L 170.556377 306.422021 
L 170.585074 306.403661 
L 170.782766 306.10165 
L 171.162206 305.109757 
L 171.471497 303.39804 
L 171.8892 299.594671 
L 173.7864 281.311698 
L 174.181783 279.817848 
L 174.430491 278.598487 
L 174.85776 275.253346 
L 175.135166 271.241343 
L 175.543303 261.197249 
L 177.175851 219.282912 
L 177.650949 211.830166 
L 178.103726 208.089515 
L 178.642594 203.199649 
L 178.929566 198.145884 
L 179.490754 182.68877 
L 180.766183 149.306782 
L 181.279543 140.06266 
L 181.671737 136.477263 
L 182.523086 130.892977 
L 183.00456 124.193971 
L 184.222594 107.653798 
L 184.975097 99.263498 
L 185.354537 97.327095 
L 185.647886 95.792825 
L 186.011383 92.525377 
L 186.288789 87.54861 
L 186.837223 72.191348 
L 187.360149 60.243473 
L 187.726834 56.254724 
L 187.752343 56.090782 
L 188.364549 56.015695 
L 188.702537 56.513756 
L 188.881097 56.462704 
L 189.129806 56.091078 
L 189.247783 55.847189 
L 189.247783 55.847189 
" clip-path="url(#p36db7b7d87)" style="fill: none; stroke: #2c7bb6; stroke-opacity: 0.7; stroke-width: 3; stroke-linecap: square"/>
   </g>
   <g id="line2d_17">
    <path d="M 45 56.881091 
L 45.37944 65.807435 
L 47.694343 125.521985 
L 48.166251 131.73291 
L 49.001657 140.823539 
L 49.652126 155.887131 
L 53.067086 234.842039 
L 53.452903 237.746278 
L 53.743063 238.530396 
L 54.0396 238.73465 
L 54.53064 238.798595 
L 54.95472 239.127217 
L 55.410686 239.182122 
L 56.220583 239.174063 
L 57.167589 239.372624 
L 57.782983 239.603228 
L 58.417509 239.62157 
L 58.541863 239.201533 
L 58.739554 237.621963 
L 59.504811 228.919898 
L 60.027737 217.552345 
L 62.218286 166.029857 
L 63.445886 138.506942 
L 63.911417 133.374472 
L 64.086789 132.81296 
L 64.10592 132.823217 
L 64.214331 133.069351 
L 64.494926 134.396551 
L 65.068869 137.996971 
L 65.362217 142.39618 
L 67.814229 188.228654 
L 68.410491 197.602741 
L 68.8824 201.905324 
L 69.826217 209.198208 
L 70.17696 212.66332 
L 70.588286 219.80498 
L 73.700331 275.80849 
L 74.086149 278.390957 
L 74.17224 278.449102 
L 74.213691 278.400802 
L 74.37312 277.889193 
L 74.937497 275.027193 
L 75.183017 272.928568 
L 75.505063 267.673307 
L 78.578846 211.80662 
L 79.085829 207.69404 
L 80.061531 199.672906 
L 80.342126 195.881713 
L 81.356091 176.221935 
L 83.951589 127.754482 
L 84.295954 125.601219 
L 84.385234 125.570749 
L 84.420309 125.607518 
L 84.605246 126.066871 
L 85.105851 128.002963 
L 85.348183 129.620507 
L 85.66704 133.530908 
L 88.641977 175.770741 
L 89.3052 180.877361 
L 90.022629 188.635692 
L 90.382937 196.513835 
L 93.27816 266.852067 
L 93.673543 270.704507 
L 93.92544 271.344898 
L 94.14864 271.380637 
L 94.636491 271.462171 
L 95.561177 271.631054 
L 96.409337 271.792895 
L 97.298949 271.951127 
L 97.598674 271.837166 
L 97.729406 271.36056 
L 97.939851 269.467644 
L 98.290594 264.196931 
L 98.874103 250.074489 
L 101.517429 186.761854 
L 102.014846 181.814849 
L 102.996926 172.902013 
L 103.682469 161.531656 
L 106.271589 120.209345 
L 106.619143 118.367729 
L 106.733931 118.369472 
L 106.749874 118.386299 
L 106.985829 118.832974 
L 107.432229 120.276566 
L 107.69688 122.189738 
L 108.089074 126.897774 
L 110.432674 156.178315 
L 111.618823 165.452035 
L 111.902606 169.732939 
L 112.368137 181.356989 
L 114.756377 241.971138 
L 115.199589 246.649216 
L 116.398491 256.489196 
L 119.182114 291.566354 
L 119.48184 292.626449 
L 119.596629 292.533195 
L 119.912297 291.777721 
L 120.301303 290.237078 
L 120.607406 287.431699 
L 121.544846 275.240575 
L 123.222034 254.35767 
L 124.39224 245.186708 
L 124.688777 240.923814 
L 125.090537 231.074514 
L 127.526606 168.717315 
L 127.982571 163.804911 
L 129.104949 153.904876 
L 130.743874 128.97824 
L 131.80248 114.21845 
L 132.223371 111.460132 
L 132.395554 111.207801 
L 132.408309 111.212684 
L 132.58368 111.419738 
L 133.010949 112.41616 
L 133.23096 113.494935 
L 133.562571 116.38561 
L 135.316286 136.424128 
L 135.893417 141.568668 
L 136.993474 149.292836 
L 137.274069 153.446008 
L 137.745977 165.011624 
L 139.952469 219.215411 
L 140.437131 224.302489 
L 141.224709 232.223238 
L 141.773143 243.482174 
L 144.043406 288.966824 
L 144.381394 292.021271 
L 144.588651 292.394935 
L 145.357097 292.458284 
L 147.554023 292.169342 
L 147.697509 291.543579 
L 147.93984 289.098392 
L 148.293771 283.030755 
L 150.790423 233.449134 
L 151.393063 227.931228 
L 152.132811 219.620241 
L 152.547326 209.704789 
L 154.760194 154.425218 
L 155.203406 149.337825 
L 156.367234 139.209009 
L 158.745909 107.322438 
L 159.179554 104.568715 
L 159.383623 104.218119 
L 159.578126 104.361017 
L 159.935246 104.906543 
L 160.142503 105.741493 
L 160.470926 108.218174 
L 161.663451 120.274564 
L 162.575383 128.524532 
L 163.00584 130.594732 
L 163.244983 131.989056 
L 163.806171 136.986656 
L 164.093143 142.505745 
L 165.585394 180.207187 
L 166.28688 195.450236 
L 166.758789 201.135729 
L 167.606949 209.999267 
L 167.973634 218.277651 
L 170.043017 268.304641 
L 170.52768 274.047703 
L 170.993211 276.869041 
L 171.366274 279.243241 
L 171.82224 283.77302 
L 173.824663 304.38848 
L 174.2328 306.371549 
L 174.449623 306.725697 
L 174.605863 306.574314 
L 174.927909 306.035568 
L 175.14792 305.093604 
L 175.473154 302.557003 
L 177.858206 280.675319 
L 178.454469 277.317862 
L 178.856229 273.539965 
L 179.152766 267.671117 
L 181.639851 210.80842 
L 182.835566 196.830755 
L 184.047223 166.430457 
L 185.12496 141.735957 
L 185.59368 136.27596 
L 186.827657 125.164653 
L 188.951246 99.239383 
L 189.407211 96.663132 
L 189.694183 94.672197 
L 190.076811 90.676245 
L 190.386103 84.018378 
L 191.438331 60.21253 
L 191.763566 56.191443 
L 191.763566 56.191443 
" clip-path="url(#p36db7b7d87)" style="fill: none; stroke: #d7191c; stroke-opacity: 0.7; stroke-width: 3; stroke-linecap: square"/>
   </g>
   <g id="patch_3">
    <path d="M 45 320.4 
L 45 43.2 
" style="fill: none; stroke: #000000; stroke-width: 0.8; stroke-linejoin: miter; stroke-linecap: square"/>
   </g>
   <g id="patch_4">
    <path d="M 324 320.4 
L 324 43.2 
" style="fill: none; stroke: #000000; stroke-width: 0.8; stroke-linejoin: miter; stroke-linecap: square"/>
   </g>
   <g id="patch_5">
    <path d="M 45 320.4 
L 324 320.4 
" style="fill: none; stroke: #000000; stroke-width: 0.8; stroke-linejoin: miter; stroke-linecap: square"/>
   </g>
   <g id="patch_6">
    <path d="M 45 43.2 
L 324 43.2 
" style="fill: none; stroke: #000000; stroke-width: 0.8; stroke-linejoin: miter; stroke-linecap: square"/>
   </g>
  </g>
 </g>
 <defs>
  <clipPath id="p36db7b7d87">
   <rect x="45" y="43.2" width="279" height="277.2"/>
  </clipPath>
 </defs>
</svg>
