<?xml version="1.0" encoding="utf-8" standalone="no"?>
<!DOCTYPE svg PUBLIC "-//W3C//DTD SVG 1.1//EN"
  "http://www.w3.org/Graphics/SVG/1.1/DTD/svg11.dtd">
<svg xmlns:xlink="http://www.w3.org/1999/xlink" width="360pt" height="360pt" viewBox="0 0 360 360" xmlns="http://www.w3.org/2000/svg" version="1.1">
 <metadata>
  <rdf:RDF xmlns:dc="http://purl.org/dc/elements/1.1/" xmlns:cc="http://creativecommons.org/ns#" xmlns:rdf="http://www.w3.org/1999/02/22-rdf-syntax-ns#">
   <cc:Work>
    <dc:type rdf:resource="http://purl.org/dc/dcmitype/StillImage"/>
    <dc:date>2023-05-01T10:05:22.630182</dc:date>
    <dc:format>image/svg+xml</dc:format>
    <dc:creator>
     <cc:Agent>
      <dc:title>Matplotlib v3.6.3, https://matplotlib.org/</dc:title>
     </cc:Agent>
    </dc:creator>
   </cc:Work>
  </rdf:RDF>
 </metadata>
 <defs>
  <style type="text/css">*{stroke-linejoin: round; stroke-linecap: butt}</style>
 </defs>
 <g id="figure_1">
  <g id="patch_1">
   <path d="M 0 360 
L 360 360 
L 360 0 
L 0 0 
z
" style="fill: #ffffff"/>
  </g>
  <g id="axes_1">
   <g id="patch_2">
    <path d="M 45 320.4 
L 324 320.4 
L 324 43.2 
L 45 43.2 
z
" style="fill: #ffffff"/>
   </g>
   <g id="matplotlib.axis_1">
    <g id="xtick_1">
     <g id="line2d_1">
      <defs>
       <path id="m70bc23f9d0" d="M 0 0 
L 0 3.5 
" style="stroke: #000000; stroke-width: 0.8"/>
      </defs>
      <g>
       <use xlink:href="#m70bc23f9d0" x="57.681818" y="320.4" style="stroke: #000000; stroke-width: 0.8"/>
      </g>
     </g>
     <g id="text_1">
      <!-- 0 -->
      <g transform="translate(54.500568 334.998438) scale(0.1 -0.1)">
       <defs>
        <path id="DejaVuSans-30" d="M 2034 4250 
Q 1547 4250 1301 3770 
Q 1056 3291 1056 2328 
Q 1056 1369 1301 889 
Q 1547 409 2034 409 
Q 2525 409 2770 889 
Q 3016 1369 3016 2328 
Q 3016 3291 2770 3770 
Q 2525 4250 2034 4250 
z
M 2034 4750 
Q 2819 4750 3233 4129 
Q 3647 3509 3647 2328 
Q 3647 1150 3233 529 
Q 2819 -91 2034 -91 
Q 1250 -91 836 529 
Q 422 1150 422 2328 
Q 422 3509 836 4129 
Q 1250 4750 2034 4750 
z
" transform="scale(0.015625)"/>
       </defs>
       <use xlink:href="#DejaVuSans-30"/>
      </g>
     </g>
    </g>
    <g id="xtick_2">
     <g id="line2d_2">
      <g>
       <use xlink:href="#m70bc23f9d0" x="100.325833" y="320.4" style="stroke: #000000; stroke-width: 0.8"/>
      </g>
     </g>
     <g id="text_2">
      <!-- 1 -->
      <g transform="translate(97.144583 334.998438) scale(0.1 -0.1)">
       <defs>
        <path id="DejaVuSans-31" d="M 794 531 
L 1825 531 
L 1825 4091 
L 703 3866 
L 703 4441 
L 1819 4666 
L 2450 4666 
L 2450 531 
L 3481 531 
L 3481 0 
L 794 0 
L 794 531 
z
" transform="scale(0.015625)"/>
       </defs>
       <use xlink:href="#DejaVuSans-31"/>
      </g>
     </g>
    </g>
    <g id="xtick_3">
     <g id="line2d_3">
      <g>
       <use xlink:href="#m70bc23f9d0" x="142.969847" y="320.4" style="stroke: #000000; stroke-width: 0.8"/>
      </g>
     </g>
     <g id="text_3">
      <!-- 2 -->
      <g transform="translate(139.788597 334.998438) scale(0.1 -0.1)">
       <defs>
        <path id="DejaVuSans-32" d="M 1228 531 
L 3431 531 
L 3431 0 
L 469 0 
L 469 531 
Q 828 903 1448 1529 
Q 2069 2156 2228 2338 
Q 2531 2678 2651 2914 
Q 2772 3150 2772 3378 
Q 2772 3750 2511 3984 
Q 2250 4219 1831 4219 
Q 1534 4219 1204 4116 
Q 875 4013 500 3803 
L 500 4441 
Q 881 4594 1212 4672 
Q 1544 4750 1819 4750 
Q 2544 4750 2975 4387 
Q 3406 4025 3406 3419 
Q 3406 3131 3298 2873 
Q 3191 2616 2906 2266 
Q 2828 2175 2409 1742 
Q 1991 1309 1228 531 
z
" transform="scale(0.015625)"/>
       </defs>
       <use xlink:href="#DejaVuSans-32"/>
      </g>
     </g>
    </g>
    <g id="xtick_4">
     <g id="line2d_4">
      <g>
       <use xlink:href="#m70bc23f9d0" x="185.613862" y="320.4" style="stroke: #000000; stroke-width: 0.8"/>
      </g>
     </g>
     <g id="text_4">
      <!-- 3 -->
      <g transform="translate(182.432612 334.998438) scale(0.1 -0.1)">
       <defs>
        <path id="DejaVuSans-33" d="M 2597 2516 
Q 3050 2419 3304 2112 
Q 3559 1806 3559 1356 
Q 3559 666 3084 287 
Q 2609 -91 1734 -91 
Q 1441 -91 1130 -33 
Q 819 25 488 141 
L 488 750 
Q 750 597 1062 519 
Q 1375 441 1716 441 
Q 2309 441 2620 675 
Q 2931 909 2931 1356 
Q 2931 1769 2642 2001 
Q 2353 2234 1838 2234 
L 1294 2234 
L 1294 2753 
L 1863 2753 
Q 2328 2753 2575 2939 
Q 2822 3125 2822 3475 
Q 2822 3834 2567 4026 
Q 2313 4219 1838 4219 
Q 1578 4219 1281 4162 
Q 984 4106 628 3988 
L 628 4550 
Q 988 4650 1302 4700 
Q 1616 4750 1894 4750 
Q 2613 4750 3031 4423 
Q 3450 4097 3450 3541 
Q 3450 3153 3228 2886 
Q 3006 2619 2597 2516 
z
" transform="scale(0.015625)"/>
       </defs>
       <use xlink:href="#DejaVuSans-33"/>
      </g>
     </g>
    </g>
    <g id="xtick_5">
     <g id="line2d_5">
      <g>
       <use xlink:href="#m70bc23f9d0" x="228.257876" y="320.4" style="stroke: #000000; stroke-width: 0.8"/>
      </g>
     </g>
     <g id="text_5">
      <!-- 4 -->
      <g transform="translate(225.076626 334.998438) scale(0.1 -0.1)">
       <defs>
        <path id="DejaVuSans-34" d="M 2419 4116 
L 825 1625 
L 2419 1625 
L 2419 4116 
z
M 2253 4666 
L 3047 4666 
L 3047 1625 
L 3713 1625 
L 3713 1100 
L 3047 1100 
L 3047 0 
L 2419 0 
L 2419 1100 
L 313 1100 
L 313 1709 
L 2253 4666 
z
" transform="scale(0.015625)"/>
       </defs>
       <use xlink:href="#DejaVuSans-34"/>
      </g>
     </g>
    </g>
    <g id="xtick_6">
     <g id="line2d_6">
      <g>
       <use xlink:href="#m70bc23f9d0" x="270.901891" y="320.4" style="stroke: #000000; stroke-width: 0.8"/>
      </g>
     </g>
     <g id="text_6">
      <!-- 5 -->
      <g transform="translate(267.720641 334.998438) scale(0.1 -0.1)">
       <defs>
        <path id="DejaVuSans-35" d="M 691 4666 
L 3169 4666 
L 3169 4134 
L 1269 4134 
L 1269 2991 
Q 1406 3038 1543 3061 
Q 1681 3084 1819 3084 
Q 2600 3084 3056 2656 
Q 3513 2228 3513 1497 
Q 3513 744 3044 326 
Q 2575 -91 1722 -91 
Q 1428 -91 1123 -41 
Q 819 9 494 109 
L 494 744 
Q 775 591 1075 516 
Q 1375 441 1709 441 
Q 2250 441 2565 725 
Q 2881 1009 2881 1497 
Q 2881 1984 2565 2268 
Q 2250 2553 1709 2553 
Q 1456 2553 1204 2497 
Q 953 2441 691 2322 
L 691 4666 
z
" transform="scale(0.015625)"/>
       </defs>
       <use xlink:href="#DejaVuSans-35"/>
      </g>
     </g>
    </g>
    <g id="xtick_7">
     <g id="line2d_7">
      <g>
       <use xlink:href="#m70bc23f9d0" x="313.545905" y="320.4" style="stroke: #000000; stroke-width: 0.8"/>
      </g>
     </g>
     <g id="text_7">
      <!-- 6 -->
      <g transform="translate(310.364655 334.998438) scale(0.1 -0.1)">
       <defs>
        <path id="DejaVuSans-36" d="M 2113 2584 
Q 1688 2584 1439 2293 
Q 1191 2003 1191 1497 
Q 1191 994 1439 701 
Q 1688 409 2113 409 
Q 2538 409 2786 701 
Q 3034 994 3034 1497 
Q 3034 2003 2786 2293 
Q 2538 2584 2113 2584 
z
M 3366 4563 
L 3366 3988 
Q 3128 4100 2886 4159 
Q 2644 4219 2406 4219 
Q 1781 4219 1451 3797 
Q 1122 3375 1075 2522 
Q 1259 2794 1537 2939 
Q 1816 3084 2150 3084 
Q 2853 3084 3261 2657 
Q 3669 2231 3669 1497 
Q 3669 778 3244 343 
Q 2819 -91 2113 -91 
Q 1303 -91 875 529 
Q 447 1150 447 2328 
Q 447 3434 972 4092 
Q 1497 4750 2381 4750 
Q 2619 4750 2861 4703 
Q 3103 4656 3366 4563 
z
" transform="scale(0.015625)"/>
       </defs>
       <use xlink:href="#DejaVuSans-36"/>
      </g>
     </g>
    </g>
    <g id="text_8">
     <!-- Time (m/s) -->
     <g transform="translate(157.616406 348.676562) scale(0.1 -0.1)">
      <defs>
       <path id="DejaVuSans-54" d="M -19 4666 
L 3928 4666 
L 3928 4134 
L 2272 4134 
L 2272 0 
L 1638 0 
L 1638 4134 
L -19 4134 
L -19 4666 
z
" transform="scale(0.015625)"/>
       <path id="DejaVuSans-69" d="M 603 3500 
L 1178 3500 
L 1178 0 
L 603 0 
L 603 3500 
z
M 603 4863 
L 1178 4863 
L 1178 4134 
L 603 4134 
L 603 4863 
z
" transform="scale(0.015625)"/>
       <path id="DejaVuSans-6d" d="M 3328 2828 
Q 3544 3216 3844 3400 
Q 4144 3584 4550 3584 
Q 5097 3584 5394 3201 
Q 5691 2819 5691 2113 
L 5691 0 
L 5113 0 
L 5113 2094 
Q 5113 2597 4934 2840 
Q 4756 3084 4391 3084 
Q 3944 3084 3684 2787 
Q 3425 2491 3425 1978 
L 3425 0 
L 2847 0 
L 2847 2094 
Q 2847 2600 2669 2842 
Q 2491 3084 2119 3084 
Q 1678 3084 1418 2786 
Q 1159 2488 1159 1978 
L 1159 0 
L 581 0 
L 581 3500 
L 1159 3500 
L 1159 2956 
Q 1356 3278 1631 3431 
Q 1906 3584 2284 3584 
Q 2666 3584 2933 3390 
Q 3200 3197 3328 2828 
z
" transform="scale(0.015625)"/>
       <path id="DejaVuSans-65" d="M 3597 1894 
L 3597 1613 
L 953 1613 
Q 991 1019 1311 708 
Q 1631 397 2203 397 
Q 2534 397 2845 478 
Q 3156 559 3463 722 
L 3463 178 
Q 3153 47 2828 -22 
Q 2503 -91 2169 -91 
Q 1331 -91 842 396 
Q 353 884 353 1716 
Q 353 2575 817 3079 
Q 1281 3584 2069 3584 
Q 2775 3584 3186 3129 
Q 3597 2675 3597 1894 
z
M 3022 2063 
Q 3016 2534 2758 2815 
Q 2500 3097 2075 3097 
Q 1594 3097 1305 2825 
Q 1016 2553 972 2059 
L 3022 2063 
z
" transform="scale(0.015625)"/>
       <path id="DejaVuSans-20" transform="scale(0.015625)"/>
       <path id="DejaVuSans-28" d="M 1984 4856 
Q 1566 4138 1362 3434 
Q 1159 2731 1159 2009 
Q 1159 1288 1364 580 
Q 1569 -128 1984 -844 
L 1484 -844 
Q 1016 -109 783 600 
Q 550 1309 550 2009 
Q 550 2706 781 3412 
Q 1013 4119 1484 4856 
L 1984 4856 
z
" transform="scale(0.015625)"/>
       <path id="DejaVuSans-2f" d="M 1625 4666 
L 2156 4666 
L 531 -594 
L 0 -594 
L 1625 4666 
z
" transform="scale(0.015625)"/>
       <path id="DejaVuSans-73" d="M 2834 3397 
L 2834 2853 
Q 2591 2978 2328 3040 
Q 2066 3103 1784 3103 
Q 1356 3103 1142 2972 
Q 928 2841 928 2578 
Q 928 2378 1081 2264 
Q 1234 2150 1697 2047 
L 1894 2003 
Q 2506 1872 2764 1633 
Q 3022 1394 3022 966 
Q 3022 478 2636 193 
Q 2250 -91 1575 -91 
Q 1294 -91 989 -36 
Q 684 19 347 128 
L 347 722 
Q 666 556 975 473 
Q 1284 391 1588 391 
Q 1994 391 2212 530 
Q 2431 669 2431 922 
Q 2431 1156 2273 1281 
Q 2116 1406 1581 1522 
L 1381 1569 
Q 847 1681 609 1914 
Q 372 2147 372 2553 
Q 372 3047 722 3315 
Q 1072 3584 1716 3584 
Q 2034 3584 2315 3537 
Q 2597 3491 2834 3397 
z
" transform="scale(0.015625)"/>
       <path id="DejaVuSans-29" d="M 513 4856 
L 1013 4856 
Q 1481 4119 1714 3412 
Q 1947 2706 1947 2009 
Q 1947 1309 1714 600 
Q 1481 -109 1013 -844 
L 513 -844 
Q 928 -128 1133 580 
Q 1338 1288 1338 2009 
Q 1338 2731 1133 3434 
Q 928 4138 513 4856 
z
" transform="scale(0.015625)"/>
      </defs>
      <use xlink:href="#DejaVuSans-54"/>
      <use xlink:href="#DejaVuSans-69" x="57.958984"/>
      <use xlink:href="#DejaVuSans-6d" x="85.742188"/>
      <use xlink:href="#DejaVuSans-65" x="183.154297"/>
      <use xlink:href="#DejaVuSans-20" x="244.677734"/>
      <use xlink:href="#DejaVuSans-28" x="276.464844"/>
      <use xlink:href="#DejaVuSans-6d" x="315.478516"/>
      <use xlink:href="#DejaVuSans-2f" x="412.890625"/>
      <use xlink:href="#DejaVuSans-73" x="446.582031"/>
      <use xlink:href="#DejaVuSans-29" x="498.681641"/>
     </g>
    </g>
    <g id="text_9">
     <!-- 1e8 -->
     <g transform="translate(305.121875 347.676562) scale(0.1 -0.1)">
      <defs>
       <path id="DejaVuSans-38" d="M 2034 2216 
Q 1584 2216 1326 1975 
Q 1069 1734 1069 1313 
Q 1069 891 1326 650 
Q 1584 409 2034 409 
Q 2484 409 2743 651 
Q 3003 894 3003 1313 
Q 3003 1734 2745 1975 
Q 2488 2216 2034 2216 
z
M 1403 2484 
Q 997 2584 770 2862 
Q 544 3141 544 3541 
Q 544 4100 942 4425 
Q 1341 4750 2034 4750 
Q 2731 4750 3128 4425 
Q 3525 4100 3525 3541 
Q 3525 3141 3298 2862 
Q 3072 2584 2669 2484 
Q 3125 2378 3379 2068 
Q 3634 1759 3634 1313 
Q 3634 634 3220 271 
Q 2806 -91 2034 -91 
Q 1263 -91 848 271 
Q 434 634 434 1313 
Q 434 1759 690 2068 
Q 947 2378 1403 2484 
z
M 1172 3481 
Q 1172 3119 1398 2916 
Q 1625 2713 2034 2713 
Q 2441 2713 2670 2916 
Q 2900 3119 2900 3481 
Q 2900 3844 2670 4047 
Q 2441 4250 2034 4250 
Q 1625 4250 1398 4047 
Q 1172 3844 1172 3481 
z
" transform="scale(0.015625)"/>
      </defs>
      <use xlink:href="#DejaVuSans-31"/>
      <use xlink:href="#DejaVuSans-65" x="63.623047"/>
      <use xlink:href="#DejaVuSans-38" x="125.146484"/>
     </g>
    </g>
   </g>
   <g id="matplotlib.axis_2">
    <g id="ytick_1">
     <g id="line2d_8">
      <defs>
       <path id="m3310daccea" d="M 0 0 
L -3.5 0 
" style="stroke: #000000; stroke-width: 0.8"/>
      </defs>
      <g>
       <use xlink:href="#m3310daccea" x="45" y="282.503334" style="stroke: #000000; stroke-width: 0.8"/>
      </g>
     </g>
     <g id="text_10">
      <!-- −100 -->
      <g transform="translate(10.532812 286.302552) scale(0.1 -0.1)">
       <defs>
        <path id="DejaVuSans-2212" d="M 678 2272 
L 4684 2272 
L 4684 1741 
L 678 1741 
L 678 2272 
z
" transform="scale(0.015625)"/>
       </defs>
       <use xlink:href="#DejaVuSans-2212"/>
       <use xlink:href="#DejaVuSans-31" x="83.789062"/>
       <use xlink:href="#DejaVuSans-30" x="147.412109"/>
       <use xlink:href="#DejaVuSans-30" x="211.035156"/>
      </g>
     </g>
    </g>
    <g id="ytick_2">
     <g id="line2d_9">
      <g>
       <use xlink:href="#m3310daccea" x="45" y="237.564488" style="stroke: #000000; stroke-width: 0.8"/>
      </g>
     </g>
     <g id="text_11">
      <!-- −80 -->
      <g transform="translate(16.895312 241.363707) scale(0.1 -0.1)">
       <use xlink:href="#DejaVuSans-2212"/>
       <use xlink:href="#DejaVuSans-38" x="83.789062"/>
       <use xlink:href="#DejaVuSans-30" x="147.412109"/>
      </g>
     </g>
    </g>
    <g id="ytick_3">
     <g id="line2d_10">
      <g>
       <use xlink:href="#m3310daccea" x="45" y="192.625642" style="stroke: #000000; stroke-width: 0.8"/>
      </g>
     </g>
     <g id="text_12">
      <!-- −60 -->
      <g transform="translate(16.895312 196.424861) scale(0.1 -0.1)">
       <use xlink:href="#DejaVuSans-2212"/>
       <use xlink:href="#DejaVuSans-36" x="83.789062"/>
       <use xlink:href="#DejaVuSans-30" x="147.412109"/>
      </g>
     </g>
    </g>
    <g id="ytick_4">
     <g id="line2d_11">
      <g>
       <use xlink:href="#m3310daccea" x="45" y="147.686796" style="stroke: #000000; stroke-width: 0.8"/>
      </g>
     </g>
     <g id="text_13">
      <!-- −40 -->
      <g transform="translate(16.895312 151.486015) scale(0.1 -0.1)">
       <use xlink:href="#DejaVuSans-2212"/>
       <use xlink:href="#DejaVuSans-34" x="83.789062"/>
       <use xlink:href="#DejaVuSans-30" x="147.412109"/>
      </g>
     </g>
    </g>
    <g id="ytick_5">
     <g id="line2d_12">
      <g>
       <use xlink:href="#m3310daccea" x="45" y="102.74795" style="stroke: #000000; stroke-width: 0.8"/>
      </g>
     </g>
     <g id="text_14">
      <!-- −20 -->
      <g transform="translate(16.895312 106.547169) scale(0.1 -0.1)">
       <use xlink:href="#DejaVuSans-2212"/>
       <use xlink:href="#DejaVuSans-32" x="83.789062"/>
       <use xlink:href="#DejaVuSans-30" x="147.412109"/>
      </g>
     </g>
    </g>
    <g id="ytick_6">
     <g id="line2d_13">
      <g>
       <use xlink:href="#m3310daccea" x="45" y="57.809105" style="stroke: #000000; stroke-width: 0.8"/>
      </g>
     </g>
     <g id="text_15">
      <!-- 0 -->
      <g transform="translate(31.6375 61.608323) scale(0.1 -0.1)">
       <use xlink:href="#DejaVuSans-30"/>
      </g>
     </g>
    </g>
    <g id="text_16">
     <!-- Latitude -->
     <g transform="translate(4.453125 202.378906) rotate(-90) scale(0.1 -0.1)">
      <defs>
       <path id="DejaVuSans-4c" d="M 628 4666 
L 1259 4666 
L 1259 531 
L 3531 531 
L 3531 0 
L 628 0 
L 628 4666 
z
" transform="scale(0.015625)"/>
       <path id="DejaVuSans-61" d="M 2194 1759 
Q 1497 1759 1228 1600 
Q 959 1441 959 1056 
Q 959 750 1161 570 
Q 1363 391 1709 391 
Q 2188 391 2477 730 
Q 2766 1069 2766 1631 
L 2766 1759 
L 2194 1759 
z
M 3341 1997 
L 3341 0 
L 2766 0 
L 2766 531 
Q 2569 213 2275 61 
Q 1981 -91 1556 -91 
Q 1019 -91 701 211 
Q 384 513 384 1019 
Q 384 1609 779 1909 
Q 1175 2209 1959 2209 
L 2766 2209 
L 2766 2266 
Q 2766 2663 2505 2880 
Q 2244 3097 1772 3097 
Q 1472 3097 1187 3025 
Q 903 2953 641 2809 
L 641 3341 
Q 956 3463 1253 3523 
Q 1550 3584 1831 3584 
Q 2591 3584 2966 3190 
Q 3341 2797 3341 1997 
z
" transform="scale(0.015625)"/>
       <path id="DejaVuSans-74" d="M 1172 4494 
L 1172 3500 
L 2356 3500 
L 2356 3053 
L 1172 3053 
L 1172 1153 
Q 1172 725 1289 603 
Q 1406 481 1766 481 
L 2356 481 
L 2356 0 
L 1766 0 
Q 1100 0 847 248 
Q 594 497 594 1153 
L 594 3053 
L 172 3053 
L 172 3500 
L 594 3500 
L 594 4494 
L 1172 4494 
z
" transform="scale(0.015625)"/>
       <path id="DejaVuSans-75" d="M 544 1381 
L 544 3500 
L 1119 3500 
L 1119 1403 
Q 1119 906 1312 657 
Q 1506 409 1894 409 
Q 2359 409 2629 706 
Q 2900 1003 2900 1516 
L 2900 3500 
L 3475 3500 
L 3475 0 
L 2900 0 
L 2900 538 
Q 2691 219 2414 64 
Q 2138 -91 1772 -91 
Q 1169 -91 856 284 
Q 544 659 544 1381 
z
M 1991 3584 
L 1991 3584 
z
" transform="scale(0.015625)"/>
       <path id="DejaVuSans-64" d="M 2906 2969 
L 2906 4863 
L 3481 4863 
L 3481 0 
L 2906 0 
L 2906 525 
Q 2725 213 2448 61 
Q 2172 -91 1784 -91 
Q 1150 -91 751 415 
Q 353 922 353 1747 
Q 353 2572 751 3078 
Q 1150 3584 1784 3584 
Q 2172 3584 2448 3432 
Q 2725 3281 2906 2969 
z
M 947 1747 
Q 947 1113 1208 752 
Q 1469 391 1925 391 
Q 2381 391 2643 752 
Q 2906 1113 2906 1747 
Q 2906 2381 2643 2742 
Q 2381 3103 1925 3103 
Q 1469 3103 1208 2742 
Q 947 2381 947 1747 
z
" transform="scale(0.015625)"/>
      </defs>
      <use xlink:href="#DejaVuSans-4c"/>
      <use xlink:href="#DejaVuSans-61" x="55.712891"/>
      <use xlink:href="#DejaVuSans-74" x="116.992188"/>
      <use xlink:href="#DejaVuSans-69" x="156.201172"/>
      <use xlink:href="#DejaVuSans-74" x="183.984375"/>
      <use xlink:href="#DejaVuSans-75" x="223.193359"/>
      <use xlink:href="#DejaVuSans-64" x="286.572266"/>
      <use xlink:href="#DejaVuSans-65" x="350.048828"/>
     </g>
    </g>
   </g>
   <g id="line2d_14">
    <path d="M 57.681818 56.157798 
L 57.897782 56.067178 
L 58.244018 55.87568 
L 58.638046 55.842606 
L 59.722592 55.878887 
L 60.025928 56.232046 
L 60.545127 56.928475 
L 60.848372 57.063608 
L 61.281979 56.945829 
L 63.235462 56.242329 
L 63.365407 56.282225 
L 63.495743 56.586569 
L 63.711671 57.955166 
L 63.971969 61.212034 
L 64.362961 69.572673 
L 65.706398 106.237541 
L 67.183263 143.746967 
L 68.053851 164.379684 
L 70.317429 216.594375 
L 71.362674 237.488802 
L 71.712373 240.477411 
L 71.885397 240.740382 
L 72.060007 240.582737 
L 73.228791 238.857141 
L 73.491167 239.105164 
L 74.406129 240.615788 
L 74.971734 241.018352 
L 75.319393 241.160929 
L 75.838697 241.194838 
L 76.315206 241.183523 
L 76.747128 241.015335 
L 77.312385 239.382174 
L 77.615663 237.967035 
L 77.878024 235.372368 
L 78.272081 228.747015 
L 79.533299 201.146724 
L 82.388047 136.118323 
L 82.646978 134.683615 
L 82.821653 134.427845 
L 82.951979 134.572684 
L 83.128339 135.248891 
L 83.392395 137.422651 
L 83.786454 143.335754 
L 86.485282 192.253557 
L 87.307814 205.963622 
L 87.655789 208.376489 
L 88.044691 210.387787 
L 88.34968 213.321264 
L 88.913669 221.864572 
L 89.998121 241.79943 
L 92.087012 280.113455 
L 92.347632 281.436691 
L 92.477627 281.555405 
L 92.52061 281.523948 
L 92.652627 281.181212 
L 92.871983 279.848838 
L 93.177416 276.395591 
L 94.00298 261.863631 
L 97.123416 208.390169 
L 97.426703 207.017648 
L 97.731715 206.294787 
L 97.94938 204.995602 
L 98.252664 201.326792 
L 98.864366 190.635362 
L 102.16327 127.948137 
L 102.425283 127.153444 
L 102.553887 127.171345 
L 102.728602 127.677718 
L 102.989219 129.357816 
L 103.335196 133.601493 
L 106.856842 185.316977 
L 107.206191 189.270529 
L 107.596842 196.959241 
L 108.863144 228.345222 
L 110.552953 271.325193 
L 110.81354 273.466245 
L 110.988183 273.715175 
L 111.116807 273.602941 
L 111.63945 272.974263 
L 112.031778 272.881246 
L 112.681354 272.580116 
L 112.986328 272.479607 
L 113.419917 272.763149 
L 113.940925 273.096303 
L 114.592115 273.172228 
L 114.722458 273.13208 
L 114.897117 272.673732 
L 115.159465 271.306662 
L 115.464486 268.754389 
L 115.810776 263.495678 
L 116.506363 247.945179 
L 119.412604 181.029192 
L 119.931843 177.920172 
L 120.235152 175.11224 
L 120.754357 167.613701 
L 123.710772 120.40519 
L 123.840748 120.185282 
L 123.885471 120.20776 
L 124.056705 120.788601 
L 124.319043 122.954343 
L 124.884701 130.477319 
L 126.970148 157.628383 
L 128.190101 174.972011 
L 129.144653 198.758911 
L 131.35873 253.936933 
L 132.616929 266.260008 
L 133.619195 279.461496 
L 134.659717 293.651474 
L 134.83439 294.164318 
L 134.921748 294.118135 
L 135.053735 293.747765 
L 135.31608 291.965581 
L 135.747989 286.787099 
L 139.299372 238.463628 
L 140.214371 215.29195 
L 142.2094 165.180364 
L 142.562501 160.888439 
L 143.126448 155.508983 
L 144.341604 137.860392 
L 146.124127 113.681047 
L 146.298793 113.341062 
L 146.384447 113.474913 
L 146.514732 114.02284 
L 146.773726 116.357661 
L 149.942307 154.564277 
L 150.377612 163.878377 
L 151.813895 201.844273 
L 152.986069 230.77837 
L 154.727634 260.668726 
L 156.467175 293.456543 
L 156.681451 293.918867 
L 156.811739 293.869719 
L 157.075839 293.401772 
L 157.557183 292.58802 
L 157.816092 292.498174 
L 158.294384 292.647471 
L 158.772358 292.787476 
L 159.553917 292.559631 
L 159.728931 291.711422 
L 159.991305 289.080138 
L 160.428295 281.639542 
L 163.729285 216.610952 
L 165.379774 176.550753 
L 166.598459 148.428266 
L 167.251339 140.882507 
L 168.295256 128.053711 
L 169.997258 106.816668 
L 170.170277 106.434212 
L 170.255906 106.588865 
L 170.428862 107.53223 
L 170.778512 111.11845 
L 172.256029 126.695006 
L 173.303056 137.331459 
L 173.692282 144.402637 
L 175.253405 181.890986 
L 176.691365 213.883754 
L 177.776253 237.739944 
L 179.772976 282.079426 
L 180.513289 288.524505 
L 181.209232 294.999824 
L 182.513484 307.604143 
L 182.643816 307.8 
L 182.775816 307.507081 
L 182.99175 306.163067 
L 183.558753 300.323884 
L 184.736477 288.742082 
L 186.042336 275.814227 
L 186.520631 265.754655 
L 189.346753 201.827799 
L 190.215986 182.869044 
L 192.562464 131.418896 
L 195.218976 101.632121 
L 195.218976 101.632121 
" clip-path="url(#pdca9efbe6d)" style="fill: none; stroke: #999999; stroke-opacity: 0.6; stroke-width: 3; stroke-linecap: square"/>
   </g>
   <g id="line2d_15">
    <path d="M 57.681818 57.804797 
L 60.271163 57.714978 
L 60.929586 57.77374 
L 61.85752 57.871719 
L 64.361577 57.816505 
L 65.429383 57.888554 
L 72.412767 57.795722 
L 74.289103 57.874994 
L 78.171414 57.832403 
L 80.010224 57.805173 
L 81.494236 57.835297 
L 89.3305 57.90362 
L 89.466961 58.278927 
L 89.647771 59.587472 
L 89.900224 63.326725 
L 90.278903 72.870571 
L 91.271656 98.443914 
L 92.936478 133.503513 
L 93.36633 136.728135 
L 93.861 140.519851 
L 94.144156 144.858601 
L 94.700234 158.087339 
L 95.94544 186.252588 
L 98.255039 234.810941 
L 98.643953 237.719905 
L 98.933932 238.534359 
L 99.165915 238.645736 
L 99.769755 238.873616 
L 100.206429 239.698099 
L 100.687454 240.404931 
L 100.997902 240.506142 
L 101.495984 240.377983 
L 101.95654 240.376371 
L 102.546733 240.673028 
L 103.269975 240.979438 
L 103.679358 240.912821 
L 103.822642 240.574062 
L 104.017099 239.352071 
L 104.412835 235.028209 
L 104.815395 228.72413 
L 105.50111 212.374741 
L 107.486616 166.768277 
L 108.622652 142.774464 
L 109.045681 138.417234 
L 109.304956 137.383754 
L 109.397067 137.468593 
L 109.553997 138.056035 
L 109.990672 140.883038 
L 110.413701 144.466305 
L 110.809437 150.822696 
L 113.675115 200.793702 
L 114.098144 204.020313 
L 114.76339 208.199696 
L 115.404756 214.003291 
L 115.759554 219.850377 
L 118.338664 268.243311 
L 118.857216 275.207388 
L 119.259775 277.994158 
L 119.433763 278.361014 
L 119.457643 278.349974 
L 119.570224 278.131472 
L 119.795384 277.090714 
L 120.559565 272.056111 
L 120.876836 267.47353 
L 124.13825 212.403164 
L 124.772793 208.638757 
L 125.431217 203.190001 
L 125.786015 198.895316 
L 126.294332 188.832993 
L 127.757874 160.409966 
L 129.214594 134.121803 
L 129.623976 130.891609 
L 129.866194 130.206874 
L 129.971952 130.319751 
L 130.176643 130.980829 
L 130.985173 134.72691 
L 131.278564 137.768173 
L 131.950634 148.078664 
L 133.502876 171.205462 
L 134.052131 177.281422 
L 134.464925 179.632438 
L 134.799254 181.574479 
L 135.345097 186.554748 
L 135.832945 192.565205 
L 136.221858 201.476612 
L 138.493931 258.103168 
L 139.009071 267.027714 
L 139.401396 270.497196 
L 139.636791 271.080686 
L 139.817602 271.072868 
L 140.493083 270.745029 
L 140.772828 271.135457 
L 141.434663 272.101146 
L 141.803107 272.228688 
L 142.918674 272.423396 
L 143.440637 272.471019 
L 143.577098 272.179968 
L 143.757909 271.115605 
L 144.064945 267.685586 
L 144.395863 261.317341 
L 147.561755 188.819373 
L 147.995018 185.501185 
L 148.837664 179.655864 
L 149.178816 175.503233 
L 149.942996 161.940168 
L 152.030847 128.441563 
L 152.464111 124.551851 
L 152.79844 123.186439 
L 152.907608 123.17731 
L 152.931489 123.20197 
L 153.122534 123.608932 
L 153.815073 125.911019 
L 154.098229 127.744043 
L 154.470085 131.894729 
L 156.70122 158.919305 
L 157.117425 161.217881 
L 157.48587 163.076796 
L 157.987363 167.360647 
L 158.386511 172.268205 
L 158.748133 180.332731 
L 161.149843 240.753719 
L 161.572872 245.784585 
L 161.961785 248.002556 
L 162.613386 251.521323 
L 162.968184 254.819531 
L 163.510616 262.404675 
L 164.810406 279.896375 
L 165.690578 290.003998 
L 166.07608 291.993747 
L 166.267125 292.307409 
L 166.284183 292.300723 
L 166.427467 292.092318 
L 166.77203 291.06327 
L 167.317874 288.890487 
L 167.624911 286.238923 
L 168.320861 277.318971 
L 169.828753 258.74964 
L 170.320012 254.817028 
L 171.285473 248.916936 
L 171.790378 243.162506 
L 172.13153 235.894864 
L 174.724286 172.183811 
L 175.126846 168.359713 
L 176.34817 160.046899 
L 176.839429 152.581788 
L 178.036873 134.863221 
L 179.326428 118.20644 
L 179.718753 116.198396 
L 179.882506 116.027195 
L 179.896152 116.033533 
L 180.063317 116.260174 
L 180.517049 117.425671 
L 180.844555 118.63768 
L 181.155004 120.818409 
L 181.724728 127.041025 
L 183.198505 142.919218 
L 183.676118 146.105775 
L 184.539232 150.471937 
L 184.95885 154.733614 
L 185.282944 160.993473 
L 186.603203 195.26488 
L 187.684655 218.904386 
L 188.111095 223.524441 
L 189.236897 232.742918 
L 189.659926 241.305666 
L 191.212168 273.735678 
L 191.976349 287.019727 
L 192.447139 291.516354 
L 192.668887 292.021398 
L 192.805348 291.937707 
L 193.521768 291.265881 
L 193.787866 291.518806 
L 194.565693 292.332043 
L 194.98531 292.352632 
L 195.790429 292.128764 
L 195.937125 291.759645 
L 196.134993 290.459174 
L 196.421561 286.879978 
L 196.875293 277.700638 
L 198.287663 249.235089 
L 199.055255 236.071503 
L 199.474872 232.386348 
L 200.177645 227.476356 
L 200.604086 222.816392 
L 200.935003 215.936503 
L 203.329891 158.153484 
L 203.746097 153.838022 
L 204.165714 151.721048 
L 204.609211 149.190529 
L 204.960598 145.607125 
L 205.765717 133.900643 
L 207.225848 115.089475 
L 207.706873 110.820538 
L 208.085552 109.202827 
L 208.242482 109.092856 
L 208.256128 109.100124 
L 208.460819 109.356576 
L 208.972547 110.44109 
L 209.279584 111.857288 
L 209.644617 114.75264 
L 211.763171 133.231757 
L 212.196435 134.717138 
L 212.489825 136.247434 
L 212.9265 139.69655 
L 213.216479 144.006912 
L 213.700915 155.484374 
L 215.184927 190.741064 
L 215.720536 199.563405 
L 216.140153 203.21947 
L 216.842926 208.609923 
L 217.139729 212.88774 
L 217.576403 223.316276 
L 219.135469 261.253519 
L 219.684723 270.754046 
L 220.094106 274.45643 
L 220.483019 276.104986 
L 220.926517 278.240208 
L 221.308608 281.547811 
L 223.563623 304.383747 
L 223.959359 306.148102 
L 224.177697 306.452918 
L 224.181108 306.451615 
L 224.355096 306.255536 
L 224.761067 305.397864 
L 225.054458 304.13209 
L 225.416079 301.503292 
L 226.780687 288.447208 
L 227.538045 282.399311 
L 227.944016 280.740247 
L 228.271522 279.524616 
L 228.701374 276.672516 
L 229.004999 273.262005 
L 229.349563 266.318156 
L 231.532936 216.763557 
L 231.9662 212.21653 
L 232.907779 204.507666 
L 233.214816 198.854096 
L 234.190511 173.977394 
L 235.408425 147.058444 
L 235.862157 141.59377 
L 236.240836 139.382948 
L 236.755975 136.711481 
L 237.121008 133.162697 
L 239.717176 103.085754 
L 240.723574 97.068216 
L 241.013554 92.2788 
L 241.569632 78.069023 
L 242.135944 65.906842 
L 242.518035 61.879708 
L 242.787545 60.796057 
L 242.906948 60.79408 
L 242.920594 60.808206 
L 243.142343 61.218976 
L 243.579018 61.904815 
L 243.780297 61.865772 
L 244.029338 61.539049 
L 244.92998 60.183392 
L 245.267721 60.152504 
L 246.25365 60.207728 
L 247.188407 59.77909 
L 248.034464 59.481533 
L 248.999925 59.138002 
L 255.294181 56.556869 
L 256.085654 56.395832 
L 256.147062 56.390756 
L 302.049079 57.827993 
L 302.049079 57.827993 
" clip-path="url(#pdca9efbe6d)" style="fill: none; stroke: #2c7bb6; stroke-opacity: 0.7; stroke-width: 3; stroke-linecap: square"/>
   </g>
   <g id="line2d_16">
    <path d="M 57.681818 57.815091 
L 59.530863 57.930893 
L 60.103998 57.995559 
L 61.837051 57.807805 
L 67.878855 57.776479 
L 69.431097 57.798883 
L 70.645599 57.758145 
L 72.39912 57.741131 
L 73.528334 57.742641 
L 74.766716 57.810226 
L 78.403398 57.859842 
L 79.324508 57.782282 
L 80.941569 57.773731 
L 82.667799 57.717514 
L 83.585498 57.744577 
L 85.035395 57.823588 
L 89.68871 57.993293 
L 89.818348 58.323987 
L 89.992335 59.521731 
L 90.251611 63.159843 
L 90.688285 73.020999 
L 93.151404 130.473624 
L 93.632428 135.900772 
L 94.458016 143.987858 
L 95.000448 155.298855 
L 97.787661 218.332296 
L 98.527961 232.824415 
L 98.988516 237.775567 
L 99.336492 239.575956 
L 99.623059 240.087892 
L 99.930096 240.217938 
L 100.373594 240.269863 
L 101.451635 240.641519 
L 103.130103 240.785519 
L 103.621362 241.014735 
L 104.528827 241.118432 
L 104.644818 240.85685 
L 104.835864 239.681625 
L 105.497699 233.55667 
L 105.804736 229.122066 
L 106.86913 207.340704 
L 108.834166 164.306647 
L 109.908796 142.509754 
L 110.396643 137.367888 
L 110.618392 136.570636 
L 110.707092 136.688296 
L 110.935663 137.545462 
L 111.628202 141.233977 
L 111.894301 144.493742 
L 113.272555 167.488969 
L 115.32288 200.757651 
L 115.820962 204.616814 
L 116.970644 212.903974 
L 117.291327 216.862266 
L 118.430775 236.233023 
L 120.870013 276.166391 
L 121.293042 278.958132 
L 121.409033 279.080977 
L 121.443149 279.051886 
L 121.586433 278.681773 
L 122.016284 276.786378 
L 122.442724 274.203128 
L 122.725881 270.429842 
L 124.714797 236.14472 
L 126.031645 214.832506 
L 126.516081 210.851928 
L 127.2325 205.638766 
L 127.907981 199.841196 
L 128.337833 192.605379 
L 131.882403 131.56407 
L 132.237202 129.524307 
L 132.342959 129.48655 
L 132.373662 129.516044 
L 132.561296 129.931132 
L 133.059378 131.661784 
L 133.328888 133.125951 
L 133.625691 136.153149 
L 135.065353 156.170438 
L 136.603949 176.524841 
L 137.091796 179.69429 
L 137.439771 182.183966 
L 138.360882 191.040558 
L 138.722503 198.119467 
L 141.89863 268.273705 
L 142.277308 271.501181 
L 142.536584 272.12014 
L 142.771979 272.164025 
L 143.215477 272.226494 
L 144.041065 272.383265 
L 145.149809 272.552893 
L 146.40866 272.68863 
L 146.54171 272.456362 
L 146.702051 271.582678 
L 147.019323 268.242248 
L 147.35024 262.454441 
L 148.803548 229.066214 
L 150.509309 191.433231 
L 150.997156 186.151746 
L 151.918267 179.308628 
L 152.262831 175.665027 
L 152.992896 164.568958 
L 155.745994 124.311646 
L 156.114438 122.451921 
L 156.244076 122.4321 
L 156.257722 122.443933 
L 156.486294 122.817732 
L 156.912734 123.96474 
L 157.154952 125.204581 
L 157.502927 128.399717 
L 160.392486 160.527926 
L 160.999736 164.305713 
L 161.661572 170.74144 
L 161.985666 176.988674 
L 163.544731 215.264402 
L 164.697825 241.46542 
L 165.175438 246.963187 
L 165.745162 250.717908 
L 166.314886 254.633154 
L 166.809557 260.329984 
L 169.320437 290.409786 
L 169.770757 292.777653 
L 169.920864 292.949219 
L 169.944745 292.936824 
L 170.11191 292.687157 
L 170.497411 291.720422 
L 170.753275 290.696448 
L 171.063724 288.188746 
L 171.804024 279.479359 
L 173.929402 255.256947 
L 175.239426 245.540214 
L 175.543051 240.81629 
L 176.163948 226.0372 
L 178.483782 171.883623 
L 178.954572 167.124813 
L 180.206601 156.941205 
L 182.243279 128.419234 
L 182.997225 119.009431 
L 183.461192 115.915882 
L 183.682941 115.426995 
L 183.833048 115.534948 
L 184.150319 116.093657 
L 184.491471 117.083153 
L 184.788274 118.992862 
L 185.279533 123.816793 
L 187.565252 145.756773 
L 188.264614 149.737668 
L 188.81728 154.977967 
L 189.178901 162.108125 
L 191.802361 221.244602 
L 192.303855 226.040594 
L 193.1465 233.740887 
L 193.671875 243.547483 
L 196.131581 288.904236 
L 196.51026 292.281883 
L 196.738832 292.722059 
L 197.288087 292.780019 
L 198.178494 292.740676 
L 199.56016 292.706425 
L 199.867197 292.602111 
L 200.007069 292.260901 
L 200.18788 291.063321 
L 200.505152 287.219166 
L 201.037349 277.381234 
L 203.278718 236.240137 
L 203.769977 231.834744 
L 204.479574 225.70139 
L 204.813903 221.688446 
L 205.223285 212.879408 
L 207.607939 158.107173 
L 208.068494 153.050173 
L 208.638218 149.47792 
L 209.033954 146.485454 
L 209.53886 140.450276 
L 211.885986 111.735771 
L 212.336307 109.037724 
L 212.561467 108.589628 
L 212.745689 108.689198 
L 213.120957 109.160231 
L 213.318825 109.73317 
L 213.608804 111.408253 
L 214.106886 115.803078 
L 216.146976 133.166571 
L 217.09879 138.544553 
L 217.381947 141.597028 
L 217.729922 148.487554 
L 220.059991 199.117247 
L 220.513723 203.772137 
L 221.366603 211.887062 
L 221.724813 219.093248 
L 224.031001 269.765626 
L 224.518849 274.871372 
L 224.996462 277.497839 
L 225.525248 280.828618 
L 226.13591 286.73771 
L 228.002012 304.270913 
L 228.435275 306.292736 
L 228.691139 306.750603 
L 228.854892 306.615226 
L 229.216514 306.064719 
L 229.448497 305.151727 
L 229.786238 302.759071 
L 232.382405 281.115606 
L 232.88731 278.644813 
L 233.419508 274.230831 
L 233.726545 268.681789 
L 235.490301 227.822469 
L 236.077083 216.73486 
L 236.575165 211.274001 
L 237.455337 203.12683 
L 237.769197 197.128407 
L 240.256196 143.571579 
L 240.723574 139.268666 
L 241.631039 132.702815 
L 242.750018 119.732866 
L 244.162388 104.107577 
L 244.61612 101.582925 
L 244.950449 99.698678 
L 245.397358 95.671695 
L 245.690749 90.228036 
L 246.92572 64.895391 
L 247.386275 60.360828 
L 247.648962 59.422073 
L 247.880946 59.356568 
L 248.153868 59.465426 
L 248.733826 59.72793 
L 249.218262 59.668801 
L 260.800376 56.315751 
L 311.318182 57.812622 
L 311.318182 57.812622 
" clip-path="url(#pdca9efbe6d)" style="fill: none; stroke: #d7191c; stroke-opacity: 0.7; stroke-width: 3; stroke-linecap: square"/>
   </g>
   <g id="patch_3">
    <path d="M 45 320.4 
L 45 43.2 
" style="fill: none; stroke: #000000; stroke-width: 0.8; stroke-linejoin: miter; stroke-linecap: square"/>
   </g>
   <g id="patch_4">
    <path d="M 324 320.4 
L 324 43.2 
" style="fill: none; stroke: #000000; stroke-width: 0.8; stroke-linejoin: miter; stroke-linecap: square"/>
   </g>
   <g id="patch_5">
    <path d="M 45 320.4 
L 324 320.4 
" style="fill: none; stroke: #000000; stroke-width: 0.8; stroke-linejoin: miter; stroke-linecap: square"/>
   </g>
   <g id="patch_6">
    <path d="M 45 43.2 
L 324 43.2 
" style="fill: none; stroke: #000000; stroke-width: 0.8; stroke-linejoin: miter; stroke-linecap: square"/>
   </g>
  </g>
 </g>
 <defs>
  <clipPath id="pdca9efbe6d">
   <rect x="45" y="43.2" width="279" height="277.2"/>
  </clipPath>
 </defs>
</svg>
