<?xml version="1.0" encoding="utf-8" standalone="no"?>
<!DOCTYPE svg PUBLIC "-//W3C//DTD SVG 1.1//EN"
  "http://www.w3.org/Graphics/SVG/1.1/DTD/svg11.dtd">
<svg xmlns:xlink="http://www.w3.org/1999/xlink" width="576pt" height="432pt" viewBox="0 0 576 432" xmlns="http://www.w3.org/2000/svg" version="1.1">
 <metadata>
  <rdf:RDF xmlns:dc="http://purl.org/dc/elements/1.1/" xmlns:cc="http://creativecommons.org/ns#" xmlns:rdf="http://www.w3.org/1999/02/22-rdf-syntax-ns#">
   <cc:Work>
    <dc:type rdf:resource="http://purl.org/dc/dcmitype/StillImage"/>
    <dc:date>2023-05-01T11:00:30.062800</dc:date>
    <dc:format>image/svg+xml</dc:format>
    <dc:creator>
     <cc:Agent>
      <dc:title>Matplotlib v3.6.3, https://matplotlib.org/</dc:title>
     </cc:Agent>
    </dc:creator>
   </cc:Work>
  </rdf:RDF>
 </metadata>
 <defs>
  <style type="text/css">*{stroke-linejoin: round; stroke-linecap: butt}</style>
 </defs>
 <g id="figure_1">
  <g id="patch_1">
   <path d="M 0 432 
L 576 432 
L 576 0 
L 0 0 
z
" style="fill: #ffffff"/>
  </g>
  <g id="axes_1">
   <g id="patch_2">
    <path d="M 72 384.48 
L 518.4 384.48 
L 518.4 51.84 
L 72 51.84 
z
" style="fill: #ffffff"/>
   </g>
   <g id="PathCollection_1"/>
   <g id="PathCollection_2"/>
   <g id="PathCollection_3"/>
   <g id="PathCollection_4"/>
   <g id="matplotlib.axis_1">
    <g id="xtick_1">
     <g id="line2d_1">
      <defs>
       <path id="m501e17c1b8" d="M 0 0 
L 0 3.5 
" style="stroke: #000000; stroke-width: 0.8"/>
      </defs>
      <g>
       <use xlink:href="#m501e17c1b8" x="141.48068" y="384.48" style="stroke: #000000; stroke-width: 0.8"/>
      </g>
     </g>
     <g id="text_1">
      <text style="font: 10px 'DejaVu Sans', 'Bitstream Vera Sans', 'Computer Modern Sans Serif', 'Lucida Grande', 'Verdana', 'Geneva', 'Lucid', 'Arial', 'Helvetica', 'Avant Garde', sans-serif; text-anchor: middle" x="141.48068" y="399.078438" transform="rotate(-0 141.48068 399.078438)">−40</text>
     </g>
    </g>
    <g id="xtick_2">
     <g id="line2d_2">
      <g>
       <use xlink:href="#m501e17c1b8" x="231.656254" y="384.48" style="stroke: #000000; stroke-width: 0.8"/>
      </g>
     </g>
     <g id="text_2">
      <text style="font: 10px 'DejaVu Sans', 'Bitstream Vera Sans', 'Computer Modern Sans Serif', 'Lucida Grande', 'Verdana', 'Geneva', 'Lucid', 'Arial', 'Helvetica', 'Avant Garde', sans-serif; text-anchor: middle" x="231.656254" y="399.078438" transform="rotate(-0 231.656254 399.078438)">−20</text>
     </g>
    </g>
    <g id="xtick_3">
     <g id="line2d_3">
      <g>
       <use xlink:href="#m501e17c1b8" x="321.831828" y="384.48" style="stroke: #000000; stroke-width: 0.8"/>
      </g>
     </g>
     <g id="text_3">
      <text style="font: 10px 'DejaVu Sans', 'Bitstream Vera Sans', 'Computer Modern Sans Serif', 'Lucida Grande', 'Verdana', 'Geneva', 'Lucid', 'Arial', 'Helvetica', 'Avant Garde', sans-serif; text-anchor: middle" x="321.831828" y="399.078438" transform="rotate(-0 321.831828 399.078438)">0</text>
     </g>
    </g>
    <g id="xtick_4">
     <g id="line2d_4">
      <g>
       <use xlink:href="#m501e17c1b8" x="412.007401" y="384.48" style="stroke: #000000; stroke-width: 0.8"/>
      </g>
     </g>
     <g id="text_4">
      <text style="font: 10px 'DejaVu Sans', 'Bitstream Vera Sans', 'Computer Modern Sans Serif', 'Lucida Grande', 'Verdana', 'Geneva', 'Lucid', 'Arial', 'Helvetica', 'Avant Garde', sans-serif; text-anchor: middle" x="412.007401" y="399.078438" transform="rotate(-0 412.007401 399.078438)">20</text>
     </g>
    </g>
    <g id="xtick_5">
     <g id="line2d_5">
      <g>
       <use xlink:href="#m501e17c1b8" x="502.182975" y="384.48" style="stroke: #000000; stroke-width: 0.8"/>
      </g>
     </g>
     <g id="text_5">
      <text style="font: 10px 'DejaVu Sans', 'Bitstream Vera Sans', 'Computer Modern Sans Serif', 'Lucida Grande', 'Verdana', 'Geneva', 'Lucid', 'Arial', 'Helvetica', 'Avant Garde', sans-serif; text-anchor: middle" x="502.182975" y="399.078438" transform="rotate(-0 502.182975 399.078438)">40</text>
     </g>
    </g>
    <g id="text_6">
     <text style="font: 10px 'DejaVu Sans', 'Bitstream Vera Sans', 'Computer Modern Sans Serif', 'Lucida Grande', 'Verdana', 'Geneva', 'Lucid', 'Arial', 'Helvetica', 'Avant Garde', sans-serif; text-anchor: middle" x="295.2" y="412.756563" transform="rotate(-0 295.2 412.756563)">lon</text>
    </g>
   </g>
   <g id="matplotlib.axis_2">
    <g id="ytick_1">
     <g id="line2d_6">
      <defs>
       <path id="mddc075182d" d="M 0 0 
L -3.5 0 
" style="stroke: #000000; stroke-width: 0.8"/>
      </defs>
      <g>
       <use xlink:href="#mddc075182d" x="72" y="338.037438" style="stroke: #000000; stroke-width: 0.8"/>
      </g>
     </g>
     <g id="text_7">
      <text style="font: 10px 'DejaVu Sans', 'Bitstream Vera Sans', 'Computer Modern Sans Serif', 'Lucida Grande', 'Verdana', 'Geneva', 'Lucid', 'Arial', 'Helvetica', 'Avant Garde', sans-serif; text-anchor: end" x="65" y="341.836657" transform="rotate(-0 65 341.836657)">−100</text>
     </g>
    </g>
    <g id="ytick_2">
     <g id="line2d_7">
      <g>
       <use xlink:href="#mddc075182d" x="72" y="284.217235" style="stroke: #000000; stroke-width: 0.8"/>
      </g>
     </g>
     <g id="text_8">
      <text style="font: 10px 'DejaVu Sans', 'Bitstream Vera Sans', 'Computer Modern Sans Serif', 'Lucida Grande', 'Verdana', 'Geneva', 'Lucid', 'Arial', 'Helvetica', 'Avant Garde', sans-serif; text-anchor: end" x="65" y="288.016454" transform="rotate(-0 65 288.016454)">−80</text>
     </g>
    </g>
    <g id="ytick_3">
     <g id="line2d_8">
      <g>
       <use xlink:href="#mddc075182d" x="72" y="230.397032" style="stroke: #000000; stroke-width: 0.8"/>
      </g>
     </g>
     <g id="text_9">
      <text style="font: 10px 'DejaVu Sans', 'Bitstream Vera Sans', 'Computer Modern Sans Serif', 'Lucida Grande', 'Verdana', 'Geneva', 'Lucid', 'Arial', 'Helvetica', 'Avant Garde', sans-serif; text-anchor: end" x="65" y="234.196251" transform="rotate(-0 65 234.196251)">−60</text>
     </g>
    </g>
    <g id="ytick_4">
     <g id="line2d_9">
      <g>
       <use xlink:href="#mddc075182d" x="72" y="176.576829" style="stroke: #000000; stroke-width: 0.8"/>
      </g>
     </g>
     <g id="text_10">
      <text style="font: 10px 'DejaVu Sans', 'Bitstream Vera Sans', 'Computer Modern Sans Serif', 'Lucida Grande', 'Verdana', 'Geneva', 'Lucid', 'Arial', 'Helvetica', 'Avant Garde', sans-serif; text-anchor: end" x="65" y="180.376048" transform="rotate(-0 65 180.376048)">−40</text>
     </g>
    </g>
    <g id="ytick_5">
     <g id="line2d_10">
      <g>
       <use xlink:href="#mddc075182d" x="72" y="122.756626" style="stroke: #000000; stroke-width: 0.8"/>
      </g>
     </g>
     <g id="text_11">
      <text style="font: 10px 'DejaVu Sans', 'Bitstream Vera Sans', 'Computer Modern Sans Serif', 'Lucida Grande', 'Verdana', 'Geneva', 'Lucid', 'Arial', 'Helvetica', 'Avant Garde', sans-serif; text-anchor: end" x="65" y="126.555844" transform="rotate(-0 65 126.555844)">−20</text>
     </g>
    </g>
    <g id="ytick_6">
     <g id="line2d_11">
      <g>
       <use xlink:href="#mddc075182d" x="72" y="68.936422" style="stroke: #000000; stroke-width: 0.8"/>
      </g>
     </g>
     <g id="text_12">
      <text style="font: 10px 'DejaVu Sans', 'Bitstream Vera Sans', 'Computer Modern Sans Serif', 'Lucida Grande', 'Verdana', 'Geneva', 'Lucid', 'Arial', 'Helvetica', 'Avant Garde', sans-serif; text-anchor: end" x="65" y="72.735641" transform="rotate(-0 65 72.735641)">0</text>
     </g>
    </g>
    <g id="text_13">
     <text style="font: 10px 'DejaVu Sans', 'Bitstream Vera Sans', 'Computer Modern Sans Serif', 'Lucida Grande', 'Verdana', 'Geneva', 'Lucid', 'Arial', 'Helvetica', 'Avant Garde', sans-serif; text-anchor: middle" x="31.453125" y="218.16" transform="rotate(-90 31.453125 218.16)">lat</text>
    </g>
   </g>
   <g id="line2d_12">
    <path d="M 318.721509 66.96 
L 296.045532 167.68122 
L 413.141046 288.568747 
L 178.949785 288.568667 
L 295.622814 159.602099 
L 444.422729 248.472327 
L 295.62264 337.342746 
L 146.822725 248.472224 
L 295.200096 151.522979 
L 449.495312 218.250425 
L 390.313836 326.570559 
L 199.66328 326.570491 
L 140.904747 218.250316 
L 295.622829 143.443859 
L 447.8043 195.808427 
L 447.804792 300.83699 
L 295.622625 353.20176 
L 143.44056 300.836885 
L 143.441257 195.808321 
L 295.622837 135.364738 
L 443.576956 178.15406 
L 480.354695 273.607301 
L 377.63203 350.239399 
L 213.613226 350.239342 
L 110.89071 273.607173 
L 147.668635 178.153957 
L 295.20012 127.285618 
L 438.9269 162.59428 
L 498.109091 248.172995 
L 438.927647 334.051166 
L 295.19988 369.36 
L 151.894912 334.051065 
L 92.290909 248.172851 
L 151.895995 162.594179 
L 295.200128 118.637967 
L 319.088218 67.082758 
" clip-path="url(#pd9afd55fdb)" style="fill: none; stroke: #999999; stroke-opacity: 0.6; stroke-width: 3; stroke-linecap: square"/>
   </g>
   <g id="line2d_13">
    <path d="M 321.783182 68.977952 
L 321.780941 68.978796 
L 321.827065 68.986616 
L 321.710878 68.894641 
L 321.552051 68.79311 
L 321.544947 68.893479 
L 321.689741 69.051577 
L 321.945557 69.06939 
L 321.948428 69.047368 
L 321.829185 68.934312 
L 321.644609 68.890793 
L 321.948145 68.992445 
L 321.897295 69.070789 
L 321.70944 69.110382 
L 321.65305 69.028903 
L 321.664717 69.000441 
L 321.851351 68.976702 
L 321.938953 68.944864 
L 321.671866 68.938418 
L 321.814572 68.871516 
L 321.871304 68.844504 
L 321.721771 69.048404 
L 321.612125 68.945667 
L 321.542628 68.887006 
L 321.86215 68.999387 
L 321.924203 69.059075 
L 321.709335 68.984071 
L 321.735911 69.10996 
L 321.522987 69.649558 
L 321.159797 71.362116 
L 319.958362 78.439991 
L 318.809977 84.428794 
L 317.58503 89.639718 
L 316.186577 94.68632 
L 314.577211 99.658284 
L 312.506899 105.317231 
L 307.750234 117.94378 
L 306.596386 121.9391 
L 305.341571 127.135112 
L 303.89365 134.157706 
L 300.724597 149.801897 
L 299.044155 156.773754 
L 297.088852 163.787355 
L 296.098429 166.912725 
L 296.611354 167.31908 
L 298.138902 168.544542 
L 300.183265 170.560787 
L 303.954361 174.612321 
L 310.347801 181.428816 
L 325.525418 197.279049 
L 365.835122 239.016315 
L 399.146639 273.710302 
L 408.841802 283.769726 
L 410.455281 285.789544 
L 412.372051 288.293457 
L 412.309496 288.326655 
L 411.777803 288.414527 
L 409.907903 288.449614 
L 401.77236 288.312037 
L 380.689493 287.967182 
L 369.432303 288.015101 
L 346.661231 288.394099 
L 321.354842 288.774267 
L 306.241946 288.742876 
L 284.160459 288.493591 
L 255.164302 288.250404 
L 232.018899 288.255064 
L 186.470919 288.307788 
L 179.598637 288.292225 
L 179.094421 288.353099 
L 179.278853 288.207022 
L 180.496595 287.238278 
L 182.682366 285.151735 
L 186.43867 281.192415 
L 197.15064 269.385411 
L 202.920323 262.498834 
L 213.680762 249.677753 
L 220.174833 242.333934 
L 227.538526 234.331807 
L 248.73427 211.405877 
L 264.986333 193.312452 
L 276.64866 180.422203 
L 292.011385 163.552042 
L 295.042553 160.082823 
L 295.795791 159.452045 
L 296.371927 159.788401 
L 317.518584 173.188409 
L 325.839172 178.063493 
L 354.157991 194.444108 
L 374.612568 206.771619 
L 394.250637 218.482724 
L 428.895387 239.138288 
L 440.180156 245.932035 
L 443.45057 247.754799 
L 444.126541 248.294882 
L 443.833554 248.54973 
L 442.306752 249.457026 
L 419.519544 262.298741 
L 408.453159 269.065439 
L 394.234108 278.02041 
L 380.626319 286.502208 
L 370.128862 292.767668 
L 345.683436 306.984452 
L 330.107948 316.224411 
L 306.682726 330.387671 
L 295.760295 336.941259 
L 295.487058 336.938446 
L 294.844293 336.649784 
L 292.848067 335.444504 
L 284.489144 329.992864 
L 275.619211 324.352833 
L 266.749127 319.046489 
L 255.872196 312.782035 
L 226.816933 296.223491 
L 217.16323 290.370166 
L 183.244261 269.594455 
L 148.407348 249.079958 
L 147.004443 248.183831 
L 147.017652 248.162232 
L 147.36223 247.879708 
L 149.691747 246.443334 
L 166.49831 235.996278 
L 176.706958 229.264503 
L 192.980496 218.215269 
L 206.493365 209.132196 
L 218.037521 201.670603 
L 260.0143 174.703467 
L 282.209415 159.913341 
L 291.459118 153.831467 
L 295.474775 151.49508 
L 296.001716 151.738545 
L 299.356943 153.395527 
L 306.953116 156.817228 
L 321.090804 163.025756 
L 341.239386 171.526381 
L 367.376419 182.516065 
L 385.869732 190.635998 
L 416.059238 203.884581 
L 433.129359 211.155002 
L 445.027191 216.228711 
L 448.87596 218.172925 
L 448.721378 218.51041 
L 445.558866 223.895489 
L 442.933627 228.793568 
L 437.286173 239.312635 
L 429.938785 253.213153 
L 422.074325 268.156644 
L 416.252243 278.607282 
L 405.154984 298.369984 
L 395.05232 316.976925 
L 393.464218 320.281785 
L 391.803315 323.642242 
L 390.224983 325.83959 
L 389.663557 325.998211 
L 388.273238 326.143158 
L 384.773862 326.255318 
L 376.627032 326.26431 
L 322.870948 326.241747 
L 284.835093 326.380761 
L 201.24643 326.130449 
L 199.905323 325.975812 
L 199.34864 325.585973 
L 198.656054 324.815535 
L 197.594631 323.276671 
L 195.974099 320.501239 
L 189.222085 307.927738 
L 181.227218 292.918959 
L 167.775485 268.232977 
L 148.657533 232.167483 
L 143.511388 222.810714 
L 142.282355 220.121152 
L 141.510642 218.234979 
L 141.878903 217.853815 
L 142.873454 217.181093 
L 145.227687 215.903185 
L 149.972995 213.604221 
L 186.170227 196.358603 
L 231.188992 174.340914 
L 263.978779 158.766019 
L 295.625902 143.549089 
L 296.726024 143.974785 
L 302.253885 146.049091 
L 311.491044 149.274287 
L 338.445968 158.457308 
L 381.268355 172.633431 
L 401.128758 179.675334 
L 435.030382 191.712334 
L 440.837681 193.433244 
L 444.958891 194.648348 
L 446.860903 195.486404 
L 447.110917 195.851821 
L 447.306563 196.564322 
L 447.470149 198.201733 
L 447.542189 201.59197 
L 447.556585 212.219656 
L 447.558443 225.811606 
L 447.790311 239.430071 
L 447.890077 250.777977 
L 447.753925 260.605034 
L 447.299933 283.910854 
L 447.371122 291.880451 
L 447.430048 298.482697 
L 447.086872 299.77819 
L 446.761791 300.003782 
L 445.524553 300.493379 
L 442.19959 301.53585 
L 431.623179 304.812973 
L 422.196451 307.967979 
L 409.020703 312.583441 
L 393.551799 318.283914 
L 371.340404 326.496452 
L 357.251589 331.420861 
L 312.455651 346.873742 
L 299.532706 351.348959 
L 296.185072 352.302203 
L 295.475826 352.060412 
L 290.06052 349.928496 
L 283.853347 347.82446 
L 264.226906 341.224842 
L 201.250033 320.061141 
L 156.730229 304.705658 
L 148.95507 302.410317 
L 146.616643 301.650556 
L 144.475032 300.74172 
L 144.315471 300.460756 
L 144.21217 299.718486 
L 144.217502 297.705135 
L 144.332653 287.800718 
L 144.321542 267.522818 
L 143.774972 208.256128 
L 143.59749 199.243486 
L 143.624183 196.464614 
L 143.890726 196.220647 
L 144.694516 195.835828 
L 147.465754 194.800071 
L 157.951902 190.947203 
L 170.713525 185.976651 
L 183.884637 180.675429 
L 205.260298 171.796063 
L 223.271041 164.416644 
L 245.127276 155.742205 
L 269.784517 145.868959 
L 290.760254 137.369345 
L 295.224927 135.778811 
L 296.194386 136.06348 
L 302.446938 137.973664 
L 310.004766 140.015527 
L 321.442087 143.182112 
L 376.506643 158.78075 
L 437.509527 176.399813 
L 441.631056 177.577191 
L 442.035024 177.830017 
L 442.474285 178.601472 
L 443.049664 180.108954 
L 449.330624 197.851109 
L 452.418859 205.708381 
L 456.374997 215.103337 
L 465.340027 236.161541 
L 470.468998 249.112274 
L 476.494887 264.200979 
L 479.097087 270.858843 
L 479.367448 272.254074 
L 479.272403 272.526333 
L 478.865718 272.868088 
L 474.22316 275.985112 
L 458.989684 287.644459 
L 445.701537 297.995892 
L 429.913725 310.286909 
L 417.749866 319.458603 
L 397.027 334.782243 
L 387.554311 341.889957 
L 382.999446 345.613275 
L 380.114402 347.928244 
L 378.04309 349.115005 
L 377.292378 349.208399 
L 375.110257 349.25564 
L 317.214701 349.324357 
L 265.341428 349.864378 
L 232.095154 349.772996 
L 215.386354 349.595774 
L 214.640621 349.132928 
L 212.460749 347.363524 
L 207.090003 343.151388 
L 197.531259 335.950998 
L 188.058083 329.038634 
L 175.96402 320.512633 
L 156.408304 306.74652 
L 146.877441 299.740167 
L 115.223697 276.256344 
L 112.202737 274.142844 
L 112.079227 273.86266 
L 112.189029 273.398131 
L 113.128301 271.164198 
L 114.38783 267.736625 
L 118.389082 256.713301 
L 123.885239 242.111319 
L 135.376481 210.99016 
L 140.706284 197.273434 
L 145.773466 184.33232 
L 147.682968 179.041549 
L 148.144641 178.814951 
L 150.920591 177.892482 
L 165.204623 173.291555 
L 178.943469 168.571786 
L 193.351973 163.37987 
L 230.419248 149.890425 
L 249.421635 143.388092 
L 270.016768 136.246153 
L 293.979977 127.860403 
L 294.617406 127.944266 
L 309.330313 131.581986 
L 322.405813 134.657517 
L 419.428696 158.014254 
L 428.347029 160.148624 
L 436.917688 162.131168 
L 437.265439 162.462884 
L 438.336614 163.907963 
L 442.931666 170.927878 
L 447.016397 177.125278 
L 453.107085 185.860939 
L 459.237574 194.229469 
L 475.032282 215.635669 
L 482.00348 225.652626 
L 490.226552 237.31804 
L 495.368346 244.642764 
L 496.601576 246.764784 
L 496.479424 247.064513 
L 495.738189 247.970105 
L 494.56361 249.551468 
L 491.788622 253.868598 
L 486.544663 262.061549 
L 471.616901 284.727692 
L 459.1443 303.599748 
L 452.100288 313.814385 
L 443.725747 325.828113 
L 439.504985 332.374598 
L 439.104251 332.589843 
L 437.139322 333.103318 
L 426.640903 335.521248 
L 414.085133 338.451134 
L 397.708905 342.58866 
L 379.486095 347.482007 
L 357.541574 353.373273 
L 340.99237 357.560484 
L 296.430805 368.447894 
L 295.603228 368.247945 
L 291.730384 367.159896 
L 282.48906 365.019193 
L 266.440145 361.287785 
L 223.302112 351.015867 
L 187.472849 342.300778 
L 160.555547 335.679109 
L 154.598577 334.306668 
L 153.612969 333.875131 
L 152.905566 333.027272 
L 151.502696 331.019054 
L 147.81587 325.490957 
L 143.726642 319.397771 
L 136.930123 309.811129 
L 113.497457 277.329282 
L 99.261412 257.272231 
L 96.303489 252.879343 
L 94.063496 249.6935 
L 93.52974 248.835642 
L 93.693205 248.516491 
L 97.177437 243.801947 
L 110.204674 224.121369 
L 130.353417 194.307219 
L 140.069451 180.448554 
L 147.467939 169.857834 
L 149.445483 166.540358 
L 150.962197 163.945914 
L 151.386839 163.600392 
L 152.511385 163.250455 
L 179.625675 155.163145 
L 197.370417 149.524752 
L 244.76181 134.32149 
L 293.510199 119.190137 
L 293.85729 118.955773 
L 294.430669 118.030764 
L 297.345671 112.039395 
L 304.127253 97.921878 
L 309.854178 86.654297 
L 315.009648 77.180014 
L 316.567585 74.101628 
L 316.968544 72.863619 
L 316.932176 72.718456 
L 316.873821 72.738361 
L 316.379596 73.171469 
L 315.487884 74.058996 
L 315.610177 73.75127 
L 316.642144 71.976831 
L 317.496354 70.468962 
L 318.036806 69.282547 
L 318.357903 68.629995 
L 318.638928 67.694461 
L 319.083103 67.197839 
L 319.093561 67.153173 
L 318.985141 67.13549 
L 318.884081 67.172559 
L 319.022476 67.061206 
L 319.01203 67.051213 
L 321.726099 68.980289 
L 321.706975 68.979647 
" clip-path="url(#pd9afd55fdb)" style="fill: none; stroke: #2c7bb6; stroke-opacity: 0.6; stroke-width: 3; stroke-linecap: square"/>
   </g>
   <g id="line2d_14">
    <path d="M 321.846495 68.941763 
L 321.738245 68.97113 
L 321.825967 69.067613 
L 321.841263 69.164342 
L 321.718415 68.991625 
L 321.710345 68.965072 
L 321.796872 68.908087 
L 322.015385 68.970673 
L 321.904196 69.020064 
L 321.775798 69.075819 
L 321.745296 69.098943 
L 321.933646 69.004342 
L 321.792242 68.887033 
L 321.779589 68.846736 
L 321.877999 68.965059 
L 321.889415 68.950755 
L 321.967252 68.885285 
L 321.951397 68.830839 
L 321.848493 68.779588 
L 321.823757 68.792568 
L 321.759247 68.916071 
L 321.820221 68.931094 
L 321.909912 68.982958 
L 321.802243 69.008932 
L 321.807005 69.041184 
L 321.878875 69.117627 
L 321.918662 69.08774 
L 321.963189 68.89004 
L 321.943054 68.883961 
L 321.924353 68.872407 
L 321.962628 68.775103 
L 322.040497 68.694739 
L 321.435794 69.694756 
L 320.858306 71.284201 
L 319.927226 74.503254 
L 318.914767 78.705116 
L 317.915894 83.518451 
L 316.678626 89.299816 
L 315.598436 93.624986 
L 313.513697 101.256471 
L 310.894835 110.465426 
L 306.299611 128.280837 
L 303.734915 138.677592 
L 300.276728 151.748333 
L 296.535942 165.503482 
L 296.326051 167.027728 
L 296.425676 167.863187 
L 297.557875 168.297885 
L 298.46359 168.841232 
L 300.197966 170.233147 
L 302.167209 172.164539 
L 304.196147 174.266367 
L 307.668553 177.903107 
L 338.741009 210.513795 
L 344.694441 216.798348 
L 359.420423 232.346132 
L 370.015603 243.439435 
L 388.775235 263.112375 
L 409.218155 284.613151 
L 413.072161 288.539436 
L 413.397303 288.755646 
L 413.231671 288.773385 
L 410.901741 288.752607 
L 388.737942 288.510981 
L 378.944255 288.552555 
L 355.852782 288.920631 
L 316.530265 289.091878 
L 235.18492 288.574852 
L 198.55812 288.535905 
L 178.097376 288.395782 
L 178.322339 288.292862 
L 179.439592 287.583585 
L 180.864624 286.32823 
L 183.377902 283.766112 
L 186.727959 280.010992 
L 193.644075 272.368369 
L 198.25108 267.052766 
L 210.775745 252.581975 
L 218.889875 243.624212 
L 261.076975 197.48716 
L 273.164885 184.09288 
L 284.481847 171.850367 
L 289.366149 166.426669 
L 293.691782 161.590008 
L 295.528636 159.445096 
L 295.695511 159.194784 
L 295.987979 159.101605 
L 296.99508 159.71138 
L 311.438189 168.96764 
L 317.585749 172.610724 
L 354.40865 193.670293 
L 397.35805 219.812882 
L 414.869711 230.463542 
L 444.739433 248.481157 
L 444.960379 248.540923 
L 444.886722 248.608818 
L 443.859956 249.192056 
L 430.581191 256.526163 
L 424.668639 260.031322 
L 412.157262 267.866503 
L 394.825672 278.516783 
L 369.810183 293.331566 
L 332.138174 315.455081 
L 294.884886 337.388584 
L 293.813955 336.709323 
L 281.28807 328.566303 
L 275.462041 325.031889 
L 263.766876 318.327789 
L 246.337235 308.259926 
L 221.066926 293.036005 
L 192.019398 275.449156 
L 175.432105 265.532174 
L 159.634661 255.920156 
L 151.118525 250.814932 
L 147.897843 248.823611 
L 146.35268 247.844806 
L 146.403763 247.79584 
L 147.271742 247.301007 
L 151.900162 244.612153 
L 159.359553 239.978058 
L 165.818426 235.771887 
L 192.148963 218.162023 
L 212.035153 205.402514 
L 247.896871 182.409859 
L 295.770615 151.055337 
L 296.002244 150.994335 
L 298.686751 152.447241 
L 302.821765 154.341041 
L 317.721808 160.853261 
L 370.620466 183.68635 
L 403.026737 197.89411 
L 450.227567 218.472602 
L 450.225821 218.476482 
L 449.965582 218.740272 
L 449.265704 219.577168 
L 448.284508 221.060394 
L 446.277458 224.489188 
L 444.614856 227.687452 
L 441.459507 233.775988 
L 438.435228 239.483934 
L 432.527681 250.446877 
L 421.885705 269.415242 
L 414.674616 282.21298 
L 404.586477 300.630607 
L 399.247412 310.115683 
L 393.410018 320.670002 
L 390.601246 325.948116 
L 389.925073 326.815623 
L 387.975633 326.835517 
L 326.471263 326.754749 
L 301.189391 326.606414 
L 198.723064 326.213743 
L 198.260325 325.696737 
L 197.398443 324.306598 
L 194.949165 319.614699 
L 192.320168 314.630832 
L 181.095967 294.248142 
L 175.905267 284.467464 
L 169.271938 271.685413 
L 162.191627 258.015528 
L 149.441131 234.153282 
L 145.952411 227.695921 
L 141.037153 217.507573 
L 142.171864 216.807638 
L 144.90989 215.481134 
L 157.469882 209.619505 
L 205.063482 186.599986 
L 234.321706 172.667296 
L 289.831419 146.190317 
L 296.703991 143.104711 
L 298.583173 143.989254 
L 301.985289 145.27371 
L 308.845079 147.649306 
L 323.716969 152.668419 
L 350.894237 161.981345 
L 373.870925 170.083005 
L 394.899871 177.40193 
L 436.816743 191.953602 
L 448.387052 195.940422 
L 448.435142 196.379801 
L 448.419258 197.611648 
L 448.290433 213.774544 
L 448.361106 223.677329 
L 448.185928 266.526829 
L 447.933489 299.41617 
L 447.898884 300.637649 
L 447.714951 301.022457 
L 447.047795 301.230496 
L 441.655824 302.752832 
L 434.918601 304.729885 
L 429.344925 306.582048 
L 418.557741 310.464829 
L 401.288999 316.671776 
L 381.130655 323.6932 
L 343.801937 336.5073 
L 319.254073 345.151394 
L 311.638243 347.816844 
L 297.955165 352.283499 
L 295.084002 353.067816 
L 293.253903 352.035159 
L 290.558262 350.896583 
L 286.847488 349.567257 
L 252.641625 338.169698 
L 234.587491 331.961847 
L 143.089103 300.268526 
L 143.265021 298.644665 
L 143.533713 294.849201 
L 143.545736 290.13784 
L 143.135439 265.326024 
L 143.205957 240.206617 
L 143.490577 205.857507 
L 143.590885 199.990231 
L 143.687031 195.258667 
L 144.501588 194.94279 
L 148.28155 193.633389 
L 155.532981 191.108298 
L 162.188703 188.495459 
L 193.476507 175.604912 
L 213.95003 167.437307 
L 263.883889 147.746242 
L 277.966947 142.12374 
L 286.370781 138.951422 
L 296.634793 135.21194 
L 297.192519 135.447177 
L 298.818023 136.056715 
L 303.358804 137.493105 
L 309.353349 139.177322 
L 323.802535 143.21784 
L 341.503012 148.096908 
L 353.396594 151.477408 
L 406.454287 167.071202 
L 443.844433 178.292021 
L 443.994904 179.212622 
L 445.693737 185.1829 
L 447.378234 190.097701 
L 449.289069 194.983595 
L 456.815806 213.368764 
L 461.219039 224.655302 
L 471.262675 250.282405 
L 477.861586 267.014394 
L 480.01025 273.610009 
L 477.523184 274.709062 
L 475.71325 275.842115 
L 473.317978 277.58604 
L 444.324801 299.742158 
L 433.638812 307.711015 
L 406.118585 328.239227 
L 393.77689 337.476189 
L 380.035619 347.901574 
L 379.021495 348.618488 
L 378.084218 349.288079 
L 377.274722 349.856474 
L 376.963301 349.840809 
L 375.987958 349.782214 
L 372.040158 349.664511 
L 362.040721 349.645315 
L 340.537291 349.809602 
L 321.819366 349.887188 
L 296.692913 349.897987 
L 248.963102 349.983025 
L 214.811817 349.895934 
L 213.320722 349.745751 
L 213.031501 349.347105 
L 212.11551 348.375055 
L 210.144338 346.600087 
L 206.727572 343.870274 
L 201.912477 340.344482 
L 176.920354 322.548547 
L 156.727495 307.447955 
L 137.502751 293.052615 
L 123.992582 283.058129 
L 111.019988 273.137637 
L 111.128707 273.01437 
L 111.535375 272.555261 
L 112.409873 271.131246 
L 113.308828 269.139637 
L 114.999173 264.54372 
L 117.65612 257.097761 
L 126.988069 232.386064 
L 143.48134 189.555145 
L 147.525316 178.774125 
L 147.871906 177.779019 
L 148.536414 177.67889 
L 150.931083 177.059764 
L 155.153729 175.81601 
L 162.72337 173.408437 
L 170.775323 170.547083 
L 188.300848 164.251864 
L 236.733996 147.407526 
L 266.144337 137.127529 
L 281.273025 131.859136 
L 295.679637 127.265939 
L 296.003242 127.351173 
L 297.123544 127.85371 
L 299.200981 128.551684 
L 302.657547 129.466346 
L 310.67831 131.306268 
L 321.034657 133.727704 
L 438.649699 162.405408 
L 439.010384 162.641471 
L 439.169884 163.182929 
L 440.033211 164.881707 
L 441.782809 167.932683 
L 444.618046 172.544102 
L 447.004873 175.996958 
L 463.471184 198.805441 
L 489.634833 235.714647 
L 493.010243 240.523715 
L 497.918414 248.187239 
L 496.353712 249.449882 
L 495.273335 250.762948 
L 492.96714 254.035636 
L 469.590458 289.036589 
L 458.923758 304.672358 
L 444.030077 325.960393 
L 440.137148 331.946839 
L 438.546561 333.898926 
L 425.571903 336.472521 
L 417.210666 338.453679 
L 352.956208 354.741547 
L 323.518412 362.134516 
L 307.583676 366.208068 
L 295.668395 368.937615 
L 294.83083 368.937348 
L 292.835929 368.021572 
L 289.299731 366.951775 
L 284.96022 365.907251 
L 266.666763 361.699715 
L 219.434294 350.251096 
L 152.442999 333.807996 
L 151.497278 333.509026 
L 150.736401 332.075034 
L 149.176326 329.260264 
L 147.113575 325.909579 
L 145.375346 323.294061 
L 142.431647 319.230712 
L 137.722424 312.89208 
L 124.250628 294.034458 
L 113.835773 278.873156 
L 98.134957 256.52873 
L 95.372715 252.051501 
L 92.811707 247.684296 
L 94.379591 246.370676 
L 95.44356 245.054796 
L 97.237756 242.4092 
L 102.108759 234.442314 
L 104.810648 230.206496 
L 113.429122 217.318002 
L 125.698733 200.006348 
L 142.517611 176.553834 
L 148.008815 168.699837 
L 152.450051 162.305977 
L 154.236215 161.926035 
L 160.893554 160.192375 
L 170.444678 157.421726 
L 183.451069 153.206079 
L 196.962588 148.905297 
L 209.361204 145.038433 
L 270.499381 126.209677 
L 279.104079 123.580782 
L 287.831481 121.066973 
L 292.682861 119.598653 
L 294.641995 119.024212 
L 295.616173 118.681323 
L 295.623782 118.402356 
L 295.806283 117.778009 
L 297.743937 112.774654 
L 302.11689 103.641504 
L 307.707423 92.981587 
L 311.040324 86.446559 
L 312.355472 83.905947 
L 313.291966 82.169741 
L 315.463266 77.858244 
L 318.419388 70.884215 
L 318.366476 70.87299 
L 318.152091 70.961596 
L 317.627686 71.009488 
L 317.639788 70.986842 
L 317.5976 70.716231 
L 317.647982 70.32052 
L 318.764841 67.675482 
L 318.887978 67.433776 
L 319.171443 67.068166 
L 319.176963 67.105379 
L 321.798949 69.082625 
L 321.782506 69.091914 
" clip-path="url(#pd9afd55fdb)" style="fill: none; stroke: #d7191c; stroke-opacity: 0.6; stroke-width: 3; stroke-linecap: square"/>
   </g>
   <g id="patch_3">
    <path d="M 72 384.48 
L 72 51.84 
" style="fill: none; stroke: #000000; stroke-width: 0.8; stroke-linejoin: miter; stroke-linecap: square"/>
   </g>
   <g id="patch_4">
    <path d="M 518.4 384.48 
L 518.4 51.84 
" style="fill: none; stroke: #000000; stroke-width: 0.8; stroke-linejoin: miter; stroke-linecap: square"/>
   </g>
   <g id="patch_5">
    <path d="M 72 384.48 
L 518.4 384.48 
" style="fill: none; stroke: #000000; stroke-width: 0.8; stroke-linejoin: miter; stroke-linecap: square"/>
   </g>
   <g id="patch_6">
    <path d="M 72 51.84 
L 518.4 51.84 
" style="fill: none; stroke: #000000; stroke-width: 0.8; stroke-linejoin: miter; stroke-linecap: square"/>
   </g>
   <g id="PathCollection_5">
    <path d="M 318.721509 70.122278 
C 319.560155 70.122278 320.364565 69.78908 320.957577 69.196068 
C 321.550589 68.603056 321.883786 67.798646 321.883786 66.96 
C 321.883786 66.121354 321.550589 65.316944 320.957577 64.723932 
C 320.364565 64.13092 319.560155 63.797722 318.721509 63.797722 
C 317.882863 63.797722 317.078453 64.13092 316.485441 64.723932 
C 315.892429 65.316944 315.559231 66.121354 315.559231 66.96 
C 315.559231 67.798646 315.892429 68.603056 316.485441 69.196068 
C 317.078453 69.78908 317.882863 70.122278 318.721509 70.122278 
z
" clip-path="url(#pd9afd55fdb)" style="fill: #c6dbef; stroke: #252525; stroke-width: 0.908234"/>
    <path d="M 296.045532 173.73652 
C 297.651416 173.73652 299.191744 173.098496 300.327276 171.962964 
C 301.462808 170.827432 302.100832 169.287104 302.100832 167.68122 
C 302.100832 166.075335 301.462808 164.535007 300.327276 163.399476 
C 299.191744 162.263944 297.651416 161.625919 296.045532 161.625919 
C 294.439647 161.625919 292.899319 162.263944 291.763788 163.399476 
C 290.628256 164.535007 289.990231 166.075335 289.990231 167.68122 
C 289.990231 169.287104 290.628256 170.827432 291.763788 171.962964 
C 292.899319 173.098496 294.439647 173.73652 296.045532 173.73652 
z
" clip-path="url(#pd9afd55fdb)" style="fill: #1b67aa; stroke: #252525; stroke-width: 0.908234"/>
    <path d="M 413.141046 295.029863 
C 414.854555 295.029863 416.498113 294.349079 417.709746 293.137446 
C 418.921379 291.925813 419.602163 290.282255 419.602163 288.568747 
C 419.602163 286.855238 418.921379 285.21168 417.709746 284.000047 
C 416.498113 282.788414 414.854555 282.10763 413.141046 282.10763 
C 411.427538 282.10763 409.78398 282.788414 408.572347 284.000047 
C 407.360713 285.21168 406.679929 286.855238 406.679929 288.568747 
C 406.679929 290.282255 407.360713 291.925813 408.572347 293.137446 
C 409.78398 294.349079 411.427538 295.029863 413.141046 295.029863 
z
" clip-path="url(#pd9afd55fdb)" style="fill: #084b93; stroke: #252525; stroke-width: 0.908234"/>
    <path d="M 178.949785 295.594695 
C 180.81311 295.594695 182.600368 294.854389 183.917938 293.536819 
C 185.235507 292.21925 185.975814 290.431991 185.975814 288.568667 
C 185.975814 286.705342 185.235507 284.918083 183.917938 283.600514 
C 182.600368 282.282945 180.81311 281.542638 178.949785 281.542638 
C 177.086461 281.542638 175.299202 282.282945 173.981633 283.600514 
C 172.664063 284.918083 171.923757 286.705342 171.923757 288.568667 
C 171.923757 290.431991 172.664063 292.21925 173.981633 293.536819 
C 175.299202 294.854389 177.086461 295.594695 178.949785 295.594695 
z
" clip-path="url(#pd9afd55fdb)" style="fill: #08326e; stroke: #252525; stroke-width: 0.908234"/>
    <path d="M 295.622814 166.673167 
C 297.498083 166.673167 299.296798 165.928115 300.622814 164.602099 
C 301.948829 163.276084 302.693881 161.477368 302.693881 159.602099 
C 302.693881 157.72683 301.948829 155.928115 300.622814 154.602099 
C 299.296798 153.276084 297.498083 152.531032 295.622814 152.531032 
C 293.747545 152.531032 291.948829 153.276084 290.622814 154.602099 
C 289.296798 155.928115 288.551746 157.72683 288.551746 159.602099 
C 288.551746 161.477368 289.296798 163.276084 290.622814 164.602099 
C 291.948829 165.928115 293.747545 166.673167 295.622814 166.673167 
z
" clip-path="url(#pd9afd55fdb)" style="fill: #08306b; stroke: #252525; stroke-width: 0.908234"/>
    <path d="M 444.422729 255.221813 
C 446.212713 255.221813 447.929625 254.510645 449.195336 253.244935 
C 450.461046 251.979224 451.172214 250.262312 451.172214 248.472327 
C 451.172214 246.682343 450.461046 244.965431 449.195336 243.69972 
C 447.929625 242.43401 446.212713 241.722842 444.422729 241.722842 
C 442.632744 241.722842 440.915832 242.43401 439.650122 243.69972 
C 438.384411 244.965431 437.673243 246.682343 437.673243 248.472327 
C 437.673243 250.262312 438.384411 251.979224 439.650122 253.244935 
C 440.915832 254.510645 442.632744 255.221813 444.422729 255.221813 
z
" clip-path="url(#pd9afd55fdb)" style="fill: #083e81; stroke: #252525; stroke-width: 0.908234"/>
    <path d="M 295.62264 343.997497 
C 297.387501 343.997497 299.080315 343.29631 300.32826 342.048365 
C 301.576205 340.80042 302.277392 339.107606 302.277392 337.342746 
C 302.277392 335.577885 301.576205 333.885071 300.32826 332.637126 
C 299.080315 331.389181 297.387501 330.687994 295.62264 330.687994 
C 293.85778 330.687994 292.164966 331.389181 290.917021 332.637126 
C 289.669076 333.885071 288.967889 335.577885 288.967889 337.342746 
C 288.967889 339.107606 289.669076 340.80042 290.917021 342.048365 
C 292.164966 343.29631 293.85778 343.997497 295.62264 343.997497 
z
" clip-path="url(#pd9afd55fdb)" style="fill: #084387; stroke: #252525; stroke-width: 0.908234"/>
    <path d="M 146.822725 255.268582 
C 148.62514 255.268582 150.353976 254.552475 151.628476 253.277975 
C 152.902976 252.003475 153.619083 250.274639 153.619083 248.472224 
C 153.619083 246.669809 152.902976 244.940974 151.628476 243.666474 
C 150.353976 242.391974 148.62514 241.675867 146.822725 241.675867 
C 145.02031 241.675867 143.291475 242.391974 142.016975 243.666474 
C 140.742475 244.940974 140.026368 246.669809 140.026368 248.472224 
C 140.026368 250.274639 140.742475 252.003475 142.016975 253.277975 
C 143.291475 254.552475 145.02031 255.268582 146.822725 255.268582 
z
" clip-path="url(#pd9afd55fdb)" style="fill: #083c7d; stroke: #252525; stroke-width: 0.908234"/>
    <path d="M 295.200096 158.319336 
C 297.002511 158.319336 298.731346 157.603229 300.005846 156.328729 
C 301.280346 155.054229 301.996453 153.325394 301.996453 151.522979 
C 301.996453 149.720564 301.280346 147.991728 300.005846 146.717228 
C 298.731346 145.442728 297.002511 144.726621 295.200096 144.726621 
C 293.397681 144.726621 291.668845 145.442728 290.394345 146.717228 
C 289.119845 147.991728 288.403738 149.720564 288.403738 151.522979 
C 288.403738 153.325394 289.119845 155.054229 290.394345 156.328729 
C 291.668845 157.603229 293.397681 158.319336 295.200096 158.319336 
z
" clip-path="url(#pd9afd55fdb)" style="fill: #083c7d; stroke: #252525; stroke-width: 0.908234"/>
    <path d="M 449.495312 224.76049 
C 451.221802 224.76049 452.877811 224.074549 454.098624 222.853736 
C 455.319436 221.632924 456.005378 219.976914 456.005378 218.250425 
C 456.005378 216.523935 455.319436 214.867926 454.098624 213.647113 
C 452.877811 212.426301 451.221802 211.740359 449.495312 211.740359 
C 447.768823 211.740359 446.112814 212.426301 444.892001 213.647113 
C 443.671189 214.867926 442.985247 216.523935 442.985247 218.250425 
C 442.985247 219.976914 443.671189 221.632924 444.892001 222.853736 
C 446.112814 224.074549 447.768823 224.76049 449.495312 224.76049 
z
" clip-path="url(#pd9afd55fdb)" style="fill: #084990; stroke: #252525; stroke-width: 0.908234"/>
    <path d="M 390.313836 332.832056 
C 391.974405 332.832056 393.567184 332.172305 394.741383 330.998106 
C 395.915583 329.823907 396.575333 328.231127 396.575333 326.570559 
C 396.575333 324.90999 395.915583 323.317211 394.741383 322.143012 
C 393.567184 320.968812 391.974405 320.309061 390.313836 320.309061 
C 388.653268 320.309061 387.060488 320.968812 385.886289 322.143012 
C 384.71209 323.317211 384.052339 324.90999 384.052339 326.570559 
C 384.052339 328.231127 384.71209 329.823907 385.886289 330.998106 
C 387.060488 332.172305 388.653268 332.832056 390.313836 332.832056 
z
" clip-path="url(#pd9afd55fdb)" style="fill: #0d569f; stroke: #252525; stroke-width: 0.908234"/>
    <path d="M 199.66328 332.982286 
C 201.363708 332.982286 202.99472 332.306699 204.197104 331.104314 
C 205.399488 329.90193 206.075075 328.270919 206.075075 326.570491 
C 206.075075 324.870063 205.399488 323.239052 204.197104 322.036667 
C 202.99472 320.834283 201.363708 320.158696 199.66328 320.158696 
C 197.962852 320.158696 196.331841 320.834283 195.129457 322.036667 
C 193.927073 323.239052 193.251485 324.870063 193.251485 326.570491 
C 193.251485 328.270919 193.927073 329.90193 195.129457 331.104314 
C 196.331841 332.306699 197.962852 332.982286 199.66328 332.982286 
z
" clip-path="url(#pd9afd55fdb)" style="fill: #084d96; stroke: #252525; stroke-width: 0.908234"/>
    <path d="M 140.904747 224.612406 
C 142.591993 224.612406 144.210361 223.942056 145.403424 222.748993 
C 146.596487 221.55593 147.266837 219.937562 147.266837 218.250316 
C 147.266837 216.56307 146.596487 214.944702 145.403424 213.751639 
C 144.210361 212.558576 142.591993 211.888226 140.904747 211.888226 
C 139.217501 211.888226 137.599133 212.558576 136.40607 213.751639 
C 135.213007 214.944702 134.542657 216.56307 134.542657 218.250316 
C 134.542657 219.937562 135.213007 221.55593 136.40607 222.748993 
C 137.599133 223.942056 139.217501 224.612406 140.904747 224.612406 
z
" clip-path="url(#pd9afd55fdb)" style="fill: #084f99; stroke: #252525; stroke-width: 0.908234"/>
    <path d="M 295.622829 149.953924 
C 297.349319 149.953924 299.005328 149.267983 300.226141 148.04717 
C 301.446953 146.826358 302.132895 145.170348 302.132895 143.443859 
C 302.132895 141.717369 301.446953 140.06136 300.226141 138.840547 
C 299.005328 137.619735 297.349319 136.933793 295.622829 136.933793 
C 293.89634 136.933793 292.24033 137.619735 291.019518 138.840547 
C 289.798705 140.06136 289.112764 141.717369 289.112764 143.443859 
C 289.112764 145.170348 289.798705 146.826358 291.019518 148.04717 
C 292.24033 149.267983 293.89634 149.953924 295.622829 149.953924 
z
" clip-path="url(#pd9afd55fdb)" style="fill: #084990; stroke: #252525; stroke-width: 0.908234"/>
    <path d="M 447.8043 201.967689 
C 449.437755 201.967689 451.004529 201.31871 452.159556 200.163683 
C 453.314583 199.008655 453.963562 197.441882 453.963562 195.808427 
C 453.963562 194.174971 453.314583 192.608198 452.159556 191.453171 
C 451.004529 190.298143 449.437755 189.649165 447.8043 189.649165 
C 446.170845 189.649165 444.604072 190.298143 443.449044 191.453171 
C 442.294017 192.608198 441.645038 194.174971 441.645038 195.808427 
C 441.645038 197.441882 442.294017 199.008655 443.449044 200.163683 
C 444.604072 201.31871 446.170845 201.967689 447.8043 201.967689 
z
" clip-path="url(#pd9afd55fdb)" style="fill: #145fa5; stroke: #252525; stroke-width: 0.908234"/>
    <path d="M 447.804792 306.839635 
C 449.396712 306.839635 450.923646 306.207159 452.049303 305.081501 
C 453.174961 303.955844 453.807437 302.428911 453.807437 300.83699 
C 453.807437 299.24507 453.174961 297.718137 452.049303 296.59248 
C 450.923646 295.466822 449.396712 294.834346 447.804792 294.834346 
C 446.212872 294.834346 444.685939 295.466822 443.560281 296.59248 
C 442.434624 297.718137 441.802147 299.24507 441.802147 300.83699 
C 441.802147 302.428911 442.434624 303.955844 443.560281 305.081501 
C 444.685939 306.207159 446.212872 306.839635 447.804792 306.839635 
z
" clip-path="url(#pd9afd55fdb)" style="fill: #1f6bad; stroke: #252525; stroke-width: 0.908234"/>
    <path d="M 295.622625 359.204404 
C 297.214545 359.204404 298.741478 358.571928 299.867136 357.44627 
C 300.992793 356.320613 301.62527 354.79368 301.62527 353.20176 
C 301.62527 351.60984 300.992793 350.082906 299.867136 348.957249 
C 298.741478 347.831591 297.214545 347.199115 295.622625 347.199115 
C 294.030705 347.199115 292.503771 347.831591 291.378114 348.957249 
C 290.252457 350.082906 289.61998 351.60984 289.61998 353.20176 
C 289.61998 354.79368 290.252457 356.320613 291.378114 357.44627 
C 292.503771 358.571928 294.030705 359.204404 295.622625 359.204404 
z
" clip-path="url(#pd9afd55fdb)" style="fill: #1f6bad; stroke: #252525; stroke-width: 0.908234"/>
    <path d="M 143.44056 306.944387 
C 145.060288 306.944387 146.613895 306.300862 147.759216 305.155541 
C 148.904537 304.01022 149.548062 302.456613 149.548062 300.836885 
C 149.548062 299.217156 148.904537 297.663549 147.759216 296.518228 
C 146.613895 295.372907 145.060288 294.729382 143.44056 294.729382 
C 141.820831 294.729382 140.267224 295.372907 139.121903 296.518228 
C 137.976582 297.663549 137.333057 299.217156 137.333057 300.836885 
C 137.333057 302.456613 137.976582 304.01022 139.121903 305.155541 
C 140.267224 306.300862 141.820831 306.944387 143.44056 306.944387 
z
" clip-path="url(#pd9afd55fdb)" style="fill: #1863a7; stroke: #252525; stroke-width: 0.908234"/>
    <path d="M 143.441257 201.863622 
C 145.047141 201.863622 146.587469 201.225597 147.723001 200.090065 
C 148.858533 198.954533 149.496557 197.414206 149.496557 195.808321 
C 149.496557 194.202437 148.858533 192.662109 147.723001 191.526577 
C 146.587469 190.391045 145.047141 189.75302 143.441257 189.75302 
C 141.835372 189.75302 140.295044 190.391045 139.159512 191.526577 
C 138.02398 192.662109 137.385956 194.202437 137.385956 195.808321 
C 137.385956 197.414206 138.02398 198.954533 139.159512 200.090065 
C 140.295044 201.225597 141.835372 201.863622 143.441257 201.863622 
z
" clip-path="url(#pd9afd55fdb)" style="fill: #1b67aa; stroke: #252525; stroke-width: 0.908234"/>
    <path d="M 295.622837 141.524 
C 297.256293 141.524 298.823066 140.875022 299.978093 139.719994 
C 301.133121 138.564967 301.782099 136.998194 301.782099 135.364738 
C 301.782099 133.731283 301.133121 132.16451 299.978093 131.009483 
C 298.823066 129.854455 297.256293 129.205476 295.622837 129.205476 
C 293.989382 129.205476 292.422609 129.854455 291.267581 131.009483 
C 290.112554 132.16451 289.463575 133.731283 289.463575 135.364738 
C 289.463575 136.998194 290.112554 138.564967 291.267581 139.719994 
C 292.422609 140.875022 293.989382 141.524 295.622837 141.524 
z
" clip-path="url(#pd9afd55fdb)" style="fill: #145fa5; stroke: #252525; stroke-width: 0.908234"/>
    <path d="M 443.576956 184.103583 
C 445.154788 184.103583 446.668208 183.476704 447.783904 182.361008 
C 448.8996 181.245312 449.526479 179.731892 449.526479 178.15406 
C 449.526479 176.576228 448.8996 175.062807 447.783904 173.947112 
C 446.668208 172.831416 445.154788 172.204537 443.576956 172.204537 
C 441.999124 172.204537 440.485703 172.831416 439.370008 173.947112 
C 438.254312 175.062807 437.627433 176.576228 437.627433 178.15406 
C 437.627433 179.731892 438.254312 181.245312 439.370008 182.361008 
C 440.485703 183.476704 441.999124 184.103583 443.576956 184.103583 
z
" clip-path="url(#pd9afd55fdb)" style="fill: #236faf; stroke: #252525; stroke-width: 0.908234"/>
    <path d="M 480.354695 279.394534 
C 481.889487 279.394534 483.361625 278.784755 484.446887 277.699493 
C 485.532149 276.614231 486.141928 275.142094 486.141928 273.607301 
C 486.141928 272.072509 485.532149 270.600372 484.446887 269.51511 
C 483.361625 268.429848 481.889487 267.820069 480.354695 267.820069 
C 478.819903 267.820069 477.347766 268.429848 476.262504 269.51511 
C 475.177242 270.600372 474.567463 272.072509 474.567463 273.607301 
C 474.567463 275.142094 475.177242 276.614231 476.262504 277.699493 
C 477.347766 278.784755 478.819903 279.394534 480.354695 279.394534 
z
" clip-path="url(#pd9afd55fdb)" style="fill: #2e7bb7; stroke: #252525; stroke-width: 0.908234"/>
    <path d="M 377.63203 356.135322 
C 379.195647 356.135322 380.695433 355.514091 381.801077 354.408446 
C 382.906721 353.302802 383.527953 351.803016 383.527953 350.239399 
C 383.527953 348.675782 382.906721 347.175997 381.801077 346.070352 
C 380.695433 344.964708 379.195647 344.343477 377.63203 344.343477 
C 376.068413 344.343477 374.568627 344.964708 373.462983 346.070352 
C 372.357339 347.175997 371.736107 348.675782 371.736107 350.239399 
C 371.736107 351.803016 372.357339 353.302802 373.462983 354.408446 
C 374.568627 355.514091 376.068413 356.135322 377.63203 356.135322 
z
" clip-path="url(#pd9afd55fdb)" style="fill: #2673b2; stroke: #252525; stroke-width: 0.908234"/>
    <path d="M 213.613226 356.026575 
C 215.148018 356.026575 216.620155 355.416796 217.705417 354.331534 
C 218.790679 353.246272 219.400458 351.774135 219.400458 350.239342 
C 219.400458 348.70455 218.790679 347.232413 217.705417 346.147151 
C 216.620155 345.061889 215.148018 344.45211 213.613226 344.45211 
C 212.078433 344.45211 210.606296 345.061889 209.521034 346.147151 
C 208.435772 347.232413 207.825993 348.70455 207.825993 350.239342 
C 207.825993 351.774135 208.435772 353.246272 209.521034 354.331534 
C 210.606296 355.416796 212.078433 356.026575 213.613226 356.026575 
z
" clip-path="url(#pd9afd55fdb)" style="fill: #2e7bb7; stroke: #252525; stroke-width: 0.908234"/>
    <path d="M 110.89071 279.503096 
C 112.454327 279.503096 113.954112 278.881864 115.059756 277.77622 
C 116.165401 276.670576 116.786632 275.17079 116.786632 273.607173 
C 116.786632 272.043556 116.165401 270.54377 115.059756 269.438126 
C 113.954112 268.332482 112.454327 267.71125 110.89071 267.71125 
C 109.327093 267.71125 107.827307 268.332482 106.721663 269.438126 
C 105.616018 270.54377 104.994787 272.043556 104.994787 273.607173 
C 104.994787 275.17079 105.616018 276.670576 106.721663 277.77622 
C 107.827307 278.881864 109.327093 279.503096 110.89071 279.503096 
z
" clip-path="url(#pd9afd55fdb)" style="fill: #2673b2; stroke: #252525; stroke-width: 0.908234"/>
    <path d="M 147.668635 184.04988 
C 149.232252 184.04988 150.732038 183.428648 151.837682 182.323004 
C 152.943326 181.21736 153.564558 179.717574 153.564558 178.153957 
C 153.564558 176.59034 152.943326 175.090554 151.837682 173.98491 
C 150.732038 172.879266 149.232252 172.258034 147.668635 172.258034 
C 146.105018 172.258034 144.605233 172.879266 143.499588 173.98491 
C 142.393944 175.090554 141.772713 176.59034 141.772713 178.153957 
C 141.772713 179.717574 142.393944 181.21736 143.499588 182.323004 
C 144.605233 183.428648 146.105018 184.04988 147.668635 184.04988 
z
" clip-path="url(#pd9afd55fdb)" style="fill: #2673b2; stroke: #252525; stroke-width: 0.908234"/>
    <path d="M 295.20012 133.181541 
C 296.763737 133.181541 298.263523 132.560309 299.369167 131.454665 
C 300.474811 130.349021 301.096042 128.849235 301.096042 127.285618 
C 301.096042 125.722001 300.474811 124.222215 299.369167 123.116571 
C 298.263523 122.010927 296.763737 121.389695 295.20012 121.389695 
C 293.636503 121.389695 292.136717 122.010927 291.031073 123.116571 
C 289.925429 124.222215 289.304197 125.722001 289.304197 127.285618 
C 289.304197 128.849235 289.925429 130.349021 291.031073 131.454665 
C 292.136717 132.560309 293.636503 133.181541 295.20012 133.181541 
z
" clip-path="url(#pd9afd55fdb)" style="fill: #2673b2; stroke: #252525; stroke-width: 0.908234"/>
    <path d="M 438.9269 168.381513 
C 440.461692 168.381513 441.93383 167.771733 443.019092 166.686471 
C 444.104353 165.601209 444.714133 164.129072 444.714133 162.59428 
C 444.714133 161.059488 444.104353 159.58735 443.019092 158.502088 
C 441.93383 157.416826 440.461692 156.807047 438.9269 156.807047 
C 437.392108 156.807047 435.91997 157.416826 434.834708 158.502088 
C 433.749447 159.58735 433.139667 161.059488 433.139667 162.59428 
C 433.139667 164.129072 433.749447 165.601209 434.834708 166.686471 
C 435.91997 167.771733 437.392108 168.381513 438.9269 168.381513 
z
" clip-path="url(#pd9afd55fdb)" style="fill: #2e7bb7; stroke: #252525; stroke-width: 0.908234"/>
    <path d="M 498.109091 253.849457 
C 499.614506 253.849457 501.058466 253.251349 502.122956 252.186859 
C 503.187445 251.12237 503.785553 249.67841 503.785553 248.172995 
C 503.785553 246.667579 503.187445 245.223619 502.122956 244.15913 
C 501.058466 243.09464 499.614506 242.496532 498.109091 242.496532 
C 496.603676 242.496532 495.159715 243.09464 494.095226 244.15913 
C 493.030737 245.223619 492.432629 246.667579 492.432629 248.172995 
C 492.432629 249.67841 493.030737 251.12237 494.095226 252.186859 
C 495.159715 253.251349 496.603676 253.849457 498.109091 253.849457 
z
" clip-path="url(#pd9afd55fdb)" style="fill: #3583bc; stroke: #252525; stroke-width: 0.908234"/>
    <path d="M 438.927647 339.727628 
C 440.433062 339.727628 441.877022 339.12952 442.941512 338.065031 
C 444.006001 337.000541 444.604109 335.556581 444.604109 334.051166 
C 444.604109 332.545751 444.006001 331.10179 442.941512 330.037301 
C 441.877022 328.972812 440.433062 328.374704 438.927647 328.374704 
C 437.422231 328.374704 435.978271 328.972812 434.913782 330.037301 
C 433.849292 331.10179 433.251185 332.545751 433.251185 334.051166 
C 433.251185 335.556581 433.849292 337.000541 434.913782 338.065031 
C 435.978271 339.12952 437.422231 339.727628 438.927647 339.727628 
z
" clip-path="url(#pd9afd55fdb)" style="fill: #3583bc; stroke: #252525; stroke-width: 0.908234"/>
    <path d="M 295.19988 375.036462 
C 296.705295 375.036462 298.149255 374.438354 299.213745 373.373865 
C 300.278234 372.309375 300.876342 370.865415 300.876342 369.36 
C 300.876342 367.854585 300.278234 366.410625 299.213745 365.346135 
C 298.149255 364.281646 296.705295 363.683538 295.19988 363.683538 
C 293.694465 363.683538 292.250505 364.281646 291.186015 365.346135 
C 290.121526 366.410625 289.523418 367.854585 289.523418 369.36 
C 289.523418 370.865415 290.121526 372.309375 291.186015 373.373865 
C 292.250505 374.438354 293.694465 375.036462 295.19988 375.036462 
z
" clip-path="url(#pd9afd55fdb)" style="fill: #3583bc; stroke: #252525; stroke-width: 0.908234"/>
    <path d="M 151.894912 339.838298 
C 153.429704 339.838298 154.901841 339.228519 155.987103 338.143257 
C 157.072365 337.057995 157.682145 335.585858 157.682145 334.051065 
C 157.682145 332.516273 157.072365 331.044136 155.987103 329.958874 
C 154.901841 328.873612 153.429704 328.263833 151.894912 328.263833 
C 150.36012 328.263833 148.887982 328.873612 147.80272 329.958874 
C 146.717458 331.044136 146.107679 332.516273 146.107679 334.051065 
C 146.107679 335.585858 146.717458 337.057995 147.80272 338.143257 
C 148.887982 339.228519 150.36012 339.838298 151.894912 339.838298 
z
" clip-path="url(#pd9afd55fdb)" style="fill: #2e7bb7; stroke: #252525; stroke-width: 0.908234"/>
    <path d="M 92.290909 253.904966 
C 93.811084 253.904966 95.269201 253.300995 96.344127 252.226069 
C 97.419052 251.151143 98.023024 249.693026 98.023024 248.172851 
C 98.023024 246.652677 97.419052 245.19456 96.344127 244.119634 
C 95.269201 243.044708 93.811084 242.440736 92.290909 242.440736 
C 90.770734 242.440736 89.312617 243.044708 88.237692 244.119634 
C 87.162766 245.19456 86.558794 246.652677 86.558794 248.172851 
C 86.558794 249.693026 87.162766 251.151143 88.237692 252.226069 
C 89.312617 253.300995 90.770734 253.904966 92.290909 253.904966 
z
" clip-path="url(#pd9afd55fdb)" style="fill: #317fba; stroke: #252525; stroke-width: 0.908234"/>
    <path d="M 151.895995 168.326294 
C 153.41617 168.326294 154.874287 167.722323 155.949213 166.647397 
C 157.024139 165.572471 157.62811 164.114354 157.62811 162.594179 
C 157.62811 161.074005 157.024139 159.615888 155.949213 158.540962 
C 154.874287 157.466036 153.41617 156.862064 151.895995 156.862064 
C 150.375821 156.862064 148.917704 157.466036 147.842778 158.540962 
C 146.767852 159.615888 146.16388 161.074005 146.16388 162.594179 
C 146.16388 164.114354 146.767852 165.572471 147.842778 166.647397 
C 148.917704 167.722323 150.375821 168.326294 151.895995 168.326294 
z
" clip-path="url(#pd9afd55fdb)" style="fill: #317fba; stroke: #252525; stroke-width: 0.908234"/>
    <path d="M 295.200128 124.479798 
C 296.7494 124.479798 298.235426 123.864265 299.330926 122.768765 
C 300.426427 121.673265 301.041959 120.187239 301.041959 118.637967 
C 301.041959 117.088695 300.426427 115.602669 299.330926 114.507169 
C 298.235426 113.411669 296.7494 112.796136 295.200128 112.796136 
C 293.650857 112.796136 292.164831 113.411669 291.06933 114.507169 
C 289.97383 115.602669 289.358298 117.088695 289.358298 118.637967 
C 289.358298 120.187239 289.97383 121.673265 291.06933 122.768765 
C 292.164831 123.864265 293.650857 124.479798 295.200128 124.479798 
z
" clip-path="url(#pd9afd55fdb)" style="fill: #2a77b5; stroke: #252525; stroke-width: 0.908234"/>
    <path d="M 319.088218 70.6239 
C 320.02734 70.6239 320.928124 70.250783 321.592183 69.586724 
C 322.256242 68.922664 322.629359 68.02188 322.629359 67.082758 
C 322.629359 66.143637 322.256242 65.242853 321.592183 64.578793 
C 320.928124 63.914734 320.02734 63.541617 319.088218 63.541617 
C 318.149096 63.541617 317.248312 63.914734 316.584253 64.578793 
C 315.920194 65.242853 315.547077 66.143637 315.547077 67.082758 
C 315.547077 68.02188 315.920194 68.922664 316.584253 69.586724 
C 317.248312 70.250783 318.149096 70.6239 319.088218 70.6239 
z
" clip-path="url(#pd9afd55fdb)" style="fill: #bcd7eb; stroke: #252525; stroke-width: 0.908234"/>
   </g>
   <g id="text_14">
    <text style="font: 12px 'DejaVu Sans', 'Bitstream Vera Sans', 'Computer Modern Sans Serif', 'Lucida Grande', 'Verdana', 'Geneva', 'Lucid', 'Arial', 'Helvetica', 'Avant Garde', sans-serif; text-anchor: middle" x="295.2" y="45.84" transform="rotate(-0 295.2 45.84)">Total Waypoints: 1540</text>
   </g>
   <g id="legend_1">
    <g id="patch_7">
     <path d="M 79 133.230625 
L 160.11875 133.230625 
Q 162.11875 133.230625 162.11875 131.230625 
L 162.11875 58.84 
Q 162.11875 56.84 160.11875 56.84 
L 79 56.84 
Q 77 56.84 77 58.84 
L 77 131.230625 
Q 77 133.230625 79 133.230625 
z
" style="fill: #ffffff; opacity: 0.8; stroke: #cccccc; stroke-linejoin: miter"/>
    </g>
    <g id="text_15">
     <text style="font: 10px 'DejaVu Sans', 'Bitstream Vera Sans', 'Computer Modern Sans Serif', 'Lucida Grande', 'Verdana', 'Geneva', 'Lucid', 'Arial', 'Helvetica', 'Avant Garde', sans-serif; text-anchor: start" x="81" y="68.438437" transform="rotate(-0 81 68.438437)">Number of WPs</text>
    </g>
    <g id="PathCollection_6">
     <defs>
      <path id="m9b58d110ee" d="M 0 4.346135 
C 1.152608 4.346135 2.258164 3.888199 3.073181 3.073181 
C 3.888199 2.258164 4.346135 1.152608 4.346135 0 
C 4.346135 -1.152608 3.888199 -2.258164 3.073181 -3.073181 
C 2.258164 -3.888199 1.152608 -4.346135 0 -4.346135 
C -1.152608 -4.346135 -2.258164 -3.888199 -3.073181 -3.073181 
C -3.888199 -2.258164 -4.346135 -1.152608 -4.346135 0 
C -4.346135 1.152608 -3.888199 2.258164 -3.073181 3.073181 
C -2.258164 3.888199 -1.152608 4.346135 0 4.346135 
z
" style="stroke: #a3cce3"/>
     </defs>
     <g>
      <use xlink:href="#m9b58d110ee" x="109.196875" y="80.491562" style="fill: #a3cce3; stroke: #a3cce3"/>
     </g>
    </g>
    <g id="text_16">
     <text style="font: 10px 'DejaVu Sans', 'Bitstream Vera Sans', 'Computer Modern Sans Serif', 'Lucida Grande', 'Verdana', 'Geneva', 'Lucid', 'Arial', 'Helvetica', 'Avant Garde', sans-serif; text-anchor: start" x="127.196875" y="83.116562" transform="rotate(-0 127.196875 83.116562)">15</text>
    </g>
    <g id="PathCollection_7">
     <defs>
      <path id="m84f37d8b4a" d="M 0 5.330356 
C 1.413627 5.330356 2.769546 4.768716 3.769131 3.769131 
C 4.768716 2.769546 5.330356 1.413627 5.330356 0 
C 5.330356 -1.413627 4.768716 -2.769546 3.769131 -3.769131 
C 2.769546 -4.768716 1.413627 -5.330356 0 -5.330356 
C -1.413627 -5.330356 -2.769546 -4.768716 -3.769131 -3.769131 
C -4.768716 -2.769546 -5.330356 -1.413627 -5.330356 0 
C -5.330356 1.413627 -4.768716 2.769546 -3.769131 3.769131 
C -2.769546 4.768716 -1.413627 5.330356 0 5.330356 
z
" style="stroke: #519bca"/>
     </defs>
     <g>
      <use xlink:href="#m84f37d8b4a" x="109.196875" y="95.169688" style="fill: #519bca; stroke: #519bca"/>
     </g>
    </g>
    <g id="text_17">
     <text style="font: 10px 'DejaVu Sans', 'Bitstream Vera Sans', 'Computer Modern Sans Serif', 'Lucida Grande', 'Verdana', 'Geneva', 'Lucid', 'Arial', 'Helvetica', 'Avant Garde', sans-serif; text-anchor: start" x="127.196875" y="97.794688" transform="rotate(-0 127.196875 97.794688)">30</text>
    </g>
    <g id="PathCollection_8">
     <defs>
      <path id="m12530d8ea7" d="M 0 6.159262 
C 1.633455 6.159262 3.200229 5.510283 4.355256 4.355256 
C 5.510283 3.200229 6.159262 1.633455 6.159262 0 
C 6.159262 -1.633455 5.510283 -3.200229 4.355256 -4.355256 
C 3.200229 -5.510283 1.633455 -6.159262 0 -6.159262 
C -1.633455 -6.159262 -3.200229 -5.510283 -4.355256 -4.355256 
C -5.510283 -3.200229 -6.159262 -1.633455 -6.159262 0 
C -6.159262 1.633455 -5.510283 3.200229 -4.355256 4.355256 
C -3.200229 5.510283 -1.633455 6.159262 0 6.159262 
z
" style="stroke: #145fa5"/>
     </defs>
     <g>
      <use xlink:href="#m12530d8ea7" x="109.196875" y="109.847812" style="fill: #145fa5; stroke: #145fa5"/>
     </g>
    </g>
    <g id="text_18">
     <text style="font: 10px 'DejaVu Sans', 'Bitstream Vera Sans', 'Computer Modern Sans Serif', 'Lucida Grande', 'Verdana', 'Geneva', 'Lucid', 'Arial', 'Helvetica', 'Avant Garde', sans-serif; text-anchor: start" x="127.196875" y="112.472812" transform="rotate(-0 127.196875 112.472812)">45</text>
    </g>
    <g id="PathCollection_9">
     <defs>
      <path id="m5d3b3acd33" d="M 0 6.889145 
C 1.827023 6.889145 3.579461 6.163261 4.871361 4.871361 
C 6.163261 3.579461 6.889145 1.827023 6.889145 0 
C 6.889145 -1.827023 6.163261 -3.579461 4.871361 -4.871361 
C 3.579461 -6.163261 1.827023 -6.889145 0 -6.889145 
C -1.827023 -6.889145 -3.579461 -6.163261 -4.871361 -4.871361 
C -6.163261 -3.579461 -6.889145 -1.827023 -6.889145 0 
C -6.889145 1.827023 -6.163261 3.579461 -4.871361 4.871361 
C -3.579461 6.163261 -1.827023 6.889145 0 6.889145 
z
" style="stroke: #083877"/>
     </defs>
     <g>
      <use xlink:href="#m5d3b3acd33" x="109.196875" y="124.525937" style="fill: #083877; stroke: #083877"/>
     </g>
    </g>
    <g id="text_19">
     <text style="font: 10px 'DejaVu Sans', 'Bitstream Vera Sans', 'Computer Modern Sans Serif', 'Lucida Grande', 'Verdana', 'Geneva', 'Lucid', 'Arial', 'Helvetica', 'Avant Garde', sans-serif; text-anchor: start" x="127.196875" y="127.150937" transform="rotate(-0 127.196875 127.150937)">60</text>
    </g>
   </g>
  </g>
 </g>
 <defs>
  <clipPath id="pd9afd55fdb">
   <rect x="72" y="51.84" width="446.4" height="332.64"/>
  </clipPath>
 </defs>
</svg>
